<svg id="Layer_1" enable-background="new 0 0 1580 1580" height="512" viewBox="0 0 1580 1580" width="512" xmlns="http://www.w3.org/2000/svg"><g><g><g id="XMLID_1_"><path d="m1416.55 1408.61c29.37 29.36 29.23 77.29-1.08 105.68-14.03 13.15-31.97 19.71-49.92 19.71-18.7 0-37.39-7.13-51.67-21.39l-34.16-34.17-223.34-223.35c19.97-13.46 38.95-29.03 56.62-46.7s33.24-36.65 46.71-56.63l223.34 223.35z" fill="#5cafe6"/><path d="m948.36 927.5c25.28 31.21 7.74 87.32-39.19 125.32-46.92 38.01-105.45 43.53-130.73 12.32-18.81-23.25-13.9-60.29 9.21-93.4 25.92.17 56.32-10.94 82.97-32.53 11.98-9.7 22.05-20.59 29.97-31.94l.01.01c19.71.11 36.84 6.74 47.76 20.22z" fill="#ff725c"/><path d="m787.65 971.74c-19.71-.11-36.84-6.74-47.76-20.22-25.28-31.21-7.74-87.32 39.19-125.32 46.92-38.01 105.45-43.52 130.73-12.31 18.82 23.24 13.9 60.29-9.22 93.38-7.92 11.35-17.99 22.24-29.97 31.94-26.65 21.59-57.05 32.7-82.97 32.53z" fill="#ff725c"/><path d="m1041.32 756.73c100.95 108.91 94.49 279.03-14.41 379.97-108.91 100.95-279.03 94.5-379.98-14.41-100.94-108.9-94.49-279.02 14.41-379.97 108.91-100.95 279.03-94.5 379.98 14.41zm-132.15 296.09c46.93-38 64.47-94.11 39.19-125.32-10.92-13.48-28.05-20.11-47.76-20.22l-.01-.01c23.12-33.09 28.04-70.14 9.22-93.38-25.28-31.21-83.81-25.7-130.73 12.31-46.93 38-64.47 94.11-39.19 125.32 10.92 13.48 28.05 20.11 47.76 20.22-23.11 33.11-28.02 70.15-9.21 93.4 25.28 31.21 83.81 25.69 130.73-12.32z" fill="#e6f5ff"/><path d="m636.72 1258.3c-21.76-14.18-42.38-30.82-61.47-49.91-148.5-148.5-148.5-389.26 0-537.76 97.59-97.58 235.01-131.04 359.92-100.36 65.16 15.99 126.92 49.45 177.83 100.36 130.83 130.83 146.4 333.26 46.71 481.13-13.47 19.98-29.04 38.96-46.71 56.63s-36.65 33.24-56.62 46.7c-126.29 85.14-292.37 86.21-419.66 3.21zm390.19-121.6c108.9-100.94 115.36-271.06 14.41-379.97s-271.07-115.36-379.98-14.41c-108.9 100.95-115.35 271.07-14.41 379.97 100.95 108.91 271.07 115.36 379.98 14.41z" fill="#66c2ff"/><path d="m935.17 570.26v.01c-124.91-30.68-262.33 2.78-359.92 100.36-148.5 148.5-148.5 389.26 0 537.76 19.09 19.09 39.71 35.73 61.47 49.91-21.95 3.5-44.47 5.3-67.4 5.3-236.22 0-427.71-191.49-427.71-427.71 0-364.22 427.71-789.89 427.71-789.89s247.35 246.16 365.85 524.26z" fill="#ff725c"/></g></g><g><g><g><path d="m844.13 1343.76c-52.49 0-103.67-9.96-152.11-29.6-50.16-20.34-95.16-50.22-133.74-88.8s-68.46-83.58-88.8-133.74c-19.64-48.44-29.6-99.61-29.6-152.11 0-52.49 9.96-103.67 29.6-152.11 20.34-50.16 50.22-95.16 88.8-133.74s83.58-68.46 133.74-88.8c48.44-19.64 99.61-29.6 152.11-29.6s103.67 9.96 152.11 29.6c50.16 20.34 95.16 50.22 133.74 88.8s68.46 83.58 88.8 133.74c19.64 48.44 29.6 99.61 29.6 152.11 0 52.49-9.96 103.67-29.6 152.11-20.34 50.16-50.22 95.16-88.8 133.74s-83.58 68.46-133.74 88.8c-48.45 19.64-99.62 29.6-152.11 29.6zm0-760.5c-95.16 0-184.62 37.06-251.91 104.34-67.29 67.29-104.34 156.75-104.34 251.91s37.06 184.62 104.34 251.91c67.29 67.29 156.75 104.34 251.91 104.34s184.62-37.06 251.91-104.34c138.9-138.9 138.9-364.91 0-503.81-67.3-67.29-156.76-104.35-251.91-104.35z" fill="#333"/></g><g><path d="m844.4 1232.39c-3.78 0-7.57-.07-11.37-.22-78.17-2.96-150.51-36.2-203.69-93.57s-80.84-132.02-77.87-210.2 36.19-150.51 93.57-203.69c57.37-53.18 132.01-80.85 210.2-77.87 78.17 2.96 150.51 36.19 203.69 93.57 53.18 57.37 80.84 132.02 77.87 210.2s-36.19 150.51-93.57 203.69c-54.59 50.6-124.82 78.09-198.83 78.09zm-.5-537.76c-61.89 0-120.6 22.98-166.24 65.29-47.97 44.47-75.75 104.95-78.23 170.31s20.64 127.78 65.11 175.75 104.95 75.75 170.31 78.23c65.34 2.47 127.78-20.64 175.75-65.11s75.75-104.95 78.23-170.31-20.64-127.78-65.11-175.75c-44.46-47.97-104.95-75.75-170.31-78.23-3.18-.12-6.35-.18-9.51-.18z" fill="#333"/></g><g><path d="m1365.55 1558c-25.92 0-50.3-10.09-68.63-28.42l-34.17-34.17-223.34-223.34c-9.37-9.37-9.37-24.57 0-33.94s24.57-9.37 33.94 0l223.34 223.34 34.16 34.17c9.26 9.26 21.59 14.36 34.69 14.36 12.51 0 24.41-4.7 33.51-13.22 9.66-9.05 15.11-21.39 15.32-34.73.22-13.75-5.03-26.7-14.8-36.47l-256.84-256.84c-9.37-9.37-9.37-24.57 0-33.94s24.57-9.37 33.94 0l256.84 256.84c18.77 18.77 29.29 44.72 28.86 71.19-.43 26.46-11.26 50.96-30.5 68.98-18.02 16.89-41.58 26.19-66.32 26.19z" fill="#333"/></g><g><g><path d="m788.39 995.74c-27.85 0-51.92-10.32-67.14-29.11-17.19-21.23-21.47-51.25-11.74-82.38 8.8-28.13 28.14-55.37 54.47-76.7s56.99-34.59 86.34-37.35c32.47-3.06 60.96 7.36 78.15 28.59s21.47 51.25 11.74 82.38c-8.8 28.14-28.14 55.38-54.47 76.7-26.33 21.33-56.99 34.59-86.34 37.35-3.73.35-7.41.52-11.01.52zm73.11-178.08c-2.47 0-4.75.14-6.7.32-19.75 1.86-41.84 11.65-60.62 26.87-39.08 31.65-50.14 73.66-35.64 91.57 14.51 17.91 57.9 15.8 96.98-15.85 18.78-15.21 32.95-34.8 38.87-53.72 2.85-9.13 6.23-26.18-3.23-37.85-7.52-9.29-20.06-11.34-29.66-11.34z" fill="#333"/></g><g><path d="m826.93 1109.36c-27.85 0-51.91-10.32-67.13-29.11-25.18-31.1-21.96-79.08 8.18-122.25 7.59-10.87 22.55-13.53 33.42-5.94s13.53 22.55 5.94 33.42c-17.31 24.79-21.43 50.74-10.24 64.56 14.5 17.9 57.89 15.79 96.97-15.86 18.79-15.21 32.95-34.79 38.87-53.72 2.85-9.12 6.23-26.17-3.23-37.84-7.51-9.27-20.05-11.28-29.24-11.33-13.25-.07-23.94-10.88-23.87-24.13.07-13.21 10.8-23.87 24-23.87h.13c27.65.15 51.19 10.49 66.28 29.11 17.19 21.23 21.47 51.25 11.74 82.38-8.8 28.14-28.14 55.38-54.47 76.7-26.32 21.32-56.98 34.59-86.33 37.35-3.73.35-7.41.53-11.02.53z" fill="#333"/></g></g></g><g><path d="m569.32 1287.6c-60.97 0-120.13-11.95-175.84-35.51-53.79-22.75-102.1-55.32-143.58-96.8s-74.04-89.78-96.8-143.58c-23.56-55.71-35.51-114.87-35.51-175.84 0-86.42 23.17-182.9 68.86-286.74 36.12-82.07 86.37-169.08 149.37-258.6 106.91-151.92 212.13-257.16 216.56-261.56 9.36-9.32 24.5-9.32 33.86 0 2.56 2.55 63.7 63.63 140.34 159.91 70.86 89.03 168.39 225.83 230.66 371.96 5.2 12.19-.48 26.29-12.67 31.49s-26.29-.48-31.49-12.67c-60.16-141.19-155.05-274.18-224.06-360.88-51.46-64.65-96.4-113.69-119.7-138.27-34.15 36.05-114.87 124.77-194.69 238.29-95.36 135.62-209.03 335.42-209.03 517.07 0 222.61 181.11 403.72 403.72 403.72 21.4 0 42.81-1.68 63.64-5 13.09-2.09 25.39 6.84 27.48 19.93 2.08 13.09-6.84 25.39-19.93 27.48-23.32 3.72-47.27 5.6-71.19 5.6z" fill="#333"/></g><g><path d="m328.46 1051.17c-7.06 0-14.06-3.1-18.8-9.06-22.86-28.73-40.67-60.74-52.93-95.15-12.69-35.62-19.13-72.99-19.13-111.08 0-90.55 32.74-197.33 97.31-317.38 6.28-11.67 20.83-16.05 32.5-9.77s16.05 20.83 9.77 32.5c-60.77 112.99-91.58 212.12-91.58 294.64 0 64.71 21.31 125.68 61.62 176.34 8.25 10.37 6.54 25.47-3.84 33.72-4.41 3.53-9.68 5.24-14.92 5.24z" fill="#333"/></g></g></g></svg>