<svg enable-background="new 0 0 128 128" viewBox="0 0 128 128" xmlns="http://www.w3.org/2000/svg"><g id="guide"/><g id="Face_Mask"/><g id="Urine_Test"/><g id="Stretcher"/><g id="Ventilator"/><g id="Microscope"/><g id="Defribillator"/><g id="Glucometer"/><g id="Blood_Pressure"/><g id="Medical_Report"/><g id="Snellen_Chart"/><g id="Xray"/><g id="Drugs"/><g id="Medicine"/><g id="Syringe"/><g id="Ambulance"/><g id="Test_Tube"/><g id="Leg_Bandage"/><g id="Scalpel"/><g id="Crutch"/><g id="mri"/><g id="lv_Bag"/><g id="Wheel_Chair"/><g id="Hand_Bandage"/><g id="Cane"/><g id="Oxygen_Tank"/><g id="Stethoscope"/><g id="Medical_Record"><g><path d="m94.11 111.66c-1.55 1.56-3.58 2.67-5.92 3.08l-13.34 2.33-2.13.37-2.71.47c-.03 0-.06.01-.09.01l-39.85 6.94c-5.99 1.04-11.69-2.97-12.73-8.96l-14.2-81.63c-.02-.09-.03-.14-.03-.14-1.04-5.98 2.97-11.68 8.96-12.72l58.12-10.11c5.99-1.05 11.68 2.96 12.73 8.95l4.03 23.17 2.73 15.69.02.15 1.36 7.81 1.21 6.94.35 2.03 4.52 25.98c.64 3.65-.6 7.19-3.03 9.64z" fill="#51528c"/><path d="m89.7 59.26-7.02 3.31-2.98 1.41-3.09 3.94c-.2.25-.49.38-.79.38-.22 0-.43-.07-.62-.21-.43-.35-.51-.97-.16-1.41l3.08-3.93 2.25-10.95 6.58-8.38 2.73 15.69z" fill="#303256"/><path d="m94.11 111.66c-1.55 1.56-3.58 2.67-5.92 3.08l-13.34 2.33c-3.65-4.34-5.85-9.96-5.85-16.07 0-13.35 10.45-24.25 23.62-24.96l4.52 25.98c.64 3.65-.6 7.19-3.03 9.64z" fill="#303256"/><path d="m89.24 105.97c-.77 1.09-1.92 1.82-3.23 2.05l-15.08 2.62-2.46.43-38.62 6.72c-.29.05-.58.07-.87.07-1.02 0-2.01-.31-2.86-.91-1.1-.77-1.82-1.92-2.05-3.23l-13.89-79.8c-.23-1.32.07-2.64.84-3.74.77-1.09 1.92-1.82 3.23-2.05l56.16-9.77c1.31-.22 2.64.07 3.73.84s1.82 1.92 2.05 3.23l4.94 28.4.32 1.82v.01l1.69 9.69 2.18 12.52.44 2.53 4.32 24.83c.23 1.32-.07 2.65-.84 3.74z" fill="#eceafd"/><g fill="#c3c0fd"><path d="m81.45 52.65-1.04-.81c-.03-.03-.04-.04-.04-.04l.76-.97z"/><path d="m83.14 62.35-.46.22-2.98 1.41-3.09 3.94c-.2.25-.49.38-.79.38-.22 0-.43-.07-.62-.21-.43-.35-.51-.97-.16-1.41l3.08-3.93 2.25-10.95s.01.01.04.04l1.04.81v.01z"/><path d="m89.24 105.97c-.77 1.09-1.92 1.82-3.23 2.05l-15.08 2.62c-1.24-2.97-1.93-6.22-1.93-9.64 0-10.92 7-20.2 16.76-23.6l4.32 24.83c.23 1.32-.07 2.65-.84 3.74z"/></g><path d="m59.78 27.32-2.88.5-31.6 5.5c-1.09.19-2.12-.54-2.31-1.63l-1.89-10.84c-.37-2.17 1.08-4.25 3.26-4.62l30.54-5.32c2.18-.38 4.25 1.08 4.63 3.26l1.88 10.83c.19 1.09-.54 2.13-1.63 2.32z" fill="#fab342"/><path d="m47.48 12.23-16.75 2.92-.26-1.48c-.52-3.01.6-5.92 2.72-7.8 1.14-1.02 2.58-1.75 4.2-2.03.49-.09.99-.13 1.47-.13 4.05 0 7.64 2.91 8.36 7.04z" fill="#fbc96e"/><path d="m56.9 27.82-31.6 5.5c-1.09.19-2.12-.54-2.31-1.63l-1.89-10.84c-.37-2.17 1.08-4.25 3.26-4.62 0 0 9.04 15.85 32.54 11.59z" fill="#ef9a1d"/><path d="m47.48 12.23-16.75 2.92-.26-1.48c-.52-3.01.6-5.92 2.72-7.8h.01s.41 8.83 14.28 6.36z" fill="#ef9a1d"/><ellipse cx="52.992" cy="16.581" fill="#fbc96e" rx="4.021" ry="2" transform="matrix(.99 -.14 .14 .99 -1.796 7.562)"/><circle cx="45.049" cy="17.701" fill="#fbc96e" r="2"/><path d="m77.99 83.83c.09.54-.28 1.06-.82 1.16l-2.76.48-41.86 7.24c-.06.01-.11.01-.17.01-.48 0-.9-.34-.98-.83-.1-.54.27-1.06.81-1.15l44.41-7.69.21-.04c.55-.09 1.06.28 1.16.82z" fill="#51528c"/><path d="m77.99 83.83c.09.54-.28 1.06-.82 1.16l-2.76.48c.68-.86 1.42-1.67 2.21-2.42l.21-.04c.55-.09 1.06.28 1.16.82z" fill="#303256"/><path d="m30.38 82.724c-.479 0-.902-.345-.985-.833-.092-.544.274-1.061.819-1.153l45.619-7.724c.541-.097 1.061.274 1.153.819.092.544-.274 1.061-.819 1.153l-45.619 7.724c-.057.009-.112.014-.168.014z" fill="#51528c"/><path d="m34.999 102.95c-.478 0-.899-.342-.984-.829-.095-.544.27-1.062.813-1.157l21.55-3.75c.551-.093 1.062.27 1.157.814s-.27 1.062-.813 1.157l-21.55 3.75c-.059.01-.116.015-.173.015z" fill="#51528c"/><path d="m65.149 51.299c.74 4.793-.597 9.432-3.357 12.985-2.57 3.341-6.362 5.718-10.849 6.411s-8.819-.429-12.277-2.839c-3.703-2.555-6.378-6.574-7.118-11.367-1.433-9.28 4.926-17.962 14.206-19.396 9.279-1.434 17.962 4.926 19.395 14.206z" fill="#95c2ac"/><circle cx="48.043" cy="51.917" fill="#33907c" r="7"/><path d="m61.792 64.283c-2.57 3.341-6.362 5.718-10.849 6.411s-8.819-.429-12.277-2.839c1.424-4.601 5.366-8.236 10.446-9.02 5.079-.785 9.933 1.491 12.68 5.448z" fill="#33907c"/><circle cx="98" cy="98" fill="#f66aa3" r="25"/><path d="m102 119c-13.807 0-25-11.193-25-25 0-5.884 2.038-11.289 5.44-15.56-5.75 4.58-9.44 11.637-9.44 19.56 0 13.807 11.193 25 25 25 7.923 0 14.98-3.69 19.56-9.44-4.271 3.402-9.676 5.44-15.56 5.44z" fill="#f04084"/><path d="m111 93h-8v-8c0-.552-.448-1-1-1h-8c-.552 0-1 .448-1 1v8h-8c-.552 0-1 .448-1 1v8c0 .552.448 1 1 1h8v8c0 .552.448 1 1 1h8c.552 0 1-.448 1-1v-8h8c.552 0 1-.448 1-1v-8c0-.552-.448-1-1-1z" fill="#eceafd"/><path d="m87.805 57.208-9.438-7.411 29.646-37.751c.682-.869 1.939-1.02 2.808-.338l6.292 4.941c.869.682 1.02 1.939.338 2.808z" fill="#5a7aed"/><path d="m95.1 47.92c13.43-18.53 9.82-31.94 9.82-31.94l9.44 7.41z" fill="#3762db"/><path d="m117.112 16.649-6.292-4.941 2.47-3.146c1.364-1.737 3.879-2.04 5.616-.675 1.737 1.364 2.04 3.879.675 5.616z" fill="#51528c"/><path d="m73.82 66.299c-.216 0-.434-.07-.616-.213-.435-.341-.511-.97-.169-1.404l3.088-3.933c.341-.434.969-.51 1.403-.169.435.341.511.97.169 1.404l-3.088 3.933c-.197.251-.49.382-.787.382z" fill="#bcddff"/><path d="m87.8 57.21-7.12 3.36-2.98 1.41-1.58-1.23 2.25-10.95s.01.01.04.04z" fill="#3762db"/><path d="m106 49.61c-.421 0-.812-.268-.95-.689-.808-2.463-.335-5.151 1.267-7.191l9.508-12.107c.66-.84.953-1.887.825-2.948-.127-1.061-.66-2.008-1.5-2.668l-10.225-8.029c-.435-.341-.511-.97-.169-1.404.341-.433.97-.51 1.403-.169l10.225 8.029c1.261.99 2.061 2.412 2.252 4.002.191 1.591-.249 3.162-1.239 4.422l-9.508 12.107c-1.187 1.512-1.538 3.505-.938 5.333.172.524-.113 1.089-.639 1.262-.104.034-.208.05-.312.05z" fill="#51528c"/><path d="m102.63 38.33-7.57 9.64-.01.01-3.54 4.51-9.44-7.41 11.12-14.16 8.15 6.4z" fill="#eceafd"/><path d="m102.63 38.33-7.57 9.64c2.75-3.79 4.79-7.36 6.28-10.65z" fill="#c3c0fd"/></g></g><g id="Oxygen_Mask"/><g id="Heart_Rate_Monitor"/><g id="Hospital"/></svg>