<svg id="Capa_1" enable-background="new 0 0 511.941 511.941" height="512" viewBox="0 0 511.941 511.941" width="512" xmlns="http://www.w3.org/2000/svg"><g><g><path d="m276.46 425.291c-22.937 0-42.967-1.473-59.855-4.414-40.65-7.079-65.761-23.386-74.637-48.467-8.138-22.997-4.147-46.936 12.201-73.185 12.27-19.701 30.272-38.715 47.682-57.102 16.745-17.685 34.059-35.972 44.339-53.055 11.899-19.772 10.145-30.734 7.288-38.075-1.444-3.708-5.837-14.994-30.585-20.634-17.017-3.878-39.498-4.255-66.819-1.121-48.952 5.614-95.456 20.678-95.921 20.83-12.327 4.026-25.59-2.7-29.619-15.026-4.031-12.326 2.686-25.584 15.011-29.62 2.054-.673 50.932-16.547 104.513-22.777 32.741-3.806 60.649-3.187 82.949 1.84 22.499 5.072 51.909 17.773 64.246 49.47 9.625 24.727 5.985 51.419-10.815 79.336-12.91 21.453-32.008 41.623-50.477 61.129-28.214 29.8-56.677 50.97-50.468 73.142 6.736 24.056 36.422 35.75 132.543 29.244 67.606-4.576 133.347-18.044 134.003-18.18 12.699-2.622 25.129 5.547 27.754 18.248 2.625 12.702-5.541 25.128-18.243 27.755-2.79.577-69.153 14.189-139.907 19.016-16.107 1.097-31.186 1.646-45.183 1.646z" fill="#efc277"/><path d="m479.795 376.873c-2.557-12.375-14.422-20.442-26.774-18.425-2.538 7.731-9.021 13.93-17.562 15.696-2.79.577-69.153 14.189-139.907 19.016-16.108 1.099-31.188 1.647-45.184 1.647-22.937 0-42.967-1.473-59.855-4.414-19.711-3.433-35.757-9.042-48.082-16.762 9.254 24.386 34.192 40.283 74.175 47.246 16.888 2.941 36.918 4.414 59.855 4.414 13.997 0 29.076-.549 45.184-1.647 70.753-4.827 137.117-18.438 139.907-19.016 12.702-2.627 20.868-15.052 18.243-27.755z" fill="#f2aa62"/><ellipse cx="414.885" cy="90.844" fill="#fbe4ba" rx="17.415" ry="17.415" transform="matrix(.982 -.187 .187 .982 -9.664 78.984)"/></g><g><circle cx="85.974" cy="234.211" r="7.5"/><circle cx="57.133" cy="393.715" r="7.5"/><circle cx="377.034" cy="234.211" r="7.5"/><path d="m414.885 115.759c13.738 0 24.915-11.177 24.915-24.915s-11.177-24.915-24.915-24.915-24.915 11.177-24.915 24.915 11.177 24.915 24.915 24.915zm0-34.83c5.467 0 9.915 4.448 9.915 9.915s-4.448 9.915-9.915 9.915-9.915-4.448-9.915-9.915 4.448-9.915 9.915-9.915z"/><path d="m132.106 332.507c-.741 3.603-1.252 7.188-1.514 10.762-.303 4.131 2.801 7.725 6.932 8.028.186.014.371.021.556.021 3.893 0 7.183-3.008 7.472-6.953.956-13.052 5.857-26.521 14.984-41.175 11.872-19.062 29.609-37.795 46.764-55.913 17.02-17.975 34.618-36.562 45.317-54.341 7.134-11.855 14.474-27.645 7.851-44.664-4.899-12.585-16.645-20.835-35.908-25.225-17.847-4.067-41.177-4.491-69.34-1.26-49.58 5.686-96.918 20.996-97.394 21.151-8.383 2.735-17.425-1.852-20.163-10.228-2.739-8.376 1.844-17.42 10.215-20.161 2.026-.663 50.235-16.314 103.046-22.455 28.678-3.333 53.528-3.202 73.86.39 4.08.719 7.97-2.002 8.69-6.081s-2.002-7.97-6.081-8.69c-1.131-.2-2.282-.384-3.438-.564-.109-2.51-1.069-17.787-.903-22.734.139-4.14-3.105-7.608-7.245-7.746-4.147-.13-7.608 3.105-7.747 7.245-.19 5.672.707 19.941.793 21.503-4.846-.375-15.941-.551-16.498-.729-1.384-1.56-5.931-17.717-6.236-18.737-1.185-3.968-5.36-6.229-9.332-5.042-3.969 1.185-6.226 5.363-5.042 9.332.215.718 2.796 10.892 4.269 14.763-8.128.361-27.337 1.954-27.337 1.954-1.29-1.691-9.165-21.959-9.374-22.523-1.443-3.883-5.76-5.859-9.643-4.417-3.882 1.443-5.86 5.76-4.418 9.643.189.509 5.392 14.857 7.868 19.695-8.394 1.271-16.561 2.725-24.333 4.261-1.73-3.165-6.226-14.263-7.921-18.08-1.681-3.786-6.114-5.491-9.898-3.811-3.786 1.681-5.492 6.113-3.811 9.898 1.594 3.589 5.41 13.003 6.44 15.195-7.519 1.683-14.475 3.382-20.666 4.98-3.204-3.937-5.826-9.913-5.53-13.083.386-4.124-2.644-7.78-6.769-8.166-4.125-.391-7.78 2.644-8.166 6.768-.55 5.874 1.761 12.797 5.18 18.627-8.54 2.434-13.78 4.136-14.428 4.348-3.695 1.21-7.005 3.059-9.857 5.376-1.749-1.071-9.426-5.503-11.349-6.723-3.498-2.221-8.131-1.184-10.352 2.312-2.22 3.497-1.184 8.132 2.312 10.351 2.19 1.39 9.143 5.411 10.348 6.129-1.953 4.636-2.791 9.755-2.299 14.932-5.721 2.71-6.211 2.849-16.545 5.755-3.987 1.122-6.311 5.263-5.189 9.251.931 3.309 3.94 5.471 7.216 5.471.672 0 1.356-.091 2.035-.282 10.353-2.912 11.84-3.331 17.517-5.986 3.55 5.341 8.633 9.373 14.44 11.671-3.048 5.708-5.69 11.484-7.711 18.882-1.092 3.996 1.262 8.12 5.258 9.212.662.181 1.327.267 1.981.267 3.297 0 6.319-2.191 7.231-5.525 2.208-8.079 5.247-13.716 9.38-21.031 1.621-.253 3.242-.633 4.85-1.159.164-.054 4.796-1.612 14.662-4.337 1.835 6.244 2.669 11.478 4.66 16.642 1.148 2.978 3.988 4.804 6.999 4.804.897 0 1.81-.162 2.697-.504 3.865-1.49 5.79-5.832 4.3-9.696-1.716-4.45-2.408-8.604-3.97-15.21 8.557-2.13 20.112-4.742 30.711-6.807.392 2.331 1.837 15.031 2.492 18.967.611 3.669 3.788 6.27 7.389 6.27.409 0 .824-.033 1.241-.103 4.086-.68 6.847-4.544 6.167-8.63-.592-3.553-2.049-16.348-2.528-19.154 6.431-1.052 22.805-3.102 24.365-3.261.092 2.785.785 14.247.785 17.538 0 4.142 3.358 7.5 7.5 7.5s7.5-3.358 7.5-7.5c0-3.745-.729-15.837-.812-18.711 7.672-.411 14.824-.473 21.447-.192-.206 2.039-.693 12.671-1.243 17.468-.472 4.115 2.482 7.833 6.597 8.305.29.033.578.049.863.049 3.76 0 7.003-2.821 7.442-6.646.609-5.309 1.101-16.143 1.278-17.822 2.869.419 5.616.913 8.208 1.504 11.901 2.712 18.086 6.639 21.409 10.032-5.747 4.038-11.965 8.77-17.182 14.181-2.875 2.981-2.789 7.729.193 10.604 1.455 1.403 3.331 2.101 5.205 2.101 1.965 0 3.928-.768 5.4-2.294 3.48-3.609 7.659-6.974 11.809-10.02-.142 5.098-1.983 12.431-8.298 22.924-3.472 5.77-7.846 11.741-12.759 17.813l-12.373-12.373c-2.929-2.929-7.678-2.929-10.606 0-2.929 2.929-2.929 7.678 0 10.607l13.228 13.228c-3.984 4.488-8.146 8.999-12.362 13.496l-13.617-13.617c-2.929-2.93-7.678-2.929-10.606 0-2.929 2.929-2.929 7.677 0 10.607l13.922 13.923c-5.143 5.434-10.315 10.922-15.372 16.476-2.328-2.377-12.481-11.758-15.61-15.018-2.869-2.988-7.616-3.085-10.604-.216s-3.085 7.616-.216 10.605c3.443 3.586 16.432 15.843 16.475 15.886-5.615 6.565-10.926 13.227-15.705 20.003-1.719-1.682-10.727-10.003-13.856-13.262-2.869-2.988-7.616-3.084-10.604-.216-2.988 2.869-3.085 7.617-.216 10.604 3.443 3.586 14.062 13.386 16.342 15.761.007.008.015.014.022.021-3.588 6.187-6.512 12.237-8.786 18.195-3.72.137-20.269-4.794-21.624-4.726-.93-.1-1.873-.03-2.78.216-4.486 1.214-6.23 5.262-5.633 8.632.519 2.934 2.988 6.012 7.227 6.207 1.768.416 14.002 3.953 18.459 4.457z"/><path d="m511.774 382.106c-.863-4.051-4.845-6.636-8.898-5.771-5.297 1.129-10.277 1.857-15.247 2.235-.107-1.068-.268-2.141-.49-3.214-1.08-5.226-3.425-9.872-6.649-13.687 1.18-1.954 8.071-13.75 10.787-17.689 2.352-3.41 1.494-8.081-1.916-10.432-3.412-2.353-8.081-1.494-10.432 1.915-3.038 4.405-9.745 15.887-10.65 17.402-5.454-2.188-11.583-2.858-17.758-1.585-.164.034-4.424.907-11.775 2.267-.075-6.075-.666-17.222-.666-18.545-.001-4.142-3.359-7.5-7.501-7.499-4.142 0-7.5 3.359-7.499 7.501 0 1.251.737 14.915.883 21.172-8.622 1.475-18.977 3.15-30.498 4.826.142-2.489.422-15.723 1.015-19.631.622-4.096-2.194-7.919-6.29-8.54-4.098-.625-7.919 2.195-8.54 6.289-.74 4.876-1.081 20.857-1.395 23.997-12.366 1.637-25.655 3.191-39.315 4.47.771-6.527 3.568-20.058 3.568-20.058.837-4.057-1.773-8.024-5.829-8.861s-8.023 1.772-8.861 5.829c0 0-3.408 16.484-4.089 24.381-3.981.789-19.185 1.838-26.915 1.599.988-3.406 5.708-18.635 6.775-22.439 1.118-3.988-1.208-8.128-5.197-9.247-3.988-1.116-8.128 1.208-9.247 5.197-1.011 3.606-6.719 22.022-8.039 26.975-8.162.147-15.579.103-22.301-.117 1.398-5.668 3.594-11.808 6.655-18.61 1.7-3.777.016-8.217-3.762-9.917-3.778-1.701-8.218-.016-9.917 3.762-3.91 8.691-6.585 16.547-8.154 23.892-11.037-.949-19.688-2.486-26.482-4.449 3.294-2.735 12.725-10.604 12.725-10.604 3.182-2.652 3.611-7.381.959-10.563s-7.382-3.612-10.563-.958c0 0-13.722 11.45-18.321 15.231-5.456-3.952-7.943-8.495-9.229-13.09-2.272-8.113 2.51-16.992 11.006-27.077 4.27 2.186 17.192 9.232 18.081 9.662 1.053.509 2.165.751 3.261.751 2.786 0 5.462-1.56 6.757-4.236 1.804-3.729.243-8.214-3.485-10.018-.986-.477-11.639-5.304-14.454-7.231 3.339-3.43 6.927-6.994 10.662-10.703 3.52-3.496 7.122-7.083 10.766-10.799 3.415 2.361 12.876 9.16 14.233 10.13 1.322.945 2.846 1.399 4.356 1.399 2.339 0 4.643-1.091 6.107-3.139 2.409-3.37 1.63-8.054-1.739-10.463-1.344-.961-9.61-6.902-12.454-8.896 6.802-7.202 13.618-14.501 20.133-21.947 5.925 3.525 12.236 6.772 20.115 7.694.296.035.59.051.881.051 3.752 0 6.993-2.811 7.44-6.628.481-4.114-2.54-7.395-6.577-8.321-4.605-1.056-7.298-2.049-12.057-4.447 4.663-5.798 9.042-11.7 13.025-17.718 2.321.497 16.99 4.821 22.381 5.123.143.008.284.012.426.012 3.95 0 7.258-3.088 7.482-7.081.231-4.136-2.982-7.237-7.069-7.907-4.004-.656-14.014-3.261-15.173-3.586 4.978-9.374 8.55-18.633 10.712-27.753 0 0 16.835-2.959 17.495-3.084 4.07-.77 6.745-4.694 5.975-8.764s-4.692-6.747-8.764-5.975c-.995.188-9.437 2.186-12.394 2.616.786-12.112-1.011-23.943-5.397-35.431 1.895-1.602 14.47-12.431 18.768-15.731 3.286-2.522 3.905-7.23 1.382-10.516-2.523-3.285-7.23-3.904-10.516-1.382-4.633 3.557-15.59 12.994-16.495 13.77-4.292-6.923-9.61-13.097-15.938-18.499 2.907-4.721 6.03-9.711 9.52-15.209 2.22-3.497 1.185-8.132-2.312-10.352-3.498-2.221-8.132-1.183-10.352 2.312-3.31 5.215-6.297 9.982-9.086 14.502-4.16-2.485-8.61-4.742-13.377-6.742-3.816-1.6-8.215.194-9.817 4.015-1.603 3.819.195 8.215 4.015 9.817 19.732 8.278 33.2 21.371 40.028 38.914 8.738 22.449 5.289 46.925-10.252 72.748-12.489 20.753-31.3 40.621-49.498 59.84-5.572 5.885-11.149 11.424-16.542 16.781-22.458 22.305-41.854 41.568-35.701 63.54 4.462 15.936 16.582 25.892 38.139 31.332 21.926 5.533 54.38 6.604 102.132 3.373 68.261-4.621 134.356-18.182 135.013-18.318 8.636-1.785 17.109 3.79 18.893 12.421 1.784 8.632-3.787 17.107-12.418 18.892-2.769.573-68.625 14.084-138.898 18.878-15.859 1.082-30.89 1.63-44.674 1.63-22.465 0-42.17-1.448-58.568-4.303-37.783-6.581-60.949-21.243-68.853-43.581-1.381-3.905-5.667-5.951-9.572-4.568-3.905 1.382-5.95 5.667-4.568 9.572.665 1.878 1.415 3.708 2.236 5.497-.15.078-10.488 5.418-14.213 5.858-4.113.487-7.054 4.215-6.567 8.329.451 3.815 3.69 6.62 7.439 6.62.294 0 .591-.017.89-.053 6.428-.76 19.832-7.685 20.292-7.92 3.391 4.325 7.381 8.298 11.967 11.917-6.039 5.375-12.391 13.114-16.525 18.905-2.407 3.371-1.625 8.055 1.746 10.462 1.321.943 2.843 1.396 4.352 1.396 2.341 0 4.691-1.061 6.11-3.143 7.048-10.337 17.391-18.902 17.542-19.027 4.827 2.582 10.088 4.901 15.785 6.951-2.995 4.869-9.405 16.603-9.405 16.603-1.986 3.635-.649 8.191 2.986 10.178 1.142.624 2.374.919 3.589.919 2.654 0 5.227-1.412 6.589-3.906 0 0 7.623-13.966 11.151-19.292 4.6 1.156 9.413 2.18 14.457 3.059 5.63.98 11.621 1.8 17.941 2.463-2.268 7.736-2.059 26.508-2.059 26.508.044 4.114 3.393 7.419 7.498 7.419h.082c4.142-.044 7.463-3.438 7.419-7.58 0 0 .064-18.467 2.456-25.086 7.817.474 16.053.738 24.677.789 0 0 2.674 21.713 2.962 26.669.24 4.135 3.024 7.641 7.163 7.823.113.005.224.007.336.007 3.99 0 7.31-3.145 7.487-7.17.253-5.75-2.777-26.452-2.777-26.452-.035-.34-.07-.673-.104-.995 8.901-.185 17.62-.533 27.249-1.118 1.217 5.755 4.324 22.956 4.743 26.084.504 3.768 3.725 6.505 7.424 6.505.332 0 .667-.022 1.005-.067 4.105-.55 6.988-4.324 6.438-8.429-.48-3.586-3.491-20.416-4.067-25.175 9.395-.74 18.666-1.618 27.676-2.585.522 2.816 2.478 21.29 4.938 27.754 1.139 2.993 3.988 4.834 7.011 4.834.887 0 1.789-.158 2.667-.493 3.872-1.474 5.815-5.806 4.341-9.677-1.766-4.64-3.509-21.082-4.027-24.124 8.163-.988 16.024-2.029 23.468-3.08.296 1.537 3.536 19.482 6.479 26.485 1.206 2.87 3.988 4.597 6.918 4.597.968 0 1.953-.189 2.902-.587 3.819-1.605 5.614-6.001 4.009-9.82-2.303-5.481-5.183-21.433-5.454-22.861 14.257-2.185 26.327-4.279 35.145-5.893 1.352 2.751 8.167 21.186 12.506 26.806 1.478 1.914 3.698 2.917 5.942 2.917 1.601 0 3.213-.51 4.578-1.564 3.279-2.532 3.884-7.242 1.353-10.52-2.933-3.799-8.685-20.654-8.573-20.677 10.319-2.134 18.375-9.204 22.227-18.234 6.808-.317 13.51-1.2 20.706-2.734 4.048-.861 6.632-4.845 5.768-8.896z"/></g></g></svg>