<svg id="&#x421;&#x43B;&#x43E;&#x439;_1" viewBox="0 0 3500 3500" xmlns="http://www.w3.org/2000/svg"><g stroke-linecap="round" stroke-linejoin="round" stroke-width="89.83"><g stroke="#511e18"><path d="m2249.44 409.66c223.62 1.28 403.85 183.6 402.57 407.22s-183.6 403.85-407.22 402.57-403.85-183.6-402.57-407.22 183.6-403.85 407.22-402.57z" fill="#ffc483" fill-rule="evenodd"/><path d="m2703 1296.56 501.73 505.86c60.86 61.36 60.29 161.2-1.27 221.86-61.56 60.66-161.73 60.08-222.59-1.28l-279.59-281.9-2.59 451c134.62 131.68 530.7 479.56 335.1 672.29l-335.49 330.57c-71.4 70.35-187.56 69.68-258.14-1.48-70.58-71.16-69.92-186.95 1.48-257.3l205.68-202.66q-90.33-64.45-158-121.86l-505-2.9q-68.23 56.6-159.4 120l203.34 205c70.58 71.16 69.92 186.95-1.48 257.3-71.4 70.35-187.56 69.68-258.14-1.48l-331.67-334.4c-193.37-195 206.68-538.28 342.8-668.4l2.59-451-282.83 278.72c-61.56 60.66-161.73 60.08-222.59-1.28-60.86-61.36-60.29-161.2 1.27-221.86l507.51-500.07c90-88.71 828.27-84.47 917.27 5.27z" fill="#ffc483" fill-rule="evenodd"/><path d="m2133.77 1996.71 566.23 3.29c55.84 101.26 94.16 180.42 108.19 298.33-160.52 73-272.13 174.69-319.07 314.39q-252.63 53.62-504.62-2.9c-45.33-140.24-155.76-243.23-315.44-318 6.85-52.44 18.51-97.14 34.37-139.48 19.75-52.72 46-101.79 77.62-157.59l408.54 2.35" fill="#fff" fill-rule="evenodd"/><path d="m1703.42 2152.31 227.57 1.3" fill="none"/><path d="m2514.89 2156.97 227.58 1.3" fill="none"/><path d="m1049.62 603.82 214.06-244.67q-26.51-17.23-55.12-32.19c-321.18-167.22-717.11-42.41-884.33 278.77s-42.41 717.11 278.77 884.33 717.11 42.41 884.33-278.77c120.36-231.18 89.42-501.07-57.14-696.54l-209.19 239.05z" fill="none"/><path d="m1027 592.68 194 161.12 209.15-239.05c-45-60-123.8-127.21-189.5-169.9z" fill="#b56d16"/><path d="m476.24 1219.6s218.63 134.36 344.37-9.48l206.67-236.22-76.28-66.72 192.5-220-117.45-94.63z" fill="none"/></g><path d="m2582.66 1450.2c11.7-10.94 10-8.16 21-22.46" fill="none" stroke="#fff"/><path d="m2316.15 1529.55s75.45 22.5 160.35-7.3" fill="none" stroke="#fff"/></g></svg>