<svg id="Capa_1" enable-background="new 0 0 512 512" height="512" viewBox="0 0 512 512" width="512" xmlns="http://www.w3.org/2000/svg"><g><g><path clip-rule="evenodd" d="m80.562 255.573c-12.756 0-23.102 10.323-23.102 23.051 0 12.727 10.346 23.051 23.102 23.051s23.102-10.323 23.102-23.051c.001-12.727-10.346-23.051-23.102-23.051z" fill="#f47c7c" fill-rule="evenodd"/></g><g><path clip-rule="evenodd" d="m285.986 41.98c-12.756 0-23.102 10.323-23.102 23.051s10.346 23.051 23.102 23.051 23.102-10.323 23.102-23.051-10.346-23.051-23.102-23.051z" fill="#f47c7c" fill-rule="evenodd"/></g><g><path clip-rule="evenodd" d="m459.748 220.587c-12.756 0-23.102 10.323-23.102 23.051 0 12.727 10.346 23.051 23.102 23.051s23.102-10.323 23.102-23.051c0-12.727-10.347-23.051-23.102-23.051z" fill="#f47c7c" fill-rule="evenodd"/></g><g><path clip-rule="evenodd" d="m145.617 145.863c-25.511 3.111-51.278-.028-71.971-14.198-6.831-4.667-13.096-10.55-18.623-17.79-8.816-11.596-25.483-13.859-37.077-5.063-11.622 8.824-13.89 25.455-5.046 37.023 31.124 40.841 77.271 56.029 124.978 53.653 8.022-16.97 23.442-35.297 7.739-53.625z" fill="#75cef8" fill-rule="evenodd"/></g><g><path clip-rule="evenodd" d="m323.913 188.231c-33.618-33.544-78.405-51.079-124.553-50.089-14.145 15.612-22.025 30.744-7.994 53.37 24.888-2.461 49.492 2.913 70.808 15.329 8.731 5.091 16.894 11.342 24.321 18.752 7.398 7.382 13.691 15.527 18.765 24.239 12.444 21.269 17.83 45.819 15.392 70.679-19.984 18.327-14.655 34.109-7.994 53.342-2.381 47.6 12.812 93.673 53.744 124.728 11.622 8.796 28.289 6.533 37.105-5.034 8.816-11.596 6.548-28.226-5.046-37.022-7.257-5.515-13.153-11.766-17.858-18.582-14.173-20.618-17.348-46.356-14.201-71.782 14.768-17.309 14.513-33.035 7.71-53.625 1.023-46.045-16.58-90.761-50.199-124.305z" fill="#75cef8" fill-rule="evenodd"/></g><g><path clip-rule="evenodd" d="m323.913 188.231c-33.618-33.544-78.405-51.079-124.553-50.089-7.738 6.024-10.686 13.01-2.353 22.117 42.831 1.386 83.933 18.752 115.283 50.033 33.618 33.544 38.466 65.56 37.474 111.605-.425 19.798-5.442 34.93-7.738 53.596-3.118 25.455 12.756 63.891 26.957 84.51 4.677 6.816 10.573 13.067 17.83 18.582 6.775 5.147 10.375 12.925 10.431 20.845 2.353-1.556 4.479-3.535 6.264-5.883 8.816-11.596 6.548-28.226-5.046-37.022-7.257-5.515-13.153-11.766-17.858-18.582-14.173-20.618-17.348-46.356-14.201-71.782 9.524-7.382 17.376-38.239 7.71-53.625 1.022-46.045-16.581-90.761-50.2-124.305z" fill="#60b7ff" fill-rule="evenodd"/></g><g><path clip-rule="evenodd" d="m73.646 131.665c-6.831-4.667-13.096-10.55-18.623-17.79-8.816-11.596-25.483-13.859-37.077-5.063-8.759 6.646-12.217 17.762-9.581 27.774 1.332-1.923 2.948-3.705 4.819-5.261 11.197-9.305 27.949-7.778 37.275 3.394 5.839 6.986 12.387 12.586 19.389 16.942 21.288 13.236 47.196 15.245 72.538 11.002 3.458.17 12.075-6.477 3.231-16.8-25.512 3.112-51.278-.028-71.971-14.198z" fill="#60b7ff" fill-rule="evenodd"/></g><g><path clip-rule="evenodd" d="m131.387 74.053c14.201 20.647 17.348 46.356 14.23 71.811-.737 5.996-1.842 12.02-3.231 17.931-2.75 11.879-4.252 23.814-4.507 35.693-.992 46.045 16.582 90.732 50.201 124.276s78.434 51.107 124.581 50.089c.624-12.501 2.466-25.144 5.386-37.616 1.219-5.232 2.069-10.493 2.608-15.725-24.916 2.432-49.521-2.941-70.837-15.358-8.731-5.063-16.894-11.342-24.293-18.723-7.427-7.41-13.691-15.556-18.793-24.267-12.444-21.269-17.83-45.819-15.364-70.651.51-5.261 1.389-10.521 2.608-15.754 2.891-12.473 4.734-25.087 5.386-37.616 2.381-47.6-12.841-93.645-53.772-124.7-11.594-8.824-28.261-6.562-37.105 5.034-8.816 11.568-6.548 28.198 5.074 36.994 7.255 5.515 13.151 11.766 17.828 18.582z" fill="#f47c7c" fill-rule="evenodd"/></g><g><path clip-rule="evenodd" d="m170.051 186.563c-1.219 5.232-2.098 10.493-2.608 15.725-2.438 24.861 2.92 49.41 15.364 70.679 5.102 8.711 11.395 16.857 18.793 24.239 7.398 7.41 15.59 13.661 24.321 18.752 21.288 12.416 65.309 31.818 90.197 29.386.567-3.026 1.219-6.081 1.928-9.107 1.219-5.232 2.069-10.493 2.608-15.725-24.916 2.432-49.521-2.941-70.837-15.358-8.731-5.063-16.894-11.342-24.293-18.723-7.427-7.41-13.691-15.556-18.793-24.267-12.444-21.269-17.83-45.819-15.364-70.651.51-5.261 1.389-10.521 2.608-15.754 1.191-5.148 2.211-10.323 3.033-15.499 1.191-7.382 1.984-14.764 2.353-22.117 2.381-47.6-12.841-93.645-53.772-124.7-11.594-8.824-28.261-6.562-37.105 5.034-.113.141-.227.311-.368.481 4.79.453 9.496 2.178 13.549 5.261 40.96 31.055 56.154 77.128 53.772 124.728-.624 12.5-2.466 25.115-5.386 37.616z" fill="#ee6161" fill-rule="evenodd"/></g><g><path clip-rule="evenodd" d="m499.12 366.16c-31.124-40.841-77.3-56-125.006-53.625-.255 11.851-1.729 23.814-4.507 35.665-1.389 5.939-2.466 11.935-3.203 17.96 25.483-3.139 51.278.028 71.942 14.17 6.831 4.695 13.096 10.578 18.623 17.818 8.816 11.568 25.483 13.83 37.105 5.034 6.746-5.119 10.318-12.869 10.431-20.76v-.622c-.084-5.486-1.841-10.973-5.385-15.64z" fill="#f47c7c" fill-rule="evenodd"/></g><g><path clip-rule="evenodd" d="m499.12 366.16c-31.124-40.841-77.3-56-125.006-53.625-.142 7.438-.794 14.905-1.928 22.344 2.069-.028 4.139-.028 6.208 0h.198c43.199.679 84.159 16.546 112.591 53.851 2.891 3.79 4.592 8.089 5.159 12.501 5.272-5.034 8.079-11.851 8.164-18.808v-.622c-.085-5.487-1.842-10.974-5.386-15.641z" fill="#ee6161" fill-rule="evenodd"/></g><g><g><path d="m285.987 95.581c16.874 0 30.602-13.705 30.602-30.551 0-16.845-13.728-30.55-30.602-30.55s-30.602 13.705-30.602 30.55c0 16.846 13.727 30.551 30.602 30.551zm0-46.101c8.603 0 15.602 6.976 15.602 15.55 0 8.575-6.999 15.551-15.602 15.551s-15.602-6.976-15.602-15.551c0-8.574 6.999-15.55 15.602-15.55z"/><path d="m429.146 243.638c0 16.846 13.728 30.551 30.602 30.551s30.602-13.705 30.602-30.551-13.728-30.551-30.602-30.551-30.602 13.705-30.602 30.551zm46.204 0c0 8.575-6.999 15.551-15.602 15.551s-15.602-6.976-15.602-15.551 6.999-15.551 15.602-15.551c8.602 0 15.602 6.976 15.602 15.551z"/><path d="m111.165 278.624c0-16.845-13.728-30.55-30.602-30.55s-30.602 13.705-30.602 30.55c0 16.846 13.728 30.551 30.602 30.551s30.602-13.705 30.602-30.551zm-46.204 0c0-8.574 6.999-15.55 15.602-15.55s15.602 6.976 15.602 15.55c0 8.575-6.999 15.551-15.602 15.551s-15.602-6.976-15.602-15.551z"/><path d="m217.791 413.977c-24.702-16.54-50.559-9.891-66.275-2.734-3.803-16.826-14.157-41.386-42.349-50.967-3.922-1.329-8.181.767-9.514 4.689s.766 8.182 4.688 9.515c4.033 1.371 7.596 3.15 10.745 5.23l-22.115 44.539c-3.571-1.242-7.153-2.996-10.694-5.373-3.438-2.311-8.098-1.392-10.407 2.046-2.309 3.439-1.392 8.099 2.047 10.407 11.384 7.643 23.007 10.352 33.774 10.352 12.602 0 24.025-3.714 32.498-7.579 3.827 16.816 14.2 41.365 42.329 50.935.801.272 1.615.401 2.416.401 3.123 0 6.038-1.966 7.1-5.086 1.334-3.922-.764-8.183-4.685-9.517-4.027-1.37-7.586-3.149-10.732-5.231l22.12-44.526c3.577 1.238 7.165 2.989 10.711 5.363 3.441 2.303 8.1 1.382 10.405-2.06 2.302-3.441 1.38-8.1-2.062-10.404zm-80.075 4.662c-7.603 4.001-17.95 7.962-29.228 8.085l17.973-36.196c6.734 9.03 9.841 19.648 11.255 28.111zm16.263 8.062c7.607-3.995 17.954-7.951 29.229-8.082l-17.962 36.156c-6.721-9.018-9.839-19.62-11.267-28.074z"/><path d="m370.333 146.483c.12.005.239.008.357.008 3.98 0 7.298-3.131 7.486-7.148.199-4.239.932-8.137 2.062-11.73l49.013 8.807c-.201 3.766-.883 7.68-2.185 11.731-1.269 3.943.901 8.167 4.845 9.435.763.246 1.536.362 2.297.362 3.17 0 6.116-2.026 7.138-5.207 9.093-28.282-4.477-51.226-15.739-64.314 15.13-8.331 35.875-25.087 37.266-54.749.193-4.138-3.003-7.649-7.141-7.844-4.168-.182-7.649 3.004-7.844 7.141-.199 4.251-.933 8.158-2.065 11.758l-49.032-8.812c.2-3.765.879-7.68 2.178-11.733 1.265-3.944-.908-8.167-4.853-9.432-3.939-1.259-8.167.908-9.431 4.854-9.074 28.31 4.502 51.228 15.769 64.296-15.127 8.352-35.876 25.127-37.265 54.733-.19 4.138 3.006 7.65 7.144 7.844zm28.392-94.975 39.829 7.158c-6.823 8.943-16.174 14.868-23.917 18.574-5.961-6.165-12.652-14.97-15.912-25.732zm12.706 43.578c5.956 6.175 12.64 14.988 15.895 25.747l-39.809-7.153c6.821-8.938 16.17-14.874 23.914-18.594z"/><path d="m505.085 361.614c-15.701-20.604-35.704-35.889-59.454-45.432-19.424-7.804-40.92-11.611-63.993-11.364-.843-39.293-14.662-77.27-40.217-108.469-2.625-3.205-7.351-3.675-10.554-1.05-3.205 2.624-3.675 7.35-1.05 10.554 32.294 39.428 44.134 90.691 32.486 140.642-8.875 37.996-4.666 70.759 11.726 95.047 6.662 10.085 15.992 17.991 19.9 20.958 4.01 3.042 6.595 7.482 7.278 12.499.685 5.021-.619 9.996-3.665 14.002-6.326 8.304-18.266 9.918-26.606 3.605-44.111-33.468-60.727-89.841-45.588-154.665 9.975-42.755-2.569-86.739-33.555-117.657-24.533-24.477-57.537-37.597-91.739-36.797.356-2.01.756-4.019 1.224-6.025 2.526-10.835 4.221-21.459 5.12-31.821 36.37.756 71.597 13.668 99.875 36.749 1.393 1.137 3.07 1.689 4.737 1.689 2.176 0 4.333-.941 5.815-2.758 2.619-3.209 2.141-7.934-1.068-10.553-30.766-25.11-69.065-39.21-108.627-40.119.586-50.963-19.137-94.467-57.001-123.174-14.894-11.339-36.253-8.442-47.612 6.456-5.481 7.191-7.823 16.103-6.594 25.092 1.23 8.996 5.885 16.962 13.099 22.421 4.833 3.668 8.941 7.676 12.431 11.924l-48.495 48.388c-4.258-3.486-8.282-7.588-11.965-12.42-11.324-14.896-32.668-17.809-47.583-6.497-7.229 5.489-11.881 13.474-13.098 22.483-1.214 8.985 1.14 17.888 6.623 25.06 15.704 20.607 35.701 35.896 59.437 45.445 18.842 7.58 39.623 11.404 61.908 11.403.688 0 1.384-.019 2.075-.026.851 39.291 14.68 77.258 40.245 108.446 2.626 3.202 7.352 3.672 10.555 1.045 3.203-2.626 3.671-7.352 1.045-10.555-24.888-30.36-37.622-67.748-36.843-106.155.014-.222.016-.446.011-.672.274-11.237 1.695-22.557 4.319-33.812 8.9-38.104 4.65-70.94-11.842-95.244-1.167-1.983-10.593-15.38-19.763-20.767-4.02-3.042-6.611-7.481-7.297-12.498-.685-5.011.616-9.972 3.661-13.967 6.347-8.325 18.278-9.947 26.61-3.606 44.106 33.44 60.732 89.803 45.614 154.635-9.978 42.77 2.566 86.764 33.555 117.686 23.816 23.762 55.647 36.836 88.835 36.836.964 0 1.93-.013 2.897-.035-.355 1.998-.752 3.995-1.217 5.989-2.53 10.836-4.228 21.46-5.13 31.824-36.338-.753-71.603-13.655-99.896-36.723-3.21-2.618-7.935-2.138-10.552 1.073-2.617 3.21-2.137 7.935 1.074 10.552 30.78 25.095 69.086 39.176 108.639 40.086-.598 50.961 19.122 94.478 57.002 123.218 6.134 4.643 13.354 6.886 20.518 6.886 10.263 0 20.412-4.605 27.084-13.361 5.476-7.203 7.816-16.122 6.591-25.113-1.226-8.993-5.869-16.957-13.073-22.422-4.838-3.672-8.952-7.685-12.445-11.938l48.469-48.362c4.265 3.491 8.294 7.6 11.983 12.443 6.668 8.75 16.812 13.355 27.075 13.354 7.165 0 14.391-2.245 20.528-6.891 7.205-5.466 11.849-13.43 13.074-22.423 1.227-8.989-1.114-17.908-6.596-25.119zm-486.226-220.333c-3.05-3.991-4.358-8.945-3.682-13.951.68-5.028 3.273-9.483 7.302-12.542 8.328-6.317 20.249-4.691 26.579 3.635 19.685 25.822 49.86 38.077 87.664 35.777-.511 2.802-1.069 5.446-1.641 7.892-2.337 10.022-3.8 20.091-4.424 30.12-34.48.443-79.612-8.697-111.798-50.931zm119.863-2.259c-16.369 1.318-35.669-.043-52.932-8.878l44.059-43.962c8.766 17.102 10.19 36.291 8.873 52.84zm59.689 59.516c17.828-.737 35.333 2.84 51.202 10.244l-40.946 40.855c-7.433-15.868-10.977-33.341-10.256-51.099zm17.86 64.702 46.981-46.877c6.397 4.17 12.418 9.023 17.946 14.539 5.522 5.51 10.367 11.498 14.529 17.847l-46.991 46.887c-6.387-4.165-12.398-9.01-17.915-14.515-5.531-5.52-10.383-11.519-14.55-17.881zm46.104 39.978 40.962-40.87c7.445 15.879 10.995 33.364 10.271 51.133-17.847.73-35.363-2.855-51.233-10.263zm119.781 122.582c-8.764-17.09-10.196-36.259-8.886-52.795 16.365-1.318 35.66.034 52.918 8.86zm114.663-41.091c-.684 5.018-3.269 9.457-7.272 12.493-8.347 6.318-20.284 4.705-26.612-3.598-19.676-25.835-49.853-38.093-87.671-35.78.512-2.813 1.073-5.466 1.646-7.921 2.335-10.013 3.797-20.074 4.423-30.095 34.499-.464 79.654 8.689 111.815 50.891 3.052 4.014 4.356 8.988 3.671 14.01z"/></g></g></g></svg>