<svg id="Capa_1" enable-background="new 0 0 512 512" height="512" viewBox="0 0 512 512" width="512" xmlns="http://www.w3.org/2000/svg"><g><g><circle cx="256" cy="256" fill="#fdb4ba" r="256"/></g><g><path d="m404.262 47.279c29.771 41.835 47.279 93.004 47.279 148.262 0 141.385-114.615 256-256 256-55.258 0-106.427-17.508-148.262-47.279 46.402 65.206 122.594 107.738 208.721 107.738 141.385 0 256-114.615 256-256 0-86.127-42.532-162.319-107.738-208.721z" fill="#fe99a0"/></g><path d="m256 31.219c-70.856 0-134.042 32.795-175.242 84.022l-3.125 14.954-8.71 1.168c-23.812 35.672-37.704 78.53-37.704 124.637 0 124.143 100.638 224.781 224.781 224.781s224.781-100.638 224.781-224.781-100.638-224.781-224.781-224.781z" fill="#fe646f"/><g><path d="m443.637 132.216c5.154 20.254 7.904 41.468 7.904 63.326 0 141.385-114.615 256-256 256-21.858 0-43.072-2.75-63.326-7.904 35.501 23.467 78.043 37.142 123.785 37.142 124.143 0 224.78-100.638 224.78-224.78 0-45.742-13.675-88.283-37.143-123.784z" fill="#fd4755"/></g><path d="m252.384 341.872c-19.658-10.08-32.869-31.521-46.856-54.221-16.521-26.812-33.604-54.538-63.371-65.991-24.114-9.278-39.68-38.469-48.49-61.323-7.334-19.026-11.319-36.969-12.908-45.095-4.175 5.191-8.127 10.568-11.835 16.123 7.388 30.225 26.646 88.443 67.847 104.295 25.04 9.635 40.072 34.032 55.987 59.861 14.452 23.455 29.396 47.708 52.783 59.7 1.095.562 2.264.828 3.416.828 2.724 0 5.352-1.489 6.68-4.08 1.888-3.687.433-8.207-3.253-10.097z" fill="#ffd3d6"/><g><circle cx="188.868" cy="132.632" fill="#fd4755" r="7.5"/></g><g><circle cx="83.055" cy="256" fill="#fd4755" r="7.5"/></g><g><circle cx="116.237" cy="335.398" fill="#fd4755" r="7.5"/></g><g><path d="m239.505 290.881 7.303 3.75c5.608 2.879 8.096 9.489 5.924 15.407-8.733 23.797-5.057 48.097-28.432 48.11-14.526-2.268-27.875-8.084-39.139-16.531-7.641-5.73-18.039-6.097-26.082-.948-12.005 7.685-14.185 24.365-4.52 34.842 43.222 46.851 115.131 66.838 187.846 32.076 23.006-10.998 51.026-39.007 62.029-62.012 34.722-72.598 14.863-144.377-31.811-187.629-6.156-25.281-29.248-43.93-56.585-43.22-28.864.75-52.814 23.528-55.021 52.318-.526 6.862.208 13.474 1.942 19.668-2.965 16.032-3.864 35.022 5.248 44.604 8.977 9.439 29.791 8.395 47.339-.638.264 12.943-3.891 33.016-29.205 44.057-.017.007-.033.014-.05.022-3.059 1.337-6.548 1.271-9.51-.27l-22.704-11.808c-7.445-3.872-16.617-1.28-20.934 5.915-4.721 7.871-1.803 18.095 6.362 22.287z" fill="#fed2a4"/></g><g><path d="m372.623 157.946c-4.924-20.218-20.684-36.183-40.779-41.408.074.286.158.569.228.857 46.675 43.252 66.533 115.031 31.811 187.629-11.003 23.004-39.022 51.013-62.029 62.012-55.7 26.628-110.927 21.13-153.15-3.959.598 4.467 2.521 8.819 5.855 12.433 43.222 46.851 115.131 66.838 187.846 32.076 23.007-10.998 51.026-39.007 62.029-62.012 34.722-72.596 14.864-144.376-31.811-187.628z" fill="#ffbd86"/></g><g><circle cx="300.081" cy="170.32" fill="#f6a96c" r="7.5"/></g></g></svg>