<svg width="512" height="512" version="1.1" xmlns="http://www.w3.org/2000/svg" desc="Created with imagetracer.js version 1.2.6" ><path fill="rgb(0,0,0)" stroke="rgb(0,0,0)" stroke-width="1" opacity="0.792156862745098" d="M 269.5 19 L 283 30.5 L 281.5 31 L 269.5 20 L 260 30.5 L 271 42.5 L 270 42.5 L 259 29.5 L 269.5 19 Z " /><path fill="rgb(0,0,0)" stroke="rgb(0,0,0)" stroke-width="1" opacity="0.792156862745098" d="M 337.5 19 L 349 29.5 L 337.5 43 L 337 41.5 L 348 29.5 L 337.5 20 L 325.5 31 L 325.5 30 L 337.5 19 Z " /><path fill="rgb(0,0,0)" stroke="rgb(0,0,0)" stroke-width="1" opacity="0.792156862745098" d="M 461.5 24 L 466 24.5 L 461.5 25 L 461.5 24 Z " /><path fill="rgb(0,0,0)" stroke="rgb(0,0,0)" stroke-width="1" opacity="0.792156862745098" d="M 470.5 24 L 474 24.5 L 470.5 25 L 470.5 24 Z " /><path fill="rgb(0,0,0)" stroke="rgb(0,0,0)" stroke-width="1" opacity="0.792156862745098" d="M 285.5 28 L 287 28.5 L 284.5 30 L 285.5 28 Z " /><path fill="rgb(0,0,0)" stroke="rgb(0,0,0)" stroke-width="1" opacity="0.792156862745098" d="M 321.5 28 L 324 29.5 L 322.5 29 L 321.5 28 Z " /><path fill="rgb(0,0,0)" stroke="rgb(0,0,0)" stroke-width="1" opacity="0.792156862745098" d="M 448.5 29 L 447.5 31 L 448.5 29 Z " /><path fill="rgb(0,0,0)" stroke="rgb(0,0,0)" stroke-width="1" opacity="0.792156862745098" d="M 488.5 30 L 490.5 33 L 488.5 30 Z " /><path fill="rgb(0,0,0)" stroke="rgb(0,0,0)" stroke-width="1" opacity="0.792156862745098" d="M 444.5 32 L 366 111.5 L 373 120.5 L 319.5 173 L 319.5 172 L 372 120.5 L 365 111.5 L 444.5 32 Z " /><path fill="rgb(0,0,0)" stroke="rgb(0,0,0)" stroke-width="1" opacity="0.792156862745098" d="M 495.5 37 L 497.5 40 L 495.5 37 Z " /><path fill="rgb(0,0,0)" stroke="rgb(0,0,0)" stroke-width="1" opacity="0.792156862745098" d="M 269.5 44 L 269 45.5 L 268.5 47 L 268 45.5 L 269.5 44 Z " /><path fill="rgb(0,0,0)" stroke="rgb(0,0,0)" stroke-width="1" opacity="0.792156862745098" d="M 338.5 44 L 340 46.5 L 339 46.5 L 338.5 44 Z " /><path fill="rgb(0,0,0)" stroke="rgb(0,0,0)" stroke-width="1" opacity="0.792156862745098" d="M 503.5 54 L 504 57.5 L 503 57.5 L 503.5 54 Z " /><path fill="rgb(0,0,0)" stroke="rgb(0,0,0)" stroke-width="1" opacity="0.792156862745098" d="M 503.5 62 L 504 66.5 L 503 66.5 L 503.5 62 Z " /><path fill="rgb(0,0,0)" stroke="rgb(0,0,0)" stroke-width="1" opacity="0.792156862745098" d="M 27.5 72 L 30 72.5 L 27.5 73 L 27.5 72 Z " /><path fill="rgb(0,0,0)" stroke="rgb(0,0,0)" stroke-width="1" opacity="0.792156862745098" d="M 34.5 72 L 37 72.5 L 34.5 73 L 34.5 72 Z " /><path fill="rgb(0,0,0)" stroke="rgb(0,0,0)" stroke-width="1" opacity="0.792156862745098" d="M 19.5 75 L 18.5 77 L 19.5 75 Z " /><path fill="rgb(0,0,0)" stroke="rgb(0,0,0)" stroke-width="1" opacity="0.792156862745098" d="M 44.5 75 L 45.5 77 L 44.5 75 Z " /><path fill="rgb(0,0,0)" stroke="rgb(0,0,0)" stroke-width="1" opacity="0.792156862745098" d="M 498.5 79 L 497.5 81 L 498.5 79 Z " /><path fill="rgb(0,0,0)" stroke="rgb(0,0,0)" stroke-width="1" opacity="0.792156862745098" d="M 268.5 81 L 270 83.5 L 268 82.5 L 268.5 81 Z " /><path fill="rgb(0,0,0)" stroke="rgb(0,0,0)" stroke-width="1" opacity="0.792156862745098" d="M 339.5 81 L 340 82.5 L 338 83.5 L 339.5 81 Z " /><path fill="rgb(0,0,0)" stroke="rgb(0,0,0)" stroke-width="1" opacity="0.792156862745098" d="M 12.5 82 L 11.5 84 L 12.5 82 Z " /><path fill="rgb(0,0,0)" stroke="rgb(0,0,0)" stroke-width="1" opacity="0.792156862745098" d="M 51.5 82 L 52.5 84 L 51.5 82 Z " /><path fill="rgb(0,0,0)" stroke="rgb(0,0,0)" stroke-width="1" opacity="0.792156862745098" d="M 495.5 83 L 416.5 163 L 407.5 156 L 376 187.5 L 376.5 189 Q 374.3 189.8 375 187.5 L 408.5 155 L 416.5 162 L 495.5 83 Z " /><path fill="rgb(0,0,0)" stroke="rgb(0,0,0)" stroke-width="1" opacity="0.792156862745098" d="M 270.5 85 L 271 86.5 L 260 98.5 L 270.5 108 L 282.5 97 L 282.5 98 L 269.5 109 L 259 97.5 L 270.5 85 Z " /><path fill="rgb(0,0,0)" stroke="rgb(0,0,0)" stroke-width="1" opacity="0.792156862745098" d="M 337.5 85 L 349 98.5 L 337.5 109 L 325 97.5 L 326.5 97 L 338.5 108 L 348 97.5 L 337 86.5 L 337.5 85 Z " /><path fill="rgb(0,0,0)" stroke="rgb(0,0,0)" stroke-width="1" opacity="0.792156862745098" d="M 8.5 91 L 9 93.5 L 8 93.5 L 8.5 91 Z " /><path fill="rgb(0,0,0)" stroke="rgb(0,0,0)" stroke-width="1" opacity="0.792156862745098" d="M 55.5 91 L 56 93.5 L 55 93.5 L 55.5 91 Z " /><path fill="rgb(0,0,0)" stroke="rgb(0,0,0)" stroke-width="1" opacity="0.792156862745098" d="M 8.5 98 L 9 100.5 L 8 100.5 L 8.5 98 Z " /><path fill="rgb(0,0,0)" stroke="rgb(0,0,0)" stroke-width="1" opacity="0.792156862745098" d="M 55.5 98 L 56 100.5 L 55 100.5 L 55.5 98 Z " /><path fill="rgb(0,0,0)" stroke="rgb(0,0,0)" stroke-width="1" opacity="0.792156862745098" d="M 284.5 98 L 287 99.5 L 285.5 100 L 284.5 98 Z " /><path fill="rgb(0,0,0)" stroke="rgb(0,0,0)" stroke-width="1" opacity="0.792156862745098" d="M 323.5 98 L 322.5 100 L 321 99.5 L 323.5 98 Z " /><path fill="rgb(0,0,0)" stroke="rgb(0,0,0)" stroke-width="1" opacity="0.792156862745098" d="M 11.5 108 L 12.5 110 L 11.5 108 Z " /><path fill="rgb(0,0,0)" stroke="rgb(0,0,0)" stroke-width="1" opacity="0.792156862745098" d="M 52.5 108 L 51.5 110 L 52.5 108 Z " /><path fill="rgb(0,0,0)" stroke="rgb(0,0,0)" stroke-width="1" opacity="0.792156862745098" d="M 18.5 115 L 19.5 117 L 18.5 115 Z " /><path fill="rgb(0,0,0)" stroke="rgb(0,0,0)" stroke-width="1" opacity="0.792156862745098" d="M 45.5 115 L 44.5 117 L 45.5 115 Z " /><path fill="rgb(0,0,0)" stroke="rgb(0,0,0)" stroke-width="1" opacity="0.792156862745098" d="M 27.5 119 L 30 119.5 L 27.5 120 L 27.5 119 Z " /><path fill="rgb(0,0,0)" stroke="rgb(0,0,0)" stroke-width="1" opacity="0.792156862745098" d="M 34.5 119 L 37 119.5 L 34.5 120 L 34.5 119 Z " /><path fill="rgb(0,0,0)" stroke="rgb(0,0,0)" stroke-width="1" opacity="0.792156862745098" d="M 162.5 120 L 172 120.5 L 162.5 121 L 162.5 120 Z " /><path fill="rgb(0,0,0)" stroke="rgb(0,0,0)" stroke-width="1" opacity="0.792156862745098" d="M 180.5 120 L 190 120.5 L 180.5 121 L 180.5 120 Z " /><path fill="rgb(0,0,0)" stroke="rgb(0,0,0)" stroke-width="1" opacity="0.792156862745098" d="M 153.5 121 L 157 121.5 L 153.5 122 L 153.5 121 Z " /><path fill="rgb(0,0,0)" stroke="rgb(0,0,0)" stroke-width="1" opacity="0.792156862745098" d="M 195.5 121 L 199 121.5 L 195.5 122 L 195.5 121 Z " /><path fill="rgb(0,0,0)" stroke="rgb(0,0,0)" stroke-width="1" opacity="0.792156862745098" d="M 147.5 122 L 150 122.5 L 147.5 123 L 147.5 122 Z " /><path fill="rgb(0,0,0)" stroke="rgb(0,0,0)" stroke-width="1" opacity="0.792156862745098" d="M 203.5 122 L 206 122.5 L 203.5 123 L 203.5 122 Z " /><path fill="rgb(0,0,0)" stroke="rgb(0,0,0)" stroke-width="1" opacity="0.792156862745098" d="M 141.5 123 L 144 123.5 L 141.5 124 L 141.5 123 Z " /><path fill="rgb(0,0,0)" stroke="rgb(0,0,0)" stroke-width="1" opacity="0.792156862745098" d="M 208.5 123 L 211 123.5 L 208.5 124 L 208.5 123 Z " /><path fill="rgb(0,0,0)" stroke="rgb(0,0,0)" stroke-width="1" opacity="0.792156862745098" d="M 95.5 140 L 94.5 142 L 95.5 140 Z " /><path fill="rgb(0,0,0)" stroke="rgb(0,0,0)" stroke-width="1" opacity="0.792156862745098" d="M 256.5 140 L 257.5 142 L 256.5 140 Z " /><path fill="rgb(0,0,0)" stroke="rgb(0,0,0)" stroke-width="1" opacity="0.792156862745098" d="M 261.5 143 L 262.5 145 L 261.5 143 Z " /><path fill="rgb(0,0,0)" stroke="rgb(0,0,0)" stroke-width="1" opacity="0.792156862745098" d="M 85.5 146 L 84.5 148 L 85.5 146 Z " /><path fill="rgb(0,0,0)" stroke="rgb(0,0,0)" stroke-width="1" opacity="0.792156862745098" d="M 266.5 146 L 267.5 148 L 266.5 146 Z " /><path fill="rgb(0,0,0)" stroke="rgb(0,0,0)" stroke-width="1" opacity="0.792156862745098" d="M 82.5 148 L 81.5 150 L 82.5 148 Z " /><path fill="rgb(0,0,0)" stroke="rgb(0,0,0)" stroke-width="1" opacity="0.792156862745098" d="M 269.5 148 L 270.5 150 L 269.5 148 Z " /><path fill="rgb(0,0,0)" stroke="rgb(0,0,0)" stroke-width="1" opacity="0.792156862745098" d="M 272.5 150 L 274.5 153 L 272.5 150 Z " /><path fill="rgb(0,0,0)" stroke="rgb(0,0,0)" stroke-width="1" opacity="0.792156862745098" d="M 75.5 153 L 73.5 156 L 75.5 153 Z " /><path fill="rgb(0,0,0)" stroke="rgb(0,0,0)" stroke-width="1" opacity="0.792156862745098" d="M 276.5 153 L 278.5 156 L 276.5 153 Z " /><path fill="rgb(0,0,0)" stroke="rgb(0,0,0)" stroke-width="1" opacity="0.792156862745098" d="M 71.5 156 L 68.5 160 L 71.5 156 Z " /><path fill="rgb(0,0,0)" stroke="rgb(0,0,0)" stroke-width="1" opacity="0.792156862745098" d="M 281.5 157 L 283.5 160 L 281.5 157 Z " /><path fill="rgb(0,0,0)" stroke="rgb(0,0,0)" stroke-width="1" opacity="0.792156862745098" d="M 64.5 162 L 49.5 178 L 64.5 162 Z " /><path fill="rgb(0,0,0)" stroke="rgb(0,0,0)" stroke-width="1" opacity="0.792156862745098" d="M 287.5 162 L 293.5 168 L 297 168.5 L 293.5 169 L 287.5 162 Z " /><path fill="rgb(0,0,0)" stroke="rgb(0,0,0)" stroke-width="1" opacity="0.792156862745098" d="M 303.5 168 L 307 168.5 L 303.5 169 L 303.5 168 Z " /><path fill="rgb(0,0,0)" stroke="rgb(0,0,0)" stroke-width="1" opacity="0.792156862745098" d="M 47.5 180 L 44.5 184 L 47.5 180 Z " /><path fill="rgb(0,0,0)" stroke="rgb(0,0,0)" stroke-width="1" opacity="0.792156862745098" d="M 43.5 185 L 41.5 188 L 43.5 185 Z " /><path fill="rgb(0,0,0)" stroke="rgb(0,0,0)" stroke-width="1" opacity="0.792156862745098" d="M 39.5 190 L 38.5 192 L 39.5 190 Z " /><path fill="rgb(0,0,0)" stroke="rgb(0,0,0)" stroke-width="1" opacity="0.792156862745098" d="M 37.5 193 L 36.5 195 L 37.5 193 Z " /><path fill="rgb(0,0,0)" stroke="rgb(0,0,0)" stroke-width="1" opacity="0.792156862745098" d="M 35.5 196 L 34.5 198 L 35.5 196 Z " /><path fill="rgb(0,0,0)" stroke="rgb(0,0,0)" stroke-width="1" opacity="0.792156862745098" d="M 409.5 199 L 410.5 201 L 409.5 199 Z " /><path fill="rgb(0,0,0)" stroke="rgb(0,0,0)" stroke-width="1" opacity="0.792156862745098" d="M 29.5 206 L 28.5 208 L 29.5 206 Z " /><path fill="rgb(0,0,0)" stroke="rgb(0,0,0)" stroke-width="1" opacity="0.792156862745098" d="M 420.5 206 L 421.5 208 L 420.5 206 Z " /><path fill="rgb(0,0,0)" stroke="rgb(0,0,0)" stroke-width="1" opacity="0.792156862745098" d="M 424.5 209 L 434.5 220 L 424.5 209 Z " /><path fill="rgb(0,0,0)" stroke="rgb(0,0,0)" stroke-width="1" opacity="0.792156862745098" d="M 436.5 222 L 437.5 224 L 436.5 222 Z " /><path fill="rgb(0,0,0)" stroke="rgb(0,0,0)" stroke-width="1" opacity="0.792156862745098" d="M 443.5 233 L 446 237.5 L 445 237.5 L 443.5 233 Z " /><path fill="rgb(0,0,0)" stroke="rgb(0,0,0)" stroke-width="1" opacity="0.792156862745098" d="M 341 240 L 343 240.5 L 341 241.5 L 341 240 Z " /><path fill="rgb(0,0,0)" stroke="rgb(0,0,0)" stroke-width="1" opacity="0.792156862745098" d="M 343.5 249 L 344 253.5 L 343 253.5 L 343.5 249 Z " /><path fill="rgb(0,0,0)" stroke="rgb(0,0,0)" stroke-width="1" opacity="0.792156862745098" d="M 370.5 252 L 371.5 254 L 370.5 252 Z " /><path fill="rgb(0,0,0)" stroke="rgb(0,0,0)" stroke-width="1" opacity="0.792156862745098" d="M 11.5 253 L 12 255.5 L 11 255.5 L 11.5 253 Z " /><path fill="rgb(0,0,0)" stroke="rgb(0,0,0)" stroke-width="1" opacity="0.792156862745098" d="M 453.5 262 L 454 264.5 L 453 264.5 L 453.5 262 Z " /><path fill="rgb(0,0,0)" stroke="rgb(0,0,0)" stroke-width="1" opacity="0.792156862745098" d="M 9.5 265 L 10 268.5 L 9 268.5 L 9.5 265 Z " /><path fill="rgb(0,0,0)" stroke="rgb(0,0,0)" stroke-width="1" opacity="0.792156862745098" d="M 8.5 274 L 9 283.5 L 8 283.5 L 8.5 274 Z " /><path fill="rgb(0,0,0)" stroke="rgb(0,0,0)" stroke-width="1" opacity="0.792156862745098" d="M 456.5 275 L 457 277.5 L 456 277.5 L 456.5 275 Z " /><path fill="rgb(0,0,0)" stroke="rgb(0,0,0)" stroke-width="1" opacity="0.792156862745098" d="M 459.5 288 L 460 290.5 L 459 290.5 L 459.5 288 Z " /><path fill="rgb(0,0,0)" stroke="rgb(0,0,0)" stroke-width="1" opacity="0.792156862745098" d="M 344.5 291 L 345 295.5 L 344 295.5 L 344.5 291 Z " /><path fill="rgb(0,0,0)" stroke="rgb(0,0,0)" stroke-width="1" opacity="0.792156862745098" d="M 8.5 292 L 9 301.5 L 8 301.5 L 8.5 292 Z " /><path fill="rgb(0,0,0)" stroke="rgb(0,0,0)" stroke-width="1" opacity="0.792156862745098" d="M 462.5 301 L 463 303.5 L 462 303.5 L 462.5 301 Z " /><path fill="rgb(0,0,0)" stroke="rgb(0,0,0)" stroke-width="1" opacity="0.792156862745098" d="M 9.5 307 L 10 310.5 L 9 310.5 L 9.5 307 Z " /><path fill="rgb(0,0,0)" stroke="rgb(0,0,0)" stroke-width="1" opacity="0.792156862745098" d="M 465.5 314 L 466 316.5 L 465 316.5 L 465.5 314 Z " /><path fill="rgb(0,0,0)" stroke="rgb(0,0,0)" stroke-width="1" opacity="0.792156862745098" d="M 352.5 317 L 351.5 319 L 352.5 317 Z " /><path fill="rgb(0,0,0)" stroke="rgb(0,0,0)" stroke-width="1" opacity="0.792156862745098" d="M 11.5 320 L 12 322.5 L 11 322.5 L 11.5 320 Z " /><path fill="rgb(0,0,0)" stroke="rgb(0,0,0)" stroke-width="1" opacity="0.792156862745098" d="M 468.5 327 L 469 329.5 L 468 329.5 L 468.5 327 Z " /><path fill="rgb(0,0,0)" stroke="rgb(0,0,0)" stroke-width="1" opacity="0.792156862745098" d="M 470.5 336 L 471 338.5 L 470 338.5 L 470.5 336 Z " /><path fill="rgb(0,0,0)" stroke="rgb(0,0,0)" stroke-width="1" opacity="0.792156862745098" d="M 471.5 342 L 472 348.5 L 471 348.5 L 471.5 342 Z " /><path fill="rgb(0,0,0)" stroke="rgb(0,0,0)" stroke-width="1" opacity="0.792156862745098" d="M 471.5 355 L 472 360.5 L 471 360.5 L 471.5 355 Z " /><path fill="rgb(0,0,0)" stroke="rgb(0,0,0)" stroke-width="1" opacity="0.792156862745098" d="M 28.5 368 L 29.5 370 L 28.5 368 Z " /><path fill="rgb(0,0,0)" stroke="rgb(0,0,0)" stroke-width="1" opacity="0.792156862745098" d="M 34.5 378 L 35.5 380 L 34.5 378 Z " /><path fill="rgb(0,0,0)" stroke="rgb(0,0,0)" stroke-width="1" opacity="0.792156862745098" d="M 36.5 381 L 37.5 383 L 36.5 381 Z " /><path fill="rgb(0,0,0)" stroke="rgb(0,0,0)" stroke-width="1" opacity="0.792156862745098" d="M 38.5 384 L 39.5 386 L 38.5 384 Z " /><path fill="rgb(0,0,0)" stroke="rgb(0,0,0)" stroke-width="1" opacity="0.792156862745098" d="M 41.5 388 L 43.5 391 L 41.5 388 Z " /><path fill="rgb(0,0,0)" stroke="rgb(0,0,0)" stroke-width="1" opacity="0.792156862745098" d="M 44.5 392 L 47.5 396 L 44.5 392 Z " /><path fill="rgb(0,0,0)" stroke="rgb(0,0,0)" stroke-width="1" opacity="0.792156862745098" d="M 50.5 399 L 64.5 414 L 50.5 399 Z " /><path fill="rgb(0,0,0)" stroke="rgb(0,0,0)" stroke-width="1" opacity="0.792156862745098" d="M 296.5 404 L 306 412.5 L 305.5 414 L 297.5 405 L 286.5 415 L 296.5 404 Z " /><path fill="rgb(0,0,0)" stroke="rgb(0,0,0)" stroke-width="1" opacity="0.792156862745098" d="M 460.5 411 L 461.5 413 L 460.5 411 Z " /><path fill="rgb(0,0,0)" stroke="rgb(0,0,0)" stroke-width="1" opacity="0.792156862745098" d="M 68.5 416 L 71.5 420 L 68.5 416 Z " /><path fill="rgb(0,0,0)" stroke="rgb(0,0,0)" stroke-width="1" opacity="0.792156862745098" d="M 282.5 417 L 280.5 420 L 282.5 417 Z " /><path fill="rgb(0,0,0)" stroke="rgb(0,0,0)" stroke-width="1" opacity="0.792156862745098" d="M 467.5 418 L 468.5 420 L 467.5 418 Z " /><path fill="rgb(0,0,0)" stroke="rgb(0,0,0)" stroke-width="1" opacity="0.792156862745098" d="M 73.5 420 L 75.5 423 L 73.5 420 Z " /><path fill="rgb(0,0,0)" stroke="rgb(0,0,0)" stroke-width="1" opacity="0.792156862745098" d="M 277.5 421 L 276.5 423 L 277.5 421 Z " /><path fill="rgb(0,0,0)" stroke="rgb(0,0,0)" stroke-width="1" opacity="0.792156862745098" d="M 77.5 423 L 78.5 425 L 77.5 423 Z " /><path fill="rgb(0,0,0)" stroke="rgb(0,0,0)" stroke-width="1" opacity="0.792156862745098" d="M 273.5 424 L 272.5 426 L 273.5 424 Z " /><path fill="rgb(0,0,0)" stroke="rgb(0,0,0)" stroke-width="1" opacity="0.792156862745098" d="M 81.5 426 L 82.5 428 L 81.5 426 Z " /><path fill="rgb(0,0,0)" stroke="rgb(0,0,0)" stroke-width="1" opacity="0.792156862745098" d="M 270.5 426 L 269.5 428 L 270.5 426 Z " /><path fill="rgb(0,0,0)" stroke="rgb(0,0,0)" stroke-width="1" opacity="0.792156862745098" d="M 296.5 427 L 297 429.5 L 296 429.5 L 296.5 427 Z " /><path fill="rgb(0,0,0)" stroke="rgb(0,0,0)" stroke-width="1" opacity="0.792156862745098" d="M 471.5 427 L 472 429.5 L 471 429.5 L 471.5 427 Z " /><path fill="rgb(0,0,0)" stroke="rgb(0,0,0)" stroke-width="1" opacity="0.792156862745098" d="M 84.5 428 L 85.5 430 L 84.5 428 Z " /><path fill="rgb(0,0,0)" stroke="rgb(0,0,0)" stroke-width="1" opacity="0.792156862745098" d="M 267.5 428 L 266.5 430 L 267.5 428 Z " /><path fill="rgb(0,0,0)" stroke="rgb(0,0,0)" stroke-width="1" opacity="0.792156862745098" d="M 94.5 434 L 95.5 436 L 94.5 434 Z " /><path fill="rgb(0,0,0)" stroke="rgb(0,0,0)" stroke-width="1" opacity="0.792156862745098" d="M 257.5 434 L 256.5 436 L 257.5 434 Z " /><path fill="rgb(0,0,0)" stroke="rgb(0,0,0)" stroke-width="1" opacity="0.792156862745098" d="M 37.5 442 L 39 442.5 L 36.5 444 L 37.5 442 Z " /><path fill="rgb(0,0,0)" stroke="rgb(0,0,0)" stroke-width="1" opacity="0.792156862745098" d="M 57.5 442 L 60 443.5 L 58.5 443 L 57.5 442 Z " /><path fill="rgb(0,0,0)" stroke="rgb(0,0,0)" stroke-width="1" opacity="0.792156862745098" d="M 66.5 449 L 67.5 451 L 66.5 449 Z " /><path fill="rgb(0,0,0)" stroke="rgb(0,0,0)" stroke-width="1" opacity="0.792156862745098" d="M 27.5 452 L 27 453.5 L 26.5 455 L 26 453.5 L 27.5 452 Z " /><path fill="rgb(0,0,0)" stroke="rgb(0,0,0)" stroke-width="1" opacity="0.792156862745098" d="M 68.5 452 L 70 454.5 L 69 454.5 L 68.5 452 Z " /><path fill="rgb(0,0,0)" stroke="rgb(0,0,0)" stroke-width="1" opacity="0.792156862745098" d="M 141.5 452 L 144 452.5 L 141.5 453 L 141.5 452 Z " /><path fill="rgb(0,0,0)" stroke="rgb(0,0,0)" stroke-width="1" opacity="0.792156862745098" d="M 208.5 452 L 211 452.5 L 208.5 453 L 208.5 452 Z " /><path fill="rgb(0,0,0)" stroke="rgb(0,0,0)" stroke-width="1" opacity="0.792156862745098" d="M 147.5 453 L 150 453.5 L 147.5 454 L 147.5 453 Z " /><path fill="rgb(0,0,0)" stroke="rgb(0,0,0)" stroke-width="1" opacity="0.792156862745098" d="M 153.5 454 L 157 454.5 L 153.5 455 L 153.5 454 Z " /><path fill="rgb(0,0,0)" stroke="rgb(0,0,0)" stroke-width="1" opacity="0.792156862745098" d="M 195.5 454 L 199 454.5 L 195.5 455 L 195.5 454 Z " /><path fill="rgb(0,0,0)" stroke="rgb(0,0,0)" stroke-width="1" opacity="0.792156862745098" d="M 162.5 455 L 172 455.5 L 162.5 456 L 162.5 455 Z " /><path fill="rgb(0,0,0)" stroke="rgb(0,0,0)" stroke-width="1" opacity="0.792156862745098" d="M 180.5 455 L 190 455.5 L 180.5 456 L 180.5 455 Z " /><path fill="rgb(0,0,0)" stroke="rgb(0,0,0)" stroke-width="1" opacity="0.792156862745098" d="M 251.5 456 L 254 456.5 L 251.5 457 L 251.5 456 Z " /><path fill="rgb(0,0,0)" stroke="rgb(0,0,0)" stroke-width="1" opacity="0.792156862745098" d="M 258.5 456 L 261 456.5 L 258.5 457 L 258.5 456 Z " /><path fill="rgb(0,0,0)" stroke="rgb(0,0,0)" stroke-width="1" opacity="0.792156862745098" d="M 243.5 459 L 242.5 461 L 243.5 459 Z " /><path fill="rgb(0,0,0)" stroke="rgb(0,0,0)" stroke-width="1" opacity="0.792156862745098" d="M 268.5 459 L 269.5 461 L 268.5 459 Z " /><path fill="rgb(0,0,0)" stroke="rgb(0,0,0)" stroke-width="1" opacity="0.792156862745098" d="M 236.5 466 L 235.5 468 L 236.5 466 Z " /><path fill="rgb(0,0,0)" stroke="rgb(0,0,0)" stroke-width="1" opacity="0.792156862745098" d="M 275.5 466 L 276.5 468 L 275.5 466 Z " /><path fill="rgb(0,0,0)" stroke="rgb(0,0,0)" stroke-width="1" opacity="0.792156862745098" d="M 26.5 473 L 28 475.5 L 26 474.5 L 26.5 473 Z " /><path fill="rgb(0,0,0)" stroke="rgb(0,0,0)" stroke-width="1" opacity="0.792156862745098" d="M 69.5 473 L 70 474.5 L 68 475.5 L 69.5 473 Z " /><path fill="rgb(0,0,0)" stroke="rgb(0,0,0)" stroke-width="1" opacity="0.792156862745098" d="M 232.5 475 L 233 477.5 L 232 477.5 L 232.5 475 Z " /><path fill="rgb(0,0,0)" stroke="rgb(0,0,0)" stroke-width="1" opacity="0.792156862745098" d="M 279.5 475 L 280 477.5 L 279 477.5 L 279.5 475 Z " /><path fill="rgb(0,0,0)" stroke="rgb(0,0,0)" stroke-width="1" opacity="0.792156862745098" d="M 67.5 477 L 66.5 479 L 67.5 477 Z " /><path fill="rgb(0,0,0)" stroke="rgb(0,0,0)" stroke-width="1" opacity="0.792156862745098" d="M 33.5 482 L 34.5 484 L 33.5 482 Z " /><path fill="rgb(0,0,0)" stroke="rgb(0,0,0)" stroke-width="1" opacity="0.792156862745098" d="M 62.5 482 L 61.5 484 L 62.5 482 Z " /><path fill="rgb(0,0,0)" stroke="rgb(0,0,0)" stroke-width="1" opacity="0.792156862745098" d="M 232.5 482 L 233 484.5 L 232 484.5 L 232.5 482 Z " /><path fill="rgb(0,0,0)" stroke="rgb(0,0,0)" stroke-width="1" opacity="0.792156862745098" d="M 279.5 482 L 280 484.5 L 279 484.5 L 279.5 482 Z " /><path fill="rgb(0,0,0)" stroke="rgb(0,0,0)" stroke-width="1" opacity="0.792156862745098" d="M 36.5 484 L 39 485.5 L 37.5 486 L 36.5 484 Z " /><path fill="rgb(0,0,0)" stroke="rgb(0,0,0)" stroke-width="1" opacity="0.792156862745098" d="M 59.5 484 L 58.5 486 L 57 485.5 L 59.5 484 Z " /><path fill="rgb(0,0,0)" stroke="rgb(0,0,0)" stroke-width="1" opacity="0.792156862745098" d="M 235.5 492 L 236.5 494 L 235.5 492 Z " /><path fill="rgb(0,0,0)" stroke="rgb(0,0,0)" stroke-width="1" opacity="0.792156862745098" d="M 276.5 492 L 275.5 494 L 276.5 492 Z " /><path fill="rgb(0,0,0)" stroke="rgb(0,0,0)" stroke-width="1" opacity="0.792156862745098" d="M 242.5 499 L 243.5 501 L 242.5 499 Z " /><path fill="rgb(0,0,0)" stroke="rgb(0,0,0)" stroke-width="1" opacity="0.792156862745098" d="M 269.5 499 L 268.5 501 L 269.5 499 Z " /><path fill="rgb(0,0,0)" stroke="rgb(0,0,0)" stroke-width="1" opacity="0.792156862745098" d="M 251.5 503 L 254 503.5 L 251.5 504 L 251.5 503 Z " /><path fill="rgb(0,0,0)" stroke="rgb(0,0,0)" stroke-width="1" opacity="0.792156862745098" d="M 258.5 503 L 261 503.5 L 258.5 504 L 258.5 503 Z " /><path fill="rgb(94,204,176)" stroke="rgb(94,204,176)" stroke-width="1" opacity="1" d="M 464.5 40 Q 480.1 39.4 485 49.5 L 488 57.5 L 488 63.5 L 484 72.5 L 416.5 140 L 388 112.5 L 455.5 44 L 464.5 40 Z " /><path fill="rgb(94,204,176)" stroke="rgb(94,204,176)" stroke-width="1" opacity="1" d="M 165.5 136 L 169 136.5 L 165.5 137 L 165.5 136 Z " /><path fill="rgb(94,204,176)" stroke="rgb(94,204,176)" stroke-width="1" opacity="1" d="M 183.5 136 L 187 136.5 L 183.5 137 L 183.5 136 Z " /><path fill="rgb(94,204,176)" stroke="rgb(94,204,176)" stroke-width="1" opacity="1" d="M 161.5 152 L 164 152.5 L 161.5 153 L 161.5 152 Z " /><path fill="rgb(94,204,176)" stroke="rgb(94,204,176)" stroke-width="1" opacity="1" d="M 188.5 152 L 191 152.5 L 188.5 153 L 188.5 152 Z " /><path fill="rgb(94,204,176)" stroke="rgb(94,204,176)" stroke-width="1" opacity="1" d="M 166.5 168 L 172 168.5 L 166.5 169 L 166.5 168 Z " /><path fill="rgb(94,204,176)" stroke="rgb(94,204,176)" stroke-width="1" opacity="1" d="M 179.5 168 L 185 168.5 L 179.5 169 L 179.5 168 Z " /><path fill="rgb(94,204,176)" stroke="rgb(94,204,176)" stroke-width="1" opacity="1" d="M 269.5 168 L 270.5 170 L 269.5 168 Z " /><path fill="rgb(94,204,176)" stroke="rgb(94,204,176)" stroke-width="1" opacity="1" d="M 77.5 172 L 76.5 174 L 77.5 172 Z " /><path fill="rgb(94,204,176)" stroke="rgb(94,204,176)" stroke-width="1" opacity="1" d="M 275.5 173 L 277.5 176 L 275.5 173 Z " /><path fill="rgb(94,204,176)" stroke="rgb(94,204,176)" stroke-width="1" opacity="1" d="M 87.5 184 L 85.5 187 L 87.5 184 Z " /><path fill="rgb(94,204,176)" stroke="rgb(94,204,176)" stroke-width="1" opacity="1" d="M 264.5 184 L 265.5 186 L 264.5 184 Z " /><path fill="rgb(94,204,176)" stroke="rgb(94,204,176)" stroke-width="1" opacity="1" d="M 61.5 188 L 60.5 190 L 61.5 188 Z " /><path fill="rgb(94,204,176)" stroke="rgb(94,204,176)" stroke-width="1" opacity="1" d="M 248.5 192 L 249.5 194 L 248.5 192 Z " /><path fill="rgb(94,204,176)" stroke="rgb(94,204,176)" stroke-width="1" opacity="1" d="M 102.5 193 L 101.5 195 L 102.5 193 Z " /><path fill="rgb(94,204,176)" stroke="rgb(94,204,176)" stroke-width="1" opacity="1" d="M 149.5 195 L 147.5 198 L 149.5 195 Z " /><path fill="rgb(94,204,176)" stroke="rgb(94,204,176)" stroke-width="1" opacity="1" d="M 218.5 195 L 220.5 198 L 218.5 195 Z " /><path fill="rgb(94,204,176)" stroke="rgb(94,204,176)" stroke-width="1" opacity="1" d="M 253.5 196 L 256.5 200 L 253.5 196 Z " /><path fill="rgb(94,204,176)" stroke="rgb(94,204,176)" stroke-width="1" opacity="1" d="M 74.5 197 L 72.5 200 L 74.5 197 Z " /><path fill="rgb(94,204,176)" stroke="rgb(94,204,176)" stroke-width="1" opacity="1" d="M 97.5 197 L 93.5 202 L 97.5 197 Z " /><path fill="rgb(94,204,176)" stroke="rgb(94,204,176)" stroke-width="1" opacity="1" d="M 141.5 203 L 139.5 206 L 141.5 203 Z " /><path fill="rgb(94,204,176)" stroke="rgb(94,204,176)" stroke-width="1" opacity="1" d="M 226.5 203 L 228.5 206 L 226.5 203 Z " /><path fill="rgb(94,204,176)" stroke="rgb(94,204,176)" stroke-width="1" opacity="1" d="M 89.5 205 L 85.5 210 L 89.5 205 Z " /><path fill="rgb(94,204,176)" stroke="rgb(94,204,176)" stroke-width="1" opacity="1" d="M 263.5 206 L 266.5 210 L 263.5 206 Z " /><path fill="rgb(94,204,176)" stroke="rgb(94,204,176)" stroke-width="1" opacity="1" d="M 82.5 213 L 81.5 215 L 82.5 213 Z " /><path fill="rgb(94,204,176)" stroke="rgb(94,204,176)" stroke-width="1" opacity="1" d="M 127.5 248 L 128 250.5 L 127 250.5 L 127.5 248 Z " /><path fill="rgb(94,204,176)" stroke="rgb(94,204,176)" stroke-width="1" opacity="1" d="M 40.5 273 L 41 275.5 L 40 275.5 L 40.5 273 Z " /><path fill="rgb(94,204,176)" stroke="rgb(94,204,176)" stroke-width="1" opacity="1" d="M 24.5 277 L 25 280.5 L 24 280.5 L 24.5 277 Z " /><path fill="rgb(94,204,176)" stroke="rgb(94,204,176)" stroke-width="1" opacity="1" d="M 56.5 278 L 57 283.5 L 56 283.5 L 56.5 278 Z " /><path fill="rgb(94,204,176)" stroke="rgb(94,204,176)" stroke-width="1" opacity="1" d="M 279.5 284 L 280 289.5 L 279 289.5 L 279.5 284 Z " /><path fill="rgb(94,204,176)" stroke="rgb(94,204,176)" stroke-width="1" opacity="1" d="M 56.5 292 L 57 297.5 L 56 297.5 L 56.5 292 Z " /><path fill="rgb(94,204,176)" stroke="rgb(94,204,176)" stroke-width="1" opacity="1" d="M 24.5 295 L 25 298.5 L 24 298.5 L 24.5 295 Z " /><path fill="rgb(94,204,176)" stroke="rgb(94,204,176)" stroke-width="1" opacity="1" d="M 40.5 300 L 41 302.5 L 40 302.5 L 40.5 300 Z " /><path fill="rgb(94,204,176)" stroke="rgb(94,204,176)" stroke-width="1" opacity="1" d="M 257.5 326 L 256.5 328 L 257.5 326 Z " /><path fill="rgb(94,204,176)" stroke="rgb(94,204,176)" stroke-width="1" opacity="1" d="M 194.5 331 L 196.5 334 L 194.5 331 Z " /><path fill="rgb(94,204,176)" stroke="rgb(94,204,176)" stroke-width="1" opacity="1" d="M 200.5 336 L 201.5 338 L 200.5 336 Z " /><path fill="rgb(94,204,176)" stroke="rgb(94,204,176)" stroke-width="1" opacity="1" d="M 247.5 336 L 246.5 338 L 247.5 336 Z " /><path fill="rgb(94,204,176)" stroke="rgb(94,204,176)" stroke-width="1" opacity="1" d="M 129.5 348 L 124.5 354 L 129.5 348 Z " /><path fill="rgb(94,204,176)" stroke="rgb(94,204,176)" stroke-width="1" opacity="1" d="M 158.5 348 L 163.5 354 L 158.5 348 Z " /><path fill="rgb(94,204,176)" stroke="rgb(94,204,176)" stroke-width="1" opacity="1" d="M 273.5 357 L 272.5 359 L 273.5 357 Z " /><path fill="rgb(94,204,176)" stroke="rgb(94,204,176)" stroke-width="1" opacity="1" d="M 81.5 361 L 82.5 363 L 81.5 361 Z " /><path fill="rgb(94,204,176)" stroke="rgb(94,204,176)" stroke-width="1" opacity="1" d="M 270.5 361 L 269.5 363 L 270.5 361 Z " /><path fill="rgb(94,204,176)" stroke="rgb(94,204,176)" stroke-width="1" opacity="1" d="M 85.5 366 L 89.5 371 L 85.5 366 Z " /><path fill="rgb(94,204,176)" stroke="rgb(94,204,176)" stroke-width="1" opacity="1" d="M 266.5 366 L 262.5 371 L 266.5 366 Z " /><path fill="rgb(94,204,176)" stroke="rgb(94,204,176)" stroke-width="1" opacity="1" d="M 93.5 374 L 97.5 379 L 93.5 374 Z " /><path fill="rgb(94,204,176)" stroke="rgb(94,204,176)" stroke-width="1" opacity="1" d="M 258.5 374 L 254.5 379 L 258.5 374 Z " /><path fill="rgb(94,204,176)" stroke="rgb(94,204,176)" stroke-width="1" opacity="1" d="M 72.5 376 L 74.5 379 L 72.5 376 Z " /><path fill="rgb(94,204,176)" stroke="rgb(94,204,176)" stroke-width="1" opacity="1" d="M 278.5 377 L 277.5 379 L 278.5 377 Z " /><path fill="rgb(94,204,176)" stroke="rgb(94,204,176)" stroke-width="1" opacity="1" d="M 101.5 381 L 102.5 383 L 101.5 381 Z " /><path fill="rgb(94,204,176)" stroke="rgb(94,204,176)" stroke-width="1" opacity="1" d="M 250.5 381 L 249.5 383 L 250.5 381 Z " /><path fill="rgb(94,204,176)" stroke="rgb(94,204,176)" stroke-width="1" opacity="1" d="M 124.5 382 L 129.5 388 L 124.5 382 Z " /><path fill="rgb(94,204,176)" stroke="rgb(94,204,176)" stroke-width="1" opacity="1" d="M 163.5 382 L 158.5 388 L 163.5 382 Z " /><path fill="rgb(94,204,176)" stroke="rgb(94,204,176)" stroke-width="1" opacity="1" d="M 246.5 384 L 245.5 386 L 246.5 384 Z " /><path fill="rgb(94,204,176)" stroke="rgb(94,204,176)" stroke-width="1" opacity="1" d="M 60.5 386 L 61.5 388 L 60.5 386 Z " /><path fill="rgb(94,204,176)" stroke="rgb(94,204,176)" stroke-width="1" opacity="1" d="M 85.5 389 L 87.5 392 L 85.5 389 Z " /><path fill="rgb(94,204,176)" stroke="rgb(94,204,176)" stroke-width="1" opacity="1" d="M 266.5 389 L 265.5 391 L 266.5 389 Z " /><path fill="rgb(94,204,176)" stroke="rgb(94,204,176)" stroke-width="1" opacity="1" d="M 76.5 402 L 77.5 404 L 76.5 402 Z " /><path fill="rgb(94,204,176)" stroke="rgb(94,204,176)" stroke-width="1" opacity="1" d="M 275.5 402 L 274.5 404 L 275.5 402 Z " /><path fill="rgb(94,204,176)" stroke="rgb(94,204,176)" stroke-width="1" opacity="1" d="M 167.5 407 L 172 407.5 L 167.5 408 L 167.5 407 Z " /><path fill="rgb(94,204,176)" stroke="rgb(94,204,176)" stroke-width="1" opacity="1" d="M 179.5 407 L 185 407.5 L 179.5 408 L 179.5 407 Z " /><path fill="rgb(94,204,176)" stroke="rgb(94,204,176)" stroke-width="1" opacity="1" d="M 161.5 423 L 164 423.5 L 161.5 424 L 161.5 423 Z " /><path fill="rgb(94,204,176)" stroke="rgb(94,204,176)" stroke-width="1" opacity="1" d="M 188.5 423 L 191 423.5 L 188.5 424 L 188.5 423 Z " /><path fill="rgb(94,204,176)" stroke="rgb(94,204,176)" stroke-width="1" opacity="1" d="M 165.5 439 L 169 439.5 L 165.5 440 L 165.5 439 Z " /><path fill="rgb(94,204,176)" stroke="rgb(94,204,176)" stroke-width="1" opacity="1" d="M 182.5 439 L 187 439.5 L 182.5 440 L 182.5 439 Z " /><path fill="rgb(0,0,0)" stroke="rgb(0,0,0)" stroke-width="1" opacity="0" d="M 0 0 L 512 0 L 512 512 L 0 512 L 0 0 Z M 296 8 L 296 25 L 286 28 L 284 30 L 282 30 L 271 19 L 259 30 L 270 42 L 265 54 L 265 56 L 248 56 L 248 72 L 265 72 L 268 83 L 270 85 L 270 87 L 259 98 L 270 109 L 282 98 L 294 103 L 296 104 L 296 120 L 312 120 L 312 103 L 323 100 L 325 98 L 327 98 L 338 109 L 349 99 L 338 87 L 343 75 L 344 72 L 360 72 L 360 56 L 343 56 L 340 46 L 338 44 L 338 42 L 349 31 L 339 19 L 327 30 L 315 25 L 312 25 L 312 8 L 296 8 Z M 462 24 Q 451 26 445 32 L 365 112 L 372 120 L 321 172 L 307 168 L 294 168 Q 270 143 235 130 L 211 123 L 200 122 L 199 121 L 191 121 L 190 120 L 163 120 L 162 121 L 154 121 L 130 126 L 118 130 Q 87 142 65 162 Q 43 181 28 208 Q 20 223 14 242 L 8 275 L 8 302 L 9 303 L 9 311 L 14 335 L 18 347 Q 30 377 50 400 Q 69 421 96 436 L 127 449 L 142 453 L 153 454 L 154 455 L 162 455 L 163 456 L 190 456 L 191 455 L 199 455 L 223 450 L 235 446 Q 272 432 297 405 L 305 413 Q 298 418 296 428 L 296 504 L 472 504 L 472 428 L 469 420 L 461 411 L 453 409 L 468 378 L 472 361 L 472 343 Q 470 341 471 337 L 451 251 Q 446 232 435 220 Q 425 207 410 199 Q 396 192 378 189 L 376 188 L 408 156 L 417 163 L 496 84 Q 502 77 504 67 L 504 55 L 498 40 Q 492 30 481 26 Q 473 23 462 24 Z M 28 72 L 20 75 Q 11 80 8 92 Q 7 103 11 109 Q 16 117 28 120 Q 39 121 45 117 Q 53 112 56 101 L 55 88 L 49 78 L 41 73 L 28 72 Z M 40 424 L 40 442 L 35 444 L 26 454 L 26 456 L 8 456 L 8 472 L 26 472 L 28 478 L 38 486 L 40 487 L 40 504 L 56 504 L 56 486 L 62 484 L 70 475 L 71 472 L 88 472 L 88 456 L 70 456 L 68 451 L 59 442 L 56 442 L 56 424 L 40 424 Z M 252 456 L 244 459 Q 235 464 232 476 Q 231 487 235 493 Q 240 501 252 504 Q 263 505 269 501 Q 277 496 280 485 L 279 472 L 273 462 L 265 457 L 252 456 Z " /><path fill="rgb(0,0,0)" stroke="rgb(0,0,0)" stroke-width="1" opacity="0" d="M 342 241 L 362.5 248 Q 369.3 250.3 373 255.5 Q 376.9 259.6 376 268.5 L 351.5 318 L 348 310.5 L 345 298.5 Q 346.7 292.3 344 290.5 L 344 249.5 L 342 241 Z " /><path fill="rgb(104,213,243)" stroke="rgb(104,213,243)" stroke-width="1" opacity="1" d="M 172.5 168 L 197.5 170 L 221.5 177 Q 246.1 187.4 263 205.5 L 273 217.5 L 273 219.5 L 240 251.5 L 240 230.5 L 238 222.5 Q 231.9 205.1 218.5 195 L 201.5 186 L 193.5 184 L 174.5 184 Q 151.1 189.1 139 205.5 L 130 222.5 L 128 230.5 L 128 247.5 L 126 255.5 L 116 270.5 L 113 277.5 Q 110.4 285.4 112 297.5 Q 116.2 312.8 127.5 321 L 142.5 328 L 164.5 328 L 176.5 325 L 186.5 320 L 196.5 334 Q 202.9 340.1 212.5 343 Q 220 345.5 231.5 344 L 246.5 338 L 253 333 L 262 318.5 Q 265.3 311.3 264 299.5 L 278.5 285 L 280 290.5 L 280 347.5 Q 271.3 362.3 259.5 374 Q 243.5 389.5 221.5 399 L 197.5 406 L 172.5 408 L 171.5 407 L 160.5 407 L 149.5 405 L 130.5 399 Q 106.6 388.9 90 371.5 Q 72.5 354 63 328.5 L 57 303.5 L 56 284.5 L 57 283.5 L 57 272.5 L 59 261.5 L 65 242.5 Q 75.1 218.6 92.5 202 Q 108.3 186.3 130.5 177 L 149.5 171 L 160.5 169 L 171.5 169 L 172.5 168 Z M 72 280 L 72 296 L 88 296 L 88 280 L 72 280 Z M 139 344 L 130 348 Q 122 353 120 363 Q 118 376 124 383 Q 129 390 139 392 Q 152 394 159 388 Q 166 383 168 374 Q 170 360 164 354 Q 158 342 139 344 Z M 184 352 L 184 368 L 200 368 L 200 352 L 184 352 Z " /><path fill="rgb(69,68,67)" stroke="rgb(69,68,67)" stroke-width="1" opacity="1" d="M 298.5 40 L 301 40.5 L 298.5 41 L 298.5 40 Z " /><path fill="rgb(69,68,67)" stroke="rgb(69,68,67)" stroke-width="1" opacity="1" d="M 307.5 40 L 310 40.5 L 307.5 41 L 307.5 40 Z " /><path fill="rgb(69,68,67)" stroke="rgb(69,68,67)" stroke-width="1" opacity="1" d="M 457.5 42 L 456.5 44 L 457.5 42 Z " /><path fill="rgb(69,68,67)" stroke="rgb(69,68,67)" stroke-width="1" opacity="1" d="M 479.5 43 L 484.5 49 L 479.5 43 Z " /><path fill="rgb(69,68,67)" stroke="rgb(69,68,67)" stroke-width="1" opacity="1" d="M 288.5 45 L 285.5 49 L 288.5 45 Z " /><path fill="rgb(69,68,67)" stroke="rgb(69,68,67)" stroke-width="1" opacity="1" d="M 319.5 45 L 322.5 49 L 319.5 45 Z " /><path fill="rgb(69,68,67)" stroke="rgb(69,68,67)" stroke-width="1" opacity="1" d="M 453.5 45 L 388 111.5 L 415.5 140 L 482.5 74 L 416.5 141 L 387 112.5 L 453.5 45 Z " /><path fill="rgb(69,68,67)" stroke="rgb(69,68,67)" stroke-width="1" opacity="1" d="M 280.5 58 L 281 60.5 L 280 60.5 L 280.5 58 Z " /><path fill="rgb(69,68,67)" stroke="rgb(69,68,67)" stroke-width="1" opacity="1" d="M 327.5 58 L 328 60.5 L 327 60.5 L 327.5 58 Z " /><path fill="rgb(69,68,67)" stroke="rgb(69,68,67)" stroke-width="1" opacity="1" d="M 280.5 67 L 281 69.5 L 280 69.5 L 280.5 67 Z " /><path fill="rgb(69,68,67)" stroke="rgb(69,68,67)" stroke-width="1" opacity="1" d="M 327.5 67 L 328 69.5 L 327 69.5 L 327.5 67 Z " /><path fill="rgb(69,68,67)" stroke="rgb(69,68,67)" stroke-width="1" opacity="1" d="M 485.5 70 L 484.5 72 L 485.5 70 Z " /><path fill="rgb(69,68,67)" stroke="rgb(69,68,67)" stroke-width="1" opacity="1" d="M 285.5 79 L 288.5 83 L 285.5 79 Z " /><path fill="rgb(69,68,67)" stroke="rgb(69,68,67)" stroke-width="1" opacity="1" d="M 322.5 79 L 319.5 83 L 322.5 79 Z " /><path fill="rgb(69,68,67)" stroke="rgb(69,68,67)" stroke-width="1" opacity="1" d="M 298.5 87 L 301 87.5 L 298.5 88 L 298.5 87 Z " /><path fill="rgb(69,68,67)" stroke="rgb(69,68,67)" stroke-width="1" opacity="1" d="M 307.5 87 L 310 87.5 L 307.5 88 L 307.5 87 Z " /><path fill="rgb(69,68,67)" stroke="rgb(69,68,67)" stroke-width="1" opacity="1" d="M 27.5 89 L 25.5 92 L 27.5 89 Z " /><path fill="rgb(69,68,67)" stroke="rgb(69,68,67)" stroke-width="1" opacity="1" d="M 36.5 89 L 38.5 92 L 36.5 89 Z " /><path fill="rgb(69,68,67)" stroke="rgb(69,68,67)" stroke-width="1" opacity="1" d="M 25.5 100 L 27.5 103 L 25.5 100 Z " /><path fill="rgb(69,68,67)" stroke="rgb(69,68,67)" stroke-width="1" opacity="1" d="M 38.5 100 L 36.5 103 L 38.5 100 Z " /><path fill="rgb(69,68,67)" stroke="rgb(69,68,67)" stroke-width="1" opacity="1" d="M 383.5 131 L 397 143.5 L 384.5 157 L 371 144.5 L 383.5 131 Z M 384 132 L 372 145 L 385 156 L 396 144 L 384 132 Z " /><path fill="rgb(69,68,67)" stroke="rgb(69,68,67)" stroke-width="1" opacity="1" d="M 160.5 136 L 165 136.5 L 160.5 137 L 160.5 136 Z " /><path fill="rgb(69,68,67)" stroke="rgb(69,68,67)" stroke-width="1" opacity="1" d="M 187.5 136 L 192 136.5 L 187.5 137 L 187.5 136 Z " /><path fill="rgb(69,68,67)" stroke="rgb(69,68,67)" stroke-width="1" opacity="1" d="M 152.5 137 L 155 137.5 L 152.5 138 L 152.5 137 Z " /><path fill="rgb(69,68,67)" stroke="rgb(69,68,67)" stroke-width="1" opacity="1" d="M 197.5 137 L 200 137.5 L 197.5 138 L 197.5 137 Z " /><path fill="rgb(69,68,67)" stroke="rgb(69,68,67)" stroke-width="1" opacity="1" d="M 164.5 152 L 169 152.5 L 164.5 153 L 164.5 152 Z " /><path fill="rgb(69,68,67)" stroke="rgb(69,68,67)" stroke-width="1" opacity="1" d="M 183.5 152 L 188 152.5 L 183.5 153 L 183.5 152 Z " /><path fill="rgb(69,68,67)" stroke="rgb(69,68,67)" stroke-width="1" opacity="1" d="M 155.5 153 L 159 153.5 L 155.5 154 L 155.5 153 Z " /><path fill="rgb(69,68,67)" stroke="rgb(69,68,67)" stroke-width="1" opacity="1" d="M 194.5 153 L 197 153.5 L 194.5 154 L 194.5 153 Z " /><path fill="rgb(69,68,67)" stroke="rgb(69,68,67)" stroke-width="1" opacity="1" d="M 359.5 155 L 373 167.5 L 324.5 217 L 372 168.5 L 360.5 156 L 307 208.5 L 306.5 210 L 306 208.5 L 359.5 155 Z " /><path fill="rgb(69,68,67)" stroke="rgb(69,68,67)" stroke-width="1" opacity="1" d="M 257.5 159 L 258.5 161 L 257.5 159 Z " /><path fill="rgb(69,68,67)" stroke="rgb(69,68,67)" stroke-width="1" opacity="1" d="M 260.5 161 L 261.5 163 L 260.5 161 Z " /><path fill="rgb(69,68,67)" stroke="rgb(69,68,67)" stroke-width="1" opacity="1" d="M 88.5 163 L 87.5 165 L 88.5 163 Z " /><path fill="rgb(69,68,67)" stroke="rgb(69,68,67)" stroke-width="1" opacity="1" d="M 263.5 163 L 264.5 165 L 263.5 163 Z " /><path fill="rgb(69,68,67)" stroke="rgb(69,68,67)" stroke-width="1" opacity="1" d="M 84.5 166 L 83.5 168 L 84.5 166 Z " /><path fill="rgb(69,68,67)" stroke="rgb(69,68,67)" stroke-width="1" opacity="1" d="M 267.5 166 L 268.5 168 L 267.5 166 Z " /><path fill="rgb(69,68,67)" stroke="rgb(69,68,67)" stroke-width="1" opacity="1" d="M 162.5 168 L 166 168.5 L 162.5 169 L 162.5 168 Z " /><path fill="rgb(69,68,67)" stroke="rgb(69,68,67)" stroke-width="1" opacity="1" d="M 185.5 168 L 190 168.5 L 185.5 169 L 185.5 168 Z " /><path fill="rgb(69,68,67)" stroke="rgb(69,68,67)" stroke-width="1" opacity="1" d="M 80.5 169 L 78.5 172 L 80.5 169 Z " /><path fill="rgb(69,68,67)" stroke="rgb(69,68,67)" stroke-width="1" opacity="1" d="M 155.5 169 L 158 169.5 L 155.5 170 L 155.5 169 Z " /><path fill="rgb(69,68,67)" stroke="rgb(69,68,67)" stroke-width="1" opacity="1" d="M 194.5 169 L 197 169.5 L 194.5 170 L 194.5 169 Z " /><path fill="rgb(69,68,67)" stroke="rgb(69,68,67)" stroke-width="1" opacity="1" d="M 107.5 170 L 106.5 172 L 107.5 170 Z " /><path fill="rgb(69,68,67)" stroke="rgb(69,68,67)" stroke-width="1" opacity="1" d="M 272.5 170 L 274.5 173 L 272.5 170 Z " /><path fill="rgb(69,68,67)" stroke="rgb(69,68,67)" stroke-width="1" opacity="1" d="M 73.5 175 L 63.5 186 L 73.5 175 Z " /><path fill="rgb(69,68,67)" stroke="rgb(69,68,67)" stroke-width="1" opacity="1" d="M 252.5 175 L 253.5 177 L 252.5 175 Z " /><path fill="rgb(69,68,67)" stroke="rgb(69,68,67)" stroke-width="1" opacity="1" d="M 95.5 178 L 94.5 180 L 95.5 178 Z " /><path fill="rgb(69,68,67)" stroke="rgb(69,68,67)" stroke-width="1" opacity="1" d="M 256.5 178 L 257.5 180 L 256.5 178 Z " /><path fill="rgb(69,68,67)" stroke="rgb(69,68,67)" stroke-width="1" opacity="1" d="M 91.5 181 L 89.5 184 L 91.5 181 Z " /><path fill="rgb(69,68,67)" stroke="rgb(69,68,67)" stroke-width="1" opacity="1" d="M 260.5 181 L 261.5 183 L 260.5 181 Z " /><path fill="rgb(69,68,67)" stroke="rgb(69,68,67)" stroke-width="1" opacity="1" d="M 176.5 184 L 180 184.5 L 176.5 185 L 176.5 184 Z " /><path fill="rgb(69,68,67)" stroke="rgb(69,68,67)" stroke-width="1" opacity="1" d="M 188.5 184 L 192 184.5 L 188.5 185 L 188.5 184 Z " /><path fill="rgb(69,68,67)" stroke="rgb(69,68,67)" stroke-width="1" opacity="1" d="M 240.5 186 L 241.5 188 L 240.5 186 Z " /><path fill="rgb(69,68,67)" stroke="rgb(69,68,67)" stroke-width="1" opacity="1" d="M 266.5 186 L 271.5 191 L 273 190.5 Q 273.8 192.8 271.5 192 L 266.5 186 Z " /><path fill="rgb(69,68,67)" stroke="rgb(69,68,67)" stroke-width="1" opacity="1" d="M 306.5 186 L 291.5 202 L 306.5 186 Z " /><path fill="rgb(69,68,67)" stroke="rgb(69,68,67)" stroke-width="1" opacity="1" d="M 84.5 187 L 75.5 197 L 84.5 187 Z " /><path fill="rgb(69,68,67)" stroke="rgb(69,68,67)" stroke-width="1" opacity="1" d="M 108.5 188 L 107.5 190 L 108.5 188 Z " /><path fill="rgb(69,68,67)" stroke="rgb(69,68,67)" stroke-width="1" opacity="1" d="M 243.5 188 L 244.5 190 L 243.5 188 Z " /><path fill="rgb(69,68,67)" stroke="rgb(69,68,67)" stroke-width="1" opacity="1" d="M 59.5 190 L 57.5 193 L 59.5 190 Z " /><path fill="rgb(69,68,67)" stroke="rgb(69,68,67)" stroke-width="1" opacity="1" d="M 104.5 191 L 103.5 193 L 104.5 191 Z " /><path fill="rgb(69,68,67)" stroke="rgb(69,68,67)" stroke-width="1" opacity="1" d="M 100.5 194 L 98.5 197 L 100.5 194 Z " /><path fill="rgb(69,68,67)" stroke="rgb(69,68,67)" stroke-width="1" opacity="1" d="M 151.5 194 L 150.5 196 L 151.5 194 Z " /><path fill="rgb(69,68,67)" stroke="rgb(69,68,67)" stroke-width="1" opacity="1" d="M 216.5 194 L 217.5 196 L 216.5 194 Z " /><path fill="rgb(69,68,67)" stroke="rgb(69,68,67)" stroke-width="1" opacity="1" d="M 251.5 194 L 252.5 196 L 251.5 194 Z " /><path fill="rgb(69,68,67)" stroke="rgb(69,68,67)" stroke-width="1" opacity="1" d="M 55.5 195 L 54.5 197 L 55.5 195 Z " /><path fill="rgb(69,68,67)" stroke="rgb(69,68,67)" stroke-width="1" opacity="1" d="M 146.5 198 L 142.5 203 L 146.5 198 Z " /><path fill="rgb(69,68,67)" stroke="rgb(69,68,67)" stroke-width="1" opacity="1" d="M 221.5 198 L 225.5 203 L 221.5 198 Z " /><path fill="rgb(69,68,67)" stroke="rgb(69,68,67)" stroke-width="1" opacity="1" d="M 52.5 199 L 51.5 201 L 52.5 199 Z " /><path fill="rgb(69,68,67)" stroke="rgb(69,68,67)" stroke-width="1" opacity="1" d="M 176.5 200 L 180 200.5 L 176.5 201 L 176.5 200 Z " /><path fill="rgb(69,68,67)" stroke="rgb(69,68,67)" stroke-width="1" opacity="1" d="M 188.5 200 L 192 200.5 L 188.5 201 L 188.5 200 Z " /><path fill="rgb(69,68,67)" stroke="rgb(69,68,67)" stroke-width="1" opacity="1" d="M 71.5 201 L 69.5 204 L 71.5 201 Z " /><path fill="rgb(69,68,67)" stroke="rgb(69,68,67)" stroke-width="1" opacity="1" d="M 259.5 201 L 262.5 205 L 259.5 201 Z " /><path fill="rgb(69,68,67)" stroke="rgb(69,68,67)" stroke-width="1" opacity="1" d="M 361.5 201 L 341.5 222 L 361.5 201 Z " /><path fill="rgb(69,68,67)" stroke="rgb(69,68,67)" stroke-width="1" opacity="1" d="M 91.5 202 L 90.5 204 L 91.5 202 Z " /><path fill="rgb(69,68,67)" stroke="rgb(69,68,67)" stroke-width="1" opacity="1" d="M 163.5 205 L 162.5 207 L 163.5 205 Z " /><path fill="rgb(69,68,67)" stroke="rgb(69,68,67)" stroke-width="1" opacity="1" d="M 204.5 205 L 205.5 207 L 204.5 205 Z " /><path fill="rgb(69,68,67)" stroke="rgb(69,68,67)" stroke-width="1" opacity="1" d="M 67.5 206 L 66.5 208 L 67.5 206 Z " /><path fill="rgb(69,68,67)" stroke="rgb(69,68,67)" stroke-width="1" opacity="1" d="M 139.5 206 L 138.5 208 L 139.5 206 Z " /><path fill="rgb(69,68,67)" stroke="rgb(69,68,67)" stroke-width="1" opacity="1" d="M 228.5 206 L 229.5 208 L 228.5 206 Z " /><path fill="rgb(69,68,67)" stroke="rgb(69,68,67)" stroke-width="1" opacity="1" d="M 160.5 207 L 159.5 209 L 160.5 207 Z " /><path fill="rgb(69,68,67)" stroke="rgb(69,68,67)" stroke-width="1" opacity="1" d="M 207.5 207 L 208.5 209 L 207.5 207 Z " /><path fill="rgb(69,68,67)" stroke="rgb(69,68,67)" stroke-width="1" opacity="1" d="M 84.5 210 L 82.5 213 L 84.5 210 Z " /><path fill="rgb(69,68,67)" stroke="rgb(69,68,67)" stroke-width="1" opacity="1" d="M 267.5 210 L 269.5 213 L 267.5 210 Z " /><path fill="rgb(69,68,67)" stroke="rgb(69,68,67)" stroke-width="1" opacity="1" d="M 80.5 215 L 79.5 217 L 80.5 215 Z " /><path fill="rgb(69,68,67)" stroke="rgb(69,68,67)" stroke-width="1" opacity="1" d="M 152.5 215 L 151.5 217 L 152.5 215 Z " /><path fill="rgb(69,68,67)" stroke="rgb(69,68,67)" stroke-width="1" opacity="1" d="M 215.5 215 L 216.5 217 L 215.5 215 Z " /><path fill="rgb(69,68,67)" stroke="rgb(69,68,67)" stroke-width="1" opacity="1" d="M 271.5 215 L 272.5 217 L 271.5 215 Z " /><path fill="rgb(69,68,67)" stroke="rgb(69,68,67)" stroke-width="1" opacity="1" d="M 407.5 216 L 408.5 218 L 407.5 216 Z " /><path fill="rgb(69,68,67)" stroke="rgb(69,68,67)" stroke-width="1" opacity="1" d="M 59.5 218 L 58.5 220 L 59.5 218 Z " /><path fill="rgb(69,68,67)" stroke="rgb(69,68,67)" stroke-width="1" opacity="1" d="M 150.5 218 L 149.5 220 L 150.5 218 Z " /><path fill="rgb(69,68,67)" stroke="rgb(69,68,67)" stroke-width="1" opacity="1" d="M 217.5 218 L 218.5 220 L 217.5 218 Z " /><path fill="rgb(69,68,67)" stroke="rgb(69,68,67)" stroke-width="1" opacity="1" d="M 77.5 219 L 76.5 221 L 77.5 219 Z " /><path fill="rgb(69,68,67)" stroke="rgb(69,68,67)" stroke-width="1" opacity="1" d="M 273.5 219 L 240.5 253 L 273.5 219 Z " /><path fill="rgb(69,68,67)" stroke="rgb(69,68,67)" stroke-width="1" opacity="1" d="M 416.5 223 L 421.5 229 L 416.5 223 Z " /><path fill="rgb(69,68,67)" stroke="rgb(69,68,67)" stroke-width="1" opacity="1" d="M 315.5 230 L 316.5 232 L 315.5 230 Z " /><path fill="rgb(69,68,67)" stroke="rgb(69,68,67)" stroke-width="1" opacity="1" d="M 423.5 231 L 424.5 233 L 423.5 231 Z " /><path fill="rgb(69,68,67)" stroke="rgb(69,68,67)" stroke-width="1" opacity="1" d="M 128.5 232 L 129 235.5 L 128 235.5 L 128.5 232 Z " /><path fill="rgb(69,68,67)" stroke="rgb(69,68,67)" stroke-width="1" opacity="1" d="M 144.5 232 L 145 235.5 L 144 235.5 L 144.5 232 Z " /><path fill="rgb(69,68,67)" stroke="rgb(69,68,67)" stroke-width="1" opacity="1" d="M 178.5 232 L 181 232.5 L 178.5 233 L 178.5 232 Z " /><path fill="rgb(69,68,67)" stroke="rgb(69,68,67)" stroke-width="1" opacity="1" d="M 187.5 232 L 190 232.5 L 187.5 233 L 187.5 232 Z " /><path fill="rgb(69,68,67)" stroke="rgb(69,68,67)" stroke-width="1" opacity="1" d="M 223.5 232 L 224 235.5 L 223 235.5 L 223.5 232 Z " /><path fill="rgb(69,68,67)" stroke="rgb(69,68,67)" stroke-width="1" opacity="1" d="M 239.5 232 L 240 236.5 L 239 236.5 L 239.5 232 Z " /><path fill="rgb(69,68,67)" stroke="rgb(69,68,67)" stroke-width="1" opacity="1" d="M 320.5 235 L 321.5 237 L 320.5 235 Z " /><path fill="rgb(69,68,67)" stroke="rgb(69,68,67)" stroke-width="1" opacity="1" d="M 168.5 237 L 165.5 241 L 168.5 237 Z " /><path fill="rgb(69,68,67)" stroke="rgb(69,68,67)" stroke-width="1" opacity="1" d="M 199.5 237 L 202.5 241 L 199.5 237 Z " /><path fill="rgb(69,68,67)" stroke="rgb(69,68,67)" stroke-width="1" opacity="1" d="M 379.5 239 L 383.5 244 L 379.5 239 Z " /><path fill="rgb(69,68,67)" stroke="rgb(69,68,67)" stroke-width="1" opacity="1" d="M 273.5 241 L 233.5 282 L 273.5 241 Z " /><path fill="rgb(69,68,67)" stroke="rgb(69,68,67)" stroke-width="1" opacity="1" d="M 179.5 249 L 177.5 252 L 179.5 249 Z " /><path fill="rgb(69,68,67)" stroke="rgb(69,68,67)" stroke-width="1" opacity="1" d="M 188.5 249 L 190.5 252 L 188.5 249 Z " /><path fill="rgb(69,68,67)" stroke="rgb(69,68,67)" stroke-width="1" opacity="1" d="M 143.5 250 L 144 253.5 L 143 253.5 L 143.5 250 Z " /><path fill="rgb(69,68,67)" stroke="rgb(69,68,67)" stroke-width="1" opacity="1" d="M 160.5 250 L 161 252.5 L 160 252.5 L 160.5 250 Z " /><path fill="rgb(69,68,67)" stroke="rgb(69,68,67)" stroke-width="1" opacity="1" d="M 207.5 250 L 208 252.5 L 207 252.5 L 207.5 250 Z " /><path fill="rgb(69,68,67)" stroke="rgb(69,68,67)" stroke-width="1" opacity="1" d="M 276.5 252 L 277 254.5 L 276 254.5 L 276.5 252 Z " /><path fill="rgb(69,68,67)" stroke="rgb(69,68,67)" stroke-width="1" opacity="1" d="M 292.5 252 L 293 254.5 L 292 254.5 L 292.5 252 Z " /><path fill="rgb(69,68,67)" stroke="rgb(69,68,67)" stroke-width="1" opacity="1" d="M 160.5 259 L 161 261.5 L 160 261.5 L 160.5 259 Z " /><path fill="rgb(69,68,67)" stroke="rgb(69,68,67)" stroke-width="1" opacity="1" d="M 293.5 259 L 294 261.5 L 293 261.5 L 293.5 259 Z " /><path fill="rgb(69,68,67)" stroke="rgb(69,68,67)" stroke-width="1" opacity="1" d="M 177.5 260 L 179.5 263 L 177.5 260 Z " /><path fill="rgb(69,68,67)" stroke="rgb(69,68,67)" stroke-width="1" opacity="1" d="M 391.5 260 L 392 262.5 L 391 262.5 L 391.5 260 Z " /><path fill="rgb(69,68,67)" stroke="rgb(69,68,67)" stroke-width="1" opacity="1" d="M 277.5 263 L 246.5 295 L 277.5 263 Z " /><path fill="rgb(69,68,67)" stroke="rgb(69,68,67)" stroke-width="1" opacity="1" d="M 25.5 264 L 26 266.5 L 25 266.5 L 25.5 264 Z " /><path fill="rgb(69,68,67)" stroke="rgb(69,68,67)" stroke-width="1" opacity="1" d="M 216.5 264 L 220 264.5 L 216.5 265 L 216.5 264 Z " /><path fill="rgb(69,68,67)" stroke="rgb(69,68,67)" stroke-width="1" opacity="1" d="M 41.5 267 L 42 270.5 L 41 270.5 L 41.5 267 Z " /><path fill="rgb(69,68,67)" stroke="rgb(69,68,67)" stroke-width="1" opacity="1" d="M 57.5 267 L 58 269.5 L 57 269.5 L 57.5 267 Z " /><path fill="rgb(69,68,67)" stroke="rgb(69,68,67)" stroke-width="1" opacity="1" d="M 294.5 267 L 295 270.5 L 294 270.5 L 294.5 267 Z " /><path fill="rgb(69,68,67)" stroke="rgb(69,68,67)" stroke-width="1" opacity="1" d="M 137.5 268 L 136.5 270 L 137.5 268 Z " /><path fill="rgb(69,68,67)" stroke="rgb(69,68,67)" stroke-width="1" opacity="1" d="M 203.5 269 L 202.5 271 L 203.5 269 Z " /><path fill="rgb(69,68,67)" stroke="rgb(69,68,67)" stroke-width="1" opacity="1" d="M 391.5 269 L 392 271.5 L 391 271.5 L 391.5 269 Z " /><path fill="rgb(69,68,67)" stroke="rgb(69,68,67)" stroke-width="1" opacity="1" d="M 135.5 271 L 134.5 273 L 135.5 271 Z " /><path fill="rgb(69,68,67)" stroke="rgb(69,68,67)" stroke-width="1" opacity="1" d="M 165.5 271 L 168.5 275 L 165.5 271 Z " /><path fill="rgb(69,68,67)" stroke="rgb(69,68,67)" stroke-width="1" opacity="1" d="M 200.5 271 L 197.5 275 L 200.5 271 Z " /><path fill="rgb(69,68,67)" stroke="rgb(69,68,67)" stroke-width="1" opacity="1" d="M 24.5 272 L 25 276.5 L 24 276.5 L 24.5 272 Z " /><path fill="rgb(69,68,67)" stroke="rgb(69,68,67)" stroke-width="1" opacity="1" d="M 56.5 274 L 57 277.5 L 56 277.5 L 56.5 274 Z " /><path fill="rgb(69,68,67)" stroke="rgb(69,68,67)" stroke-width="1" opacity="1" d="M 133.5 274 L 132.5 276 L 133.5 274 Z " /><path fill="rgb(69,68,67)" stroke="rgb(69,68,67)" stroke-width="1" opacity="1" d="M 40.5 276 L 41 281.5 L 40 281.5 L 40.5 276 Z " /><path fill="rgb(69,68,67)" stroke="rgb(69,68,67)" stroke-width="1" opacity="1" d="M 131.5 277 L 130.5 279 L 131.5 277 Z " /><path fill="rgb(69,68,67)" stroke="rgb(69,68,67)" stroke-width="1" opacity="1" d="M 194.5 277 L 191.5 281 L 194.5 277 Z " /><path fill="rgb(69,68,67)" stroke="rgb(69,68,67)" stroke-width="1" opacity="1" d="M 295.5 278 L 296 285.5 L 295 285.5 L 295.5 278 Z " /><path fill="rgb(69,68,67)" stroke="rgb(69,68,67)" stroke-width="1" opacity="1" d="M 178.5 279 L 181 279.5 L 178.5 280 L 178.5 279 Z " /><path fill="rgb(69,68,67)" stroke="rgb(69,68,67)" stroke-width="1" opacity="1" d="M 112.5 283 L 113 285.5 L 112 285.5 L 112.5 283 Z " /><path fill="rgb(69,68,67)" stroke="rgb(69,68,67)" stroke-width="1" opacity="1" d="M 128.5 283 L 129 285.5 L 128 285.5 L 128.5 283 Z " /><path fill="rgb(69,68,67)" stroke="rgb(69,68,67)" stroke-width="1" opacity="1" d="M 278.5 284 L 264.5 299 L 278.5 284 Z " /><path fill="rgb(69,68,67)" stroke="rgb(69,68,67)" stroke-width="1" opacity="1" d="M 208.5 285 L 205.5 289 L 208.5 285 Z " /><path fill="rgb(69,68,67)" stroke="rgb(69,68,67)" stroke-width="1" opacity="1" d="M 328.5 288 L 329 293.5 L 328 293.5 L 328.5 288 Z " /><path fill="rgb(69,68,67)" stroke="rgb(69,68,67)" stroke-width="1" opacity="1" d="M 112.5 293 L 113 295.5 L 112 295.5 L 112.5 293 Z " /><path fill="rgb(69,68,67)" stroke="rgb(69,68,67)" stroke-width="1" opacity="1" d="M 40.5 294 L 41 299.5 L 40 299.5 L 40.5 294 Z " /><path fill="rgb(69,68,67)" stroke="rgb(69,68,67)" stroke-width="1" opacity="1" d="M 184.5 297 L 185 301.5 L 184 301.5 L 184.5 297 Z " /><path fill="rgb(69,68,67)" stroke="rgb(69,68,67)" stroke-width="1" opacity="1" d="M 56.5 298 L 57 301.5 L 56 301.5 L 56.5 298 Z " /><path fill="rgb(69,68,67)" stroke="rgb(69,68,67)" stroke-width="1" opacity="1" d="M 24.5 299 L 25 303.5 L 24 303.5 L 24.5 299 Z " /><path fill="rgb(69,68,67)" stroke="rgb(69,68,67)" stroke-width="1" opacity="1" d="M 131.5 301 L 132.5 303 L 131.5 301 Z " /><path fill="rgb(69,68,67)" stroke="rgb(69,68,67)" stroke-width="1" opacity="1" d="M 41.5 305 L 42 308.5 L 41 308.5 L 41.5 305 Z " /><path fill="rgb(69,68,67)" stroke="rgb(69,68,67)" stroke-width="1" opacity="1" d="M 57.5 306 L 58 308.5 L 57 308.5 L 57.5 306 Z " /><path fill="rgb(69,68,67)" stroke="rgb(69,68,67)" stroke-width="1" opacity="1" d="M 137.5 307 L 138.5 309 L 137.5 307 Z " /><path fill="rgb(69,68,67)" stroke="rgb(69,68,67)" stroke-width="1" opacity="1" d="M 263.5 307 L 264 310.5 L 263 310.5 L 263.5 307 Z " /><path fill="rgb(69,68,67)" stroke="rgb(69,68,67)" stroke-width="1" opacity="1" d="M 25.5 309 L 26 311.5 L 25 311.5 L 25.5 309 Z " /><path fill="rgb(69,68,67)" stroke="rgb(69,68,67)" stroke-width="1" opacity="1" d="M 145.5 311 L 148 311.5 L 145.5 312 L 145.5 311 Z " /><path fill="rgb(69,68,67)" stroke="rgb(69,68,67)" stroke-width="1" opacity="1" d="M 159.5 311 L 163 311.5 L 159.5 312 L 159.5 311 Z " /><path fill="rgb(69,68,67)" stroke="rgb(69,68,67)" stroke-width="1" opacity="1" d="M 120.5 313 L 126.5 320 L 120.5 313 Z " /><path fill="rgb(69,68,67)" stroke="rgb(69,68,67)" stroke-width="1" opacity="1" d="M 205.5 319 L 208.5 323 L 205.5 319 Z " /><path fill="rgb(69,68,67)" stroke="rgb(69,68,67)" stroke-width="1" opacity="1" d="M 242.5 319 L 239.5 323 L 242.5 319 Z " /><path fill="rgb(69,68,67)" stroke="rgb(69,68,67)" stroke-width="1" opacity="1" d="M 144.5 327 L 147 327.5 L 144.5 328 L 144.5 327 Z " /><path fill="rgb(69,68,67)" stroke="rgb(69,68,67)" stroke-width="1" opacity="1" d="M 159.5 327 L 163 327.5 L 159.5 328 L 159.5 327 Z " /><path fill="rgb(69,68,67)" stroke="rgb(69,68,67)" stroke-width="1" opacity="1" d="M 192.5 328 L 194.5 331 L 192.5 328 Z " /><path fill="rgb(69,68,67)" stroke="rgb(69,68,67)" stroke-width="1" opacity="1" d="M 255.5 328 L 254.5 330 L 255.5 328 Z " /><path fill="rgb(69,68,67)" stroke="rgb(69,68,67)" stroke-width="1" opacity="1" d="M 250.5 333 L 248.5 336 L 250.5 333 Z " /><path fill="rgb(69,68,67)" stroke="rgb(69,68,67)" stroke-width="1" opacity="1" d="M 198.5 334 L 199.5 336 L 198.5 334 Z " /><path fill="rgb(69,68,67)" stroke="rgb(69,68,67)" stroke-width="1" opacity="1" d="M 343.5 337 L 344.5 339 L 343.5 337 Z " /><path fill="rgb(69,68,67)" stroke="rgb(69,68,67)" stroke-width="1" opacity="1" d="M 455.5 342 L 456 344.5 L 455 344.5 L 455.5 342 Z " /><path fill="rgb(69,68,67)" stroke="rgb(69,68,67)" stroke-width="1" opacity="1" d="M 217.5 343 L 220 343.5 L 217.5 344 L 217.5 343 Z " /><path fill="rgb(69,68,67)" stroke="rgb(69,68,67)" stroke-width="1" opacity="1" d="M 227.5 343 L 231 343.5 L 227.5 344 L 227.5 343 Z " /><path fill="rgb(69,68,67)" stroke="rgb(69,68,67)" stroke-width="1" opacity="1" d="M 131.5 347 L 130.5 349 L 131.5 347 Z " /><path fill="rgb(69,68,67)" stroke="rgb(69,68,67)" stroke-width="1" opacity="1" d="M 156.5 347 L 157.5 349 L 156.5 347 Z " /><path fill="rgb(69,68,67)" stroke="rgb(69,68,67)" stroke-width="1" opacity="1" d="M 124.5 354 L 123.5 356 L 124.5 354 Z " /><path fill="rgb(69,68,67)" stroke="rgb(69,68,67)" stroke-width="1" opacity="1" d="M 163.5 354 L 164.5 356 L 163.5 354 Z " /><path fill="rgb(69,68,67)" stroke="rgb(69,68,67)" stroke-width="1" opacity="1" d="M 76.5 355 L 77.5 357 L 76.5 355 Z " /><path fill="rgb(69,68,67)" stroke="rgb(69,68,67)" stroke-width="1" opacity="1" d="M 79.5 359 L 80.5 361 L 79.5 359 Z " /><path fill="rgb(69,68,67)" stroke="rgb(69,68,67)" stroke-width="1" opacity="1" d="M 272.5 359 L 271.5 361 L 272.5 359 Z " /><path fill="rgb(69,68,67)" stroke="rgb(69,68,67)" stroke-width="1" opacity="1" d="M 455.5 359 L 456 361.5 L 455 361.5 L 455.5 359 Z " /><path fill="rgb(69,68,67)" stroke="rgb(69,68,67)" stroke-width="1" opacity="1" d="M 139.5 361 L 137.5 364 L 139.5 361 Z " /><path fill="rgb(69,68,67)" stroke="rgb(69,68,67)" stroke-width="1" opacity="1" d="M 148.5 361 L 150.5 364 L 148.5 361 Z " /><path fill="rgb(69,68,67)" stroke="rgb(69,68,67)" stroke-width="1" opacity="1" d="M 82.5 363 L 84.5 366 L 82.5 363 Z " /><path fill="rgb(69,68,67)" stroke="rgb(69,68,67)" stroke-width="1" opacity="1" d="M 268.5 364 L 267.5 366 L 268.5 364 Z " /><path fill="rgb(69,68,67)" stroke="rgb(69,68,67)" stroke-width="1" opacity="1" d="M 296.5 364 L 297 366.5 L 296 366.5 L 296.5 364 Z " /><path fill="rgb(69,68,67)" stroke="rgb(69,68,67)" stroke-width="1" opacity="1" d="M 66.5 368 L 67.5 370 L 66.5 368 Z " /><path fill="rgb(69,68,67)" stroke="rgb(69,68,67)" stroke-width="1" opacity="1" d="M 47.5 369 L 48.5 371 L 47.5 369 Z " /><path fill="rgb(69,68,67)" stroke="rgb(69,68,67)" stroke-width="1" opacity="1" d="M 69.5 372 L 71.5 375 L 69.5 372 Z " /><path fill="rgb(69,68,67)" stroke="rgb(69,68,67)" stroke-width="1" opacity="1" d="M 90.5 372 L 91.5 374 L 90.5 372 Z " /><path fill="rgb(69,68,67)" stroke="rgb(69,68,67)" stroke-width="1" opacity="1" d="M 137.5 372 L 139.5 375 L 137.5 372 Z " /><path fill="rgb(69,68,67)" stroke="rgb(69,68,67)" stroke-width="1" opacity="1" d="M 150.5 372 L 148.5 375 L 150.5 372 Z " /><path fill="rgb(69,68,67)" stroke="rgb(69,68,67)" stroke-width="1" opacity="1" d="M 281.5 373 L 280.5 375 L 281.5 373 Z " /><path fill="rgb(69,68,67)" stroke="rgb(69,68,67)" stroke-width="1" opacity="1" d="M 51.5 375 L 52.5 377 L 51.5 375 Z " /><path fill="rgb(69,68,67)" stroke="rgb(69,68,67)" stroke-width="1" opacity="1" d="M 54.5 379 L 55.5 381 L 54.5 379 Z " /><path fill="rgb(69,68,67)" stroke="rgb(69,68,67)" stroke-width="1" opacity="1" d="M 75.5 379 L 84.5 389 L 75.5 379 Z " /><path fill="rgb(69,68,67)" stroke="rgb(69,68,67)" stroke-width="1" opacity="1" d="M 98.5 379 L 100.5 382 L 98.5 379 Z " /><path fill="rgb(69,68,67)" stroke="rgb(69,68,67)" stroke-width="1" opacity="1" d="M 253.5 379 L 252.5 381 L 253.5 379 Z " /><path fill="rgb(69,68,67)" stroke="rgb(69,68,67)" stroke-width="1" opacity="1" d="M 276.5 379 L 267.5 389 L 276.5 379 Z " /><path fill="rgb(69,68,67)" stroke="rgb(69,68,67)" stroke-width="1" opacity="1" d="M 123.5 380 L 124.5 382 L 123.5 380 Z " /><path fill="rgb(69,68,67)" stroke="rgb(69,68,67)" stroke-width="1" opacity="1" d="M 164.5 380 L 163.5 382 L 164.5 380 Z " /><path fill="rgb(69,68,67)" stroke="rgb(69,68,67)" stroke-width="1" opacity="1" d="M 57.5 383 L 59.5 386 L 57.5 383 Z " /><path fill="rgb(69,68,67)" stroke="rgb(69,68,67)" stroke-width="1" opacity="1" d="M 103.5 383 L 104.5 385 L 103.5 383 Z " /><path fill="rgb(69,68,67)" stroke="rgb(69,68,67)" stroke-width="1" opacity="1" d="M 248.5 383 L 247.5 385 L 248.5 383 Z " /><path fill="rgb(69,68,67)" stroke="rgb(69,68,67)" stroke-width="1" opacity="1" d="M 107.5 386 L 108.5 388 L 107.5 386 Z " /><path fill="rgb(69,68,67)" stroke="rgb(69,68,67)" stroke-width="1" opacity="1" d="M 130.5 387 L 131.5 389 L 130.5 387 Z " /><path fill="rgb(69,68,67)" stroke="rgb(69,68,67)" stroke-width="1" opacity="1" d="M 157.5 387 L 156.5 389 L 157.5 387 Z " /><path fill="rgb(69,68,67)" stroke="rgb(69,68,67)" stroke-width="1" opacity="1" d="M 63.5 390 L 73.5 401 L 63.5 390 Z " /><path fill="rgb(69,68,67)" stroke="rgb(69,68,67)" stroke-width="1" opacity="1" d="M 306.5 390 L 307.5 392 L 306.5 390 Z " /><path fill="rgb(69,68,67)" stroke="rgb(69,68,67)" stroke-width="1" opacity="1" d="M 287.5 391 L 278.5 401 L 287.5 391 Z " /><path fill="rgb(69,68,67)" stroke="rgb(69,68,67)" stroke-width="1" opacity="1" d="M 89.5 392 L 91.5 395 L 89.5 392 Z " /><path fill="rgb(69,68,67)" stroke="rgb(69,68,67)" stroke-width="1" opacity="1" d="M 262.5 392 L 260.5 395 L 262.5 392 Z " /><path fill="rgb(69,68,67)" stroke="rgb(69,68,67)" stroke-width="1" opacity="1" d="M 94.5 396 L 95.5 398 L 94.5 396 Z " /><path fill="rgb(69,68,67)" stroke="rgb(69,68,67)" stroke-width="1" opacity="1" d="M 257.5 396 L 256.5 398 L 257.5 396 Z " /><path fill="rgb(69,68,67)" stroke="rgb(69,68,67)" stroke-width="1" opacity="1" d="M 311.5 396 L 322.5 408 L 311.5 396 Z " /><path fill="rgb(69,68,67)" stroke="rgb(69,68,67)" stroke-width="1" opacity="1" d="M 78.5 404 L 80.5 407 L 78.5 404 Z " /><path fill="rgb(69,68,67)" stroke="rgb(69,68,67)" stroke-width="1" opacity="1" d="M 273.5 404 L 271.5 407 L 273.5 404 Z " /><path fill="rgb(69,68,67)" stroke="rgb(69,68,67)" stroke-width="1" opacity="1" d="M 155.5 406 L 158 406.5 L 155.5 407 L 155.5 406 Z " /><path fill="rgb(69,68,67)" stroke="rgb(69,68,67)" stroke-width="1" opacity="1" d="M 162.5 407 L 167 407.5 L 162.5 408 L 162.5 407 Z " /><path fill="rgb(69,68,67)" stroke="rgb(69,68,67)" stroke-width="1" opacity="1" d="M 185.5 407 L 189 407.5 L 185.5 408 L 185.5 407 Z " /><path fill="rgb(69,68,67)" stroke="rgb(69,68,67)" stroke-width="1" opacity="1" d="M 83.5 408 L 84.5 410 L 83.5 408 Z " /><path fill="rgb(69,68,67)" stroke="rgb(69,68,67)" stroke-width="1" opacity="1" d="M 268.5 408 L 267.5 410 L 268.5 408 Z " /><path fill="rgb(69,68,67)" stroke="rgb(69,68,67)" stroke-width="1" opacity="1" d="M 87.5 411 L 88.5 413 L 87.5 411 Z " /><path fill="rgb(69,68,67)" stroke="rgb(69,68,67)" stroke-width="1" opacity="1" d="M 264.5 411 L 263.5 413 L 264.5 411 Z " /><path fill="rgb(69,68,67)" stroke="rgb(69,68,67)" stroke-width="1" opacity="1" d="M 261.5 413 L 260.5 415 L 261.5 413 Z " /><path fill="rgb(69,68,67)" stroke="rgb(69,68,67)" stroke-width="1" opacity="1" d="M 93.5 415 L 94.5 417 L 93.5 415 Z " /><path fill="rgb(69,68,67)" stroke="rgb(69,68,67)" stroke-width="1" opacity="1" d="M 155.5 422 L 159 422.5 L 155.5 423 L 155.5 422 Z " /><path fill="rgb(69,68,67)" stroke="rgb(69,68,67)" stroke-width="1" opacity="1" d="M 193.5 422 L 196 422.5 L 193.5 423 L 193.5 422 Z " /><path fill="rgb(69,68,67)" stroke="rgb(69,68,67)" stroke-width="1" opacity="1" d="M 164.5 423 L 170 423.5 L 164.5 424 L 164.5 423 Z " /><path fill="rgb(69,68,67)" stroke="rgb(69,68,67)" stroke-width="1" opacity="1" d="M 182.5 423 L 188 423.5 L 182.5 424 L 182.5 423 Z " /><path fill="rgb(69,68,67)" stroke="rgb(69,68,67)" stroke-width="1" opacity="1" d="M 152.5 438 L 156 438.5 L 152.5 439 L 152.5 438 Z " /><path fill="rgb(69,68,67)" stroke="rgb(69,68,67)" stroke-width="1" opacity="1" d="M 196.5 438 L 199 438.5 L 196.5 439 L 196.5 438 Z " /><path fill="rgb(69,68,67)" stroke="rgb(69,68,67)" stroke-width="1" opacity="1" d="M 160.5 439 L 165 439.5 L 160.5 440 L 160.5 439 Z " /><path fill="rgb(69,68,67)" stroke="rgb(69,68,67)" stroke-width="1" opacity="1" d="M 187.5 439 L 192 439.5 L 187.5 440 L 187.5 439 Z " /><path fill="rgb(69,68,67)" stroke="rgb(69,68,67)" stroke-width="1" opacity="1" d="M 43.5 457 L 41.5 460 L 43.5 457 Z " /><path fill="rgb(69,68,67)" stroke="rgb(69,68,67)" stroke-width="1" opacity="1" d="M 52.5 457 L 54.5 460 L 52.5 457 Z " /><path fill="rgb(69,68,67)" stroke="rgb(69,68,67)" stroke-width="1" opacity="1" d="M 41.5 468 L 43.5 471 L 41.5 468 Z " /><path fill="rgb(69,68,67)" stroke="rgb(69,68,67)" stroke-width="1" opacity="1" d="M 54.5 468 L 52.5 471 L 54.5 468 Z " /><path fill="rgb(69,68,67)" stroke="rgb(69,68,67)" stroke-width="1" opacity="1" d="M 251.5 473 L 249.5 476 L 251.5 473 Z " /><path fill="rgb(69,68,67)" stroke="rgb(69,68,67)" stroke-width="1" opacity="1" d="M 260.5 473 L 262.5 476 L 260.5 473 Z " /><path fill="rgb(69,68,67)" stroke="rgb(69,68,67)" stroke-width="1" opacity="1" d="M 249.5 484 L 251.5 487 L 249.5 484 Z " /><path fill="rgb(69,68,67)" stroke="rgb(69,68,67)" stroke-width="1" opacity="1" d="M 262.5 484 L 260.5 487 L 262.5 484 Z " /><path fill="rgb(0,0,0)" stroke="rgb(0,0,0)" stroke-width="1" opacity="1" d="M 296 8 L 312 8 L 312 24.5 L 326.5 31 L 338.5 20 L 348 30.5 L 337 42.5 L 343.5 56 L 360 56 L 360 72 L 343.5 72 L 342 73.5 L 342 76.5 L 337 86.5 L 348 98.5 L 337.5 108 L 325.5 97 L 312 103.5 L 312 120 L 296 120 L 296 103.5 L 294.5 102 L 291.5 102 L 281.5 97 L 269.5 108 L 260 97.5 L 271 85.5 L 264.5 72 L 248 72 L 248 56 L 264.5 56 L 266 54.5 L 266 51.5 L 271 41.5 L 260 29.5 L 270.5 20 L 282.5 31 L 296 24.5 L 296 8 Z M 299 40 L 289 45 Q 283 50 280 59 Q 278 73 285 80 Q 290 85 299 88 Q 313 90 320 83 Q 325 78 328 70 Q 330 55 323 49 Q 317 38 299 40 Z " /><path fill="rgb(0,0,0)" stroke="rgb(0,0,0)" stroke-width="1" opacity="1" d="M 466.5 24 L 479.5 26 Q 489 29.5 495 36.5 Q 503.5 45 504 61.5 L 501 74.5 L 497 81.5 L 416.5 162 L 407.5 155 L 375 187.5 L 375 189 Q 393.4 191.7 408.5 199 Q 425 207.5 436 221.5 Q 445.2 232.8 450 248.5 L 470 334.5 L 472 354.5 L 471 355.5 L 470 369.5 L 466 381.5 L 453 406.5 L 453 409 Q 462.1 410.5 467 417.5 L 470 422.5 L 472 430.5 L 472 504 L 296 504 L 296 430.5 L 299 420.5 L 304.5 414 Q 306.8 414.8 306 412.5 L 296.5 404 Q 274.1 429.1 240.5 443 L 220.5 450 L 202.5 454 L 172.5 456 L 171.5 455 L 157.5 455 L 156.5 454 L 139.5 452 L 104.5 440 Q 71 423.5 48 396.5 Q 29.8 375.7 19 347.5 L 14 332.5 L 10 314.5 L 8 284.5 L 9 283.5 L 9 269.5 L 10 268.5 L 10 261.5 L 12 251.5 L 24 216.5 Q 40.2 182.7 67.5 160 Q 88.3 141.8 116.5 131 L 144.5 123 L 156.5 122 L 157.5 121 L 179.5 120 L 180.5 121 L 194.5 121 L 195.5 122 L 202.5 122 L 212.5 124 L 238.5 132 L 265.5 146 Q 281.4 155.6 293.5 169 L 296.5 169 Q 297.8 166.8 302.5 168 L 320.5 173 L 373 119.5 L 366 111.5 L 446.5 31 L 453.5 27 L 466.5 24 Z M 463 40 L 454 45 L 387 113 L 417 141 L 483 75 L 488 66 Q 490 54 485 49 Q 479 39 463 40 Z M 384 131 L 371 145 L 385 157 L 397 144 L 384 131 Z M 161 136 L 135 141 L 109 151 Q 89 161 74 175 Q 52 194 39 221 L 29 247 L 24 273 L 24 304 L 29 330 Q 40 366 63 391 Q 79 408 100 420 Q 115 429 135 435 L 161 440 L 192 440 L 193 439 L 210 437 L 230 431 Q 265 417 288 392 L 282 373 L 280 376 Q 260 400 230 413 L 205 421 L 194 422 L 193 423 L 183 423 L 182 424 L 171 424 L 170 423 L 153 422 L 128 415 Q 105 406 89 392 Q 64 371 50 340 L 43 317 L 42 306 L 41 305 L 41 295 L 40 294 L 41 272 L 46 248 Q 55 220 72 201 Q 93 176 125 162 L 148 155 L 159 154 L 160 153 L 169 153 L 170 152 L 194 153 L 223 160 L 246 171 L 273 192 Q 273 182 279 177 Q 259 156 230 145 L 200 137 Q 193 139 192 136 L 161 136 Z M 360 155 L 306 209 L 306 210 L 313 211 L 325 217 L 373 168 L 360 155 Z M 163 168 L 143 172 L 129 177 Q 107 187 92 202 Q 75 218 65 241 L 60 255 L 56 275 L 56 302 L 57 303 L 58 314 L 63 331 Q 73 355 90 373 Q 105 388 127 398 L 143 404 L 163 408 L 189 408 L 190 407 L 202 406 L 216 402 L 239 391 L 261 374 L 273 360 L 280 349 L 280 285 L 279 284 L 264 300 L 264 302 Q 264 321 254 331 L 240 341 L 227 344 Q 207 344 198 334 L 187 319 L 175 325 L 159 328 L 142 327 L 129 321 L 117 309 L 112 293 L 113 281 L 115 275 L 126 258 L 128 252 L 128 237 L 130 226 L 140 206 L 154 193 L 170 186 L 181 184 L 199 186 L 219 196 Q 230 205 236 220 L 240 238 L 240 253 L 274 220 L 263 205 Q 245 185 219 175 L 202 170 L 191 169 L 190 168 L 163 168 Z M 296 184 L 294 185 L 288 192 L 289 201 L 292 202 L 307 186 L 306 184 L 296 184 Z M 177 200 Q 167 202 161 207 Q 151 214 146 226 L 144 233 L 144 250 Q 142 251 143 256 L 138 268 L 128 284 L 128 295 L 134 306 L 146 312 L 163 312 L 168 311 L 184 304 L 188 287 L 195 277 Q 205 265 224 264 L 224 233 Q 222 223 217 217 Q 210 207 199 202 Q 190 198 177 200 Z M 362 201 L 341 223 L 345 225 Q 363 230 378 238 L 386 247 L 390 255 L 392 264 L 390 278 L 353 351 L 341 334 L 332 312 L 329 299 L 329 289 L 328 288 L 328 250 L 322 237 Q 315 227 303 224 L 292 224 L 288 228 L 288 235 L 290 240 L 294 263 L 295 286 L 296 287 L 296 367 Q 300 385 311 397 L 323 408 L 436 408 L 452 376 L 456 362 L 456 343 L 435 252 Q 430 238 422 229 Q 412 216 396 210 L 362 201 Z M 341 240 L 344 255 L 344 296 L 347 309 L 352 319 L 376 271 Q 378 258 372 254 L 364 248 L 341 240 Z M 274 241 L 234 281 L 230 280 Q 215 278 209 285 Q 203 290 200 299 Q 198 313 205 320 Q 210 325 219 328 Q 233 330 240 323 Q 245 318 248 310 L 248 299 L 247 298 L 247 295 L 278 264 L 276 248 L 274 241 Z M 318 424 L 316 425 L 312 430 L 312 488 L 456 488 L 456 430 L 455 428 L 451 424 L 318 424 Z " /><path fill="rgb(0,0,0)" stroke="rgb(0,0,0)" stroke-width="1" opacity="1" d="M 30.5 72 Q 45.1 72.4 51 81.5 Q 55.8 87.2 56 97.5 L 53 107.5 L 46.5 115 Q 40.8 119.8 30.5 120 L 20.5 117 L 13 110.5 Q 8.2 104.8 8 94.5 L 11 84.5 L 17.5 77 L 22.5 74 L 30.5 72 Z M 30 88 L 28 89 L 24 94 L 25 101 L 30 104 L 37 103 L 40 99 L 39 92 Q 37 87 30 88 Z " /><path fill="rgb(0,0,0)" stroke="rgb(0,0,0)" stroke-width="1" opacity="1" d="M 181.5 232 Q 197.8 232.2 204 242.5 L 208 256 L 192.5 256 L 192 253.5 L 188.5 249 L 181.5 248 L 177 251.5 L 176 258.5 L 179.5 263 L 184 264 L 184 279.5 L 181.5 280 Q 169.5 278 164 269.5 Q 160 263.5 160 253.5 Q 162 241.5 170.5 236 L 181.5 232 Z " /><path fill="rgb(0,0,0)" stroke="rgb(0,0,0)" stroke-width="1" opacity="1" d="M 72 280 L 88 280 L 88 296 L 72 296 L 72 280 Z " /><path fill="rgb(0,0,0)" stroke="rgb(0,0,0)" stroke-width="1" opacity="1" d="M 141.5 344 Q 156.9 344.1 163 353.5 Q 168.1 359.4 168 370.5 Q 166 381.5 158.5 387 Q 152.6 392.1 141.5 392 Q 130.5 390 125 382.5 Q 119.9 376.6 120 365.5 Q 122 354.5 129.5 349 L 141.5 344 Z M 142 360 L 140 361 L 136 366 L 137 373 L 142 376 L 149 375 L 152 371 L 151 364 Q 149 359 142 360 Z " /><path fill="rgb(0,0,0)" stroke="rgb(0,0,0)" stroke-width="1" opacity="1" d="M 184 352 L 200 352 L 200 368 L 184 368 L 184 352 Z " /><path fill="rgb(0,0,0)" stroke="rgb(0,0,0)" stroke-width="1" opacity="1" d="M 40 424 L 56 424 L 56 441.5 L 66 448.5 L 70.5 456 L 88 456 L 88 472 L 70.5 472 L 69 473.5 L 63.5 482 L 56 486.5 L 56 504 L 40 504 L 40 486.5 L 38.5 485 L 29 478.5 L 25.5 472 L 8 472 L 8 456 L 25.5 456 L 27 454.5 Q 28.5 448 33.5 445 L 40 441.5 L 40 424 Z M 46 456 L 44 457 L 40 462 L 41 469 L 46 472 L 53 471 L 56 467 L 55 460 Q 53 455 46 456 Z " /><path fill="rgb(0,0,0)" stroke="rgb(0,0,0)" stroke-width="1" opacity="1" d="M 254.5 456 Q 269.1 456.4 275 465.5 Q 279.8 471.2 280 481.5 L 277 491.5 L 270.5 499 Q 264.8 503.8 254.5 504 L 244.5 501 L 237 494.5 Q 232.2 488.8 232 478.5 L 235 468.5 L 241.5 461 L 246.5 458 L 254.5 456 Z M 254 472 L 252 473 L 248 478 L 249 485 L 254 488 L 261 487 L 264 483 L 263 476 Q 261 471 254 472 Z " /><path fill="rgb(229,232,236)" stroke="rgb(229,232,236)" stroke-width="1" opacity="1" d="M 359.5 156 L 372 167.5 L 324.5 216 L 307 208.5 L 359.5 156 Z " /><path fill="rgb(229,232,236)" stroke="rgb(229,232,236)" stroke-width="1" opacity="1" d="M 273.5 242 Q 276.9 251.1 277 263.5 L 246 294.5 L 246 296.5 L 248 304.5 L 246 313.5 L 239.5 322 L 233.5 326 L 223.5 328 L 214.5 326 L 206 319.5 L 202 313.5 L 200 303.5 L 202 294.5 L 208.5 286 L 214.5 282 L 224.5 280 L 233.5 282 L 273.5 242 Z " /><path fill="rgb(252,173,110)" stroke="rgb(252,173,110)" stroke-width="1" opacity="1" d="M 301.5 40 L 311.5 41 Q 319.6 43.9 324 50.5 Q 328.4 56.1 328 66.5 Q 326 78.5 317.5 84 Q 311.9 88.4 301.5 88 Q 289.5 86 284 77.5 Q 279.6 71.9 280 61.5 Q 282 49.5 290.5 44 L 301.5 40 Z " /><path fill="rgb(252,173,110)" stroke="rgb(252,173,110)" stroke-width="1" opacity="1" d="M 30.5 88 Q 36.9 88.1 39 92.5 L 40 97.5 L 35.5 103 L 30.5 104 L 25 99.5 L 24 94.5 L 28.5 89 L 30.5 88 Z " /><path fill="rgb(252,173,110)" stroke="rgb(252,173,110)" stroke-width="1" opacity="1" d="M 180.5 200 L 187.5 200 L 199.5 203 Q 208.9 207.1 215 214.5 L 223 230.5 Q 221.8 235.2 224 236.5 L 224 264 Q 200.8 265.1 191 280.5 L 187 287.5 L 184 297.5 L 184 302.5 L 182.5 304 L 165.5 311 L 148.5 312 Q 138.3 310.3 133 303.5 Q 127.5 298 128 286.5 L 130 279.5 Q 138.4 270.4 143 257.5 Q 145.7 249.2 144 236.5 L 147 224.5 Q 151.1 215.1 158.5 209 L 168.5 203 L 180.5 200 Z M 179 232 L 169 237 Q 163 242 160 251 Q 158 265 165 272 Q 170 277 179 280 L 184 280 L 184 265 L 181 263 L 176 258 L 177 253 L 184 248 L 188 249 Q 191 250 191 255 L 193 256 L 208 256 L 208 251 L 203 241 Q 197 230 179 232 Z " /><path fill="rgb(252,173,110)" stroke="rgb(252,173,110)" stroke-width="1" opacity="1" d="M 412.5 220 L 413.5 222 L 412.5 220 Z " /><path fill="rgb(252,173,110)" stroke="rgb(252,173,110)" stroke-width="1" opacity="1" d="M 290.5 225 L 289.5 227 L 290.5 225 Z " /><path fill="rgb(252,173,110)" stroke="rgb(252,173,110)" stroke-width="1" opacity="1" d="M 317.5 232 L 319.5 235 L 317.5 232 Z " /><path fill="rgb(252,173,110)" stroke="rgb(252,173,110)" stroke-width="1" opacity="1" d="M 384.5 244 L 385.5 246 L 384.5 244 Z " /><path fill="rgb(252,173,110)" stroke="rgb(252,173,110)" stroke-width="1" opacity="1" d="M 294.5 264 L 295 266.5 L 294 266.5 L 294.5 264 Z " /><path fill="rgb(252,173,110)" stroke="rgb(252,173,110)" stroke-width="1" opacity="1" d="M 295.5 275 L 296 277.5 L 295 277.5 L 295.5 275 Z " /><path fill="rgb(252,173,110)" stroke="rgb(252,173,110)" stroke-width="1" opacity="1" d="M 455.5 345 L 456 347.5 L 455 347.5 L 455.5 345 Z " /><path fill="rgb(252,173,110)" stroke="rgb(252,173,110)" stroke-width="1" opacity="1" d="M 455.5 356 L 456 358.5 L 455 358.5 L 455.5 356 Z " /><path fill="rgb(252,173,110)" stroke="rgb(252,173,110)" stroke-width="1" opacity="1" d="M 142.5 360 Q 148.9 360.1 151 364.5 L 152 369.5 L 147.5 375 L 142.5 376 L 137 371.5 L 136 366.5 L 140.5 361 L 142.5 360 Z " /><path fill="rgb(252,173,110)" stroke="rgb(252,173,110)" stroke-width="1" opacity="1" d="M 296.5 361 L 297 363.5 L 296 363.5 L 296.5 361 Z " /><path fill="rgb(252,173,110)" stroke="rgb(252,173,110)" stroke-width="1" opacity="1" d="M 308.5 392 L 309.5 394 L 308.5 392 Z " /><path fill="rgb(252,173,110)" stroke="rgb(252,173,110)" stroke-width="1" opacity="1" d="M 318.5 424 L 449.5 424 L 454 426 L 456 430.5 L 456 488 L 312 488 L 312 430.5 L 314 426 L 318.5 424 Z " /><path fill="rgb(252,173,110)" stroke="rgb(252,173,110)" stroke-width="1" opacity="1" d="M 46.5 456 Q 52.9 456.1 55 460.5 L 56 465.5 L 51.5 471 L 46.5 472 L 41 467.5 L 40 462.5 L 44.5 457 L 46.5 456 Z " /><path fill="rgb(252,173,110)" stroke="rgb(252,173,110)" stroke-width="1" opacity="1" d="M 254.5 472 Q 260.9 472.1 263 476.5 L 264 481.5 L 259.5 487 L 254.5 488 L 249 483.5 L 248 478.5 L 252.5 473 L 254.5 472 Z " /><path fill="rgb(239,207,179)" stroke="rgb(239,207,179)" stroke-width="1" opacity="1" d="M 297.5 184 L 307 185.5 L 290.5 201 Q 287.5 199 288 193.5 L 291 187 L 297.5 184 Z " /><path fill="rgb(239,207,179)" stroke="rgb(239,207,179)" stroke-width="1" opacity="1" d="M 362.5 201 L 398.5 212 Q 412.5 218.5 422 229.5 Q 429.6 238.4 434 250.5 L 455 340.5 L 456 355.5 L 452 373.5 L 435 408 L 323.5 408 L 310 394.5 Q 300.8 384.2 297 368.5 Q 298.8 362.3 296 360.5 L 296 275.5 L 295 274.5 L 295 264.5 L 294 263.5 L 292 245.5 L 288 229.5 L 291.5 225 L 298.5 224 L 311.5 228 L 322 237.5 L 325 242.5 L 328 253.5 L 328 295.5 L 331 310.5 L 341 334.5 L 352 352 Q 354.7 353.1 354 350.5 L 389 281.5 Q 393.8 273.3 392 258.5 Q 388.5 245 378.5 238 L 369.5 233 L 341 222.5 L 362.5 201 Z " /><path fill="rgb(203,208,216)" stroke="rgb(203,208,216)" stroke-width="1" opacity="1" d="M 383.5 132 L 396 143.5 L 384.5 156 L 372 144.5 L 383.5 132 Z " /><path fill="rgb(203,208,216)" stroke="rgb(203,208,216)" stroke-width="1" opacity="1" d="M 169.5 136 L 182.5 136 L 183.5 137 L 201.5 138 L 230.5 146 Q 258.6 157.4 279 176.5 L 275 181.5 L 271.5 191 Q 251.7 169.8 221.5 159 L 203.5 154 L 191.5 153 L 190.5 152 L 161.5 152 L 133.5 158 L 110.5 168 Q 88.1 180.6 72 199.5 Q 55.1 218.6 46 245.5 L 40 273.5 L 40 302.5 L 44 323.5 L 55 351.5 Q 67.8 375.2 87.5 392 Q 109 411 140.5 420 L 161.5 424 L 190.5 424 L 211.5 420 L 237.5 410 Q 261.9 397.4 279 377.5 L 281.5 374 Q 283.1 383.9 288 390.5 Q 265.2 416.2 230.5 430 L 206.5 437 L 194.5 438 L 193.5 439 L 170.5 440 L 169.5 439 L 158.5 439 L 157.5 438 L 145.5 437 L 116.5 428 Q 83.9 413.6 62 388.5 Q 44.6 368.9 34 342.5 L 30 330.5 L 25 306.5 L 24 281.5 L 25 280.5 L 25 269.5 L 26 268.5 L 27 257.5 L 36 228.5 Q 50.4 195.9 75.5 174 Q 93.2 158.2 116.5 148 L 145.5 139 L 150.5 139 L 157.5 137 L 168.5 137 L 169.5 136 Z " /><path fill="rgb(203,208,216)" stroke="rgb(203,208,216)" stroke-width="1" opacity="1" d="M 210.5 284 L 209.5 286 L 210.5 284 Z " /><path fill="rgb(203,208,216)" stroke="rgb(203,208,216)" stroke-width="1" opacity="1" d="M 205.5 289 L 204.5 291 L 205.5 289 Z " /><path fill="rgb(203,208,216)" stroke="rgb(203,208,216)" stroke-width="1" opacity="1" d="M 204.5 317 L 205.5 319 L 204.5 317 Z " /><path fill="rgb(203,208,216)" stroke="rgb(203,208,216)" stroke-width="1" opacity="1" d="M 243.5 317 L 242.5 319 L 243.5 317 Z " /><path fill="rgb(203,208,216)" stroke="rgb(203,208,216)" stroke-width="1" opacity="1" d="M 209.5 322 L 210.5 324 L 209.5 322 Z " /><path fill="rgb(203,208,216)" stroke="rgb(203,208,216)" stroke-width="1" opacity="1" d="M 238.5 322 L 237.5 324 L 238.5 322 Z " /></svg>