<svg width="512" height="512" version="1.1" xmlns="http://www.w3.org/2000/svg" desc="Created with imagetracer.js version 1.2.6" ><path fill="rgb(230,197,121)" stroke="rgb(230,197,121)" stroke-width="1" opacity="1" d="M 195.5 104 L 196 141.5 L 195 141.5 L 195.5 104 Z " /><path fill="rgb(230,197,121)" stroke="rgb(230,197,121)" stroke-width="1" opacity="1" d="M 351.5 133 L 352.5 135 L 351.5 133 Z " /><path fill="rgb(230,197,121)" stroke="rgb(230,197,121)" stroke-width="1" opacity="1" d="M 299.5 137 L 300 189.5 L 299 189.5 L 299.5 137 Z " /><path fill="rgb(230,197,121)" stroke="rgb(230,197,121)" stroke-width="1" opacity="1" d="M 409.5 191 L 410.5 193 L 409.5 191 Z " /><path fill="rgb(230,197,121)" stroke="rgb(230,197,121)" stroke-width="1" opacity="1" d="M 454.5 242 L 455 246.5 L 454 246.5 L 454.5 242 Z " /><path fill="rgb(230,197,121)" stroke="rgb(230,197,121)" stroke-width="1" opacity="1" d="M 299.5 245 L 300 297.5 L 299 297.5 L 299.5 245 Z " /><path fill="rgb(230,197,121)" stroke="rgb(230,197,121)" stroke-width="1" opacity="1" d="M 226.5 251 L 227 257.5 L 226 257.5 L 226.5 251 Z " /><path fill="rgb(230,197,121)" stroke="rgb(230,197,121)" stroke-width="1" opacity="1" d="M 227.5 262 L 228 265.5 L 227 265.5 L 227.5 262 Z " /><path fill="rgb(230,197,121)" stroke="rgb(230,197,121)" stroke-width="1" opacity="1" d="M 228.5 270 L 229 272.5 L 228 272.5 L 228.5 270 Z " /><path fill="rgb(230,197,121)" stroke="rgb(230,197,121)" stroke-width="1" opacity="1" d="M 229.5 275 L 230 277.5 L 229 277.5 L 229.5 275 Z " /><path fill="rgb(230,197,121)" stroke="rgb(230,197,121)" stroke-width="1" opacity="1" d="M 242 318 L 244 318.5 L 242 319.5 L 242 318 Z " /><path fill="rgb(230,197,121)" stroke="rgb(230,197,121)" stroke-width="1" opacity="1" d="M 252.5 339 L 253.5 341 L 252.5 339 Z " /><path fill="rgb(230,197,121)" stroke="rgb(230,197,121)" stroke-width="1" opacity="1" d="M 255.5 344 Q 257.8 343.3 257 345.5 L 255.5 344 Z " /><path fill="rgb(230,197,121)" stroke="rgb(230,197,121)" stroke-width="1" opacity="1" d="M 272.5 344 L 273.5 346 L 272.5 344 Z " /><path fill="rgb(230,197,121)" stroke="rgb(230,197,121)" stroke-width="1" opacity="1" d="M 257.5 347 L 260 348.5 L 258.5 349 L 257.5 347 Z " /><path fill="rgb(230,197,121)" stroke="rgb(230,197,121)" stroke-width="1" opacity="1" d="M 278.5 351 L 281.5 355 L 278.5 351 Z " /><path fill="rgb(230,197,121)" stroke="rgb(230,197,121)" stroke-width="1" opacity="1" d="M 261.5 353 L 265 354.5 L 262.5 355 L 261.5 353 Z " /><path fill="rgb(230,197,121)" stroke="rgb(230,197,121)" stroke-width="1" opacity="1" d="M 263.5 356 L 264.5 358 L 263.5 356 Z " /><path fill="rgb(230,197,121)" stroke="rgb(230,197,121)" stroke-width="1" opacity="1" d="M 266.5 360 L 267.5 362 L 266.5 360 Z " /><path fill="rgb(230,197,121)" stroke="rgb(230,197,121)" stroke-width="1" opacity="1" d="M 269.5 360 L 271.5 363 L 269.5 360 Z " /><path fill="rgb(230,197,121)" stroke="rgb(230,197,121)" stroke-width="1" opacity="1" d="M 411.5 361 L 410.5 363 L 411.5 361 Z " /><path fill="rgb(230,197,121)" stroke="rgb(230,197,121)" stroke-width="1" opacity="1" d="M 269.5 364 L 271.5 367 L 269.5 364 Z " /><path fill="rgb(230,197,121)" stroke="rgb(230,197,121)" stroke-width="1" opacity="1" d="M 406.5 367 L 404.5 370 L 406.5 367 Z " /><path fill="rgb(230,197,121)" stroke="rgb(230,197,121)" stroke-width="1" opacity="1" d="M 273.5 369 L 278.5 375 L 273.5 369 Z " /><path fill="rgb(230,197,121)" stroke="rgb(230,197,121)" stroke-width="1" opacity="1" d="M 283.5 380 L 286.5 384 L 283.5 380 Z " /><path fill="rgb(230,197,121)" stroke="rgb(230,197,121)" stroke-width="1" opacity="1" d="M 389.5 384 L 387.5 387 L 389.5 384 Z " /><path fill="rgb(230,197,121)" stroke="rgb(230,197,121)" stroke-width="1" opacity="1" d="M 293.5 389 L 297.5 394 L 293.5 389 Z " /><path fill="rgb(230,197,121)" stroke="rgb(230,197,121)" stroke-width="1" opacity="1" d="M 300.5 395 L 302.5 398 L 300.5 395 Z " /><path fill="rgb(230,197,121)" stroke="rgb(230,197,121)" stroke-width="1" opacity="1" d="M 305.5 399 L 306.5 401 L 305.5 399 Z " /><path fill="rgb(230,197,121)" stroke="rgb(230,197,121)" stroke-width="1" opacity="1" d="M 309.5 402 L 310.5 404 L 309.5 402 Z " /><path fill="rgb(230,197,121)" stroke="rgb(230,197,121)" stroke-width="1" opacity="1" d="M 331.5 416 L 332.5 418 L 331.5 416 Z " /><path fill="rgb(242,206,125)" stroke="rgb(242,206,125)" stroke-width="1" opacity="1" d="M 239.5 287 L 240.5 289 L 239.5 287 Z " /><path fill="rgb(242,206,125)" stroke="rgb(242,206,125)" stroke-width="1" opacity="1" d="M 257.5 346 L 258.5 348 L 257.5 346 Z " /><path fill="rgb(242,206,125)" stroke="rgb(242,206,125)" stroke-width="1" opacity="1" d="M 274.5 346 L 275.5 348 L 274.5 346 Z " /><path fill="rgb(242,206,125)" stroke="rgb(242,206,125)" stroke-width="1" opacity="1" d="M 282.5 355 L 286.5 360 L 282.5 355 Z " /><path fill="rgb(242,206,125)" stroke="rgb(242,206,125)" stroke-width="1" opacity="1" d="M 267.5 358 L 268.5 360 L 267.5 358 Z " /><path fill="rgb(242,206,125)" stroke="rgb(242,206,125)" stroke-width="1" opacity="1" d="M 268.5 362 L 269.5 364 L 268.5 362 Z " /><path fill="rgb(242,206,125)" stroke="rgb(242,206,125)" stroke-width="1" opacity="1" d="M 272.5 367 L 273.5 369 L 272.5 367 Z " /><path fill="rgb(242,206,125)" stroke="rgb(242,206,125)" stroke-width="1" opacity="1" d="M 403.5 370 L 401.5 373 L 403.5 370 Z " /><path fill="rgb(242,206,125)" stroke="rgb(242,206,125)" stroke-width="1" opacity="1" d="M 279.5 375 L 283.5 380 L 279.5 375 Z " /><path fill="rgb(242,206,125)" stroke="rgb(242,206,125)" stroke-width="1" opacity="1" d="M 391.5 382 L 390.5 384 L 391.5 382 Z " /><path fill="rgb(242,206,125)" stroke="rgb(242,206,125)" stroke-width="1" opacity="1" d="M 287.5 383 L 292.5 389 L 287.5 383 Z " /><path fill="rgb(242,206,125)" stroke="rgb(242,206,125)" stroke-width="1" opacity="1" d="M 298.5 393 L 299.5 395 L 298.5 393 Z " /><path fill="rgb(0,0,0)" stroke="rgb(0,0,0)" stroke-width="1" opacity="0" d="M 0 0 L 512 0 L 512 512 L 0 512 L 0 0 Z M 159 22 L 157 23 L 154 27 L 154 37 L 143 37 L 141 38 L 137 43 Q 136 49 141 50 L 154 50 L 154 65 Q 136 66 127 76 L 125 76 L 115 67 L 122 57 L 121 53 L 116 49 L 112 50 L 89 74 Q 88 81 93 83 L 98 83 L 105 76 L 116 87 Q 108 95 107 110 L 106 111 L 91 111 L 91 102 L 88 97 Q 80 96 78 101 L 78 135 L 79 137 L 85 139 L 88 138 L 91 134 L 91 124 L 106 124 Q 108 139 116 150 L 106 159 L 97 152 Q 90 151 89 156 L 89 162 L 94 168 L 114 186 L 119 185 L 122 180 Q 120 173 115 170 L 125 159 L 139 167 L 149 170 L 152 171 L 152 185 L 142 185 L 140 186 L 137 190 L 137 194 L 139 197 L 142 198 L 154 198 L 154 229 L 155 232 L 113 232 L 111 233 L 108 237 L 109 243 L 113 245 L 132 245 L 132 278 Q 103 281 86 297 L 84 299 L 60 276 L 73 263 L 74 260 L 73 256 L 69 252 L 64 253 L 28 290 L 27 293 L 28 297 L 34 300 L 38 299 L 51 285 L 75 309 Q 65 319 60 335 L 57 347 L 57 354 L 56 355 L 22 355 L 22 335 L 21 332 L 19 331 Q 13 330 11 332 L 10 335 L 10 389 L 16 392 Q 20 392 22 389 L 22 368 L 57 368 L 57 376 L 61 391 L 74 415 L 57 431 L 51 437 L 37 423 L 30 424 L 27 429 L 28 433 L 65 470 L 72 469 L 74 465 L 73 461 L 60 447 L 84 424 Q 100 439 126 444 Q 132 443 132 445 L 132 477 L 114 477 L 108 482 L 109 488 L 113 490 L 166 490 L 169 486 L 168 480 L 164 477 L 145 477 L 145 445 L 148 444 L 160 443 L 170 440 Q 184 435 195 425 L 217 447 L 204 461 L 203 464 L 205 469 Q 207 471 213 470 L 243 440 L 250 431 L 249 426 L 249 424 L 260 434 L 286 452 L 326 473 L 331 473 L 370 453 Q 392 439 412 422 Q 454 384 479 330 L 493 291 L 499 264 L 500 251 L 501 250 L 501 241 L 502 240 L 502 26 L 501 23 L 499 22 L 159 22 Z " /><path fill="rgb(0,0,0)" stroke="rgb(0,0,0)" stroke-width="1" opacity="0" d="M 145 245 L 156 245 L 156 252.5 L 161 280 L 153.5 278 L 145 278 L 145 245 Z " /><path fill="rgb(0,0,0)" stroke="rgb(0,0,0)" stroke-width="1" opacity="0" d="M 217.5 393 L 247 423.5 L 245.5 423 L 240.5 423 L 226.5 437 L 204 415.5 Q 212.5 406 217.5 393 Z " /><path fill="rgb(191,160,98)" stroke="rgb(191,160,98)" stroke-width="1" opacity="1" d="M 202 69 L 225.5 69 L 226 69.5 L 226 257.5 L 227 258.5 L 228 272.5 L 232 287.5 L 229 293.5 L 233.5 302 L 239 302.5 L 236 303.5 L 242.5 320 L 244 319.5 L 243 323.5 L 254 339.5 L 253.5 341 L 256 342.5 L 255 344.5 L 259 346.5 L 257 346.5 Q 269.3 367.7 286.5 384 Q 308.7 405.3 337 420.5 L 327.5 425 L 282.5 398 Q 266.3 386.2 253 371.5 Q 221 337.5 207 285.5 L 203 264.5 L 203 256.5 L 202 255.5 L 202 147.5 L 199.5 143 L 196 142 L 196 104.5 L 197.5 104 L 201 101.5 L 202 98.5 L 202 69 Z " /><path fill="rgb(191,160,98)" stroke="rgb(191,160,98)" stroke-width="1" opacity="1" d="M 305.5 132 L 349 132.5 L 305.5 133 L 305.5 132 Z " /><path fill="rgb(191,160,98)" stroke="rgb(191,160,98)" stroke-width="1" opacity="1" d="M 302.5 133 L 300.5 136 L 302.5 133 Z " /><path fill="rgb(191,160,98)" stroke="rgb(191,160,98)" stroke-width="1" opacity="1" d="M 247.5 190 L 300 190.5 L 247.5 191 L 247.5 190 Z " /><path fill="rgb(191,160,98)" stroke="rgb(191,160,98)" stroke-width="1" opacity="1" d="M 354.5 190 L 407 190.5 L 354.5 191 L 354.5 190 Z " /><path fill="rgb(191,160,98)" stroke="rgb(191,160,98)" stroke-width="1" opacity="1" d="M 244.5 191 L 242.5 194 L 244.5 191 Z " /><path fill="rgb(191,160,98)" stroke="rgb(191,160,98)" stroke-width="1" opacity="1" d="M 241.5 197 L 242 238.5 L 241 238.5 L 241.5 197 Z " /><path fill="rgb(191,160,98)" stroke="rgb(191,160,98)" stroke-width="1" opacity="1" d="M 410.5 242 L 409.5 244 L 410.5 242 Z " /><path fill="rgb(191,160,98)" stroke="rgb(191,160,98)" stroke-width="1" opacity="1" d="M 246.5 244 L 299 244.5 L 246.5 245 L 246.5 244 Z " /><path fill="rgb(191,160,98)" stroke="rgb(191,160,98)" stroke-width="1" opacity="1" d="M 354.5 244 L 408 244.5 L 354.5 245 L 354.5 244 Z " /><path fill="rgb(191,160,98)" stroke="rgb(191,160,98)" stroke-width="1" opacity="1" d="M 454.5 247 L 455 253.5 L 454 253.5 L 454.5 247 Z " /><path fill="rgb(191,160,98)" stroke="rgb(191,160,98)" stroke-width="1" opacity="1" d="M 453.5 260 L 454 263.5 L 453 263.5 L 453.5 260 Z " /><path fill="rgb(191,160,98)" stroke="rgb(191,160,98)" stroke-width="1" opacity="1" d="M 233.5 286 L 237 286.5 L 233.5 287 L 233.5 286 Z " /><path fill="rgb(191,160,98)" stroke="rgb(191,160,98)" stroke-width="1" opacity="1" d="M 241.5 300 L 240.5 302 L 241.5 300 Z " /><path fill="rgb(191,160,98)" stroke="rgb(191,160,98)" stroke-width="1" opacity="1" d="M 352.5 300 L 351.5 302 L 352.5 300 Z " /><path fill="rgb(191,160,98)" stroke="rgb(191,160,98)" stroke-width="1" opacity="1" d="M 252.5 316 L 254.5 319 L 252.5 316 Z " /><path fill="rgb(191,160,98)" stroke="rgb(191,160,98)" stroke-width="1" opacity="1" d="M 264.5 334 L 265.5 336 L 264.5 334 Z " /><path fill="rgb(191,160,98)" stroke="rgb(191,160,98)" stroke-width="1" opacity="1" d="M 267.5 338 L 268.5 340 L 267.5 338 Z " /><path fill="rgb(191,160,98)" stroke="rgb(191,160,98)" stroke-width="1" opacity="1" d="M 270.5 342 L 271.5 344 L 270.5 342 Z " /><path fill="rgb(191,160,98)" stroke="rgb(191,160,98)" stroke-width="1" opacity="1" d="M 274.5 347 L 277.5 351 L 274.5 347 Z " /><path fill="rgb(191,160,98)" stroke="rgb(191,160,98)" stroke-width="1" opacity="1" d="M 421.5 348 L 420.5 350 L 421.5 348 Z " /><path fill="rgb(191,160,98)" stroke="rgb(191,160,98)" stroke-width="1" opacity="1" d="M 260.5 349 L 262.5 352 L 260.5 349 Z " /><path fill="rgb(191,160,98)" stroke="rgb(191,160,98)" stroke-width="1" opacity="1" d="M 265.5 355 L 267.5 358 L 265.5 355 Z " /><path fill="rgb(191,160,98)" stroke="rgb(191,160,98)" stroke-width="1" opacity="1" d="M 416.5 355 L 415.5 357 L 416.5 355 Z " /><path fill="rgb(191,160,98)" stroke="rgb(191,160,98)" stroke-width="1" opacity="1" d="M 413.5 359 L 412.5 361 L 413.5 359 Z " /><path fill="rgb(191,160,98)" stroke="rgb(191,160,98)" stroke-width="1" opacity="1" d="M 286.5 360 L 287.5 362 L 286.5 360 Z " /><path fill="rgb(191,160,98)" stroke="rgb(191,160,98)" stroke-width="1" opacity="1" d="M 272.5 363 L 278.5 370 L 272.5 363 Z " /><path fill="rgb(191,160,98)" stroke="rgb(191,160,98)" stroke-width="1" opacity="1" d="M 409.5 364 L 407.5 367 L 409.5 364 Z " /><path fill="rgb(191,160,98)" stroke="rgb(191,160,98)" stroke-width="1" opacity="1" d="M 280.5 370 L 284 370.5 L 280.5 371 L 280.5 370 Z " /><path fill="rgb(191,160,98)" stroke="rgb(191,160,98)" stroke-width="1" opacity="1" d="M 402.5 372 L 391.5 384 L 402.5 372 Z " /><path fill="rgb(191,160,98)" stroke="rgb(191,160,98)" stroke-width="1" opacity="1" d="M 386.5 387 L 383.5 391 L 386.5 387 Z " /><path fill="rgb(191,160,98)" stroke="rgb(191,160,98)" stroke-width="1" opacity="1" d="M 380.5 392 L 378.5 395 L 380.5 392 Z " /><path fill="rgb(191,160,98)" stroke="rgb(191,160,98)" stroke-width="1" opacity="1" d="M 375.5 396 L 374.5 398 L 375.5 396 Z " /><path fill="rgb(232,113,135)" stroke="rgb(232,113,135)" stroke-width="1" opacity="1" d="M 167 34 L 490 34 L 490 232.5 L 489 233.5 L 488 253.5 L 483 279.5 L 468 323.5 Q 443.5 377.5 401.5 414 Q 369.7 442.2 327.5 460 L 298.5 445 L 279.5 433 Q 257.4 417.6 239 398.5 Q 214.5 373 197 340.5 Q 178.3 306.2 170 261.5 L 170 255.5 L 168 247.5 L 168 237.5 L 167 236.5 L 167 34 Z M 194 57 L 191 58 L 190 61 L 190 101 L 194 104 L 195 105 L 195 142 L 190 146 L 190 256 L 191 257 L 191 266 L 194 283 Q 208 342 244 380 Q 260 396 279 410 L 327 438 L 331 438 L 337 435 L 368 417 Q 387 405 404 389 Q 427 366 443 337 L 456 307 L 464 276 L 465 264 L 466 263 L 466 254 L 467 253 L 467 61 L 464 57 L 194 57 Z " /><path fill="rgb(232,113,135)" stroke="rgb(232,113,135)" stroke-width="1" opacity="1" d="M 312 145 L 342 145 L 342 199.5 L 346.5 203 L 400 203 L 400 231.5 L 398.5 233 L 345.5 233 L 343 234 L 342 236.5 L 342 289.5 L 340.5 291 L 312 291 L 312 237.5 L 308.5 233 L 254 233 L 254 203 L 306.5 203 L 311 199.5 L 312 197.5 L 312 145 Z " /><path fill="rgb(39,65,104)" stroke="rgb(39,65,104)" stroke-width="1" opacity="0.5843137254901961" d="M 158.5 22 L 498.5 22 L 501 23 L 502 26.5 L 501 26.5 L 498.5 23 L 158.5 23 L 156 24 L 155 26.5 L 155 38 L 142.5 38 L 138.5 41 L 140.5 38 L 142.5 37 L 154 37 L 154 26.5 L 156.5 23 L 158.5 22 Z " /><path fill="rgb(39,65,104)" stroke="rgb(39,65,104)" stroke-width="1" opacity="0.5843137254901961" d="M 137.5 42 L 140.5 49 L 144 49.5 L 140.5 50 Q 135.6 47.9 137.5 42 Z " /><path fill="rgb(39,65,104)" stroke="rgb(39,65,104)" stroke-width="1" opacity="0.5843137254901961" d="M 111.5 50 L 113 50.5 L 107 55.5 L 89.5 75 L 89 73.5 L 111.5 50 Z " /><path fill="rgb(39,65,104)" stroke="rgb(39,65,104)" stroke-width="1" opacity="0.5843137254901961" d="M 117.5 50 L 121 52.5 L 120.5 54 L 118.5 51 L 117.5 50 Z " /><path fill="rgb(39,65,104)" stroke="rgb(39,65,104)" stroke-width="1" opacity="0.5843137254901961" d="M 154.5 50 L 155 66 L 149 65.5 L 154 65 L 154.5 50 Z " /><path fill="rgb(39,65,104)" stroke="rgb(39,65,104)" stroke-width="1" opacity="0.5843137254901961" d="M 120.5 58 L 121 59.5 L 115 66.5 L 124.5 76 L 126.5 76 L 135.5 70 L 135.5 71 L 124.5 77 L 114 65.5 L 120.5 58 Z " /><path fill="rgb(39,65,104)" stroke="rgb(39,65,104)" stroke-width="1" opacity="0.5843137254901961" d="M 145.5 66 L 148 66.5 L 145.5 67 L 145.5 66 Z " /><path fill="rgb(39,65,104)" stroke="rgb(39,65,104)" stroke-width="1" opacity="0.5843137254901961" d="M 139.5 68 L 141 68.5 L 137.5 70 L 137.5 69 L 139.5 68 Z " /><path fill="rgb(39,65,104)" stroke="rgb(39,65,104)" stroke-width="1" opacity="0.5843137254901961" d="M 104.5 75 L 117 85.5 L 108.5 104 L 108 101.5 L 116 86.5 L 104.5 76 L 97.5 83 L 92.5 83 L 89 78.5 L 90 78.5 L 92.5 82 L 97.5 82 L 104.5 75 Z " /><path fill="rgb(39,65,104)" stroke="rgb(39,65,104)" stroke-width="1" opacity="0.5843137254901961" d="M 81.5 97 L 84 97.5 L 79 100.5 L 79 134.5 L 81.5 137 L 83 137.5 L 81.5 138 L 79 137 L 78 134.5 L 78 100.5 L 81.5 97 Z " /><path fill="rgb(39,65,104)" stroke="rgb(39,65,104)" stroke-width="1" opacity="0.5843137254901961" d="M 85.5 97 Q 89.5 96.5 90 99.5 L 91 101.5 L 91 111 L 105.5 111 L 106.5 110 L 107 112 L 90 112 L 90 101.5 L 87.5 98 Q 84.5 98.5 85.5 97 Z " /><path fill="rgb(39,65,104)" stroke="rgb(39,65,104)" stroke-width="1" opacity="0.5843137254901961" d="M 107.5 105 L 108 107.5 L 107 107.5 L 107.5 105 Z " /><path fill="rgb(39,65,104)" stroke="rgb(39,65,104)" stroke-width="1" opacity="0.5843137254901961" d="M 90 123 L 106.5 123 L 107 125.5 L 106 125.5 L 105.5 124 L 91 124 L 91 133.5 L 87.5 138 L 86 137.5 L 89 135.5 L 90 133.5 L 90 123 Z " /><path fill="rgb(39,65,104)" stroke="rgb(39,65,104)" stroke-width="1" opacity="0.5843137254901961" d="M 107.5 127 L 109 133.5 L 108 133.5 L 107.5 127 Z " /><path fill="rgb(39,65,104)" stroke="rgb(39,65,104)" stroke-width="1" opacity="0.5843137254901961" d="M 109.5 135 L 111 138.5 L 110 138.5 L 109.5 135 Z " /><path fill="rgb(39,65,104)" stroke="rgb(39,65,104)" stroke-width="1" opacity="0.5843137254901961" d="M 112.5 142 L 117 149.5 L 105.5 161 L 98 153.5 L 104.5 159 Q 112 156 116 149.5 L 112.5 142 Z " /><path fill="rgb(39,65,104)" stroke="rgb(39,65,104)" stroke-width="1" opacity="0.5843137254901961" d="M 93.5 152 L 97 152.5 L 93.5 153 L 93.5 152 Z " /><path fill="rgb(39,65,104)" stroke="rgb(39,65,104)" stroke-width="1" opacity="0.5843137254901961" d="M 91.5 153 L 90 155.5 L 89.5 157 L 89 155.5 L 91.5 153 Z " /><path fill="rgb(39,65,104)" stroke="rgb(39,65,104)" stroke-width="1" opacity="0.5843137254901961" d="M 124.5 158 L 143 167.5 L 141.5 168 L 124.5 159 L 115 169.5 L 121 176.5 L 117 173.5 L 114 168.5 L 124.5 158 Z " /><path fill="rgb(39,65,104)" stroke="rgb(39,65,104)" stroke-width="1" opacity="0.5843137254901961" d="M 89.5 160 L 111.5 184 L 117 185.5 L 113.5 186 L 94 167.5 L 89 161.5 L 89.5 160 Z " /><path fill="rgb(39,65,104)" stroke="rgb(39,65,104)" stroke-width="1" opacity="0.5843137254901961" d="M 144.5 168 L 147 168.5 L 144.5 169 L 144.5 168 Z " /><path fill="rgb(39,65,104)" stroke="rgb(39,65,104)" stroke-width="1" opacity="0.5843137254901961" d="M 148.5 169 L 152 169.5 L 148.5 170 L 148.5 169 Z " /><path fill="rgb(39,65,104)" stroke="rgb(39,65,104)" stroke-width="1" opacity="0.5843137254901961" d="M 120.5 181 L 121 182.5 L 118 184.5 L 120.5 181 Z " /><path fill="rgb(39,65,104)" stroke="rgb(39,65,104)" stroke-width="1" opacity="0.5843137254901961" d="M 141.5 185 L 152 185.5 L 141.5 186 L 138 189.5 Q 137 196 141.5 197 L 155 197 L 155 228.5 L 154 228.5 L 154 198 L 141.5 198 L 139 197 L 137 193.5 L 137 189.5 L 139.5 186 L 141.5 185 Z " /><path fill="rgb(39,65,104)" stroke="rgb(39,65,104)" stroke-width="1" opacity="0.5843137254901961" d="M 501.5 228 L 502 239.5 L 501 239.5 L 501.5 228 Z " /><path fill="rgb(39,65,104)" stroke="rgb(39,65,104)" stroke-width="1" opacity="0.5843137254901961" d="M 112.5 232 L 155 232.5 L 112.5 233 L 109 236.5 L 110 243 L 112.5 244 L 133 244 L 133 277.5 L 131.5 279 L 126 278.5 L 132 278 L 132 245 L 112.5 245 L 109 242.5 L 108 236.5 L 110.5 233 L 112.5 232 Z " /><path fill="rgb(39,65,104)" stroke="rgb(39,65,104)" stroke-width="1" opacity="0.5843137254901961" d="M 500.5 243 L 501 249.5 L 500 249.5 L 500.5 243 Z " /><path fill="rgb(39,65,104)" stroke="rgb(39,65,104)" stroke-width="1" opacity="0.5843137254901961" d="M 145.5 244 L 156 244.5 L 145 245 L 144.5 278 L 144 245.5 L 145.5 244 Z " /><path fill="rgb(39,65,104)" stroke="rgb(39,65,104)" stroke-width="1" opacity="0.5843137254901961" d="M 156.5 246 L 157 252.5 L 156 252.5 L 156.5 246 Z " /><path fill="rgb(39,65,104)" stroke="rgb(39,65,104)" stroke-width="1" opacity="0.5843137254901961" d="M 65.5 252 L 69 252.5 L 63.5 254 L 55 262.5 L 28.5 291 L 28 289.5 L 63.5 253 L 65.5 252 Z " /><path fill="rgb(39,65,104)" stroke="rgb(39,65,104)" stroke-width="1" opacity="0.5843137254901961" d="M 499.5 252 L 500 257.5 L 499 257.5 L 499.5 252 Z " /><path fill="rgb(39,65,104)" stroke="rgb(39,65,104)" stroke-width="1" opacity="0.5843137254901961" d="M 70.5 253 Q 73.8 254.8 74 259.5 L 73 259.5 L 70.5 253 Z " /><path fill="rgb(39,65,104)" stroke="rgb(39,65,104)" stroke-width="1" opacity="0.5843137254901961" d="M 157.5 254 L 158 258.5 L 157 258.5 L 157.5 254 Z " /><path fill="rgb(39,65,104)" stroke="rgb(39,65,104)" stroke-width="1" opacity="0.5843137254901961" d="M 498.5 259 L 499 263.5 L 498 263.5 L 498.5 259 Z " /><path fill="rgb(39,65,104)" stroke="rgb(39,65,104)" stroke-width="1" opacity="0.5843137254901961" d="M 72.5 261 L 73 262.5 L 60 275.5 L 83.5 299 L 95.5 290 L 94.5 292 L 83.5 300 L 60.5 277 L 59 277 L 72.5 261 Z " /><path fill="rgb(39,65,104)" stroke="rgb(39,65,104)" stroke-width="1" opacity="0.5843137254901961" d="M 158.5 261 L 159 265.5 L 158 265.5 L 158.5 261 Z " /><path fill="rgb(39,65,104)" stroke="rgb(39,65,104)" stroke-width="1" opacity="0.5843137254901961" d="M 497.5 265 L 498 268.5 L 497 268.5 L 497.5 265 Z " /><path fill="rgb(39,65,104)" stroke="rgb(39,65,104)" stroke-width="1" opacity="0.5843137254901961" d="M 159.5 267 L 160 270.5 L 159 270.5 L 159.5 267 Z " /><path fill="rgb(39,65,104)" stroke="rgb(39,65,104)" stroke-width="1" opacity="0.5843137254901961" d="M 496.5 270 L 497 274.5 L 495.5 279 L 495 275.5 L 496.5 270 Z " /><path fill="rgb(39,65,104)" stroke="rgb(39,65,104)" stroke-width="1" opacity="0.5843137254901961" d="M 160.5 272 L 161 275.5 L 160 275.5 L 160.5 272 Z " /><path fill="rgb(39,65,104)" stroke="rgb(39,65,104)" stroke-width="1" opacity="0.5843137254901961" d="M 161.5 277 L 162 281 L 155 279.5 L 158.5 279 L 161 280 L 161.5 277 Z " /><path fill="rgb(39,65,104)" stroke="rgb(39,65,104)" stroke-width="1" opacity="0.5843137254901961" d="M 147.5 278 L 154 278.5 L 147.5 279 L 147.5 278 Z " /><path fill="rgb(39,65,104)" stroke="rgb(39,65,104)" stroke-width="1" opacity="0.5843137254901961" d="M 121.5 279 L 125 279.5 L 114.5 282 L 114.5 281 L 121.5 279 Z " /><path fill="rgb(39,65,104)" stroke="rgb(39,65,104)" stroke-width="1" opacity="0.5843137254901961" d="M 494.5 280 L 495 282.5 L 494 282.5 L 494.5 280 Z " /><path fill="rgb(39,65,104)" stroke="rgb(39,65,104)" stroke-width="1" opacity="0.5843137254901961" d="M 111.5 282 L 113 282.5 L 109.5 284 L 109.5 283 L 111.5 282 Z " /><path fill="rgb(39,65,104)" stroke="rgb(39,65,104)" stroke-width="1" opacity="0.5843137254901961" d="M 50.5 284 L 76 308.5 L 65.5 324 L 66 322.5 Q 68.8 313.8 75 308.5 L 50.5 285 L 37.5 299 L 36 298.5 L 40 295.5 L 50.5 284 Z " /><path fill="rgb(39,65,104)" stroke="rgb(39,65,104)" stroke-width="1" opacity="0.5843137254901961" d="M 106.5 284 L 108 284.5 L 97.5 290 L 98.5 288 L 106.5 284 Z " /><path fill="rgb(39,65,104)" stroke="rgb(39,65,104)" stroke-width="1" opacity="0.5843137254901961" d="M 493.5 284 L 494 286.5 L 493 286.5 L 493.5 284 Z " /><path fill="rgb(39,65,104)" stroke="rgb(39,65,104)" stroke-width="1" opacity="0.5843137254901961" d="M 492.5 288 L 493 290.5 L 491.5 294 L 491 291.5 L 492.5 288 Z " /><path fill="rgb(39,65,104)" stroke="rgb(39,65,104)" stroke-width="1" opacity="0.5843137254901961" d="M 27.5 292 L 30.5 298 L 32 298.5 L 30.5 299 Q 25.7 297 27.5 292 Z " /><path fill="rgb(39,65,104)" stroke="rgb(39,65,104)" stroke-width="1" opacity="0.5843137254901961" d="M 490.5 295 L 491 297.5 L 484.5 315 L 484 313.5 L 490.5 295 Z " /><path fill="rgb(39,65,104)" stroke="rgb(39,65,104)" stroke-width="1" opacity="0.5843137254901961" d="M 483.5 316 L 484 317.5 L 482.5 320 L 482 318.5 L 483.5 316 Z " /><path fill="rgb(39,65,104)" stroke="rgb(39,65,104)" stroke-width="1" opacity="0.5843137254901961" d="M 481.5 321 L 482 322.5 L 479.5 327 L 479 325.5 L 481.5 321 Z " /><path fill="rgb(39,65,104)" stroke="rgb(39,65,104)" stroke-width="1" opacity="0.5843137254901961" d="M 64.5 325 L 65 326.5 L 62.5 331 L 62 329.5 L 64.5 325 Z " /><path fill="rgb(39,65,104)" stroke="rgb(39,65,104)" stroke-width="1" opacity="0.5843137254901961" d="M 478.5 328 L 479 329.5 L 463.5 358 L 464 356.5 L 478.5 328 Z " /><path fill="rgb(39,65,104)" stroke="rgb(39,65,104)" stroke-width="1" opacity="0.5843137254901961" d="M 13.5 331 Q 18.9 330.4 21 332 L 22 335.5 L 21 335.5 L 18.5 332 Q 12.3 330.8 11 334.5 L 10.5 336 L 10 334.5 L 11 332 L 13.5 331 Z " /><path fill="rgb(39,65,104)" stroke="rgb(39,65,104)" stroke-width="1" opacity="0.5843137254901961" d="M 61.5 332 L 62 333.5 L 60.5 337 L 60 334.5 L 61.5 332 Z " /><path fill="rgb(39,65,104)" stroke="rgb(39,65,104)" stroke-width="1" opacity="0.5843137254901961" d="M 59.5 338 L 60 340.5 L 58.5 345 L 58 341.5 L 59.5 338 Z " /><path fill="rgb(39,65,104)" stroke="rgb(39,65,104)" stroke-width="1" opacity="0.5843137254901961" d="M 57.5 346 L 58 351.5 L 57 351.5 L 57.5 346 Z " /><path fill="rgb(39,65,104)" stroke="rgb(39,65,104)" stroke-width="1" opacity="0.5843137254901961" d="M 462.5 359 L 462 360.5 L 458.5 366 L 459 364.5 L 462.5 359 Z " /><path fill="rgb(39,65,104)" stroke="rgb(39,65,104)" stroke-width="1" opacity="0.5843137254901961" d="M 22.5 367 L 57 367.5 L 22.5 368 L 22.5 367 Z " /><path fill="rgb(39,65,104)" stroke="rgb(39,65,104)" stroke-width="1" opacity="0.5843137254901961" d="M 457.5 367 L 457 368.5 Q 437.8 398.8 411.5 422 Q 390.8 440.8 365.5 455 L 366.5 453 Q 403.2 432.7 430 402.5 Q 445.2 386.2 457.5 367 Z " /><path fill="rgb(39,65,104)" stroke="rgb(39,65,104)" stroke-width="1" opacity="0.5843137254901961" d="M 57.5 370 L 58 375.5 L 57 375.5 L 57.5 370 Z " /><path fill="rgb(39,65,104)" stroke="rgb(39,65,104)" stroke-width="1" opacity="0.5843137254901961" d="M 58.5 377 L 64 394.5 L 63 394.5 Q 58.1 387.1 58.5 377 Z " /><path fill="rgb(39,65,104)" stroke="rgb(39,65,104)" stroke-width="1" opacity="0.5843137254901961" d="M 10.5 387 L 12.5 390 L 14 390.5 L 12.5 391 Q 8.9 389.9 10.5 387 Z " /><path fill="rgb(39,65,104)" stroke="rgb(39,65,104)" stroke-width="1" opacity="0.5843137254901961" d="M 21.5 387 L 22 388.5 L 18.5 391 L 18.5 390 L 21 388.5 L 21.5 387 Z " /><path fill="rgb(39,65,104)" stroke="rgb(39,65,104)" stroke-width="1" opacity="0.5843137254901961" d="M 217.5 392 L 246.5 422 Q 266.2 439.8 290 453.5 L 288.5 453 Q 266.6 441.4 249.5 425 L 249 426.5 L 250 430.5 L 249 430.5 Q 249.5 425 246.5 423 Q 245.3 425.2 240.5 424 L 226.5 438 L 203 415.5 L 213.5 400 L 213 401.5 L 204 415.5 L 226.5 437 L 240.5 423 L 246 422.5 L 217.5 393 L 215.5 397 L 215 395.5 L 217.5 392 Z " /><path fill="rgb(39,65,104)" stroke="rgb(39,65,104)" stroke-width="1" opacity="0.5843137254901961" d="M 64.5 396 Q 68.5 406.5 76 413.5 L 50.5 438 L 36.5 424 L 31.5 424 L 29 425 L 28.5 427 L 28 425.5 Q 30 422 36.5 423 L 50.5 437 L 56.5 431 L 74 414.5 L 74 412.5 L 66 401.5 L 64.5 396 Z " /><path fill="rgb(39,65,104)" stroke="rgb(39,65,104)" stroke-width="1" opacity="0.5843137254901961" d="M 82.5 423 L 84.5 423 Q 93.9 432.1 107 437.5 L 105.5 438 L 83.5 424 L 60 446.5 L 73 460.5 L 62 450.5 L 59 446.5 L 82.5 423 Z " /><path fill="rgb(39,65,104)" stroke="rgb(39,65,104)" stroke-width="1" opacity="0.5843137254901961" d="M 194.5 424 L 218 446.5 L 204.5 462 L 204 460.5 L 217 446.5 L 194.5 425 Q 186.6 432.6 175.5 437 L 175.5 436 Q 186.6 431.6 194.5 424 Z " /><path fill="rgb(39,65,104)" stroke="rgb(39,65,104)" stroke-width="1" opacity="0.5843137254901961" d="M 27.5 428 L 29 432.5 L 64.5 469 Q 71.3 470.3 72.5 466 L 73 467.5 Q 71 471 64.5 470 L 28 432.5 L 27.5 428 Z " /><path fill="rgb(39,65,104)" stroke="rgb(39,65,104)" stroke-width="1" opacity="0.5843137254901961" d="M 248.5 432 L 243 438.5 L 212.5 470 Q 207.1 470.6 205 469 L 203 463.5 L 204 463.5 L 207.5 469 L 212.5 469 L 236 445.5 L 248.5 432 Z " /><path fill="rgb(39,65,104)" stroke="rgb(39,65,104)" stroke-width="1" opacity="0.5843137254901961" d="M 108.5 438 L 119 441.5 L 116.5 442 L 108.5 439 L 108.5 438 Z " /><path fill="rgb(39,65,104)" stroke="rgb(39,65,104)" stroke-width="1" opacity="0.5843137254901961" d="M 170.5 438 L 172 438.5 L 161.5 442 L 161.5 441 L 170.5 438 Z " /><path fill="rgb(39,65,104)" stroke="rgb(39,65,104)" stroke-width="1" opacity="0.5843137254901961" d="M 120.5 442 L 124 442.5 L 120.5 443 L 120.5 442 Z " /><path fill="rgb(39,65,104)" stroke="rgb(39,65,104)" stroke-width="1" opacity="0.5843137254901961" d="M 156.5 442 L 160 442.5 L 156.5 443 L 156.5 442 Z " /><path fill="rgb(39,65,104)" stroke="rgb(39,65,104)" stroke-width="1" opacity="0.5843137254901961" d="M 125.5 443 L 130 443.5 L 125.5 444 L 125.5 443 Z " /><path fill="rgb(39,65,104)" stroke="rgb(39,65,104)" stroke-width="1" opacity="0.5843137254901961" d="M 150.5 443 L 155 443.5 L 150.5 444 L 150.5 443 Z " /><path fill="rgb(39,65,104)" stroke="rgb(39,65,104)" stroke-width="1" opacity="0.5843137254901961" d="M 132.5 444 L 133 478 L 113 477.5 L 132 477 L 132.5 444 Z " /><path fill="rgb(39,65,104)" stroke="rgb(39,65,104)" stroke-width="1" opacity="0.5843137254901961" d="M 144 444 L 147 444.5 L 145 445 L 145 477 L 163.5 477 L 163.5 478 L 144 478 L 144 444 Z " /><path fill="rgb(39,65,104)" stroke="rgb(39,65,104)" stroke-width="1" opacity="0.5843137254901961" d="M 291.5 454 L 325.5 472 L 331 472.5 L 325.5 473 L 292.5 456 L 291.5 454 Z " /><path fill="rgb(39,65,104)" stroke="rgb(39,65,104)" stroke-width="1" opacity="0.5843137254901961" d="M 363.5 455 L 362.5 457 L 352.5 462 L 353.5 460 L 363.5 455 Z " /><path fill="rgb(39,65,104)" stroke="rgb(39,65,104)" stroke-width="1" opacity="0.5843137254901961" d="M 73.5 462 L 74 464.5 L 73 464.5 L 73.5 462 Z " /><path fill="rgb(39,65,104)" stroke="rgb(39,65,104)" stroke-width="1" opacity="0.5843137254901961" d="M 111.5 478 L 109 481.5 Q 108.2 486.8 111 488.5 L 109 487.5 L 108 481.5 L 111.5 478 Z " /><path fill="rgb(39,65,104)" stroke="rgb(39,65,104)" stroke-width="1" opacity="0.5843137254901961" d="M 165.5 478 L 168 479.5 L 169 485.5 L 168 485.5 L 168 481.5 L 165.5 478 Z " /><path fill="rgb(39,65,104)" stroke="rgb(39,65,104)" stroke-width="1" opacity="0.5843137254901961" d="M 167.5 487 L 165.5 490 L 112 489.5 L 165.5 489 L 167.5 487 Z " /><path fill="rgb(243,207,125)" stroke="rgb(243,207,125)" stroke-width="1" opacity="1" d="M 226 69 L 455 69 L 455 239.5 L 454 240.5 L 454 257.5 L 453 258.5 L 453 265.5 L 450 281.5 L 439 315.5 Q 421.8 354.8 392.5 382 Q 368.7 404.7 336.5 419 Q 306.3 403.7 284 380.5 L 259 349.5 L 262 351.5 L 279.5 371 Q 286 372 288 368.5 L 289 363.5 L 287 359.5 L 271 342.5 L 252.5 316 L 247.5 315 L 242 318 L 237 303 Q 241.7 303.8 243 299.5 Q 244.1 290.4 239.5 287 L 232 286 L 228 268.5 L 227 249.5 L 226 248.5 L 226 69 Z M 305 132 L 303 133 L 299 138 L 299 190 L 247 190 L 245 191 L 241 196 L 241 241 L 242 243 L 246 245 L 299 245 L 299 298 L 300 301 L 304 303 L 351 303 L 354 300 L 354 245 L 409 245 L 412 242 L 412 194 L 408 190 L 354 190 L 354 137 L 353 135 L 350 132 L 305 132 Z " /><path fill="rgb(41,67,104)" stroke="rgb(41,67,104)" stroke-width="1" opacity="0.996078431372549" d="M 166.5 34 L 167 228.5 L 166 228.5 L 166.5 34 Z " /><path fill="rgb(41,67,104)" stroke="rgb(41,67,104)" stroke-width="1" opacity="0.996078431372549" d="M 463.5 57 L 467 61.5 L 466 61.5 L 463.5 57 Z " /><path fill="rgb(41,67,104)" stroke="rgb(41,67,104)" stroke-width="1" opacity="0.996078431372549" d="M 201 68 L 456 68 L 456 239.5 L 455 239.5 L 455 69 L 202 69 L 201.5 99 L 201 68 Z " /><path fill="rgb(41,67,104)" stroke="rgb(41,67,104)" stroke-width="1" opacity="0.996078431372549" d="M 150.5 77 L 155 77.5 L 150.5 78 L 150.5 77 Z " /><path fill="rgb(41,67,104)" stroke="rgb(41,67,104)" stroke-width="1" opacity="0.996078431372549" d="M 146.5 78 L 149 78.5 L 144.5 80 L 144.5 79 L 146.5 78 Z " /><path fill="rgb(41,67,104)" stroke="rgb(41,67,104)" stroke-width="1" opacity="0.996078431372549" d="M 141.5 80 L 143 80.5 L 138.5 83 L 139.5 81 L 141.5 80 Z " /><path fill="rgb(41,67,104)" stroke="rgb(41,67,104)" stroke-width="1" opacity="0.996078431372549" d="M 136.5 83 L 135.5 85 L 136.5 83 Z " /><path fill="rgb(41,67,104)" stroke="rgb(41,67,104)" stroke-width="1" opacity="0.996078431372549" d="M 133.5 85 L 127 92.5 L 123.5 98 L 124 96.5 Q 127 89 133.5 85 Z " /><path fill="rgb(41,67,104)" stroke="rgb(41,67,104)" stroke-width="1" opacity="0.996078431372549" d="M 190.5 100 Q 192 104 198 103.5 L 193.5 104 L 190.5 100 Z " /><path fill="rgb(41,67,104)" stroke="rgb(41,67,104)" stroke-width="1" opacity="0.996078431372549" d="M 200.5 100 L 201 101.5 L 199 102.5 L 200.5 100 Z " /><path fill="rgb(41,67,104)" stroke="rgb(41,67,104)" stroke-width="1" opacity="0.996078431372549" d="M 121.5 101 L 122 102.5 L 120.5 105 L 120 103.5 L 121.5 101 Z " /><path fill="rgb(41,67,104)" stroke="rgb(41,67,104)" stroke-width="1" opacity="0.996078431372549" d="M 119.5 106 L 120 108.5 L 119 108.5 L 119.5 106 Z " /><path fill="rgb(41,67,104)" stroke="rgb(41,67,104)" stroke-width="1" opacity="0.996078431372549" d="M 118.5 111 L 119 124.5 L 118 124.5 L 118.5 111 Z " /><path fill="rgb(41,67,104)" stroke="rgb(41,67,104)" stroke-width="1" opacity="0.996078431372549" d="M 119.5 126 L 120 128.5 L 119 128.5 L 119.5 126 Z " /><path fill="rgb(41,67,104)" stroke="rgb(41,67,104)" stroke-width="1" opacity="0.996078431372549" d="M 121.5 133 L 124 137.5 L 122 136.5 L 121.5 133 Z " /><path fill="rgb(41,67,104)" stroke="rgb(41,67,104)" stroke-width="1" opacity="0.996078431372549" d="M 303.5 133 L 301 136.5 L 300.5 138 L 300 136.5 L 303.5 133 Z " /><path fill="rgb(41,67,104)" stroke="rgb(41,67,104)" stroke-width="1" opacity="0.996078431372549" d="M 351.5 134 L 352.5 136 L 351.5 134 Z " /><path fill="rgb(41,67,104)" stroke="rgb(41,67,104)" stroke-width="1" opacity="0.996078431372549" d="M 353.5 138 L 354 190.5 L 353 190.5 L 353.5 138 Z " /><path fill="rgb(41,67,104)" stroke="rgb(41,67,104)" stroke-width="1" opacity="0.996078431372549" d="M 124.5 139 L 134.5 150 L 140 153.5 L 138.5 153 Q 129.7 149.3 125 141.5 L 124.5 139 Z " /><path fill="rgb(41,67,104)" stroke="rgb(41,67,104)" stroke-width="1" opacity="0.996078431372549" d="M 193.5 142 L 198 142.5 Q 192.1 142.1 190.5 146 L 193.5 142 Z " /><path fill="rgb(41,67,104)" stroke="rgb(41,67,104)" stroke-width="1" opacity="0.996078431372549" d="M 199.5 143 L 201 145.5 L 200 145.5 L 199.5 143 Z " /><path fill="rgb(41,67,104)" stroke="rgb(41,67,104)" stroke-width="1" opacity="0.996078431372549" d="M 311 144 L 342 144.5 L 312 145 L 311.5 198 L 311 144 Z " /><path fill="rgb(41,67,104)" stroke="rgb(41,67,104)" stroke-width="1" opacity="0.996078431372549" d="M 201.5 147 L 202 248.5 L 201 248.5 L 201.5 147 Z " /><path fill="rgb(41,67,104)" stroke="rgb(41,67,104)" stroke-width="1" opacity="0.996078431372549" d="M 141.5 154 L 145 155.5 L 143.5 156 L 141.5 154 Z " /><path fill="rgb(41,67,104)" stroke="rgb(41,67,104)" stroke-width="1" opacity="0.996078431372549" d="M 149.5 157 L 153 157.5 L 149.5 158 L 149.5 157 Z " /><path fill="rgb(41,67,104)" stroke="rgb(41,67,104)" stroke-width="1" opacity="0.996078431372549" d="M 245.5 191 L 243 194.5 L 242.5 196 L 242 194.5 L 245.5 191 Z " /><path fill="rgb(41,67,104)" stroke="rgb(41,67,104)" stroke-width="1" opacity="0.996078431372549" d="M 409.5 192 L 410.5 194 L 409.5 192 Z " /><path fill="rgb(41,67,104)" stroke="rgb(41,67,104)" stroke-width="1" opacity="0.996078431372549" d="M 411.5 196 L 412 239.5 L 411 239.5 L 411.5 196 Z " /><path fill="rgb(41,67,104)" stroke="rgb(41,67,104)" stroke-width="1" opacity="0.996078431372549" d="M 342.5 198 L 345 201.5 L 342 199.5 L 342.5 198 Z " /><path fill="rgb(41,67,104)" stroke="rgb(41,67,104)" stroke-width="1" opacity="0.996078431372549" d="M 253 202 L 307 202.5 L 254 203 L 253.5 233 L 253 202 Z " /><path fill="rgb(41,67,104)" stroke="rgb(41,67,104)" stroke-width="1" opacity="0.996078431372549" d="M 346.5 202 L 400 202.5 L 346.5 203 L 346.5 202 Z " /><path fill="rgb(41,67,104)" stroke="rgb(41,67,104)" stroke-width="1" opacity="0.996078431372549" d="M 308.5 233 L 310.5 236 L 308.5 233 Z " /><path fill="rgb(41,67,104)" stroke="rgb(41,67,104)" stroke-width="1" opacity="0.996078431372549" d="M 489.5 233 L 490 239.5 L 489 239.5 L 489.5 233 Z " /><path fill="rgb(41,67,104)" stroke="rgb(41,67,104)" stroke-width="1" opacity="0.996078431372549" d="M 167.5 237 L 168 242.5 L 167 242.5 L 167.5 237 Z " /><path fill="rgb(41,67,104)" stroke="rgb(41,67,104)" stroke-width="1" opacity="0.996078431372549" d="M 311.5 237 L 312 290.5 L 311 290.5 L 311.5 237 Z " /><path fill="rgb(41,67,104)" stroke="rgb(41,67,104)" stroke-width="1" opacity="0.996078431372549" d="M 466.5 240 L 467 252.5 L 466 252.5 L 466.5 240 Z " /><path fill="rgb(41,67,104)" stroke="rgb(41,67,104)" stroke-width="1" opacity="0.996078431372549" d="M 410.5 241 L 408.5 244 L 410.5 241 Z " /><path fill="rgb(41,67,104)" stroke="rgb(41,67,104)" stroke-width="1" opacity="0.996078431372549" d="M 353.5 244 L 354 296.5 L 353 296.5 L 353.5 244 Z " /><path fill="rgb(41,67,104)" stroke="rgb(41,67,104)" stroke-width="1" opacity="0.996078431372549" d="M 488.5 245 L 489 248.5 L 488 248.5 L 488.5 245 Z " /><path fill="rgb(41,67,104)" stroke="rgb(41,67,104)" stroke-width="1" opacity="0.996078431372549" d="M 168.5 248 L 169 251.5 L 168 251.5 L 168.5 248 Z " /><path fill="rgb(41,67,104)" stroke="rgb(41,67,104)" stroke-width="1" opacity="0.996078431372549" d="M 190.5 249 L 191 255.5 L 190 255.5 L 190.5 249 Z " /><path fill="rgb(41,67,104)" stroke="rgb(41,67,104)" stroke-width="1" opacity="0.996078431372549" d="M 454.5 254 L 455 258.5 L 454 258.5 L 454.5 254 Z " /><path fill="rgb(41,67,104)" stroke="rgb(41,67,104)" stroke-width="1" opacity="0.996078431372549" d="M 487.5 254 L 488 256.5 L 487 256.5 L 487.5 254 Z " /><path fill="rgb(41,67,104)" stroke="rgb(41,67,104)" stroke-width="1" opacity="0.996078431372549" d="M 169.5 255 L 170 258.5 L 169 258.5 L 169.5 255 Z " /><path fill="rgb(41,67,104)" stroke="rgb(41,67,104)" stroke-width="1" opacity="0.996078431372549" d="M 202.5 256 L 203 260.5 L 202 260.5 L 202.5 256 Z " /><path fill="rgb(41,67,104)" stroke="rgb(41,67,104)" stroke-width="1" opacity="0.996078431372549" d="M 465.5 259 L 466 262.5 L 465 262.5 L 465.5 259 Z " /><path fill="rgb(41,67,104)" stroke="rgb(41,67,104)" stroke-width="1" opacity="0.996078431372549" d="M 486.5 260 L 487 262.5 L 486 262.5 L 486.5 260 Z " /><path fill="rgb(41,67,104)" stroke="rgb(41,67,104)" stroke-width="1" opacity="0.996078431372549" d="M 191.5 261 L 192 265.5 L 191 265.5 L 191.5 261 Z " /><path fill="rgb(41,67,104)" stroke="rgb(41,67,104)" stroke-width="1" opacity="0.996078431372549" d="M 170.5 262 L 171 264.5 L 170 264.5 L 170.5 262 Z " /><path fill="rgb(41,67,104)" stroke="rgb(41,67,104)" stroke-width="1" opacity="0.996078431372549" d="M 453.5 264 L 454 266.5 L 453 266.5 L 453.5 264 Z " /><path fill="rgb(41,67,104)" stroke="rgb(41,67,104)" stroke-width="1" opacity="0.996078431372549" d="M 203.5 265 L 204 267.5 L 203 267.5 L 203.5 265 Z " /><path fill="rgb(41,67,104)" stroke="rgb(41,67,104)" stroke-width="1" opacity="0.996078431372549" d="M 171.5 267 L 172 269.5 L 171 269.5 L 171.5 267 Z " /><path fill="rgb(41,67,104)" stroke="rgb(41,67,104)" stroke-width="1" opacity="0.996078431372549" d="M 464.5 267 L 465 269.5 L 464 269.5 L 464.5 267 Z " /><path fill="rgb(41,67,104)" stroke="rgb(41,67,104)" stroke-width="1" opacity="0.996078431372549" d="M 192.5 269 L 193 271.5 L 192 271.5 L 192.5 269 Z " /><path fill="rgb(41,67,104)" stroke="rgb(41,67,104)" stroke-width="1" opacity="0.996078431372549" d="M 452.5 270 L 453 272.5 L 452 272.5 L 452.5 270 Z " /><path fill="rgb(41,67,104)" stroke="rgb(41,67,104)" stroke-width="1" opacity="0.996078431372549" d="M 204.5 271 L 205 273.5 L 204 273.5 L 204.5 271 Z " /><path fill="rgb(41,67,104)" stroke="rgb(41,67,104)" stroke-width="1" opacity="0.996078431372549" d="M 463.5 273 L 464 275.5 L 463 275.5 L 463.5 273 Z " /><path fill="rgb(41,67,104)" stroke="rgb(41,67,104)" stroke-width="1" opacity="0.996078431372549" d="M 193.5 275 L 194 277.5 L 193 277.5 L 193.5 275 Z " /><path fill="rgb(41,67,104)" stroke="rgb(41,67,104)" stroke-width="1" opacity="0.996078431372549" d="M 483.5 275 L 484 277.5 L 483 277.5 L 483.5 275 Z " /><path fill="rgb(41,67,104)" stroke="rgb(41,67,104)" stroke-width="1" opacity="0.996078431372549" d="M 205.5 277 L 206 279.5 L 205 279.5 L 205.5 277 Z " /><path fill="rgb(41,67,104)" stroke="rgb(41,67,104)" stroke-width="1" opacity="0.996078431372549" d="M 194.5 280 L 195 282.5 L 194 282.5 L 194.5 280 Z " /><path fill="rgb(41,67,104)" stroke="rgb(41,67,104)" stroke-width="1" opacity="0.996078431372549" d="M 206.5 281 L 207 283.5 L 206 283.5 L 206.5 281 Z " /><path fill="rgb(41,67,104)" stroke="rgb(41,67,104)" stroke-width="1" opacity="0.996078431372549" d="M 232.5 287 L 230.5 290 L 232.5 287 Z " /><path fill="rgb(41,67,104)" stroke="rgb(41,67,104)" stroke-width="1" opacity="0.996078431372549" d="M 137.5 289 L 144 289.5 L 137.5 290 L 137.5 289 Z " /><path fill="rgb(41,67,104)" stroke="rgb(41,67,104)" stroke-width="1" opacity="0.996078431372549" d="M 127.5 290 L 133 290.5 L 127.5 291 L 127.5 290 Z " /><path fill="rgb(41,67,104)" stroke="rgb(41,67,104)" stroke-width="1" opacity="0.996078431372549" d="M 150.5 290 L 153 290.5 L 150.5 291 L 150.5 290 Z " /><path fill="rgb(41,67,104)" stroke="rgb(41,67,104)" stroke-width="1" opacity="0.996078431372549" d="M 122.5 291 L 126 291.5 L 119.5 293 L 119.5 292 L 122.5 291 Z " /><path fill="rgb(41,67,104)" stroke="rgb(41,67,104)" stroke-width="1" opacity="0.996078431372549" d="M 229.5 291 L 230 293.5 L 229 293.5 L 229.5 291 Z " /><path fill="rgb(41,67,104)" stroke="rgb(41,67,104)" stroke-width="1" opacity="0.996078431372549" d="M 113.5 294 L 115 294.5 L 109.5 297 L 109.5 296 L 113.5 294 Z " /><path fill="rgb(41,67,104)" stroke="rgb(41,67,104)" stroke-width="1" opacity="0.996078431372549" d="M 165.5 294 L 167 296.5 L 166 296.5 L 165.5 294 Z " /><path fill="rgb(41,67,104)" stroke="rgb(41,67,104)" stroke-width="1" opacity="0.996078431372549" d="M 242.5 295 L 243 297.5 L 242 297.5 L 242.5 295 Z " /><path fill="rgb(41,67,104)" stroke="rgb(41,67,104)" stroke-width="1" opacity="0.996078431372549" d="M 105.5 298 L 104.5 300 L 98.5 303 L 85 315.5 L 78.5 325 L 79 323.5 Q 84.4 312.9 93.5 306 L 105.5 298 Z " /><path fill="rgb(41,67,104)" stroke="rgb(41,67,104)" stroke-width="1" opacity="0.996078431372549" d="M 352.5 299 L 350.5 302 L 352.5 299 Z " /><path fill="rgb(41,67,104)" stroke="rgb(41,67,104)" stroke-width="1" opacity="0.996078431372549" d="M 232.5 300 L 235 301.5 L 233.5 302 L 232.5 300 Z " /><path fill="rgb(41,67,104)" stroke="rgb(41,67,104)" stroke-width="1" opacity="0.996078431372549" d="M 301.5 300 L 304 301.5 L 302.5 302 L 301.5 300 Z " /><path fill="rgb(41,67,104)" stroke="rgb(41,67,104)" stroke-width="1" opacity="0.996078431372549" d="M 306.5 302 L 348 302.5 L 306.5 303 L 306.5 302 Z " /><path fill="rgb(41,67,104)" stroke="rgb(41,67,104)" stroke-width="1" opacity="0.996078431372549" d="M 246.5 316 L 248 316.5 L 244.5 319 L 246.5 316 Z " /><path fill="rgb(41,67,104)" stroke="rgb(41,67,104)" stroke-width="1" opacity="0.996078431372549" d="M 251.5 316 L 254.5 320 L 251.5 316 Z " /><path fill="rgb(41,67,104)" stroke="rgb(41,67,104)" stroke-width="1" opacity="0.996078431372549" d="M 219.5 320 L 227 334.5 L 225 333.5 L 219 321.5 L 219.5 320 Z " /><path fill="rgb(41,67,104)" stroke="rgb(41,67,104)" stroke-width="1" opacity="0.996078431372549" d="M 243.5 320 L 246 326.5 L 244 325.5 L 243.5 320 Z " /><path fill="rgb(41,67,104)" stroke="rgb(41,67,104)" stroke-width="1" opacity="0.996078431372549" d="M 255.5 321 L 258 324.5 L 256 323.5 L 255.5 321 Z " /><path fill="rgb(41,67,104)" stroke="rgb(41,67,104)" stroke-width="1" opacity="0.996078431372549" d="M 189.5 324 L 191 327.5 L 190 327.5 L 189.5 324 Z " /><path fill="rgb(41,67,104)" stroke="rgb(41,67,104)" stroke-width="1" opacity="0.996078431372549" d="M 177.5 325 L 179 328.5 L 178 328.5 L 177.5 325 Z " /><path fill="rgb(41,67,104)" stroke="rgb(41,67,104)" stroke-width="1" opacity="0.996078431372549" d="M 258.5 326 L 259.5 328 L 258.5 326 Z " /><path fill="rgb(41,67,104)" stroke="rgb(41,67,104)" stroke-width="1" opacity="0.996078431372549" d="M 446.5 327 L 447 328.5 L 441.5 338 L 442 336.5 L 446.5 327 Z " /><path fill="rgb(41,67,104)" stroke="rgb(41,67,104)" stroke-width="1" opacity="0.996078431372549" d="M 76.5 328 L 76 329.5 L 75.5 331 L 75 329.5 L 76.5 328 Z " /><path fill="rgb(41,67,104)" stroke="rgb(41,67,104)" stroke-width="1" opacity="0.996078431372549" d="M 246.5 328 L 247.5 330 L 246.5 328 Z " /><path fill="rgb(41,67,104)" stroke="rgb(41,67,104)" stroke-width="1" opacity="0.996078431372549" d="M 260.5 329 L 261.5 331 L 260.5 329 Z " /><path fill="rgb(41,67,104)" stroke="rgb(41,67,104)" stroke-width="1" opacity="0.996078431372549" d="M 248.5 331 L 251 334.5 L 249 333.5 L 248.5 331 Z " /><path fill="rgb(41,67,104)" stroke="rgb(41,67,104)" stroke-width="1" opacity="0.996078431372549" d="M 262.5 332 L 263.5 334 L 262.5 332 Z " /><path fill="rgb(41,67,104)" stroke="rgb(41,67,104)" stroke-width="1" opacity="0.996078431372549" d="M 73.5 334 L 74 335.5 L 71.5 342 L 71 339.5 L 73.5 334 Z " /><path fill="rgb(41,67,104)" stroke="rgb(41,67,104)" stroke-width="1" opacity="0.996078431372549" d="M 264.5 335 L 266.5 338 L 264.5 335 Z " /><path fill="rgb(41,67,104)" stroke="rgb(41,67,104)" stroke-width="1" opacity="0.996078431372549" d="M 251.5 336 L 253.5 339 L 251.5 336 Z " /><path fill="rgb(41,67,104)" stroke="rgb(41,67,104)" stroke-width="1" opacity="0.996078431372549" d="M 429.5 336 L 428.5 338 L 429.5 336 Z " /><path fill="rgb(41,67,104)" stroke="rgb(41,67,104)" stroke-width="1" opacity="0.996078431372549" d="M 228.5 338 L 229.5 340 L 228.5 338 Z " /><path fill="rgb(41,67,104)" stroke="rgb(41,67,104)" stroke-width="1" opacity="0.996078431372549" d="M 267.5 339 L 269.5 342 L 267.5 339 Z " /><path fill="rgb(41,67,104)" stroke="rgb(41,67,104)" stroke-width="1" opacity="0.996078431372549" d="M 216.5 340 L 217.5 342 L 216.5 340 Z " /><path fill="rgb(41,67,104)" stroke="rgb(41,67,104)" stroke-width="1" opacity="0.996078431372549" d="M 254.5 340 L 255.5 342 L 254.5 340 Z " /><path fill="rgb(41,67,104)" stroke="rgb(41,67,104)" stroke-width="1" opacity="0.996078431372549" d="M 197.5 341 L 200 344.5 L 198 343.5 L 197.5 341 Z " /><path fill="rgb(41,67,104)" stroke="rgb(41,67,104)" stroke-width="1" opacity="0.996078431372549" d="M 426.5 341 L 425.5 343 L 426.5 341 Z " /><path fill="rgb(41,67,104)" stroke="rgb(41,67,104)" stroke-width="1" opacity="0.996078431372549" d="M 70.5 343 L 71 345.5 L 70 345.5 L 70.5 343 Z " /><path fill="rgb(41,67,104)" stroke="rgb(41,67,104)" stroke-width="1" opacity="0.996078431372549" d="M 231.5 343 L 232.5 345 L 231.5 343 Z " /><path fill="rgb(41,67,104)" stroke="rgb(41,67,104)" stroke-width="1" opacity="0.996078431372549" d="M 256.5 343 L 258.5 346 L 256.5 343 Z " /><path fill="rgb(41,67,104)" stroke="rgb(41,67,104)" stroke-width="1" opacity="0.996078431372549" d="M 438.5 343 L 437.5 345 L 438.5 343 Z " /><path fill="rgb(41,67,104)" stroke="rgb(41,67,104)" stroke-width="1" opacity="0.996078431372549" d="M 271.5 344 L 273.5 347 L 271.5 344 Z " /><path fill="rgb(41,67,104)" stroke="rgb(41,67,104)" stroke-width="1" opacity="0.996078431372549" d="M 424.5 344 L 423.5 346 L 424.5 344 Z " /><path fill="rgb(41,67,104)" stroke="rgb(41,67,104)" stroke-width="1" opacity="0.996078431372549" d="M 457.5 344 L 457 345.5 L 455.5 348 L 456 346.5 L 457.5 344 Z " /><path fill="rgb(41,67,104)" stroke="rgb(41,67,104)" stroke-width="1" opacity="0.996078431372549" d="M 219.5 345 L 222 348.5 L 220 347.5 L 219.5 345 Z " /><path fill="rgb(41,67,104)" stroke="rgb(41,67,104)" stroke-width="1" opacity="0.996078431372549" d="M 233.5 346 L 234.5 348 L 233.5 346 Z " /><path fill="rgb(41,67,104)" stroke="rgb(41,67,104)" stroke-width="1" opacity="0.996078431372549" d="M 69.5 347 L 70 351.5 L 69 351.5 L 69.5 347 Z " /><path fill="rgb(41,67,104)" stroke="rgb(41,67,104)" stroke-width="1" opacity="0.996078431372549" d="M 259.5 347 L 261.5 350 L 259.5 347 Z " /><path fill="rgb(41,67,104)" stroke="rgb(41,67,104)" stroke-width="1" opacity="0.996078431372549" d="M 201.5 348 L 204 351.5 L 202 350.5 L 201.5 348 Z " /><path fill="rgb(41,67,104)" stroke="rgb(41,67,104)" stroke-width="1" opacity="0.996078431372549" d="M 435.5 348 L 434.5 350 L 435.5 348 Z " /><path fill="rgb(41,67,104)" stroke="rgb(41,67,104)" stroke-width="1" opacity="0.996078431372549" d="M 235.5 349 L 236.5 351 L 235.5 349 Z " /><path fill="rgb(41,67,104)" stroke="rgb(41,67,104)" stroke-width="1" opacity="0.996078431372549" d="M 275.5 349 L 285.5 360 L 275.5 349 Z " /><path fill="rgb(41,67,104)" stroke="rgb(41,67,104)" stroke-width="1" opacity="0.996078431372549" d="M 189.5 350 L 192 353.5 L 190 352.5 L 189.5 350 Z " /><path fill="rgb(41,67,104)" stroke="rgb(41,67,104)" stroke-width="1" opacity="0.996078431372549" d="M 222.5 350 L 223.5 352 L 222.5 350 Z " /><path fill="rgb(41,67,104)" stroke="rgb(41,67,104)" stroke-width="1" opacity="0.996078431372549" d="M 420.5 350 L 419.5 352 L 420.5 350 Z " /><path fill="rgb(41,67,104)" stroke="rgb(41,67,104)" stroke-width="1" opacity="0.996078431372549" d="M 433.5 351 L 432.5 353 L 433.5 351 Z " /><path fill="rgb(41,67,104)" stroke="rgb(41,67,104)" stroke-width="1" opacity="0.996078431372549" d="M 453.5 351 L 452.5 353 L 453.5 351 Z " /><path fill="rgb(41,67,104)" stroke="rgb(41,67,104)" stroke-width="1" opacity="0.996078431372549" d="M 237.5 352 L 246 362.5 L 242 359.5 L 237.5 352 Z " /><path fill="rgb(41,67,104)" stroke="rgb(41,67,104)" stroke-width="1" opacity="0.996078431372549" d="M 263.5 352 L 266.5 356 L 263.5 352 Z " /><path fill="rgb(41,67,104)" stroke="rgb(41,67,104)" stroke-width="1" opacity="0.996078431372549" d="M 224.5 353 L 225.5 355 L 224.5 353 Z " /><path fill="rgb(41,67,104)" stroke="rgb(41,67,104)" stroke-width="1" opacity="0.996078431372549" d="M 418.5 353 L 417.5 355 L 418.5 353 Z " /><path fill="rgb(41,67,104)" stroke="rgb(41,67,104)" stroke-width="1" opacity="0.996078431372549" d="M 431.5 354 L 430.5 356 L 431.5 354 Z " /><path fill="rgb(41,67,104)" stroke="rgb(41,67,104)" stroke-width="1" opacity="0.996078431372549" d="M 68.5 355 L 69 367.5 L 68 367.5 L 68.5 355 Z " /><path fill="rgb(41,67,104)" stroke="rgb(41,67,104)" stroke-width="1" opacity="0.996078431372549" d="M 205.5 355 L 206.5 357 L 205.5 355 Z " /><path fill="rgb(41,67,104)" stroke="rgb(41,67,104)" stroke-width="1" opacity="0.996078431372549" d="M 226.5 356 L 227.5 358 L 226.5 356 Z " /><path fill="rgb(41,67,104)" stroke="rgb(41,67,104)" stroke-width="1" opacity="0.996078431372549" d="M 416.5 356 L 414.5 359 L 416.5 356 Z " /><path fill="rgb(41,67,104)" stroke="rgb(41,67,104)" stroke-width="1" opacity="0.996078431372549" d="M 450.5 356 L 449.5 358 L 450.5 356 Z " /><path fill="rgb(41,67,104)" stroke="rgb(41,67,104)" stroke-width="1" opacity="0.996078431372549" d="M 193.5 357 L 194.5 359 L 193.5 357 Z " /><path fill="rgb(41,67,104)" stroke="rgb(41,67,104)" stroke-width="1" opacity="0.996078431372549" d="M 429.5 357 L 428.5 359 L 429.5 357 Z " /><path fill="rgb(41,67,104)" stroke="rgb(41,67,104)" stroke-width="1" opacity="0.996078431372549" d="M 207.5 358 L 208.5 360 L 207.5 358 Z " /><path fill="rgb(41,67,104)" stroke="rgb(41,67,104)" stroke-width="1" opacity="0.996078431372549" d="M 268.5 358 L 279.5 370 L 268.5 358 Z " /><path fill="rgb(41,67,104)" stroke="rgb(41,67,104)" stroke-width="1" opacity="0.996078431372549" d="M 228.5 359 L 230.5 362 L 228.5 359 Z " /><path fill="rgb(41,67,104)" stroke="rgb(41,67,104)" stroke-width="1" opacity="0.996078431372549" d="M 448.5 359 L 447.5 361 L 448.5 359 Z " /><path fill="rgb(41,67,104)" stroke="rgb(41,67,104)" stroke-width="1" opacity="0.996078431372549" d="M 427.5 360 L 425.5 363 L 427.5 360 Z " /><path fill="rgb(41,67,104)" stroke="rgb(41,67,104)" stroke-width="1" opacity="0.996078431372549" d="M 209.5 361 L 210.5 363 L 209.5 361 Z " /><path fill="rgb(41,67,104)" stroke="rgb(41,67,104)" stroke-width="1" opacity="0.996078431372549" d="M 412.5 361 L 410.5 364 L 412.5 361 Z " /><path fill="rgb(41,67,104)" stroke="rgb(41,67,104)" stroke-width="1" opacity="0.996078431372549" d="M 196.5 362 L 197.5 364 L 196.5 362 Z " /><path fill="rgb(41,67,104)" stroke="rgb(41,67,104)" stroke-width="1" opacity="0.996078431372549" d="M 446.5 362 L 445.5 364 L 446.5 362 Z " /><path fill="rgb(41,67,104)" stroke="rgb(41,67,104)" stroke-width="1" opacity="0.996078431372549" d="M 231.5 363 L 233.5 366 L 231.5 363 Z " /><path fill="rgb(41,67,104)" stroke="rgb(41,67,104)" stroke-width="1" opacity="0.996078431372549" d="M 211.5 364 L 212.5 366 L 211.5 364 Z " /><path fill="rgb(41,67,104)" stroke="rgb(41,67,104)" stroke-width="1" opacity="0.996078431372549" d="M 246.5 364 L 252.5 371 L 246.5 364 Z " /><path fill="rgb(41,67,104)" stroke="rgb(41,67,104)" stroke-width="1" opacity="0.996078431372549" d="M 424.5 364 L 422.5 367 L 424.5 364 Z " /><path fill="rgb(41,67,104)" stroke="rgb(41,67,104)" stroke-width="1" opacity="0.996078431372549" d="M 198.5 365 L 199.5 367 L 198.5 365 Z " /><path fill="rgb(41,67,104)" stroke="rgb(41,67,104)" stroke-width="1" opacity="0.996078431372549" d="M 444.5 365 L 443.5 367 L 444.5 365 Z " /><path fill="rgb(41,67,104)" stroke="rgb(41,67,104)" stroke-width="1" opacity="0.996078431372549" d="M 408.5 366 L 403.5 372 L 408.5 366 Z " /><path fill="rgb(41,67,104)" stroke="rgb(41,67,104)" stroke-width="1" opacity="0.996078431372549" d="M 213.5 367 L 214.5 369 L 213.5 367 Z " /><path fill="rgb(41,67,104)" stroke="rgb(41,67,104)" stroke-width="1" opacity="0.996078431372549" d="M 234.5 367 L 236.5 370 L 234.5 367 Z " /><path fill="rgb(41,67,104)" stroke="rgb(41,67,104)" stroke-width="1" opacity="0.996078431372549" d="M 200.5 368 L 201.5 370 L 200.5 368 Z " /><path fill="rgb(41,67,104)" stroke="rgb(41,67,104)" stroke-width="1" opacity="0.996078431372549" d="M 421.5 368 L 418.5 372 L 421.5 368 Z " /><path fill="rgb(41,67,104)" stroke="rgb(41,67,104)" stroke-width="1" opacity="0.996078431372549" d="M 442.5 368 L 441.5 370 L 442.5 368 Z " /><path fill="rgb(41,67,104)" stroke="rgb(41,67,104)" stroke-width="1" opacity="0.996078431372549" d="M 69.5 370 L 70 374.5 L 69 374.5 L 69.5 370 Z " /><path fill="rgb(41,67,104)" stroke="rgb(41,67,104)" stroke-width="1" opacity="0.996078431372549" d="M 215.5 370 L 217.5 373 L 215.5 370 Z " /><path fill="rgb(41,67,104)" stroke="rgb(41,67,104)" stroke-width="1" opacity="0.996078431372549" d="M 202.5 371 L 203.5 373 L 202.5 371 Z " /><path fill="rgb(41,67,104)" stroke="rgb(41,67,104)" stroke-width="1" opacity="0.996078431372549" d="M 440.5 371 L 438.5 374 L 440.5 371 Z " /><path fill="rgb(41,67,104)" stroke="rgb(41,67,104)" stroke-width="1" opacity="0.996078431372549" d="M 238.5 372 L 242.5 377 L 238.5 372 Z " /><path fill="rgb(41,67,104)" stroke="rgb(41,67,104)" stroke-width="1" opacity="0.996078431372549" d="M 253.5 372 L 265.5 385 L 253.5 372 Z " /><path fill="rgb(41,67,104)" stroke="rgb(41,67,104)" stroke-width="1" opacity="0.996078431372549" d="M 204.5 374 L 206.5 377 L 204.5 374 Z " /><path fill="rgb(41,67,104)" stroke="rgb(41,67,104)" stroke-width="1" opacity="0.996078431372549" d="M 218.5 374 L 220.5 377 L 218.5 374 Z " /><path fill="rgb(41,67,104)" stroke="rgb(41,67,104)" stroke-width="1" opacity="0.996078431372549" d="M 416.5 374 L 411.5 380 L 416.5 374 Z " /><path fill="rgb(41,67,104)" stroke="rgb(41,67,104)" stroke-width="1" opacity="0.996078431372549" d="M 437.5 375 L 435.5 378 L 437.5 375 Z " /><path fill="rgb(41,67,104)" stroke="rgb(41,67,104)" stroke-width="1" opacity="0.996078431372549" d="M 70.5 376 L 71 378.5 L 70 378.5 L 70.5 376 Z " /><path fill="rgb(41,67,104)" stroke="rgb(41,67,104)" stroke-width="1" opacity="0.996078431372549" d="M 398.5 377 L 396.5 380 L 398.5 377 Z " /><path fill="rgb(41,67,104)" stroke="rgb(41,67,104)" stroke-width="1" opacity="0.996078431372549" d="M 207.5 378 L 209 381.5 L 208 381.5 L 207.5 378 Z " /><path fill="rgb(41,67,104)" stroke="rgb(41,67,104)" stroke-width="1" opacity="0.996078431372549" d="M 221.5 378 L 224.5 382 L 221.5 378 Z " /><path fill="rgb(41,67,104)" stroke="rgb(41,67,104)" stroke-width="1" opacity="0.996078431372549" d="M 244.5 379 L 257.5 393 L 244.5 379 Z " /><path fill="rgb(41,67,104)" stroke="rgb(41,67,104)" stroke-width="1" opacity="0.996078431372549" d="M 71.5 380 L 74 387.5 L 73 387.5 L 71.5 380 Z " /><path fill="rgb(41,67,104)" stroke="rgb(41,67,104)" stroke-width="1" opacity="0.996078431372549" d="M 433.5 380 L 431.5 383 L 433.5 380 Z " /><path fill="rgb(41,67,104)" stroke="rgb(41,67,104)" stroke-width="1" opacity="0.996078431372549" d="M 225.5 383 L 229.5 388 L 225.5 383 Z " /><path fill="rgb(41,67,104)" stroke="rgb(41,67,104)" stroke-width="1" opacity="0.996078431372549" d="M 390.5 384 L 385.5 390 L 390.5 384 Z " /><path fill="rgb(41,67,104)" stroke="rgb(41,67,104)" stroke-width="1" opacity="0.996078431372549" d="M 407.5 384 L 403.5 389 L 407.5 384 Z " /><path fill="rgb(41,67,104)" stroke="rgb(41,67,104)" stroke-width="1" opacity="0.996078431372549" d="M 430.5 384 L 425.5 390 L 430.5 384 Z " /><path fill="rgb(41,67,104)" stroke="rgb(41,67,104)" stroke-width="1" opacity="0.996078431372549" d="M 267.5 385 L 272.5 391 L 267.5 385 Z " /><path fill="rgb(41,67,104)" stroke="rgb(41,67,104)" stroke-width="1" opacity="0.996078431372549" d="M 74.5 389 L 79 397.5 L 77 396.5 L 74.5 389 Z " /><path fill="rgb(41,67,104)" stroke="rgb(41,67,104)" stroke-width="1" opacity="0.996078431372549" d="M 230.5 389 L 238.5 398 L 230.5 389 Z " /><path fill="rgb(41,67,104)" stroke="rgb(41,67,104)" stroke-width="1" opacity="0.996078431372549" d="M 204.5 391 L 205 392.5 L 201.5 398 L 202 396.5 L 204.5 391 Z " /><path fill="rgb(41,67,104)" stroke="rgb(41,67,104)" stroke-width="1" opacity="0.996078431372549" d="M 274.5 391 L 277.5 395 L 274.5 391 Z " /><path fill="rgb(41,67,104)" stroke="rgb(41,67,104)" stroke-width="1" opacity="0.996078431372549" d="M 382.5 391 L 380.5 394 L 382.5 391 Z " /><path fill="rgb(41,67,104)" stroke="rgb(41,67,104)" stroke-width="1" opacity="0.996078431372549" d="M 398.5 392 L 393.5 398 L 398.5 392 Z " /><path fill="rgb(41,67,104)" stroke="rgb(41,67,104)" stroke-width="1" opacity="0.996078431372549" d="M 423.5 392 L 403.5 413 L 423.5 392 Z " /><path fill="rgb(41,67,104)" stroke="rgb(41,67,104)" stroke-width="1" opacity="0.996078431372549" d="M 260.5 394 L 265.5 400 L 260.5 394 Z " /><path fill="rgb(41,67,104)" stroke="rgb(41,67,104)" stroke-width="1" opacity="0.996078431372549" d="M 279.5 395 L 281.5 398 L 279.5 395 Z " /><path fill="rgb(41,67,104)" stroke="rgb(41,67,104)" stroke-width="1" opacity="0.996078431372549" d="M 377.5 395 L 376.5 397 L 377.5 395 Z " /><path fill="rgb(41,67,104)" stroke="rgb(41,67,104)" stroke-width="1" opacity="0.996078431372549" d="M 283.5 398 L 284.5 400 L 283.5 398 Z " /><path fill="rgb(41,67,104)" stroke="rgb(41,67,104)" stroke-width="1" opacity="0.996078431372549" d="M 373.5 398 L 372.5 400 L 373.5 398 Z " /><path fill="rgb(41,67,104)" stroke="rgb(41,67,104)" stroke-width="1" opacity="0.996078431372549" d="M 79.5 399 L 80.5 401 L 79.5 399 Z " /><path fill="rgb(41,67,104)" stroke="rgb(41,67,104)" stroke-width="1" opacity="0.996078431372549" d="M 200.5 399 L 199.5 401 L 200.5 399 Z " /><path fill="rgb(41,67,104)" stroke="rgb(41,67,104)" stroke-width="1" opacity="0.996078431372549" d="M 390.5 399 L 387.5 403 L 390.5 399 Z " /><path fill="rgb(41,67,104)" stroke="rgb(41,67,104)" stroke-width="1" opacity="0.996078431372549" d="M 267.5 400 L 270.5 404 L 267.5 400 Z " /><path fill="rgb(41,67,104)" stroke="rgb(41,67,104)" stroke-width="1" opacity="0.996078431372549" d="M 286.5 400 L 288.5 403 L 286.5 400 Z " /><path fill="rgb(41,67,104)" stroke="rgb(41,67,104)" stroke-width="1" opacity="0.996078431372549" d="M 370.5 400 L 369.5 402 L 370.5 400 Z " /><path fill="rgb(41,67,104)" stroke="rgb(41,67,104)" stroke-width="1" opacity="0.996078431372549" d="M 81.5 402 L 95.5 417 L 99 419.5 L 96.5 418 L 83 405.5 L 81.5 402 Z " /><path fill="rgb(41,67,104)" stroke="rgb(41,67,104)" stroke-width="1" opacity="0.996078431372549" d="M 198.5 402 L 197.5 404 L 198.5 402 Z " /><path fill="rgb(41,67,104)" stroke="rgb(41,67,104)" stroke-width="1" opacity="0.996078431372549" d="M 367.5 402 L 366.5 404 L 367.5 402 Z " /><path fill="rgb(41,67,104)" stroke="rgb(41,67,104)" stroke-width="1" opacity="0.996078431372549" d="M 290.5 403 L 297 407.5 L 295.5 407 Q 290.9 405.8 290.5 403 Z " /><path fill="rgb(41,67,104)" stroke="rgb(41,67,104)" stroke-width="1" opacity="0.996078431372549" d="M 385.5 403 L 383.5 406 L 385.5 403 Z " /><path fill="rgb(41,67,104)" stroke="rgb(41,67,104)" stroke-width="1" opacity="0.996078431372549" d="M 272.5 404 L 274.5 407 L 272.5 404 Z " /><path fill="rgb(41,67,104)" stroke="rgb(41,67,104)" stroke-width="1" opacity="0.996078431372549" d="M 364.5 404 L 363.5 406 L 364.5 404 Z " /><path fill="rgb(41,67,104)" stroke="rgb(41,67,104)" stroke-width="1" opacity="0.996078431372549" d="M 196.5 405 L 184.5 418 L 196.5 405 Z " /><path fill="rgb(41,67,104)" stroke="rgb(41,67,104)" stroke-width="1" opacity="0.996078431372549" d="M 247.5 406 L 256.5 416 L 247.5 406 Z " /><path fill="rgb(41,67,104)" stroke="rgb(41,67,104)" stroke-width="1" opacity="0.996078431372549" d="M 361.5 406 L 360.5 408 L 361.5 406 Z " /><path fill="rgb(41,67,104)" stroke="rgb(41,67,104)" stroke-width="1" opacity="0.996078431372549" d="M 381.5 406 L 379.5 409 L 381.5 406 Z " /><path fill="rgb(41,67,104)" stroke="rgb(41,67,104)" stroke-width="1" opacity="0.996078431372549" d="M 276.5 407 L 282 411.5 L 279.5 410 L 276.5 407 Z " /><path fill="rgb(41,67,104)" stroke="rgb(41,67,104)" stroke-width="1" opacity="0.996078431372549" d="M 298.5 408 L 302 410.5 L 300.5 410 L 298.5 408 Z " /><path fill="rgb(41,67,104)" stroke="rgb(41,67,104)" stroke-width="1" opacity="0.996078431372549" d="M 356.5 409 L 355.5 411 L 356.5 409 Z " /><path fill="rgb(41,67,104)" stroke="rgb(41,67,104)" stroke-width="1" opacity="0.996078431372549" d="M 377.5 409 L 376.5 411 L 377.5 409 Z " /><path fill="rgb(41,67,104)" stroke="rgb(41,67,104)" stroke-width="1" opacity="0.996078431372549" d="M 374.5 411 L 373.5 413 L 374.5 411 Z " /><path fill="rgb(41,67,104)" stroke="rgb(41,67,104)" stroke-width="1" opacity="0.996078431372549" d="M 283.5 412 L 284.5 414 L 283.5 412 Z " /><path fill="rgb(41,67,104)" stroke="rgb(41,67,104)" stroke-width="1" opacity="0.996078431372549" d="M 307.5 413 L 308.5 415 L 307.5 413 Z " /><path fill="rgb(41,67,104)" stroke="rgb(41,67,104)" stroke-width="1" opacity="0.996078431372549" d="M 349.5 413 L 348.5 415 L 349.5 413 Z " /><path fill="rgb(41,67,104)" stroke="rgb(41,67,104)" stroke-width="1" opacity="0.996078431372549" d="M 371.5 413 L 370.5 415 L 371.5 413 Z " /><path fill="rgb(41,67,104)" stroke="rgb(41,67,104)" stroke-width="1" opacity="0.996078431372549" d="M 400.5 414 L 396.5 419 L 400.5 414 Z " /><path fill="rgb(41,67,104)" stroke="rgb(41,67,104)" stroke-width="1" opacity="0.996078431372549" d="M 288.5 415 L 289.5 417 L 288.5 415 Z " /><path fill="rgb(41,67,104)" stroke="rgb(41,67,104)" stroke-width="1" opacity="0.996078431372549" d="M 368.5 415 L 367.5 417 L 368.5 415 Z " /><path fill="rgb(41,67,104)" stroke="rgb(41,67,104)" stroke-width="1" opacity="0.996078431372549" d="M 258.5 416 L 262.5 421 L 258.5 416 Z " /><path fill="rgb(41,67,104)" stroke="rgb(41,67,104)" stroke-width="1" opacity="0.996078431372549" d="M 291.5 417 L 295 419.5 L 293.5 419 L 291.5 417 Z " /><path fill="rgb(41,67,104)" stroke="rgb(41,67,104)" stroke-width="1" opacity="0.996078431372549" d="M 314.5 417 L 315.5 419 L 314.5 417 Z " /><path fill="rgb(41,67,104)" stroke="rgb(41,67,104)" stroke-width="1" opacity="0.996078431372549" d="M 342.5 417 L 341.5 419 L 342.5 417 Z " /><path fill="rgb(41,67,104)" stroke="rgb(41,67,104)" stroke-width="1" opacity="0.996078431372549" d="M 182.5 418 L 180.5 421 L 182.5 418 Z " /><path fill="rgb(41,67,104)" stroke="rgb(41,67,104)" stroke-width="1" opacity="0.996078431372549" d="M 363.5 418 L 362.5 420 L 363.5 418 Z " /><path fill="rgb(41,67,104)" stroke="rgb(41,67,104)" stroke-width="1" opacity="0.996078431372549" d="M 100.5 420 L 101.5 422 L 100.5 420 Z " /><path fill="rgb(41,67,104)" stroke="rgb(41,67,104)" stroke-width="1" opacity="0.996078431372549" d="M 393.5 420 L 390.5 424 L 393.5 420 Z " /><path fill="rgb(41,67,104)" stroke="rgb(41,67,104)" stroke-width="1" opacity="0.996078431372549" d="M 264.5 421 L 267.5 425 L 264.5 421 Z " /><path fill="rgb(41,67,104)" stroke="rgb(41,67,104)" stroke-width="1" opacity="0.996078431372549" d="M 298.5 421 L 299.5 423 L 298.5 421 Z " /><path fill="rgb(41,67,104)" stroke="rgb(41,67,104)" stroke-width="1" opacity="0.996078431372549" d="M 321.5 421 L 322.5 423 L 321.5 421 Z " /><path fill="rgb(41,67,104)" stroke="rgb(41,67,104)" stroke-width="1" opacity="0.996078431372549" d="M 335.5 421 L 334.5 423 L 332.5 424 L 333.5 422 L 335.5 421 Z " /><path fill="rgb(41,67,104)" stroke="rgb(41,67,104)" stroke-width="1" opacity="0.996078431372549" d="M 103.5 422 L 117 428.5 L 115.5 429 L 104.5 424 L 103.5 422 Z " /><path fill="rgb(41,67,104)" stroke="rgb(41,67,104)" stroke-width="1" opacity="0.996078431372549" d="M 176.5 422 L 175.5 424 L 176.5 422 Z " /><path fill="rgb(41,67,104)" stroke="rgb(41,67,104)" stroke-width="1" opacity="0.996078431372549" d="M 356.5 422 L 355.5 424 L 356.5 422 Z " /><path fill="rgb(41,67,104)" stroke="rgb(41,67,104)" stroke-width="1" opacity="0.996078431372549" d="M 326.5 424 L 329 425.5 L 327.5 426 L 326.5 424 Z " /><path fill="rgb(41,67,104)" stroke="rgb(41,67,104)" stroke-width="1" opacity="0.996078431372549" d="M 388.5 424 L 386.5 427 L 388.5 424 Z " /><path fill="rgb(41,67,104)" stroke="rgb(41,67,104)" stroke-width="1" opacity="0.996078431372549" d="M 269.5 425 L 271.5 428 L 269.5 425 Z " /><path fill="rgb(41,67,104)" stroke="rgb(41,67,104)" stroke-width="1" opacity="0.996078431372549" d="M 305.5 425 L 306.5 427 L 305.5 425 Z " /><path fill="rgb(41,67,104)" stroke="rgb(41,67,104)" stroke-width="1" opacity="0.996078431372549" d="M 351.5 425 L 350.5 427 L 348.5 428 L 349.5 426 L 351.5 425 Z " /><path fill="rgb(41,67,104)" stroke="rgb(41,67,104)" stroke-width="1" opacity="0.996078431372549" d="M 384.5 427 L 382.5 430 L 384.5 427 Z " /><path fill="rgb(41,67,104)" stroke="rgb(41,67,104)" stroke-width="1" opacity="0.996078431372549" d="M 273.5 428 L 274.5 430 L 273.5 428 Z " /><path fill="rgb(41,67,104)" stroke="rgb(41,67,104)" stroke-width="1" opacity="0.996078431372549" d="M 118.5 429 L 125 430.5 L 121.5 431 L 118.5 430 L 118.5 429 Z " /><path fill="rgb(41,67,104)" stroke="rgb(41,67,104)" stroke-width="1" opacity="0.996078431372549" d="M 312.5 429 L 313.5 431 L 312.5 429 Z " /><path fill="rgb(41,67,104)" stroke="rgb(41,67,104)" stroke-width="1" opacity="0.996078431372549" d="M 344.5 429 L 343.5 431 L 341.5 432 L 342.5 430 L 344.5 429 Z " /><path fill="rgb(41,67,104)" stroke="rgb(41,67,104)" stroke-width="1" opacity="0.996078431372549" d="M 276.5 430 L 278.5 433 L 276.5 430 Z " /><path fill="rgb(41,67,104)" stroke="rgb(41,67,104)" stroke-width="1" opacity="0.996078431372549" d="M 380.5 430 L 379.5 432 L 380.5 430 Z " /><path fill="rgb(41,67,104)" stroke="rgb(41,67,104)" stroke-width="1" opacity="0.996078431372549" d="M 126.5 431 L 130 431.5 L 126.5 432 L 126.5 431 Z " /><path fill="rgb(41,67,104)" stroke="rgb(41,67,104)" stroke-width="1" opacity="0.996078431372549" d="M 132.5 432 L 148 432.5 L 132.5 433 L 132.5 432 Z " /><path fill="rgb(41,67,104)" stroke="rgb(41,67,104)" stroke-width="1" opacity="0.996078431372549" d="M 377.5 432 L 376.5 434 L 377.5 432 Z " /><path fill="rgb(41,67,104)" stroke="rgb(41,67,104)" stroke-width="1" opacity="0.996078431372549" d="M 280.5 433 L 281.5 435 L 280.5 433 Z " /><path fill="rgb(41,67,104)" stroke="rgb(41,67,104)" stroke-width="1" opacity="0.996078431372549" d="M 319.5 433 L 320.5 435 L 319.5 433 Z " /><path fill="rgb(41,67,104)" stroke="rgb(41,67,104)" stroke-width="1" opacity="0.996078431372549" d="M 337.5 433 L 336.5 435 L 334.5 436 L 335.5 434 L 337.5 433 Z " /><path fill="rgb(41,67,104)" stroke="rgb(41,67,104)" stroke-width="1" opacity="0.996078431372549" d="M 374.5 434 L 373.5 436 L 374.5 434 Z " /><path fill="rgb(41,67,104)" stroke="rgb(41,67,104)" stroke-width="1" opacity="0.996078431372549" d="M 283.5 435 L 284.5 437 L 283.5 435 Z " /><path fill="rgb(41,67,104)" stroke="rgb(41,67,104)" stroke-width="1" opacity="0.996078431372549" d="M 371.5 436 L 370.5 438 L 371.5 436 Z " /><path fill="rgb(41,67,104)" stroke="rgb(41,67,104)" stroke-width="1" opacity="0.996078431372549" d="M 286.5 437 L 287.5 439 L 286.5 437 Z " /><path fill="rgb(41,67,104)" stroke="rgb(41,67,104)" stroke-width="1" opacity="0.996078431372549" d="M 368.5 438 L 367.5 440 L 368.5 438 Z " /><path fill="rgb(41,67,104)" stroke="rgb(41,67,104)" stroke-width="1" opacity="0.996078431372549" d="M 291.5 440 L 292.5 442 L 291.5 440 Z " /><path fill="rgb(41,67,104)" stroke="rgb(41,67,104)" stroke-width="1" opacity="0.996078431372549" d="M 365.5 440 L 364.5 442 L 362.5 443 L 363.5 441 L 365.5 440 Z " /><path fill="rgb(41,67,104)" stroke="rgb(41,67,104)" stroke-width="1" opacity="0.996078431372549" d="M 294.5 442 L 298 444.5 L 296.5 444 L 294.5 442 Z " /><path fill="rgb(41,67,104)" stroke="rgb(41,67,104)" stroke-width="1" opacity="0.996078431372549" d="M 358.5 444 L 357.5 446 L 358.5 444 Z " /><path fill="rgb(41,67,104)" stroke="rgb(41,67,104)" stroke-width="1" opacity="0.996078431372549" d="M 303.5 447 L 311 451.5 L 309.5 451 Q 303.9 450.2 303.5 447 Z " /><path fill="rgb(41,67,104)" stroke="rgb(41,67,104)" stroke-width="1" opacity="0.996078431372549" d="M 349.5 449 L 348.5 451 L 329.5 460 L 329.5 459 L 349.5 449 Z " /><path fill="rgb(41,67,104)" stroke="rgb(41,67,104)" stroke-width="1" opacity="0.996078431372549" d="M 48.5 452 L 49.5 454 L 48.5 452 Z " /><path fill="rgb(89,192,153)" stroke="rgb(89,192,153)" stroke-width="1" opacity="1" d="M 149.5 78 Q 154.9 77.4 155 78.5 L 155 156.5 Q 153.8 159.3 152.5 157 L 148.5 157 L 140.5 154 L 126 141.5 Q 120.9 135.1 119 125.5 L 119 109.5 Q 122.9 93.4 134.5 85 L 149.5 78 Z " /><path fill="rgb(89,192,153)" stroke="rgb(89,192,153)" stroke-width="1" opacity="1" d="M 133.5 290 L 149.5 290 L 162.5 293 L 166 295.5 L 177 326.5 Q 189.1 354.9 207 377.5 L 208 383.5 Q 200.4 405.4 183.5 418 Q 172.5 427 156.5 431 L 151.5 432 L 130.5 432 Q 99.6 426.4 84 405.5 Q 75.2 394.8 71 379.5 L 69 369.5 L 69 352.5 Q 74 322.5 93.5 307 Q 102.7 298.7 115.5 294 L 133.5 290 Z " /><path fill="rgb(40,66,104)" stroke="rgb(40,66,104)" stroke-width="1" opacity="1" d="M 158.5 23 L 498.5 23 L 501 25.5 L 502 27.5 L 502 227.5 L 501 228.5 L 500 251.5 L 495 279.5 L 490 297.5 L 479 327.5 Q 454.7 381.7 413.5 419 L 405 425 Q 406.1 427.7 403.5 427 Q 386.1 443.1 364.5 455 L 335.5 470 L 330.5 472 L 325.5 472 Q 291.5 457 263.5 436 Q 243 420.5 226 401.5 L 224 398.5 L 219 392 L 216 393.5 Q 211.4 406.4 203 415.5 L 226.5 438 L 240.5 424 L 246.5 424 Q 249.8 425.7 249 431.5 L 212.5 469 Q 206.3 470.3 205 466.5 L 204 462.5 L 218 447.5 L 218 445 L 216.5 445 L 194.5 424 L 174.5 437 L 160.5 442 L 149.5 444 L 147.5 444 L 144 444.5 L 144 478 L 164.5 478 L 168 481.5 Q 169.3 487.8 165.5 489 L 111.5 489 L 110 487.5 L 109 481.5 L 112.5 478 L 133 478 L 133 444.5 L 131.5 444 L 130.5 443 L 119.5 442 L 107.5 438 Q 95 433 86.5 424 L 82.5 423 L 59 446.5 L 61 448.5 L 72 460.5 L 73 465.5 Q 71.8 470.3 64.5 469 L 53 457.5 L 53 456 L 50 454.5 L 48.5 452 L 45 449.5 L 29 432.5 L 28 427.5 Q 29.3 422.8 36.5 424 L 51.5 438 L 76 413.5 L 73 410.5 L 62 390.5 L 58 376.5 L 57 367 L 22 367 L 22 386.5 L 19.5 390 L 14.5 391 L 11 388.5 L 10 386.5 L 10 336.5 L 13.5 332 Q 19.8 330.8 21 334.5 L 22 336.5 L 22 355 L 56.5 355 L 57 352.5 L 62 331.5 Q 67.1 318.1 76 308.5 L 59 292.5 Q 59.8 290.3 57.5 291 L 54 286 L 50.5 284 L 38.5 297 Q 37.1 299.6 32.5 299 L 29 296.5 L 28 291.5 L 56.5 261 Q 58.8 261.8 58 259.5 L 62 257 L 63.5 254 L 69.5 253 Q 73.7 254.3 73 260.5 L 68.5 266 Q 66.3 265.3 67 267.5 L 59 277 L 60.5 277 L 83.5 300 Q 94 290 108.5 284 L 121.5 280 L 131.5 279 L 133 277.5 L 133 244 L 112.5 244 L 110 243 L 109 236.5 L 112.5 233 L 155 233 L 155 197 L 141.5 197 Q 137 196 138 189.5 L 141.5 186 L 152 186 L 152 169.5 Q 152 168.5 147.5 169 L 138.5 166 L 126.5 158 L 124.5 158 L 113.5 170 L 117 172.5 L 121 177.5 L 121 180.5 L 117.5 185 Q 109.4 185.1 107 179.5 Q 107.8 177.3 105.5 178 L 90 161.5 L 89 157.5 L 91.5 154 L 97.5 153 L 105.5 161 L 117 149.5 L 109 134.5 L 107 123 L 90 123 L 90 133.5 L 87.5 137 L 83.5 138 L 79 134.5 L 79 100.5 L 81.5 98 Q 86.9 97.4 89 99 L 90 101.5 L 90 112 L 106.5 112 L 107 109.5 Q 109.7 95.2 117 85.5 L 107 76.5 Q 107.8 73.9 104.5 75 L 97.5 82 L 92.5 82 Q 89.3 80.3 89 75.5 L 111.5 51 L 116.5 50 L 120 52.5 L 121 57.5 L 114 66.5 L 124.5 77 L 126.5 77 Q 136.4 66.5 155 66 L 155 50 L 144.5 50 L 139 47.5 L 138 41.5 L 142.5 38 L 155 38 L 155 26.5 L 156 24 L 158.5 23 Z M 166 34 L 166 229 L 167 230 L 167 243 L 168 244 L 170 265 L 177 294 L 189 326 Q 206 361 230 390 Q 269 434 327 460 L 331 460 L 365 442 Q 386 429 404 413 Q 445 376 469 323 L 482 286 L 487 263 L 489 241 L 490 240 L 490 34 L 166 34 Z M 151 77 Q 140 79 134 85 Q 122 94 118 112 L 118 125 Q 120 135 125 142 Q 134 156 155 158 L 155 78 Q 155 77 151 77 Z M 146 244 L 144 246 L 144 278 L 162 281 L 156 246 L 156 244 L 146 244 Z M 138 289 L 137 290 L 123 291 L 114 294 Q 102 298 94 306 Q 82 315 75 330 L 71 340 L 68 356 L 68 368 L 71 383 Q 75 396 83 406 Q 92 417 105 424 L 122 431 L 133 433 L 148 433 L 159 431 Q 174 427 185 418 Q 202 405 209 382 L 209 380 L 193 357 L 179 330 Q 172 314 167 296 L 164 293 L 153 290 L 138 289 Z " /><path fill="rgb(40,66,104)" stroke="rgb(40,66,104)" stroke-width="1" opacity="1" d="M 194.5 57 L 462.5 57 L 466 60.5 L 467 62.5 L 467 239.5 L 466 240.5 L 466 258.5 L 465 259.5 L 465 266.5 L 462 283.5 L 450 320.5 Q 431.3 362.8 399.5 392 L 366.5 417 L 333.5 436 L 327.5 438 L 275.5 407 Q 257.6 393.9 243 377.5 Q 209.2 340.8 195 284.5 L 192 268.5 L 192 261.5 L 191 260.5 L 191 249.5 L 190 248.5 L 190 146.5 Q 191.3 141.8 198.5 143 L 201 146.5 L 201 248.5 L 202 249.5 L 203 267.5 L 208 291.5 Q 225.6 349.4 265.5 385 L 294.5 407 L 328.5 426 L 372.5 400 L 399 377.5 Q 439.2 338.2 453 272.5 L 454 259.5 L 455 258.5 L 455 240.5 L 456 239.5 L 456 68 L 201.5 68 L 201 68.5 L 201 99.5 L 198.5 103 Q 191.3 104.3 190 99.5 L 190 61.5 L 192.5 58 L 194.5 57 Z " /><path fill="rgb(40,66,104)" stroke="rgb(40,66,104)" stroke-width="1" opacity="1" d="M 304.5 133 L 348.5 133 L 353 136.5 L 353 191 L 406.5 191 L 411 194.5 L 411 240.5 L 407.5 244 L 353 244 L 353 298.5 L 349.5 302 L 304.5 302 L 301 299.5 L 300 297.5 L 300 244 L 246.5 244 L 243 241.5 L 242 239.5 L 242 196.5 L 246.5 191 L 300 191 L 300 138.5 L 304.5 133 Z M 311 144 L 311 199 L 310 201 L 308 202 L 253 202 L 253 233 L 308 233 L 311 237 L 311 291 L 342 291 L 342 238 L 343 236 L 347 233 L 400 233 L 400 202 L 346 202 L 342 198 L 342 144 L 311 144 Z " /><path fill="rgb(40,66,104)" stroke="rgb(40,66,104)" stroke-width="1" opacity="1" d="M 233.5 287 Q 238.6 286.4 240 289.5 Q 242.6 292.4 242 298.5 L 241 301 L 235.5 302 L 232 299.5 Q 229.4 296.6 230 290.5 L 233.5 287 Z " /><path fill="rgb(40,66,104)" stroke="rgb(40,66,104)" stroke-width="1" opacity="1" d="M 248.5 316 L 250.5 316 L 255 320.5 L 264 335.5 Q 274 350 287 361.5 L 288 365.5 L 285.5 369 L 280.5 370 Q 266.7 357.8 256 342.5 L 246 327.5 Q 243.3 325.2 244 319.5 L 248.5 316 Z " /></svg>