<svg width="512" height="512" version="1.1" xmlns="http://www.w3.org/2000/svg" desc="Created with imagetracer.js version 1.2.6" ><path fill="rgb(0,0,0)" stroke="rgb(0,0,0)" stroke-width="1" opacity="0" d="M 0 0 L 116 0.5 Q 107.9 2.4 104 8.5 L 89 30.5 Q 86.1 35.1 87 43.5 Q 89 53.5 96.5 58 L 143 88.5 L 141.5 90 L 122.5 94 L 92.5 107 Q 63.6 123.1 43 147.5 Q 19.8 174.3 8 212.5 L 2 244.5 L 2 277.5 L 7 305.5 L 15 328.5 Q 29 361 52.5 384 Q 74.8 406.9 106 420 Q 107.3 423.7 101.5 422 Q 80.3 427.8 69 443.5 Q 60.8 453.3 58 468.5 L 58 497 L 25.5 497 L 21 501.5 Q 19.5 510 25 511.5 L 0 512 L 0 0 Z " /><path fill="rgb(0,0,0)" stroke="rgb(0,0,0)" stroke-width="1" opacity="0" d="M 126.5 0 L 512 0 L 512 512 L 390 511.5 L 394 508.5 L 395 502.5 L 391.5 498 L 389.5 497 L 358 497 L 358 471.5 L 356 461.5 Q 349.8 443.8 336.5 433 Q 324 421.7 302 421 L 302 400.5 L 301 396.5 L 293.5 387 L 290 386 L 290 365.5 Q 287.4 358.1 281.5 354 L 271.5 351 L 193.5 351 L 185.5 353 L 179 358.5 L 175 367.5 L 175 384 L 152.5 382 L 129.5 375 Q 102.9 363.6 85 343.5 Q 66.9 324.1 58 295.5 L 54 275.5 L 54 246.5 L 58 226.5 L 68 202.5 Q 77.6 185.1 91.5 172 Q 106.9 157.4 127.5 148 L 144.5 142 L 157.5 140 L 168.5 147 L 181 149 L 181 168.5 L 178.5 169 L 174 172.5 L 173 176.5 L 173 208.5 L 175 216.5 L 182.5 225 Q 188.9 229.4 200 228 L 200 277.5 Q 202.4 286.1 209.5 290 L 214.5 292 L 250.5 292 Q 259.1 289.6 263 282.5 L 265 277.5 L 265 228 Q 282.9 229.7 289 218.5 L 292 208.5 L 292 79.5 L 288 61.5 Q 282.6 47.9 272.5 39 Q 258.6 24.4 231.5 23 L 230.5 24 L 217.5 25 L 204.5 30 L 189.5 41 L 134.5 4 L 126.5 1 L 126.5 0 Z M 342 65 Q 332 67 327 72 Q 320 78 318 88 L 318 276 L 317 279 L 276 312 L 270 319 L 271 324 L 277 328 Q 283 329 285 325 L 325 293 Q 331 288 333 279 L 333 255 L 339 257 L 436 257 L 438 256 L 440 253 L 441 250 L 460 250 Q 460 255 465 257 L 491 257 L 502 251 Q 508 246 510 237 L 510 86 L 505 76 Q 499 67 488 65 L 342 65 Z " /><path fill="rgb(0,0,0)" stroke="rgb(0,0,0)" stroke-width="1" opacity="0" d="M 271 505 L 290.5 505 L 292 506.5 Q 291.5 510.5 294.5 511 L 296 511.5 L 267.5 512 L 271 507.5 L 271 505 Z " /><path fill="rgb(102,120,204)" stroke="rgb(102,120,204)" stroke-width="1" opacity="0.996078431372549" d="M 119.5 15 L 123.5 15 L 181 53.5 Q 175.5 62.1 174 74 L 165.5 76 L 157.5 80 L 103 43.5 L 102 38.5 L 117 16 L 119.5 15 Z " /><path fill="rgb(102,120,204)" stroke="rgb(102,120,204)" stroke-width="1" opacity="0.996078431372549" d="M 229.5 38 L 236 38.5 L 229.5 39 L 229.5 38 Z " /><path fill="rgb(102,120,204)" stroke="rgb(102,120,204)" stroke-width="1" opacity="0.996078431372549" d="M 254.5 44 L 255.5 46 L 254.5 44 Z " /><path fill="rgb(102,120,204)" stroke="rgb(102,120,204)" stroke-width="1" opacity="0.996078431372549" d="M 257.5 46 L 258.5 48 L 257.5 46 Z " /><path fill="rgb(102,120,204)" stroke="rgb(102,120,204)" stroke-width="1" opacity="0.996078431372549" d="M 203.5 49 L 199.5 54 L 203.5 49 Z " /><path fill="rgb(102,120,204)" stroke="rgb(102,120,204)" stroke-width="1" opacity="0.996078431372549" d="M 262.5 50 L 264.5 53 L 262.5 50 Z " /><path fill="rgb(102,120,204)" stroke="rgb(102,120,204)" stroke-width="1" opacity="0.996078431372549" d="M 267.5 56 L 268.5 58 L 267.5 56 Z " /><path fill="rgb(102,120,204)" stroke="rgb(102,120,204)" stroke-width="1" opacity="0.996078431372549" d="M 269.5 59 L 270.5 61 L 269.5 59 Z " /><path fill="rgb(102,120,204)" stroke="rgb(102,120,204)" stroke-width="1" opacity="0.996078431372549" d="M 275.5 72 L 276 74.5 L 275 74.5 L 275.5 72 Z " /><path fill="rgb(102,120,204)" stroke="rgb(102,120,204)" stroke-width="1" opacity="0.996078431372549" d="M 189.5 73 L 192 74.5 L 190.5 75 L 189.5 73 Z " /><path fill="rgb(102,120,204)" stroke="rgb(102,120,204)" stroke-width="1" opacity="0.996078431372549" d="M 276.5 79 L 277 208.5 L 276 208.5 L 276.5 79 Z " /><path fill="rgb(102,120,204)" stroke="rgb(102,120,204)" stroke-width="1" opacity="0.996078431372549" d="M 203.5 80 L 204.5 82 L 203.5 80 Z " /><path fill="rgb(102,120,204)" stroke="rgb(102,120,204)" stroke-width="1" opacity="0.996078431372549" d="M 210.5 87 L 211.5 89 L 210.5 87 Z " /><path fill="rgb(102,120,204)" stroke="rgb(102,120,204)" stroke-width="1" opacity="0.996078431372549" d="M 176.5 88 L 186 88.5 L 176.5 89 L 176.5 88 Z " /><path fill="rgb(102,120,204)" stroke="rgb(102,120,204)" stroke-width="1" opacity="0.996078431372549" d="M 170.5 90 L 172 90.5 L 169.5 92 L 170.5 90 Z " /><path fill="rgb(102,120,204)" stroke="rgb(102,120,204)" stroke-width="1" opacity="0.996078431372549" d="M 167.5 92 L 162.5 98 L 167.5 92 Z " /><path fill="rgb(102,120,204)" stroke="rgb(102,120,204)" stroke-width="1" opacity="0.996078431372549" d="M 195.5 93 L 198.5 97 L 195.5 93 Z " /><path fill="rgb(102,120,204)" stroke="rgb(102,120,204)" stroke-width="1" opacity="0.996078431372549" d="M 420.5 99 L 423 99.5 L 420.5 100 L 420.5 99 Z " /><path fill="rgb(102,120,204)" stroke="rgb(102,120,204)" stroke-width="1" opacity="0.996078431372549" d="M 424.5 99 L 428 99.5 L 424.5 100 L 424.5 99 Z " /><path fill="rgb(102,120,204)" stroke="rgb(102,120,204)" stroke-width="1" opacity="0.996078431372549" d="M 375.5 103 L 376.5 105 L 375.5 103 Z " /><path fill="rgb(102,120,204)" stroke="rgb(102,120,204)" stroke-width="1" opacity="0.996078431372549" d="M 218.5 105 L 219 109.5 L 218 109.5 L 218.5 105 Z " /><path fill="rgb(102,120,204)" stroke="rgb(102,120,204)" stroke-width="1" opacity="0.996078431372549" d="M 158.5 106 L 159 114.5 L 158 114.5 L 158.5 106 Z " /><path fill="rgb(102,120,204)" stroke="rgb(102,120,204)" stroke-width="1" opacity="0.996078431372549" d="M 203.5 108 L 204 113.5 L 203 113.5 L 203.5 108 Z " /><path fill="rgb(102,120,204)" stroke="rgb(102,120,204)" stroke-width="1" opacity="0.996078431372549" d="M 398.5 109 L 395.5 113 L 398.5 109 Z " /><path fill="rgb(102,120,204)" stroke="rgb(102,120,204)" stroke-width="1" opacity="0.996078431372549" d="M 218.5 112 L 219 116.5 L 218 116.5 L 218.5 112 Z " /><path fill="rgb(102,120,204)" stroke="rgb(102,120,204)" stroke-width="1" opacity="0.996078431372549" d="M 143.5 114 L 144 116.5 L 143 116.5 L 143.5 114 Z " /><path fill="rgb(102,120,204)" stroke="rgb(102,120,204)" stroke-width="1" opacity="0.996078431372549" d="M 365.5 114 L 366.5 116 L 365.5 114 Z " /><path fill="rgb(102,120,204)" stroke="rgb(102,120,204)" stroke-width="1" opacity="0.996078431372549" d="M 161.5 122 L 162.5 124 L 161.5 122 Z " /><path fill="rgb(102,120,204)" stroke="rgb(102,120,204)" stroke-width="1" opacity="0.996078431372549" d="M 200.5 122 L 199.5 124 L 200.5 122 Z " /><path fill="rgb(102,120,204)" stroke="rgb(102,120,204)" stroke-width="1" opacity="0.996078431372549" d="M 91.5 125 L 90.5 127 L 91.5 125 Z " /><path fill="rgb(102,120,204)" stroke="rgb(102,120,204)" stroke-width="1" opacity="0.996078431372549" d="M 163.5 125 L 166.5 129 L 163.5 125 Z " /><path fill="rgb(102,120,204)" stroke="rgb(102,120,204)" stroke-width="1" opacity="0.996078431372549" d="M 85.5 129 L 84.5 131 L 85.5 129 Z " /><path fill="rgb(102,120,204)" stroke="rgb(102,120,204)" stroke-width="1" opacity="0.996078431372549" d="M 168.5 129 L 169.5 131 L 168.5 129 Z " /><path fill="rgb(102,120,204)" stroke="rgb(102,120,204)" stroke-width="1" opacity="0.996078431372549" d="M 191.5 130 L 190.5 132 L 189 131.5 L 191.5 130 Z " /><path fill="rgb(102,120,204)" stroke="rgb(102,120,204)" stroke-width="1" opacity="0.996078431372549" d="M 179.5 133 L 183 133.5 L 179.5 134 L 179.5 133 Z " /><path fill="rgb(102,120,204)" stroke="rgb(102,120,204)" stroke-width="1" opacity="0.996078431372549" d="M 210.5 134 L 204.5 141 L 210.5 134 Z " /><path fill="rgb(102,120,204)" stroke="rgb(102,120,204)" stroke-width="1" opacity="0.996078431372549" d="M 77.5 135 L 76.5 137 L 77.5 135 Z " /><path fill="rgb(102,120,204)" stroke="rgb(102,120,204)" stroke-width="1" opacity="0.996078431372549" d="M 71.5 140 L 68.5 144 L 71.5 140 Z " /><path fill="rgb(102,120,204)" stroke="rgb(102,120,204)" stroke-width="1" opacity="0.996078431372549" d="M 105.5 142 L 104.5 144 L 105.5 142 Z " /><path fill="rgb(102,120,204)" stroke="rgb(102,120,204)" stroke-width="1" opacity="0.996078431372549" d="M 96.5 148 L 95.5 150 L 96.5 148 Z " /><path fill="rgb(102,120,204)" stroke="rgb(102,120,204)" stroke-width="1" opacity="0.996078431372549" d="M 181.5 148 L 186 148.5 L 181.5 149 L 181.5 148 Z " /><path fill="rgb(102,120,204)" stroke="rgb(102,120,204)" stroke-width="1" opacity="0.996078431372549" d="M 92.5 151 L 91.5 153 L 92.5 151 Z " /><path fill="rgb(102,120,204)" stroke="rgb(102,120,204)" stroke-width="1" opacity="0.996078431372549" d="M 59.5 152 L 56.5 156 L 59.5 152 Z " /><path fill="rgb(102,120,204)" stroke="rgb(102,120,204)" stroke-width="1" opacity="0.996078431372549" d="M 88.5 154 L 85.5 158 L 88.5 154 Z " /><path fill="rgb(102,120,204)" stroke="rgb(102,120,204)" stroke-width="1" opacity="0.996078431372549" d="M 476.5 157 L 475.5 159 L 476.5 157 Z " /><path fill="rgb(102,120,204)" stroke="rgb(102,120,204)" stroke-width="1" opacity="0.996078431372549" d="M 52.5 160 L 51.5 162 L 52.5 160 Z " /><path fill="rgb(102,120,204)" stroke="rgb(102,120,204)" stroke-width="1" opacity="0.996078431372549" d="M 46.5 168 L 45.5 170 L 46.5 168 Z " /><path fill="rgb(102,120,204)" stroke="rgb(102,120,204)" stroke-width="1" opacity="0.996078431372549" d="M 72.5 170 L 69.5 174 L 72.5 170 Z " /><path fill="rgb(102,120,204)" stroke="rgb(102,120,204)" stroke-width="1" opacity="0.996078431372549" d="M 380.5 170 L 381.5 172 L 380.5 170 Z " /><path fill="rgb(102,120,204)" stroke="rgb(102,120,204)" stroke-width="1" opacity="0.996078431372549" d="M 188.5 174 L 189 208.5 L 188 208.5 L 188.5 174 Z " /><path fill="rgb(102,120,204)" stroke="rgb(102,120,204)" stroke-width="1" opacity="0.996078431372549" d="M 67.5 176 L 66.5 178 L 67.5 176 Z " /><path fill="rgb(102,120,204)" stroke="rgb(102,120,204)" stroke-width="1" opacity="0.996078431372549" d="M 64.5 180 L 63.5 182 L 64.5 180 Z " /><path fill="rgb(102,120,204)" stroke="rgb(102,120,204)" stroke-width="1" opacity="0.996078431372549" d="M 423.5 183 L 424 185.5 L 423 185.5 L 423.5 183 Z " /><path fill="rgb(102,120,204)" stroke="rgb(102,120,204)" stroke-width="1" opacity="0.996078431372549" d="M 60.5 186 L 59.5 188 L 60.5 186 Z " /><path fill="rgb(102,120,204)" stroke="rgb(102,120,204)" stroke-width="1" opacity="0.996078431372549" d="M 58.5 189 L 57.5 191 L 58.5 189 Z " /><path fill="rgb(102,120,204)" stroke="rgb(102,120,204)" stroke-width="1" opacity="0.996078431372549" d="M 457.5 207 L 455.5 210 L 457.5 207 Z " /><path fill="rgb(102,120,204)" stroke="rgb(102,120,204)" stroke-width="1" opacity="0.996078431372549" d="M 189.5 210 L 190.5 212 L 189.5 210 Z " /><path fill="rgb(102,120,204)" stroke="rgb(102,120,204)" stroke-width="1" opacity="0.996078431372549" d="M 275.5 210 L 274.5 212 L 275.5 210 Z " /><path fill="rgb(102,120,204)" stroke="rgb(102,120,204)" stroke-width="1" opacity="0.996078431372549" d="M 192.5 212 L 273 212.5 L 192.5 213 L 192.5 212 Z " /><path fill="rgb(102,120,204)" stroke="rgb(102,120,204)" stroke-width="1" opacity="0.996078431372549" d="M 427.5 219 L 433 219.5 L 427.5 220 L 427.5 219 Z " /><path fill="rgb(102,120,204)" stroke="rgb(102,120,204)" stroke-width="1" opacity="0.996078431372549" d="M 397.5 220 L 396.5 222 L 397.5 220 Z " /><path fill="rgb(102,120,204)" stroke="rgb(102,120,204)" stroke-width="1" opacity="0.996078431372549" d="M 215.5 227 L 237 227.5 L 215.5 228 L 215.5 227 Z " /><path fill="rgb(102,120,204)" stroke="rgb(102,120,204)" stroke-width="1" opacity="0.996078431372549" d="M 39.5 241 L 40 243.5 L 39 243.5 L 39.5 241 Z " /><path fill="rgb(102,120,204)" stroke="rgb(102,120,204)" stroke-width="1" opacity="0.996078431372549" d="M 344.5 242 L 434 242.5 L 344.5 243 L 344.5 242 Z " /><path fill="rgb(102,120,204)" stroke="rgb(102,120,204)" stroke-width="1" opacity="0.996078431372549" d="M 466.5 242 L 484 242.5 L 466.5 243 L 466.5 242 Z " /><path fill="rgb(102,120,204)" stroke="rgb(102,120,204)" stroke-width="1" opacity="0.996078431372549" d="M 17.5 244 L 18 247.5 L 17 247.5 L 17.5 244 Z " /><path fill="rgb(102,120,204)" stroke="rgb(102,120,204)" stroke-width="1" opacity="0.996078431372549" d="M 38.5 249 L 39 257.5 L 38 257.5 L 38.5 249 Z " /><path fill="rgb(102,120,204)" stroke="rgb(102,120,204)" stroke-width="1" opacity="0.996078431372549" d="M 38.5 263 L 39 271.5 L 38 271.5 L 38.5 263 Z " /><path fill="rgb(102,120,204)" stroke="rgb(102,120,204)" stroke-width="1" opacity="0.996078431372549" d="M 17.5 273 L 18 277.5 L 17 277.5 L 17.5 273 Z " /><path fill="rgb(102,120,204)" stroke="rgb(102,120,204)" stroke-width="1" opacity="0.996078431372549" d="M 215.5 274 L 217.5 277 L 215.5 274 Z " /><path fill="rgb(102,120,204)" stroke="rgb(102,120,204)" stroke-width="1" opacity="0.996078431372549" d="M 249.5 274 L 247.5 277 L 249.5 274 Z " /><path fill="rgb(102,120,204)" stroke="rgb(102,120,204)" stroke-width="1" opacity="0.996078431372549" d="M 39.5 278 L 40 280.5 L 39 280.5 L 39.5 278 Z " /><path fill="rgb(102,120,204)" stroke="rgb(102,120,204)" stroke-width="1" opacity="0.996078431372549" d="M 18.5 282 L 19 284.5 L 18 284.5 L 18.5 282 Z " /><path fill="rgb(102,120,204)" stroke="rgb(102,120,204)" stroke-width="1" opacity="0.996078431372549" d="M 60.5 336 L 61.5 338 L 60.5 336 Z " /><path fill="rgb(102,120,204)" stroke="rgb(102,120,204)" stroke-width="1" opacity="0.996078431372549" d="M 65.5 343 L 67.5 346 L 65.5 343 Z " /><path fill="rgb(102,120,204)" stroke="rgb(102,120,204)" stroke-width="1" opacity="0.996078431372549" d="M 68.5 347 L 71.5 351 L 68.5 347 Z " /><path fill="rgb(102,120,204)" stroke="rgb(102,120,204)" stroke-width="1" opacity="0.996078431372549" d="M 44.5 350 L 45.5 352 L 44.5 350 Z " /><path fill="rgb(102,120,204)" stroke="rgb(102,120,204)" stroke-width="1" opacity="0.996078431372549" d="M 75.5 355 L 82.5 363 L 75.5 355 Z " /><path fill="rgb(102,120,204)" stroke="rgb(102,120,204)" stroke-width="1" opacity="0.996078431372549" d="M 50.5 358 L 51.5 360 L 50.5 358 Z " /><path fill="rgb(102,120,204)" stroke="rgb(102,120,204)" stroke-width="1" opacity="0.996078431372549" d="M 54.5 363 L 57.5 367 L 54.5 363 Z " /><path fill="rgb(102,120,204)" stroke="rgb(102,120,204)" stroke-width="1" opacity="0.996078431372549" d="M 86.5 365 L 89.5 369 L 86.5 365 Z " /><path fill="rgb(102,120,204)" stroke="rgb(102,120,204)" stroke-width="1" opacity="0.996078431372549" d="M 193.5 366 L 272 366.5 L 193.5 367 L 193.5 366 Z " /><path fill="rgb(102,120,204)" stroke="rgb(102,120,204)" stroke-width="1" opacity="0.996078431372549" d="M 273.5 367 L 274.5 369 L 273.5 367 Z " /><path fill="rgb(102,120,204)" stroke="rgb(102,120,204)" stroke-width="1" opacity="0.996078431372549" d="M 92.5 370 L 93.5 372 L 92.5 370 Z " /><path fill="rgb(102,120,204)" stroke="rgb(102,120,204)" stroke-width="1" opacity="0.996078431372549" d="M 96.5 373 L 97.5 375 L 96.5 373 Z " /><path fill="rgb(102,120,204)" stroke="rgb(102,120,204)" stroke-width="1" opacity="0.996078431372549" d="M 99.5 375 L 100.5 377 L 99.5 375 Z " /><path fill="rgb(102,120,204)" stroke="rgb(102,120,204)" stroke-width="1" opacity="0.996078431372549" d="M 102.5 377 L 103.5 379 L 102.5 377 Z " /><path fill="rgb(102,120,204)" stroke="rgb(102,120,204)" stroke-width="1" opacity="0.996078431372549" d="M 70.5 379 L 72.5 382 L 70.5 379 Z " /><path fill="rgb(102,120,204)" stroke="rgb(102,120,204)" stroke-width="1" opacity="0.996078431372549" d="M 107.5 380 L 108.5 382 L 107.5 380 Z " /><path fill="rgb(102,120,204)" stroke="rgb(102,120,204)" stroke-width="1" opacity="0.996078431372549" d="M 77.5 385 L 78.5 387 L 77.5 385 Z " /><path fill="rgb(102,120,204)" stroke="rgb(102,120,204)" stroke-width="1" opacity="0.996078431372549" d="M 81.5 388 L 82.5 390 L 81.5 388 Z " /><path fill="rgb(102,120,204)" stroke="rgb(102,120,204)" stroke-width="1" opacity="0.996078431372549" d="M 154.5 397 L 157 397.5 L 154.5 398 L 154.5 397 Z " /><path fill="rgb(102,120,204)" stroke="rgb(102,120,204)" stroke-width="1" opacity="0.996078431372549" d="M 162.5 398 L 166 398.5 L 162.5 399 L 162.5 398 Z " /><path fill="rgb(102,120,204)" stroke="rgb(102,120,204)" stroke-width="1" opacity="0.996078431372549" d="M 283.5 399 L 286 400.5 L 284.5 400 L 283.5 399 Z " /><path fill="rgb(102,120,204)" stroke="rgb(102,120,204)" stroke-width="1" opacity="0.996078431372549" d="M 286.5 402 L 287 417.5 L 286 417.5 L 286.5 402 Z " /><path fill="rgb(102,120,204)" stroke="rgb(102,120,204)" stroke-width="1" opacity="0.996078431372549" d="M 158.5 419 L 161 419.5 L 158.5 420 L 158.5 419 Z " /><path fill="rgb(102,120,204)" stroke="rgb(102,120,204)" stroke-width="1" opacity="0.996078431372549" d="M 168.5 420 L 284 420.5 L 168.5 421 L 168.5 420 Z " /><path fill="rgb(102,120,204)" stroke="rgb(102,120,204)" stroke-width="1" opacity="0.996078431372549" d="M 107.5 436 L 307.5 436 Q 323.3 439.3 332 449.5 Q 339.1 456.9 342 468.5 L 343 473.5 L 343 497 L 296.5 497 L 293 499.5 L 291 505 L 271.5 505 L 271 501.5 L 265.5 497 L 73 497 L 73 470.5 L 74 466.5 Q 78.6 452.1 89.5 444 Q 96.8 438.3 107.5 436 Z " /><path fill="rgb(0,0,0)" stroke="rgb(0,0,0)" stroke-width="1" opacity="0.8" d="M 116.5 0 L 119 0.5 L 116.5 1 L 116.5 0 Z " /><path fill="rgb(0,0,0)" stroke="rgb(0,0,0)" stroke-width="1" opacity="0.8" d="M 123.5 0 L 126 0.5 L 123.5 1 L 123.5 0 Z " /><path fill="rgb(0,0,0)" stroke="rgb(0,0,0)" stroke-width="1" opacity="0.8" d="M 108.5 4 L 104.5 9 L 108.5 4 Z " /><path fill="rgb(0,0,0)" stroke="rgb(0,0,0)" stroke-width="1" opacity="0.8" d="M 134.5 4 L 135.5 6 L 134.5 4 Z " /><path fill="rgb(0,0,0)" stroke="rgb(0,0,0)" stroke-width="1" opacity="0.8" d="M 137.5 6 L 138.5 8 L 137.5 6 Z " /><path fill="rgb(0,0,0)" stroke="rgb(0,0,0)" stroke-width="1" opacity="0.8" d="M 140.5 8 L 141.5 10 L 140.5 8 Z " /><path fill="rgb(0,0,0)" stroke="rgb(0,0,0)" stroke-width="1" opacity="0.8" d="M 103.5 10 L 102.5 12 L 103.5 10 Z " /><path fill="rgb(0,0,0)" stroke="rgb(0,0,0)" stroke-width="1" opacity="0.8" d="M 143.5 10 L 144.5 12 L 143.5 10 Z " /><path fill="rgb(0,0,0)" stroke="rgb(0,0,0)" stroke-width="1" opacity="0.8" d="M 146.5 12 L 147.5 14 L 146.5 12 Z " /><path fill="rgb(0,0,0)" stroke="rgb(0,0,0)" stroke-width="1" opacity="0.8" d="M 101.5 13 L 100.5 15 L 101.5 13 Z " /><path fill="rgb(0,0,0)" stroke="rgb(0,0,0)" stroke-width="1" opacity="0.8" d="M 149.5 14 L 150.5 16 L 149.5 14 Z " /><path fill="rgb(0,0,0)" stroke="rgb(0,0,0)" stroke-width="1" opacity="0.8" d="M 96.5 20 L 95.5 22 L 96.5 20 Z " /><path fill="rgb(0,0,0)" stroke="rgb(0,0,0)" stroke-width="1" opacity="0.8" d="M 94.5 23 L 93.5 25 L 94.5 23 Z " /><path fill="rgb(0,0,0)" stroke="rgb(0,0,0)" stroke-width="1" opacity="0.8" d="M 231.5 23 L 236 23.5 L 231.5 24 L 231.5 23 Z " /><path fill="rgb(0,0,0)" stroke="rgb(0,0,0)" stroke-width="1" opacity="0.8" d="M 221.5 24 L 224 24.5 L 221.5 25 L 221.5 24 Z " /><path fill="rgb(0,0,0)" stroke="rgb(0,0,0)" stroke-width="1" opacity="0.8" d="M 241.5 24 L 244 24.5 L 241.5 25 L 241.5 24 Z " /><path fill="rgb(0,0,0)" stroke="rgb(0,0,0)" stroke-width="1" opacity="0.8" d="M 166.5 25 L 167.5 27 L 166.5 25 Z " /><path fill="rgb(0,0,0)" stroke="rgb(0,0,0)" stroke-width="1" opacity="0.8" d="M 92.5 26 L 91.5 28 L 92.5 26 Z " /><path fill="rgb(0,0,0)" stroke="rgb(0,0,0)" stroke-width="1" opacity="0.8" d="M 169.5 27 L 170.5 29 L 169.5 27 Z " /><path fill="rgb(0,0,0)" stroke="rgb(0,0,0)" stroke-width="1" opacity="0.8" d="M 90.5 29 L 90 30.5 L 89.5 32 L 89 30.5 L 90.5 29 Z " /><path fill="rgb(0,0,0)" stroke="rgb(0,0,0)" stroke-width="1" opacity="0.8" d="M 172.5 29 L 173.5 31 L 172.5 29 Z " /><path fill="rgb(0,0,0)" stroke="rgb(0,0,0)" stroke-width="1" opacity="0.8" d="M 204.5 30 L 206 30.5 L 203.5 32 L 204.5 30 Z " /><path fill="rgb(0,0,0)" stroke="rgb(0,0,0)" stroke-width="1" opacity="0.8" d="M 175.5 31 L 176.5 33 L 175.5 31 Z " /><path fill="rgb(0,0,0)" stroke="rgb(0,0,0)" stroke-width="1" opacity="0.8" d="M 263.5 32 L 264.5 34 L 263.5 32 Z " /><path fill="rgb(0,0,0)" stroke="rgb(0,0,0)" stroke-width="1" opacity="0.8" d="M 178.5 33 L 179.5 35 L 178.5 33 Z " /><path fill="rgb(0,0,0)" stroke="rgb(0,0,0)" stroke-width="1" opacity="0.8" d="M 198.5 34 L 197.5 36 L 198.5 34 Z " /><path fill="rgb(0,0,0)" stroke="rgb(0,0,0)" stroke-width="1" opacity="0.8" d="M 266.5 34 L 268.5 37 L 266.5 34 Z " /><path fill="rgb(0,0,0)" stroke="rgb(0,0,0)" stroke-width="1" opacity="0.8" d="M 181.5 35 L 182.5 37 L 181.5 35 Z " /><path fill="rgb(0,0,0)" stroke="rgb(0,0,0)" stroke-width="1" opacity="0.8" d="M 87.5 36 L 88 43.5 L 87 43.5 L 87.5 36 Z " /><path fill="rgb(0,0,0)" stroke="rgb(0,0,0)" stroke-width="1" opacity="0.8" d="M 195.5 36 L 191.5 41 L 195.5 36 Z " /><path fill="rgb(0,0,0)" stroke="rgb(0,0,0)" stroke-width="1" opacity="0.8" d="M 184.5 37 L 185.5 39 L 184.5 37 Z " /><path fill="rgb(0,0,0)" stroke="rgb(0,0,0)" stroke-width="1" opacity="0.8" d="M 187.5 39 L 188.5 41 L 187.5 39 Z " /><path fill="rgb(0,0,0)" stroke="rgb(0,0,0)" stroke-width="1" opacity="0.8" d="M 272.5 39 L 275.5 43 L 272.5 39 Z " /><path fill="rgb(0,0,0)" stroke="rgb(0,0,0)" stroke-width="1" opacity="0.8" d="M 278.5 46 L 279.5 48 L 278.5 46 Z " /><path fill="rgb(0,0,0)" stroke="rgb(0,0,0)" stroke-width="1" opacity="0.8" d="M 281.5 50 L 282.5 52 L 281.5 50 Z " /><path fill="rgb(0,0,0)" stroke="rgb(0,0,0)" stroke-width="1" opacity="0.8" d="M 90.5 51 L 91.5 53 L 90.5 51 Z " /><path fill="rgb(0,0,0)" stroke="rgb(0,0,0)" stroke-width="1" opacity="0.8" d="M 95.5 56 L 96.5 58 L 95.5 56 Z " /><path fill="rgb(0,0,0)" stroke="rgb(0,0,0)" stroke-width="1" opacity="0.8" d="M 98.5 58 L 99.5 60 L 98.5 58 Z " /><path fill="rgb(0,0,0)" stroke="rgb(0,0,0)" stroke-width="1" opacity="0.8" d="M 101.5 60 L 102.5 62 L 101.5 60 Z " /><path fill="rgb(0,0,0)" stroke="rgb(0,0,0)" stroke-width="1" opacity="0.8" d="M 104.5 62 L 105.5 64 L 104.5 62 Z " /><path fill="rgb(0,0,0)" stroke="rgb(0,0,0)" stroke-width="1" opacity="0.8" d="M 107.5 64 L 108.5 66 L 107.5 64 Z " /><path fill="rgb(0,0,0)" stroke="rgb(0,0,0)" stroke-width="1" opacity="0.8" d="M 341.5 65 L 488 65.5 L 341.5 66 L 341.5 65 Z " /><path fill="rgb(0,0,0)" stroke="rgb(0,0,0)" stroke-width="1" opacity="0.8" d="M 110.5 66 L 111.5 68 L 110.5 66 Z " /><path fill="rgb(0,0,0)" stroke="rgb(0,0,0)" stroke-width="1" opacity="0.8" d="M 113.5 68 L 114.5 70 L 113.5 68 Z " /><path fill="rgb(0,0,0)" stroke="rgb(0,0,0)" stroke-width="1" opacity="0.8" d="M 495.5 68 L 498 69.5 L 496.5 69 L 495.5 68 Z " /><path fill="rgb(0,0,0)" stroke="rgb(0,0,0)" stroke-width="1" opacity="0.8" d="M 330.5 69 L 329.5 71 L 330.5 69 Z " /><path fill="rgb(0,0,0)" stroke="rgb(0,0,0)" stroke-width="1" opacity="0.8" d="M 116.5 70 L 117.5 72 L 116.5 70 Z " /><path fill="rgb(0,0,0)" stroke="rgb(0,0,0)" stroke-width="1" opacity="0.8" d="M 499.5 70 L 504.5 76 L 499.5 70 Z " /><path fill="rgb(0,0,0)" stroke="rgb(0,0,0)" stroke-width="1" opacity="0.8" d="M 290.5 71 L 291 73.5 L 290 73.5 L 290.5 71 Z " /><path fill="rgb(0,0,0)" stroke="rgb(0,0,0)" stroke-width="1" opacity="0.8" d="M 119.5 72 L 120.5 74 L 119.5 72 Z " /><path fill="rgb(0,0,0)" stroke="rgb(0,0,0)" stroke-width="1" opacity="0.8" d="M 326.5 72 L 325.5 74 L 326.5 72 Z " /><path fill="rgb(0,0,0)" stroke="rgb(0,0,0)" stroke-width="1" opacity="0.8" d="M 122.5 74 L 123.5 76 L 122.5 74 Z " /><path fill="rgb(0,0,0)" stroke="rgb(0,0,0)" stroke-width="1" opacity="0.8" d="M 323.5 76 L 322.5 78 L 323.5 76 Z " /><path fill="rgb(0,0,0)" stroke="rgb(0,0,0)" stroke-width="1" opacity="0.8" d="M 291.5 79 L 292 208.5 L 291 208.5 L 291.5 79 Z " /><path fill="rgb(0,0,0)" stroke="rgb(0,0,0)" stroke-width="1" opacity="0.8" d="M 136.5 83 L 137.5 85 L 136.5 83 Z " /><path fill="rgb(0,0,0)" stroke="rgb(0,0,0)" stroke-width="1" opacity="0.8" d="M 139.5 85 L 140.5 87 L 139.5 85 Z " /><path fill="rgb(0,0,0)" stroke="rgb(0,0,0)" stroke-width="1" opacity="0.8" d="M 509.5 85 L 510 87.5 L 509 87.5 L 509.5 85 Z " /><path fill="rgb(0,0,0)" stroke="rgb(0,0,0)" stroke-width="1" opacity="0.8" d="M 142.5 87 L 144 90 L 142 89.5 L 142.5 87 Z " /><path fill="rgb(0,0,0)" stroke="rgb(0,0,0)" stroke-width="1" opacity="0.8" d="M 318.5 87 L 319 272.5 L 318 272.5 L 318.5 87 Z " /><path fill="rgb(0,0,0)" stroke="rgb(0,0,0)" stroke-width="1" opacity="0.8" d="M 104.5 101 L 106 101.5 L 102.5 103 L 102.5 102 L 104.5 101 Z " /><path fill="rgb(0,0,0)" stroke="rgb(0,0,0)" stroke-width="1" opacity="0.8" d="M 92.5 107 L 91.5 109 L 92.5 107 Z " /><path fill="rgb(0,0,0)" stroke="rgb(0,0,0)" stroke-width="1" opacity="0.8" d="M 87.5 110 L 86.5 112 L 87.5 110 Z " /><path fill="rgb(0,0,0)" stroke="rgb(0,0,0)" stroke-width="1" opacity="0.8" d="M 82.5 113 L 81.5 115 L 82.5 113 Z " /><path fill="rgb(0,0,0)" stroke="rgb(0,0,0)" stroke-width="1" opacity="0.8" d="M 79.5 115 L 78.5 117 L 79.5 115 Z " /><path fill="rgb(0,0,0)" stroke="rgb(0,0,0)" stroke-width="1" opacity="0.8" d="M 76.5 117 L 75.5 119 L 76.5 117 Z " /><path fill="rgb(0,0,0)" stroke="rgb(0,0,0)" stroke-width="1" opacity="0.8" d="M 72.5 120 L 71.5 122 L 72.5 120 Z " /><path fill="rgb(0,0,0)" stroke="rgb(0,0,0)" stroke-width="1" opacity="0.8" d="M 68.5 123 L 66.5 126 L 68.5 123 Z " /><path fill="rgb(0,0,0)" stroke="rgb(0,0,0)" stroke-width="1" opacity="0.8" d="M 63.5 127 L 58.5 133 L 63.5 127 Z " /><path fill="rgb(0,0,0)" stroke="rgb(0,0,0)" stroke-width="1" opacity="0.8" d="M 159.5 141 L 160.5 143 L 159.5 141 Z " /><path fill="rgb(0,0,0)" stroke="rgb(0,0,0)" stroke-width="1" opacity="0.8" d="M 48.5 142 L 43.5 148 L 48.5 142 Z " /><path fill="rgb(0,0,0)" stroke="rgb(0,0,0)" stroke-width="1" opacity="0.8" d="M 177.5 148 L 181 148.5 L 177.5 149 L 177.5 148 Z " /><path fill="rgb(0,0,0)" stroke="rgb(0,0,0)" stroke-width="1" opacity="0.8" d="M 41.5 150 L 39.5 153 L 41.5 150 Z " /><path fill="rgb(0,0,0)" stroke="rgb(0,0,0)" stroke-width="1" opacity="0.8" d="M 116.5 153 L 115.5 155 L 116.5 153 Z " /><path fill="rgb(0,0,0)" stroke="rgb(0,0,0)" stroke-width="1" opacity="0.8" d="M 37.5 155 L 36.5 157 L 37.5 155 Z " /><path fill="rgb(0,0,0)" stroke="rgb(0,0,0)" stroke-width="1" opacity="0.8" d="M 111.5 156 L 110.5 158 L 111.5 156 Z " /><path fill="rgb(0,0,0)" stroke="rgb(0,0,0)" stroke-width="1" opacity="0.8" d="M 108.5 158 L 107.5 160 L 108.5 158 Z " /><path fill="rgb(0,0,0)" stroke="rgb(0,0,0)" stroke-width="1" opacity="0.8" d="M 34.5 159 L 33.5 161 L 34.5 159 Z " /><path fill="rgb(0,0,0)" stroke="rgb(0,0,0)" stroke-width="1" opacity="0.8" d="M 105.5 160 L 104.5 162 L 105.5 160 Z " /><path fill="rgb(0,0,0)" stroke="rgb(0,0,0)" stroke-width="1" opacity="0.8" d="M 32.5 162 L 31.5 164 L 32.5 162 Z " /><path fill="rgb(0,0,0)" stroke="rgb(0,0,0)" stroke-width="1" opacity="0.8" d="M 101.5 163 L 100.5 165 L 101.5 163 Z " /><path fill="rgb(0,0,0)" stroke="rgb(0,0,0)" stroke-width="1" opacity="0.8" d="M 30.5 165 L 29.5 167 L 30.5 165 Z " /><path fill="rgb(0,0,0)" stroke="rgb(0,0,0)" stroke-width="1" opacity="0.8" d="M 96.5 167 L 92.5 172 L 96.5 167 Z " /><path fill="rgb(0,0,0)" stroke="rgb(0,0,0)" stroke-width="1" opacity="0.8" d="M 28.5 168 L 27.5 170 L 28.5 168 Z " /><path fill="rgb(0,0,0)" stroke="rgb(0,0,0)" stroke-width="1" opacity="0.8" d="M 176.5 170 L 175 172.5 L 174.5 174 L 174 172.5 L 176.5 170 Z " /><path fill="rgb(0,0,0)" stroke="rgb(0,0,0)" stroke-width="1" opacity="0.8" d="M 24.5 175 L 23.5 177 L 24.5 175 Z " /><path fill="rgb(0,0,0)" stroke="rgb(0,0,0)" stroke-width="1" opacity="0.8" d="M 173.5 176 L 174 208.5 L 173 208.5 L 173.5 176 Z " /><path fill="rgb(0,0,0)" stroke="rgb(0,0,0)" stroke-width="1" opacity="0.8" d="M 86.5 177 L 82.5 182 L 86.5 177 Z " /><path fill="rgb(0,0,0)" stroke="rgb(0,0,0)" stroke-width="1" opacity="0.8" d="M 79.5 185 L 78.5 187 L 79.5 185 Z " /><path fill="rgb(0,0,0)" stroke="rgb(0,0,0)" stroke-width="1" opacity="0.8" d="M 76.5 189 L 75.5 191 L 76.5 189 Z " /><path fill="rgb(0,0,0)" stroke="rgb(0,0,0)" stroke-width="1" opacity="0.8" d="M 74.5 192 L 73.5 194 L 74.5 192 Z " /><path fill="rgb(0,0,0)" stroke="rgb(0,0,0)" stroke-width="1" opacity="0.8" d="M 72.5 195 L 71.5 197 L 72.5 195 Z " /><path fill="rgb(0,0,0)" stroke="rgb(0,0,0)" stroke-width="1" opacity="0.8" d="M 69.5 200 L 68.5 202 L 69.5 200 Z " /><path fill="rgb(0,0,0)" stroke="rgb(0,0,0)" stroke-width="1" opacity="0.8" d="M 288.5 218 L 286.5 221 L 288.5 218 Z " /><path fill="rgb(0,0,0)" stroke="rgb(0,0,0)" stroke-width="1" opacity="0.8" d="M 177.5 219 L 178.5 221 L 177.5 219 Z " /><path fill="rgb(0,0,0)" stroke="rgb(0,0,0)" stroke-width="1" opacity="0.8" d="M 180.5 222 L 182.5 225 L 180.5 222 Z " /><path fill="rgb(0,0,0)" stroke="rgb(0,0,0)" stroke-width="1" opacity="0.8" d="M 284.5 222 L 282.5 225 L 284.5 222 Z " /><path fill="rgb(0,0,0)" stroke="rgb(0,0,0)" stroke-width="1" opacity="0.8" d="M 5.5 224 L 6 226.5 L 5 226.5 L 5.5 224 Z " /><path fill="rgb(0,0,0)" stroke="rgb(0,0,0)" stroke-width="1" opacity="0.8" d="M 190.5 227 L 200 227.5 L 190.5 228 L 190.5 227 Z " /><path fill="rgb(0,0,0)" stroke="rgb(0,0,0)" stroke-width="1" opacity="0.8" d="M 265.5 227 L 275 227.5 L 265.5 228 L 265.5 227 Z " /><path fill="rgb(0,0,0)" stroke="rgb(0,0,0)" stroke-width="1" opacity="0.8" d="M 4.5 229 L 5 231.5 L 4 231.5 L 4.5 229 Z " /><path fill="rgb(0,0,0)" stroke="rgb(0,0,0)" stroke-width="1" opacity="0.8" d="M 3.5 235 L 4 238.5 L 3 238.5 L 3.5 235 Z " /><path fill="rgb(0,0,0)" stroke="rgb(0,0,0)" stroke-width="1" opacity="0.8" d="M 54.5 242 L 55 245.5 L 54 245.5 L 54.5 242 Z " /><path fill="rgb(0,0,0)" stroke="rgb(0,0,0)" stroke-width="1" opacity="0.8" d="M 2.5 244 L 3 249.5 L 2 249.5 L 2.5 244 Z " /><path fill="rgb(0,0,0)" stroke="rgb(0,0,0)" stroke-width="1" opacity="0.8" d="M 506.5 244 L 505.5 246 L 506.5 244 Z " /><path fill="rgb(0,0,0)" stroke="rgb(0,0,0)" stroke-width="1" opacity="0.8" d="M 503.5 248 L 501.5 251 L 503.5 248 Z " /><path fill="rgb(0,0,0)" stroke="rgb(0,0,0)" stroke-width="1" opacity="0.8" d="M 53.5 250 L 54 271.5 L 53 271.5 L 53.5 250 Z " /><path fill="rgb(0,0,0)" stroke="rgb(0,0,0)" stroke-width="1" opacity="0.8" d="M 498.5 252 L 497.5 254 L 498.5 252 Z " /><path fill="rgb(0,0,0)" stroke="rgb(0,0,0)" stroke-width="1" opacity="0.8" d="M 438.5 254 L 437.5 256 L 438.5 254 Z " /><path fill="rgb(0,0,0)" stroke="rgb(0,0,0)" stroke-width="1" opacity="0.8" d="M 2.5 272 L 3 277.5 L 2 277.5 L 2.5 272 Z " /><path fill="rgb(0,0,0)" stroke="rgb(0,0,0)" stroke-width="1" opacity="0.8" d="M 200.5 275 L 201 277.5 L 200 277.5 L 200.5 275 Z " /><path fill="rgb(0,0,0)" stroke="rgb(0,0,0)" stroke-width="1" opacity="0.8" d="M 54.5 276 L 55 279.5 L 54 279.5 L 54.5 276 Z " /><path fill="rgb(0,0,0)" stroke="rgb(0,0,0)" stroke-width="1" opacity="0.8" d="M 332.5 276 L 333 278.5 L 332 278.5 L 332.5 276 Z " /><path fill="rgb(0,0,0)" stroke="rgb(0,0,0)" stroke-width="1" opacity="0.8" d="M 316.5 279 L 313.5 283 L 316.5 279 Z " /><path fill="rgb(0,0,0)" stroke="rgb(0,0,0)" stroke-width="1" opacity="0.8" d="M 202.5 282 L 203.5 284 L 202.5 282 Z " /><path fill="rgb(0,0,0)" stroke="rgb(0,0,0)" stroke-width="1" opacity="0.8" d="M 262.5 282 L 261.5 284 L 262.5 282 Z " /><path fill="rgb(0,0,0)" stroke="rgb(0,0,0)" stroke-width="1" opacity="0.8" d="M 3.5 283 L 4 285.5 L 3 285.5 L 3.5 283 Z " /><path fill="rgb(0,0,0)" stroke="rgb(0,0,0)" stroke-width="1" opacity="0.8" d="M 55.5 283 L 56 285.5 L 55 285.5 L 55.5 283 Z " /><path fill="rgb(0,0,0)" stroke="rgb(0,0,0)" stroke-width="1" opacity="0.8" d="M 310.5 284 L 308.5 287 L 310.5 284 Z " /><path fill="rgb(0,0,0)" stroke="rgb(0,0,0)" stroke-width="1" opacity="0.8" d="M 208.5 288 L 209.5 290 L 208.5 288 Z " /><path fill="rgb(0,0,0)" stroke="rgb(0,0,0)" stroke-width="1" opacity="0.8" d="M 256.5 288 L 255.5 290 L 256.5 288 Z " /><path fill="rgb(0,0,0)" stroke="rgb(0,0,0)" stroke-width="1" opacity="0.8" d="M 305.5 288 L 303.5 291 L 305.5 288 Z " /><path fill="rgb(0,0,0)" stroke="rgb(0,0,0)" stroke-width="1" opacity="0.8" d="M 4.5 289 L 5 291.5 L 4 291.5 L 4.5 289 Z " /><path fill="rgb(0,0,0)" stroke="rgb(0,0,0)" stroke-width="1" opacity="0.8" d="M 326.5 290 L 324.5 293 L 326.5 290 Z " /><path fill="rgb(0,0,0)" stroke="rgb(0,0,0)" stroke-width="1" opacity="0.8" d="M 300.5 292 L 298.5 295 L 300.5 292 Z " /><path fill="rgb(0,0,0)" stroke="rgb(0,0,0)" stroke-width="1" opacity="0.8" d="M 321.5 294 L 319.5 297 L 321.5 294 Z " /><path fill="rgb(0,0,0)" stroke="rgb(0,0,0)" stroke-width="1" opacity="0.8" d="M 295.5 296 L 293.5 299 L 295.5 296 Z " /><path fill="rgb(0,0,0)" stroke="rgb(0,0,0)" stroke-width="1" opacity="0.8" d="M 316.5 298 L 314.5 301 L 316.5 298 Z " /><path fill="rgb(0,0,0)" stroke="rgb(0,0,0)" stroke-width="1" opacity="0.8" d="M 290.5 300 L 288.5 303 L 290.5 300 Z " /><path fill="rgb(0,0,0)" stroke="rgb(0,0,0)" stroke-width="1" opacity="0.8" d="M 311.5 302 L 309.5 305 L 311.5 302 Z " /><path fill="rgb(0,0,0)" stroke="rgb(0,0,0)" stroke-width="1" opacity="0.8" d="M 285.5 304 L 283.5 307 L 285.5 304 Z " /><path fill="rgb(0,0,0)" stroke="rgb(0,0,0)" stroke-width="1" opacity="0.8" d="M 306.5 306 L 304.5 309 L 306.5 306 Z " /><path fill="rgb(0,0,0)" stroke="rgb(0,0,0)" stroke-width="1" opacity="0.8" d="M 280.5 308 L 278.5 311 L 280.5 308 Z " /><path fill="rgb(0,0,0)" stroke="rgb(0,0,0)" stroke-width="1" opacity="0.8" d="M 301.5 310 L 299.5 313 L 301.5 310 Z " /><path fill="rgb(0,0,0)" stroke="rgb(0,0,0)" stroke-width="1" opacity="0.8" d="M 275.5 312 L 274.5 314 L 275.5 312 Z " /><path fill="rgb(0,0,0)" stroke="rgb(0,0,0)" stroke-width="1" opacity="0.8" d="M 296.5 314 L 294.5 317 L 296.5 314 Z " /><path fill="rgb(0,0,0)" stroke="rgb(0,0,0)" stroke-width="1" opacity="0.8" d="M 270.5 318 L 271 321.5 L 270 321.5 L 270.5 318 Z " /><path fill="rgb(0,0,0)" stroke="rgb(0,0,0)" stroke-width="1" opacity="0.8" d="M 291.5 318 L 289.5 321 L 291.5 318 Z " /><path fill="rgb(0,0,0)" stroke="rgb(0,0,0)" stroke-width="1" opacity="0.8" d="M 286.5 322 L 284.5 325 L 286.5 322 Z " /><path fill="rgb(0,0,0)" stroke="rgb(0,0,0)" stroke-width="1" opacity="0.8" d="M 276.5 327 L 280 327.5 L 276.5 328 L 276.5 327 Z " /><path fill="rgb(0,0,0)" stroke="rgb(0,0,0)" stroke-width="1" opacity="0.8" d="M 75.5 331 L 76.5 333 L 75.5 331 Z " /><path fill="rgb(0,0,0)" stroke="rgb(0,0,0)" stroke-width="1" opacity="0.8" d="M 77.5 334 L 79.5 337 L 77.5 334 Z " /><path fill="rgb(0,0,0)" stroke="rgb(0,0,0)" stroke-width="1" opacity="0.8" d="M 81.5 339 L 84.5 343 L 81.5 339 Z " /><path fill="rgb(0,0,0)" stroke="rgb(0,0,0)" stroke-width="1" opacity="0.8" d="M 25.5 348 L 26.5 350 L 25.5 348 Z " /><path fill="rgb(0,0,0)" stroke="rgb(0,0,0)" stroke-width="1" opacity="0.8" d="M 193.5 351 L 272 351.5 L 193.5 352 L 193.5 351 Z " /><path fill="rgb(0,0,0)" stroke="rgb(0,0,0)" stroke-width="1" opacity="0.8" d="M 94.5 352 L 98.5 357 L 94.5 352 Z " /><path fill="rgb(0,0,0)" stroke="rgb(0,0,0)" stroke-width="1" opacity="0.8" d="M 185.5 353 L 187 353.5 L 184.5 355 L 185.5 353 Z " /><path fill="rgb(0,0,0)" stroke="rgb(0,0,0)" stroke-width="1" opacity="0.8" d="M 281.5 354 L 283.5 357 L 281.5 354 Z " /><path fill="rgb(0,0,0)" stroke="rgb(0,0,0)" stroke-width="1" opacity="0.8" d="M 182.5 355 L 179.5 359 L 182.5 355 Z " /><path fill="rgb(0,0,0)" stroke="rgb(0,0,0)" stroke-width="1" opacity="0.8" d="M 30.5 356 L 31.5 358 L 30.5 356 Z " /><path fill="rgb(0,0,0)" stroke="rgb(0,0,0)" stroke-width="1" opacity="0.8" d="M 101.5 358 L 102.5 360 L 101.5 358 Z " /><path fill="rgb(0,0,0)" stroke="rgb(0,0,0)" stroke-width="1" opacity="0.8" d="M 285.5 358 L 286.5 360 L 285.5 358 Z " /><path fill="rgb(0,0,0)" stroke="rgb(0,0,0)" stroke-width="1" opacity="0.8" d="M 105.5 361 L 106.5 363 L 105.5 361 Z " /><path fill="rgb(0,0,0)" stroke="rgb(0,0,0)" stroke-width="1" opacity="0.8" d="M 287.5 361 L 289 363.5 L 288 363.5 L 287.5 361 Z " /><path fill="rgb(0,0,0)" stroke="rgb(0,0,0)" stroke-width="1" opacity="0.8" d="M 35.5 363 L 36.5 365 L 35.5 363 Z " /><path fill="rgb(0,0,0)" stroke="rgb(0,0,0)" stroke-width="1" opacity="0.8" d="M 108.5 363 L 109.5 365 L 108.5 363 Z " /><path fill="rgb(0,0,0)" stroke="rgb(0,0,0)" stroke-width="1" opacity="0.8" d="M 111.5 365 L 112.5 367 L 111.5 365 Z " /><path fill="rgb(0,0,0)" stroke="rgb(0,0,0)" stroke-width="1" opacity="0.8" d="M 289.5 365 L 290 367.5 L 289 367.5 L 289.5 365 Z " /><path fill="rgb(0,0,0)" stroke="rgb(0,0,0)" stroke-width="1" opacity="0.8" d="M 38.5 367 L 40.5 370 L 38.5 367 Z " /><path fill="rgb(0,0,0)" stroke="rgb(0,0,0)" stroke-width="1" opacity="0.8" d="M 175.5 367 L 176 383.5 L 175 383.5 L 175.5 367 Z " /><path fill="rgb(0,0,0)" stroke="rgb(0,0,0)" stroke-width="1" opacity="0.8" d="M 42.5 372 L 46.5 377 L 42.5 372 Z " /><path fill="rgb(0,0,0)" stroke="rgb(0,0,0)" stroke-width="1" opacity="0.8" d="M 51.5 382 L 52.5 384 L 51.5 382 Z " /><path fill="rgb(0,0,0)" stroke="rgb(0,0,0)" stroke-width="1" opacity="0.8" d="M 155.5 382 L 158 382.5 L 155.5 383 L 155.5 382 Z " /><path fill="rgb(0,0,0)" stroke="rgb(0,0,0)" stroke-width="1" opacity="0.8" d="M 162.5 383 L 167 383.5 L 162.5 384 L 162.5 383 Z " /><path fill="rgb(0,0,0)" stroke="rgb(0,0,0)" stroke-width="1" opacity="0.8" d="M 293.5 387 L 298.5 393 L 293.5 387 Z " /><path fill="rgb(0,0,0)" stroke="rgb(0,0,0)" stroke-width="1" opacity="0.8" d="M 60.5 390 L 64.5 395 L 60.5 390 Z " /><path fill="rgb(0,0,0)" stroke="rgb(0,0,0)" stroke-width="1" opacity="0.8" d="M 67.5 396 L 69.5 399 L 67.5 396 Z " /><path fill="rgb(0,0,0)" stroke="rgb(0,0,0)" stroke-width="1" opacity="0.8" d="M 71.5 399 L 73.5 402 L 71.5 399 Z " /><path fill="rgb(0,0,0)" stroke="rgb(0,0,0)" stroke-width="1" opacity="0.8" d="M 301.5 400 L 302 420.5 L 301 420.5 L 301.5 400 Z " /><path fill="rgb(0,0,0)" stroke="rgb(0,0,0)" stroke-width="1" opacity="0.8" d="M 75.5 402 L 76.5 404 L 75.5 402 Z " /><path fill="rgb(0,0,0)" stroke="rgb(0,0,0)" stroke-width="1" opacity="0.8" d="M 78.5 404 L 79.5 406 L 78.5 404 Z " /><path fill="rgb(0,0,0)" stroke="rgb(0,0,0)" stroke-width="1" opacity="0.8" d="M 84.5 408 L 85.5 410 L 84.5 408 Z " /><path fill="rgb(0,0,0)" stroke="rgb(0,0,0)" stroke-width="1" opacity="0.8" d="M 89.5 411 L 90.5 413 L 89.5 411 Z " /><path fill="rgb(0,0,0)" stroke="rgb(0,0,0)" stroke-width="1" opacity="0.8" d="M 106.5 420 L 107.5 422 Q 104.7 422.7 106.5 420 Z " /><path fill="rgb(0,0,0)" stroke="rgb(0,0,0)" stroke-width="1" opacity="0.8" d="M 306.5 421 L 310 421.5 L 306.5 422 L 306.5 421 Z " /><path fill="rgb(0,0,0)" stroke="rgb(0,0,0)" stroke-width="1" opacity="0.8" d="M 324.5 426 L 329 428.5 L 327.5 428 Q 323.8 427.8 324.5 426 Z " /><path fill="rgb(0,0,0)" stroke="rgb(0,0,0)" stroke-width="1" opacity="0.8" d="M 86.5 428 L 85.5 430 L 86.5 428 Z " /><path fill="rgb(0,0,0)" stroke="rgb(0,0,0)" stroke-width="1" opacity="0.8" d="M 83.5 430 L 82.5 432 L 83.5 430 Z " /><path fill="rgb(0,0,0)" stroke="rgb(0,0,0)" stroke-width="1" opacity="0.8" d="M 333.5 431 L 334.5 433 L 333.5 431 Z " /><path fill="rgb(0,0,0)" stroke="rgb(0,0,0)" stroke-width="1" opacity="0.8" d="M 80.5 432 L 78.5 435 L 80.5 432 Z " /><path fill="rgb(0,0,0)" stroke="rgb(0,0,0)" stroke-width="1" opacity="0.8" d="M 336.5 433 L 344.5 442 L 336.5 433 Z " /><path fill="rgb(0,0,0)" stroke="rgb(0,0,0)" stroke-width="1" opacity="0.8" d="M 71.5 441 L 69.5 444 L 71.5 441 Z " /><path fill="rgb(0,0,0)" stroke="rgb(0,0,0)" stroke-width="1" opacity="0.8" d="M 346.5 444 L 347.5 446 L 346.5 444 Z " /><path fill="rgb(0,0,0)" stroke="rgb(0,0,0)" stroke-width="1" opacity="0.8" d="M 348.5 447 L 349.5 449 L 348.5 447 Z " /><path fill="rgb(0,0,0)" stroke="rgb(0,0,0)" stroke-width="1" opacity="0.8" d="M 356.5 465 L 357 467.5 L 356 467.5 L 356.5 465 Z " /><path fill="rgb(0,0,0)" stroke="rgb(0,0,0)" stroke-width="1" opacity="0.8" d="M 58.5 468 L 59 470.5 L 58 470.5 L 58.5 468 Z " /><path fill="rgb(0,0,0)" stroke="rgb(0,0,0)" stroke-width="1" opacity="0.8" d="M 357.5 471 L 358 477.5 L 357 477.5 L 357.5 471 Z " /><path fill="rgb(0,0,0)" stroke="rgb(0,0,0)" stroke-width="1" opacity="0.8" d="M 391.5 498 L 393.5 501 L 391.5 498 Z " /><path fill="rgb(0,0,0)" stroke="rgb(0,0,0)" stroke-width="1" opacity="0.8" d="M 394.5 502 L 395 506.5 L 394 506.5 L 394.5 502 Z " /><path fill="rgb(0,0,0)" stroke="rgb(0,0,0)" stroke-width="1" opacity="0.8" d="M 292.5 508 L 294.5 511 L 292.5 508 Z " /><path fill="rgb(0,0,0)" stroke="rgb(0,0,0)" stroke-width="1" opacity="0.8" d="M 393.5 508 L 391.5 511 L 393.5 508 Z " /><path fill="rgb(161,232,252)" stroke="rgb(161,232,252)" stroke-width="1" opacity="0.996078431372549" d="M 225.5 39 L 239.5 39 L 249.5 42 Q 260.2 46.8 267 55.5 Q 273.6 63.4 276 75.5 L 276 209.5 L 273.5 212 L 191.5 212 L 189 209.5 L 189 174.5 L 184.5 169 L 181 168.5 L 181 149 Q 201.7 147.9 211 134.5 Q 220 125 219 105.5 Q 215.6 88.4 203.5 80 L 190 74 Q 193.2 56 206.5 47 Q 213.9 40.9 225.5 39 Z " /><path fill="rgb(161,232,252)" stroke="rgb(161,232,252)" stroke-width="1" opacity="0.996078431372549" d="M 174.5 89 L 187.5 89 Q 195.6 91.9 200 98.5 Q 204.7 104.4 203 116.5 Q 200.5 124.5 194.5 129 L 185.5 133 L 176.5 133 Q 167.4 131.1 163 124.5 Q 157.2 118.8 159 105.5 Q 161.4 96.4 168.5 92 L 174.5 89 Z " /><path fill="rgb(161,232,252)" stroke="rgb(161,232,252)" stroke-width="1" opacity="0.996078431372549" d="M 215 228 L 250 228 L 250 273.5 L 246.5 277 L 218.5 277 L 215 273.5 L 215 228 Z " /><path fill="rgb(161,232,252)" stroke="rgb(161,232,252)" stroke-width="1" opacity="0.996078431372549" d="M 192.5 367 L 272.5 367 L 275 369.5 L 275 383.5 L 274.5 384 L 190 384 L 190 370.5 L 192.5 367 Z " /><path fill="rgb(0,0,0)" stroke="rgb(0,0,0)" stroke-width="1" opacity="1" d="M 119.5 0 Q 128.5 0 133.5 4 L 188.5 41 L 191.5 41 Q 199.6 31.6 212.5 27 L 224.5 24 L 240.5 24 Q 265.1 28.9 278 45.5 Q 288.1 56.4 291 74.5 L 291 212.5 L 286 222 L 276.5 227 L 265 227 L 265 275.5 Q 263.3 283.8 257.5 288 L 248.5 292 L 216.5 292 Q 208.2 290.3 204 284.5 L 200 274.5 L 200 227 L 188.5 227 L 179 222 L 174 212.5 L 174 174.5 L 177.5 170 L 183.5 169 L 187 171.5 L 188 173.5 L 188 208.5 L 190.5 212 L 192.5 213 L 272.5 213 L 276 210.5 L 277 208.5 L 277 79.5 L 274 66.5 Q 269.8 56.8 262.5 50 Q 251.7 38.3 229.5 38 L 219.5 40 L 210.5 44 L 199 53.5 Q 191.9 61.4 189 73.5 L 201.5 79 L 210 86.5 L 216 96.5 L 219 111.5 L 217 122.5 L 214 129.5 L 202.5 142 L 188.5 148 L 174.5 148 Q 163 145.5 155.5 139 Q 107.8 149.3 82 181.5 Q 65.1 200.6 57 228.5 L 53 250.5 L 53 271.5 L 57 293.5 L 68 320.5 Q 80.1 341.9 98.5 357 Q 112.4 368.6 130.5 376 L 155.5 383 L 176 384 L 176 365.5 Q 177.8 358.3 183.5 355 L 190.5 352 L 275.5 352 L 285 357 L 290 368.5 L 290 385.5 L 291.5 387 L 299 393.5 L 301 398.5 L 301 421 Q 331.8 423.5 346 443.5 L 356 463.5 L 357 477.5 L 358 478.5 L 358 497 L 387.5 497 L 394 501.5 Q 395.5 509.5 390.5 511 L 387.5 512 L 298.5 512 L 292 507.5 L 291 503.5 L 294.5 498 L 296.5 497 L 343 497 L 343 473.5 L 341 464.5 Q 336.8 453.2 328.5 446 Q 320.5 438.5 307.5 436 L 107.5 436 Q 90.1 440.1 81 452.5 Q 75.3 459.8 73 470.5 L 73 497 L 265.5 497 L 271 501.5 Q 272.1 509.1 267.5 511 L 264.5 512 L 27.5 512 L 22 508.5 L 21 502.5 L 24.5 498 L 27.5 497 L 58 497 L 58 471.5 L 60 462.5 Q 65.2 445.1 77.5 435 L 93.5 425 L 108 421.5 Q 72.1 404.9 47 377.5 Q 25.6 354.4 13 322.5 L 7 303.5 L 3 282.5 L 2 250.5 L 3 249.5 L 3 239.5 L 6 222.5 L 10 207.5 L 17 189.5 Q 32.3 156.3 57.5 133 Q 76.6 115.1 101.5 103 L 127.5 93 L 144 90 L 142.5 87 L 92 53.5 Q 86.2 47.8 88 34.5 L 104 9.5 L 110.5 3 L 119.5 0 Z M 120 15 L 117 16 L 102 39 L 103 44 L 158 80 L 166 76 L 174 74 Q 175 62 181 54 L 124 15 L 120 15 Z M 177 88 L 168 92 Q 160 97 158 107 Q 157 119 163 126 L 170 131 L 180 134 Q 189 134 194 130 Q 202 125 204 114 L 203 104 L 199 97 L 189 89 L 177 88 Z M 140 105 Q 99 116 72 140 Q 52 157 38 181 L 24 212 L 17 245 L 17 278 L 22 304 Q 33 339 54 364 Q 74 387 102 402 Q 118 411 138 416 L 159 420 L 168 420 L 169 421 L 284 421 L 287 418 L 287 403 L 286 401 L 285 399 L 167 399 L 166 398 L 152 397 Q 111 389 86 365 Q 64 347 51 320 L 41 290 L 40 279 L 39 278 L 39 264 L 38 263 L 40 238 L 47 213 Q 57 188 73 170 Q 100 138 146 127 L 143 114 Q 141 107 144 106 L 140 105 Z M 215 227 L 215 275 L 218 277 L 248 277 L 250 275 L 250 228 L 215 227 Z M 194 366 L 191 367 L 190 370 L 190 384 L 275 384 L 275 384 L 275 369 L 272 366 L 194 366 Z " /><path fill="rgb(0,0,0)" stroke="rgb(0,0,0)" stroke-width="1" opacity="1" d="M 338.5 66 L 489.5 66 Q 500.4 69.1 506 77.5 L 510 88.5 L 510 234.5 Q 507.8 246.3 499.5 252 L 488.5 257 L 465.5 257 L 462 254.5 L 460 248.5 L 464.5 243 L 483.5 243 Q 490.9 241.9 494 236.5 L 495 234.5 L 495 87.5 L 490.5 82 L 485.5 80 L 342.5 80 Q 336.4 81.4 334 86.5 L 333 89.5 L 333 233.5 L 338.5 241 L 344.5 243 L 435.5 243 L 439 245.5 L 440 251.5 L 436.5 256 L 434.5 257 L 340.5 257 L 333 255 L 333 275.5 L 332 280.5 Q 329.2 289.2 322.5 294 L 282.5 326 L 275.5 327 L 272 324.5 L 271 317.5 L 273.5 314 L 317 279.5 L 319 272.5 L 319 85.5 Q 321.8 76.3 328.5 71 L 338.5 66 Z " /><path fill="rgb(0,0,0)" stroke="rgb(0,0,0)" stroke-width="1" opacity="1" d="M 423.5 99 L 437.5 102 Q 446.4 105.6 452 112.5 Q 461.2 122.3 460 142.5 L 459 147 L 472.5 145 L 478 149.5 Q 479.5 157.5 474.5 159 L 467.5 161 L 462.5 161 L 461 162.5 Q 467.8 171.2 467 187.5 Q 463.6 204.6 451.5 213 L 437.5 219 L 422.5 219 Q 410.5 216 403.5 208 L 399 218.5 L 394.5 223 Q 386.9 224.1 385 219.5 L 384 214.5 L 389 202 Q 379.4 203.2 373.5 200 Q 363.2 195.8 357 187.5 Q 349.5 178.5 350 161.5 Q 352.6 145.1 363.5 137 L 376.5 130 L 388 129 Q 390.2 113.1 402.5 106 L 409.5 102 L 423.5 99 Z M 419 115 L 412 118 Q 405 122 402 131 Q 403 139 400 143 L 396 145 L 392 144 L 383 144 L 374 148 Q 367 153 365 162 L 365 170 L 369 179 Q 373 185 382 187 Q 395 189 401 183 L 406 184 L 409 188 L 413 197 Q 417 202 425 204 Q 437 206 443 201 Q 450 196 452 187 L 451 176 L 446 167 L 437 161 L 437 154 Q 443 149 445 142 L 445 132 L 440 122 L 430 115 L 419 115 Z " /><path fill="rgb(0,0,0)" stroke="rgb(0,0,0)" stroke-width="1" opacity="1" d="M 370.5 102 Q 376.1 102.5 378 106.5 L 379 109.5 L 375.5 116 L 368.5 117 L 364 112.5 L 364 107.5 L 367.5 103 L 370.5 102 Z " /><path fill="rgb(0,0,0)" stroke="rgb(0,0,0)" stroke-width="1" opacity="1" d="M 422.5 127 Q 429.4 126.1 431 130.5 L 432 136.5 L 427.5 142 Q 419.9 143.1 418 138.5 L 417 132.5 L 420.5 128 L 422.5 127 Z " /><path fill="rgb(0,0,0)" stroke="rgb(0,0,0)" stroke-width="1" opacity="1" d="M 385.5 158 L 392 160 L 394 167.5 L 389.5 173 Q 380.5 174.5 379 168.5 Q 378 162 381.5 160 L 385.5 158 Z " /><path fill="rgb(0,0,0)" stroke="rgb(0,0,0)" stroke-width="1" opacity="1" d="M 428.5 177 Q 435 176 437 179.5 L 439 184.5 L 434.5 191 L 429.5 192 L 424 187.5 Q 422.8 180.3 426.5 178 L 428.5 177 Z " /><path fill="rgb(225,180,135)" stroke="rgb(225,180,135)" stroke-width="1" opacity="0.996078431372549" d="M 343.5 80 L 484.5 80 L 492 83 L 495 88.5 L 495 234.5 L 489.5 241 L 487.5 242 L 466.5 242 L 462 244 L 460 250 L 440.5 250 L 440 247.5 L 436.5 243 L 433.5 242 L 341.5 242 L 335 237.5 L 333 232.5 L 333 90.5 Q 334.3 84.8 338.5 82 L 343.5 80 Z M 421 99 L 412 101 L 399 109 Q 390 115 388 128 L 387 129 L 381 129 L 374 131 L 365 136 Q 353 144 350 161 L 350 172 L 356 187 Q 362 195 373 200 Q 379 203 389 202 L 384 215 Q 384 221 389 223 L 397 222 L 404 208 Q 408 214 416 217 L 428 220 Q 446 220 456 210 Q 464 202 467 189 Q 468 171 461 163 L 464 161 L 469 161 L 476 159 L 478 156 Q 480 147 474 145 L 468 145 L 459 147 L 460 144 L 460 130 Q 458 120 453 114 Q 446 105 436 101 L 428 99 L 421 99 Z M 370 102 L 364 107 L 365 115 L 369 117 L 376 116 L 379 112 L 377 105 Q 375 101 370 102 Z " /><path fill="rgb(225,180,135)" stroke="rgb(225,180,135)" stroke-width="1" opacity="0.996078431372549" d="M 140.5 105 L 143 105.5 L 143 116.5 L 146 125.5 L 144.5 127 L 137.5 128 L 123.5 133 L 105.5 142 Q 84.3 154.8 69 173.5 Q 52.8 192.8 44 219.5 L 38 249.5 L 38 271.5 L 43 299.5 L 51 320.5 Q 63.3 345.3 82.5 363 Q 109.6 389.4 154.5 398 Q 160.8 396.2 162.5 399 L 282.5 399 L 286 401.5 L 286 418.5 L 284.5 420 L 161.5 420 L 138.5 416 Q 88.1 401.9 58 367.5 Q 37.6 345.4 26 314.5 L 20 293.5 L 19 282.5 L 18 281.5 L 17 248.5 L 22 219.5 L 31 194.5 Q 44.9 164.9 67.5 144 Q 83.7 128.7 104.5 118 L 120.5 111 L 140.5 105 Z " /><path fill="rgb(225,180,135)" stroke="rgb(225,180,135)" stroke-width="1" opacity="0.996078431372549" d="M 418.5 115 L 429.5 115 L 439 120 L 444 128.5 L 445 141.5 Q 442.8 149.3 437 153.5 L 437 160.5 L 446 167 L 451 175.5 L 452 186.5 Q 449.9 196.4 442.5 201 Q 436.6 205.7 424.5 204 Q 417.1 201.9 413 196.5 L 408 185 Q 405.7 182.4 399.5 183 Q 394.2 188.7 381.5 187 Q 373.5 184.5 369 178.5 Q 364.6 172.9 365 162.5 Q 366.9 153.9 372.5 149 L 382.5 144 L 390.5 144 Q 391.8 146.3 396.5 145 L 401 141.5 L 403 128.5 L 411.5 118 L 418.5 115 Z M 423 127 L 421 128 Q 416 130 417 138 Q 419 144 428 142 L 432 137 L 431 131 Q 429 126 423 127 Z M 386 158 L 383 159 L 379 164 L 380 171 L 384 173 Q 392 175 394 169 L 393 162 Q 391 158 386 158 Z M 429 177 L 427 178 L 423 184 L 425 190 L 430 192 L 435 191 L 439 185 L 438 181 Q 436 176 429 177 Z " /></svg>