<?xml version="1.0" encoding="UTF-8"?>
<svg version="1.1" xmlns="http://www.w3.org/2000/svg" width="256" height="256">
<path d="M0 0 C1.051875 -0.00515625 2.10375 -0.0103125 3.1875 -0.015625 C4.280625 -0.00015625 5.37375 0.0153125 6.5 0.03125 C8.1396875 0.00804688 8.1396875 0.00804688 9.8125 -0.015625 C10.864375 -0.01046875 11.91625 -0.0053125 13 0 C14.43859375 0.00676758 14.43859375 0.00676758 15.90625 0.01367188 C19.26562521 0.68402913 20.46325384 1.81162282 22.5 4.53125 C23.00755847 7.31267043 22.69028514 9.6769729 22.5 12.53125 C25.063004 11.09464259 27.6254156 9.65699581 30.1875 8.21875 C30.90873047 7.81462891 31.62996094 7.41050781 32.37304688 6.99414062 C33.43168945 6.39956055 33.43168945 6.39956055 34.51171875 5.79296875 C35.54981689 5.21289062 35.54981689 5.21289062 36.60888672 4.62109375 C38.16503105 3.72429175 39.67767648 2.75243621 41.17578125 1.76171875 C45.39398992 -0.47145055 49.85891234 0.02100994 54.5 0.53125 C58.77381381 2.22296797 60.50330407 4.43802335 62.5 8.53125 C63.1875 10.84375 63.1875 10.84375 63.5 12.53125 C63.95375 11.87125 64.4075 11.21125 64.875 10.53125 C68.34910693 7.88431139 70.80259308 7.88435215 75.0859375 8.10546875 C77.5 8.53125 77.5 8.53125 80.5625 10.28125 C83.45404346 15.13158097 83.40248716 19.97301817 83.5 25.53125 C83.9125 24.603125 84.325 23.675 84.75 22.71875 C86.50714902 19.51822857 87.44816218 18.37427817 90.5 16.53125 C95.35723364 15.65457856 99.33334278 15.81697007 103.5625 18.40625 C107.50992735 22.73568644 106.81827766 27.10256567 106.80078125 32.75390625 C106.37308825 38.12506376 104.72651681 42.66074449 102.5 47.53125 C102.90992188 47.99015625 103.31984375 48.4490625 103.7421875 48.921875 C104.28101563 49.53546875 104.81984375 50.1490625 105.375 50.78125 C105.90867188 51.38453125 106.44234375 51.9878125 106.9921875 52.609375 C110.14637758 56.62974164 110.73234601 59.41963769 110.5 64.53125 C109.18 64.53125 107.86 64.53125 106.5 64.53125 C106.5 66.84125 106.5 69.15125 106.5 71.53125 C107.80324219 71.55251953 107.80324219 71.55251953 109.1328125 71.57421875 C119.71974697 72.01238047 119.71974697 72.01238047 123.25 74.96875 C126.99547966 79.23443516 126.77969057 82.80529026 126.875 88.28125 C126.93107422 89.48007813 126.93107422 89.48007813 126.98828125 90.703125 C127.0511315 94.94900822 126.83607873 97.68348031 124.1015625 101.046875 C120.04173344 104.92382888 116.76668616 104.80973199 111.375 105.09375 C110.62089844 105.13693359 109.86679688 105.18011719 109.08984375 105.22460938 C107.22678112 105.3307332 105.36341476 105.43150001 103.5 105.53125 C103.98339844 106.45164062 104.46679688 107.37203125 104.96484375 108.3203125 C107.130847 113.37983155 106.98884417 118.47676298 107.0625 123.90625 C107.1885919 131.07947797 107.70515158 137.56810311 109.5 144.53125 C108.18 144.53125 106.86 144.53125 105.5 144.53125 C105.83 146.84125 106.16 149.15125 106.5 151.53125 C107.82 151.53125 109.14 151.53125 110.5 151.53125 C110.5 154.50125 110.5 157.47125 110.5 160.53125 C109.18 160.53125 107.86 160.53125 106.5 160.53125 C106.5 163.17125 106.5 165.81125 106.5 168.53125 C107.82 168.53125 109.14 168.53125 110.5 168.53125 C109.97306865 174.83998969 108.45696592 180.06220796 106.0625 185.90625 C105.53450806 187.2046582 105.53450806 187.2046582 104.99584961 188.52929688 C97.39228057 206.72088962 87.03246704 222.19720825 73.5 236.53125 C72.78070313 237.315 72.06140625 238.09875 71.3203125 238.90625 C61.96015028 248.76606501 50.48600336 256.26677815 36.63500977 257.10351562 C27.30499351 257.34091503 19.56888825 255.04572859 12.5 248.75 C8.62277073 244.49996022 6.83871177 240.52964942 5.875 234.84375 C3.2382538 224.33582809 -7.56321521 216.3590988 -15.0078125 209.01171875 C-18.71106486 205.3445814 -22.19721126 201.56333473 -25.5 197.53125 C-26.47839844 196.36916016 -26.47839844 196.36916016 -27.4765625 195.18359375 C-36.65187292 184.06669143 -41.7857127 174.96657162 -41.90625 160.4296875 C-41.92335022 158.82040878 -41.92335022 158.82040878 -41.9407959 157.17861938 C-41.95964976 154.91094883 -41.97274551 152.64322406 -41.98046875 150.37548828 C-41.99982051 146.93813135 -42.06187623 143.5031994 -42.125 140.06640625 C-42.31180754 120.42978416 -42.31180754 120.42978416 -36.91210938 111.81103516 C-34.80434707 108.40815058 -34.49416441 105.48456527 -34 101.53125 C-32.44167213 91.34406347 -28.33778119 81.51264655 -20.5 74.53125 C-15.44736248 70.84523063 -11.19204859 68.37629277 -4.8125 68.46875 C-4.00425781 68.47777344 -3.19601563 68.48679687 -2.36328125 68.49609375 C-1.74839844 68.50769531 -1.13351563 68.51929687 -0.5 68.53125 C-0.17 65.89125 0.16 63.25125 0.5 60.53125 C-0.82 60.20125 -2.14 59.87125 -3.5 59.53125 C-3.45359375 58.43167969 -3.4071875 57.33210938 -3.359375 56.19921875 C-3.07558949 46.48781451 -3.54561992 38.36464769 -8.54589844 29.72387695 C-10.41276048 25.43362927 -9.86931648 20.64058074 -9.875 16.03125 C-9.89949219 14.98582031 -9.92398438 13.94039062 -9.94921875 12.86328125 C-9.95501953 11.35314453 -9.95501953 11.35314453 -9.9609375 9.8125 C-9.96915527 8.89533203 -9.97737305 7.97816406 -9.98583984 7.03320312 C-8.89297621 1.40522999 -5.30853479 0.02497295 0 0 Z M61.5 24.53125 C61.273125 25.315 61.04625 26.09875 60.8125 26.90625 C59.5 29.53125 59.5 29.53125 57.375 30.71875 C55.78682359 31.16758246 54.18914564 31.59291746 52.5703125 31.9140625 C51.54550781 32.12675781 51.54550781 32.12675781 50.5 32.34375 C49.5409375 32.50810547 49.5409375 32.50810547 48.5625 32.67578125 C45.67455976 33.71961935 45.67455976 33.71961935 41.5 38.53125 C48.43 37.87125 55.36 37.21125 62.5 36.53125 C62.5 32.57125 62.5 28.61125 62.5 24.53125 C62.17 24.53125 61.84 24.53125 61.5 24.53125 Z " fill="#030101" transform="translate(85.5,-0.53125)"/>
<path d="M0 0 C1.33998047 0.08701172 1.33998047 0.08701172 2.70703125 0.17578125 C3.60808594 0.22089844 4.50914063 0.26601562 5.4375 0.3125 C6.12457031 0.37050781 6.81164062 0.42851563 7.51953125 0.48828125 C7.6896875 1.11476563 7.85984375 1.74125 8.03515625 2.38671875 C8.2775 3.20398438 8.51984375 4.02125 8.76953125 4.86328125 C9.11757812 6.08144531 9.11757812 6.08144531 9.47265625 7.32421875 C10.77652283 10.01952504 11.7565372 10.45341439 14.51953125 11.48828125 C15.18210937 11.74609375 15.8446875 12.00390625 16.52734375 12.26953125 C20.64367851 13.66695855 24.45178874 14.62800795 28.76953125 15.17578125 C31.73095766 15.71464111 33.11641493 16.07225045 35.2265625 18.25 C39.3284981 24.64523677 41.1254262 31.95683722 39.51953125 39.48828125 C36.96566439 43.06262629 33.94726529 45.7642542 30.51953125 48.48828125 C29.8646875 49.08640625 29.20984375 49.68453125 28.53515625 50.30078125 C26.51953125 51.48828125 26.51953125 51.48828125 24.140625 51.33203125 C20.14945266 50.04724254 16.38332299 48.34395139 12.5546875 46.64453125 C9.52338114 45.48974788 6.72785885 44.90904553 3.51953125 44.48828125 C3.51953125 47.12828125 3.51953125 49.76828125 3.51953125 52.48828125 C5.37578125 52.67390625 5.37578125 52.67390625 7.26953125 52.86328125 C10.39575095 53.2457443 12.80832362 53.79377648 15.51953125 55.48828125 C15.51953125 55.81828125 15.51953125 56.14828125 15.51953125 56.48828125 C14.79507813 56.52566406 14.070625 56.56304687 13.32421875 56.6015625 C5.95919193 57.10238432 1.10913025 57.83982773 -4.23046875 63.30078125 C-6.39865519 66.37237871 -7.53384353 68.87389406 -8.48046875 72.48828125 C-5.84046875 72.48828125 -3.20046875 72.48828125 -0.48046875 72.48828125 C-0.38765625 71.62203125 -0.38765625 71.62203125 -0.29296875 70.73828125 C0.964221 67.2568327 2.27467208 66.33339725 5.51953125 64.48828125 C7.32765829 64.32493021 9.14232098 64.22901275 10.95703125 64.17578125 C18.92316788 63.80067197 24.66911516 60.31074281 31.51953125 56.48828125 C32.84852175 55.81299874 34.1796948 55.14177991 35.51953125 54.48828125 C35.09966565 58.48400225 34.37312484 61.90330904 32.51953125 65.48828125 C29.69688453 67.26353076 26.94963188 68.1993067 23.79296875 69.26171875 C15.39321764 72.40911952 7.86475119 78.59866689 3.51953125 86.48828125 C1.602491 91.00431282 0.30115196 95.64223285 -0.48046875 100.48828125 C2.15953125 100.48828125 4.79953125 100.48828125 7.51953125 100.48828125 C7.60203125 99.29203125 7.68453125 98.09578125 7.76953125 96.86328125 C8.88483444 88.49850731 15.11705223 83.39719665 21.51953125 78.48828125 C24.14585325 76.93419319 26.71516167 75.71200616 29.51953125 74.48828125 C29.12397547 85.25760623 28.03318961 92.06695769 20.84765625 100.52734375 C14.95145501 108.02620372 12.19481819 116.5243059 11.77734375 125.9453125 C11.34462989 130.2134447 9.86122609 133.9064125 7.51953125 137.48828125 C4.76953125 139.55078125 4.76953125 139.55078125 2.51953125 140.48828125 C-1.20353527 136.84955604 -3.66683782 133.70857697 -4.98046875 128.61328125 C-7.63491944 118.65534194 -14.40824261 112.31702207 -21.58203125 105.34765625 C-24.53904876 102.46489739 -27.24254654 99.41350766 -29.9140625 96.265625 C-31.48225932 94.48624956 -33.13641455 92.87118695 -34.85546875 91.23828125 C-44.22433848 81.95381575 -52.62750155 70.86536273 -52.96875 57.2890625 C-52.93598666 54.7924961 -52.87705311 52.29614636 -52.79296875 49.80078125 C-52.77041016 48.51494141 -52.74785156 47.22910156 -52.72460938 45.90429688 C-52.66624641 42.76436961 -52.58442014 39.62697349 -52.48046875 36.48828125 C-49.84046875 36.15828125 -47.20046875 35.82828125 -44.48046875 35.48828125 C-44.22652344 36.50148437 -43.97257812 37.5146875 -43.7109375 38.55859375 C-43.36363749 39.91024783 -43.01596116 41.26180526 -42.66796875 42.61328125 C-42.50232422 43.2784375 -42.33667969 43.94359375 -42.16601562 44.62890625 C-41.05669036 48.898762 -39.51882875 52.55173501 -37.48046875 56.48828125 C-37.48046875 57.14828125 -37.48046875 57.80828125 -37.48046875 58.48828125 C-36.88234375 58.73578125 -36.28421875 58.98328125 -35.66796875 59.23828125 C-32.29182396 61.16750685 -30.79261299 63.36823426 -29.75 67.109375 C-29.59917969 68.03878906 -29.44835937 68.96820313 -29.29296875 69.92578125 C-29.13441406 70.85261719 -28.97585937 71.77945313 -28.8125 72.734375 C-28.49689789 75.35201606 -28.4183409 77.85501623 -28.48046875 80.48828125 C-25.84046875 80.48828125 -23.20046875 80.48828125 -20.48046875 80.48828125 C-21.44909279 72.47719065 -22.61296537 65.04806289 -25.48046875 57.48828125 C-24.82046875 57.79765625 -24.16046875 58.10703125 -23.48046875 58.42578125 C-19.7757086 59.7378838 -16.38782884 60.0909226 -12.48046875 60.48828125 C-13.92628576 56.51228447 -15.33917669 54.21363701 -19.04296875 52.23828125 C-23.0477231 50.41793836 -27.02511356 49.75195032 -31.37890625 49.2734375 C-33.48046875 48.48828125 -33.48046875 48.48828125 -34.73046875 46.28515625 C-35.51046014 43.37643835 -35.8884561 40.67778954 -36.10546875 37.67578125 C-36.18023437 36.69996094 -36.255 35.72414062 -36.33203125 34.71875 C-36.38101563 33.98269531 -36.43 33.24664062 -36.48046875 32.48828125 C-35.02509307 31.64979321 -33.56606502 30.81764191 -32.10546875 29.98828125 C-31.29335937 29.52421875 -30.48125 29.06015625 -29.64453125 28.58203125 C-27.48046875 27.48828125 -27.48046875 27.48828125 -25.48046875 27.48828125 C-24.39327194 28.69888959 -23.35992251 29.95818669 -22.35546875 31.23828125 C-17.4181575 37.03782564 -12.09183789 39.72714434 -4.48046875 40.48828125 C-4.48046875 37.84828125 -4.48046875 35.20828125 -4.48046875 32.48828125 C-5.49109375 32.44703125 -6.50171875 32.40578125 -7.54296875 32.36328125 C-12.22309385 31.70558546 -15.50621971 29.07586414 -18.48046875 25.48828125 C-19.17578125 23.2890625 -19.17578125 23.2890625 -19.48046875 21.48828125 C-18.65546875 20.89015625 -17.83046875 20.29203125 -16.98046875 19.67578125 C-11.57856391 15.19771762 -7.19351736 8.90964629 -4.06640625 2.6640625 C-2.48046875 0.48828125 -2.48046875 0.48828125 0 0 Z " fill="#D83643" transform="translate(104.48046875,103.51171875)"/>
<path d="M0 0 C0.25394531 1.01320312 0.50789063 2.02640625 0.76953125 3.0703125 C1.11683126 4.42196658 1.46450759 5.77352401 1.8125 7.125 C1.97814453 7.79015625 2.14378906 8.4553125 2.31445312 9.140625 C3.42377839 13.41048075 4.96164 17.06345376 7 21 C7 21.66 7 22.32 7 23 C7.598125 23.2475 8.19625 23.495 8.8125 23.75 C12.18864479 25.6792256 13.68785576 27.87995301 14.73046875 31.62109375 C14.88128906 32.55050781 15.03210938 33.47992188 15.1875 34.4375 C15.34605469 35.36433594 15.50460938 36.29117188 15.66796875 37.24609375 C15.98357086 39.86373481 16.06212785 42.36673498 16 45 C16.90621094 44.91878906 17.81242187 44.83757812 18.74609375 44.75390625 C22.77115267 45.05832247 23.48037838 45.93443609 26.0625 48.9375 C30.24763838 53.46662235 34.68663648 56.76088908 39.83422852 60.07983398 C41.25305656 61.00859447 42.63103632 61.99919657 44 63 C44 63.66 44 64.32 44 65 C46.64 65 49.28 65 52 65 C52.0825 63.80375 52.165 62.6075 52.25 61.375 C53.36530319 53.01022606 59.59752098 47.9089154 66 43 C68.626322 41.44591194 71.19563042 40.22372491 74 39 C73.60444422 49.76932498 72.51365836 56.57867644 65.328125 65.0390625 C59.43192376 72.53792247 56.67528694 81.03602465 56.2578125 90.45703125 C55.82509864 94.72516345 54.34169484 98.41813125 52 102 C49.25 104.0625 49.25 104.0625 47 105 C43.27693348 101.36127479 40.81363093 98.22029572 39.5 93.125 C36.84554931 83.16706069 30.07222614 76.82874082 22.8984375 69.859375 C19.94141999 66.97661614 17.23792221 63.92522641 14.56640625 60.77734375 C12.99820943 58.99796831 11.3440542 57.3829057 9.625 55.75 C0.25613027 46.4655345 -8.1470328 35.37708148 -8.48828125 21.80078125 C-8.45551791 19.30421485 -8.39658436 16.80786511 -8.3125 14.3125 C-8.28994141 13.02666016 -8.26738281 11.74082031 -8.24414062 10.41601562 C-8.18577766 7.27608836 -8.10395139 4.13869224 -8 1 C-5.10765685 0.17361624 -3.11257569 0 0 0 Z " fill="#BF303B" transform="translate(60,139)"/>
<path d="M0 0 C5.21847832 3.78339678 8.67634998 7.55795587 10.5 13.8125 C10.96031715 17.4765534 11.0555669 21.12262694 11.125 24.8125 C11.28842023 30.89173254 11.48287415 36.80979006 12.5 42.8125 C14.15 42.8125 15.8 42.8125 17.5 42.8125 C17.995 46.2775 17.995 46.2775 18.5 49.8125 C19.82 49.8125 21.14 49.8125 22.5 49.8125 C22.5 52.7825 22.5 55.7525 22.5 58.8125 C21.18 58.8125 19.86 58.8125 18.5 58.8125 C18.5 61.4525 18.5 64.0925 18.5 66.8125 C16.85 66.8125 15.2 66.8125 13.5 66.8125 C13.17 69.1225 12.84 71.4325 12.5 73.8125 C8.75299685 72.39969553 5.31213429 70.6931803 1.8125 68.75 C-1.81676566 66.72991708 -1.81676566 66.72991708 -5.5 64.8125 C-6.09517007 63.35403869 -6.62617058 61.86915729 -7.125 60.375 C-9.57044139 53.97640147 -13.695053 47.10088449 -19.6953125 43.4921875 C-22.44978958 40.92849671 -22.17710952 37.9316354 -22.375 34.375 C-22.95811652 27.43347398 -24.70894568 22.40096699 -28.35546875 16.36328125 C-29.73438544 13.29013244 -29.5352711 11.97059973 -28.5 8.8125 C-26.15176077 4.20995111 -23.62808756 1.58792294 -18.98046875 -0.49609375 C-12.74332783 -2.23463539 -6.10527624 -2.07143301 0 0 Z " fill="#BD303B" transform="translate(173.5,101.1875)"/>
<path d="M0 0 C1.06089844 0.3403125 2.12179688 0.680625 3.21484375 1.03125 C9.96312127 3.50033547 15.37193482 6.57423668 19 13 C19 14.32 19 15.64 19 17 C20.32 17 21.64 17 23 17 C23.04241723 19.33294775 23.04092937 21.66702567 23 24 C22 25 22 25 19.95874023 25.11352539 C19.08419189 25.10828857 18.20964355 25.10305176 17.30859375 25.09765625 C16.36435547 25.09443359 15.42011719 25.09121094 14.44726562 25.08789062 C13.45404297 25.07951172 12.46082031 25.07113281 11.4375 25.0625 C10.44041016 25.05798828 9.44332031 25.05347656 8.41601562 25.04882812 C5.94395151 25.03700007 3.47200482 25.02051849 1 25 C1 24.34 1 23.68 1 23 C-0.0828125 22.566875 -0.0828125 22.566875 -1.1875 22.125 C-2.92989762 21.42804095 -4.66198731 20.70384778 -6.375 19.9375 C-15.12343246 16.81305983 -27.69685798 16.00663518 -36.20703125 19.98046875 C-36.79871094 20.31691406 -37.39039063 20.65335938 -38 21 C-38.66386719 21.36738281 -39.32773438 21.73476562 -40.01171875 22.11328125 C-49.32801724 28.12894827 -53.40957388 38.63829553 -56 49 C-58.97 49 -61.94 49 -65 49 C-65.02578125 48.31035156 -65.0515625 47.62070313 -65.078125 46.91015625 C-65.43991771 40.91590887 -66.36044789 36.30306184 -69.16015625 30.97265625 C-70 29 -70 29 -70 25 C-62.36059167 12.76029401 -49.42474602 1.9214742 -35.56640625 -2.30859375 C-23.81096578 -4.58757838 -11.3570818 -3.67217247 0 0 Z " fill="#F4A58B" transform="translate(169,47)"/>
<path d="M0 0 C2.98862436 1.50585127 3.67409747 2.2611462 5.625 5.1875 C8.43310144 5.69854922 8.43310144 5.69854922 11.7265625 5.69921875 C13.54414063 5.75239258 13.54414063 5.75239258 15.3984375 5.80664062 C16.66945312 5.82919922 17.94046875 5.85175781 19.25 5.875 C21.168125 5.92624023 21.168125 5.92624023 23.125 5.97851562 C26.2913529 6.06121887 29.45816376 6.12602861 32.625 6.1875 C32.625 11.4675 32.625 16.7475 32.625 22.1875 C18.5 22.5625 18.5 22.5625 10.625 19.1875 C-0.30334405 18.10462308 -7.60484359 19.48589023 -16.6875 25.3125 C-20.27847372 29.15400677 -21.74413568 33.24694045 -23.375 38.1875 C-29.9467789 37.76398536 -35.49784443 37.06465557 -40.375 32.1875 C-41.29773544 21.8528631 -37.62503929 12.3662057 -31.375 4.1875 C-23.34263078 -3.24798403 -10.00434357 -4.28290525 0 0 Z " fill="#F6B29B" transform="translate(160.375,73.8125)"/>
<path d="M0 0 C5.28 0 10.56 0 16 0 C16.22786458 2.57161458 16.45572917 5.14322917 16.68359375 7.71484375 C16.76044976 9.96159732 16.76044976 9.96159732 18 11 C25.45308458 12.7274439 30.7352494 10.9406889 37.03540039 7.06347656 C38.62353733 6.02979134 40.20120422 4.97982003 41.76733398 3.91308594 C42.87057007 3.16720215 42.87057007 3.16720215 43.99609375 2.40625 C44.64763428 1.94541016 45.2991748 1.48457031 45.97045898 1.00976562 C48.48388173 -0.2407476 50.22573004 -0.26386109 53 0 C54.7890625 1.1875 54.7890625 1.1875 56 3 C56.3984375 5.375 56.3984375 5.375 56.375 8 C56.38660156 9.299375 56.38660156 9.299375 56.3984375 10.625 C56 13 56 13 54.9140625 14.75 C53 16 53 16 49.8671875 16.31640625 C44.57737256 17.25147455 41.34684503 19.73836054 37.125 22.9375 C36.35414062 23.46923828 35.58328125 24.00097656 34.7890625 24.54882812 C30.48069319 27.73681868 30.48069319 27.73681868 28.43286133 32.51196289 C28.33053733 34.25179216 28.25832346 35.99369768 28.21875 37.73608398 C28 40 28 40 25.99609375 42.62890625 C25.15175781 43.26699219 24.30742188 43.90507813 23.4375 44.5625 C17.47095986 49.38195782 12.26715433 54.59926851 8 61 C5.69 60.67 3.38 60.34 1 60 C1.33 57.36 1.66 54.72 2 52 C3.65 52 5.3 52 7 52 C7.62858355 38.89752504 7.57122325 27.35683487 0 16 C-0.14289203 13.22503673 -0.18737542 10.58047807 -0.125 7.8125 C-0.08375 5.234375 -0.0425 2.65625 0 0 Z " fill="#F6A68C" transform="translate(84,8)"/>
<path d="M0 0 C4.35769864 2.24823943 6.52274457 5.40409422 8 10 C9.15590048 17.58914986 8.82676054 23.70169173 4.625 30.25 C-3.66654686 41.19834532 -14.1471853 51.77135594 -28 55 C-30.72448126 55.21065577 -33.26105058 55.14672943 -36 55 C-36.64677183 49.0496992 -35.02125087 45.56087839 -32.23828125 40.33203125 C-29.78933382 35.71997568 -28.90421152 31.37122959 -28.1875 26.25 C-26.63680555 16.62376599 -22.62800041 9.14335604 -15 3 C-10.25046282 -0.20077506 -5.6056634 -1.07299818 0 0 Z " fill="#D73643" transform="translate(88,76)"/>
<path d="M0 0 C5.20779319 4.21176717 9.42800454 7.77325461 10.37109375 14.7421875 C10.47550781 15.77601563 10.57992187 16.80984375 10.6875 17.875 C11.84318068 27.08834321 16.71611188 37.08213267 22.84765625 44.12109375 C24 46 24 46 24.0546875 48.6953125 C22.5622509 53.37161385 19.98529995 56.9228291 17.125 60.875 C16.58230469 61.65875 16.03960937 62.4425 15.48046875 63.25 C12.4306984 67.53011781 12.4306984 67.53011781 11 69 C7.09030078 69 6.4740993 67.90683689 3.75 65.1875 C-2.81648982 58.39605702 -9.81666493 49.80085824 -10.08203125 39.95703125 C-9.45460688 32.63708026 -8.21672855 25.99445032 -6 19 C-5.48934248 17.36335638 -4.97894938 15.72663024 -4.46875 14.08984375 C-2.99661698 9.38757243 -1.50260949 4.69261541 0 0 Z " fill="#AA303A" transform="translate(150,152)"/>
<path d="M0 0 C-0.125 3.25 -0.125 3.25 -1 7 C-5.83934056 11.08655425 -9.87020334 12.09666312 -16.03515625 12.17578125 C-29.0797663 12.45664865 -38.98174297 13.13283 -50.1875 20.25 C-54.82353238 23.16133989 -57.57471288 23.8418549 -63 23 C-65.5 21.5 -65.5 21.5 -67 20 C-66.30665243 13.73098235 -59.54857842 9.78748559 -55 6 C-40.39028291 -5.66799741 -17.1087518 -8.5543759 0 0 Z " fill="#F5C0B6" transform="translate(171,48)"/>
<path d="M0 0 C2.64 0 5.28 0 8 0 C8.03867188 1.32064453 8.03867188 1.32064453 8.078125 2.66796875 C8.13484375 3.82941406 8.1915625 4.99085937 8.25 6.1875 C8.29640625 7.33605469 8.3428125 8.48460937 8.390625 9.66796875 C9.10116837 13.55318347 10.46483329 15.04151277 13 18 C14.16015625 20.82421875 14.16015625 20.82421875 15.0625 23.6875 C16.38660986 28.13066656 16.38660986 28.13066656 20 31 C22.0492094 31.45139459 22.0492094 31.45139459 24.1875 31.625 C25.445625 31.74875 26.70375 31.8725 28 32 C28.58526093 35.21893509 28.83686508 36.9004997 28 40 C25.77922874 42.53292786 23.35424362 44.55696226 20.75 46.69140625 C15.82764985 50.82366326 11.56329016 55.65506476 8 61 C5.69 60.67 3.38 60.34 1 60 C1.33 57.36 1.66 54.72 2 52 C3.65 52 5.3 52 7 52 C7.62858355 38.89752504 7.57122325 27.35683487 0 16 C-0.14245897 13.23344676 -0.18769445 10.57346694 -0.125 7.8125 C-0.11597656 7.06291016 -0.10695313 6.31332031 -0.09765625 5.54101562 C-0.07412578 3.69387346 -0.03825561 1.84689588 0 0 Z " fill="#F49072" transform="translate(84,8)"/>
<path d="M0 0 C2.82437223 2.68345995 5.04509989 5.37701563 7.1875 8.625 C10.99666819 14.18969787 15.39221929 19.08921331 20 24 C14.96443571 30.32673462 9.47868734 36.24365202 1.8125 39.25 C-1.49316511 38.9561631 -3.27710541 37.86499434 -5.67578125 35.5859375 C-8.71115502 31.9506521 -9.85928021 28.26647813 -10.375 23.625 C-9.41745315 14.36871383 -5.18054529 7.593402 0 0 Z " fill="#BF303B" transform="translate(134,204)"/>
<path d="M0 0 C4.08667584 0.76031178 5.361335 3.20459959 7.6875 6.5 C9.87676708 13.06780123 10.07413563 20.36779035 7.25390625 26.73828125 C2.07372049 34.77434407 -4.94198198 44.40423383 -14.3125 47.5 C-14.14379753 38.65078869 -12.83555667 30.26295433 -11 21.625 C-10.69896362 20.16404907 -10.69896362 20.16404907 -10.3918457 18.67358398 C-6.58220292 1.42317901 -6.58220292 1.42317901 0 0 Z " fill="#EF4652" transform="translate(87.3125,76.5)"/>
<path d="M0 0 C3.3 0 6.6 0 10 0 C10.65104167 2.27864583 11.30208333 4.55729167 11.953125 6.8359375 C13.25699158 9.53124379 14.23700595 9.96513314 17 11 C17.99386719 11.38671875 17.99386719 11.38671875 19.0078125 11.78125 C23.12414726 13.1786773 26.93225749 14.1397267 31.25 14.6875 C34.2154414 15.22793091 35.60729808 15.6028956 37.7421875 17.76171875 C40.17915076 21.4860044 41 23.44344169 41 28 C25.45371605 26.37860842 13.07139383 24.30080611 2.34765625 11.96484375 C0.96291107 9.94592541 0.42115964 8.39367945 0 6 C-0.99 6.33 -1.98 6.66 -3 7 C-1.125 2.25 -1.125 2.25 0 0 Z " fill="#BF303B" transform="translate(102,104)"/>
<path d="M0 0 C3.42469409 1.82694006 5.64094443 4.01136955 7.75 7.3125 C7.09 7.9725 6.43 8.6325 5.75 9.3125 C3.92833146 9.14064448 2.10696551 8.95114362 0.296875 8.68359375 C-11.3647446 6.80991656 -11.3647446 6.80991656 -22.25 10.3125 C-23.24 10.6425 -24.23 10.9725 -25.25 11.3125 C-26.34827558 13.12226207 -26.34827558 13.12226207 -27.25 15.3125 C-28.07359943 16.85938866 -28.90722379 18.40097508 -29.75 19.9375 C-30.1728125 20.71351562 -30.595625 21.48953125 -31.03125 22.2890625 C-32.25 24.3125 -32.25 24.3125 -34.25 26.3125 C-36.875 26.4375 -36.875 26.4375 -39.25 26.3125 C-39.75258614 18.11406353 -36.53624585 12.04802919 -32.25 5.3125 C-24.19037501 -2.9824425 -10.59464043 -4.39376393 0 0 Z " fill="#F5CCBE" transform="translate(160.25,73.6875)"/>
<path d="M0 0 C1 3 1 3 0 6 C0 6.75152344 0 7.50304687 0 8.27734375 C0 16.14747684 -2.86654727 20.20016601 -7.765625 26.18359375 C-10.49484829 29.62375108 -12.23103088 33.00059154 -14 37 C-17.41660651 35.86113116 -18.53320396 34.32472078 -20.7265625 31.56640625 C-22.3505174 29.56884209 -24.14709491 27.78427898 -26 26 C-24.35 26 -22.7 26 -21 26 C-20.9175 24.80375 -20.835 23.6075 -20.75 22.375 C-19.62772675 13.95795062 -13.35623943 9.01247069 -7 4 C-4.70851092 2.50300531 -2.44189616 1.2469257 0 0 Z " fill="#D63542" transform="translate(133,178)"/>
<path d="M0 0 C0.33 0 0.66 0 1 0 C1.495 4.95 1.495 4.95 2 10 C-6.14480952 10.28302427 -12.36043614 10.2740988 -20 7 C-30.92834405 5.91712308 -38.22984359 7.29839023 -47.3125 13.125 C-50.90347372 16.96650677 -52.36913568 21.05944045 -54 26 C-59.60489085 25.63879592 -64.14267904 25.08025232 -69 22 C-69.66 21.01 -70.32 20.02 -71 19 C-70.32453125 19.13019531 -69.6490625 19.26039062 -68.953125 19.39453125 C-66.24689464 19.81298016 -63.73848573 20.09085024 -61 20 C-58.50341458 18.06885514 -58.50341458 18.06885514 -57 15 C-53.1635109 9.03950309 -49.60018301 5.41183647 -42.8125 2.75 C-32.90642364 0.80126367 -21.37334677 1.24465274 -12 5 C-7.73572214 5.53108222 -4.6707276 5.44715174 -1 3 C-0.67 2.01 -0.34 1.02 0 0 Z " fill="#F19D80" transform="translate(191,86)"/>
<path d="M0 0 C5.38137896 0.07687684 8.12118695 0.99452582 12.375 4.3125 C16.10888442 8.58929343 16.81832241 12.7320813 16.80859375 18.296875 C16.26312528 20.83256628 15.42842624 21.76145595 13.375 23.3125 C10.18757061 23.45738315 8.21506385 22.96523927 5.67578125 20.9921875 C3.79806047 19.17776068 2.08251434 17.28807573 0.375 15.3125 C-0.29660156 14.55710937 -0.96820313 13.80171875 -1.66015625 13.0234375 C-5.42376781 8.54900467 -5.42376781 8.54900467 -6.625 6.3125 C-6.12774064 0.92034379 -5.23340249 0.15020339 0 0 Z " fill="#D93643" transform="translate(166.625,100.6875)"/>
<path d="M0 0 C2.9375 0.6875 2.9375 0.6875 4.9375 1.6875 C4.9375 2.3475 4.9375 3.0075 4.9375 3.6875 C6.5875 3.6875 8.2375 3.6875 9.9375 3.6875 C10.2675 6.3275 10.5975 8.9675 10.9375 11.6875 C9.2875 11.6875 7.6375 11.6875 5.9375 11.6875 C6.06125 12.986875 6.06125 12.986875 6.1875 14.3125 C5.88121259 18.44738007 4.41641278 20.43392697 1.9375 23.6875 C-2.22460575 23.49391369 -3.81022093 22.91784176 -6.9375 20.0625 C-9.46108431 16.05445433 -9.70475602 14.34385612 -9.0625 9.6875 C-6.26982411 -0.63977797 -6.26982411 -0.63977797 0 0 Z " fill="#DA3643" transform="translate(181.0625,140.3125)"/>
<path d="M0 0 C-1.38939839 3.34178887 -2.79542709 4.84368489 -5.84375 6.76171875 C-6.59527344 7.24060547 -7.34679687 7.71949219 -8.12109375 8.21289062 C-8.90613281 8.69951172 -9.69117187 9.18613281 -10.5 9.6875 C-11.28503906 10.18572266 -12.07007812 10.68394531 -12.87890625 11.19726562 C-21.38012695 16.57067871 -21.38012695 16.57067871 -28 16 C-30.4375 14 -30.4375 14 -32 12 C-30.70578125 11.94972656 -29.4115625 11.89945313 -28.078125 11.84765625 C-22.3386655 11.21056276 -18.44917253 8.62736203 -13.75 5.4375 C-12.20988193 4.40521156 -10.66318249 3.38265955 -9.109375 2.37109375 C-8.43874023 1.91661865 -7.76810547 1.46214355 -7.07714844 0.99389648 C-4.57783469 -0.20200223 -2.73750295 -0.18085158 0 0 Z " fill="#F3BDB3" transform="translate(137,8)"/>
<path d="M0 0 C1.65 0.33 3.3 0.66 5 1 C5.56131481 7.45512034 3.63463787 12.15439723 1 18 C-0.98 17.67 -2.96 17.34 -5 17 C-4.46246904 10.81839396 -2.45417612 5.673142 0 0 Z " fill="#265E9A" transform="translate(179,24)"/>
<path d="M0 0 C1.43838552 0.79005662 2.87567415 1.58211045 4.3125 2.375 C5.11300781 2.81585938 5.91351563 3.25671875 6.73828125 3.7109375 C8.53527943 4.73513335 10.27900708 5.85267138 12 7 C11.51421457 10.12290635 11.0013988 12.99580359 10 16 C5.96374924 14.65458308 5.14552047 12.14052535 3.3125 8.5625 C2.99216797 7.96373047 2.67183594 7.36496094 2.34179688 6.74804688 C0 2.28914579 0 2.28914579 0 0 Z " fill="#B52D38" transform="translate(170,175)"/>
<path d="M0 0 C0.99 0.33 1.98 0.66 3 1 C3 7.6 3 14.2 3 21 C1.68 21 0.36 21 -1 21 C-1.02888146 17.68751813 -1.04675799 14.37506833 -1.0625 11.0625 C-1.07087891 10.11697266 -1.07925781 9.17144531 -1.08789062 8.19726562 C-1.09111328 7.29814453 -1.09433594 6.39902344 -1.09765625 5.47265625 C-1.10289307 4.64000244 -1.10812988 3.80734863 -1.11352539 2.94946289 C-1 1 -1 1 0 0 Z " fill="#AA303A" transform="translate(157,16)"/>
<path d="M0 0 C0 2.97 0 5.94 0 9 C-2.64 9 -5.28 9 -8 9 C-8 6.36 -8 3.72 -8 1 C-5.10765685 0.17361624 -3.11257569 0 0 0 Z " fill="#010000" transform="translate(196,151)"/>
<path d="M0 0 C0.99 0.33 1.98 0.66 3 1 C3 4.96 3 8.92 3 13 C2.01 13.33 1.02 13.66 0 14 C-1.24377393 11.51245214 -1.13306235 9.77344699 -1.125 7 C-1.12757813 6.113125 -1.13015625 5.22625 -1.1328125 4.3125 C-1 2 -1 2 0 0 Z " fill="#CC6D4F" transform="translate(201,81)"/>
<path d="M0 0 C1.65 0 3.3 0 5 0 C5.33 2.64 5.66 5.28 6 8 C4.68 8 3.36 8 2 8 C1.34 5.36 0.68 2.72 0 0 Z " fill="#B82E39" transform="translate(186,144)"/>
<path d="M0 0 C0 4.95 0 9.9 0 15 C-2.18994248 11.71508627 -2.35277339 10.16904361 -2.625 6.3125 C-2.69976562 5.31863281 -2.77453125 4.32476562 -2.8515625 3.30078125 C-2.90054688 2.54152344 -2.94953125 1.78226563 -3 1 C-1 0 -1 0 0 0 Z " fill="#B12C36" transform="translate(71,135)"/>
<path d="M0 0 C1.7074998 1.28062485 3.37373596 2.61767557 5 4 C5 4.66 5 5.32 5 6 C2.36 6 -0.28 6 -3 6 C-1.125 1.125 -1.125 1.125 0 0 Z " fill="#962A33" transform="translate(120,242)"/>
</svg>
