<?xml version="1.0" encoding="UTF-8"?>
<svg version="1.1" xmlns="http://www.w3.org/2000/svg" width="512" height="512">
<path d="M0 0 C7.17954201 5.62182735 12.26395648 11.72966096 16.39453125 19.875 C16.90693359 20.86693359 16.90693359 20.86693359 17.4296875 21.87890625 C21.24341159 30.9431528 20.87203269 43.73384511 17.76953125 52.9375 C13.70520721 62.21322211 7.72299191 68.98624698 0.39453125 75.875 C0.93722656 76.31070313 1.47992188 76.74640625 2.0390625 77.1953125 C7.08788994 81.39812021 10.89388275 84.64166834 11.703125 91.484375 C11.97076114 97.4859127 11.57181244 101.26927971 7.39453125 105.875 C3.12983323 110.16081039 -0.93551194 112.79215872 -6.60546875 114.875 C-5.95320313 115.40867187 -5.3009375 115.94234375 -4.62890625 116.4921875 C3.79138366 123.67054675 10.40168898 131.52683845 11.61425781 142.94384766 C12.3159975 156.02038345 10.77227422 166.40282129 2.39453125 176.875 C3.37292969 177.40287109 3.37292969 177.40287109 4.37109375 177.94140625 C10.69775098 181.51531439 16.0732846 185.2325067 19.39453125 191.875 C20.08619101 200.01530338 19.21575636 205.16710414 14.20703125 211.75 C13.60890625 212.45125 13.01078125 213.1525 12.39453125 213.875 C12.81605469 214.34550781 13.23757813 214.81601563 13.671875 215.30078125 C14.21972656 215.92339844 14.76757812 216.54601562 15.33203125 217.1875 C15.87730469 217.80238281 16.42257812 218.41726562 16.984375 219.05078125 C20.64455538 223.78569603 19.81528002 230.202405 19.39453125 235.875 C17.85411753 240.18815842 15.78896531 242.83171429 12.39453125 245.875 C13.84075311 249.73159162 15.60770622 253.35262994 17.4921875 257.0078125 C20.75285176 263.7549879 20.4951616 273.40958545 18.7109375 280.6484375 C17.76559895 282.88430045 16.71138123 284.83692141 15.39453125 286.875 C14.92402344 287.61621094 14.45351563 288.35742188 13.96875 289.12109375 C11.12708938 293.24040023 9.238941 295.24380281 4.39453125 296.875 C4.89984375 297.72320312 5.40515625 298.57140625 5.92578125 299.4453125 C10.72818893 307.93473782 12.92515376 314.92595366 11.39453125 324.875 C8.69712987 334.5714481 2.77795852 339.92928656 -5.3984375 345.26171875 C-13.42988529 349.30189894 -20.81912801 350.3065606 -29.73046875 350.0625 C-30.68695313 350.04896484 -31.6434375 350.03542969 -32.62890625 350.02148438 C-34.95504985 349.98659222 -37.27993405 349.93758339 -39.60546875 349.875 C-39.73824219 350.47441406 -39.87101562 351.07382812 -40.0078125 351.69140625 C-41.66826358 357.75802164 -45.54646357 360.83616583 -50.703125 363.89453125 C-54.77621198 365.99380195 -57.73569658 365.81220956 -62.23046875 365.5625 C-68.43320422 365.4921597 -71.80020773 366.40851197 -76.54296875 370.3671875 C-83.2818553 375.29372199 -92.62879031 374.7042988 -100.60546875 373.875 C-107.0683498 372.34605755 -111.8236642 369.40513063 -116.60546875 364.875 C-120.66312227 366.82380343 -124.43500591 369.1791815 -128.265625 371.53515625 C-134.23606228 374.95395422 -140.92301548 374.43187111 -147.60546875 373.875 C-150.84195389 372.88415094 -153.6969638 371.59855849 -156.60546875 369.875 C-156.53585937 370.52984375 -156.46625 371.1846875 -156.39453125 371.859375 C-155.90532925 380.10592293 -158.02507755 386.02936087 -162.60546875 392.875 C-165.26909922 395.77576528 -168.05352074 398.09902599 -171.60546875 399.875 C-171.60911438 400.53375122 -171.61276001 401.19250244 -171.61651611 401.87121582 C-171.65844433 408.75011006 -171.72786277 415.62834351 -171.81298828 422.50683594 C-171.84115056 425.07122171 -171.86238856 427.63569353 -171.87646484 430.20019531 C-171.89795901 433.89432677 -171.9446462 437.58742887 -171.99609375 441.28125 C-171.99732239 442.4211438 -171.99855103 443.5610376 -171.99981689 444.73547363 C-172.13998191 452.41605835 -173.18870192 457.91552524 -178.3515625 463.8984375 C-178.90972656 464.34445312 -179.46789062 464.79046875 -180.04296875 465.25 C-180.59855469 465.71148437 -181.15414062 466.17296875 -181.7265625 466.6484375 C-187.95414185 470.71384273 -194.39463258 470.55757915 -201.60546875 469.875 C-210.53002861 467.5248659 -216.66498849 459.75076801 -221.35546875 452.25 C-230.27942207 435.83155956 -231.2083079 416.8537973 -226.26171875 398.9453125 C-226.04515625 398.26210938 -225.82859375 397.57890625 -225.60546875 396.875 C-226.74048828 396.05128906 -226.74048828 396.05128906 -227.8984375 395.2109375 C-233.30209719 390.54803924 -236.23417362 384.21315339 -237.01953125 377.15234375 C-237.04735707 372.74195166 -237.05087554 368.53967677 -235.90625 364.26171875 C-235.49660365 361.01114834 -236.52461603 359.79281396 -238.35546875 357.125 C-244.37076675 347.62055002 -245.18195616 338.95934665 -245.60546875 327.875 C-246.46785156 328.308125 -247.33023438 328.74125 -248.21875 329.1875 C-259.53230917 334.49402678 -270.91698446 336.0495054 -283.1640625 332.984375 C-294.32497313 328.71905884 -301.35096268 321.81498278 -307.60546875 311.875 C-308.62713908 310.27574446 -309.64932011 308.67681511 -310.671875 307.078125 C-319.18899206 293.70795337 -319.18899206 293.70795337 -320.60546875 290.875 C-321.26546875 290.875 -321.92546875 290.875 -322.60546875 290.875 C-324.20394937 292.53237274 -324.20394937 292.53237274 -325.85546875 294.625 C-328.84436597 298.159042 -331.62553793 300.5452844 -335.60546875 302.875 C-334.76521438 315.86300487 -334.76521438 315.86300487 -328.5859375 326.4765625 C-327.01025527 327.45385131 -325.42677222 328.41866905 -323.8359375 329.37109375 C-320.13449492 331.86681248 -318.07086105 334.66813215 -316.60546875 338.875 C-315.83975801 343.68442281 -315.38441381 348.50022771 -317.66796875 352.94140625 C-319.95933548 355.77151694 -322.04497198 357.64195795 -325.671875 358.18359375 C-333.00421101 358.56225899 -337.12927515 356.66787243 -342.60546875 351.875 C-353.77737057 341.58856089 -359.54397435 328.75702627 -361.60546875 313.875 C-361.60546875 312.555 -361.60546875 311.235 -361.60546875 309.875 C-362.46527344 309.92140625 -363.32507813 309.9678125 -364.2109375 310.015625 C-378.78967707 310.46077735 -390.961414 306.69158968 -401.890625 296.80859375 C-409.96354389 288.37352523 -413.37888292 279.78759258 -413.1953125 268.22265625 C-412.60341607 256.79293212 -407.6482442 248.77807464 -399.60546875 240.875 C-400.45818359 240.25625 -400.45818359 240.25625 -401.328125 239.625 C-410.68850568 232.62424784 -417.60212474 225.48970207 -420.60546875 213.875 C-422.28404873 201.82194733 -419.82502052 191.67296311 -412.60546875 181.875 C-413.28609375 181.689375 -413.96671875 181.50375 -414.66796875 181.3125 C-420.9694184 178.22881187 -425.38934302 172.96315078 -427.94140625 166.4609375 C-429.69710302 159.62404773 -429.85655115 152.47287919 -426.66796875 146.0625 C-419.9777984 135.92531667 -410.41744009 131.43340689 -399.60546875 126.875 C-401.15234375 125.76125 -401.15234375 125.76125 -402.73046875 124.625 C-408.58104453 119.5251091 -411.90729954 113.03590108 -413.1875 105.40625 C-413.63807771 95.93363953 -411.15799127 87.88937263 -404.71875 80.796875 C-400.34787529 76.875 -400.34787529 76.875 -397.60546875 76.875 C-398.02699219 76.12734375 -398.44851563 75.3796875 -398.8828125 74.609375 C-399.43066406 73.62453125 -399.97851562 72.6396875 -400.54296875 71.625 C-401.08824219 70.65046875 -401.63351562 69.6759375 -402.1953125 68.671875 C-405.94030466 61.24413432 -406.18822196 50.89412594 -404.07519531 42.85839844 C-399.53227579 30.19427701 -390.40495529 22.77613542 -378.66015625 17.06640625 C-371.33166754 14.20810822 -364.72192828 13.48716343 -356.91796875 13.5 C-355.95060791 13.50088623 -354.98324707 13.50177246 -353.98657227 13.50268555 C-345.78439304 13.63777704 -337.24565364 14.39907968 -330.45703125 19.484375 C-325.97634875 21.66947496 -321.46154425 21.27592336 -316.54296875 21.3125 C-303.62187534 21.65602821 -293.99100055 23.90518832 -283.60546875 31.875 C-283.02925781 32.31070313 -282.45304688 32.74640625 -281.859375 33.1953125 C-278.61281456 35.7698916 -276.14348198 38.62266321 -273.60546875 41.875 C-272.16880859 41.45927734 -272.16880859 41.45927734 -270.703125 41.03515625 C-249.96265383 35.2869398 -228.828727 34.79648911 -209.4921875 45.6171875 C-205.0470681 48.36079762 -201.20876733 51.07198048 -197.60546875 54.875 C-197.0228125 54.29492188 -196.44015625 53.71484375 -195.83984375 53.1171875 C-184.45563169 42.26996658 -172.79665873 37.50439275 -157.16796875 37.625 C-156.16958984 37.61726563 -155.17121094 37.60953125 -154.14257812 37.6015625 C-149.55835072 37.61361832 -145.50354502 37.76385399 -141.1015625 39.1015625 C-139.94785156 39.35679688 -138.79414063 39.61203125 -137.60546875 39.875 C-135.50295842 38.68202842 -135.50295842 38.68202842 -134.10546875 36.5 C-127.31145811 28.75079183 -114.97388644 22.57287427 -104.60546875 21.875 C-99.59812437 21.74375912 -94.61396567 21.75622142 -89.60546875 21.875 C-89.30898438 21.10671875 -89.0125 20.3384375 -88.70703125 19.546875 C-87.37943342 16.3267441 -85.6890011 13.64052943 -83.60546875 10.875 C-83.08339844 10.18148437 -82.56132812 9.48796875 -82.0234375 8.7734375 C-62.5819418 -15.04751092 -24.51720089 -17.0554441 0 0 Z " fill="#E37870" transform="translate(460.60546875,26.125)"/>
<path d="M0 0 C-1.0770532 2.23695664 -2.13858457 4.18655616 -3.625 6.1875 C-6.05057363 11.1489006 -5.65869958 15.9415638 -4 21.125 C0.63957577 27.79439017 6.67640196 31.73053659 14 35 C13.34 35.474375 12.68 35.94875 12 36.4375 C4.11840127 43.16969891 -1.96023412 50.78236689 -4.8125 60.875 C-4.874375 61.90625 -4.93625 62.9375 -5 64 C-5.061875 64.84949219 -5.12375 65.69898438 -5.1875 66.57421875 C-5.6559726 77.77364179 -3.06812101 87.46933853 4.21875 96.09765625 C6.1034069 98.11043675 8.03528602 100.06544611 10 102 C8.880462 104.51896049 7.68018448 106.39734655 5.9375 108.5625 C3.10503124 112.12592844 2.57662372 115.29067539 2.66796875 119.81640625 C3.4422563 124.90848558 6.24638379 128.58961828 10.1953125 131.765625 C13.67178417 134.1291668 17.21898709 136.16522276 21 138 C20.125 142.75 20.125 142.75 19 145 C18.36586966 150.98765381 19.02450058 155.66462173 22 161 C24.54088679 163.87685203 24.54088679 163.87685203 27 166 C25.95136063 168.97114488 24.81010166 171.27297886 23 173.875 C18.18125962 181.40428185 17.95761655 189.79410808 19.67578125 198.375 C20.39590004 201.26912669 21.16096803 204.13830168 22 207 C21.05898438 207.44730469 20.11796875 207.89460937 19.1484375 208.35546875 C17.89041125 208.96570537 16.63261071 209.57640747 15.375 210.1875 C14.44880859 210.62545898 14.44880859 210.62545898 13.50390625 211.07226562 C7.98538152 213.77343826 3.46874869 216.79687697 0 222 C-2.96143676 223.58000853 -5.99386503 224.92844546 -9.0546875 226.3046875 C-12.24312919 228.13994439 -13.90252729 230.01084807 -16 233 C-16.86625 232.67 -17.7325 232.34 -18.625 232 C-28.53125115 229.22705343 -37.91983012 230.55803084 -47 235 C-47.99 235.33 -48.98 235.66 -50 236 C-50.268125 235.35933594 -50.53625 234.71867188 -50.8125 234.05859375 C-54.62226565 225.64953864 -59.35322648 220.41616905 -67.8125 216.5625 C-74.32053146 214.22962103 -80.97531688 213.79012675 -87.4375 216.375 C-92.54904849 217.27176289 -95.3144391 215.08481932 -99.76953125 212.671875 C-109.98600841 207.38450834 -119.62718334 206.26550559 -131 207 C-132.155 207.05929687 -133.31 207.11859375 -134.5 207.1796875 C-147.45231588 208.38660784 -160.05917395 214.49080848 -169 224 C-169.53753906 224.52980469 -170.07507813 225.05960938 -170.62890625 225.60546875 C-175.64757704 230.90085823 -178.7772111 237.63936658 -180.73828125 244.6328125 C-182.57291509 248.07488095 -184.89796832 248.75053285 -188.4375 250.25 C-189.59121094 250.75015625 -190.74492187 251.2503125 -191.93359375 251.765625 C-201.50718832 255.61945415 -213.9829404 255.7419349 -223.625 251.9375 C-233.30024109 247.10662648 -239.2942975 241.07426148 -245 232 C-246.01005292 230.41252892 -247.02050507 228.82531182 -248.03125 227.23828125 C-250.63130918 223.14432331 -253.2128622 219.03915616 -255.7824707 214.92602539 C-256.83043196 213.26824187 -257.91209885 211.63185173 -259 210 C-258.72529373 206.79509352 -257.75528197 204.45183162 -256.4375 201.5 C-252.97152119 192.30912086 -254.5456292 182.90028857 -258.3203125 174.08203125 C-262.74654549 165.9604084 -268.95996459 160.38547386 -277 156 C-276.13375 155.05125 -275.2675 154.1025 -274.375 153.125 C-266.42018852 143.81296949 -262.39811072 134.75116714 -262.625 122.4140625 C-263.57011599 113.80956902 -267.388153 106.87104577 -273.3515625 100.71875 C-275.07846324 98.91818998 -276.53862767 97.01935085 -278 95 C-277.21625 93.96875 -276.4325 92.9375 -275.625 91.875 C-271.21226821 85.61217102 -270.0727405 79.57066297 -271 72 C-273.46782368 63.76899527 -279.62891186 58.15347072 -286.9375 54.0625 C-288.28535037 53.36269789 -289.63734276 52.67051388 -291 52 C-291 51.34 -291 50.68 -291 50 C-289.52953345 49.13519692 -288.02120998 48.33455988 -286.5 47.5625 C-279.20463499 43.27841331 -274.44554608 37.48752015 -271.83984375 29.3984375 C-271.10762327 26.27202632 -270.48433591 23.17340922 -270 20 C-268.53820312 20.23976563 -268.53820312 20.23976563 -267.046875 20.484375 C-262.77778588 21.0893414 -258.55788031 21.23118429 -254.25 21.25 C-253.46085205 21.25394775 -252.6717041 21.25789551 -251.85864258 21.26196289 C-246.32476651 21.20703749 -241.49869389 20.45604851 -236.26171875 18.55859375 C-233.4201157 17.8567816 -231.77353259 18.07696129 -229 19 C-227.03515625 20.6015625 -227.03515625 20.6015625 -225.0625 22.625 C-213.27898664 33.54582686 -198.04746492 37.59115621 -182.3125 37.5 C-181.17490234 37.49500488 -180.03730469 37.49000977 -178.86523438 37.48486328 C-161.97578475 37.13719573 -148.48078017 31.39549494 -136 20 C-132.95353221 21.36289349 -130.88245987 22.93023645 -128.5 25.25 C-116.82658725 35.68202371 -104.10385487 37.78482385 -89 37 C-85.57729785 36.5809897 -82.32980392 35.88421684 -79 35 C-77.77216797 34.72542969 -77.77216797 34.72542969 -76.51953125 34.4453125 C-66.41785224 31.90814661 -57.84381244 25.61134238 -52 17 C-51.0470116 14.93389465 -50.14853451 12.84193569 -49.30078125 10.73046875 C-48.86548096 9.65563232 -48.43018066 8.5807959 -47.98168945 7.47338867 C-47.65773193 6.65717041 -47.33377441 5.84095215 -47 5 C-45.89096313 5.0314209 -45.89096313 5.0314209 -44.75952148 5.06347656 C-29.271971 5.44418959 -14.34898625 0 0 0 Z " fill="#B03A26" transform="translate(398,106)"/>
<path d="M0 0 C-1.0770532 2.23695664 -2.13858457 4.18655616 -3.625 6.1875 C-6.05057363 11.1489006 -5.65869958 15.9415638 -4 21.125 C0.63957577 27.79439017 6.67640196 31.73053659 14 35 C13.34 35.474375 12.68 35.94875 12 36.4375 C4.11840127 43.16969891 -1.96023412 50.78236689 -4.8125 60.875 C-4.874375 61.90625 -4.93625 62.9375 -5 64 C-5.061875 64.84949219 -5.12375 65.69898438 -5.1875 66.57421875 C-5.6559726 77.77364179 -3.06812101 87.46933853 4.21875 96.09765625 C6.1034069 98.11043675 8.03528602 100.06544611 10 102 C8.90098758 104.47277795 7.78487714 106.24873581 6 108.3125 C3.67097073 111.44213309 2.98355763 114.25457741 2 118 C0.91203125 117.73445313 -0.1759375 117.46890625 -1.296875 117.1953125 C-9.82578091 115.13724831 -18.31081183 113.2724052 -27 112 C-27.40565656 101.43039304 -27.21951534 92.54282275 -23.90234375 82.390625 C-21.30498998 72.63087145 -22.89395396 62.76827579 -25.24609375 53.12109375 C-25.9777148 50.09225841 -26.52323772 47.07812542 -27 44 C-28.35544922 44.433125 -28.35544922 44.433125 -29.73828125 44.875 C-30.91777344 45.24625 -32.09726562 45.6175 -33.3125 46 C-34.48425781 46.37125 -35.65601563 46.7425 -36.86328125 47.125 C-40 48 -40 48 -43 48 C-42.54625 48.928125 -42.0925 49.85625 -41.625 50.8125 C-37.18851898 61.2413843 -36.77061235 72.19311391 -39.9375 82.9375 C-42.55968595 91.98079853 -42.72526749 100.59041143 -43 110 C-53.395 110.495 -53.395 110.495 -64 111 C-63.67 108.69 -63.34 106.38 -63 104 C-63.91523438 103.79503906 -64.83046875 103.59007812 -65.7734375 103.37890625 C-66.96195313 103.10949219 -68.15046875 102.84007812 -69.375 102.5625 C-70.55835938 102.29566406 -71.74171875 102.02882813 -72.9609375 101.75390625 C-76 101 -76 101 -78 100 C-79.32 105.28 -80.64 110.56 -82 116 C-99.7509835 121.07170957 -116.52253879 117.50108251 -132.48828125 108.68359375 C-135 107 -135 107 -137 104 C-136.41089844 103.16855469 -135.82179688 102.33710938 -135.21484375 101.48046875 C-134.45518741 100.38318737 -133.69610231 99.28551035 -132.9375 98.1875 C-132.18339844 97.10855469 -131.42929687 96.02960938 -130.65234375 94.91796875 C-130.10707031 93.95503906 -129.56179688 92.99210937 -129 92 C-130.1995145 88.40145651 -131.27925223 87.81383185 -134.375 85.75 C-135.16648437 85.20859375 -135.95796875 84.6671875 -136.7734375 84.109375 C-139.07840656 82.63385054 -139.07840656 82.63385054 -142 84 C-143.65710674 86.11980302 -143.65710674 86.11980302 -145.25 88.6875 C-149.18363633 94.48836876 -153.8705556 100.34198967 -161 102 C-171.76811297 103.6351579 -180.52577342 98.12027475 -189 92 C-188.53754058 89.41022723 -188.02754535 88.03496141 -186.375 85.9375 C-185.92125 85.298125 -185.4675 84.65875 -185 84 C-186.1995145 80.40145651 -187.27925223 79.81383185 -190.375 77.75 C-191.16648437 77.20859375 -191.95796875 76.6671875 -192.7734375 76.109375 C-195.07840656 74.63385054 -195.07840656 74.63385054 -198 76 C-199.57307672 77.66562068 -199.57307672 77.66562068 -201.125 79.6875 C-208.01676843 87.78351428 -217.33711279 92.97472238 -228 94 C-243.54223271 95.14449431 -255.39707344 88.45027465 -268 80 C-270.29567854 77.70432146 -270.29616982 76.97617293 -270.75 73.875 C-272.44820129 65.67360926 -278.35342843 59.77304133 -285 55 C-288.24942494 53.16398891 -288.24942494 53.16398891 -291 52 C-291 51.34 -291 50.68 -291 50 C-289.52953345 49.13519692 -288.02120998 48.33455988 -286.5 47.5625 C-279.20463499 43.27841331 -274.44554608 37.48752015 -271.83984375 29.3984375 C-271.10762327 26.27202632 -270.48433591 23.17340922 -270 20 C-268.53820312 20.23976563 -268.53820312 20.23976563 -267.046875 20.484375 C-262.77778588 21.0893414 -258.55788031 21.23118429 -254.25 21.25 C-253.46085205 21.25394775 -252.6717041 21.25789551 -251.85864258 21.26196289 C-246.32476651 21.20703749 -241.49869389 20.45604851 -236.26171875 18.55859375 C-233.4201157 17.8567816 -231.77353259 18.07696129 -229 19 C-227.03515625 20.6015625 -227.03515625 20.6015625 -225.0625 22.625 C-213.27898664 33.54582686 -198.04746492 37.59115621 -182.3125 37.5 C-181.17490234 37.49500488 -180.03730469 37.49000977 -178.86523438 37.48486328 C-161.97578475 37.13719573 -148.48078017 31.39549494 -136 20 C-132.95353221 21.36289349 -130.88245987 22.93023645 -128.5 25.25 C-116.82658725 35.68202371 -104.10385487 37.78482385 -89 37 C-85.57729785 36.5809897 -82.32980392 35.88421684 -79 35 C-77.77216797 34.72542969 -77.77216797 34.72542969 -76.51953125 34.4453125 C-66.41785224 31.90814661 -57.84381244 25.61134238 -52 17 C-51.0470116 14.93389465 -50.14853451 12.84193569 -49.30078125 10.73046875 C-48.86548096 9.65563232 -48.43018066 8.5807959 -47.98168945 7.47338867 C-47.65773193 6.65717041 -47.33377441 5.84095215 -47 5 C-45.89096313 5.0314209 -45.89096313 5.0314209 -44.75952148 5.06347656 C-29.271971 5.44418959 -14.34898625 0 0 0 Z " fill="#B03A26" transform="translate(398,106)"/>
<path d="M0 0 C6.34660189 4.98218585 11.82362832 10.56132831 15.3984375 17.8828125 C15.3984375 18.5428125 15.3984375 19.2028125 15.3984375 19.8828125 C14.6971875 19.68945312 13.9959375 19.49609375 13.2734375 19.296875 C12.3246875 19.03648438 11.3759375 18.77609375 10.3984375 18.5078125 C9.4703125 18.25257812 8.5421875 17.99734375 7.5859375 17.734375 C6.5340625 17.45335938 5.4821875 17.17234375 4.3984375 16.8828125 C3.78202393 16.70492187 3.16561035 16.52703125 2.53051758 16.34375 C-2.35236011 15.0002239 -6.85907847 14.56311262 -11.9140625 14.6328125 C-12.65970459 14.64248047 -13.40534668 14.65214844 -14.17358398 14.66210938 C-29.94808411 15.00351182 -43.99122788 20.31687629 -55.4765625 31.43359375 C-59.07726419 35.58366721 -61.83919613 40.1521545 -64.6015625 44.8828125 C-66.17431992 46.45556992 -67.90900339 46.23086899 -70.08984375 46.4609375 C-85.46724533 48.21801176 -99.51680068 50.38321737 -110.1015625 62.8203125 C-112.6015625 64.8828125 -112.6015625 64.8828125 -116.5390625 64.7578125 C-117.8970606 64.48453978 -119.25095628 64.19054556 -120.6015625 63.8828125 C-136.29121088 60.82897403 -150.18519885 63.11356612 -163.6015625 71.8828125 C-166.7446524 74.41095003 -169.71095863 77.07071885 -172.6015625 79.8828125 C-175.7498062 78.42701872 -178.38355129 76.63622775 -181.1640625 74.5703125 C-196.49180935 63.7758085 -214.59475936 60.33475168 -233.04931641 63.27246094 C-237.64659365 64.2180208 -242.11651035 65.49894882 -246.6015625 66.8828125 C-247.93221562 67.22668915 -249.26421125 67.56598365 -250.6015625 67.8828125 C-250.97925781 67.31433594 -251.35695312 66.74585937 -251.74609375 66.16015625 C-259.23362805 55.65656598 -269.91165721 50.03612479 -282.37890625 47.265625 C-285.66601249 46.87515662 -288.72378074 46.91955768 -292.02148438 47.04956055 C-299.46190177 47.31540111 -304.86069719 47.10475153 -311.40234375 43.1953125 C-322.69983349 36.45293852 -337.03384144 37.87802434 -349.3125 40.84375 C-361.20415258 44.60049535 -370.15371661 51.63331273 -376.375 62.35546875 C-380.38102127 70.60991386 -381.2531459 79.47986309 -378.55078125 88.3203125 C-377.33678873 91.24248918 -376.04068124 94.06562855 -374.6015625 96.8828125 C-374.21742188 97.65367188 -373.83328125 98.42453125 -373.4375 99.21875 C-373.02371094 100.04246094 -373.02371094 100.04246094 -372.6015625 100.8828125 C-373.10945313 101.19992188 -373.61734375 101.51703125 -374.140625 101.84375 C-380.54218441 106.18338391 -385.34338093 111.81172703 -387.2421875 119.46484375 C-388.51461426 128.02606295 -387.07700471 135.72201886 -382.17578125 143 C-379.31930197 146.43958486 -376.12169699 149.125076 -372.6015625 151.8828125 C-373.43558594 152.17414063 -374.26960938 152.46546875 -375.12890625 152.765625 C-385.86838591 156.67760041 -396.04114286 161.29747705 -401.6328125 171.82421875 C-404.32547225 178.19435362 -404.5920652 183.96729279 -402.0390625 190.3828125 C-398.74706836 197.14190685 -393.65341597 202.48146452 -387.6015625 206.8828125 C-388.01148438 207.53507813 -388.42140625 208.18734375 -388.84375 208.859375 C-389.38257813 209.73335937 -389.92140625 210.60734375 -390.4765625 211.5078125 C-391.01023437 212.36632812 -391.54390625 213.22484375 -392.09375 214.109375 C-396.46055392 222.14157911 -396.89837712 230.43115491 -394.796875 239.265625 C-390.93537685 250.5305472 -383.97926615 258.22224687 -373.6015625 263.8828125 C-374.4678125 264.8315625 -375.3340625 265.7803125 -376.2265625 266.7578125 C-385.36072975 277.47206081 -388.42892341 286.93312266 -387.6015625 300.8828125 C-387.30253886 302.5559753 -386.98020959 304.22585285 -386.6015625 305.8828125 C-396.17435312 303.12785241 -403.44221113 296.26675848 -408.6015625 287.8828125 C-409.0140625 287.25375 -409.4265625 286.6246875 -409.8515625 285.9765625 C-414.348097 277.85781965 -413.92006698 267.24797127 -411.75390625 258.43359375 C-409.08651212 251.37178082 -404.95280579 246.14110615 -399.6015625 240.8828125 C-400.45427734 240.2640625 -400.45427734 240.2640625 -401.32421875 239.6328125 C-410.68459943 232.63206034 -417.59821849 225.49751457 -420.6015625 213.8828125 C-422.28014248 201.82975983 -419.82111427 191.68077561 -412.6015625 181.8828125 C-413.2821875 181.6971875 -413.9628125 181.5115625 -414.6640625 181.3203125 C-420.96551215 178.23662437 -425.38543677 172.97096328 -427.9375 166.46875 C-429.69319677 159.63186023 -429.8526449 152.48069169 -426.6640625 146.0703125 C-419.97389215 135.93312917 -410.41353384 131.44121939 -399.6015625 126.8828125 C-401.1484375 125.7690625 -401.1484375 125.7690625 -402.7265625 124.6328125 C-408.57713828 119.5329216 -411.90339329 113.04371358 -413.18359375 105.4140625 C-413.63417146 95.94145203 -411.15408502 87.89718513 -404.71484375 80.8046875 C-400.34396904 76.8828125 -400.34396904 76.8828125 -397.6015625 76.8828125 C-398.02308594 76.13515625 -398.44460938 75.3875 -398.87890625 74.6171875 C-399.42675781 73.63234375 -399.97460938 72.6475 -400.5390625 71.6328125 C-401.08433594 70.65828125 -401.62960937 69.68375 -402.19140625 68.6796875 C-405.93639841 61.25194682 -406.18431571 50.90193844 -404.07128906 42.86621094 C-399.52836954 30.20208951 -390.40104904 22.78394792 -378.65625 17.07421875 C-371.32776129 14.21592072 -364.71802203 13.49497593 -356.9140625 13.5078125 C-355.94670166 13.50869873 -354.97934082 13.50958496 -353.98266602 13.51049805 C-345.78048679 13.64558954 -337.24174739 14.40689218 -330.453125 19.4921875 C-325.9724425 21.67728746 -321.457638 21.28373586 -316.5390625 21.3203125 C-303.61796909 21.66384071 -293.9870943 23.91300082 -283.6015625 31.8828125 C-283.02535156 32.31851563 -282.44914063 32.75421875 -281.85546875 33.203125 C-278.60890831 35.7777041 -276.13957573 38.63047571 -273.6015625 41.8828125 C-272.16490234 41.46708984 -272.16490234 41.46708984 -270.69921875 41.04296875 C-249.95874758 35.2947523 -228.82482075 34.80430161 -209.48828125 45.625 C-205.04316185 48.36861012 -201.20486108 51.07979298 -197.6015625 54.8828125 C-197.01890625 54.30273438 -196.43625 53.72265625 -195.8359375 53.125 C-184.45172544 42.27777908 -172.79275248 37.51220525 -157.1640625 37.6328125 C-156.16568359 37.62507813 -155.16730469 37.61734375 -154.13867188 37.609375 C-149.55444447 37.62143082 -145.49963877 37.77166649 -141.09765625 39.109375 C-139.94394531 39.36460938 -138.79023438 39.61984375 -137.6015625 39.8828125 C-135.49905217 38.68984092 -135.49905217 38.68984092 -134.1015625 36.5078125 C-127.30755186 28.75860433 -114.96998019 22.58068677 -104.6015625 21.8828125 C-99.59421812 21.75157162 -94.61005942 21.76403392 -89.6015625 21.8828125 C-89.30507813 21.11453125 -89.00859375 20.34625 -88.703125 19.5546875 C-87.37552717 16.3345566 -85.68509485 13.64834193 -83.6015625 10.8828125 C-83.07949219 10.18929687 -82.55742187 9.49578125 -82.01953125 8.78125 C-62.5651063 -15.05554015 -24.53864256 -17.0223016 0 0 Z " fill="#DF573D" transform="translate(460.6015625,26.1171875)"/>
<path d="M0 0 C0.71172363 0.13921875 1.42344727 0.2784375 2.15673828 0.421875 C10.8392152 2.14283395 19.16655743 4.57911504 27.5 7.5625 C28.33208984 7.85543945 29.16417969 8.14837891 30.02148438 8.45019531 C30.78783203 8.73604492 31.55417969 9.02189453 32.34375 9.31640625 C33.02630859 9.56849854 33.70886719 9.82059082 34.41210938 10.08032227 C36 11 36 11 37 14 C36.67 14.66 36.34 15.32 36 16 C35.36586966 21.98765381 36.02450058 26.66462173 39 32 C41.54088679 34.87685203 41.54088679 34.87685203 44 37 C42.95136063 39.97114488 41.81010166 42.27297886 40 44.875 C35.18125962 52.40428185 34.95761655 60.79410808 36.67578125 69.375 C37.39590004 72.26912669 38.16096803 75.13830168 39 78 C38.05898438 78.44730469 37.11796875 78.89460938 36.1484375 79.35546875 C34.89041125 79.96570537 33.63261071 80.57640747 32.375 81.1875 C31.75753906 81.47947266 31.14007813 81.77144531 30.50390625 82.07226562 C24.98538152 84.77343826 20.46874869 87.79687697 17 93 C14.03856324 94.58000853 11.00613497 95.92844546 7.9453125 97.3046875 C4.75687081 99.13994439 3.09747271 101.01084807 1 104 C0.13375 103.67 -0.7325 103.34 -1.625 103 C-11.53125115 100.22705343 -20.91983012 101.55803084 -30 106 C-31.485 106.495 -31.485 106.495 -33 107 C-33.268125 106.35933594 -33.53625 105.71867187 -33.8125 105.05859375 C-37.62226565 96.64953864 -42.35322648 91.41616905 -50.8125 87.5625 C-57.32053146 85.22962103 -63.97531688 84.79012675 -70.4375 87.375 C-75.54365697 88.27081701 -78.30273132 86.09909952 -82.7421875 83.66796875 C-89.22509685 80.34878135 -96.33011463 78.03917847 -103.625 77.625 C-104.73875 77.41875 -105.8525 77.2125 -107 77 C-110.28481699 71.88652201 -111.57600188 65.93958087 -113.125 60.125 C-113.52138672 58.69220703 -113.52138672 58.69220703 -113.92578125 57.23046875 C-118.84700217 39.01945327 -118.21689976 21.22050735 -109.5 4.1953125 C-108 2 -108 2 -105 1 C-103.06844811 1.46623666 -101.13798897 1.93854644 -99.21875 2.453125 C-83.15080087 6.413535 -66.5039366 3.68021641 -51 -1.1875 C-34.54397914 -5.70075467 -16.48296692 -3.39538142 0 0 Z " fill="#B03A26" transform="translate(381,235)"/>
<path d="M0 0 C-1.15080588 2.30161177 -2.31407051 4.53150394 -3.625 6.75 C-5.26690586 10.63086839 -5.69572827 13.88160853 -5 18 C-1.91888093 25.44603776 3.69208413 29.70280123 11 32.875 C11.99 33.24625 12.98 33.6175 14 34 C14 34.66 14 35.32 14 36 C12.4609375 37.2265625 12.4609375 37.2265625 10.375 38.625 C2.41611737 44.46432129 -2.42514827 52.48614106 -5 62 C-6.51751138 74.23799502 -4.2428565 84.38775079 3.0625 94.5 C5.21527777 97.17011196 7.47642276 99.67054408 10 102 C8.880462 104.51896049 7.68018448 106.39734655 5.9375 108.5625 C2.71843744 112.61228839 2.66331381 115.94970711 3 121 C5.08316838 127.98474105 9.0356365 131.76138215 15.234375 135.26171875 C17.13331205 136.22128801 19.06425759 137.11702978 21 138 C20.125 142.75 20.125 142.75 19 145 C18.55495512 151.4531507 19.08732495 157.41983692 23.3125 162.61328125 C24.48758361 163.79837978 25.73769354 164.90827549 27 166 C25.94890403 168.97810526 24.78766025 171.31187401 23 173.9375 C18.59983911 180.67524636 18.32847693 187.12935461 19 195 C19.76039928 198.4357065 20.79094978 201.69860382 22 205 C22.33 205.99 22.66 206.98 23 208 C22.39414062 208.13535156 21.78828125 208.27070313 21.1640625 208.41015625 C13.1505348 210.46901644 6.01583867 214.09714996 0.875 220.75 C-1.49300115 223.59160138 -3.60247666 224.06655086 -7.04296875 225.18359375 C-10.03014396 226.42974069 -11.83318578 228.65261792 -14 231 C-16 232.4375 -16 232.4375 -18 233 C-18.72703125 232.68933594 -19.4540625 232.37867188 -20.203125 232.05859375 C-26.18396187 229.79489712 -33.69639579 229.97169503 -39.7734375 231.86328125 C-41.24908199 232.53737134 -42.70699725 233.25340901 -44.1328125 234.02734375 C-46.07387835 235.03848475 -47.86554092 235.54939197 -50 236 C-50.268125 235.35933594 -50.53625 234.71867188 -50.8125 234.05859375 C-54.33033594 226.29389667 -58.80292492 220.71514421 -66.6875 217.125 C-73.50797193 214.80861331 -80.44456919 213.70975615 -87.34765625 216.21484375 C-91.8940788 217.19220304 -94.23341931 215.9974117 -98.0625 213.75 C-111.84669507 206.07694972 -127.55227757 204.87223101 -142.8125 208.625 C-157.36449138 213.0119974 -168.82652812 221.09405259 -176.59375 234.3203125 C-182.32091277 245.23373934 -182.32879878 256.30427652 -179.0625 268.12890625 C-177.32701974 272.81853121 -174.75804352 276.8546771 -172 281 C-171.67 281.66 -171.34 282.32 -171 283 C-171.309375 283.66 -171.61875 284.32 -171.9375 285 C-174.56748359 292.42583601 -173.06024239 299.35887498 -170.21484375 306.5078125 C-168.29256687 310.45126153 -166.02997842 313.98501079 -162 316 C-162.31014392 318.08368538 -162.6232052 320.16693668 -162.9375 322.25 C-163.11152344 323.41015625 -163.28554688 324.5703125 -163.46484375 325.765625 C-164 329 -164 329 -164.546875 331.0078125 C-167.20104024 342.67698728 -163.89280693 354.72580156 -161 366 C-171.44268928 363.60410091 -177.22146841 357.22953972 -182.8125 348.3125 C-191.66862687 331.89777182 -192.59408 312.94708592 -187.65625 295.0703125 C-187.4396875 294.38710938 -187.223125 293.70390625 -187 293 C-188.13501953 292.17628906 -188.13501953 292.17628906 -189.29296875 291.3359375 C-194.69662844 286.67303924 -197.62870487 280.33815339 -198.4140625 273.27734375 C-198.44188832 268.86695166 -198.44540679 264.66467677 -197.30078125 260.38671875 C-196.8911349 257.13614834 -197.91914728 255.91781396 -199.75 253.25 C-205.99652694 243.32819093 -207.42910686 233.61890841 -206 222 C-204.01060354 213.93189215 -200.51652912 207.17798345 -195 201 C-194.47277344 200.34644531 -193.94554687 199.69289063 -193.40234375 199.01953125 C-185.42922904 189.95997014 -172.87095273 184.36327196 -161 183 C-160.05898438 182.83242188 -159.11796875 182.66484375 -158.1484375 182.4921875 C-144.11695531 180.29868036 -130.35874876 182.84556065 -118.171875 190.25 C-115.1015703 192.40430697 -115.1015703 192.40430697 -111.75 191.25 C-109.89375 190.63125 -109.89375 190.63125 -108 190 C-99.13170032 188.98882253 -91.77776943 190.53686838 -84.515625 195.80078125 C-79.86167701 199.71709369 -76.5047926 203.44589467 -74 209 C-74 209.99 -74 210.98 -74 212 C-73.31292969 211.65066406 -72.62585938 211.30132812 -71.91796875 210.94140625 C-71.01691406 210.48636719 -70.11585938 210.03132812 -69.1875 209.5625 C-67.84751953 208.88380859 -67.84751953 208.88380859 -66.48046875 208.19140625 C-59.4156825 204.79808372 -50.13371946 204.82154436 -42.625 207 C-41.75875 207.33 -40.8925 207.66 -40 208 C-39.46375 207.236875 -38.9275 206.47375 -38.375 205.6875 C-35.07821813 201.95693104 -31.36725714 200.60159314 -26.875 198.625 C-23.66205124 196.80898549 -22.23487514 194.89821457 -20 192 C-17.4140625 190.05078125 -17.4140625 190.05078125 -14.625 188.3125 C-13.70976562 187.73113281 -12.79453125 187.14976562 -11.8515625 186.55078125 C-8.95739856 184.97683182 -6.15039401 183.94325956 -3 183 C-3.2165625 182.26136719 -3.433125 181.52273438 -3.65625 180.76171875 C-6.82772326 169.20639721 -7.31134398 159.97904011 -2 149 C-0.46335794 146.49697115 1.16013059 144.29983676 3 142 C2.4225 141.814375 1.845 141.62875 1.25 141.4375 C-2.80804517 138.84486003 -4.50147318 134.49558046 -6 130 C-6.61767656 123.87074793 -5.79102638 119.46575999 -3 114 C-3.825 113.79375 -4.65 113.5875 -5.5 113.375 C-12.31904209 110.69609061 -17.53193244 106.49414663 -21.15625 100.078125 C-23.05955834 95.39034705 -22.56565034 91.47069089 -20.75 86.75 C-19.06185617 84.09720255 -17.33504562 82.09348918 -15 80 C-16.38928664 76.89129919 -18.04135207 74.71612576 -20.375 72.25 C-28.03586024 63.64945004 -30.41599975 54.25848757 -30.1875 42.890625 C-29.39747787 30.71111724 -23.46703585 22.39250209 -15 14 C-13.68 13.01 -12.36 12.02 -11 11 C-14.3 9.35 -17.6 7.7 -21 6 C-21 5.67 -21 5.34 -21 5 C-20.20335937 4.80664062 -19.40671875 4.61328125 -18.5859375 4.4140625 C-11.96149853 2.79062942 -11.96149853 2.79062942 -5.4375 0.8125 C-3 0 -3 0 0 0 Z " fill="#DE573D" transform="translate(422,130)"/>
<path d="M0 0 C0.65003625 2.20709983 1.29484745 4.41573892 1.9375 6.625 C2.47697266 8.46964844 2.47697266 8.46964844 3.02734375 10.3515625 C6.25377494 22.45391887 5.80613758 33.31549579 1.95703125 45.1484375 C0.10172806 52.61508625 0.16337867 60.3375406 0 68 C1.00417969 68.09796875 2.00835937 68.1959375 3.04296875 68.296875 C22.58095244 70.3514836 22.58095244 70.3514836 29 74 C30.57461068 76.47682004 31.32963456 78.71598713 32.1328125 81.53125 C34.10221839 87.13784694 39.38848225 89.80134139 44.4375 92.375 C45.613125 92.91125 46.78875 93.4475 48 94 C48 94.99 48 95.98 48 97 C42.25514077 95.33737015 36.58940678 93.51892927 30.9375 91.5625 C2.39121539 81.89295123 -25.52545484 80.03518801 -54.58496094 88.35571289 C-66.56303501 91.55123831 -78.98192073 90.18946391 -91 88 C-92.99962343 87.66441505 -94.99951936 87.33043653 -97 87 C-107.16130797 104.65897209 -107.83289437 122.58685469 -103 142 C-101.1601438 148.71541369 -99.10140322 155.3625581 -97 162 C-102.70690634 162.99250545 -108.21408489 163.10477512 -114 163 C-115.31842223 158.62676254 -116.62869022 154.25112295 -117.9375 149.875 C-118.31068359 148.6375 -118.68386719 147.4 -119.06835938 146.125 C-119.42607422 144.92617188 -119.78378906 143.72734375 -120.15234375 142.4921875 C-120.48226318 141.39245605 -120.81218262 140.29272461 -121.15209961 139.15966797 C-126.84546482 117.943563 -121.533959 97.067918 -112 78 C-112.721875 77.7525 -113.44375 77.505 -114.1875 77.25 C-117 76 -117 76 -119.4375 73.8125 C-121.89535014 71.67273258 -121.89535014 71.67273258 -125.0625 72.1875 C-126.63514415 72.62248668 -128.2067475 73.06206989 -129.76953125 73.53125 C-144.13615989 76.55050646 -154.42222158 71.11883466 -166.38037109 64.17407227 C-168.2420207 63.09380206 -170.11769098 62.04371194 -172 61 C-172.83273438 60.52175781 -173.66546875 60.04351562 -174.5234375 59.55078125 C-178.25424082 58.72106001 -180.98820518 60.25623256 -184.3125 61.8125 C-197.10793117 67.67652355 -211.56071641 67.38494482 -224.8671875 63.0703125 C-233.29030906 59.83065036 -240.57400885 55.04220405 -248 50 C-247.19429304 46.50577615 -246.08208283 43.14682647 -244.9375 39.75 C-244.57527344 38.67234375 -244.21304688 37.5946875 -243.83984375 36.484375 C-243.56269531 35.66453125 -243.28554687 34.8446875 -243 34 C-242.12859375 34.50789063 -241.2571875 35.01578125 -240.359375 35.5390625 C-219.07418773 48.10593765 -219.07418773 48.10593765 -194.875 47.875 C-183.88465155 44.76560546 -177.14065336 38.72746522 -170 30 C-166.43694177 31.28544658 -163.67155767 32.79844656 -160.6875 35.125 C-159.99011719 35.66382813 -159.29273438 36.20265625 -158.57421875 36.7578125 C-158.05472656 37.16773438 -157.53523438 37.57765625 -157 38 C-158.07401108 40.91517292 -158.77810176 42.77810176 -161 45 C-161 45.99 -161 46.98 -161 48 C-158.73103368 49.31582063 -156.45996813 50.62775236 -154.1875 51.9375 C-153.54490234 52.31068359 -152.90230469 52.68386719 -152.24023438 53.06835938 C-145.92531699 56.70025486 -141.21092155 57.74040712 -134 57 C-124.55399058 54.35174379 -119.27075828 45.6665575 -114 38 C-108.91061189 39.59043379 -105.12543357 42.7446951 -101 46 C-102.3255581 49.62276315 -103.94346955 52.63505348 -106.125 55.8125 C-106.66382813 56.60269531 -107.20265625 57.39289063 -107.7578125 58.20703125 C-108.16773438 58.79871094 -108.57765625 59.39039063 -109 60 C-101.70787152 68.11599876 -88.57614426 72.477772 -77.83496094 73.13183594 C-70.06347104 73.39423305 -62.71173185 73.10167598 -55 72 C-53.68 66.72 -52.36 61.44 -51 56 C-49.2675 56.28875 -47.535 56.5775 -45.75 56.875 C-44.77546875 57.03742188 -43.8009375 57.19984375 -42.796875 57.3671875 C-40.22735883 57.94855848 -38.27928944 58.70840265 -36 60 C-36.33 62.31 -36.66 64.62 -37 67 C-36.13375 66.835 -35.2675 66.67 -34.375 66.5 C-28.30238178 65.60733769 -22.12033868 65.92360188 -16 66 C-16.04640625 64.80246094 -16.0928125 63.60492188 -16.140625 62.37109375 C-16.39774711 52.63962447 -15.71060852 44.63547003 -12.90234375 35.28125 C-10.00152528 24.73281921 -13.38247336 14.31762927 -16 4 C-14.08594633 3.32586789 -12.16863974 2.6609668 -10.25 2 C-9.18265625 1.62875 -8.1153125 1.2575 -7.015625 0.875 C-4 0 -4 0 0 0 Z " fill="#802613" transform="translate(371,150)"/>
<path d="M0 0 C7.0617266 -0.09945555 14.12303843 -0.17174596 21.18530273 -0.21972656 C23.58381256 -0.23974509 25.98227418 -0.26696833 28.38061523 -0.30175781 C31.84370882 -0.35070613 35.3061528 -0.37306731 38.76953125 -0.390625 C39.82831985 -0.41127014 40.88710846 -0.43191528 41.97798157 -0.45318604 C52.67720926 -0.45635444 62.1452234 2.54227805 70 10 C76.33685376 16.8220421 80.1611535 24.62824904 80.4375 34 C80.01130644 44.41510509 76.65544655 52.01254814 70 60 C66.7863898 62.92128405 63.3598441 65.43793865 59.8125 67.9375 C58.92369141 68.58267578 58.03488281 69.22785156 57.11914062 69.89257812 C55.47764625 71.08269238 53.83149818 72.26643788 52.17895508 73.44116211 C49.97034562 74.97798192 49.97034562 74.97798192 47.9050293 76.76391602 C47.27636963 77.17182373 46.64770996 77.57973145 46 78 C42.20379845 76.73459948 41.51321812 75.21781569 39.3125 71.9375 C38.68988281 71.01839844 38.06726563 70.09929687 37.42578125 69.15234375 C36.95527344 68.44207031 36.48476562 67.73179687 36 67 C37.47871494 63.30168611 39.42916974 61.67368027 42.6484375 59.390625 C43.57140625 58.71773438 44.494375 58.04484375 45.4453125 57.3515625 C47.38589019 55.95952144 49.33116417 54.57400221 51.28125 53.1953125 C57.73856234 48.46474664 61.93096922 44.47141739 63.49609375 36.4609375 C63.35862589 31.56708171 62.5606845 28.30194996 60 24 C59.505 22.515 59.505 22.515 59 21 C57.26857146 19.84077872 57.26857146 19.84077872 55 19 C54.19546387 18.6592041 53.39092773 18.3184082 52.56201172 17.96728516 C47.59553605 16.61860958 42.82111155 16.64282304 37.6953125 16.5859375 C36.61619598 16.56657135 35.53707947 16.5472052 34.42526245 16.5272522 C30.99192105 16.46766058 27.55854576 16.42115239 24.125 16.375 C21.79165236 16.33680147 19.45831854 16.29774865 17.125 16.2578125 C11.41677941 16.16197566 5.70849283 16.07786898 0 16 C0 10.72 0 5.44 0 0 Z " fill="#802613" transform="translate(160,232)"/>
<path d="M0 0 C5.28 0 10.56 0 16 0 C15.67 2.97 15.34 5.94 15 9 C16.485 9.103125 17.97 9.20625 19.5 9.3125 C41.6900401 11.47806792 61.70390054 18.94494302 81 30 C81 36.27 81 42.54 81 49 C77.48207177 47.24103589 74.18708825 45.32617575 70.8125 43.3125 C53.13708191 33.05511642 24.8983835 20.72709631 4 25 C1.77185632 26.0859184 -0.17446472 27.32145793 -2.1953125 28.75390625 C-6.77401919 31.9153942 -10.47351986 32 -16 32 C-16 26.72 -16 21.44 -16 16 C-14.618125 15.62875 -13.23625 15.2575 -11.8125 14.875 C-6.80869295 13.19132907 -4.82638145 11.45369198 -2 7 C-1.34 4.69 -0.68 2.38 0 0 Z " fill="#802613" transform="translate(336,256)"/>
<path d="M0 0 C3.50224279 1.24993838 5.9600108 2.62414167 8.75 5.0625 C27.03275755 19.63394903 50.04146545 25.71019469 73 27 C73 32.28 73 37.56 73 43 C43.66687146 43.58666257 16.73302587 33.45530595 -6 15 C-5.36566817 12.04639243 -4.40048175 9.60974276 -3 6.9375 C-1.78026525 4.60116984 -0.83898177 2.5169453 0 0 Z " fill="#802613" transform="translate(127,133)"/>
<path d="M0 0 C2.18640858 1.76414083 3.58230871 3.563181 5.1328125 5.90625 C5.66519531 6.68871094 6.19757813 7.47117187 6.74609375 8.27734375 C7.8203125 10.46875 7.8203125 10.46875 6.8203125 13.46875 C4.52367293 14.91192867 2.29117784 16.1794345 -0.1171875 17.40625 C-0.80522461 17.76106445 -1.49326172 18.11587891 -2.20214844 18.48144531 C-4.18720822 19.49305337 -6.18076062 20.48488252 -8.1796875 21.46875 C-9.02144531 21.88769531 -9.86320312 22.30664062 -10.73046875 22.73828125 C-16.23604428 25.19280959 -21.9996202 26.44688494 -27.8671875 27.71875 C-28.67575195 27.89438477 -29.48431641 28.07001953 -30.31738281 28.25097656 C-35.03520969 29.21162004 -39.36662765 29.6491592 -44.1796875 29.46875 C-45.51302083 24.13541667 -46.84635417 18.80208333 -48.1796875 13.46875 C-47.29410156 13.38238281 -46.40851563 13.29601562 -45.49609375 13.20703125 C-30.89568757 11.55100183 -17.83475124 7.93652965 -5.03515625 0.62890625 C-2.1796875 -0.53125 -2.1796875 -0.53125 0 0 Z " fill="#802613" transform="translate(188.1796875,266.53125)"/>
<path d="M0 0 C0.30292969 0.79664063 0.60585938 1.59328125 0.91796875 2.4140625 C5.22209269 13.30018519 9.50101798 18.55365308 20 24 C21.65697379 24.69040574 23.32121708 25.36446075 25 26 C24.55208067 28.4814731 24.09226182 30.9596645 23.625 33.4375 C23.49867188 34.14455078 23.37234375 34.85160156 23.2421875 35.58007812 C22.89377757 37.40052 22.452957 39.20271648 22 41 C20 42 20 42 17.49609375 41.25 C2.81155017 35.24865396 -7.72175967 25.69789596 -14 11 C-14.37382812 10.15953125 -14.74765625 9.3190625 -15.1328125 8.453125 C-16 6 -16 6 -16 2 C-14.08404518 1.66259915 -12.16720278 1.33023588 -10.25 1 C-9.18265625 0.814375 -8.1153125 0.62875 -7.015625 0.4375 C-4 0 -4 0 0 0 Z " fill="#812613" transform="translate(321,142)"/>
<path d="M0 0 C2.51789634 1.27151252 4.26043232 2.82106586 6.26953125 4.80078125 C6.98753906 5.48785156 7.70554687 6.17492187 8.4453125 6.8828125 C9.95703125 8.98828125 9.95703125 8.98828125 9.98828125 11.00390625 C5.34901026 19.93098831 -8.00359871 23.93655006 -16.89453125 26.95703125 C-23.11401651 28.84915634 -28.55408256 29.27040674 -35.04296875 28.98828125 C-35.04296875 23.70828125 -35.04296875 18.42828125 -35.04296875 12.98828125 C-32.65046875 12.61703125 -30.25796875 12.24578125 -27.79296875 11.86328125 C-19.15270089 10.35474722 -11.17060099 7.59137323 -4.4609375 1.734375 C-2.04296875 -0.01171875 -2.04296875 -0.01171875 0 0 Z " fill="#812613" transform="translate(267.04296875,155.01171875)"/>
<path d="M0 0 C5.28 0 10.56 0 16 0 C16.24643503 13.06105683 15.07532965 25.25934858 12 38 C11.25234375 37.79503906 10.5046875 37.59007812 9.734375 37.37890625 C8.74953125 37.10949219 7.7646875 36.84007812 6.75 36.5625 C5.77546875 36.29566406 4.8009375 36.02882813 3.796875 35.75390625 C1.53627347 35.14455416 -0.72622009 34.55761745 -3 34 C-2.19963513 22.64745613 -1.10163449 11.32651383 0 0 Z " fill="#812613" transform="translate(288,280)"/>
</svg>
