<?xml version="1.0" encoding="UTF-8"?>
<svg version="1.1" xmlns="http://www.w3.org/2000/svg" width="512" height="512">
<path d="M0 0 C8.48765775 5.09574991 15.06460276 11.06642156 19.1015625 20.26171875 C19.95234375 19.83052734 19.95234375 19.83052734 20.8203125 19.390625 C23.0627909 18.28090538 25.32025585 17.22658801 27.6015625 16.19921875 C28.73078125 15.68681641 28.73078125 15.68681641 29.8828125 15.1640625 C38.16201518 11.7969924 48.64172171 12.05232221 57.0390625 14.88671875 C67.22798121 19.20380134 75.74296023 27.00618399 80.1015625 37.26171875 C80.71902344 36.85179687 81.33648437 36.441875 81.97265625 36.01953125 C91.6211021 29.88094622 100.99793758 27.54335973 112.34375 29.94921875 C123.09366192 32.92840912 130.57667555 38.20289512 137.1015625 47.26171875 C138.94589693 50.52190587 140.58000514 53.83996764 142.1015625 57.26171875 C142.64683594 56.92398438 143.19210937 56.58625 143.75390625 56.23828125 C153.61211151 50.40761626 162.82781764 48.98836384 174.0390625 51.38671875 C185.19641694 54.37328332 192.36070989 61.48475587 198.76953125 70.78515625 C202.18514342 77.1355906 202.39909512 83.2081039 202.39208984 90.2644043 C202.39880707 91.24411194 202.40552429 92.22381958 202.41244507 93.23321533 C202.43136498 96.4550083 202.43534535 99.67659253 202.4375 102.8984375 C202.4439289 105.14329615 202.45065733 107.38815397 202.45767212 109.63301086 C202.46962751 114.32933497 202.4733544 119.02558558 202.47216797 123.72192383 C202.47196415 129.74467054 202.4993396 135.76694875 202.53371239 141.78958416 C202.55591914 146.4212105 202.56000753 151.05272261 202.55894852 155.68439674 C202.56131105 157.90560341 202.57017104 160.12681291 202.58561325 162.34796715 C202.60515969 165.44805521 202.59948109 168.54711295 202.58740234 171.6472168 C202.59864136 172.56626297 202.60988037 173.48530914 202.62145996 174.4322052 C202.5598846 180.63608908 202.5598846 180.63608908 200.19619751 183.86262512 C198.1015625 185.26171875 198.1015625 185.26171875 196.1015625 185.26171875 C196.12441739 188.3466805 196.20178631 191.42796001 196.2890625 194.51171875 C196.29486328 195.38441406 196.30066406 196.25710937 196.30664062 197.15625 C196.33564453 198.00058594 196.36464844 198.84492188 196.39453125 199.71484375 C196.4102417 200.48989258 196.42595215 201.26494141 196.44213867 202.06347656 C196.94125763 204.5317117 196.94125763 204.5317117 199.60864258 206.09179688 C202.1015625 208.26171875 202.1015625 208.26171875 202.71679688 211.58300781 C202.70616211 213.5354541 202.70616211 213.5354541 202.6953125 215.52734375 C202.69535278 216.23840271 202.69539307 216.94946167 202.69543457 217.68206787 C202.69007703 219.19178062 202.67248358 220.70149243 202.64355469 222.2109375 C202.6024487 224.46316328 202.60242887 226.71231392 202.609375 228.96484375 C202.55229914 242.35069751 200.79170476 255.300413 195.8515625 267.82421875 C195.55435303 268.60579346 195.25714355 269.38736816 194.95092773 270.19262695 C192.0359135 277.71970566 188.66222652 285.02134116 185.1015625 292.26171875 C186.29910156 292.67421875 187.49664062 293.08671875 188.73046875 293.51171875 C218.00302473 303.80018344 242.71361006 320.96746273 256.87280273 349.43408203 C264.64249645 365.7736975 268.49699828 381.39380523 268.4140625 399.51171875 C268.40842285 400.79788086 268.4027832 402.08404297 268.39697266 403.40917969 C268.28171232 412.41317993 267.73780122 420.60407114 265.1015625 429.26171875 C264.90820312 429.91962402 264.71484375 430.5775293 264.515625 431.25537109 C262.00742092 439.62572806 258.76476409 447.42272451 254.5390625 455.07421875 C254.17538574 455.73800537 253.81170898 456.40179199 253.43701172 457.08569336 C251.1768549 460.99259375 248.95454823 463.86661951 245.1015625 466.26171875 C243.8640625 466.13796875 242.6265625 466.01421875 241.3515625 465.88671875 C238.05599097 465.66784778 237.24493086 466.13647475 234.69140625 468.3671875 C232.40887771 470.93920746 230.24677107 473.57491907 228.1015625 476.26171875 C227.51890625 476.79410156 226.93625 477.32648438 226.3359375 477.875 C224.72177094 479.37258009 224.72177094 479.37258009 225.1640625 482.63671875 C225.0863257 487.14545333 224.18161076 488.04882496 221.1015625 491.26171875 C218.71548444 492.88923344 216.43308838 494.31908975 213.9140625 495.69921875 C213.2135376 496.08609863 212.5130127 496.47297852 211.79125977 496.87158203 C204.19228918 500.93573539 196.35518769 503.83596557 188.1015625 506.26171875 C186.98394531 506.60203125 185.86632812 506.94234375 184.71484375 507.29296875 C166.0347503 511.97926397 140.63888826 512.15970426 122.73764515 504.21222878 C119.76354537 503.13983764 117.4561829 503.00060759 114.29924011 502.98324585 C113.13962769 502.97208237 111.98001526 502.96091888 110.78526306 502.94941711 C109.52218826 502.94725693 108.25911346 502.94509674 106.95776367 502.94287109 C105.60728356 502.93356774 104.25680917 502.92339846 102.90634155 502.91242981 C99.24767554 502.88516154 95.58904798 502.86998986 91.93030715 502.85700178 C88.10390938 502.84135733 84.27758994 502.8145713 80.45124817 502.78897095 C73.20887886 502.74220642 65.96649478 502.70545107 58.72405177 502.67229807 C50.47736958 502.63406024 42.2307661 502.58465443 33.98415029 502.53431392 C17.02334465 502.43102867 0.06249344 502.34175721 -16.8984375 502.26171875 C-17.1871875 503.04546875 -17.4759375 503.82921875 -17.7734375 504.63671875 C-18.8984375 507.26171875 -18.8984375 507.26171875 -20.8984375 509.26171875 C-28.0202412 509.95092556 -28.0202412 509.95092556 -30.9962368 507.6153698 C-33.43259567 504.60078852 -33.40012211 502.98891012 -33.40396118 499.1423645 C-33.42049492 497.25865898 -33.42049492 497.25865898 -33.43736267 495.3368988 C-33.42945965 493.94741617 -33.42119238 492.55793556 -33.41259766 491.16845703 C-33.41805898 489.70290897 -33.4253007 488.23736661 -33.43418884 486.77183533 C-33.44953468 483.6151675 -33.45232405 480.45882475 -33.44542313 477.30212784 C-33.43462619 472.29909867 -33.45203533 467.29640779 -33.47323608 462.29342651 C-33.50351928 454.36642091 -33.51519157 446.43951542 -33.51881254 438.51245677 C-33.52544372 424.35500322 -33.55473289 410.19762122 -33.6039089 396.04025257 C-33.62029511 391.07989181 -33.62584503 386.11967666 -33.62231851 381.15929151 C-33.62187716 378.05239474 -33.62951005 374.94555147 -33.63899422 371.83867073 C-33.64164623 370.41259924 -33.64097869 368.98651647 -33.63648415 367.5604496 C-33.55266761 338.95468394 -42.51984696 318.48528063 -59.8984375 296.26171875 C-61.01843587 294.82307757 -62.1382251 293.38427353 -63.2578125 291.9453125 C-63.82411377 291.21828125 -64.39041504 290.49125 -64.97387695 289.7421875 C-67.33232951 286.71382171 -69.689108 283.68417112 -72.04248047 280.65185547 C-73.31032264 279.01910423 -74.58027598 277.38799071 -75.85205078 275.75830078 C-92.54585309 254.29952714 -104.17236102 233.54218479 -104.234375 205.609375 C-104.2410318 204.54681992 -104.2476886 203.48426483 -104.25454712 202.38951111 C-104.26459438 200.16520909 -104.26936662 197.94087742 -104.26904297 195.71655273 C-104.27345775 192.30858892 -104.30997464 188.90187961 -104.34765625 185.49414062 C-104.35351773 183.32422315 -104.35749159 181.15429957 -104.359375 178.984375 C-104.37374603 177.96771255 -104.38811707 176.95105011 -104.40292358 175.90357971 C-104.35750935 168.92743988 -104.35750935 168.92743988 -102.05712891 165.59155273 C-99.8984375 164.26171875 -99.8984375 164.26171875 -96.8984375 164.26171875 C-96.8984375 157.99171875 -96.8984375 151.72171875 -96.8984375 145.26171875 C-98.5484375 144.60171875 -100.1984375 143.94171875 -101.8984375 143.26171875 C-105.02158929 140.13856696 -104.22387989 136.3115025 -104.234375 132.1171875 C-104.2410318 131.19641922 -104.2476886 130.27565094 -104.25454712 129.32698059 C-104.26469319 127.36913043 -104.26936354 125.41124556 -104.26904297 123.45336914 C-104.27336482 120.49890263 -104.30951841 117.54599364 -104.34765625 114.59179688 C-104.46115479 95.70933947 -100.54886202 81.66500349 -87.3046875 67.58203125 C-78.25048779 58.85119582 -67.40164115 53.74008497 -54.8984375 52.26171875 C-54.92462158 51.53694336 -54.95080566 50.81216797 -54.9777832 50.06542969 C-55.0830686 46.71442203 -55.14717577 43.3637638 -55.2109375 40.01171875 C-55.25283203 38.8721875 -55.29472656 37.73265625 -55.33789062 36.55859375 C-55.50887983 24.52095388 -51.85174265 15.16539942 -43.51171875 6.4609375 C-32.01831074 -3.21139241 -13.8450038 -6.7797699 0 0 Z " fill="#FDDACE" transform="translate(173.8984375,2.73828125)"/>
<path d="M0 0 C8.48765775 5.09574991 15.06460276 11.06642156 19.1015625 20.26171875 C19.95234375 19.83052734 19.95234375 19.83052734 20.8203125 19.390625 C23.0627909 18.28090538 25.32025585 17.22658801 27.6015625 16.19921875 C28.73078125 15.68681641 28.73078125 15.68681641 29.8828125 15.1640625 C38.16201518 11.7969924 48.64172171 12.05232221 57.0390625 14.88671875 C67.22798121 19.20380134 75.74296023 27.00618399 80.1015625 37.26171875 C80.71902344 36.85179687 81.33648437 36.441875 81.97265625 36.01953125 C91.6211021 29.88094622 100.99793758 27.54335973 112.34375 29.94921875 C123.09366192 32.92840912 130.57667555 38.20289512 137.1015625 47.26171875 C138.94589693 50.52190587 140.58000514 53.83996764 142.1015625 57.26171875 C142.64683594 56.92398438 143.19210937 56.58625 143.75390625 56.23828125 C153.61211151 50.40761626 162.82781764 48.98836384 174.0390625 51.38671875 C185.19641694 54.37328332 192.36070989 61.48475587 198.76953125 70.78515625 C202.18514342 77.1355906 202.39909512 83.2081039 202.39208984 90.2644043 C202.39880707 91.24411194 202.40552429 92.22381958 202.41244507 93.23321533 C202.43136498 96.4550083 202.43534535 99.67659253 202.4375 102.8984375 C202.4439289 105.14329615 202.45065733 107.38815397 202.45767212 109.63301086 C202.46962751 114.32933497 202.4733544 119.02558558 202.47216797 123.72192383 C202.47196415 129.74467054 202.4993396 135.76694875 202.53371239 141.78958416 C202.55591914 146.4212105 202.56000753 151.05272261 202.55894852 155.68439674 C202.56131105 157.90560341 202.57017104 160.12681291 202.58561325 162.34796715 C202.60515969 165.44805521 202.59948109 168.54711295 202.58740234 171.6472168 C202.59864136 172.56626297 202.60988037 173.48530914 202.62145996 174.4322052 C202.5598846 180.63608908 202.5598846 180.63608908 200.19619751 183.86262512 C198.1015625 185.26171875 198.1015625 185.26171875 196.1015625 185.26171875 C196.12441739 188.3466805 196.20178631 191.42796001 196.2890625 194.51171875 C196.29486328 195.38441406 196.30066406 196.25710937 196.30664062 197.15625 C196.33564453 198.00058594 196.36464844 198.84492188 196.39453125 199.71484375 C196.4102417 200.48989258 196.42595215 201.26494141 196.44213867 202.06347656 C196.94125763 204.5317117 196.94125763 204.5317117 199.60864258 206.09179688 C202.1015625 208.26171875 202.1015625 208.26171875 202.71679688 211.58300781 C202.70616211 213.5354541 202.70616211 213.5354541 202.6953125 215.52734375 C202.69535278 216.23840271 202.69539307 216.94946167 202.69543457 217.68206787 C202.69007703 219.19178062 202.67248358 220.70149243 202.64355469 222.2109375 C202.6024487 224.46316328 202.60242887 226.71231392 202.609375 228.96484375 C202.55229914 242.35069751 200.79170476 255.300413 195.8515625 267.82421875 C195.55435303 268.60579346 195.25714355 269.38736816 194.95092773 270.19262695 C192.0359135 277.71970566 188.66222652 285.02134116 185.1015625 292.26171875 C186.29910156 292.67421875 187.49664062 293.08671875 188.73046875 293.51171875 C218.00302473 303.80018344 242.71361006 320.96746273 256.87280273 349.43408203 C264.64249645 365.7736975 268.49699828 381.39380523 268.4140625 399.51171875 C268.40842285 400.79788086 268.4027832 402.08404297 268.39697266 403.40917969 C268.28171232 412.41317993 267.73780122 420.60407114 265.1015625 429.26171875 C264.90820312 429.91962402 264.71484375 430.5775293 264.515625 431.25537109 C262.00742092 439.62572806 258.76476409 447.42272451 254.5390625 455.07421875 C254.17538574 455.73800537 253.81170898 456.40179199 253.43701172 457.08569336 C251.1768549 460.99259375 248.95454823 463.86661951 245.1015625 466.26171875 C243.8640625 466.13796875 242.6265625 466.01421875 241.3515625 465.88671875 C238.05599097 465.66784778 237.24493086 466.13647475 234.69140625 468.3671875 C232.40887771 470.93920746 230.24677107 473.57491907 228.1015625 476.26171875 C227.51890625 476.79410156 226.93625 477.32648438 226.3359375 477.875 C224.72177094 479.37258009 224.72177094 479.37258009 225.1640625 482.63671875 C225.0863257 487.14545333 224.18161076 488.04882496 221.1015625 491.26171875 C218.71548444 492.88923344 216.43308838 494.31908975 213.9140625 495.69921875 C213.2135376 496.08609863 212.5130127 496.47297852 211.79125977 496.87158203 C204.19228918 500.93573539 196.35518769 503.83596557 188.1015625 506.26171875 C186.98394531 506.60203125 185.86632812 506.94234375 184.71484375 507.29296875 C155.99584272 514.49773556 127.32782571 508.54665005 102.1015625 494.26171875 C97.79650681 491.61860996 93.90594028 488.58309559 90.1015625 485.26171875 C89.23789062 484.53339844 88.37421875 483.80507813 87.484375 483.0546875 C65.31056288 463.81267121 51.42718929 437.68089765 49.1015625 408.26171875 C47.53645278 378.49668563 56.22506298 350.31702654 75.97045898 327.66821289 C91.68850884 310.23859883 112.04900637 297.35825751 135.1015625 292.26171875 C135.95105469 292.05675781 136.80054688 291.85179687 137.67578125 291.640625 C147.99953882 289.50518299 158.61474429 290.07975314 169.1015625 290.26171875 C169.22756836 289.52614746 169.35357422 288.79057617 169.48339844 288.03271484 C170.06700458 285.41662886 170.84717598 283.33790268 171.9921875 280.92578125 C172.55873047 279.71075928 172.55873047 279.71075928 173.13671875 278.47119141 C173.53761719 277.61831543 173.93851562 276.76543945 174.3515625 275.88671875 C179.03825903 265.700593 183.48090697 255.43748916 185.1015625 244.26171875 C184.1115625 244.59171875 183.1215625 244.92171875 182.1015625 245.26171875 C171.7114128 246.39991981 162.55738636 244.0008543 154.2265625 237.57421875 C147.95610159 231.64104425 143.57731332 223.29029428 142.765625 214.7109375 C142.68376004 206.82734161 143.24295755 201.14212276 147.1015625 194.26171875 C148.34815149 190.52195178 147.63371879 189.37180248 146.2265625 185.76171875 C145.85789062 184.80265625 145.48921875 183.84359375 145.109375 182.85546875 C144.77679688 181.99953125 144.44421875 181.14359375 144.1015625 180.26171875 C141.09895013 171.25388164 143.17629264 161.64449845 147.1015625 153.26171875 C153.30245995 142.46015544 161.46862716 136.30388817 172.97265625 131.890625 C176.03769845 131.27455535 178.67946784 131.19930989 181.79711914 131.22241211 C183.28617516 131.23092445 183.28617516 131.23092445 184.80531311 131.23960876 C185.94195656 131.25055321 185.94195656 131.25055321 187.1015625 131.26171875 C187.05977082 124.57181728 186.98732501 117.8827395 186.89404297 111.19335938 C186.8659009 108.91999759 186.84465289 106.6465392 186.83056641 104.37304688 C186.80904368 101.09585345 186.76234365 97.81981344 186.7109375 94.54296875 C186.70909454 93.02999207 186.70909454 93.02999207 186.70721436 91.4864502 C186.55772544 84.20562213 185.21255458 78.94092856 180.390625 73.23828125 C174.22747103 68.23252708 168.87401514 66.7135259 160.91796875 66.88671875 C155.47234636 67.61179469 151.16930486 70.00105306 147.46875 74.046875 C143.95621277 78.77374653 142.98767735 82.30396885 142.9609375 88.06640625 C142.94160156 89.20722656 142.92226563 90.34804687 142.90234375 91.5234375 C142.86860174 93.92431127 142.85026899 96.32545306 142.84765625 98.7265625 C142.63829255 108.50054138 142.63829255 108.50054138 139.74609375 111.546875 C136.49478707 113.6551817 134.90337464 113.98972533 131.1015625 113.26171875 C128.94506836 111.85791016 128.94506836 111.85791016 127.1015625 109.26171875 C126.53216101 105.89567214 126.6163648 102.56616064 126.66796875 99.16015625 C126.65835599 97.12239511 126.64858528 95.0846347 126.63867188 93.046875 C126.64723883 89.84772884 126.66397838 86.64878618 126.6862793 83.44970703 C126.70090772 80.35279755 126.68546422 77.25702679 126.66796875 74.16015625 C126.69269005 72.74710709 126.69269005 72.74710709 126.71791077 71.30551147 C126.6666253 64.39398005 125.0251026 59.00403087 121.1015625 53.26171875 C114.54772586 47.01999249 109.07539646 45.83094448 100.14453125 45.91796875 C94.12870541 46.59754856 90.16486621 49.85538474 86.2265625 54.26171875 C82.6676878 59.28601245 81.85850212 63.03118223 81.828125 69.171875 C81.8075 70.49123047 81.786875 71.81058594 81.765625 73.16992188 C81.74299166 75.25243479 81.72653342 77.33460583 81.72070312 79.41723633 C81.71117523 81.43976959 81.67622438 83.46213262 81.640625 85.484375 C81.63240723 86.68843994 81.62418945 87.89250488 81.61572266 89.13305664 C81.00533384 92.84726971 80.08019868 94.0289255 77.1015625 96.26171875 C74.1640625 96.82421875 74.1640625 96.82421875 71.1015625 96.26171875 C68.2726062 94.2312204 66.3893506 92.62290801 65.64837646 89.1182251 C65.47578873 86.4592849 65.46203979 83.84007235 65.5 81.17578125 C65.49199371 80.20063568 65.48398743 79.22549011 65.47573853 78.22079468 C65.45268828 75.10901211 65.46212028 71.99853621 65.4765625 68.88671875 C65.48041774 65.78228664 65.47689647 62.67843382 65.45596313 59.57406616 C65.44393523 57.6452476 65.44644157 55.71626635 65.46566772 53.7875061 C65.43043233 45.26452141 63.29513268 39.45528893 57.1015625 33.26171875 C50.73903354 29.20053005 43.44458537 29.26379945 36.1015625 30.26171875 C29.9307501 32.59232601 26.17594777 36.55353741 23.10766602 42.30297852 C20.92623072 48.71812394 21.51540258 55.80254451 21.6015625 62.51171875 C21.64034145 65.55936263 21.64650597 68.60453344 21.6328125 71.65234375 C21.65243042 72.34201233 21.67204834 73.03168091 21.69226074 73.74224854 C21.67167488 77.56778832 21.1692929 79.17446066 18.79492188 82.23339844 C16.1015625 84.26171875 16.1015625 84.26171875 12.4765625 84.32421875 C8.72675359 83.14372335 8.0291725 82.55379355 6.1015625 79.26171875 C5.72975159 76.93634033 5.72975159 76.93634033 5.73266602 74.34472656 C5.72578262 73.36981262 5.71889923 72.39489868 5.71180725 71.39044189 C5.71796555 70.34249451 5.72412384 69.29454712 5.73046875 68.21484375 C5.71308085 65.98567559 5.69549653 63.75650896 5.67773438 61.52734375 C5.66767785 58.02080403 5.66406121 54.51436601 5.66577148 51.0078125 C5.66218887 47.61818348 5.63479225 44.22933351 5.60546875 40.83984375 C5.61365128 39.79999329 5.6218338 38.76014282 5.63026428 37.68878174 C5.54872156 29.66478177 4.02894683 24.18910308 -1.7109375 18.44921875 C-8.57661744 13.73747762 -14.64627739 12.02331604 -22.8984375 13.26171875 C-29.78977719 15.81057042 -33.76318304 19.66097021 -37.47793579 25.92527771 C-39.1256213 29.79532273 -39.30481217 33.08070823 -39.25146484 37.20727539 C-39.25362503 37.98040573 -39.25578522 38.75353607 -39.25801086 39.5500946 C-39.26108614 41.21971244 -39.25752666 42.88935313 -39.24799728 44.55894661 C-39.23421149 47.20323751 -39.24072325 49.84678201 -39.25283813 52.49107361 C-39.28374036 60.00557459 -39.27889643 67.51989878 -39.25878906 75.03442383 C-39.24787139 79.63863088 -39.26105774 84.24227437 -39.28868484 88.84640312 C-39.29412262 90.59786059 -39.29006852 92.34937453 -39.27628708 94.10078621 C-39.25723436 96.54966892 -39.26863729 98.99670565 -39.28662109 101.44555664 C-39.26661293 102.52654129 -39.26661293 102.52654129 -39.24620056 103.62936401 C-39.30970867 107.52227939 -39.80248611 109.14255617 -42.27651978 112.21507263 C-44.8984375 114.26171875 -44.8984375 114.26171875 -47.4609375 114.82421875 C-50.63654731 114.09138572 -51.85116057 112.74769788 -53.8984375 110.26171875 C-55.59040254 106.87778867 -55.01830299 103.03694084 -54.99609375 99.31640625 C-54.9946788 98.43139435 -54.99326385 97.54638245 -54.99180603 96.634552 C-54.9861989 93.80190684 -54.97364521 90.96934011 -54.9609375 88.13671875 C-54.95592342 86.21875114 -54.95136035 84.30078229 -54.94726562 82.3828125 C-54.93622716 77.67575093 -54.91895775 72.96874815 -54.8984375 68.26171875 C-56.63485097 68.86526063 -58.36873737 69.47607538 -60.1015625 70.08984375 C-61.06739258 70.42918945 -62.03322266 70.76853516 -63.02832031 71.11816406 C-74.35979093 75.63301677 -81.21183329 83.75634475 -85.953125 94.74609375 C-87.85189803 99.79902692 -88.04609586 104.42099029 -88.07421875 109.7890625 C-88.09741079 111.48503854 -88.12152787 113.18100213 -88.14648438 114.87695312 C-88.18161871 117.54101993 -88.2109647 120.20462593 -88.22436523 122.86889648 C-88.23985729 125.44701238 -88.28006171 128.02379889 -88.32421875 130.6015625 C-88.32231033 131.39441147 -88.32040192 132.18726044 -88.31843567 133.00413513 C-88.40430888 136.89659096 -88.64378776 138.85274193 -90.75073242 142.23657227 C-93.52475655 144.85229696 -95.09451886 145.33934974 -98.8984375 145.26171875 C-101.55053711 143.84155273 -101.55053711 143.84155273 -103.8984375 141.26171875 C-104.64083629 138.15165916 -104.57537525 135.10682103 -104.52734375 131.921875 C-104.52975571 131.00393661 -104.53216766 130.08599823 -104.53465271 129.14024353 C-104.53367342 127.19428194 -104.52026015 125.24829278 -104.49536133 123.30249023 C-104.46141319 120.36537408 -104.47460716 117.43133091 -104.49414062 114.49414062 C-104.47984937 95.70813652 -100.46825116 81.57928727 -87.3046875 67.58203125 C-78.25048779 58.85119582 -67.40164115 53.74008497 -54.8984375 52.26171875 C-54.92462158 51.53694336 -54.95080566 50.81216797 -54.9777832 50.06542969 C-55.0830686 46.71442203 -55.14717577 43.3637638 -55.2109375 40.01171875 C-55.25283203 38.8721875 -55.29472656 37.73265625 -55.33789062 36.55859375 C-55.50887983 24.52095388 -51.85174265 15.16539942 -43.51171875 6.4609375 C-32.01831074 -3.21139241 -13.8450038 -6.7797699 0 0 Z " fill="#6FAAF0" transform="translate(173.8984375,2.73828125)"/>
<path d="M0 0 C8.48765775 5.09574991 15.06460276 11.06642156 19.1015625 20.26171875 C19.95234375 19.83052734 19.95234375 19.83052734 20.8203125 19.390625 C23.0627909 18.28090538 25.32025585 17.22658801 27.6015625 16.19921875 C28.73078125 15.68681641 28.73078125 15.68681641 29.8828125 15.1640625 C38.16201518 11.7969924 48.64172171 12.05232221 57.0390625 14.88671875 C67.22798121 19.20380134 75.74296023 27.00618399 80.1015625 37.26171875 C80.71902344 36.85179687 81.33648437 36.441875 81.97265625 36.01953125 C91.6211021 29.88094622 100.99793758 27.54335973 112.34375 29.94921875 C123.09366192 32.92840912 130.57667555 38.20289512 137.1015625 47.26171875 C138.94589693 50.52190587 140.58000514 53.83996764 142.1015625 57.26171875 C142.64683594 56.92398438 143.19210937 56.58625 143.75390625 56.23828125 C153.61211151 50.40761626 162.82781764 48.98836384 174.0390625 51.38671875 C185.19641694 54.37328332 192.36070989 61.48475587 198.76953125 70.78515625 C202.18514342 77.1355906 202.39909512 83.2081039 202.39208984 90.2644043 C202.39880707 91.24411194 202.40552429 92.22381958 202.41244507 93.23321533 C202.43136498 96.4550083 202.43534535 99.67659253 202.4375 102.8984375 C202.4439289 105.14329615 202.45065733 107.38815397 202.45767212 109.63301086 C202.46962751 114.32933497 202.4733544 119.02558558 202.47216797 123.72192383 C202.47196415 129.74467054 202.4993396 135.76694875 202.53371239 141.78958416 C202.55591914 146.4212105 202.56000753 151.05272261 202.55894852 155.68439674 C202.56131105 157.90560341 202.57017104 160.12681291 202.58561325 162.34796715 C202.60515969 165.44805521 202.59948109 168.54711295 202.58740234 171.6472168 C202.59864136 172.56626297 202.60988037 173.48530914 202.62145996 174.4322052 C202.5598846 180.63608908 202.5598846 180.63608908 200.19619751 183.86262512 C198.1015625 185.26171875 198.1015625 185.26171875 196.1015625 185.26171875 C196.12441739 188.3466805 196.20178631 191.42796001 196.2890625 194.51171875 C196.29486328 195.38441406 196.30066406 196.25710937 196.30664062 197.15625 C196.33564453 198.00058594 196.36464844 198.84492188 196.39453125 199.71484375 C196.4102417 200.48989258 196.42595215 201.26494141 196.44213867 202.06347656 C196.94125763 204.5317117 196.94125763 204.5317117 199.60864258 206.09179688 C202.1015625 208.26171875 202.1015625 208.26171875 202.71679688 211.58300781 C202.70616211 213.5354541 202.70616211 213.5354541 202.6953125 215.52734375 C202.69535278 216.23840271 202.69539307 216.94946167 202.69543457 217.68206787 C202.69007703 219.19178062 202.67248358 220.70149243 202.64355469 222.2109375 C202.6024487 224.46316328 202.60242887 226.71231392 202.609375 228.96484375 C202.55229914 242.35069751 200.79170476 255.300413 195.8515625 267.82421875 C195.55435303 268.60579346 195.25714355 269.38736816 194.95092773 270.19262695 C192.0359135 277.71970566 188.66222652 285.02134116 185.1015625 292.26171875 C186.29910156 292.67421875 187.49664062 293.08671875 188.73046875 293.51171875 C218.00302473 303.80018344 242.71361006 320.96746273 256.87280273 349.43408203 C264.64249645 365.7736975 268.49699828 381.39380523 268.4140625 399.51171875 C268.40842285 400.79788086 268.4027832 402.08404297 268.39697266 403.40917969 C268.28171232 412.41317993 267.73780122 420.60407114 265.1015625 429.26171875 C264.90820312 429.91962402 264.71484375 430.5775293 264.515625 431.25537109 C262.00742092 439.62572806 258.76476409 447.42272451 254.5390625 455.07421875 C254.17538574 455.73800537 253.81170898 456.40179199 253.43701172 457.08569336 C251.16979109 461.00480423 248.91532462 463.79828389 245.1015625 466.26171875 C241.4765625 466.76171875 241.4765625 466.76171875 238.1015625 466.26171875 C235.28523207 464.0813339 235.11063096 462.30706107 234.4140625 458.82421875 C234.58482829 453.93492466 237.19281328 450.64329678 239.82226562 446.66748047 C251.61936268 428.34466057 255.27158842 402.74363391 250.96972656 381.57055664 C245.19983755 356.75146474 231.4512426 334.80596887 209.6640625 321.01171875 C187.22213476 307.76730238 162.43391766 302.49874041 136.80859375 308.2890625 C122.54426483 312.03175787 109.31926323 318.6782514 98.1015625 328.26171875 C96.90273438 329.22658203 96.90273438 329.22658203 95.6796875 330.2109375 C78.01935307 345.04671534 67.63258144 367.57485657 65.3515625 390.32421875 C65.24744764 392.30240106 65.16510233 394.28181779 65.1015625 396.26171875 C65.03839844 397.42058594 64.97523438 398.57945312 64.91015625 399.7734375 C64.13626612 423.66417475 74.70947933 447.50924309 90.77001953 464.85595703 C106.40111339 481.35831098 128.75754423 492.62502941 151.6171875 493.57421875 C171.46750711 493.98285692 190.46909632 490.99649501 207.2890625 479.82421875 C212.31305125 476.52602766 215.14011395 475.06942904 221.1015625 476.26171875 C223.6015625 477.32421875 223.6015625 477.32421875 225.1015625 479.26171875 C225.68113759 483.17385059 225.68756795 485.35449549 223.51953125 488.7109375 C220.64888484 491.73926077 217.53759347 493.71395127 213.9140625 495.69921875 C213.2135376 496.08609863 212.5130127 496.47297852 211.79125977 496.87158203 C204.19228918 500.93573539 196.35518769 503.83596557 188.1015625 506.26171875 C186.98394531 506.60203125 185.86632812 506.94234375 184.71484375 507.29296875 C155.99584272 514.49773556 127.32782571 508.54665005 102.1015625 494.26171875 C97.79650681 491.61860996 93.90594028 488.58309559 90.1015625 485.26171875 C89.23789062 484.53339844 88.37421875 483.80507813 87.484375 483.0546875 C65.31056288 463.81267121 51.42718929 437.68089765 49.1015625 408.26171875 C47.53645278 378.49668563 56.22506298 350.31702654 75.97045898 327.66821289 C91.68850884 310.23859883 112.04900637 297.35825751 135.1015625 292.26171875 C135.95105469 292.05675781 136.80054688 291.85179687 137.67578125 291.640625 C147.99953882 289.50518299 158.61474429 290.07975314 169.1015625 290.26171875 C169.22756836 289.52614746 169.35357422 288.79057617 169.48339844 288.03271484 C170.06700458 285.41662886 170.84717598 283.33790268 171.9921875 280.92578125 C172.55873047 279.71075928 172.55873047 279.71075928 173.13671875 278.47119141 C173.53761719 277.61831543 173.93851562 276.76543945 174.3515625 275.88671875 C179.03825903 265.700593 183.48090697 255.43748916 185.1015625 244.26171875 C184.1115625 244.59171875 183.1215625 244.92171875 182.1015625 245.26171875 C171.7114128 246.39991981 162.55738636 244.0008543 154.2265625 237.57421875 C147.95610159 231.64104425 143.57731332 223.29029428 142.765625 214.7109375 C142.68376004 206.82734161 143.24295755 201.14212276 147.1015625 194.26171875 C148.34815149 190.52195178 147.63371879 189.37180248 146.2265625 185.76171875 C145.85789062 184.80265625 145.48921875 183.84359375 145.109375 182.85546875 C144.77679688 181.99953125 144.44421875 181.14359375 144.1015625 180.26171875 C141.09895013 171.25388164 143.17629264 161.64449845 147.1015625 153.26171875 C153.30245995 142.46015544 161.46862716 136.30388817 172.97265625 131.890625 C176.03769845 131.27455535 178.67946784 131.19930989 181.79711914 131.22241211 C183.28617516 131.23092445 183.28617516 131.23092445 184.80531311 131.23960876 C185.94195656 131.25055321 185.94195656 131.25055321 187.1015625 131.26171875 C187.05977082 124.57181728 186.98732501 117.8827395 186.89404297 111.19335938 C186.8659009 108.91999759 186.84465289 106.6465392 186.83056641 104.37304688 C186.80904368 101.09585345 186.76234365 97.81981344 186.7109375 94.54296875 C186.70909454 93.02999207 186.70909454 93.02999207 186.70721436 91.4864502 C186.55772544 84.20562213 185.21255458 78.94092856 180.390625 73.23828125 C174.22747103 68.23252708 168.87401514 66.7135259 160.91796875 66.88671875 C155.47234636 67.61179469 151.16930486 70.00105306 147.46875 74.046875 C143.95621277 78.77374653 142.98767735 82.30396885 142.9609375 88.06640625 C142.94160156 89.20722656 142.92226563 90.34804687 142.90234375 91.5234375 C142.86860174 93.92431127 142.85026899 96.32545306 142.84765625 98.7265625 C142.63829255 108.50054138 142.63829255 108.50054138 139.74609375 111.546875 C136.49478707 113.6551817 134.90337464 113.98972533 131.1015625 113.26171875 C128.94506836 111.85791016 128.94506836 111.85791016 127.1015625 109.26171875 C126.53216101 105.89567214 126.6163648 102.56616064 126.66796875 99.16015625 C126.65835599 97.12239511 126.64858528 95.0846347 126.63867188 93.046875 C126.64723883 89.84772884 126.66397838 86.64878618 126.6862793 83.44970703 C126.70090772 80.35279755 126.68546422 77.25702679 126.66796875 74.16015625 C126.69269005 72.74710709 126.69269005 72.74710709 126.71791077 71.30551147 C126.6666253 64.39398005 125.0251026 59.00403087 121.1015625 53.26171875 C114.54772586 47.01999249 109.07539646 45.83094448 100.14453125 45.91796875 C94.12870541 46.59754856 90.16486621 49.85538474 86.2265625 54.26171875 C82.6676878 59.28601245 81.85850212 63.03118223 81.828125 69.171875 C81.8075 70.49123047 81.786875 71.81058594 81.765625 73.16992188 C81.74299166 75.25243479 81.72653342 77.33460583 81.72070312 79.41723633 C81.71117523 81.43976959 81.67622438 83.46213262 81.640625 85.484375 C81.63240723 86.68843994 81.62418945 87.89250488 81.61572266 89.13305664 C81.00533384 92.84726971 80.08019868 94.0289255 77.1015625 96.26171875 C74.1640625 96.82421875 74.1640625 96.82421875 71.1015625 96.26171875 C68.2726062 94.2312204 66.3893506 92.62290801 65.64837646 89.1182251 C65.47578873 86.4592849 65.46203979 83.84007235 65.5 81.17578125 C65.49199371 80.20063568 65.48398743 79.22549011 65.47573853 78.22079468 C65.45268828 75.10901211 65.46212028 71.99853621 65.4765625 68.88671875 C65.48041774 65.78228664 65.47689647 62.67843382 65.45596313 59.57406616 C65.44393523 57.6452476 65.44644157 55.71626635 65.46566772 53.7875061 C65.43043233 45.26452141 63.29513268 39.45528893 57.1015625 33.26171875 C50.73903354 29.20053005 43.44458537 29.26379945 36.1015625 30.26171875 C29.9307501 32.59232601 26.17594777 36.55353741 23.10766602 42.30297852 C20.92623072 48.71812394 21.51540258 55.80254451 21.6015625 62.51171875 C21.64034145 65.55936263 21.64650597 68.60453344 21.6328125 71.65234375 C21.65243042 72.34201233 21.67204834 73.03168091 21.69226074 73.74224854 C21.67167488 77.56778832 21.1692929 79.17446066 18.79492188 82.23339844 C16.1015625 84.26171875 16.1015625 84.26171875 12.4765625 84.32421875 C8.72675359 83.14372335 8.0291725 82.55379355 6.1015625 79.26171875 C5.72975159 76.93634033 5.72975159 76.93634033 5.73266602 74.34472656 C5.72578262 73.36981262 5.71889923 72.39489868 5.71180725 71.39044189 C5.71796555 70.34249451 5.72412384 69.29454712 5.73046875 68.21484375 C5.71308085 65.98567559 5.69549653 63.75650896 5.67773438 61.52734375 C5.66767785 58.02080403 5.66406121 54.51436601 5.66577148 51.0078125 C5.66218887 47.61818348 5.63479225 44.22933351 5.60546875 40.83984375 C5.61365128 39.79999329 5.6218338 38.76014282 5.63026428 37.68878174 C5.54872156 29.66478177 4.02894683 24.18910308 -1.7109375 18.44921875 C-8.57661744 13.73747762 -14.64627739 12.02331604 -22.8984375 13.26171875 C-29.78977719 15.81057042 -33.76318304 19.66097021 -37.47793579 25.92527771 C-39.1256213 29.79532273 -39.30481217 33.08070823 -39.25146484 37.20727539 C-39.25362503 37.98040573 -39.25578522 38.75353607 -39.25801086 39.5500946 C-39.26108614 41.21971244 -39.25752666 42.88935313 -39.24799728 44.55894661 C-39.23421149 47.20323751 -39.24072325 49.84678201 -39.25283813 52.49107361 C-39.28374036 60.00557459 -39.27889643 67.51989878 -39.25878906 75.03442383 C-39.24787139 79.63863088 -39.26105774 84.24227437 -39.28868484 88.84640312 C-39.29412262 90.59786059 -39.29006852 92.34937453 -39.27628708 94.10078621 C-39.25723436 96.54966892 -39.26863729 98.99670565 -39.28662109 101.44555664 C-39.26661293 102.52654129 -39.26661293 102.52654129 -39.24620056 103.62936401 C-39.30970867 107.52227939 -39.80248611 109.14255617 -42.27651978 112.21507263 C-44.8984375 114.26171875 -44.8984375 114.26171875 -47.4609375 114.82421875 C-50.63654731 114.09138572 -51.85116057 112.74769788 -53.8984375 110.26171875 C-55.59040254 106.87778867 -55.01830299 103.03694084 -54.99609375 99.31640625 C-54.9946788 98.43139435 -54.99326385 97.54638245 -54.99180603 96.634552 C-54.9861989 93.80190684 -54.97364521 90.96934011 -54.9609375 88.13671875 C-54.95592342 86.21875114 -54.95136035 84.30078229 -54.94726562 82.3828125 C-54.93622716 77.67575093 -54.91895775 72.96874815 -54.8984375 68.26171875 C-56.63485097 68.86526063 -58.36873737 69.47607538 -60.1015625 70.08984375 C-61.06739258 70.42918945 -62.03322266 70.76853516 -63.02832031 71.11816406 C-74.35979093 75.63301677 -81.21183329 83.75634475 -85.953125 94.74609375 C-87.85189803 99.79902692 -88.04609586 104.42099029 -88.07421875 109.7890625 C-88.09741079 111.48503854 -88.12152787 113.18100213 -88.14648438 114.87695312 C-88.18161871 117.54101993 -88.2109647 120.20462593 -88.22436523 122.86889648 C-88.23985729 125.44701238 -88.28006171 128.02379889 -88.32421875 130.6015625 C-88.32231033 131.39441147 -88.32040192 132.18726044 -88.31843567 133.00413513 C-88.40430888 136.89659096 -88.64378776 138.85274193 -90.75073242 142.23657227 C-93.52475655 144.85229696 -95.09451886 145.33934974 -98.8984375 145.26171875 C-101.55053711 143.84155273 -101.55053711 143.84155273 -103.8984375 141.26171875 C-104.64083629 138.15165916 -104.57537525 135.10682103 -104.52734375 131.921875 C-104.52975571 131.00393661 -104.53216766 130.08599823 -104.53465271 129.14024353 C-104.53367342 127.19428194 -104.52026015 125.24829278 -104.49536133 123.30249023 C-104.46141319 120.36537408 -104.47460716 117.43133091 -104.49414062 114.49414062 C-104.47984937 95.70813652 -100.46825116 81.57928727 -87.3046875 67.58203125 C-78.25048779 58.85119582 -67.40164115 53.74008497 -54.8984375 52.26171875 C-54.92462158 51.53694336 -54.95080566 50.81216797 -54.9777832 50.06542969 C-55.0830686 46.71442203 -55.14717577 43.3637638 -55.2109375 40.01171875 C-55.25283203 38.8721875 -55.29472656 37.73265625 -55.33789062 36.55859375 C-55.50887983 24.52095388 -51.85174265 15.16539942 -43.51171875 6.4609375 C-32.01831074 -3.21139241 -13.8450038 -6.7797699 0 0 Z " fill="#020202" transform="translate(173.8984375,2.73828125)"/>
<path d="M0 0 C0.91092911 -0.00336868 1.82185822 -0.00673737 2.76039124 -0.01020813 C4.68268491 -0.00990976 6.60502664 0.0052942 8.52709961 0.03442383 C11.46030889 0.07405194 14.38898332 0.05514186 17.32226562 0.02929688 C19.19402787 0.03685783 21.06578011 0.04781316 22.9375 0.0625 C23.80954575 0.0555159 24.68159149 0.0485318 25.58006287 0.04133606 C29.65755436 0.13526704 32.72424749 0.43529936 36.09838867 2.85107422 C39.16275241 6.51136322 39.23779627 8.3047979 39.12109375 13.03125 C39.11260406 13.71225266 39.10411438 14.39325531 39.09536743 15.09489441 C39.06194927 17.2563236 38.98671611 19.41393065 38.91015625 21.57421875 C38.88004057 23.04486773 38.85266754 24.51557559 38.828125 25.98632812 C38.76220362 29.57935343 38.65877348 33.17016269 38.53515625 36.76171875 C39.41252441 36.73553467 40.28989258 36.70935059 41.19384766 36.68237305 C44.47038382 36.59680966 47.74572183 36.53431008 51.02294922 36.48706055 C52.43720307 36.4620195 53.85132882 36.42797533 55.26513672 36.38452148 C57.30598627 36.32339667 59.34511631 36.29540888 61.38671875 36.2734375 C62.61213379 36.24725342 63.83754883 36.22106934 65.10009766 36.1940918 C68.59080163 36.77091388 70.80431587 37.62505123 73.40634155 40.07743835 C75.69962753 43.49920157 75.30312453 47.31404099 75.19140625 51.296875 C75.18765991 52.21254745 75.18391357 53.12821991 75.18005371 54.07164001 C75.16663932 56.00241723 75.13886181 57.9331413 75.09765625 59.86352539 C75.03529314 62.81773424 75.01570677 65.76980718 75.00390625 68.72460938 C74.98556622 70.60289058 74.96481466 72.48115012 74.94140625 74.359375 C74.92865662 75.68292747 74.92865662 75.68292747 74.91564941 77.03321838 C74.89643433 77.85764938 74.87721924 78.68208038 74.85742188 79.53149414 C74.84376587 80.25365616 74.83010986 80.97581818 74.81604004 81.71986389 C74.48963269 84.09264746 73.76172509 85.71315568 72.53515625 87.76171875 C69.11115204 90.26889688 65.71269787 89.9920369 61.58203125 89.95703125 C60.92180969 89.95420135 60.26158813 89.95137146 59.58135986 89.94845581 C57.48243728 89.9373029 55.38394883 89.91220821 53.28515625 89.88671875 C51.8580791 89.87668259 50.43099523 89.86755785 49.00390625 89.859375 C45.51418297 89.83737986 42.02471202 89.80288411 38.53515625 89.76171875 C38.5508667 90.64432373 38.56657715 91.52692871 38.58276367 92.4362793 C38.63403623 95.72572761 38.67157542 99.01474836 38.69995117 102.30444336 C38.71499385 103.72541016 38.73543329 105.14633088 38.76147461 106.56713867 C38.79805972 108.61518761 38.81492722 110.66262025 38.828125 112.7109375 C38.84383545 113.94158936 38.8595459 115.17224121 38.87573242 116.44018555 C38.50483076 120.05747376 37.77167412 121.91872082 35.53515625 124.76171875 C32.8289855 125.66377567 31.18870886 125.9010149 28.40258789 125.9387207 C27.16098656 125.95797356 27.16098656 125.95797356 25.89430237 125.97761536 C24.55830238 125.98869576 24.55830238 125.98869576 23.1953125 126 C22.27681015 126.00807175 21.3583078 126.01614349 20.41197205 126.02445984 C18.46941001 126.03828616 16.52682382 126.04901481 14.58422852 126.05688477 C11.61232767 126.0741336 8.64152916 126.11803632 5.66992188 126.16210938 C3.78256026 126.17223349 1.8951892 126.18075047 0.0078125 126.1875 C-0.88082993 126.20500809 -1.76947235 126.22251617 -2.68504333 126.24055481 C-8.85679819 126.21882394 -8.85679819 126.21882394 -11.99438477 123.86010742 C-14.66259249 120.0524957 -14.58205406 117.65777296 -14.5625 113.00390625 C-14.56108505 112.3408548 -14.5596701 111.67780334 -14.55821228 110.99465942 C-14.55261129 108.87530012 -14.54005875 106.75604616 -14.52734375 104.63671875 C-14.52232887 103.20052236 -14.51776594 101.76432431 -14.51367188 100.328125 C-14.50264157 96.8059553 -14.48537634 93.2838473 -14.46484375 89.76171875 C-15.38297852 89.78266602 -16.30111328 89.80361328 -17.24707031 89.82519531 C-20.66139803 89.89346458 -24.07499818 89.9435626 -27.48974609 89.98144531 C-28.96609965 90.00153176 -30.44237394 90.02880676 -31.91845703 90.06347656 C-34.04349337 90.11213059 -36.16747609 90.13471548 -38.29296875 90.15234375 C-40.20964355 90.18376465 -40.20964355 90.18376465 -42.16503906 90.21582031 C-46.0230594 89.68490008 -47.12875966 88.80159587 -49.46484375 85.76171875 C-50.58492976 83.52154674 -50.61925704 82.2448514 -50.67358398 79.75854492 C-50.6928746 78.93396286 -50.71216522 78.1093808 -50.73204041 77.2598114 C-50.78977697 73.48697273 -50.8390552 69.71432465 -50.86987305 65.94116211 C-50.89146381 63.95172783 -50.92557947 61.96238882 -50.97241211 59.97338867 C-51.0393585 57.10422378 -51.06686168 54.23702286 -51.0859375 51.3671875 C-51.11376816 50.48056931 -51.14159882 49.59395111 -51.17027283 48.6804657 C-51.15067689 42.78977178 -51.15067689 42.78977178 -49.33825684 40.07298279 C-45.61641996 36.56541117 -42.24620563 36.16809991 -37.31640625 36.2734375 C-36.65901459 36.28051224 -36.00162292 36.28758698 -35.3243103 36.2948761 C-33.24494763 36.32264611 -31.16837823 36.38533431 -29.08984375 36.44921875 C-27.67191417 36.47432488 -26.25394196 36.497134 -24.8359375 36.51757812 C-21.37801387 36.57241051 -17.92170187 36.65855264 -14.46484375 36.76171875 C-14.49102783 35.88435059 -14.51721191 35.00698242 -14.54418945 34.10302734 C-14.62975284 30.82649118 -14.69225242 27.55115317 -14.73950195 24.27392578 C-14.764543 22.85967193 -14.79858717 21.44554618 -14.84204102 20.03173828 C-14.90316583 17.99088873 -14.93115362 15.95175869 -14.953125 13.91015625 C-14.97930908 12.68474121 -15.00549316 11.45932617 -15.0324707 10.19677734 C-14.4553526 6.704282 -13.59778044 4.49973382 -11.14466858 1.8972168 C-7.74769652 -0.39900783 -3.97027069 -0.06941712 0 0 Z " fill="#020305" transform="translate(320.46484375,339.23828125)"/>
<path d="M0 0 C3.37502629 2.65289579 4.83556798 4.14886189 5.65942383 8.41333008 C5.6829895 10.32214966 5.6829895 10.32214966 5.70703125 12.26953125 C5.72971321 13.29103523 5.72971321 13.29103523 5.75285339 14.33317566 C5.79560078 16.49329063 5.80455435 18.65200493 5.8125 20.8125 C5.83565489 22.28324002 5.86102231 23.75394698 5.88867188 25.22460938 C5.9513916 28.81637971 5.98383125 32.40768404 6 36 C6.52239258 35.59370361 7.04478516 35.18740723 7.58300781 34.76879883 C14.56123819 29.42262579 14.56123819 29.42262579 18.75 27.6875 C19.46671875 27.38199219 20.1834375 27.07648438 20.921875 26.76171875 C31.55930038 22.86266245 42.76861041 24.72915987 53 29 C62.24516034 33.68668375 69.48145958 41.26484344 73.32421875 50.9140625 C74.18940053 53.58462359 74.71374947 56.20905738 75 59 C75.68707031 59.10441406 76.37414062 59.20882812 77.08203125 59.31640625 C87.40676013 61.73518477 97.99192457 68.20386342 104 77 C104.890625 80.62890625 104.890625 80.62890625 105 84 C102.9375 86.9375 102.9375 86.9375 100 89 C97.09375 89.39453125 97.09375 89.39453125 94 89 C91.69140625 87.171875 91.69140625 87.171875 89.5625 84.75 C84.28187073 79.13548734 79.80040934 76.57224796 72.4375 74.1875 C67.01212778 72.25517565 63.84195299 70.05029024 61 65 C59.91880915 62.26642312 58.98096317 59.50570159 58.046875 56.71875 C55.76661688 50.79688563 52.49071734 46.47974928 46.8125 43.5625 C40.0981104 40.60922805 32.75274378 39.50117721 25.609375 41.75390625 C23.62941128 42.71743821 21.82958164 43.77742909 20 45 C19.113125 45.53625 18.22625 46.0725 17.3125 46.625 C13.04532791 51.00750107 10.2608989 56.23640419 9.68359375 62.3515625 C10.04203179 66.48466287 11.17767606 69.82820224 12.875 73.5625 C13.18598633 74.25649902 13.49697266 74.95049805 13.81738281 75.66552734 C17.30708612 83.12234712 21.94777367 89.53707507 27 96 C27.43328613 96.55864746 27.86657227 97.11729492 28.31298828 97.69287109 C30.55317133 100.57643139 32.81181111 103.44473292 35.08203125 106.3046875 C39.94816669 112.44666957 44.69189959 118.68161925 49.41992188 124.93017578 C50.91194125 126.88464739 52.42864747 128.81690128 53.953125 130.74609375 C62.29361932 141.46897026 73 156.98282984 73 171 C78.14313379 167.71410897 80.26617525 163.70496726 82 158 C82.21673058 154.69251749 81.91008214 151.48448137 81.625 148.1875 C81.3379047 142.05903264 81.39013167 137.60390626 85.36645508 132.7265625 C87.52047026 130.42772999 89.76908826 128.22388524 92 126 C93.64890171 123.43553562 94.86457862 120.82337403 96 118 C98.8707483 111.1292517 98.8707483 111.1292517 101 109 C104.52986508 108.67316064 107.13775866 108.64625996 110.4375 110 C112.38394724 112.49145246 112.61774535 114.43571773 112.4453125 117.5625 C110.61599365 127.57561372 105.09217844 135.90782156 98 143 C97.95849138 145.48458732 98.01253868 147.89742571 98.125 150.375 C98.35549863 161.40919248 95.69074987 170.81760402 88 179 C81.06754075 185.87892675 81.06754075 185.87892675 76 187 C76.01326136 188.17586812 76.01326136 188.17586812 76.02679062 189.37549114 C76.240475 208.44583802 76.43186056 227.51628917 76.59840012 246.58710766 C76.67947561 255.80960279 76.76810933 265.03190982 76.87451172 274.25415039 C76.96722811 282.29184088 77.04578845 290.32952344 77.10732102 298.36751539 C77.1404005 302.62399581 77.18058715 306.8801424 77.2377243 311.13637352 C77.29128155 315.14258888 77.32590703 319.14852222 77.34602928 323.15504074 C77.35674803 324.62527411 77.37437829 326.09547588 77.39944649 327.56553459 C77.43265224 329.57355304 77.43853018 331.58196785 77.4430542 333.59025574 C77.45411572 334.71392138 77.46517723 335.83758703 77.47657394 336.99530315 C76.89033176 340.69143479 75.59475832 342.35403645 73 345 C71 345.62890625 71 345.62890625 69 345.5625 C68.34 345.56378906 67.68 345.56507813 67 345.56640625 C64.08010048 344.73948158 62.90293155 343.34254918 61 341 C60.49777794 338.18869209 60.49777794 338.18869209 60.49447632 334.88064575 C60.47794258 332.99694023 60.47794258 332.99694023 60.46107483 331.07518005 C60.46897785 329.68569742 60.47724512 328.29621681 60.48583984 326.90673828 C60.48037852 325.44119022 60.4731368 323.97564786 60.46424866 322.51011658 C60.44890282 319.35344875 60.44611345 316.197106 60.45301437 313.04040909 C60.46381131 308.03737992 60.44640217 303.03468904 60.42520142 298.03170776 C60.39491822 290.10470216 60.38324593 282.17779667 60.37962496 274.25073802 C60.37299378 260.09328447 60.34370461 245.93590247 60.2945286 231.77853382 C60.27814239 226.81817306 60.27259247 221.85795791 60.27611899 216.89757276 C60.27656034 213.79067599 60.26892745 210.68383272 60.25944328 207.57695198 C60.25679127 206.15088049 60.25745881 204.72479772 60.26195335 203.29873085 C60.34576989 174.69296519 51.37859054 154.22356188 34 132 C32.88000163 130.56135882 31.7602124 129.12255478 30.640625 127.68359375 C30.07432373 126.9565625 29.50802246 126.22953125 28.92456055 125.48046875 C26.56610799 122.45210296 24.2093295 119.42245237 21.85595703 116.39013672 C20.58811486 114.75738548 19.31816152 113.12627196 18.04638672 111.49658203 C1.35258441 90.03780839 -10.27392352 69.28046604 -10.3359375 41.34765625 C-10.3425943 40.28510117 -10.3492511 39.22254608 -10.35610962 38.12779236 C-10.36615688 35.90349034 -10.37092912 33.67915867 -10.37060547 31.45483398 C-10.37502025 28.04687017 -10.41153714 24.64016086 -10.44921875 21.23242188 C-10.45508023 19.0625044 -10.45905409 16.89258082 -10.4609375 14.72265625 C-10.47530853 13.7059938 -10.48967957 12.68933136 -10.50448608 11.64186096 C-10.45900511 4.65546999 -10.45900511 4.65546999 -8.15478516 1.36499023 C-5.1446519 -0.54183676 -3.49953998 -0.64277265 0 0 Z " fill="#010101" transform="translate(80,167)"/>
<path d="M0 0 C1.08925781 0.25523437 2.17851562 0.51046875 3.30078125 0.7734375 C4.79158203 1.19496094 4.79158203 1.19496094 6.3125 1.625 C7.17488281 1.86476563 8.03726563 2.10453125 8.92578125 2.3515625 C11.81545401 4.64806326 12.07995629 6.72035868 12.7019043 10.28466797 C13.26786635 15.43997504 13.29349777 20.56851541 13.25 25.75 C13.24323242 26.90580566 13.23646484 28.06161133 13.22949219 29.25244141 C13.07881178 41.66254981 11.341815 52.30239162 7 64 C5.35 64.33 3.7 64.66 2 65 C1.99589111 64.08186523 1.99178223 63.16373047 1.98754883 62.21777344 C1.96053816 58.80276072 1.91142817 55.3895399 1.84741211 51.97509766 C1.82425149 50.49897288 1.80984085 49.02268331 1.80444336 47.54638672 C1.79513816 45.42050737 1.7541254 43.29721232 1.70703125 41.171875 C1.6913208 39.8940918 1.67561035 38.61630859 1.65942383 37.29980469 C1.25104609 33.92950828 1.25104609 33.92950828 -0.94824219 31.5871582 C-5.19914023 29.37635115 -8.80620838 29.4069508 -13.53515625 29.43359375 C-14.4508287 29.42739517 -15.36650116 29.42119659 -16.30992126 29.41481018 C-18.24053893 29.40772295 -20.17121785 29.41086686 -22.10180664 29.42358398 C-25.05664134 29.43747246 -28.00832214 29.40333722 -30.96289062 29.36523438 C-32.84114661 29.36428335 -34.71940656 29.36614111 -36.59765625 29.37109375 C-37.48002457 29.35783554 -38.36239288 29.34457733 -39.27149963 29.33091736 C-43.35525837 29.39299921 -45.32452302 29.44399118 -48.54956055 32.09863281 C-50.30890077 35.61790552 -50.54248019 38.12071137 -50.609375 42.05078125 C-50.62591125 42.70958786 -50.64244751 43.36839447 -50.65948486 44.04716492 C-50.70777556 46.13570651 -50.72929082 48.22352122 -50.75 50.3125 C-50.77817596 51.73506224 -50.80810568 53.1575909 -50.83984375 54.58007812 C-50.91352563 58.05322825 -50.96321715 61.52624072 -51 65 C-51.88260498 65.0093457 -52.76520996 65.01869141 -53.67456055 65.02832031 C-56.96456672 65.07246114 -60.25329074 65.13412676 -63.54272461 65.20751953 C-64.96350192 65.23566014 -66.38443378 65.25690908 -67.80541992 65.27099609 C-69.85415359 65.29252394 -71.901043 65.33921514 -73.94921875 65.390625 C-75.79519653 65.4220459 -75.79519653 65.4220459 -77.6784668 65.45410156 C-81.75765381 66.12452142 -83.36688615 66.78827099 -86 70 C-86.68674444 73.15467311 -86.60577235 76.22135669 -86.5234375 79.4375 C-86.51873444 80.3545874 -86.51403137 81.2716748 -86.50918579 82.21655273 C-86.48784998 85.14513432 -86.43125408 88.07190307 -86.375 91 C-86.35849127 92.97133707 -86.34414361 94.94269351 -86.33203125 96.9140625 C-86.29809589 100.5275824 -86.26299127 104.14089298 -86.19287109 107.75390625 C-86.18001068 108.47908447 -86.16715027 109.2042627 -86.15390015 109.95141602 C-85.99071296 112.12362094 -85.76825575 113.95594611 -85 116 C-81.50791819 117.16402727 -78.60852228 117.21118508 -74.92578125 117.31640625 C-73.90003242 117.3475779 -73.90003242 117.3475779 -72.8535614 117.37937927 C-70.6733079 117.44466154 -68.49293595 117.50366017 -66.3125 117.5625 C-64.83267014 117.60570553 -63.35285217 117.64932047 -61.87304688 117.69335938 C-58.24882378 117.80032083 -54.62446811 117.90164823 -51 118 C-51.33 119.65 -51.66 121.3 -52 123 C-54.54013909 123.8175507 -57.08193231 124.62915186 -59.625 125.4375 C-60.69427734 125.78264648 -60.69427734 125.78264648 -61.78515625 126.13476562 C-62.48769531 126.35712891 -63.19023437 126.57949219 -63.9140625 126.80859375 C-64.5529541 127.01282959 -65.1918457 127.21706543 -65.85009766 127.42749023 C-73.2763891 129.40507977 -80.68493335 129.18369573 -88.3125 129.1875 C-90.23352539 129.20586914 -90.23352539 129.20586914 -92.19335938 129.22460938 C-107.52367237 129.24827944 -107.52367237 129.24827944 -112 127 C-113.90234375 124.09375 -113.90234375 124.09375 -114.9375 120.5 C-115.22113403 119.54951782 -115.22113403 119.54951782 -115.51049805 118.57983398 C-116.04742315 116.73115379 -116.52512431 114.86558305 -117 113 C-117.24492187 112.13503906 -117.48984375 111.27007812 -117.7421875 110.37890625 C-123.35385608 87.58630715 -116.88088487 61.45818996 -105.12548828 41.79785156 C-91.50252589 20.0365728 -70.55757043 5.22578481 -45.55541992 -0.79589844 C-30.26741678 -4.30646259 -15.16576472 -4.01395384 0 0 Z " fill="#8CB7FD" transform="translate(357,311)"/>
<path d="M0 0 C8.1451345 4.23429375 13.10650921 9.96867179 15.890625 18.71875 C16.11234375 19.4921875 16.3340625 20.265625 16.5625 21.0625 C17.98406607 25.48856517 19.99574103 28.11441538 24.125 30.3125 C26.19937482 31.08693327 28.28394033 31.83431922 30.375 32.5625 C37.4062634 35.08344553 41.98177073 39.00235051 47.125 44.3125 C49.00144507 46.62936366 49.00144507 46.62936366 52.0625 46.5 C53.073125 46.768125 54.08375 47.03625 55.125 47.3125 C58.63049815 53.59822082 59.26387542 59.22985349 59.125 66.3125 C60.61 66.8075 60.61 66.8075 62.125 67.3125 C61.0525 67.456875 59.98 67.60125 58.875 67.75 C56.36256137 68.46639816 55.38260906 68.91499728 53.9453125 71.1328125 C52.94493146 73.50561711 52.03696251 75.90446676 51.125 78.3125 C48.65150353 83.57545052 46.1843363 87.27747564 41.8125 91.125 C37.97015549 95.16769022 37.73858213 98.30789032 37.76879883 103.6394043 C37.83808129 105.38325174 37.93684219 107.12624991 38.0690918 108.86645508 C38.56356745 116.37123703 36.83906145 122.03966119 32 127.875 C30.125 129.3125 30.125 129.3125 28.125 129.3125 C27.86847656 128.42691406 27.61195313 127.54132813 27.34765625 126.62890625 C22.64764443 111.4211239 15.59374247 98.38999446 5.53320312 86.0625 C2.82742768 82.69998294 0.23659964 79.24829413 -2.375 75.8125 C-5.84539815 71.26433217 -9.32583854 66.72479349 -12.83666992 62.20776367 C-14.86547821 59.58821295 -16.8693497 56.94979991 -18.875 54.3125 C-19.29910156 53.76561523 -19.72320312 53.21873047 -20.16015625 52.65527344 C-25.24869736 46.06675193 -29.59074871 39.49291933 -33 31.875 C-33.29543701 31.22490967 -33.59087402 30.57481934 -33.89526367 29.9050293 C-36.09914045 24.66804778 -36.72147092 20.17093448 -35.09765625 14.6875 C-31.5304061 7.38484649 -26.80955064 2.68426789 -19.453125 -0.8515625 C-13.1447698 -2.89699888 -6.10181954 -2.55449056 0 0 Z " fill="#FD7D7A" transform="translate(124.875,208.6875)"/>
<path d="M0 0 C7.59 0 15.18 0 23 0 C23.04898438 2.27519531 23.09796875 4.55039062 23.1484375 6.89453125 C23.20245239 9.09878092 23.25975777 11.30292218 23.31738281 13.50708008 C23.35565798 15.03857339 23.39051349 16.57015615 23.421875 18.10180664 C23.46755807 20.3038733 23.52554537 22.50532496 23.5859375 24.70703125 C23.59748871 25.39150833 23.60903992 26.07598541 23.62094116 26.78120422 C23.73273744 30.38460837 23.94394553 31.9159183 26 35 C28.54579377 35.33802675 30.86149086 35.4887947 33.4140625 35.51171875 C34.50852188 35.53864555 34.50852188 35.53864555 35.62509155 35.56611633 C37.95833535 35.62035132 40.29137314 35.65415562 42.625 35.6875 C44.20575792 35.72066162 45.78648861 35.7551502 47.3671875 35.79101562 C51.24482341 35.87858828 55.12150989 35.93853759 59 36 C59 43.59 59 51.18 59 59 C55.58720703 59.05607422 55.58720703 59.05607422 52.10546875 59.11328125 C49.90118818 59.15949722 47.69707738 59.21073034 45.49291992 59.26245117 C43.96144941 59.29569818 42.42985644 59.32373093 40.89819336 59.34643555 C38.69592113 59.37998718 36.49477088 59.4322991 34.29296875 59.48828125 C33.60849167 59.49467117 32.92401459 59.5010611 32.21879578 59.50764465 C29.53939092 59.59045768 27.43828492 59.75482742 25.07617188 61.07617188 C23.42529194 64.02738193 23.51906931 66.99500734 23.48828125 70.29296875 C23.47033005 70.99899734 23.45237885 71.70502594 23.43388367 72.43244934 C23.37976822 74.68407241 23.34588278 76.93548343 23.3125 79.1875 C23.27932781 80.71552431 23.24483823 82.24352063 23.20898438 83.77148438 C23.12156266 87.51435357 23.06151193 91.25625647 23 95 C15.41 95 7.82 95 0 95 C-0.03738281 92.72480469 -0.07476562 90.44960938 -0.11328125 88.10546875 C-0.15949722 85.90118818 -0.21073034 83.69707738 -0.26245117 81.49291992 C-0.29569818 79.96144941 -0.32373093 78.42985644 -0.34643555 76.89819336 C-0.37998718 74.69592113 -0.4322991 72.49477088 -0.48828125 70.29296875 C-0.49467117 69.60849167 -0.5010611 68.92401459 -0.50764465 68.21879578 C-0.59045768 65.53939092 -0.75482742 63.43828492 -2.07617188 61.07617188 C-5.02738193 59.42529194 -7.99500734 59.51906931 -11.29296875 59.48828125 C-12.35201164 59.46135445 -12.35201164 59.46135445 -13.43244934 59.43388367 C-15.68407241 59.37976822 -17.93548343 59.34588278 -20.1875 59.3125 C-21.71552431 59.27932781 -23.24352063 59.24483823 -24.77148438 59.20898438 C-28.51435357 59.12156266 -32.25625647 59.06151193 -36 59 C-36 51.41 -36 43.82 -36 36 C-33.72480469 35.96261719 -31.44960938 35.92523438 -29.10546875 35.88671875 C-26.90118818 35.84050278 -24.69707738 35.78926966 -22.49291992 35.73754883 C-20.96144941 35.70430182 -19.42985644 35.67626907 -17.89819336 35.65356445 C-15.69592113 35.62001282 -13.49477088 35.5677009 -11.29296875 35.51171875 C-10.60849167 35.50532883 -9.92401459 35.4989389 -9.21879578 35.49235535 C-6.53939092 35.40954232 -4.43828492 35.24517258 -2.07617188 33.92382812 C-0.42529194 30.97261807 -0.51906931 28.00499266 -0.48828125 24.70703125 C-0.47033005 24.00100266 -0.45237885 23.29497406 -0.43388367 22.56755066 C-0.37976822 20.31592759 -0.34588278 18.06451657 -0.3125 15.8125 C-0.27932781 14.28447569 -0.24483823 12.75647937 -0.20898438 11.22851562 C-0.12156266 7.48564643 -0.06151193 3.74374353 0 0 Z " fill="#EFF1F2" transform="translate(321,355)"/>
<path d="M0 0 C6.47723984 4.62107559 12.53485783 12.02311483 14 20 C14.60197617 27.31289574 14.56002465 33.69049648 9.6640625 39.6171875 C1.70102834 47.42484538 -8.49520881 48.36651581 -19.125 48.5 C-20.04289307 48.51853027 -20.96078613 48.53706055 -21.90649414 48.55615234 C-30.29712286 48.47951187 -38.22815143 46.3466385 -44.5 40.5 C-45.1290625 39.9328125 -45.758125 39.365625 -46.40625 38.78125 C-50.64474101 34.04411299 -50.41968254 29.47260046 -50.31640625 23.32421875 C-49.86421898 18.57346117 -48.42735332 15.06421987 -46 11 C-45.649375 10.37480469 -45.29875 9.74960938 -44.9375 9.10546875 C-40.76894047 2.461827 -33.60331156 -2.09475303 -26.21484375 -4.5234375 C-16.63649089 -6.5843882 -8.4922704 -4.6836905 0 0 Z " fill="#040303" transform="translate(211,129)"/>
<path d="M0 0 C0.90105469 0.00902344 1.80210937 0.01804688 2.73046875 0.02734375 C3.41753906 0.03894531 4.10460937 0.05054688 4.8125 0.0625 C4.82708252 1.07675049 4.84166504 2.09100098 4.85668945 3.13598633 C4.91466253 6.89904029 4.99189459 10.66149521 5.07495117 14.42407227 C5.10820536 16.05255409 5.13623584 17.68115131 5.15893555 19.30981445 C5.19247357 21.65105361 5.24478585 23.99123486 5.30078125 26.33203125 C5.30717117 27.06025589 5.3135611 27.78848053 5.32014465 28.53877258 C5.40296634 31.38599733 5.48286111 33.543327 7.03198242 35.9831543 C9.19895288 37.43498837 9.19895288 37.43498837 13.8125 38.0625 C13.8125 44.9925 13.8125 51.9225 13.8125 59.0625 C11.5025 59.7225 9.1925 60.3825 6.8125 61.0625 C5.69426185 63.29897631 5.61853939 64.71141529 5.49609375 67.1953125 C5.45419922 68.00097656 5.41230469 68.80664062 5.36914062 69.63671875 C5.32982422 70.47847656 5.29050781 71.32023437 5.25 72.1875 C5.20681641 73.03699219 5.16363281 73.88648438 5.11914062 74.76171875 C5.01295764 76.86178223 4.91221503 78.96211948 4.8125 81.0625 C-0.49386572 83.93265764 -4.23241441 84.99785376 -10.1875 84.0625 C-15.70416779 82.01439579 -20.75307725 78.08286902 -23.296875 72.7265625 C-25.09048511 67.36146558 -25.28436898 61.66135333 -23.06640625 56.40625 C-22.15538404 54.73389195 -21.23880971 53.06454517 -20.31640625 51.3984375 C-18.46491315 47.56732028 -18.58217265 45.29979144 -19.1875 41.0625 C-20.31239961 37.94391671 -21.66691514 35.00596146 -23.1875 32.0625 C-25.41746497 27.60257006 -24.43604422 22.20343568 -23.125 17.5625 C-20.4287778 10.19876106 -14.90249748 4.87783948 -8.1875 1.0625 C-5.17259443 0.05753148 -3.14568308 -0.04085303 0 0 Z " fill="#FC6363" transform="translate(356.1875,148.9375)"/>
<path d="M0 0 C6.0888311 4.06671007 10.98324906 9.9176361 12.79296875 17.09375 C13.67243198 23.50761315 13.02843727 28.17422948 9.1171875 33.4140625 C2.80348869 39.72776131 -5.36796679 41.52489534 -14.0078125 41.7265625 C-21.94024094 41.65469452 -29.10900638 39.85760568 -35.4453125 34.9140625 C-39.45135916 30.8052967 -40.18998022 27.88910727 -40.2578125 22.1640625 C-40.10571747 14.16565301 -38.00826783 9.52066907 -32.6953125 3.6640625 C-23.25644179 -5.07489195 -11.1893878 -6.39904286 0 0 Z " fill="#040303" transform="translate(297.8828125,242.5859375)"/>
<path d="M0 0 C5.96090811 4.19544781 10.14715864 9.56707482 12.4375 16.5 C13.06902352 21.95606947 13.15033726 26.8664146 10.9375 31.9375 C4.99660029 38.0269222 -1.67165318 41.09679314 -10.2109375 41.80078125 C-20.35670142 41.83268617 -28.47827939 41.08017957 -36.5625 34.5 C-39.89456396 30.90487835 -40.8750632 28.03932957 -41.125 23.25 C-40.84216026 15.83555813 -37.86091401 10.21094986 -33.125 4.625 C-23.87347446 -3.04699679 -11.11244339 -6.24123533 0 0 Z " fill="#040303" transform="translate(210.5625,443.5)"/>
<path d="M0 0 C10.23 0 20.46 0 31 0 C31 7.59 31 15.18 31 23 C27.58720703 23.05607422 27.58720703 23.05607422 24.10546875 23.11328125 C21.90118818 23.15949722 19.69707738 23.21073034 17.49291992 23.26245117 C15.96144941 23.29569818 14.42985644 23.32373093 12.89819336 23.34643555 C10.69592113 23.37998718 8.49477088 23.4322991 6.29296875 23.48828125 C5.60849167 23.49467117 4.92401459 23.5010611 4.21879578 23.50764465 C1.53939092 23.59045768 -0.56171508 23.75482742 -2.92382812 25.07617188 C-4.57470806 28.02738193 -4.48093069 30.99500734 -4.51171875 34.29296875 C-4.52966995 34.99899734 -4.54762115 35.70502594 -4.56611633 36.43244934 C-4.62023178 38.68407241 -4.65411722 40.93548343 -4.6875 43.1875 C-4.72067219 44.71552431 -4.75516177 46.24352063 -4.79101562 47.77148438 C-4.87843734 51.51435357 -4.93848807 55.25625647 -5 59 C-12.59 59 -20.18 59 -28 59 C-28 48.77 -28 38.54 -28 28 C-27.67 28 -27.34 28 -27 28 C-26.67 29.65 -26.34 31.3 -26 33 C-13.6557673 24.27501877 -3.51166725 14.60897412 5 2 C2.525 1.505 2.525 1.505 0 1 C0 0.67 0 0.34 0 0 Z " fill="#E0E5EA" transform="translate(349,391)"/>
<path d="M0 0 C8.17568484 -0.69944072 14.19241978 0.24303939 21 5 C25.42541196 9.02226884 28.60397318 13.38681396 29.27174377 19.47927856 C29.28205124 20.34737152 29.2923587 21.21546448 29.30297852 22.10986328 C29.31962051 23.10084015 29.33626251 24.09181702 29.35340881 25.11282349 C29.36182297 26.17129486 29.37023712 27.22976624 29.37890625 28.3203125 C29.39590073 29.41592499 29.4128952 30.51153748 29.43040466 31.64035034 C29.48346598 35.13517524 29.5238054 38.62998881 29.5625 42.125 C29.60643822 45.62709241 29.65313578 49.12909333 29.70530701 52.631073 C29.73724365 54.8090019 29.76414009 56.98701164 29.78553772 59.16506958 C29.79902756 60.14974213 29.8125174 61.13441467 29.82641602 62.14892578 C29.83592789 63.01542755 29.84543976 63.88192932 29.85523987 64.77468872 C29.91668081 67.17333836 29.91668081 67.17333836 31 70 C25.52559249 72.65425819 21.07918222 72.66956716 15.3125 70.8125 C10.81927748 68.35394428 8.6156504 65.84695121 7 61 C6.88340066 59.08345949 6.82333251 57.16327847 6.79467773 55.2434082 C6.77473251 54.06241043 6.75478729 52.88141266 6.73423767 51.66462708 C6.71752518 50.38955795 6.70081268 49.11448883 6.68359375 47.80078125 C6.66281265 46.49545944 6.64203156 45.19013763 6.62062073 43.84526062 C6.56547727 40.37817647 6.51603405 36.91103354 6.46777344 33.44384766 C6.4175019 29.90456931 6.36184537 26.36537611 6.30664062 22.82617188 C6.19915362 15.88418844 6.09768773 8.94212806 6 2 C3.03 1.505 3.03 1.505 0 1 C0 0.67 0 0.34 0 0 Z " fill="#FDC5B4" transform="translate(151,15)"/>
<path d="M0 0 C1.43428142 0.1265487 2.86773609 0.26248908 4.30078125 0.40234375 C5.09911377 0.47702881 5.89744629 0.55171387 6.7199707 0.62866211 C12.92527997 1.63929231 16.2704153 6.25578119 19.80078125 11 C21.83626254 14.3946789 22.12683942 17.63157183 22.18945312 21.53735352 C22.20617065 22.42830215 22.22288818 23.31925079 22.2401123 24.23719788 C22.25368774 25.19146164 22.26726318 26.1457254 22.28125 27.12890625 C22.29965942 28.11495346 22.31806885 29.10100067 22.33703613 30.1169281 C22.41564187 34.33362084 22.48350162 38.55047077 22.55224609 42.76733398 C22.60396902 45.84627167 22.66121259 48.92507264 22.71875 52.00390625 C22.73232544 52.96019424 22.74590088 53.91648224 22.7598877 54.90174866 C22.77660522 55.78954514 22.79332275 56.67734161 22.81054688 57.59204102 C22.82307495 58.37273453 22.83560303 59.15342804 22.84851074 59.95777893 C22.93105825 62.20181153 22.93105825 62.20181153 24 65 C20.4159521 67.68803593 17.4968621 68.53835869 12.98828125 68.3515625 C8.45752966 67.55044729 5.66557205 64.73752578 2.6875 61.4375 C0.11234107 57.71782599 -0.1234377 54.92977505 -0.11352539 50.51879883 C-0.11344986 49.39786331 -0.11337433 48.2769278 -0.11329651 47.12202454 C-0.10813522 45.91257675 -0.10297394 44.70312897 -0.09765625 43.45703125 C-0.0962413 42.21829758 -0.09482635 40.9795639 -0.09336853 39.70329285 C-0.08871602 36.41368463 -0.0797339 33.1241254 -0.06866455 29.83453369 C-0.05842629 26.47628377 -0.05386574 23.11802667 -0.04882812 19.75976562 C-0.03779145 13.17315788 -0.02104767 6.58658295 0 0 Z " fill="#FEC6B5" transform="translate(218,32)"/>
<path d="M0 0 C9.2782358 1.15977947 12.87506143 3.36868677 18.703125 10.12109375 C21.31776164 13.90916671 22.25115258 17.40658531 22.22705078 21.97387695 C22.22689972 22.93449539 22.22674866 23.89511383 22.22659302 24.88484192 C22.21627045 25.9089769 22.20594788 26.93311188 22.1953125 27.98828125 C22.1924826 29.04661667 22.18965271 30.10495209 22.18673706 31.19535828 C22.1755629 34.56785498 22.15046307 37.94008387 22.125 41.3125 C22.11496664 43.6022097 22.10584141 45.89192357 22.09765625 48.18164062 C22.0756326 53.78785143 22.04218236 59.39390658 22 65 C20.99839844 65.12117188 19.99679687 65.24234375 18.96484375 65.3671875 C17.6223597 65.53617151 16.27991377 65.70545858 14.9375 65.875 C14.28072266 65.95363281 13.62394531 66.03226562 12.94726562 66.11328125 C12.29306641 66.19707031 11.63886719 66.28085938 10.96484375 66.3671875 C10.07720337 66.47716064 10.07720337 66.47716064 9.17163086 66.58935547 C6.06562573 67.1766855 3.03942334 68.13159333 0 69 C0 46.23 0 23.46 0 0 Z " fill="#FDC6B5" transform="translate(339,69)"/>
<path d="M0 0 C7.05541457 0.78641875 10.85816864 1.88014228 16 7 C19.79551928 11.97927034 22.08893328 16.41193998 22.20532227 22.74682617 C22.22526749 23.70759567 22.24521271 24.66836517 22.26576233 25.6582489 C22.28247482 26.69270645 22.29918732 27.727164 22.31640625 28.79296875 C22.33718735 29.85413406 22.35796844 30.91529938 22.37937927 32.00862122 C22.44481238 35.40151437 22.50373093 38.7944855 22.5625 42.1875 C22.60569114 44.48633622 22.64930562 46.78516453 22.69335938 49.08398438 C22.8004874 54.7225736 22.90226551 60.36124056 23 66 C18.55761235 68.33106183 14.97825049 68.70870927 10 68 C4.88237182 65.34641502 1.82294058 62.46882174 0 57 C-0.08840088 55.14405272 -0.11762704 53.28504883 -0.11352539 51.42700195 C-0.11344986 50.28604568 -0.11337433 49.14508942 -0.11329651 47.96955872 C-0.10813522 46.73823715 -0.10297394 45.50691559 -0.09765625 44.23828125 C-0.0962413 42.97735153 -0.09482635 41.71642181 -0.09336853 40.4172821 C-0.08871575 37.06848291 -0.07973342 33.71975189 -0.06866455 30.37097168 C-0.05842687 26.95239857 -0.05386586 23.53381841 -0.04882812 20.11523438 C-0.03779099 13.41013739 -0.02104686 6.70507263 0 0 Z " fill="#FBC4B3" transform="translate(279,48)"/>
<path d="M0 0 C0.99128906 0.32742187 1.98257812 0.65484375 3.00390625 0.9921875 C7.01822678 2.13913622 10.75860244 2.19896279 14.9375 2.125 C15.62134766 2.11597656 16.30519531 2.10695312 17.00976562 2.09765625 C18.67333287 2.07438958 20.33671631 2.03853167 22 2 C21.74140758 18.03273003 12.51796476 33.6774073 6 48 C5.3702124 48.02505615 4.7404248 48.0501123 4.09155273 48.07592773 C1.20670659 48.19278427 -1.67788395 48.31510021 -4.5625 48.4375 C-5.55314453 48.47681641 -6.54378906 48.51613281 -7.56445312 48.55664062 C-12.77598637 48.78172346 -17.85353238 49.14105239 -23 50 C-22.4030835 49.46802002 -21.80616699 48.93604004 -21.19116211 48.38793945 C-18.69595243 45.66864744 -17.44821359 43.15829521 -15.94140625 39.79296875 C-15.67037582 39.19051834 -15.3993454 38.58806793 -15.12010193 37.96736145 C-14.54851531 36.69091907 -13.98146519 35.4124367 -13.41870117 34.13208008 C-12.57958013 32.22629191 -11.72377303 30.32874609 -10.86523438 28.43164062 C-7.42048015 20.73271178 -4.52555506 12.97772228 -1.96069336 4.94262695 C-1 2 -1 2 0 0 Z " fill="#FDC5B4" transform="translate(337,245)"/>
<path d="M0 0 C0.02505615 1.1960083 0.0501123 2.3920166 0.07592773 3.62426758 C0.17003852 8.05797195 0.27025036 12.491521 0.37231445 16.92504883 C0.4156494 18.84460825 0.45732552 20.76420585 0.49731445 22.68383789 C0.55505178 25.44168614 0.61873635 28.19934241 0.68359375 30.95703125 C0.70030624 31.81649857 0.71701874 32.67596588 0.73423767 33.56147766 C0.75418289 34.36208115 0.77412811 35.16268463 0.79467773 35.98754883 C0.81799416 37.04344963 0.81799416 37.04344963 0.84178162 38.12068176 C0.94481604 40.22699083 0.94481604 40.22699083 2 43 C-2.55451637 45.66605836 -5.72769177 46.72721493 -11 46 C-15.18945814 44.19126715 -18.1340267 42.29596005 -20.69140625 38.46875 C-22.44319498 33.82520256 -22.56454178 29.55035485 -22.6875 24.625 C-22.72166016 23.69816406 -22.75582031 22.77132812 -22.79101562 21.81640625 C-22.87299552 19.54439188 -22.94230494 17.27273896 -23 15 C-23.99 15.66 -24.98 16.32 -26 17 C-22.96427844 9.84208811 -15.70408847 4.80269538 -8.7890625 1.67578125 C-5.84950213 0.56542329 -3.13318185 0 0 0 Z " fill="#FDC5B5" transform="translate(119,71)"/>
<path d="M0 0 C4.63887984 2.61464137 8.04312519 6.14875038 10.4375 10.9375 C10.47772391 13.2704866 10.48070247 15.60456666 10.4375 17.9375 C2.79461513 23.14116629 -5.62582881 22.88132191 -14.5625 21.9375 C-17.83171616 21.19204686 -21.11380943 20.38619057 -23.5625 17.9375 C-23.96229813 13.85955909 -23.84384034 11.47853911 -21.9375 7.8125 C-15.7597941 0.33422443 -9.80587143 -2.92455815 0 0 Z " fill="#FA7B78" transform="translate(199.5625,140.0625)"/>
<path d="M0 0 C0 22.44 0 44.88 0 68 C-5.05616056 63.95507156 -6.48227069 62.54780821 -7.37109375 56.45703125 C-7.53459286 49.94591965 -6.26092701 45.99320577 -3.12890625 40.3359375 C-1.27741315 36.50482028 -1.39467265 34.23729144 -2 30 C-3.12489961 26.88141671 -4.47941514 23.94346146 -6 21 C-8.72170482 15.55659035 -6.74002882 9.32156901 -4.94921875 3.8828125 C-3.89848682 1.79864463 -2.62967068 0 0 0 Z " fill="#F67977" transform="translate(339,160)"/>
<path d="M0 0 C4.52795226 1.89542188 6.71772108 4.69878203 9 9 C9.125 11.25 9.125 11.25 8 13 C1.97487462 16.08980789 -5.24336374 15.76045138 -11.625 14 C-12.40875 13.67 -13.1925 13.34 -14 13 C-14.34751969 10.08083462 -14.53280018 7.86804524 -12.95703125 5.30078125 C-8.79011674 0.25404901 -6.47851009 -0.43922102 0 0 Z " fill="#F47875" transform="translate(287,254)"/>
<path d="M0 0 C2.85834497 1.35175898 3.85208454 2.47619933 6 5 C6.875 8.8125 6.875 8.8125 7 12 C3.03869906 13.86240268 -0.13734227 14.27038625 -4.5 14.25 C-5.6034375 14.25515625 -6.706875 14.2603125 -7.84375 14.265625 C-10.96392334 14.00303615 -13.18304814 13.32438782 -16 12 C-15.82642417 7.57381642 -15.40909257 5.48068377 -12.5 2.0625 C-8.5903286 -0.76637282 -4.63967806 -1.01907215 0 0 Z " fill="#F87A77" transform="translate(201,456)"/>
<path d="M0 0 C2.875 1.625 2.875 1.625 5 4 C5.625 6.9375 5.625 6.9375 5 10 C2.9375 12.9375 2.9375 12.9375 0 15 C-3.85210127 15.06641554 -5.99848005 14.87229157 -8.9375 12.3125 C-10.33817538 9.26397123 -10.4842732 7.32073048 -10 4 C-7.20900702 -0.07914358 -4.82277608 -0.78739201 0 0 Z " fill="#0A0808" transform="translate(199,358)"/>
<path d="M0 0 C3.72206393 1.34627844 5.01947413 2.61005343 6.9375 6.0625 C6.873818 9.24659977 6.44790601 11.21182332 4.8125 13.9375 C1.76917192 15.76349685 -0.60499555 15.48710581 -4.0625 15.0625 C-6.5 13.5 -6.5 13.5 -8.0625 11.0625 C-8.625 7.5625 -8.625 7.5625 -8.0625 4.0625 C-5.43176963 0.9675231 -4.07891993 0.08324326 0 0 Z " fill="#0A0908" transform="translate(208.0625,208.9375)"/>
<path d="M0 0 C2.4375 1.625 2.4375 1.625 4 4 C4.60605429 7.63632575 4.47161336 9.28314769 2.4375 12.375 C-0.93510779 14.62340519 -3.02512383 14.56783945 -7 14 C-9.4375 12.375 -9.4375 12.375 -11 10 C-11.60605429 6.36367425 -11.47161336 4.71685231 -9.4375 1.625 C-6.06489221 -0.62340519 -3.97487617 -0.56783945 0 0 Z " fill="#070606" transform="translate(213,332)"/>
<path d="M0 0 C2.375 1.5625 2.375 1.5625 4 4 C4.56783945 7.97487617 4.62340519 10.06489221 2.375 13.4375 C-0.71685231 15.47161336 -2.36367425 15.60605429 -6 15 C-8.375 13.4375 -8.375 13.4375 -10 11 C-10.56783945 7.02512383 -10.62340519 4.93510779 -8.375 1.5625 C-5.28314769 -0.47161336 -3.63632575 -0.60605429 0 0 Z " fill="#070606" transform="translate(237,226)"/>
<path d="M0 0 C2.4375 1.5625 2.4375 1.5625 4 4 C4.5625 7.5 4.5625 7.5 4 11 C1.875 13.5 1.875 13.5 -1 15 C-4.15548924 14.93689022 -6.13769198 14.48864121 -8.875 12.9375 C-10.71730752 9.76463704 -10.52772961 6.56774951 -10 3 C-7.83165681 -1.08158719 -4.19361486 -0.51500533 0 0 Z " fill="#070606" transform="translate(242,195)"/>
<path d="M0 0 C1.875 1.125 1.875 1.125 3 3 C3.49573337 6.89504791 3.58016848 9.09493717 1.4375 12.4375 C-1.90506283 14.58016848 -4.10495209 14.49573337 -8 14 C-9.9375 13 -9.9375 13 -11 11 C-11.39302445 7.90493248 -11.62908496 5.95551234 -11 3 C-7.56705737 -1.13972494 -5.05326616 -1.64780418 0 0 Z " fill="#070606" transform="translate(291,144)"/>
<path d="M0 0 C2.375 1.5625 2.375 1.5625 4 4 C4.56783945 7.97487617 4.62340519 10.06489221 2.375 13.4375 C-0.71685231 15.47161336 -2.36367425 15.60605429 -6 15 C-8.375 13.4375 -8.375 13.4375 -10 11 C-10.56783945 7.02512383 -10.62340519 4.93510779 -8.375 1.5625 C-5.28314769 -0.47161336 -3.63632575 -0.60605429 0 0 Z " fill="#070606" transform="translate(116,139)"/>
<path d="M0 0 C2.4375 1.625 2.4375 1.625 4 4 C4.60605429 7.63632575 4.47161336 9.28314769 2.4375 12.375 C-0.93510779 14.62340519 -3.02512383 14.56783945 -7 14 C-9.4375 12.375 -9.4375 12.375 -11 10 C-11.60605429 6.36367425 -11.47161336 4.71685231 -9.4375 1.625 C-6.06489221 -0.62340519 -3.97487617 -0.56783945 0 0 Z " fill="#070606" transform="translate(272,123)"/>
<path d="M0 0 C2.5 2.125 2.5 2.125 4 5 C3.93689022 8.15548924 3.48864121 10.13769198 1.9375 12.875 C-1.23572732 14.71751909 -4.43758579 14.66053097 -8 14 C-10.6923481 11.81246717 -10.93936827 10.41576045 -11.4375 7 C-11 4 -11 4 -9.4375 1.625 C-6.04129157 -0.63913895 -3.99900698 -0.64269755 0 0 Z " fill="#070605" transform="translate(138,163)"/>
</svg>
