<?xml version="1.0" encoding="UTF-8"?>
<svg version="1.1" xmlns="http://www.w3.org/2000/svg" width="512" height="512">
<path d="M0 0 C0.77583939 -0.00807175 1.55167877 -0.01614349 2.35102844 -0.02445984 C3.99433164 -0.03828505 5.63766336 -0.0490142 7.28100586 -0.05688477 C8.95199061 -0.06837977 10.62293935 -0.08879231 12.29370117 -0.1184082 C14.71688616 -0.16134951 17.13898042 -0.17729172 19.5625 -0.1875 C20.66763191 -0.21376213 20.66763191 -0.21376213 21.79508972 -0.24055481 C28.16951449 -0.21430588 33.29480488 1.80612114 38.13671875 5.984375 C38.80574219 6.82162109 38.80574219 6.82162109 39.48828125 7.67578125 C40.18050781 8.50916016 40.18050781 8.50916016 40.88671875 9.359375 C43.51644438 13.38771268 44.39529426 17.28145218 44.82421875 22.02734375 C44.93507812 23.13464844 45.0459375 24.24195313 45.16015625 25.3828125 C45.37664793 27.67917065 45.58770376 29.97604862 45.79296875 32.2734375 C46.68898315 41.0808518 48.09238912 52.04337643 55.11328125 58.23828125 C58.00401078 59.56736292 58.00401078 59.56736292 61.11328125 59.23828125 C68.4400979 54.00484079 70.65491083 44.69104578 72.11328125 36.23828125 C72.56920805 31.82524595 72.84013231 27.39744902 73.06054688 22.96679688 C73.63553171 15.18457645 76.23000354 9.57369971 82.11328125 4.36328125 C87.41292011 0.60937039 91.78739927 -0.07829342 98.1953125 -0.09765625 C98.96832199 -0.10431305 99.74133148 -0.11096985 100.5377655 -0.11782837 C102.16911451 -0.12792425 103.80050455 -0.13264634 105.43188477 -0.13232422 C107.90776904 -0.13668701 110.38185376 -0.1730072 112.85742188 -0.2109375 C114.44921272 -0.21680872 116.04101194 -0.22077607 117.6328125 -0.22265625 C118.72853325 -0.2442128 118.72853325 -0.2442128 119.84638977 -0.26620483 C126.19032423 -0.21075649 131.53983436 1.73935502 136.13671875 6.203125 C136.58273437 6.85410156 137.02875 7.50507812 137.48828125 8.17578125 C138.18050781 9.14837891 138.18050781 9.14837891 138.88671875 10.140625 C144.87580718 20.38311062 142.48269893 33.13260092 139.68212891 44.13769531 C136.22059665 56.92010885 131.4014672 69.1515273 126.35995483 81.37469482 C116.90810909 104.28080455 116.90810909 104.28080455 112.91918945 128.64770508 C112.57786102 133.65041869 111.47360171 137.11164299 108.85766602 141.41186523 C107.85854425 143.86330175 108.20636481 144.75189432 109.11328125 147.23828125 C109.87330444 148.80461304 109.87330444 148.80461304 110.64868164 150.40258789 C112.55751212 154.77324602 112.56343294 158.89632776 112.546875 163.609375 C112.55211685 164.49053482 112.5573587 165.37169464 112.5627594 166.27955627 C112.56915353 168.13435823 112.56787658 169.98920087 112.55932617 171.84399414 C112.55081584 174.66431668 112.57961373 177.4826114 112.61132812 180.30273438 C112.61294053 182.11328065 112.61236186 183.92383047 112.609375 185.734375 C112.62060898 186.56795029 112.63184296 187.40152557 112.64341736 188.26036072 C112.58190712 193.49051384 111.64085936 196.96739487 108.8731842 201.43177795 C107.88978574 203.769593 108.27432247 204.88742313 109.11328125 207.23828125 C109.76468921 208.67190197 110.45297395 210.08929937 111.17578125 211.48828125 C111.53800781 212.1946875 111.90023437 212.90109375 112.2734375 213.62890625 C112.55058594 214.16 112.82773437 214.69109375 113.11328125 215.23828125 C113.45472168 214.3975708 113.79616211 213.55686035 114.14794922 212.69067383 C131.22856084 170.9962428 131.22856084 170.9962428 154.56640625 160.26953125 C163.2538524 156.75191502 171.36600993 155.95042768 180.67578125 155.86328125 C181.63315186 155.84934326 182.59052246 155.83540527 183.5769043 155.82104492 C199.11863331 155.9234594 213.79905903 162.10506031 224.9375 172.93359375 C238.66659002 187.4760769 243.73777913 204.53043257 243.59372711 224.22406578 C243.37074928 231.3185559 242.42913865 238.01981963 240.97070312 244.95947266 C240.74886101 246.03848154 240.52701889 247.11749043 240.29845428 248.22919655 C237.88540287 259.71792005 234.93950203 271.05216613 231.89453125 282.38671875 C231.30790803 284.58897406 230.72169476 286.79133861 230.13586426 288.99380493 C228.92078002 293.55456235 227.70001182 298.11374824 226.47509766 302.671875 C224.91327987 308.48601977 223.36747987 314.30428985 221.82596588 320.12384605 C220.62484719 324.65032506 219.41468466 329.17434904 218.20188904 333.69771194 C217.62809274 335.84254827 217.0571965 337.98816282 216.48939514 340.13459396 C211.26993159 359.83301425 205.62937819 378.70766841 187.36328125 389.98828125 C173.92873968 397.35080711 157.88679765 398.7880343 143.05078125 394.67578125 C129.56200432 389.75817836 120.53920087 381.23399756 113.11328125 369.23828125 C113.00371094 369.82996094 112.89414062 370.42164063 112.78125 371.03125 C111.83301104 375.75702628 110.60374688 379.0875052 108.11328125 383.23828125 C108.29632416 385.98392489 109.39886619 387.80794492 110.64086914 390.28540039 C112.5282467 394.70861343 112.56358028 398.85438636 112.546875 403.609375 C112.55211685 404.49053482 112.5573587 405.37169464 112.5627594 406.27955627 C112.56915353 408.13435823 112.56787658 409.98920087 112.55932617 411.84399414 C112.55081584 414.66431668 112.57961373 417.4826114 112.61132812 420.30273438 C112.61294053 422.11328065 112.61236186 423.92383047 112.609375 425.734375 C112.62622597 426.98473793 112.62622597 426.98473793 112.64341736 428.26036072 C112.58190712 433.49051384 111.64085936 436.96739487 108.8731842 441.43177795 C107.88097392 443.79054119 108.25162587 444.86469715 109.11328125 447.23828125 C109.61923828 448.28395264 110.12519531 449.32962402 110.64648438 450.40698242 C112.54457322 454.75335483 112.5808925 458.85030634 112.58203125 463.5390625 C112.58964478 464.41547897 112.5972583 465.29189545 112.60510254 466.19487 C112.61586047 468.04126147 112.61877425 469.88771357 112.61425781 471.73413086 C112.61328749 474.5327916 112.65491515 477.32868874 112.69921875 480.12695312 C112.822553 498.258607 112.822553 498.258607 107.11328125 505.23828125 C101.1066412 510.76965078 96.58888883 512.39986659 88.42578125 512.30078125 C87.72388672 512.29626953 87.02199219 512.29175781 86.29882812 512.28710938 C84.57027587 512.27535052 82.8417676 512.25741579 81.11328125 512.23828125 C81.11328125 509.92828125 81.11328125 507.61828125 81.11328125 505.23828125 C76.49328125 505.23828125 71.87328125 505.23828125 67.11328125 505.23828125 C67.11328125 507.54828125 67.11328125 509.85828125 67.11328125 512.23828125 C61.83328125 512.23828125 56.55328125 512.23828125 51.11328125 512.23828125 C51.11328125 509.92828125 51.11328125 507.61828125 51.11328125 505.23828125 C46.49328125 505.23828125 41.87328125 505.23828125 37.11328125 505.23828125 C37.11328125 507.54828125 37.11328125 509.85828125 37.11328125 512.23828125 C19.75810983 513.05180491 19.75810983 513.05180491 14.11328125 508.23828125 C7.70864812 501.34430537 5.80165489 495.30265819 5.77734375 486.0625 C5.76735855 484.73651543 5.76735855 484.73651543 5.75717163 483.38374329 C5.74706816 481.51699903 5.7423539 479.65021883 5.74267578 477.78344727 C5.73831159 474.94551185 5.7019932 472.10914403 5.6640625 469.27148438 C5.65819183 467.45182819 5.65422411 465.63216468 5.65234375 463.8125 C5.6307872 462.55272591 5.6307872 462.55272591 5.60879517 461.26750183 C5.64902144 456.01073096 6.56599848 452.52805387 9.35214233 448.04231262 C10.34672726 445.68497368 9.9750471 444.61125809 9.11328125 442.23828125 C8.60659912 441.19406006 8.09991699 440.14983887 7.57788086 439.07397461 C5.66905038 434.70331648 5.66312956 430.58023474 5.6796875 425.8671875 C5.67444565 424.98602768 5.6692038 424.10486786 5.6638031 423.19700623 C5.65740897 421.34220427 5.65868592 419.48736163 5.66723633 417.63256836 C5.67574666 414.81224582 5.64694877 411.9939511 5.61523438 409.17382812 C5.61362197 407.36328185 5.61420064 405.55273203 5.6171875 403.7421875 C5.60033653 402.49182457 5.60033653 402.49182457 5.58314514 401.21620178 C5.64465538 395.98604866 6.58570314 392.50916763 9.3533783 388.04478455 C10.34638524 385.68412744 9.96859392 384.61672086 9.11328125 382.23828125 C8.61828125 381.12453125 8.12328125 380.01078125 7.61328125 378.86328125 C6.24012165 375.54481221 5.62946846 372.76225162 5.11328125 369.23828125 C4.64019531 369.93953125 4.16710937 370.64078125 3.6796875 371.36328125 C-4.86299342 383.61944725 -14.80276574 392.38326171 -29.71118164 395.85888672 C-45.17654526 398.55591007 -60.39374496 396.04333671 -73.38671875 387.1484375 C-90.85099969 373.80463534 -94.40595328 353.49034622 -99.75 333.33984375 C-100.1910314 331.68592365 -100.63229478 330.0320654 -101.07377625 328.37826538 C-101.98763205 324.95196864 -102.8991493 321.52506168 -103.80883789 318.09765625 C-104.97602046 313.70063414 -106.14857812 309.3050663 -107.32275105 304.90990639 C-108.22965104 301.51333057 -109.13410616 298.11610765 -110.03777122 294.71866989 C-110.46969766 293.09572606 -110.90231226 291.47296521 -111.3356266 289.85039139 C-111.93623971 287.59963278 -112.53363742 285.34804579 -113.13012695 283.09619141 C-113.3092865 282.42721329 -113.48844604 281.75823517 -113.67303467 281.06898499 C-114.88671875 276.46700306 -114.88671875 276.46700306 -114.88671875 274.23828125 C-112.57671875 273.90828125 -110.26671875 273.57828125 -107.88671875 273.23828125 C-109.20671875 268.94828125 -110.52671875 264.65828125 -111.88671875 260.23828125 C-114.19671875 260.56828125 -116.50671875 260.89828125 -118.88671875 261.23828125 C-119.70455153 257.88539213 -120.51501089 254.53076148 -121.32421875 251.17578125 C-121.55431641 250.23283203 -121.78441406 249.28988281 -122.02148438 248.31835938 C-127.17605846 226.87831935 -127.27133606 203.64889632 -115.8671875 184.171875 C-106.43201709 170.19591252 -93.05823759 160.05564215 -76.36767578 156.61108398 C-71.77793928 155.92140404 -67.2077414 155.89896023 -62.57421875 155.92578125 C-61.04800903 155.93424072 -61.04800903 155.93424072 -59.4909668 155.94287109 C-42.47045298 156.21812078 -28.09484554 162.17813176 -15.88671875 174.23828125 C-5.56751209 185.5538251 -0.56281088 201.24245745 5.11328125 215.23828125 C5.98245012 213.83076904 6.83313274 212.41182915 7.67578125 210.98828125 C8.15144531 210.199375 8.62710938 209.41046875 9.1171875 208.59765625 C10.31377835 205.76337831 10.22135903 205.06259112 9.11328125 202.23828125 C8.35325806 200.67194946 8.35325806 200.67194946 7.57788086 199.07397461 C5.66905038 194.70331648 5.66312956 190.58023474 5.6796875 185.8671875 C5.67444565 184.98602768 5.6692038 184.10486786 5.6638031 183.19700623 C5.65740897 181.34220427 5.65868592 179.48736163 5.66723633 177.63256836 C5.67574666 174.81224582 5.64694877 171.9939511 5.61523438 169.17382812 C5.61362197 167.36328185 5.61420064 165.55273203 5.6171875 163.7421875 C5.60595352 162.90861221 5.59471954 162.07503693 5.58314514 161.21620178 C5.64465538 155.98604866 6.58570314 152.50916763 9.3533783 148.04478455 C10.34562529 145.68593405 9.97259659 144.61275792 9.11328125 142.23828125 C8.36498047 140.65080078 8.36498047 140.65080078 7.6015625 139.03125 C5.79386656 134.90891493 5.57804619 130.99909552 5.30078125 126.55078125 C3.56956578 107.45773758 -4.07473852 90.30140131 -11.41674805 72.78564453 C-28.27542274 32.38441316 -28.27542274 32.38441316 -23.046875 14.33984375 C-20.36655741 8.32943461 -16.59722377 4.47582698 -10.88671875 1.23828125 C-7.2258605 0.01799517 -3.81505941 0.03773263 0 0 Z " fill="#020102" transform="translate(196.88671875,-0.23828125)"/>
<path d="M0 0 C12.19227768 8.85717034 16.86561048 24.60588173 22.49951172 37.98242188 C27.87126912 50.58777813 33.6836022 63.78346715 43 74 C43.49242187 74.60585937 43.98484375 75.21171875 44.4921875 75.8359375 C52.59555152 85.06812835 65.99904015 89.9936843 78 91 C98.15086232 92.02232157 120.27385435 92.67480002 136.4375 78.6875 C143.80523058 71.76789615 149.11150413 63.62862 153.6875 54.6875 C154.19297363 53.71417725 154.69844727 52.74085449 155.21923828 51.73803711 C159.90865656 42.53076464 163.95105383 33.07038557 167.81518555 23.49291992 C170.51170744 16.93344292 173.35667845 11.37862058 178 6 C178.5377002 5.36674805 179.07540039 4.73349609 179.62939453 4.08105469 C187.6917924 -5.11581706 199.15168308 -8.35198744 210.93359375 -9.21484375 C224.47375566 -9.65503107 237.14396949 -5.6495355 247.25 3.5625 C259.41190141 16.62528299 260.66527998 31.3719226 260.37890625 48.3046875 C259.79067355 62.94092921 255.42036704 77.04620024 251.30224609 91.01660156 C249.35241013 97.63685939 247.64006574 104.29677344 246 111 C243.93783372 119.41183881 241.68837217 127.74035233 239.25219727 136.05102539 C237.29198815 142.80399375 235.59705092 149.60521232 233.9375 156.4375 C226.50231266 186.57234057 226.50231266 186.57234057 213.28515625 195.71484375 C203.39016323 201.27972017 192.79611342 202.7100285 181.8125 199.875 C167.84083481 195.03865436 161.1346458 183.53737074 153.37353516 171.70703125 C152.2472288 169.99578961 151.10628894 168.29491885 149.96484375 166.59375 C146.38806344 161.19288615 143.22666756 156.09035566 141.53710938 149.78637695 C140.22109193 145.40942256 137.26369955 143.00982815 133.5 140.75 C128.51388548 138.25694274 124.85639074 137.86477848 119.27880859 137.79125977 C118.61153748 137.78147598 117.94426636 137.7716922 117.2567749 137.76161194 C115.05401569 137.73176417 112.85131696 137.71029778 110.6484375 137.69140625 C109.89230793 137.68483442 109.13617836 137.6782626 108.35713577 137.67149162 C104.35155355 137.63893843 100.3459974 137.61448233 96.34033203 137.5949707 C93.04045475 137.57719539 89.74143812 137.54243216 86.44189453 137.49243164 C82.44306318 137.43192026 78.44502614 137.40145323 74.44575882 137.39179802 C72.92999644 137.38329209 71.41425249 137.36459518 69.89875412 137.3350544 C60.68558744 137.16519188 53.22062332 137.67618001 46 144 C43.11457975 147.49746729 41.31128837 150.54543436 40.35546875 155.01171875 C38.72729563 160.94608541 34.7411899 165.8602705 31.3125 170.875 C30.61705078 171.91269531 29.92160156 172.95039063 29.20507812 174.01953125 C12.95954876 198.07686978 12.95954876 198.07686978 -2 201 C-13.55220706 202.06870638 -23.67938801 200.08053213 -33 193 C-45.35380333 181.56741718 -47.87477142 164.72247749 -51.72045898 149.06152344 C-53.15790109 143.24332684 -54.68419467 137.48050951 -56.4375 131.75 C-58.8078953 123.95887973 -60.82249934 116.08342211 -62.8125 108.1875 C-63.12695068 106.95161133 -63.44140137 105.71572266 -63.76538086 104.44238281 C-64.05550049 103.27932617 -64.34562012 102.11626953 -64.64453125 100.91796875 C-65.03668823 99.35212036 -65.03668823 99.35212036 -65.43676758 97.75463867 C-66 95 -66 95 -66 91 C-70.455 91.99 -70.455 91.99 -75 93 C-75.50636607 91.25183142 -76.00484619 89.50137737 -76.5 87.75 C-76.7784375 86.77546875 -77.056875 85.8009375 -77.34375 84.796875 C-78 82 -78 82 -78 78 C-74.535 77.505 -74.535 77.505 -71 77 C-71.27714844 75.91460937 -71.55429688 74.82921875 -71.83984375 73.7109375 C-72.2058563 72.26565719 -72.5717346 70.82034288 -72.9375 69.375 C-73.11990234 68.66214844 -73.30230469 67.94929688 -73.49023438 67.21484375 C-73.66748047 66.51230469 -73.84472656 65.80976563 -74.02734375 65.0859375 C-74.18968506 64.4470459 -74.35202637 63.8081543 -74.51928711 63.14990234 C-76.04389562 56.33136374 -76.21715428 49.77168749 -76.25 42.8125 C-76.270625 41.73935547 -76.29125 40.66621094 -76.3125 39.56054688 C-76.37804374 26.01757178 -72.62265038 13.64279911 -63.1875 3.625 C-59.1674378 -0.10573954 -54.97240413 -2.72064346 -50 -5 C-48.76830078 -5.58974609 -48.76830078 -5.58974609 -47.51171875 -6.19140625 C-31.42348964 -13.03188292 -14.31421635 -8.69257218 0 0 Z " fill="#EE5474" transform="translate(164,180)"/>
<path d="M0 0 C1.27552734 -0.02384766 2.55105469 -0.04769531 3.86523438 -0.07226562 C12.91943316 -0.058022 12.91943316 -0.058022 17.34375 2.34375 C19.97099495 7.26386327 20.19614652 12.12305509 20.625 17.625 C21.98675264 31.29231087 24.13534055 45.76526513 35 55.5 C41.12177774 59.6228299 46.70249639 61.856973 54.0625 60.5625 C62.85493537 57.29258602 68.32127847 51.00673317 72.19140625 42.65625 C75.59015522 34.48705965 77.91682624 26.16017752 78.265625 17.2890625 C78.29640137 16.53173828 78.32717773 15.77441406 78.35888672 14.99414062 C78.410479 13.48033976 78.44396071 11.96579097 78.45751953 10.45117188 C78.55891248 7.17355103 78.71775685 5.027579 80.69775391 2.35644531 C83.77905246 0.01890848 85.59638618 0.07354522 89.4375 0.1015625 C90.66984375 0.10542969 91.9021875 0.10929688 93.171875 0.11328125 C94.45578125 0.13777344 95.7396875 0.16226562 97.0625 0.1875 C98.34640625 0.18878906 99.6303125 0.19007812 100.953125 0.19140625 C111.64020606 0.29201685 111.64020606 0.29201685 115.0625 2.5625 C118.8419286 10.12135721 116.21732375 21.61731539 113.75 29.3125 C108.82289035 44.01996847 102.81537777 58.41055077 96.9375 72.7578125 C91.50286671 86.13700479 87.77815814 99.19879264 87.3359375 113.70703125 C87.06008833 116.58768468 86.72328448 118.20884047 85.0625 120.5625 C81.64352007 122.78264992 78.72480194 122.82599829 74.70507812 122.85302734 C72.77287415 122.8721669 72.77287415 122.8721669 70.80163574 122.89169312 C69.39900869 122.89475019 67.99637962 122.89697826 66.59375 122.8984375 C65.15173205 122.90486634 63.70971541 122.91159477 62.2677002 122.91860962 C59.24826024 122.93057272 56.22893463 122.9342913 53.20947266 122.93310547 C49.34221958 122.93290199 45.47569899 122.96023738 41.60861969 122.99464989 C38.63174068 123.01689289 35.65503894 123.02094388 32.67808533 123.01988602 C31.25232919 123.02224463 29.82656835 123.03108293 28.40089417 123.04655075 C26.40733309 123.06616014 24.41355665 123.05786318 22.41992188 123.04833984 C20.71926575 123.0526149 20.71926575 123.0526149 18.98425293 123.05697632 C15.41925373 122.45363725 14.28127019 121.35352943 12.0625 118.5625 C10.70304322 115.84358645 10.87221455 113.5413963 10.75 110.5 C9.62370586 94.20186133 4.13197861 79.60348199 -1.9375 64.5625 C-2.35402832 63.52899414 -2.77055664 62.49548828 -3.19970703 61.43066406 C-3.63009277 60.36299805 -4.06047852 59.29533203 -4.50390625 58.1953125 C-5.37796369 56.0261865 -6.25166228 53.85691587 -7.125 51.6875 C-7.76417358 50.10038208 -7.76417358 50.10038208 -8.41625977 48.48120117 C-17.98026891 24.5833415 -17.98026891 24.5833415 -18.25 11.4375 C-18.28738281 10.23867188 -18.32476562 9.03984375 -18.36328125 7.8046875 C-17.08777854 -1.90785608 -7.59752642 -0.06506698 0 0 Z " fill="#FDFDFD" transform="translate(206.9375,14.4375)"/>
<path d="M0 0 C1.28813599 -0.00615326 2.57627197 -0.01230652 3.90344238 -0.01864624 C5.30607822 -0.00484941 6.70870698 0.00968464 8.11132812 0.02490234 C9.55334305 0.02728785 10.99536112 0.02819186 12.43737793 0.02767944 C15.45698556 0.03080483 18.4761175 0.04734882 21.49560547 0.07421875 C25.36268665 0.10819852 29.22924545 0.11584715 33.09645844 0.11432838 C36.07335378 0.11487272 39.05013534 0.12585 42.0269928 0.14033127 C43.45271443 0.14668746 44.87844893 0.1506354 46.30418396 0.15211868 C48.29788864 0.15646403 50.29154463 0.17556467 52.28515625 0.1953125 C53.418927 0.2029361 54.55269775 0.21055969 55.7208252 0.21841431 C58.59122976 0.48113997 60.25858573 0.90118659 62.64257812 2.48583984 C64.24129382 5.68327123 63.82679494 9.156431 63.84570312 12.66943359 C63.8514032 13.48074234 63.85710327 14.29205109 63.86297607 15.12794495 C63.87242798 16.84529311 63.87896082 18.56265944 63.8828125 20.2800293 C63.892527 22.90950034 63.9235513 25.53819267 63.95507812 28.16748047 C63.9616073 29.83479353 63.96685811 31.50211218 63.97070312 33.16943359 C63.98304993 33.95700546 63.99539673 34.74457733 64.00811768 35.55601501 C63.98584356 41.00439146 63.98584356 41.00439146 62.24707031 43.44311523 C59.14757377 45.45741069 57.19551115 45.59549283 53.51757812 45.54833984 C52.6075 45.53931641 51.69742188 45.53029297 50.75976562 45.52099609 C50.06109375 45.50939453 49.36242187 45.49779297 48.64257812 45.48583984 C48.64257812 48.12583984 48.64257812 50.76583984 48.64257812 53.48583984 C44.02257812 53.48583984 39.40257812 53.48583984 34.64257812 53.48583984 C34.64257812 55.79583984 34.64257812 58.10583984 34.64257812 60.48583984 C29.36257813 60.48583984 24.08257812 60.48583984 18.64257812 60.48583984 C18.64257812 58.17583984 18.64257812 55.86583984 18.64257812 53.48583984 C14.02257812 53.48583984 9.40257812 53.48583984 4.64257812 53.48583984 C4.64257812 50.84583984 4.64257812 48.20583984 4.64257812 45.48583984 C3.89492187 45.53224609 3.14726562 45.57865234 2.37695312 45.62646484 C0.8996875 45.68060547 0.8996875 45.68060547 -0.60742188 45.73583984 C-1.58195313 45.78224609 -2.55648437 45.82865234 -3.56054688 45.87646484 C-6.35742188 45.48583984 -6.35742188 45.48583984 -8.49902344 43.98291016 C-11.0897105 40.50188712 -10.93221295 37.31575144 -10.88867188 33.14208984 C-10.89249878 32.33598267 -10.89632568 31.52987549 -10.90026855 30.69934082 C-10.90298577 28.99811552 -10.89563777 27.29684831 -10.87890625 25.59570312 C-10.85749177 22.99433088 -10.87871206 20.39572012 -10.90429688 17.79443359 C-10.90165356 16.13947959 -10.89652851 14.48452731 -10.88867188 12.82958984 C-10.8967688 12.05345337 -10.90486572 11.27731689 -10.91320801 10.47766113 C-10.85571205 7.15997882 -10.72738454 4.98507813 -8.72241211 2.2795105 C-5.64174553 -0.05694787 -3.84413088 -0.00966325 0 0 Z " fill="#FEFEFE" transform="translate(229.357421875,451.51416015625)"/>
<path d="M0 0 C1.28813599 -0.00615326 2.57627197 -0.01230652 3.90344238 -0.01864624 C5.30607822 -0.00484941 6.70870698 0.00968464 8.11132812 0.02490234 C9.55334305 0.02728785 10.99536112 0.02819186 12.43737793 0.02767944 C15.45698556 0.03080483 18.4761175 0.04734882 21.49560547 0.07421875 C25.36268665 0.10819852 29.22924545 0.11584715 33.09645844 0.11432838 C36.07335378 0.11487272 39.05013534 0.12585 42.0269928 0.14033127 C43.45271443 0.14668746 44.87844893 0.1506354 46.30418396 0.15211868 C48.29788864 0.15646403 50.29154463 0.17556467 52.28515625 0.1953125 C53.418927 0.2029361 54.55269775 0.21055969 55.7208252 0.21841431 C58.59122976 0.48113997 60.25858573 0.90118659 62.64257812 2.48583984 C64.24129382 5.68327123 63.82679494 9.156431 63.84570312 12.66943359 C63.8514032 13.48074234 63.85710327 14.29205109 63.86297607 15.12794495 C63.87242798 16.84529311 63.87896082 18.56265944 63.8828125 20.2800293 C63.892527 22.90950034 63.9235513 25.53819267 63.95507812 28.16748047 C63.9616073 29.83479353 63.96685811 31.50211218 63.97070312 33.16943359 C63.98304993 33.95700546 63.99539673 34.74457733 64.00811768 35.55601501 C63.98584356 41.00439146 63.98584356 41.00439146 62.24707031 43.44311523 C58.86686618 45.63983645 56.5416033 45.62799221 52.51220703 45.6628418 C50.57977646 45.68209465 50.57977646 45.68209465 48.60830688 45.70173645 C47.19525536 45.70990315 45.78219951 45.71734702 44.36914062 45.72412109 C43.65885082 45.72819662 42.94856102 45.73227215 42.21674728 45.73647118 C38.45797771 45.75732954 34.69924462 45.77163278 30.94042969 45.78100586 C27.05746897 45.79207595 23.17508046 45.8264825 19.29232216 45.86617756 C16.30688406 45.89231602 13.32158296 45.90069512 10.3360405 45.90428734 C8.90468858 45.90915978 7.47334304 45.92079263 6.04210281 45.93932533 C4.03878817 45.96365518 2.03519555 45.96033804 0.03173828 45.95581055 C-1.10806488 45.96167679 -2.24786804 45.96754303 -3.42221069 45.97358704 C-7.02977372 45.37411442 -8.2021503 44.39906731 -10.35742188 41.48583984 C-10.75523617 38.57504012 -10.91901188 36.05035244 -10.88867188 33.14208984 C-10.89249878 32.33598267 -10.89632568 31.52987549 -10.90026855 30.69934082 C-10.90298577 28.99811552 -10.89563777 27.29684831 -10.87890625 25.59570312 C-10.85749177 22.99433088 -10.87871206 20.39572012 -10.90429688 17.79443359 C-10.90165356 16.13947959 -10.89652851 14.48452731 -10.88867188 12.82958984 C-10.8967688 12.05345337 -10.90486572 11.27731689 -10.91320801 10.47766113 C-10.85571205 7.15997882 -10.72738454 4.98507813 -8.72241211 2.2795105 C-5.64174553 -0.05694787 -3.84413088 -0.00966325 0 0 Z " fill="#FEFEFE" transform="translate(229.357421875,391.51416015625)"/>
<path d="M0 0 C1.28813599 -0.00615326 2.57627197 -0.01230652 3.90344238 -0.01864624 C5.30607822 -0.00484941 6.70870698 0.00968464 8.11132812 0.02490234 C9.55334305 0.02728785 10.99536112 0.02819186 12.43737793 0.02767944 C15.45698556 0.03080483 18.4761175 0.04734882 21.49560547 0.07421875 C25.36268665 0.10819852 29.22924545 0.11584715 33.09645844 0.11432838 C36.07335378 0.11487272 39.05013534 0.12585 42.0269928 0.14033127 C43.45271443 0.14668746 44.87844893 0.1506354 46.30418396 0.15211868 C48.29788864 0.15646403 50.29154463 0.17556467 52.28515625 0.1953125 C53.418927 0.2029361 54.55269775 0.21055969 55.7208252 0.21841431 C58.59122976 0.48113997 60.25858573 0.90118659 62.64257812 2.48583984 C64.24129382 5.68327123 63.82679494 9.156431 63.84570312 12.66943359 C63.8514032 13.48074234 63.85710327 14.29205109 63.86297607 15.12794495 C63.87242798 16.84529311 63.87896082 18.56265944 63.8828125 20.2800293 C63.892527 22.90950034 63.9235513 25.53819267 63.95507812 28.16748047 C63.9616073 29.83479353 63.96685811 31.50211218 63.97070312 33.16943359 C63.98304993 33.95700546 63.99539673 34.74457733 64.00811768 35.55601501 C63.98584356 41.00439146 63.98584356 41.00439146 62.24707031 43.44311523 C58.86686618 45.63983645 56.5416033 45.62799221 52.51220703 45.6628418 C50.57977646 45.68209465 50.57977646 45.68209465 48.60830688 45.70173645 C47.19525536 45.70990315 45.78219951 45.71734702 44.36914062 45.72412109 C43.65885082 45.72819662 42.94856102 45.73227215 42.21674728 45.73647118 C38.45797771 45.75732954 34.69924462 45.77163278 30.94042969 45.78100586 C27.05746897 45.79207595 23.17508046 45.8264825 19.29232216 45.86617756 C16.30688406 45.89231602 13.32158296 45.90069512 10.3360405 45.90428734 C8.90468858 45.90915978 7.47334304 45.92079263 6.04210281 45.93932533 C4.03878817 45.96365518 2.03519555 45.96033804 0.03173828 45.95581055 C-1.10806488 45.96167679 -2.24786804 45.96754303 -3.42221069 45.97358704 C-7.02977372 45.37411442 -8.2021503 44.39906731 -10.35742188 41.48583984 C-10.75523617 38.57504012 -10.91901188 36.05035244 -10.88867188 33.14208984 C-10.89249878 32.33598267 -10.89632568 31.52987549 -10.90026855 30.69934082 C-10.90298577 28.99811552 -10.89563777 27.29684831 -10.87890625 25.59570312 C-10.85749177 22.99433088 -10.87871206 20.39572012 -10.90429688 17.79443359 C-10.90165356 16.13947959 -10.89652851 14.48452731 -10.88867188 12.82958984 C-10.8967688 12.05345337 -10.90486572 11.27731689 -10.91320801 10.47766113 C-10.85571205 7.15997882 -10.72738454 4.98507813 -8.72241211 2.2795105 C-5.64174553 -0.05694787 -3.84413088 -0.00966325 0 0 Z " fill="#CAD7EA" transform="translate(229.357421875,331.51416015625)"/>
<path d="M0 0 C1.28813599 -0.00615326 2.57627197 -0.01230652 3.90344238 -0.01864624 C5.30607822 -0.00484941 6.70870698 0.00968464 8.11132812 0.02490234 C9.55334305 0.02728785 10.99536112 0.02819186 12.43737793 0.02767944 C15.45698556 0.03080483 18.4761175 0.04734882 21.49560547 0.07421875 C25.36268665 0.10819852 29.22924545 0.11584715 33.09645844 0.11432838 C36.07335378 0.11487272 39.05013534 0.12585 42.0269928 0.14033127 C43.45271443 0.14668746 44.87844893 0.1506354 46.30418396 0.15211868 C48.29788864 0.15646403 50.29154463 0.17556467 52.28515625 0.1953125 C53.418927 0.2029361 54.55269775 0.21055969 55.7208252 0.21841431 C58.59122976 0.48113997 60.25858573 0.90118659 62.64257812 2.48583984 C64.24129382 5.68327123 63.82679494 9.156431 63.84570312 12.66943359 C63.8514032 13.48074234 63.85710327 14.29205109 63.86297607 15.12794495 C63.87242798 16.84529311 63.87896082 18.56265944 63.8828125 20.2800293 C63.892527 22.90950034 63.9235513 25.53819267 63.95507812 28.16748047 C63.9616073 29.83479353 63.96685811 31.50211218 63.97070312 33.16943359 C63.98304993 33.95700546 63.99539673 34.74457733 64.00811768 35.55601501 C63.98584356 41.00439146 63.98584356 41.00439146 62.24707031 43.44311523 C58.86686618 45.63983645 56.5416033 45.62799221 52.51220703 45.6628418 C50.57977646 45.68209465 50.57977646 45.68209465 48.60830688 45.70173645 C47.19525536 45.70990315 45.78219951 45.71734702 44.36914062 45.72412109 C43.65885082 45.72819662 42.94856102 45.73227215 42.21674728 45.73647118 C38.45797771 45.75732954 34.69924462 45.77163278 30.94042969 45.78100586 C27.05746897 45.79207595 23.17508046 45.8264825 19.29232216 45.86617756 C16.30688406 45.89231602 13.32158296 45.90069512 10.3360405 45.90428734 C8.90468858 45.90915978 7.47334304 45.92079263 6.04210281 45.93932533 C4.03878817 45.96365518 2.03519555 45.96033804 0.03173828 45.95581055 C-1.10806488 45.96167679 -2.24786804 45.96754303 -3.42221069 45.97358704 C-7.02977372 45.37411442 -8.2021503 44.39906731 -10.35742188 41.48583984 C-10.75523617 38.57504012 -10.91901188 36.05035244 -10.88867188 33.14208984 C-10.89249878 32.33598267 -10.89632568 31.52987549 -10.90026855 30.69934082 C-10.90298577 28.99811552 -10.89563777 27.29684831 -10.87890625 25.59570312 C-10.85749177 22.99433088 -10.87871206 20.39572012 -10.90429688 17.79443359 C-10.90165356 16.13947959 -10.89652851 14.48452731 -10.88867188 12.82958984 C-10.8967688 12.05345337 -10.90486572 11.27731689 -10.91320801 10.47766113 C-10.85571205 7.15997882 -10.72738454 4.98507813 -8.72241211 2.2795105 C-5.64174553 -0.05694787 -3.84413088 -0.00966325 0 0 Z " fill="#FEFEFE" transform="translate(229.357421875,151.51416015625)"/>
<path d="M0 0 C1.28813599 -0.00615326 2.57627197 -0.01230652 3.90344238 -0.01864624 C5.30607822 -0.00484941 6.70870698 0.00968464 8.11132812 0.02490234 C9.55334305 0.02728785 10.99536112 0.02819186 12.43737793 0.02767944 C15.45698556 0.03080483 18.4761175 0.04734882 21.49560547 0.07421875 C25.36268665 0.10819852 29.22924545 0.11584715 33.09645844 0.11432838 C36.07335378 0.11487272 39.05013534 0.12585 42.0269928 0.14033127 C43.45271443 0.14668746 44.87844893 0.1506354 46.30418396 0.15211868 C48.29788864 0.15646403 50.29154463 0.17556467 52.28515625 0.1953125 C53.418927 0.2029361 54.55269775 0.21055969 55.7208252 0.21841431 C58.59122976 0.48113997 60.25858573 0.90118659 62.64257812 2.48583984 C64.78669328 6.77407014 64.03371695 12.36912591 64.10253906 17.12451172 C64.12910257 18.52525101 64.16998294 19.92579628 64.22558594 21.32568359 C64.67957239 32.89960338 64.67957239 32.89960338 62.18505859 36.71533203 C58.24854963 40.18483313 53.65209267 42.07343176 48.64257812 43.48583984 C48.02092773 43.66687256 47.39927734 43.84790527 46.75878906 44.03442383 C39.78754056 45.8060708 32.92819817 45.81740433 25.76757812 45.79833984 C23.96353516 45.82250977 23.96353516 45.82250977 22.12304688 45.84716797 C12.76254546 45.85224967 3.37602487 45.1209383 -4.41992188 39.42333984 C-5.13277344 38.91673828 -5.845625 38.41013672 -6.58007812 37.88818359 C-8.35742188 36.48583984 -8.35742188 36.48583984 -10.35742188 34.48583984 C-10.77947966 30.24752848 -10.72901526 25.99422222 -10.72802734 21.73730469 C-10.73239196 19.62531385 -10.76867782 17.5154282 -10.80664062 15.40380859 C-10.81251068 14.05876365 -10.81647881 12.71370878 -10.81835938 11.36865234 C-10.82657715 10.14549316 -10.83479492 8.92233398 -10.84326172 7.66210938 C-9.85130562 1.17700948 -6.06312196 -0.01524128 0 0 Z " fill="#FEFEFE" transform="translate(229.357421875,211.51416015625)"/>
<path d="M0 0 C-0.4846875 0.32871094 -0.969375 0.65742188 -1.46875 0.99609375 C-13.25597786 9.36049198 -20.6717308 20.17034469 -23.625 34.43847656 C-24.36368174 39.48421149 -24.33844547 44.53449854 -24.3125 49.625 C-24.30686035 50.78435059 -24.3012207 51.94370117 -24.29541016 53.13818359 C-24.18371825 61.03513344 -23.59404846 68.24710862 -21.55224609 75.90234375 C-20.88781584 78.42612128 -20.28244334 80.96172238 -19.67578125 83.5 C-17.11702356 94.09713529 -14.30732807 104.60140478 -11.25073242 115.06494141 C-9.33649962 121.67231279 -7.63828735 128.31930965 -6 135 C-3.88598586 143.61595742 -1.59546145 152.15786306 0.88623047 160.67504883 C2.20328929 165.1959642 3.46700722 169.72094059 4.63574219 174.2824707 C8.03326497 187.51144787 13.01370428 197.6921902 22 208 C13.37913777 207.72190767 7.31139431 204.99050809 0.953125 199.10546875 C-9.66506772 187.60242664 -12.10358835 171.79065674 -15.72045898 157.06152344 C-17.15790109 151.24332684 -18.68419467 145.48050951 -20.4375 139.75 C-22.8078953 131.95887973 -24.82249934 124.08342211 -26.8125 116.1875 C-27.12695068 114.95161133 -27.44140137 113.71572266 -27.76538086 112.44238281 C-28.05550049 111.27932617 -28.34562012 110.11626953 -28.64453125 108.91796875 C-29.03668823 107.35212036 -29.03668823 107.35212036 -29.43676758 105.75463867 C-30 103 -30 103 -30 99 C-34.455 99.99 -34.455 99.99 -39 101 C-39.50636607 99.25183142 -40.00484619 97.50137737 -40.5 95.75 C-40.7784375 94.77546875 -41.056875 93.8009375 -41.34375 92.796875 C-42 90 -42 90 -42 86 C-38.535 85.505 -38.535 85.505 -35 85 C-35.27714844 83.91460937 -35.55429688 82.82921875 -35.83984375 81.7109375 C-36.2058563 80.26565719 -36.5717346 78.82034288 -36.9375 77.375 C-37.11990234 76.66214844 -37.30230469 75.94929688 -37.49023438 75.21484375 C-37.66748047 74.51230469 -37.84472656 73.80976563 -38.02734375 73.0859375 C-38.18968506 72.4470459 -38.35202637 71.8081543 -38.51928711 71.14990234 C-40.04389562 64.33136374 -40.21715428 57.77168749 -40.25 50.8125 C-40.270625 49.73935547 -40.29125 48.66621094 -40.3125 47.56054688 C-40.37804374 34.01757178 -36.62265038 21.64279911 -27.1875 11.625 C-21.10440591 5.97970435 -8.4471504 -2.8157168 0 0 Z " fill="#E01643" transform="translate(128,172)"/>
<path d="M0 0 C1.07765625 0.03609375 2.1553125 0.0721875 3.265625 0.109375 C4.49539062 0.17898438 4.49539062 0.17898438 5.75 0.25 C5.72679687 1.34957031 5.70359375 2.44914062 5.6796875 3.58203125 C5.34377544 25.50837975 12.46932509 44.09973454 20.875 64.125 C27.93295708 80.94067178 33.28090285 96.21354281 34.50390625 114.55859375 C34.74373321 117.18146317 35.18548595 119.67936164 35.75 122.25 C33.83458862 122.35841951 31.91740227 122.43578079 30 122.5 C28.93265625 122.54640625 27.8653125 122.5928125 26.765625 122.640625 C23.07566594 122.16265103 22.02373274 121.11872822 19.75 118.25 C18.39054322 115.53108645 18.55971455 113.2288963 18.4375 110.1875 C17.31120586 93.88936133 11.81947861 79.29098199 5.75 64.25 C5.33347168 63.21649414 4.91694336 62.18298828 4.48779297 61.11816406 C4.05740723 60.05049805 3.62702148 58.98283203 3.18359375 57.8828125 C2.30953631 55.7136865 1.43583772 53.54441587 0.5625 51.375 C-0.07667358 49.78788208 -0.07667358 49.78788208 -0.72875977 48.16870117 C-10.29276891 24.2708415 -10.29276891 24.2708415 -10.5625 11.125 C-10.59988281 9.92617188 -10.63726562 8.72734375 -10.67578125 7.4921875 C-10.25 4.25 -10.25 4.25 -8.62109375 1.8359375 C-5.55351066 -0.21585613 -3.65742017 -0.15901827 0 0 Z " fill="#C8D6E9" transform="translate(199.25,14.75)"/>
<path d="M0 0 C6.26113066 -0.28010868 12.52063665 -0.47200356 18.78662109 -0.60424805 C20.91516473 -0.65939418 23.04329482 -0.7343382 25.17041016 -0.82983398 C42.86468351 -1.60401019 42.86468351 -1.60401019 48.09960938 2.32836914 C50.14983496 5.14742932 51.57350677 7.82947224 53 11 C54.13478178 12.62687802 55.29667848 14.23564264 56.5 15.8125 C58.33185396 18.60270808 59.00097492 20.00584955 59.5625 23.375 C58.94059475 26.27722451 58.37051738 27.26769883 56 29 C53.47255912 30.26372044 51.73619692 30.12022795 48.90771484 30.11352539 C47.31629166 30.11341209 47.31629166 30.11341209 45.69271851 30.11329651 C43.96923691 30.10555458 43.96923691 30.10555458 42.2109375 30.09765625 C41.03737701 30.0962413 39.86381653 30.09482635 38.6546936 30.09336853 C34.89477015 30.08775689 31.13490555 30.07520238 27.375 30.0625 C24.83073002 30.0574865 22.28645912 30.05292333 19.7421875 30.04882812 C13.49477147 30.03778368 7.24738994 30.02103418 1 30 C-0.09911549 26.70265354 -0.1139456 24.27041255 -0.09765625 20.80078125 C-0.09443359 19.59228516 -0.09121094 18.38378906 -0.08789062 17.13867188 C-0.07951172 15.87603516 -0.07113281 14.61339844 -0.0625 13.3125 C-0.05573242 11.40114258 -0.05573242 11.40114258 -0.04882812 9.45117188 C-0.03702873 6.30073436 -0.02056597 3.15039051 0 0 Z " fill="#FEFEFE" transform="translate(234,347)"/>
<path d="M0 0 C1.07765625 0.03609375 2.1553125 0.0721875 3.265625 0.109375 C4.49539062 0.17898437 4.49539062 0.17898437 5.75 0.25 C5.58701416 0.80268555 5.42402832 1.35537109 5.25610352 1.92480469 C4.69455523 4.50473034 4.6369974 6.81355224 4.65234375 9.453125 C4.65556641 10.4328125 4.65878906 11.4125 4.66210938 12.421875 C4.67048828 13.43765625 4.67886719 14.4534375 4.6875 15.5 C4.69201172 16.53125 4.69652344 17.5625 4.70117188 18.625 C4.71293912 21.16672573 4.72937989 23.70833319 4.75 26.25 C12.02220748 29.66848157 18.67070152 29.73359973 26.625 29.6875 C27.84058594 29.70748047 29.05617188 29.72746094 30.30859375 29.74804688 C38.34147417 29.74371415 46.2181783 29.14350251 52.55957031 23.6953125 C57.03066268 19.01506394 59.83523598 12.96583156 62.75 7.25 C63.08 7.25 63.41 7.25 63.75 7.25 C63.95388352 11.62430964 64.07783606 15.99739465 64.1875 20.375 C64.27547852 22.23125 64.27547852 22.23125 64.36523438 24.125 C64.53398682 33.09298719 64.53398682 33.09298719 62.296875 36.39453125 C58.31882011 39.89759451 53.81336856 41.82240803 48.75 43.25 C48.12834961 43.43103271 47.50669922 43.61206543 46.86621094 43.79858398 C39.89496244 45.57023096 33.03562005 45.58156448 25.875 45.5625 C24.07095703 45.58666992 24.07095703 45.58666992 22.23046875 45.61132812 C12.86996733 45.61640983 3.48344674 44.88509846 -4.3125 39.1875 C-5.02535156 38.68089844 -5.73820313 38.17429688 -6.47265625 37.65234375 C-8.25 36.25 -8.25 36.25 -10.25 34.25 C-10.67205778 30.01168864 -10.62159338 25.75838238 -10.62060547 21.50146484 C-10.62497009 19.389474 -10.66125594 17.27958836 -10.69921875 15.16796875 C-10.70508881 13.8229238 -10.70905694 12.47786894 -10.7109375 11.1328125 C-10.71915527 9.90965332 -10.72737305 8.68649414 -10.73583984 7.42626953 C-9.73964116 0.91343288 -6.0680886 -0.26382994 0 0 Z " fill="#C8D6E8" transform="translate(229.25,211.75)"/>
<path d="M0 0 C4.95 0 9.9 0 15 0 C15.99 1.98 16.98 3.96 18 6 C21.39969811 7.3309316 21.39969811 7.3309316 25 7 C27.94572605 4.82946501 28.84060941 3.47817177 30 0 C34.95 0 39.9 0 45 0 C44.23741675 8.8459657 41.87072751 13.61842546 35.1328125 19.484375 C29.44972302 23.52290745 23.75960706 23.74156027 17 23 C10.31666392 21.16353548 5.88835222 16.56863739 2 11 C0.12292354 6.83778698 0 4.69022551 0 0 Z " fill="#080204" transform="translate(347,238)"/>
<path d="M0 0 C4.95 0 9.9 0 15 0 C15.99 1.98 16.98 3.96 18 6 C19.1043392 7.32420249 19.1043392 7.32420249 21.875 7.1875 C25.16570758 7.25343513 25.16570758 7.25343513 28 5 C28.66 3.35 29.32 1.7 30 0 C34.95 0 39.9 0 45 0 C44.45773143 7.72732718 42.39152265 13.0435313 36.625 18.3125 C31.3083335 22.52761614 26.2045037 23.48509155 19.51953125 23.3046875 C12.36213324 22.43914169 7.84875994 18.4692064 3.41015625 13.01953125 C0.33352517 8.61338647 0 5.32913535 0 0 Z " fill="#080204" transform="translate(120,238)"/>
<path d="M0 0 C4.95 0 9.9 0 15 0 C15.66 1.98 16.32 3.96 17 6 C20.63 6 24.26 6 28 6 C28.66 4.02 29.32 2.04 30 0 C34.95 0 39.9 0 45 0 C44.71228886 7.91205633 41.87998504 13.04646074 36.3515625 18.6796875 C31.03963435 22.78541362 25.15018903 22.78276815 18.63671875 22.54296875 C12.29047998 21.59546371 8.48327982 18.91515457 4.3828125 14.1015625 C1.17682037 9.51898618 0.29667758 5.53798157 0 0 Z " fill="#040102" transform="translate(301,279)"/>
<path d="M0 0 C4.95 0 9.9 0 15 0 C15.66 1.98 16.32 3.96 17 6 C20.63 6 24.26 6 28 6 C28.66 4.02 29.32 2.04 30 0 C34.95 0 39.9 0 45 0 C44.71228886 7.91205633 41.87998504 13.04646074 36.3515625 18.6796875 C31.03963435 22.78541362 25.15018903 22.78276815 18.63671875 22.54296875 C12.29047998 21.59546371 8.48327982 18.91515457 4.3828125 14.1015625 C1.17682037 9.51898618 0.29667758 5.53798157 0 0 Z " fill="#040102" transform="translate(166,279)"/>
<path d="M0 0 C1.07765625 0.03609375 2.1553125 0.0721875 3.265625 0.109375 C4.49539062 0.17898438 4.49539062 0.17898438 5.75 0.25 C5.73428955 1.49088379 5.7185791 2.73176758 5.70239258 4.01025391 C5.64795912 8.62835155 5.61360108 13.246421 5.58520508 17.86474609 C5.57014902 19.86088841 5.54969973 21.85699781 5.52368164 23.85302734 C5.48715839 26.72762185 5.47024163 29.60177772 5.45703125 32.4765625 C5.44154739 33.36429352 5.42606354 34.25202454 5.41011047 35.16665649 C5.40873031 40.28557596 5.87800673 43.82350553 8.75 48.25 C10.7239321 49.77280858 10.7239321 49.77280858 12.9375 50.625 C13.65292969 50.94210937 14.36835938 51.25921875 15.10546875 51.5859375 C15.91951172 51.91464844 15.91951172 51.91464844 16.75 52.25 C16.75 52.58 16.75 52.91 16.75 53.25 C12.79 53.25 8.83 53.25 4.75 53.25 C4.75 50.61 4.75 47.97 4.75 45.25 C4.00234375 45.29640625 3.2546875 45.3428125 2.484375 45.390625 C1.00710937 45.44476563 1.00710937 45.44476563 -0.5 45.5 C-1.47453125 45.54640625 -2.4490625 45.5928125 -3.453125 45.640625 C-6.25 45.25 -6.25 45.25 -8.39160156 43.74707031 C-10.98228863 40.26604728 -10.82479108 37.0799116 -10.78125 32.90625 C-10.7850769 32.10014282 -10.78890381 31.29403564 -10.79284668 30.46350098 C-10.7955639 28.76227568 -10.7882159 27.06100847 -10.77148438 25.35986328 C-10.7500699 22.75849104 -10.77129019 20.15988028 -10.796875 17.55859375 C-10.79423169 15.90363975 -10.78910663 14.24868746 -10.78125 12.59375 C-10.78934692 11.81761353 -10.79744385 11.04147705 -10.80578613 10.24182129 C-10.74670012 6.83238844 -10.49471433 4.62332757 -8.60742188 1.74414062 C-5.54917814 -0.19418287 -3.59249922 -0.15619562 0 0 Z " fill="#CBD8EA" transform="translate(229.25,451.75)"/>
<path d="M0 0 C4.95 0 9.9 0 15 0 C15.99 1.98 16.98 3.96 18 6 C21.39969811 7.3309316 21.39969811 7.3309316 25 7 C27.41281883 5.15863826 28.65150913 3.69698174 30 1 C34.95 1 39.9 1 45 1 C43.73508574 9.85439985 41.80833425 13.95102011 35.03515625 19.51953125 C29.60314396 23.47103348 23.50580292 23.78674826 17 23 C10.27700323 21.09293808 6.00775564 16.53980627 2 11 C-0.29396962 6.81101199 0 5.1811135 0 0 Z " fill="#060203" transform="translate(331,324)"/>
<path d="M0 0 C4.95 0 9.9 0 15 0 C15 6.98980292 13.91076057 10.89478361 9.12890625 15.99609375 C2.98487723 21.58263053 -1.89599961 23.50586847 -10.22265625 23.3046875 C-17.55058976 22.50077918 -22.03886568 18.60071815 -26.58984375 13.0234375 C-29.38335237 9.01502347 -30 5.82236412 -30 1 C-27.58063683 0.83750546 -25.17218141 0.71902183 -22.75 0.625 C-22.06808594 0.57472656 -21.38617188 0.52445312 -20.68359375 0.47265625 C-18.671875 0.4140625 -18.671875 0.4140625 -15 1 C-12.703125 3.984375 -12.703125 3.984375 -11 7 C-8 7.83333333 -8 7.83333333 -5 7 C-2.15219381 4.76793569 -1.15002334 3.45007001 0 0 Z " fill="#060203" transform="translate(166,324)"/>
<path d="M0 0 C3.96 0 7.92 0 12 0 C12 14.85 12 29.7 12 45 C8.04 45 4.08 45 0 45 C-4.07318184 40.92681816 -4.46291636 40.36703174 -4.55578613 35.00817871 C-4.54768921 34.23204224 -4.53959229 33.45590576 -4.53125 32.65625 C-4.5350769 31.85014282 -4.53890381 31.04403564 -4.54284668 30.21350098 C-4.5455639 28.51227568 -4.5382159 26.81100847 -4.52148438 25.10986328 C-4.5000699 22.50849104 -4.52129019 19.90988028 -4.546875 17.30859375 C-4.54423169 15.65363975 -4.53910663 13.99868746 -4.53125 12.34375 C-4.53934692 11.56761353 -4.54744385 10.79147705 -4.55578613 9.99182129 C-4.46291636 4.63296826 -4.07318184 4.07318184 0 0 Z " fill="#CAD8EA" transform="translate(223,392)"/>
<path d="M0 0 C3.96 0 7.92 0 12 0 C12 14.85 12 29.7 12 45 C8.04 45 4.08 45 0 45 C-4.07318184 40.92681816 -4.46291636 40.36703174 -4.55578613 35.00817871 C-4.54768921 34.23204224 -4.53959229 33.45590576 -4.53125 32.65625 C-4.5350769 31.85014282 -4.53890381 31.04403564 -4.54284668 30.21350098 C-4.5455639 28.51227568 -4.5382159 26.81100847 -4.52148438 25.10986328 C-4.5000699 22.50849104 -4.52129019 19.90988028 -4.546875 17.30859375 C-4.54423169 15.65363975 -4.53910663 13.99868746 -4.53125 12.34375 C-4.53934692 11.56761353 -4.54744385 10.79147705 -4.55578613 9.99182129 C-4.46291636 4.63296826 -4.07318184 4.07318184 0 0 Z " fill="#CAD8EA" transform="translate(223,152)"/>
<path d="M0 0 C5.28 0 10.56 0 16 0 C16 4.95 16 9.9 16 15 C10.72 15 5.44 15 0 15 C0 10.05 0 5.1 0 0 Z " fill="#080808" transform="translate(248,497)"/>
<path d="M0 0 C5.28 0 10.56 0 16 0 C16 4.95 16 9.9 16 15 C10.72 15 5.44 15 0 15 C0 10.05 0 5.1 0 0 Z " fill="#FDF1F4" transform="translate(391,204)"/>
<path d="M0 0 C5.28 0 10.56 0 16 0 C16 4.95 16 9.9 16 15 C10.72 15 5.44 15 0 15 C0 10.05 0 5.1 0 0 Z " fill="#FDF1F4" transform="translate(361,189)"/>
</svg>
