<?xml version="1.0" encoding="UTF-8"?>
<svg version="1.1" xmlns="http://www.w3.org/2000/svg" width="512" height="512">
<path d="M0 0 C1.08716309 0.15484863 2.17432617 0.30969727 3.29443359 0.46923828 C25.43965574 3.69198374 46.69905422 9.5496394 67 19 C67.68852051 19.31018066 68.37704102 19.62036133 69.08642578 19.93994141 C102.24141753 34.92824869 129.4597171 61.63852966 142.5 95.81640625 C143.79693188 99.518066 144.93641483 103.22507841 146 107 C146.47953125 108.61068359 146.47953125 108.61068359 146.96875 110.25390625 C149.1530886 118.98114799 149.30854419 127.60062221 149.375 136.5625 C149.38893799 137.76922363 149.40287598 138.97594727 149.41723633 140.21923828 C149.27097281 168.20685797 136.03935451 189.86608128 118.07373047 210.19262695 C112.37974133 216.68453 110.4888587 221.67286154 109.25 230.1875 C105.44300129 253.86392885 98.77532238 278.15377845 88.89624023 300.05029297 C85.24190091 308.19648253 84.43097071 314.14619184 86 323 C91.1202567 360.28882596 87.28058142 396.19798353 65.1875 427.6875 C63.81679968 429.47785807 62.41858365 431.24733865 61 433 C60.55253418 433.55284668 60.10506836 434.10569336 59.64404297 434.67529297 C38.52597573 460.55216239 10.12428655 477.94170832 -23.390625 481.77294922 C-60.77209276 485.02564056 -96.10260903 475.13441525 -125 451 C-125.92800415 450.0733252 -125.92800415 450.0733252 -126.87475586 449.12792969 C-132.19680065 443.8954272 -136.35266805 442.88089345 -143.6875 442.375 C-145.74048015 442.16754511 -147.7925787 441.9511985 -149.84375 441.7265625 C-151.38869141 441.55882324 -151.38869141 441.55882324 -152.96484375 441.38769531 C-180.55674066 437.86324773 -215.7593741 426.28946049 -234 404 C-242.44330084 392.23055035 -246.62037821 378.86606564 -244.46875 364.4375 C-243.0675811 356.88337204 -241.15317119 349.99928643 -238 343 C-246.28413353 341.14988298 -254.56837727 339.30160416 -262.86691284 337.51699829 C-265.88388326 336.867605 -268.89937912 336.21150103 -271.91479492 335.55493164 C-273.43469398 335.22561201 -274.95521079 334.89913114 -276.47631836 334.57543945 C-290.46263405 331.59425977 -304.08825737 328.12343834 -316.75 321.25 C-317.55147461 320.82025879 -318.35294922 320.39051758 -319.17871094 319.94775391 C-333.62726971 311.98731666 -345.9542203 300.33996667 -351.875 284.625 C-355.73611998 269.87831286 -353.63756877 254.64379382 -346.015625 241.60546875 C-338.97141286 230.5685793 -329.97138418 222.02446784 -319 215 C-318.27941406 214.49984375 -317.55882812 213.9996875 -316.81640625 213.484375 C-305.79620278 206.226702 -292.63368991 202.38266946 -279.86328125 199.53125 C-278.92086075 199.31911362 -277.97844025 199.10697723 -277.00746155 198.88841248 C-265.0577513 196.26721626 -252.97252509 194.44278083 -240.88354492 192.59594727 C-211.11743701 188.01819582 -181.15563839 180.29230676 -158 160 C-157.26007813 159.37996094 -156.52015625 158.75992188 -155.7578125 158.12109375 C-150.30850349 153.5707425 -150.30850349 153.5707425 -146 148 C-146.42023154 143.60313296 -148.33802369 139.88318106 -150.1875 135.9375 C-159.6183473 114.95508637 -163.19822319 93.74480822 -163.4375 70.875 C-163.47109619 68.90019653 -163.47109619 68.90019653 -163.50537109 66.88549805 C-163.48368378 57.93034872 -162.40171674 50.82213379 -157.17578125 43.4140625 C-150.0463885 36.56864975 -144.43230538 33.81038704 -134.4375 33.5625 C-125.13333664 33.8416249 -119.97805206 36.02021064 -113 42 C-112.76925781 40.94941406 -112.53851563 39.89882813 -112.30078125 38.81640625 C-109.1001967 24.79964999 -104.04762897 13.0521861 -91.5625 4.75 C-64.33513309 -10.40445693 -29.36008118 -4.29650443 0 0 Z " fill="#E5EEF6" transform="translate(358,17)"/>
<path d="M0 0 C5.75519463 4.22296749 8.79238662 10.28803369 11.1796875 16.88671875 C11.8935424 21.86222607 11.88638426 26.74247378 11.8046875 31.76171875 C11.66413237 45.49395533 12.98409171 62.21215957 22.984375 72.796875 C27.15697765 76.45872339 29.79749904 78.04438779 35.4296875 78.13671875 C36.36296875 78.1625 37.29625 78.18828125 38.2578125 78.21484375 C44.52385412 77.51117063 48.09592505 74.32008597 52.1171875 69.69921875 C52.98214844 68.71695313 53.84710938 67.7346875 54.73828125 66.72265625 C56.16833137 65.06151002 57.59813523 63.40015162 59.02734375 61.73828125 C73.20700562 45.31266821 91.5317492 29.25831538 113.1796875 23.88671875 C113.953125 23.68433594 114.7265625 23.48195313 115.5234375 23.2734375 C138.37506846 17.95826384 161.80344557 27.14961588 181.1796875 38.88671875 C192.28835403 46.50632523 202.07996676 56.44918236 209.1796875 67.88671875 C209.53756348 68.45390625 209.89543945 69.02109375 210.26416016 69.60546875 C211.42355658 71.45814793 212.55553264 73.32497492 213.6796875 75.19921875 C214.04280029 75.78614502 214.40591309 76.37307129 214.7800293 76.9777832 C216.36952192 79.71339805 217.20210519 81.48600255 217.0234375 84.6796875 C216.1796875 86.88671875 216.1796875 86.88671875 214.1796875 88.88671875 C211.828125 88.98046875 211.828125 88.98046875 209.1796875 87.88671875 C207.49265201 85.38299117 206.14526153 83.06456713 204.8046875 80.38671875 C201.43239279 74.02667075 197.86156183 68.38333102 193.1796875 62.88671875 C192.73625 62.30019531 192.2928125 61.71367188 191.8359375 61.109375 C179.55747873 45.3686764 156.88958789 35.44148768 137.62109375 32.171875 C118.50092413 29.93863919 100.07961516 37.83519441 85.19433594 49.54150391 C74.71124294 58.20636482 65.03494763 68.11234972 56.80859375 78.93359375 C52.46974243 84.13605337 46.71918083 87.47615481 39.98046875 88.2578125 C30.79069739 88.43275776 24.27920773 87.29408853 17.22265625 81.1953125 C3.14360614 66.50279615 1.86999586 47.06046316 1.7890625 27.86914062 C1.65564967 21.04655697 1.45451554 16.34475812 -2.8203125 10.88671875 C-4.56482505 9.32793745 -4.56482505 9.32793745 -6.4453125 8.51171875 C-8.24183266 7.64672756 -10.03690129 6.77842436 -11.8203125 5.88671875 C-18.94837125 4.9241262 -23.88747615 5.78238027 -29.84765625 9.79296875 C-36.14683834 16.47883331 -36.46730218 23.51918595 -36.3203125 32.38671875 C-36.30677734 33.57362305 -36.29324219 34.76052734 -36.27929688 35.98339844 C-35.44598413 72.38753794 -22.15684009 104.55431806 0.74804688 132.4831543 C20.12035058 156.17290523 27.61894314 182.75868387 24.97753906 213.21777344 C23.29614439 227.05596883 18.69534044 240.52522999 9.1796875 250.88671875 C8.68210938 251.49773437 8.18453125 252.10875 7.671875 252.73828125 C2.20082633 258.97912572 -8.54684712 265.32904601 -16.98999023 266.07958984 C-38.98544219 266.78450381 -38.98544219 266.78450381 -48.8203125 260.88671875 C-49.57699219 260.46390625 -50.33367187 260.04109375 -51.11328125 259.60546875 C-56.35424071 256.4145129 -60.71227612 252.31175715 -65.16796875 248.13525391 C-85.28952786 229.40467379 -107.00915036 219.90325498 -134.38085938 220.75927734 C-146.88651352 221.41259514 -157.73661625 225.30044699 -168.8203125 230.88671875 C-169.46871094 231.20833984 -170.11710937 231.52996094 -170.78515625 231.86132812 C-181.87816057 237.232087 -181.87816057 237.232087 -188.8203125 246.88671875 C-189.77965026 252.27117084 -190.01457888 257.31539011 -187.671875 262.359375 C-184.0849488 267.43610917 -179.74312104 270.91244924 -173.8203125 272.88671875 C-167.11927663 273.98502131 -161.8934486 272.31334399 -155.7578125 269.88671875 C-146.50133418 266.32430818 -136.56863569 264.56128306 -126.9296875 267.8828125 C-124.70862027 269.06321412 -122.79895465 270.34076372 -120.8203125 271.88671875 C-119.9334375 272.44359375 -119.0465625 273.00046875 -118.1328125 273.57421875 C-112.3500995 279.35693175 -108.71789457 286.47290098 -108.3828125 294.63671875 C-108.40669434 301.76942809 -110.56699951 307.05794339 -113.3515625 313.46484375 C-118.31771835 325.03493024 -118.66662274 338.38931023 -114.13671875 350.1796875 C-111.94922128 354.67801315 -109.23301526 358.24827301 -105.8203125 361.88671875 C-105.15773437 362.61375 -104.49515625 363.34078125 -103.8125 364.08984375 C-86.21165759 381.62935918 -57.71692901 389.16355046 -33.8203125 392.88671875 C-32.71413574 393.06187012 -31.60795898 393.23702148 -30.46826172 393.41748047 C-18.9616766 395.05626613 -7.55596575 395.28682693 4.0546875 395.26171875 C5.04591614 395.26084259 6.03714478 395.25996643 7.05841064 395.25906372 C31.31111957 395.18846935 53.18972296 391.83572738 76.1796875 383.88671875 C77.41976563 383.46390625 78.65984375 383.04109375 79.9375 382.60546875 C114.01841851 370.21240748 143.86566084 347.08190302 165.1796875 317.88671875 C165.78345215 317.07340088 165.78345215 317.07340088 166.39941406 316.24365234 C190.53775473 283.37169291 205.2650923 241.35738864 214.1796875 201.88671875 C214.42485107 200.80181152 214.67001465 199.7169043 214.92260742 198.59912109 C216.9467125 189.12418853 217.99168994 179.78055659 218.7421875 170.13671875 C218.9628095 167.30767807 219.19470834 164.47989411 219.43359375 161.65234375 C219.52970947 160.42290039 219.6258252 159.19345703 219.72485352 157.92675781 C220.1796875 154.88671875 220.1796875 154.88671875 222.1796875 151.88671875 C224.6796875 151.57421875 224.6796875 151.57421875 227.1796875 151.88671875 C229.1796875 153.88671875 229.1796875 153.88671875 229.4453125 156.66015625 C229.30555236 188.87486782 222.34730484 221.80088464 210.1171875 251.62890625 C209.86180206 252.25466553 209.60641663 252.8804248 209.34329224 253.52514648 C208.12222368 256.49352851 206.86334554 259.43701947 205.54638672 262.36425781 C202.13579911 270.34854638 201.84714414 276.35364183 203.1796875 284.88671875 C203.36040944 286.32913626 203.53912738 287.77180791 203.71484375 289.21484375 C203.97587891 291.15617188 203.97587891 291.15617188 204.2421875 293.13671875 C208.4054649 328.22665053 202.25928466 363.59189701 180.40234375 392.140625 C179.30212891 393.49994141 179.30212891 393.49994141 178.1796875 394.88671875 C177.73222168 395.43956543 177.28475586 395.99241211 176.82373047 396.56201172 C155.70566323 422.43888114 127.30397405 439.82842707 93.7890625 443.65966797 C56.40759474 446.91235931 21.07707847 437.021134 -7.8203125 412.88671875 C-8.74831665 411.96004395 -8.74831665 411.96004395 -9.69506836 411.01464844 C-15.01711315 405.78214595 -19.17298055 404.7676122 -26.5078125 404.26171875 C-28.56079265 404.05426386 -30.6128912 403.83791725 -32.6640625 403.61328125 C-34.20900391 403.44554199 -34.20900391 403.44554199 -35.78515625 403.27441406 C-63.37705316 399.74996648 -98.5796866 388.17617924 -116.8203125 365.88671875 C-125.26361334 354.1172691 -129.44069071 340.75278439 -127.2890625 326.32421875 C-125.8878936 318.77009079 -123.97348369 311.88600518 -120.8203125 304.88671875 C-129.10444603 303.03660173 -137.38868977 301.18832291 -145.68722534 299.40371704 C-148.70419576 298.75432375 -151.71969162 298.09821978 -154.73510742 297.44165039 C-156.25500648 297.11233076 -157.77552329 296.78584989 -159.29663086 296.4621582 C-173.28294655 293.48097852 -186.90856987 290.01015709 -199.5703125 283.13671875 C-200.37178711 282.70697754 -201.17326172 282.27723633 -201.99902344 281.83447266 C-216.44758221 273.87403541 -228.7745328 262.22668542 -234.6953125 246.51171875 C-238.55643248 231.76503161 -236.45788127 216.53051257 -228.8359375 203.4921875 C-221.79172536 192.45529805 -212.79169668 183.91118659 -201.8203125 176.88671875 C-201.09972656 176.3865625 -200.37914062 175.88640625 -199.63671875 175.37109375 C-188.61651528 168.11342075 -175.45400241 164.26938821 -162.68359375 161.41796875 C-161.74117325 161.20583237 -160.79875275 160.99369598 -159.82777405 160.77513123 C-147.8780638 158.15393501 -135.79283759 156.32949958 -123.70385742 154.48266602 C-93.93774951 149.90491457 -63.97595089 142.17902551 -40.8203125 121.88671875 C-40.08039063 121.26667969 -39.34046875 120.64664063 -38.578125 120.0078125 C-33.12881599 115.45746125 -33.12881599 115.45746125 -28.8203125 109.88671875 C-29.24054404 105.48985171 -31.15833619 101.76989981 -33.0078125 97.82421875 C-42.4386598 76.84180512 -46.01853569 55.63152697 -46.2578125 32.76171875 C-46.29140869 30.78691528 -46.29140869 30.78691528 -46.32568359 28.7722168 C-46.30399628 19.81706747 -45.22202924 12.70885254 -39.99609375 5.30078125 C-28.92877798 -5.32569804 -13.63274816 -8.33762494 0 0 Z " fill="#2F4068" transform="translate(240.8203125,55.11328125)"/>
<path d="M0 0 C6.51764632 2.29324593 10.90174786 6.90029901 14 13 C14.40063477 15.94750977 14.40063477 15.94750977 14.44140625 19.19140625 C14.48104492 20.98094727 14.48104492 20.98094727 14.52148438 22.80664062 C14.53501953 24.04607422 14.54855469 25.28550781 14.5625 26.5625 C14.81940498 44.4602137 16.49321528 62.69101339 30 76 C37.91392317 82.05955372 45.12793476 82.89938429 55 82 C63.13954739 79.72359179 67.87441603 74.42058289 73 68 C83.00070214 56.01920897 93.66740803 45.20724883 107 37 C108.00546875 36.36835937 109.0109375 35.73671875 110.046875 35.0859375 C117.0129043 30.96280124 117.0129043 30.96280124 120.90234375 31.109375 C124.55238627 32.15881976 127.48904918 33.79499196 130.625 35.875 C131.23110107 36.27283691 131.83720215 36.67067383 132.46166992 37.08056641 C158.01312085 54.3372179 171.82158146 80.89157161 177.84692383 110.50708008 C179.76034597 120.48162812 180.20463081 130.09743172 180.1875 140.25 C180.18656342 140.96474487 180.18562683 141.67948975 180.18466187 142.41589355 C180.13785769 158.92139591 178.5154958 174.66780781 175.75 190.9375 C175.47990112 192.56123535 175.47990112 192.56123535 175.2043457 194.21777344 C173.87412905 201.6172059 171.99486122 208.75143835 169.89941406 215.96704102 C169.62050323 216.93492805 169.34159241 217.90281509 169.05422974 218.90003204 C168.37171141 221.26734056 167.68691954 223.63396558 167 226 C166.45223782 226.00146656 165.90447563 226.00293312 165.34011459 226.00444412 C152.01127072 226.04149729 138.6826846 226.10074478 125.35404587 226.18390274 C118.90838335 226.22344551 112.46285885 226.25560072 106.01708984 226.27099609 C99.79887187 226.28611772 93.58103316 226.32048363 87.3629837 226.36830902 C84.98831729 226.3831692 82.61359674 226.39104365 80.23888397 226.39188385 C76.91763159 226.39424125 73.59743785 226.42122316 70.27636719 226.45410156 C69.29021927 226.4490712 68.30407135 226.44404083 67.28804016 226.43885803 C62.01637185 226.45983878 62.01637185 226.45983878 57.4487915 228.82879639 C55.5106088 231.73341674 54.34333382 234.7936124 53.1875 238.0625 C45.67822473 257.80028069 31.98472724 271.01958761 13.4453125 280.640625 C2.45185027 284.97818152 -8.06070714 285.43923568 -19.75390625 285.52734375 C-32.77227808 285.76974498 -42.24047171 288.62345272 -51.8203125 297.73046875 C-60.12635246 306.85041715 -61.57040068 316.40621948 -61.33203125 328.375 C-60.84451575 338.22963435 -56.3591791 345.84441255 -49.55859375 352.8125 C-32.58341125 367.32563313 -4.95296752 367.41426128 16.3125 367.3125 C17.07081116 367.31134186 17.82912231 367.31018372 18.6104126 367.30899048 C30.62552649 367.27285456 42.2226093 366.52997962 54 364 C55.23234375 363.74863281 56.4646875 363.49726563 57.734375 363.23828125 C63.56629675 361.96842732 69.23484755 360.39475734 74.87890625 358.453125 C77.27105735 357.94209456 78.70348691 358.22928812 81 359 C65.53298227 371.85766755 46.32843611 380.0117442 27.37695312 386.21875 C25.27630785 386.90918395 23.19313406 387.63567261 21.109375 388.375 C-8.88624292 398.23657301 -47.46545172 385.57754407 -74.76611328 372.2890625 C-87.68886413 365.72095534 -99.90928817 355.29000628 -104.9375 341.3125 C-107.90113021 329.60524028 -106.32114463 317.86794977 -101.6875 306.890625 C-98.06146064 298.27878151 -95.89419377 290.30022844 -98.95703125 281.13671875 C-103.05965969 272.3453721 -109.47141486 267.26429257 -118 263 C-128.27856991 262.04357241 -136.49727836 263.08945134 -146.09375 266.84350586 C-153.12968634 269.55856697 -159.05002377 270.51239491 -166.1875 267.5 C-171.15452439 264.69342931 -175.44632565 260.10734871 -178 255 C-178.66661056 249.04269548 -179.2614036 242.8608554 -175.8125 237.6875 C-163.9075944 224.4474648 -142.0924939 217.01823596 -125 215 C-115.38578297 214.51249427 -105.25803687 214.08831207 -96 217 C-94.81535156 217.36867188 -93.63070312 217.73734375 -92.41015625 218.1171875 C-76.61870642 223.37581808 -64.30541419 232.16670892 -52.43457031 243.63085938 C-39.33914729 256.12900987 -26.28181597 260.60136339 -8.55859375 260.34375 C-1.9142428 260.07659566 3.32877668 258.49140459 9 255 C9.72960937 254.55398438 10.45921875 254.10796875 11.2109375 253.6484375 C24.96210508 244.21756012 31.46768839 229.8682306 35 214 C39.20719202 187.40058201 34.53639826 158.7172471 18.61328125 136.55859375 C16.56903469 133.84209991 14.44330621 131.19564102 12.28662109 128.56787109 C-11.86763647 99.13359366 -25.10808309 65.87389105 -25.5 27.5 C-25.51853027 26.37279541 -25.53706055 25.24559082 -25.55615234 24.08422852 C-25.49710769 16.40089769 -24.51534898 10.49545077 -18.9296875 4.94140625 C-17.91261719 4.25884766 -17.91261719 4.25884766 -16.875 3.5625 C-15.85019531 2.85287109 -15.85019531 2.85287109 -14.8046875 2.12890625 C-10.09877762 -0.81483392 -5.43338531 -0.42328073 0 0 Z " fill="#F3F3F3" transform="translate(229,60)"/>
<path d="M0 0 C1.11059784 -0.00281982 2.22119568 -0.00563965 3.365448 -0.00854492 C5.20914474 -0.00550858 5.20914474 -0.00550858 7.09008789 -0.00241089 C8.37609894 -0.00416321 9.66210999 -0.00591553 10.98709106 -0.00772095 C14.52418578 -0.01229489 18.06125146 -0.01050589 21.59834671 -0.00734186 C25.2921278 -0.00481806 28.98590632 -0.00715586 32.6796875 -0.00872803 C38.88387501 -0.01054966 45.08805063 -0.00814357 51.29223633 -0.00338745 C58.47507778 0.00205516 65.65789086 0.0002925 72.84073162 -0.00521386 C78.99698219 -0.00974516 85.1532242 -0.01039545 91.3094759 -0.00777519 C94.99106118 -0.00621251 98.6726331 -0.0060184 102.35421753 -0.00931168 C106.45629571 -0.01272448 110.55832461 -0.00800038 114.66040039 -0.00241089 C115.88953156 -0.00443512 117.11866272 -0.00645935 118.38504028 -0.00854492 C120.05093704 -0.00431519 120.05093704 -0.00431519 121.75048828 0 C123.20727745 0.00056554 123.20727745 0.00056554 124.6934967 0.0011425 C126.87524414 0.12698364 126.87524414 0.12698364 127.87524414 1.12698364 C128.19077872 6.12936113 127.57805137 9.73288784 125.67211914 14.34573364 C125.19258789 15.51394653 124.71305664 16.68215942 124.21899414 17.88577271 C123.68912131 19.13342879 123.15783764 20.38048651 122.62524414 21.62698364 C122.22208984 22.58356873 122.22208984 22.58356873 121.81079102 23.55947876 C111.888078 47.06581117 100.31544704 69.29897203 82.3112793 87.65579224 C80.79620471 89.20795808 79.310596 90.78539901 77.82446289 92.36526489 C60.77289668 110.24245821 39.81887092 122.35098288 16.87524414 131.12698364 C16.23409668 131.3781897 15.59294922 131.62939575 14.93237305 131.88821411 C3.61346426 136.2668846 -8.16455358 138.32500166 -20.12475586 140.12698364 C-21.14811035 140.28710938 -21.14811035 140.28710938 -22.19213867 140.45046997 C-29.3621779 141.41685908 -36.60234148 141.31305409 -43.82348633 141.31228638 C-46.09207524 141.31445244 -48.3601601 141.33260251 -50.62866211 141.35159302 C-71.69862527 141.43366354 -98.10991407 140.37939182 -114.49975586 125.50198364 C-123.32935726 115.97191282 -125.6045959 105.16441081 -125.40209961 92.66213989 C-124.97013506 82.19398397 -119.41716049 73.91398958 -111.87475586 66.93948364 C-104.39378578 60.85496131 -96.567625 58.05245845 -87.00366211 57.95120239 C-68.64096551 57.93613678 -68.64096551 57.93613678 -51.12475586 53.12698364 C-50.22442627 52.73446411 -50.22442627 52.73446411 -49.3059082 52.33401489 C-27.12550691 42.35819462 -16.11599176 24.49332548 -6.85131836 2.70120239 C-5.30779906 -0.64308943 -3.49025289 0.00135495 0 0 Z " fill="#FE6661" transform="translate(292.124755859375,286.8730163574219)"/>
<path d="M0 0 C0.66 0 1.32 0 2 0 C2.69222656 1.28970703 2.69222656 1.28970703 3.3984375 2.60546875 C8.54062537 11.99619173 14.50560225 20.30863814 21.29101562 28.57226562 C31.2618886 40.72190295 38.16863654 53.65557901 42 69 C42.17515137 69.64598145 42.35030273 70.29196289 42.53076172 70.95751953 C47.31105998 89.92093289 44.96342322 112.31645686 35.55859375 129.484375 C29.19318681 139.75836515 19.78326273 146.15796644 8 149 C-3.08093119 150.44022713 -12.74087911 147.56985623 -21.8125 141.1875 C-25.5180439 138.32532314 -28.78645796 135.2814607 -32.01953125 131.91015625 C-52.35667056 112.29504556 -78.432335 102.25979622 -106.4296875 102.671875 C-126.08762667 103.36281956 -149.6481773 112.2805373 -164 126 C-170.36992898 133.99844024 -170.86154089 142.07224397 -170 152 C-167.63317295 160.39449407 -162.14660715 166.07519964 -154.68359375 170.31640625 C-146.87836656 173.91207271 -139.08414423 174.55771715 -130.94921875 171.6484375 C-129.50538972 171.10535641 -128.06400734 170.55573124 -126.625 170 C-118.3807477 166.82920457 -110.25420454 164.89184117 -101.56640625 167.8203125 C-96.22892107 170.70598502 -92.27396614 175.40704652 -90 181 C-89.23162152 186.52272031 -88.84864214 191.27296321 -92 196 C-101.15230189 194.1888904 -110.27528903 192.25763142 -119.39257812 190.27856445 C-121.20282313 189.8869809 -123.01369237 189.4982712 -124.82519531 189.11254883 C-139.8309113 185.91557202 -154.79751808 182.5301044 -168.6875 175.8125 C-169.87629761 175.24112305 -169.87629761 175.24112305 -171.08911133 174.65820312 C-186.84766287 166.8068539 -200.53902497 154.39323159 -206.875 137.625 C-210.73611998 122.87831286 -208.63756877 107.64379382 -201.015625 94.60546875 C-193.97141286 83.5685793 -184.97138418 75.02446784 -174 68 C-173.27941406 67.49984375 -172.55882812 66.9996875 -171.81640625 66.484375 C-160.79620278 59.226702 -147.63368991 55.38266946 -134.86328125 52.53125 C-133.92086075 52.31911362 -132.97844025 52.10697723 -132.00746155 51.88841248 C-120.0577513 49.26721626 -107.97252509 47.44278083 -95.88354492 45.59594727 C-66.114768 41.01778535 -36.15940802 33.29046879 -13 13 C-12.27167969 12.3915625 -11.54335937 11.783125 -10.79296875 11.15625 C-7.61896072 8.47100387 -4.73177155 5.80766459 -2.125 2.5625 C-1.42375 1.716875 -0.7225 0.87125 0 0 Z " fill="#D3E4F1" transform="translate(213,164)"/>
<path d="M0 0 C12.20692539 8.88147329 28.51875397 24.32482667 31 40 C32.98 40 34.96 40 37 40 C37.99 44.455 37.99 44.455 39 49 C40.32 49.33 41.64 49.66 43 50 C47.09791745 54.91750094 48.63399883 62.39303194 49.26953125 68.65625 C49 71 49 71 47.47412109 72.21801758 C45.1708741 75.00228386 45.8619387 77.33049846 46.14453125 80.85546875 C46.19316818 81.51710526 46.24180511 82.17874176 46.29191589 82.86042786 C46.45051075 84.97091862 46.63119602 87.07885067 46.8125 89.1875 C46.92398667 90.61902762 47.03403009 92.05066843 47.14257812 93.48242188 C47.41165854 96.98974859 47.70057531 100.49511855 48 104 C47.360625 104.12375 46.72125 104.2475 46.0625 104.375 C45.381875 104.58125 44.70125 104.7875 44 105 C42.60584545 107.7883091 42.6535311 110.31094417 42.421875 113.421875 C42.31585123 114.75976968 42.20870839 116.09757603 42.10058594 117.43530273 C42.04414917 118.13904022 41.9877124 118.84277771 41.92956543 119.56784058 C40.76289908 133.74569196 38.71346339 147.24155604 35 161 C34.49083451 162.97264311 33.98172179 164.94529984 33.47265625 166.91796875 C26.98025895 191.5180679 18.23176902 215.17387482 7 238 C6.60425781 238.8053418 6.20851563 239.61068359 5.80078125 240.44042969 C-1.5071002 255.13725271 -10.22822793 268.58863077 -21 281 C-21.71800781 281.82886719 -22.43601562 282.65773438 -23.17578125 283.51171875 C-53.10399575 317.37365949 -91.73262658 337.55605657 -136 346 C-137.14726562 346.226875 -138.29453125 346.45375 -139.4765625 346.6875 C-152.51136582 348.84498469 -165.83431857 348.17916242 -179 348 C-176.23023176 346.15348784 -174.44850487 345.42838606 -171.30859375 344.5546875 C-170.37297607 344.2868042 -169.4373584 344.0189209 -168.47338867 343.74291992 C-167.47154541 343.45650635 -166.46970215 343.17009277 -165.4375 342.875 C-145.97048412 337.10334167 -126.12622122 328.57549361 -110 316 C-110 315.34 -110 314.68 -110 314 C-109.4423999 313.77449463 -108.8847998 313.54898926 -108.31030273 313.31665039 C-86.93399752 304.60144182 -68.85792837 294.00499747 -52 278 C-51.49855469 277.53110352 -50.99710938 277.06220703 -50.48046875 276.57910156 C-41.8475405 268.46603943 -34.57147364 259.85721046 -28 250 C-27.61392578 249.42088867 -27.22785156 248.84177734 -26.83007812 248.24511719 C-17.19998506 233.53293861 -9.99189567 217.21878297 -3.3125 201 C-2.973396 200.19409424 -2.63429199 199.38818848 -2.28491211 198.55786133 C-1.82870483 197.41546997 -1.82870483 197.41546997 -1.36328125 196.25 C-0.96556519 195.26773438 -0.96556519 195.26773438 -0.55981445 194.265625 C0.27985572 191.25635644 0.27985572 191.25635644 0 185 C-64.35 184.505 -64.35 184.505 -130 184 C-130 183.67 -130 183.34 -130 183 C-94.69 183 -59.38 183 -23 183 C-22.67 180.69 -22.34 178.38 -22 176 C-21.47637763 174.03037431 -20.95032376 172.06113513 -20.38769531 170.10229492 C-17.75287566 160.89959214 -15.88886068 151.61518525 -14.25 142.1875 C-14.03956055 140.99688965 -13.82912109 139.8062793 -13.61230469 138.57958984 C-6.95319495 99.10992384 -8.51927121 53.24785401 -32.44921875 19.47265625 C-42.52138649 5.76116134 -54.58742021 -3.23941229 -69 -12 C-52.84128785 -28.15871215 -14.87474467 -10.07187524 0 0 Z " fill="#C7C7C7" transform="translate(419,103)"/>
<path d="M0 0 C10.76948531 19.05349116 6.88251907 54.944089 1.31591797 75.52978516 C-3.55769688 92.55758583 -10.81378641 108.17942328 -22 122 C-22.44746582 122.55284668 -22.89493164 123.10569336 -23.35595703 123.67529297 C-44.47402427 149.55216239 -72.87571345 166.94170832 -106.390625 170.77294922 C-142.86839849 173.94700698 -177.61561658 164.62874376 -206.24658203 141.57373047 C-209.13873764 138.97795839 -211.58613695 136.03737425 -214 133 C-213.23147705 132.98018066 -212.4629541 132.96036133 -211.67114258 132.93994141 C-146.30382673 131.17681136 -89.35837166 115.90940733 -42.484375 68.453125 C-23.8378154 48.46508629 -11.35035055 24.63500521 0 0 Z " fill="#E3EDF5" transform="translate(441,328)"/>
<path d="M0 0 C1.11059784 -0.00281982 2.22119568 -0.00563965 3.365448 -0.00854492 C5.20914474 -0.00550858 5.20914474 -0.00550858 7.09008789 -0.00241089 C8.37609894 -0.00416321 9.66210999 -0.00591553 10.98709106 -0.00772095 C14.52418578 -0.01229489 18.06125146 -0.01050589 21.59834671 -0.00734186 C25.2921278 -0.00481806 28.98590632 -0.00715586 32.6796875 -0.00872803 C38.88387501 -0.01054966 45.08805063 -0.00814357 51.29223633 -0.00338745 C58.47507778 0.00205516 65.65789086 0.0002925 72.84073162 -0.00521386 C78.99698219 -0.00974516 85.1532242 -0.01039545 91.3094759 -0.00777519 C94.99106118 -0.00621251 98.6726331 -0.0060184 102.35421753 -0.00931168 C106.45629571 -0.01272448 110.55832461 -0.00800038 114.66040039 -0.00241089 C115.88953156 -0.00443512 117.11866272 -0.00645935 118.38504028 -0.00854492 C120.05093704 -0.00431519 120.05093704 -0.00431519 121.75048828 0 C123.20727745 0.00056554 123.20727745 0.00056554 124.6934967 0.0011425 C126.87524414 0.12698364 126.87524414 0.12698364 127.87524414 1.12698364 C128.19077872 6.12936113 127.57805137 9.73288784 125.67211914 14.34573364 C125.19258789 15.51394653 124.71305664 16.68215942 124.21899414 17.88577271 C123.68912131 19.13342879 123.15783764 20.38048651 122.62524414 21.62698364 C122.22208984 22.58356873 122.22208984 22.58356873 121.81079102 23.55947876 C111.888078 47.06581117 100.31544704 69.29897203 82.3112793 87.65579224 C80.79620471 89.20795808 79.310596 90.78539901 77.82446289 92.36526489 C60.77289668 110.24245821 39.81887092 122.35098288 16.87524414 131.12698364 C16.23409668 131.3781897 15.59294922 131.62939575 14.93237305 131.88821411 C3.61346426 136.2668846 -8.16455358 138.32500166 -20.12475586 140.12698364 C-21.14811035 140.28710938 -21.14811035 140.28710938 -22.19213867 140.45046997 C-29.3621779 141.41685908 -36.60234148 141.31305409 -43.82348633 141.31228638 C-46.09207524 141.31445244 -48.3601601 141.33260251 -50.62866211 141.35159302 C-71.69862527 141.43366354 -98.10991407 140.37939182 -114.49975586 125.50198364 C-123.32935726 115.97191282 -125.6045959 105.16441081 -125.40209961 92.66213989 C-124.97013506 82.19398397 -119.41716049 73.91398958 -111.87475586 66.93948364 C-104.39378578 60.85496131 -96.567625 58.05245845 -87.00366211 57.95120239 C-68.64096551 57.93613678 -68.64096551 57.93613678 -51.12475586 53.12698364 C-50.22442627 52.73446411 -50.22442627 52.73446411 -49.3059082 52.33401489 C-27.12550691 42.35819462 -16.11599176 24.49332548 -6.85131836 2.70120239 C-5.30779906 -0.64308943 -3.49025289 0.00135495 0 0 Z M-0.12475586 9.12698364 C-2.76475586 15.06698364 -5.40475586 21.00698364 -8.12475586 27.12698364 C-10.72970238 31.05444147 -13.15538751 34.54680836 -16.12475586 38.12698364 C-16.93493164 39.17885864 -16.93493164 39.17885864 -17.76147461 40.25198364 C-29.11511223 54.32719541 -47.84145713 63.81154933 -65.70019531 65.9302063 C-68.55104764 66.16158148 -71.38204036 66.22351274 -74.24194336 66.26760864 C-75.3440918 66.28694458 -76.44624023 66.30628052 -77.58178711 66.32620239 C-79.85244302 66.35993785 -82.12338211 66.37827665 -84.39428711 66.38088989 C-93.84004615 66.59030579 -101.73354487 68.96303879 -108.49975586 75.87698364 C-115.43939827 83.44877971 -116.80845043 90.24285683 -116.51147461 100.46292114 C-115.68794661 108.26564097 -112.83435845 114.66562464 -107.12475586 120.12698364 C-91.73943093 132.20461544 -68.76603708 132.48788646 -50.0090332 132.38772583 C-47.6267758 132.37699274 -45.24527209 132.38770023 -42.86303711 132.40042114 C-29.78089207 132.41351309 -17.08556591 131.22538202 -4.37475586 127.93948364 C-3.53678467 127.72372681 -2.69881348 127.50796997 -1.83544922 127.28567505 C19.67859997 121.55585331 40.71431872 112.53075207 57.87524414 98.12698364 C59.02351194 97.19187939 60.17195897 96.25699518 61.32055664 95.32229614 C87.37052698 73.83989513 105.8755979 43.96515567 116.87524414 12.12698364 C116.87524414 11.13698364 116.87524414 10.14698364 116.87524414 9.12698364 C78.26524414 9.12698364 39.65524414 9.12698364 -0.12475586 9.12698364 Z " fill="#303E66" transform="translate(292.124755859375,286.8730163574219)"/>
<path d="M0 0 C2.625 0.375 2.625 0.375 4.25 2.1875 C6.82387293 8.15420544 9.22182727 14.79863912 8.625 21.375 C6.625 23.375 6.625 23.375 3.5 23.5 C2.076875 23.438125 2.076875 23.438125 0.625 23.375 C-2.56055705 16.54880632 -3.85318623 8.86658423 -3.375 1.375 C-2.375 0.375 -2.375 0.375 0 0 Z " fill="#314269" transform="translate(459.375,152.625)"/>
</svg>
