<?xml version="1.0" encoding="UTF-8"?>
<svg version="1.1" xmlns="http://www.w3.org/2000/svg" width="512" height="512">
<path d="M0 0 C0.77714355 0.19867676 1.55428711 0.39735352 2.35498047 0.60205078 C21.741244 5.68765931 45.35117088 13.90451772 61.04370117 26.66137695 C63.70514554 28.48250505 65.68824817 28.00006727 68.76904297 27.47558594 C71.86385702 26.81584663 74.93095061 26.07846947 77.99438477 25.28588867 C116.97279724 15.25503378 159.54566347 15.85286143 198.43359375 25.9140625 C199.95374627 26.28428063 201.47583437 26.64666691 203 27 C203.70648682 27.16564453 204.41297363 27.33128906 205.14086914 27.50195312 C209.51280155 28.31552995 212.15104187 27.91010247 215.86572266 25.44677734 C216.42565918 25.05184082 216.9855957 24.6569043 217.5625 24.25 C249.2245104 3.76570063 289.49395275 -8.87355787 327.3125 -1.8125 C336.73485398 0.48881226 346.12759006 3.18528312 354 9 C355.60725635 12.21451269 355.05748185 15.43612536 355 19 C355.73605469 19.23460938 356.47210938 19.46921875 357.23046875 19.7109375 C360.4560044 21.21224464 361.99129095 22.95157824 364.3125 25.625 C367.25055677 28.89115352 367.25055677 28.89115352 371.18359375 30.4140625 C372.20646484 30.33285156 372.20646484 30.33285156 373.25 30.25 C377 30 377 30 379.625 31.75 C393.50836792 48.39134337 394.14607897 71.55955966 393 92 C390.98977472 108.73326417 382.75634121 125.96663495 372.3125 139 C368.30077795 144.12985405 366.60266582 148.72790569 364.9375 154.96484375 C361.5007877 166.09119983 351.5843497 175.13428765 341.66015625 180.65625 C325.00739752 189.06821623 309.03705036 191.41720185 291 186 C284.24409269 183.14075833 278.73093019 179.62597104 274 174 C274 173.34 274 172.68 274 172 C272.95585938 172.23976562 272.95585938 172.23976562 271.890625 172.484375 C261.84024032 174.27714632 251.90374296 172.76030137 242.0078125 170.8515625 C241.34587891 170.72571777 240.68394531 170.59987305 240.00195312 170.47021484 C238 170 238 170 235.95117188 169.23681641 C233.65088731 168.34307806 233.65088731 168.34307806 230 168 C227.21293355 169.55651287 225.32270064 171.7276595 223.25 174.125 C222.42435547 175.01832031 222.42435547 175.01832031 221.58203125 175.9296875 C220.51251724 177.08896887 219.45657544 178.26094996 218.41601562 179.44628906 C217 181 217 181 214.671875 182.9921875 C212.14891843 186.02209329 212.03946193 188.06564599 212 192 C212.85653104 195.54066878 214.09352635 198.90583435 215.375 202.3125 C217.96404464 209.26550073 219.62521512 215.56342618 220 223 C220.98097656 222.54109375 221.96195312 222.0821875 222.97265625 221.609375 C249.73038638 209.34959103 279.47252827 206.49966073 307.484375 216.578125 C335.26829693 227.11956512 355.89234122 248.12040545 368 275 C378.29039287 300.95838385 378.06830806 330.15642719 367.3984375 355.92578125 C354.89734791 383.4072268 334.1180129 402.99910129 306 414 C279.05375653 423.30336866 249.44837954 420.92347861 223.85546875 408.91894531 C201.81914294 398.005165 186.00862607 379.54237023 175 358 C173.55500122 358.24012817 173.55500122 358.24012817 172.08081055 358.48510742 C167.62336918 359.11837266 163.20367448 359.19808102 158.70703125 359.23828125 C157.83858078 359.246353 156.97013031 359.25442474 156.07536316 359.26274109 C154.25086416 359.27649661 152.42634035 359.28725642 150.60180664 359.29516602 C148.73682104 359.30675586 146.87187037 359.32731629 145.00708008 359.35668945 C142.30266961 359.39922433 139.59923394 359.41550678 136.89453125 359.42578125 C136.0621846 359.44328934 135.22983795 359.46079742 134.37226868 359.47883606 C130.54390581 359.46443878 128.61997083 359.44610185 125.4440918 357.16088867 C124 355 124 355 124 352 C123.154375 352.01160156 122.30875 352.02320313 121.4375 352.03515625 C111.0503609 352.11778122 111.0503609 352.11778122 106.4375 351.3125 C102.36976497 350.94270591 102.05269368 351.63662425 99 354 C95.28886542 354.21410392 92.98703208 353.70743554 89.9453125 351.52734375 C81.38551711 343.66202232 78.25834307 332.37772949 74.53125 321.67578125 C74.12845825 320.53070602 73.7256665 319.3856308 73.31066895 318.20585632 C72.4646415 315.79734014 71.62104712 313.38796804 70.77978516 310.9777832 C69.50886679 307.33789435 68.2296929 303.70098988 66.94921875 300.06445312 C54.49382319 264.60221988 46.04861667 231.37003797 61.14453125 195.11328125 C62.20794894 191.24321778 62.07369718 188.86619355 61 185 C58.77523334 182.3841668 58.77523334 182.3841668 56 180 C55.14355559 178.92944449 54.30548093 177.84398772 53.484375 176.74609375 C50.72597446 173.30113767 48.02769575 169.9675041 44 168 C38.75663479 167.57287193 33.88364326 169.58491503 29.0324707 171.34960938 C23.47320544 173.12857426 17.6042562 173.13785628 11.8125 173.125 C10.64332031 173.12757813 9.47414062 173.13015625 8.26953125 173.1328125 C5.38346929 173.01557701 2.80318258 172.66516197 0 172 C-0.26941406 172.59941406 -0.53882812 173.19882813 -0.81640625 173.81640625 C-4.66515266 180.9168988 -12.72394164 184.39790086 -20 187 C-37.66828728 191.75589881 -54.26544358 188.00972594 -70.0625 179.375 C-81.70944227 172.02298491 -89.61121826 161.90163607 -93.25 148.625 C-94.5620937 144.30052551 -97.01232417 141.01348518 -99.6875 137.4375 C-116.09404031 115.33920068 -121.69532491 89.67472701 -118.71582031 62.3984375 C-115.67805988 43.69951537 -104.20217804 25.30541721 -89 14 C-63.07636656 -3.83920136 -30.35486647 -7.91031758 0 0 Z M-56.875 64.9375 C-60.64015997 70.36375996 -61.73567713 75.44897032 -61 82 C-59.39936069 90.08390105 -55.89436201 99.10563799 -50 105 C-47.96562664 105.42365301 -45.92851517 105.83767642 -43.88061523 106.19018555 C-26.89289359 109.13816686 -11.88770903 116.00874076 -1.625 130.4375 C3.65410962 139.08148119 5.65253735 146.88883703 6 157 C15.45617311 157.47545004 23.83100739 156.10435896 33 154 C32.5153125 153.20980469 32.030625 152.41960937 31.53125 151.60546875 C20.93495835 133.77517029 13.86616013 116.27333488 13.625 95.3125 C13.61082031 94.36213867 13.59664063 93.41177734 13.58203125 92.43261719 C13.62409603 86.36056587 14.55794172 81.17173948 16.45458984 75.39916992 C17.05208313 72.77089484 17.08948921 71.45857302 16 69 C13.34638396 67.46754435 10.86947509 66.24381944 8.0625 65.0625 C7.26215332 64.71695068 6.46180664 64.37140137 5.63720703 64.01538086 C-13.09986354 56.17259414 -40.98293779 47.23318509 -56.875 64.9375 Z M257 70 C257.19916016 70.88751953 257.19916016 70.88751953 257.40234375 71.79296875 C257.57894531 72.58316406 257.75554687 73.37335938 257.9375 74.1875 C258.11152344 74.96480469 258.28554688 75.74210937 258.46484375 76.54296875 C258.64144531 77.35378906 258.81804687 78.16460937 259 79 C259.25668457 80.1612439 259.25668457 80.1612439 259.51855469 81.34594727 C264.28028376 107.59582392 254.713016 132.14488075 241 154 C250.16899261 156.10435896 258.54382689 157.47545004 268 157 C268.01417969 156.27296875 268.02835937 155.5459375 268.04296875 154.796875 C268.69552087 141.04037079 274.16072791 130.52959011 283.875 121 C293.09293458 113.19548206 303.31683367 109.02729302 315.125 107.0625 C321.18488683 106.0899849 321.18488683 106.0899849 326.39453125 103.078125 C327.96998582 100.76479931 329.00542841 98.61179515 330 96 C330.38929688 95.20464844 330.77859375 94.40929687 331.1796875 93.58984375 C334.85959384 85.98893376 336.2099009 78.82962647 334 70.5 C331.85373489 64.56739926 327.5185403 61.00218193 322.1328125 57.9375 C301.84404719 48.55958181 274.99718125 60.37747012 257 70 Z " fill="#010101" transform="translate(119,48)"/>
<path d="M0 0 C1.11503906 0.51175781 2.23007812 1.02351563 3.37890625 1.55078125 C17.66868433 8.61975057 27.62845642 18.78917103 33.375 33.75 C38.99910464 52.19894576 32.68723288 71.6227529 24 88 C16.21478466 101.40957367 5.59944609 114.50740909 -6.6875 124.09765625 C-11.48302318 128.04262211 -13.53512084 133.35746578 -14.30859375 139.41796875 C-14.65771825 146.91885574 -12.97760011 152.66273943 -10.35864258 159.55688477 C-7.8304507 166.24201473 -6.00437468 172.89889484 -5 180 C-4.82339844 181.13050781 -4.64679688 182.26101563 -4.46484375 183.42578125 C-5.27111308 188.81071874 -8.49578141 191.04070758 -12.4375 194.5625 C-19.72896561 201.45467488 -25.16390759 208.23911311 -30 217 C-30.57105469 218.02867187 -31.14210938 219.05734375 -31.73046875 220.1171875 C-35.27245407 226.85133243 -37.91498232 233.68853802 -40 241 C-40.30035156 241.98613281 -40.60070312 242.97226562 -40.91015625 243.98828125 C-42.98860171 251.90570838 -43.28135636 259.53086051 -43.3125 267.6875 C-43.31797852 268.73252686 -43.32345703 269.77755371 -43.32910156 270.85424805 C-43.27329444 276.95310062 -42.69027624 282.66694997 -41.42651367 288.63598633 C-41 291 -41 291 -41 295 C-45.44069048 297.21044035 -49.61935177 297.29516592 -54.4765625 297.30859375 C-56.1328163 297.33373548 -57.78906622 297.35913374 -59.4453125 297.38476562 C-62.04361108 297.41358634 -64.6418428 297.43762107 -67.24023438 297.45629883 C-69.75684515 297.47790369 -72.27270896 297.51731496 -74.7890625 297.55859375 C-75.95630356 297.55876747 -75.95630356 297.55876747 -77.14712524 297.5589447 C-81.31405102 297.60201217 -81.31405102 297.60201217 -84.97021484 299.39086914 C-86.15107481 301.23606782 -86.62916417 302.8491522 -87 305 C-94.35342179 305.20177072 -100.94887561 305.21211746 -108 303 C-107.7834375 301.2675 -107.7834375 301.2675 -107.5625 299.5 C-107.55144922 296.74417364 -107.64296031 295.44209381 -109.39379883 293.27416992 C-109.99216553 292.70287354 -110.59053223 292.13157715 -111.20703125 291.54296875 C-115.99000196 286.3206778 -117.87144556 280.43321815 -120.125 273.8125 C-120.5825044 272.50897244 -121.04161329 271.20600707 -121.50219727 269.90356445 C-122.48936961 267.10332908 -123.46546297 264.29953121 -124.43505859 261.49316406 C-125.78554238 257.5968163 -127.17465623 253.71536759 -128.57598877 249.83705139 C-129.75081567 246.58527946 -130.9169328 243.33042033 -132.08172607 240.07504272 C-132.64242085 238.51074789 -133.20536792 236.9472581 -133.77081299 235.38467407 C-138.83736888 221.34589419 -143.83634356 206.98227572 -143.4375 191.875 C-143.42283691 190.9454248 -143.40817383 190.01584961 -143.39306641 189.05810547 C-143.09298781 178.00489177 -140.96275526 168.17912075 -136.8125 157.9375 C-133.24400721 149.01788859 -131.92246771 140.0394972 -135.6875 130.875 C-138.93101894 125.24491456 -143.83915595 121.2423654 -148.65625 116.9921875 C-162.68150362 104.58461938 -172.47898736 89.43536279 -179 72 C-179.43441406 70.84886719 -179.86882812 69.69773437 -180.31640625 68.51171875 C-184.30705162 56.45635452 -185.3040754 41.83216821 -180 30 C-179.67128906 29.25878906 -179.34257812 28.51757812 -179.00390625 27.75390625 C-171.15645024 12.08614805 -155.78233561 1.88419668 -139.62597656 -3.84130859 C-97.1729435 -17.74323992 -40.98518694 -19.36872895 0 0 Z " fill="#ECA0AA" transform="translate(330,95)"/>
<path d="M0 0 C0.9580957 0.32145996 0.9580957 0.32145996 1.93554688 0.64941406 C15.59969347 5.33835947 26.71183557 12.8865073 37 23 C38.03060547 24.01126953 38.03060547 24.01126953 39.08203125 25.04296875 C55.31768195 42.11121692 62.43832386 64.91431899 62.21484375 88.15625 C61.00257983 109.84475362 52.47034365 129.86400528 38 146 C37.44828125 146.63421875 36.8965625 147.2684375 36.328125 147.921875 C21.52839592 163.89385985 -1.16046119 173.21979912 -22.60546875 174.2578125 C-47.83759679 175.05016136 -70.13187765 166.67645817 -88.6953125 149.26953125 C-105.85586173 132.37075311 -115.85089516 110.34102199 -116.37304688 86.16674805 C-116.38992101 63.66720398 -109.17521742 42.9179544 -94 26 C-93.18789063 25.09378906 -92.37578125 24.18757813 -91.5390625 23.25390625 C-68.25073521 -1.36615823 -32.21280957 -10.94148173 0 0 Z " fill="#E5879C" transform="translate(417,278)"/>
<path d="M0 0 C1.0979187 -0.00574036 1.0979187 -0.00574036 2.21801758 -0.01159668 C3.75766382 -0.0143053 5.29735691 -0.00701781 6.83691406 0.00976562 C9.18139113 0.03119416 11.5228047 0.00993221 13.8671875 -0.015625 C15.36979837 -0.01298153 16.87240734 -0.00785615 18.375 0 C19.06891846 -0.00809692 19.76283691 -0.01619385 20.4777832 -0.02453613 C26.45601306 0.08951884 29.844705 2.25776846 34.04418945 6.33300781 C35.69818532 9.51314422 35.52433355 12.13545437 35.48046875 15.703125 C35.47622391 16.3855426 35.47197906 17.06796021 35.46760559 17.77105713 C35.45086972 19.94153004 35.41322959 22.11105979 35.375 24.28125 C35.35994646 25.75649697 35.34625922 27.23175855 35.33398438 28.70703125 C35.30098377 32.31540844 35.24923767 35.9232371 35.1875 39.53125 C36.09516113 39.50506592 37.00282227 39.47888184 37.93798828 39.4519043 C41.3263351 39.36636186 44.71352446 39.30385048 48.10253906 39.2565918 C49.56528907 39.23154471 51.02791512 39.19749608 52.49023438 39.15405273 C54.60057219 39.09295644 56.70924752 39.06494565 58.8203125 39.04296875 C60.08762207 39.01678467 61.35493164 38.99060059 62.66064453 38.96362305 C67.31487114 39.71269385 68.88114914 41.23451603 72.1875 44.53125 C74.65607338 49.46839677 73.50038238 57.09612226 73.53759766 62.58789062 C73.55413423 64.37643466 73.58139412 66.16491323 73.61962891 67.953125 C73.67457034 70.53680573 73.69629843 73.11893772 73.7109375 75.703125 C73.73360687 76.49708679 73.75627625 77.29104858 73.77963257 78.10906982 C73.76407175 82.22515408 73.4139647 84.76506294 70.77978516 88.02050781 C66.78247519 91.89207833 64.70388535 91.65123531 59.2109375 91.62890625 C58.18306625 91.62678383 58.18306625 91.62678383 57.13442993 91.62461853 C54.94374239 91.61901675 52.7531567 91.60646406 50.5625 91.59375 C49.07812648 91.58873522 47.59375135 91.58417228 46.109375 91.58007812 C42.46871685 91.56904677 38.82811836 91.55178099 35.1875 91.53125 C35.20321045 92.41385498 35.2189209 93.29645996 35.23510742 94.20581055 C35.28637998 97.49525886 35.32391917 100.78427961 35.35229492 104.07397461 C35.3673376 105.49494141 35.38777704 106.91586213 35.41381836 108.33666992 C35.45040347 110.38471886 35.46727097 112.4321515 35.48046875 114.48046875 C35.4961792 115.71112061 35.51188965 116.94177246 35.52807617 118.2097168 C35.00557298 123.30552751 33.36278877 125.53880283 29.48828125 128.81054688 C25.6680671 130.8020313 22.58260398 131.11159604 18.375 131.0625 C17.6430542 131.0663269 16.9111084 131.07015381 16.15698242 131.07409668 C14.61733618 131.0768053 13.07764309 131.06951781 11.53808594 131.05273438 C9.19360887 131.03130584 6.8521953 131.05256779 4.5078125 131.078125 C3.00520163 131.07548153 1.50259266 131.07035615 0 131.0625 C-0.69391846 131.07059692 -1.38783691 131.07869385 -2.1027832 131.08703613 C-8.3459948 130.96792573 -11.862572 128.47472128 -16.171875 124.1796875 C-19.34124555 118.96630261 -18.21495837 112.00244202 -18.0625 106.15625 C-18.04445313 104.84785156 -18.02640625 103.53945313 -18.0078125 102.19140625 C-17.96079348 98.97060311 -17.89508181 95.75130526 -17.8125 92.53125 C-18.62928223 92.55219727 -19.44606445 92.57314453 -20.28759766 92.59472656 C-24.00410555 92.6781013 -27.72041633 92.72997988 -31.4375 92.78125 C-32.72269531 92.81476563 -34.00789063 92.84828125 -35.33203125 92.8828125 C-46.00205349 92.99338268 -46.00205349 92.99338268 -49.4609375 90.890625 C-53.75597128 86.581322 -56.24917573 83.0647448 -56.36828613 76.8215332 C-56.35614075 75.78065552 -56.35614075 75.78065552 -56.34375 74.71875 C-56.3475769 73.9868042 -56.35140381 73.2548584 -56.35534668 72.50073242 C-56.3580553 70.96108618 -56.35076781 69.42139309 -56.33398438 67.88183594 C-56.31255584 65.53735887 -56.33381779 63.1959453 -56.359375 60.8515625 C-56.35673153 59.34895163 -56.35160615 57.84634266 -56.34375 56.34375 C-56.35184692 55.64983154 -56.35994385 54.95591309 -56.36828613 54.2409668 C-56.24917573 47.9977552 -53.75597128 44.481178 -49.4609375 40.171875 C-44.24755261 37.00250445 -37.28369202 38.12879163 -31.4375 38.28125 C-30.12910156 38.29929687 -28.82070313 38.31734375 -27.47265625 38.3359375 C-24.25185311 38.38295652 -21.03255526 38.44866819 -17.8125 38.53125 C-17.83344727 37.71446777 -17.85439453 36.89768555 -17.87597656 36.05615234 C-17.9593513 32.33964445 -18.01122988 28.62333367 -18.0625 24.90625 C-18.11277344 22.97845703 -18.11277344 22.97845703 -18.1640625 21.01171875 C-18.27463268 10.34169651 -18.27463268 10.34169651 -16.171875 6.8828125 C-11.14166705 1.86926087 -7.07573654 -0.08256258 0 0 Z " fill="#040203" transform="translate(380.8125,297.46875)"/>
<path d="M0 0 C1.42653911 6.76310555 2.60300705 13.54967428 3.69775391 20.3737793 C14.8763194 89.72261628 40.13510195 156.86001736 91 207 C86.55930952 209.21044035 82.38064823 209.29516592 77.5234375 209.30859375 C75.8671837 209.33373548 74.21093378 209.35913374 72.5546875 209.38476562 C69.95638892 209.41358634 67.3581572 209.43762107 64.75976562 209.45629883 C62.24315485 209.47790369 59.72729104 209.51731496 57.2109375 209.55859375 C56.04369644 209.55876747 56.04369644 209.55876747 54.85287476 209.5589447 C50.68594898 209.60201217 50.68594898 209.60201217 47.02978516 211.39086914 C45.84892519 213.23606782 45.37083583 214.8491522 45 217 C37.64657821 217.20177072 31.05112439 217.21211746 24 215 C24.144375 213.845 24.28875 212.69 24.4375 211.5 C24.44855078 208.74417364 24.35703969 207.44209381 22.60620117 205.27416992 C21.70865112 204.41722534 21.70865112 204.41722534 20.79296875 203.54296875 C16.00999804 198.3206778 14.12855444 192.43321815 11.875 185.8125 C11.4174956 184.50897244 10.95838671 183.20600707 10.49780273 181.90356445 C9.51063039 179.10332908 8.53453703 176.29953121 7.56494141 173.49316406 C6.21445762 169.5968163 4.82534377 165.71536759 3.42401123 161.83705139 C2.24918433 158.58527946 1.0830672 155.33042033 -0.08172607 152.07504272 C-0.64242085 150.51074789 -1.20536792 148.9472581 -1.77081299 147.38467407 C-6.83736888 133.34589419 -11.83634356 118.98227572 -11.4375 103.875 C-11.42283691 102.9454248 -11.40817383 102.01584961 -11.39306641 101.05810547 C-11.09298781 90.00489177 -8.96275526 80.17912075 -4.8125 69.9375 C-1.24400721 61.01788859 0.07753229 52.0394972 -3.6875 42.875 C-6.9290816 37.24827739 -11.8313631 33.24819806 -16.6484375 29.00390625 C-25.27629976 21.3742077 -31.93386659 12.70920236 -38 3 C-35 3 -35 3 -32.203125 3.98046875 C-23.65911768 6.69996376 -14.17308308 5.43963728 -6 2 C-3 0 -3 0 0 0 Z " fill="#E6889D" transform="translate(198,183)"/>
<path d="M0 0 C4.23102415 1.71102873 8.13155562 2.79159057 12.69238281 3.12060547 C14.65669687 1.82795848 14.65669687 1.82795848 15.69238281 0.12060547 C22.25589505 1.96659329 27.02971752 7.38553854 31.69238281 12.12060547 C31.34175781 12.80123047 30.99113281 13.48185547 30.62988281 14.18310547 C29.08690013 19.01778453 30.13189837 22.89759968 32.21582031 27.44482422 C33.13234375 29.10964844 33.13234375 29.10964844 34.06738281 30.80810547 C41.89895674 45.85333836 43.19479752 63.69751184 38.69238281 80.12060547 C35.56707452 89.26358811 31.58450502 97.77624099 26.69238281 106.12060547 C23.29119236 104.98687532 22.88529973 104.27068568 20.81738281 101.49560547 C16.18372299 95.95122632 10.09223511 93.20023364 3.69238281 90.12060547 C4.18609375 89.03521484 4.67980469 87.94982422 5.18847656 86.83154297 C5.83597816 85.38639448 6.48309317 83.94107274 7.12988281 82.49560547 C7.45537109 81.78275391 7.78085937 81.06990234 8.11621094 80.33544922 C12.50017416 70.48283084 13.67716553 57.60240252 10.56738281 47.12060547 C7.30314957 39.11255663 1.08165708 31.80201198 -6.69433594 27.93310547 C-14.73942442 24.58201195 -22.3039074 22.75913126 -30.99511719 22.87060547 C-31.78402344 22.87882324 -32.57292969 22.88704102 -33.38574219 22.89550781 C-53.59292097 23.27747278 -71.23496874 30.70379283 -89.30761719 39.12060547 C-89.9740625 38.40775391 -90.64050781 37.69490234 -91.32714844 36.96044922 C-96.88147509 31.14806532 -102.24356741 26.49011087 -109.28808594 22.46044922 C-109.95453125 22.01830078 -110.62097656 21.57615234 -111.30761719 21.12060547 C-111.30761719 20.46060547 -111.30761719 19.80060547 -111.30761719 19.12060547 C-78.58161072 -0.37958045 -37.2048842 -15.2334242 0 0 Z " fill="#EA9FA9" transform="translate(456.3076171875,65.87939453125)"/>
<path d="M0 0 C-3.59581 3.69656825 -7.27955759 6.8206735 -11.42578125 9.86328125 C-15.19726006 12.99378035 -18.57474108 16.49877661 -22 20 C-22.5576001 19.75354736 -23.1152002 19.50709473 -23.68969727 19.25317383 C-34.96472788 14.29030725 -46.15791259 9.44971457 -58 6 C-58.81597656 5.75507812 -59.63195312 5.51015625 -60.47265625 5.2578125 C-75.61863254 1.46482358 -93.57538519 2.97043592 -107.26953125 10.3046875 C-114.65349876 14.8892968 -120.31276554 21.79225058 -122.62109375 30.28515625 C-124.75381551 45.56599773 -121.14330531 57.24517805 -115 71 C-115.845625 71.40089844 -116.69125 71.80179687 -117.5625 72.21484375 C-124.59865694 75.74091785 -129.5782689 78.94942842 -134.51171875 85.27734375 C-135.00285156 85.84582031 -135.49398437 86.41429687 -136 87 C-136.66 87 -137.32 87 -138 87 C-142.69076556 78.56345321 -147.24644001 70.30413429 -150 61 C-150.22429687 60.27554688 -150.44859375 59.55109375 -150.6796875 58.8046875 C-155.07866882 41.51006233 -152.03334584 23.41618098 -143.74609375 7.875 C-133.40911077 -9.14517779 -117.29487692 -19.09620577 -98.3125 -23.9375 C-63.40791824 -30.33071691 -29.93388842 -16.55754135 0 0 Z " fill="#EA9FA8" transform="translate(167,85)"/>
<path d="M0 0 C7.92 0 15.84 0 24 0 C24.02578125 2.17980469 24.0515625 4.35960937 24.078125 6.60546875 C24.11658777 8.72709822 24.16173384 10.84848811 24.20751953 12.9699707 C24.23566611 14.4392545 24.25691209 15.90868795 24.27099609 17.37817383 C24.2925153 19.49638114 24.33920334 21.61280153 24.390625 23.73046875 C24.41157227 25.00301514 24.43251953 26.27556152 24.45410156 27.58666992 C25.08425757 31.52683588 26.22081219 33.19252612 29 36 C31.9528472 37.4764236 34.68448983 37.22272939 37.9765625 37.31640625 C38.66181 37.33718735 39.3470575 37.35796844 40.05307007 37.37937927 C42.24361069 37.44480185 44.43427189 37.50372554 46.625 37.5625 C48.1093875 37.60569218 49.59376278 37.6493067 51.078125 37.69335938 C54.71862818 37.80127138 58.35922195 37.90039781 62 38 C62 45.59 62 53.18 62 61 C58.96425781 61.03867187 58.96425781 61.03867187 55.8671875 61.078125 C53.89124627 61.11987024 51.91530538 61.161756 49.93945312 61.20751953 C48.57401836 61.23561623 47.20842436 61.25688677 45.84277344 61.27099609 C43.87145962 61.29257982 41.90050369 61.3413546 39.9296875 61.390625 C38.74616699 61.41157227 37.56264648 61.43251953 36.34326172 61.45410156 C32.33491384 62.10859739 30.15462176 63.4811092 27 66 C24.54621071 69.68068393 24.69353786 71.68053719 24.5859375 76.07421875 C24.56657135 76.7580513 24.5472052 77.44188385 24.5272522 78.1464386 C24.46756003 80.32666625 24.42111369 82.50694702 24.375 84.6875 C24.33681057 86.1673405 24.29775826 87.647159 24.2578125 89.12695312 C24.16024481 92.75118641 24.08059845 96.37519062 24 100 C16.08 100 8.16 100 0 100 C-0.02578125 97.82019531 -0.0515625 95.64039063 -0.078125 93.39453125 C-0.11658777 91.27290178 -0.16173384 89.15151189 -0.20751953 87.0300293 C-0.23566611 85.5607455 -0.25691209 84.09131205 -0.27099609 82.62182617 C-0.2925153 80.50361886 -0.33920334 78.38719847 -0.390625 76.26953125 C-0.41157227 74.99698486 -0.43251953 73.72443848 -0.45410156 72.41333008 C-1.08425757 68.47316412 -2.22081219 66.80747388 -5 64 C-7.9528472 62.5235764 -10.68448983 62.77727061 -13.9765625 62.68359375 C-14.66181 62.66281265 -15.3470575 62.64203156 -16.05307007 62.62062073 C-18.24361069 62.55519815 -20.43427189 62.49627446 -22.625 62.4375 C-24.1093875 62.39430782 -25.59376278 62.3506933 -27.078125 62.30664062 C-30.71862818 62.19872862 -34.35922195 62.09960219 -38 62 C-38 54.08 -38 46.16 -38 38 C-35.89238281 37.96261719 -33.78476562 37.92523438 -31.61328125 37.88671875 C-29.56117665 37.84044295 -27.5092501 37.78923169 -25.45727539 37.73754883 C-24.03648798 37.70439443 -22.61557187 37.67633308 -21.19458008 37.65356445 C-19.1460918 37.61984153 -17.0987728 37.56752255 -15.05078125 37.51171875 C-13.82012939 37.48553467 -12.58947754 37.45935059 -11.3215332 37.43237305 C-7.72450546 36.96413812 -5.83819498 36.23229888 -3 34 C-0.51759639 30.61790172 -0.69009707 27.14381812 -0.5859375 23.046875 C-0.56657135 22.38665344 -0.5472052 21.72643188 -0.5272522 21.04620361 C-0.46770651 18.94759847 -0.42117278 16.84893772 -0.375 14.75 C-0.33679706 13.3228934 -0.29774398 11.89580928 -0.2578125 10.46875 C-0.16043214 6.97928695 -0.08067024 3.49004915 0 0 Z " fill="#F7F7F7" transform="translate(378,313)"/>
<path d="M0 0 C5.6895815 4.24522805 8.89899501 9.70829152 12 16 C12.495 16.99 12.495 16.99 13 18 C13.82089856 23.49690304 13.4998469 27.98599648 10.625 32.8125 C6.41145246 38.49425265 0.53923114 40.82025629 -6 43 C-19.51744607 43.96553186 -31.60122527 42.45236413 -42.7109375 33.984375 C-49.52029889 28.08137912 -55.03956764 22.13464039 -56.2734375 12.96875 C-56.55502776 7.3369449 -55.30195812 2.59427027 -51.5234375 -1.6640625 C-36.71179103 -15.39357955 -15.47545942 -9.14374317 0 0 Z " fill="#F3EB84" transform="translate(97,178)"/>
<path d="M0 0 C3.70803363 3.19461359 6.10566515 6.1329356 7 11 C7.58229315 19.7343973 5.58924965 25.45473716 -0.0625 32.125 C-8.95614116 41.4776678 -20.38309137 46.85147856 -33.29541016 47.57495117 C-41.91732453 47.77068677 -48.97186467 46.38490622 -56 41 C-60.17232998 36.85921883 -62.31650532 32.84426586 -62.625 26.9375 C-62.01538669 18.51964816 -57.52686114 12.53944767 -51.91015625 6.47265625 C-37.8768464 -5.45094796 -16.23881456 -10.27773074 0 0 Z " fill="#F3EC84" transform="translate(464,174)"/>
<path d="M0 0 C-0.43957031 0.89589844 -0.87914062 1.79179688 -1.33203125 2.71484375 C-3.64186393 8.1126009 -4.58102343 13.82286172 -5.6875 19.5625 C-5.91244141 20.67302734 -6.13738281 21.78355469 -6.36914062 22.92773438 C-7.86064707 30.40263092 -7.86064707 30.40263092 -8 38 C-7.34 38.66 -6.68 39.32 -6 40 C-5.72010927 42.98451903 -5.58365064 45.82555939 -5.5625 48.8125 C-5.52962891 49.62009766 -5.49675781 50.42769531 -5.46289062 51.25976562 C-5.42317026 55.66872612 -5.57271224 57.45073075 -8.3671875 61.04296875 C-11 63 -11 63 -13.5625 63.5 C-16.5146405 62.89443272 -17.90396408 62.17089435 -20 60 C-20.38598143 58.34473349 -20.7254736 56.6773563 -21 55 C-35.59318997 55.31793442 -46.01168733 56.31129775 -56.875 66.8125 C-57.431875 67.4003125 -57.431875 67.4003125 -58 68 C-60.57060786 64.14408821 -60.34381662 60.9103309 -60.3125 56.4375 C-60.30512817 55.21848999 -60.30512817 55.21848999 -60.29760742 53.97485352 C-60.1792103 47.89774168 -59.50828646 42.59540825 -57 37 C-56.67128906 36.25878906 -56.34257812 35.51757812 -56.00390625 34.75390625 C-48.17330671 19.11980267 -32.85003172 8.95950475 -16.74462891 3.19238281 C-2.83114611 -1.41557305 -2.83114611 -1.41557305 0 0 Z " fill="#E5889C" transform="translate(207,88)"/>
<path d="M0 0 C1.19882813 0.00483398 1.19882813 0.00483398 2.421875 0.00976562 C3.246875 0.01814453 4.071875 0.02652344 4.921875 0.03515625 C5.76234375 0.03966797 6.6028125 0.04417969 7.46875 0.04882812 C9.53648901 0.06057664 11.60419124 0.07851103 13.671875 0.09765625 C13.94 0.88140625 14.208125 1.66515625 14.484375 2.47265625 C15.52001932 5.37880548 15.52001932 5.37880548 18.671875 7.09765625 C19.93 6.97390625 21.188125 6.85015625 22.484375 6.72265625 C25.38342134 6.62102916 26.31905262 6.77436192 28.4921875 8.765625 C32.66858295 14.30388853 34.51631415 19.06066335 33.671875 26.09765625 C31.74207506 33.26372862 27.8007556 38.01173585 21.671875 42.09765625 C19.00519381 43.41167307 16.54425624 44.23594188 13.671875 45.09765625 C13.06472656 45.28070313 12.45757812 45.46375 11.83203125 45.65234375 C4.33503445 47.19783676 -3.71668894 47.09206553 -10.328125 43.09765625 C-14.92222642 39.17657606 -16.92607836 35.27142762 -19.078125 29.78515625 C-19.38105469 29.06392578 -19.68398437 28.34269531 -19.99609375 27.59960938 C-24.61434214 16.15661614 -24.61434214 16.15661614 -22.4296875 10.9609375 C-16.29587641 4.51881316 -9.09008776 -0.0649292 0 0 Z " fill="#FEFDFD" transform="translate(172.328125,142.90234375)"/>
<path d="M0 0 C13.06819199 -0.51247812 23.42795015 -0.70592017 33.625 8.53515625 C35.49446929 10.52677836 36.94840243 12.13302934 37.11499023 14.93212891 C36.43662514 20.96611512 34.65001227 25.90687673 32.0625 31.375 C31.70220703 32.16777344 31.34191406 32.96054688 30.97070312 33.77734375 C26.95391427 42.52107197 26.95391427 42.52107197 24.109375 43.94921875 C14.29448948 47.02043293 3.7430794 47.78580709 -5.75 43.3203125 C-12.93994294 39.10121404 -17.76134304 34.16617004 -20 26 C-20.84517775 20.67635161 -19.98108667 16.52302806 -17 12 C-13.22053333 8.11554814 -10.28590629 7.58732292 -5 7 C-1.67098753 4.78065836 -1.24976756 3.65316671 0 0 Z " fill="#FEFDFD" transform="translate(326,143)"/>
<path d="M0 0 C2.16796875 1.27734375 2.16796875 1.27734375 4.1875 2.9375 C8.71308766 6.59777453 11.00053823 7.39996412 17 7 C20.39326461 5.64269415 22.78321898 4.18505697 25.5625 1.8125 C28 0 28 0 30.5 -0.5625 C34.29082295 0.29043516 35.74689043 1.88540736 38 5 C38.34950274 8.77462957 37.89826645 10.86946413 35.51953125 13.86328125 C29.25919074 19.89127923 21.54840401 23.08249142 12.875 23.5 C4.79660451 23.10374959 -1.62796338 19.31122966 -7.44921875 13.86328125 C-9 12 -9 12 -10.3125 8.375 C-10 5 -10 5 -7.875 2.0625 C-4.68301054 -0.22740548 -3.78924545 -0.45860762 0 0 Z " fill="#050404" transform="translate(242,135)"/>
<path d="M0 0 C0.66 0.33 1.32 0.66 2 1 C2.33 1.99 2.66 2.98 3 4 C4.62689134 5.61070961 4.62689134 5.61070961 6.625 7.1875 C17.32097397 16.28389588 17.32097397 16.28389588 19 23 C12.4 25.97 5.8 28.94 -1 32 C-2.588125 30.329375 -4.17625 28.65875 -5.8125 26.9375 C-10.42128306 22.2012012 -15.21725201 18.63656493 -20.98046875 15.33984375 C-21.64691406 14.89769531 -22.31335938 14.45554687 -23 14 C-23 13.34 -23 12.68 -23 12 C-20.48168311 10.55793859 -17.96052215 9.12128792 -15.4375 7.6875 C-14.73302734 7.28337891 -14.02855469 6.87925781 -13.30273438 6.46289062 C-8.96560274 4.00451647 -4.68256956 1.73012974 0 0 Z " fill="#E4879B" transform="translate(368,73)"/>
<path d="M0 0 C3.06777183 1.40544349 6.12815317 2.82632146 9.1875 4.25 C10.05181641 4.64574219 10.91613281 5.04148437 11.80664062 5.44921875 C16.32623668 7.56182687 20.25889366 9.62293507 24 13 C22.74896484 13.92619141 22.74896484 13.92619141 21.47265625 14.87109375 C14.43072773 20.14860873 8.08701123 25.60347972 2 32 C-4.93 29.03 -11.86 26.06 -19 23 C-12.22675367 12.84013051 -12.22675367 12.84013051 -8.3125 9.0625 C-7.19294922 7.96615234 -7.19294922 7.96615234 -6.05078125 6.84765625 C-4 5 -4 5 -1 3 C-0.67 2.01 -0.34 1.02 0 0 Z " fill="#E4879B" transform="translate(143,73)"/>
<path d="M0 0 C2.46788657 1.66438862 3.78774669 2.96536301 4.39697266 5.93505859 C4.57633797 8.28231476 4.59463824 10.5838468 4.5625 12.9375 C4.58634766 13.73607422 4.61019531 14.53464844 4.63476562 15.35742188 C4.6239184 19.72162279 4.39869215 21.49048718 1.625 25.03515625 C-1 27 -1 27 -3.5625 27.5 C-6.45183375 26.90731615 -7.88353148 26.04088035 -10 24 C-11.27346955 20.17959134 -11.26233806 16.54535774 -11.3125 12.5625 C-11.34150391 11.79873047 -11.37050781 11.03496094 -11.40039062 10.24804688 C-11.44278647 6.50090642 -11.43713818 4.6078212 -9.19921875 1.49609375 C-5.97779109 -0.69539256 -3.80319481 -0.54331354 0 0 Z " fill="#050404" transform="translate(197,124)"/>
<path d="M0 0 C2.1953125 1.5 2.1953125 1.5 4 4 C4.34612503 6.98019513 4.4705768 9.53711928 4.375 12.5 C4.37371094 13.25925781 4.37242187 14.01851562 4.37109375 14.80078125 C4.25984889 21.85864977 4.25984889 21.85864977 2 25 C-1.09173752 26.54586876 -3.59429552 26.29359521 -7 26 C-9.1953125 24.54296875 -9.1953125 24.54296875 -11 22 C-11.58697897 18.9878711 -11.55865759 16.05997077 -11.5 13 C-11.51546875 12.19304687 -11.5309375 11.38609375 -11.546875 10.5546875 C-11.52159126 6.72420158 -11.46042207 4.64300324 -9.1875 1.46875 C-5.96971145 -0.69176517 -3.78357952 -0.54051136 0 0 Z " fill="#030202" transform="translate(322,124)"/>
</svg>
