<?xml version="1.0" encoding="UTF-8"?>
<svg version="1.1" xmlns="http://www.w3.org/2000/svg" width="512" height="512">
<path d="M0 0 C5.90725074 4.89691972 10.12147819 10.2211526 13.80859375 16.93359375 C14.95435399 19.12728201 14.95435399 19.12728201 17 21 C24.00960864 14.14738826 24.00960864 14.14738826 30.5 6.8125 C38.99747008 -3.03503542 52.50704198 -10.06973677 65.4921875 -11.22094727 C84.71763102 -12.05691328 100.17277875 -8.77642134 115.0625 4.1875 C119.7853764 8.63658647 124.19618529 13.36261234 128.50390625 18.2109375 C129.97462681 19.85427784 131.47242342 21.47515419 133.02734375 23.0390625 C135.93425019 26.03488607 137.33750558 28.11061574 137.375 32.25 C137.25125 33.4875 137.1275 34.725 137 36 C137 40.36771302 139.15715217 42.24222898 141.99609375 45.40234375 C144.04646498 47.39920073 144.04646498 47.39920073 147.625 46.8125 C148.73875 46.544375 149.8525 46.27625 151 46 C155.58331433 47.85515104 158.03698861 51.19041392 161 55 C164.19295321 53.56514202 166.96034912 51.67911158 169.82080078 49.67431641 C189.65600359 35.86801908 213.44343476 26.25975152 237.9375 29.75 C247.32520328 31.4676992 254.77099805 34.76706095 262 41 C262.60714844 41.50144531 263.21429688 42.00289062 263.83984375 42.51953125 C273.39185418 51.11007017 277.25146518 63.9344116 278.28125 76.40625 C279.11239211 107.1585081 262.61154822 133.11276058 242.98510742 155.28173828 C239.40960888 159.28245237 239.40960888 159.28245237 237 164 C237.47443099 165.94279024 237.47443099 165.94279024 238.640625 167.80859375 C239.24970703 168.91170898 239.24970703 168.91170898 239.87109375 170.03710938 C240.32613281 170.82923828 240.78117187 171.62136719 241.25 172.4375 C242.19586551 174.16363831 243.13847064 175.89156644 244.078125 177.62109375 C244.80999023 178.95889893 244.80999023 178.95889893 245.55664062 180.32373047 C269.74921125 225.18147051 282.81171494 275.95774818 276.53515625 326.90625 C276.459021 327.59098389 276.38288574 328.27571777 276.30444336 328.98120117 C276 331 276 331 275.40063477 332.98168945 C274.81056071 335.2326509 274.59642055 336.69781867 275 339 C277.48522971 342.54425634 280.60755364 345.2997436 283.8125 348.1875 C285.58205292 349.86690221 287.34641403 351.55179234 289.10546875 353.2421875 C289.9567334 354.05655273 290.80799805 354.87091797 291.68505859 355.70996094 C296.4078784 360.38197631 300.24529976 365.52669615 304 371 C304.37769531 371.54930176 304.75539063 372.09860352 305.14453125 372.66455078 C314.6466933 386.61191322 321.97586309 400.87223529 327 417 C327.51240234 418.52753906 327.51240234 418.52753906 328.03515625 420.0859375 C332.28139507 434.81939871 332.34306209 453.89503298 326 468 C325.649375 468.87140625 325.29875 469.7428125 324.9375 470.640625 C318.94194177 484.21390267 307.58289275 492.32100341 294.36328125 498.17578125 C270.36541029 506.54528666 244.9867482 499.58693755 223 489 C214.15806443 484.58559476 206.0954734 479.13959352 198.15625 473.296875 C195.15050566 471.1095264 192.10635097 469.03971238 189 467 C188.4831665 467.32162109 187.96633301 467.64324219 187.43383789 467.97460938 C156.35871843 487.21599945 122.12096823 500.87373754 85.03125 501.23828125 C84.20144119 501.2480751 83.37163239 501.25786896 82.51667786 501.26795959 C63.96868443 501.44175004 46.15959539 501.21016738 28 497 C27.08379883 496.79632813 26.16759766 496.59265625 25.22363281 496.3828125 C14.08973539 493.84686679 3.50795364 490.24619999 -7.0625 485.9375 C-8.08029541 485.52612793 -9.09809082 485.11475586 -10.14672852 484.69091797 C-15.37553966 482.47140233 -19.52148535 480.57621224 -23 476 C-23.0825 474.845 -23.165 473.69 -23.25 472.5 C-23.62880299 468.97677897 -23.62880299 468.97677897 -25.91015625 467.40625 C-30.07787593 464.69280836 -30.07787593 464.69280836 -34.79296875 464.375 C-35.52128906 464.58125 -36.24960938 464.7875 -37 465 C-42.63414663 465.53466902 -45.48995031 465.34866192 -50.07128906 461.64819336 C-50.62526367 461.16616455 -51.17923828 460.68413574 -51.75 460.1875 C-52.34780273 459.69193604 -52.94560547 459.19637207 -53.56152344 458.68579102 C-55.39711404 457.14827739 -57.20222291 455.58148824 -59 454 C-59.54269531 453.52498047 -60.08539063 453.04996094 -60.64453125 452.56054688 C-64.1713235 449.44944353 -67.59724445 446.24614337 -71 443 C-71.85207031 442.20078125 -72.70414062 441.4015625 -73.58203125 440.578125 C-81.26003904 433.17821827 -88.08275043 424.87587435 -94 416 C-95.85862772 415.22735748 -95.85862772 415.22735748 -98.04296875 414.82421875 C-98.8620874 414.63956055 -99.68120605 414.45490234 -100.52514648 414.26464844 C-101.40372314 414.07418945 -102.2822998 413.88373047 -103.1875 413.6875 C-121.29112795 409.42096775 -138.79652494 402.74327182 -150 387 C-155.89340449 377.43455117 -158.74505125 366.9717114 -156.3125 355.859375 C-153.07533654 344.25953927 -147.20740248 335.76254855 -138 328 C-136.98123779 327.599021 -136.98123779 327.599021 -135.94189453 327.18994141 C-133.32072855 326.06459675 -131.84279885 325.20107526 -130 323 C-129.13828608 318.36923632 -129.27910219 313.85748864 -129.51211548 309.17913818 C-129.66408719 306.07717324 -129.72346988 302.97573744 -129.78565979 299.87088013 C-129.81646958 298.33716302 -129.85130352 296.80352124 -129.89024353 295.26998901 C-130.77158465 258.78251695 -117.09152722 222.58152215 -102 190 C-103.25490234 190.2165625 -103.25490234 190.2165625 -104.53515625 190.4375 C-125.21777859 193.73572549 -145.15778441 192.62993747 -162.62890625 180.1171875 C-173.28476737 171.2102579 -179.1456953 159.46889361 -182 146 C-182.98450472 131.61129379 -182.71477023 117.69306206 -178 104 C-177.66097656 102.948125 -177.32195312 101.89625 -176.97265625 100.8125 C-162.19093508 58.72930807 -126.51880781 21.28306362 -87.09765625 1.00585938 C-59.81945583 -12.0744695 -26.2611576 -18.84843368 0 0 Z " fill="#D24358" transform="translate(182,11)"/>
<path d="M0 0 C5.90725074 4.89691972 10.12147819 10.2211526 13.80859375 16.93359375 C14.95435399 19.12728201 14.95435399 19.12728201 17 21 C24.00960864 14.14738826 24.00960864 14.14738826 30.5 6.8125 C38.99747008 -3.03503542 52.50704198 -10.06973677 65.4921875 -11.22094727 C84.71763102 -12.05691328 100.17277875 -8.77642134 115.0625 4.1875 C119.7853764 8.63658647 124.19618529 13.36261234 128.50390625 18.2109375 C129.97462681 19.85427784 131.47242342 21.47515419 133.02734375 23.0390625 C135.87438452 25.97318922 137.382499 28.19361967 137.625 32.25 C137 36 137 36 135.4375 38 C132.00154495 39.40962258 129.68263393 39.5168609 126 39 C123.6875 36.875 123.6875 36.875 121 34 C119.94062641 32.94345762 118.87661007 31.89155502 117.80859375 30.84375 C116.68486393 29.72919883 115.56116645 28.61461505 114.4375 27.5 C113.87353516 26.94441406 113.30957031 26.38882813 112.72851562 25.81640625 C110.2807196 23.38292482 108.00036088 21.00045769 105.859375 18.28515625 C100.38986912 11.56317949 91.08131331 7.17261076 82.75 5.25 C68.0404036 4.26936024 57.96457281 6.0995251 46 15 C45.13375 15.61875 44.2675 16.2375 43.375 16.875 C40.7272706 19.24402104 38.50009948 21.76821263 36.2421875 24.5078125 C34.4531251 26.49635225 32.69892306 28.17864237 30.6953125 29.9296875 C24.57705104 35.48998637 20.39974198 39.81433552 19.94799805 48.35961914 C19.93406755 51.78036586 19.99203514 55.19804562 20.05175781 58.61816406 C19.32223839 92.18982213 -10.2594024 126.43409795 -32.6484375 148.625 C-45.25339295 160.43504835 -59.83893702 171.42672845 -75.60546875 178.65234375 C-80.30044234 181.35964997 -82.03907477 185.80002136 -84.25 190.5625 C-84.94162231 192.00387329 -84.94162231 192.00387329 -85.6472168 193.47436523 C-94.08181415 211.34703293 -101.52456119 229.51901288 -106.40771484 248.69091797 C-106.970933 250.88667942 -107.56774408 253.07019736 -108.17578125 255.25390625 C-113.7044296 275.47995252 -113.5471411 296.19242213 -114 317 C-113.20078125 316.73445313 -112.4015625 316.46890625 -111.578125 316.1953125 C-99.68519258 312.3705901 -88.67036636 310.64023189 -76.1875 310.75 C-75.04385986 310.75821777 -73.90021973 310.76643555 -72.72192383 310.77490234 C-48.38541221 311.09609664 -22.14768086 316.28483313 -4.08203125 333.78125 C4.97992085 343.43826462 9.41148599 353.20038671 9.27734375 366.48046875 C8.25580936 379.44388406 1.54455992 388.18183097 -7.78515625 396.61328125 C-25.97204596 411.9446593 -50.22663135 414.77800546 -73 417 C-61.88689535 429.10820702 -50.83204847 440.48965058 -37.43359375 450.08984375 C-35 452 -35 452 -33 455 C-32.91796875 456.97265625 -32.91796875 456.97265625 -33.1875 459.0625 C-33.30158203 460.10083984 -33.30158203 460.10083984 -33.41796875 461.16015625 C-34 463 -34 463 -37 465 C-41.99755553 465.5650763 -44.04250673 465.56509591 -48.421875 462.98046875 C-49.5485166 462.07045051 -50.65744017 461.13816688 -51.75 460.1875 C-52.34780273 459.69193604 -52.94560547 459.19637207 -53.56152344 458.68579102 C-55.39711404 457.14827739 -57.20222291 455.58148824 -59 454 C-59.54269531 453.52498047 -60.08539063 453.04996094 -60.64453125 452.56054688 C-64.1713235 449.44944353 -67.59724445 446.24614337 -71 443 C-71.85207031 442.20078125 -72.70414062 441.4015625 -73.58203125 440.578125 C-81.26003904 433.17821827 -88.08275043 424.87587435 -94 416 C-95.85862772 415.22735748 -95.85862772 415.22735748 -98.04296875 414.82421875 C-98.8620874 414.63956055 -99.68120605 414.45490234 -100.52514648 414.26464844 C-101.40372314 414.07418945 -102.2822998 413.88373047 -103.1875 413.6875 C-121.29112795 409.42096775 -138.79652494 402.74327182 -150 387 C-155.89340449 377.43455117 -158.74505125 366.9717114 -156.3125 355.859375 C-153.07533654 344.25953927 -147.20740248 335.76254855 -138 328 C-136.98123779 327.599021 -136.98123779 327.599021 -135.94189453 327.18994141 C-133.32072855 326.06459675 -131.84279885 325.20107526 -130 323 C-129.13828608 318.36923632 -129.27910219 313.85748864 -129.51211548 309.17913818 C-129.66408719 306.07717324 -129.72346988 302.97573744 -129.78565979 299.87088013 C-129.81646958 298.33716302 -129.85130352 296.80352124 -129.89024353 295.26998901 C-130.77158465 258.78251695 -117.09152722 222.58152215 -102 190 C-103.25490234 190.2165625 -103.25490234 190.2165625 -104.53515625 190.4375 C-125.21777859 193.73572549 -145.15778441 192.62993747 -162.62890625 180.1171875 C-173.28476737 171.2102579 -179.1456953 159.46889361 -182 146 C-182.98450472 131.61129379 -182.71477023 117.69306206 -178 104 C-177.66097656 102.948125 -177.32195312 101.89625 -176.97265625 100.8125 C-162.19093508 58.72930807 -126.51880781 21.28306362 -87.09765625 1.00585938 C-59.81945583 -12.0744695 -26.2611576 -18.84843368 0 0 Z " fill="#020101" transform="translate(182,11)"/>
<path d="M0 0 C2.99870756 1.94755918 5.07947892 4.49855413 7.3203125 7.23828125 C8.04480591 8.11105713 8.04480591 8.11105713 8.78393555 9.00146484 C13.74740254 15.02059157 18.52135076 21.18030338 23.1953125 27.42578125 C23.71464355 28.11913574 24.23397461 28.81249023 24.76904297 29.52685547 C28.95381718 35.12895467 33.08845298 40.76635558 37.1953125 46.42578125 C37.76797852 47.21339844 38.34064453 48.00101563 38.93066406 48.8125 C56.17368965 72.64352337 71.39698552 97.97494135 84.23193359 124.44580078 C85.19389974 126.42287768 86.17277086 128.39097417 87.15234375 130.359375 C102.40554744 161.41215456 112.38412068 195.28727077 112.38061523 229.99121094 C112.38280737 232.42009877 112.40103114 234.84853555 112.41992188 237.27734375 C112.44657115 244.88908059 112.35282711 252.05782621 110.1953125 259.42578125 C106.62021161 258.13599004 103.8955802 256.60182941 100.8828125 254.30078125 C78.08008475 238.02761797 50.07185444 229.73150277 22.1953125 232.42578125 C12.99820532 233.99215148 5.36038903 238.63482899 -1.8046875 244.42578125 C-3.28582031 245.56853516 -3.28582031 245.56853516 -4.796875 246.734375 C-7.96423821 249.39660704 -10.23128151 252.50616319 -12.4296875 255.98828125 C-12.98269531 256.80522461 -12.98269531 256.80522461 -13.546875 257.63867188 C-19.68881225 267.20841566 -21.47373022 277.14881259 -21.2421875 288.36328125 C-21.22679932 289.51062744 -21.21141113 290.65797363 -21.19555664 291.84008789 C-21.01521221 299.7319827 -20.39103785 306.92536523 -17.8046875 314.42578125 C-17.58425781 315.11091797 -17.36382812 315.79605469 -17.13671875 316.50195312 C-9.2546639 340.87793757 4.90035261 363.88532705 23.5234375 381.61328125 C26.1953125 384.42578125 26.1953125 384.42578125 26.1953125 387.42578125 C18.22131475 386.97057272 10.88103623 385.55647694 3.1953125 383.42578125 C2.091875 383.13703125 0.9884375 382.84828125 -0.1484375 382.55078125 C-25.34838654 375.73998421 -48.37593216 363.55958203 -67.41015625 345.66796875 C-69.40840436 343.79685225 -71.43977914 342.03585019 -73.5546875 340.30078125 C-86.5579802 329.16824528 -96.01321189 313.4679867 -103.8046875 298.42578125 C-104.35898438 297.35972656 -104.91328125 296.29367187 -105.484375 295.1953125 C-120.92602331 263.63194328 -124.46002412 227.68721623 -117.8046875 193.42578125 C-117.64371582 192.58273437 -117.48274414 191.7396875 -117.31689453 190.87109375 C-112.28500916 165.4264784 -101.88336567 135.88033531 -86.8046875 114.42578125 C-83.6171875 114.078125 -83.6171875 114.078125 -79.8046875 114.36328125 C-70.94814792 114.74156491 -63.81992258 113.00459235 -56.6796875 107.61328125 C-54.21256523 105.26505643 -53.7349796 104.21298872 -52.6171875 100.80078125 C-52.54179096 97.42370027 -52.54179096 97.42370027 -54.3046875 94.92578125 C-56.80128061 93.14532461 -56.80128061 93.14532461 -60.1796875 93.36328125 C-63.95370988 94.19464997 -63.95370988 94.19464997 -66.7421875 96.98828125 C-70.80831229 100.22458465 -72.75039686 99.86149596 -77.8046875 99.42578125 C-66.82426648 77.11396685 -50.2956968 56.77124641 -34.8046875 37.42578125 C-34.12019531 36.55824219 -33.43570313 35.69070312 -32.73046875 34.796875 C-27.73120113 28.47934209 -22.54392739 22.32646794 -17.31494141 16.19921875 C-15.70625085 14.31019059 -14.10491112 12.41507607 -12.50390625 10.51953125 C-11.41686023 9.23811702 -10.32962515 7.95686315 -9.2421875 6.67578125 C-8.72946289 6.06702148 -8.21673828 5.45826172 -7.68847656 4.83105469 C-2.81060638 -0.89428385 -2.81060638 -0.89428385 0 0 Z " fill="#E95A6F" transform="translate(331.8046875,78.57421875)"/>
<path d="M0 0 C1.28664558 1.04329611 2.55795542 2.10581543 3.8125 3.1875 C4.41964844 3.68894531 5.02679688 4.19039062 5.65234375 4.70703125 C15.20435418 13.29757017 19.06396518 26.1219116 20.09375 38.59375 C20.92489211 69.3460081 4.42404822 95.30026058 -15.20239258 117.46923828 C-18.77789112 121.46995237 -18.77789112 121.46995237 -21.1875 126.1875 C-20.71306901 128.13029024 -20.71306901 128.13029024 -19.546875 129.99609375 C-18.93779297 131.09920898 -18.93779297 131.09920898 -18.31640625 132.22460938 C-17.86136719 133.01673828 -17.40632813 133.80886719 -16.9375 134.625 C-15.99163449 136.35113831 -15.04902936 138.07906644 -14.109375 139.80859375 C-13.37750977 141.14639893 -13.37750977 141.14639893 -12.63085938 142.51123047 C11.56171125 187.36897051 24.62421494 238.14524818 18.34765625 289.09375 C18.271521 289.77848389 18.19538574 290.46321777 18.11694336 291.16870117 C17.8125 293.1875 17.8125 293.1875 17.21313477 295.16918945 C16.62306071 297.4201509 16.40892055 298.88531867 16.8125 301.1875 C19.29772971 304.73175634 22.42005364 307.4872436 25.625 310.375 C27.39455292 312.05440221 29.15891403 313.73929234 30.91796875 315.4296875 C31.7692334 316.24405273 32.62049805 317.05841797 33.49755859 317.89746094 C38.2203784 322.56947631 42.05779976 327.71419615 45.8125 333.1875 C46.19019531 333.73680176 46.56789063 334.28610352 46.95703125 334.85205078 C56.4591933 348.79941322 63.78836309 363.05973529 68.8125 379.1875 C69.32490234 380.71503906 69.32490234 380.71503906 69.84765625 382.2734375 C74.09389507 397.00689871 74.15556209 416.08253298 67.8125 430.1875 C67.461875 431.05890625 67.11125 431.9303125 66.75 432.828125 C60.75444177 446.40140267 49.39539275 454.50850341 36.17578125 460.36328125 C12.17791029 468.73278666 -13.2007518 461.77443755 -35.1875 451.1875 C-44.02943557 446.77309476 -52.0920266 441.32709352 -60.03125 435.484375 C-63.03699434 433.2970264 -66.08114903 431.22721238 -69.1875 429.1875 C-69.7043335 429.50912109 -70.22116699 429.83074219 -70.75366211 430.16210938 C-101.82878157 449.40349945 -136.06653177 463.06123754 -173.15625 463.42578125 C-173.98605881 463.4355751 -174.81586761 463.44536896 -175.67082214 463.45545959 C-194.21881557 463.62925004 -212.02790461 463.39766738 -230.1875 459.1875 C-231.10370117 458.98382813 -232.01990234 458.78015625 -232.96386719 458.5703125 C-244.09776461 456.03436679 -254.67954636 452.43369999 -265.25 448.125 C-266.26779541 447.71362793 -267.28559082 447.30225586 -268.33422852 446.87841797 C-273.58368203 444.65014009 -277.64543275 442.72880307 -281.1875 438.1875 C-281.8125 435.1875 -281.8125 435.1875 -281.1875 432.1875 C-279.125 429.25 -279.125 429.25 -276.1875 427.1875 C-270.67619485 427.47013103 -266.3426925 429.19707005 -261.4375 431.5 C-228.95357903 446.53036263 -190.47025338 451.69873476 -155.1875 445.1875 C-153.81953413 444.9757551 -152.45100779 444.76760909 -151.08203125 444.5625 C-141.11458709 443.01826401 -131.67887473 440.59063617 -122.1875 437.1875 C-121.42066895 436.91309082 -120.65383789 436.63868164 -119.86376953 436.35595703 C-106.5962738 431.51804133 -94.38475312 425.27837899 -82.1875 418.1875 C-83.00635481 414.20465241 -84.41158452 412.75748749 -87.4375 410 C-109.20752126 388.85376158 -129.39965015 355.83644519 -130.5234375 324.84765625 C-130.5469856 322.64852503 -130.55990807 320.44925577 -130.5625 318.25 C-130.58699219 317.16009766 -130.61148438 316.07019531 -130.63671875 314.94726562 C-130.68210462 302.21652957 -126.53674847 292.41466214 -119.1875 282.1875 C-118.74921875 281.55199219 -118.3109375 280.91648437 -117.859375 280.26171875 C-110.47882455 270.59141922 -97.86607866 263.75343001 -86.1875 261.1875 C-52.73781541 258.40729886 -25.23737766 270.55974542 1.8125 289.1875 C2.96757041 281.1389694 2.99863698 273.1196367 2.99780273 265.0065918 C2.99997269 262.65459629 3.01813241 260.30308379 3.03710938 257.95117188 C3.08843297 244.46634053 1.92822053 231.32245577 -1.3125 218.1875 C-1.63118042 216.88401611 -1.63118042 216.88401611 -1.95629883 215.55419922 C-8.08706883 191.33647498 -17.63838706 168.30845092 -29.15576172 146.18164062 C-30.24720142 144.07210927 -31.31335566 141.95083969 -32.37890625 139.828125 C-39.17425349 126.44265913 -47.06023216 113.79877768 -55.1875 101.1875 C-55.8995459 100.08100098 -55.8995459 100.08100098 -56.62597656 98.95214844 C-70.67716977 77.23085734 -86.44408501 56.5185145 -102.8125 36.5 C-103.52535156 35.62472656 -104.23820313 34.74945313 -104.97265625 33.84765625 C-106.53221023 31.97454115 -108.12694721 30.13044261 -109.74609375 28.30859375 C-110.98552734 26.88740234 -110.98552734 26.88740234 -112.25 25.4375 C-113.00410156 24.59703125 -113.75820313 23.7565625 -114.53515625 22.890625 C-116.65928367 19.41569314 -116.63476834 17.19427886 -116.1875 13.1875 C-114.125 10.1875 -114.125 10.1875 -111.1875 8.1875 C-107.8125 7.875 -107.8125 7.875 -104.1875 9.1875 C-101.5552746 11.64013888 -99.34260654 14.31184113 -97.1875 17.1875 C-93.99454679 15.75264202 -91.22715088 13.86661158 -88.36669922 11.86181641 C-64.17940039 -4.97375832 -26.83527339 -19.31521597 0 0 Z " fill="#020101" transform="translate(440.1875,48.8125)"/>
<path d="M0 0 C7.72397956 6.52751998 11.81546795 14.1534351 14.9921875 23.68359375 C17.0610582 54.81053571 5.62271074 80.94999859 -14.0078125 104.68359375 C-14.46526855 105.24788086 -14.92272461 105.81216797 -15.39404297 106.39355469 C-36.03704593 131.80577873 -62.55074948 151.90362288 -94.0078125 161.68359375 C-94.90242188 161.96976563 -95.79703125 162.2559375 -96.71875 162.55078125 C-109.01259863 165.69973195 -125.48592933 165.58659503 -136.57421875 159.20703125 C-147.5046233 152.0721323 -153.5507516 143.4773854 -156.59545898 130.83398438 C-160.96938042 108.02433368 -150.86133312 84.21338035 -138.44995117 65.5625 C-131.09087608 54.8606962 -122.95764931 45.08160145 -114.0078125 35.68359375 C-113.35425781 34.9771875 -112.70070312 34.27078125 -112.02734375 33.54296875 C-87.19563046 7.49349553 -34.72952683 -25.50648399 0 0 Z " fill="#FD8D9C" transform="translate(172.0078125,23.31640625)"/>
<path d="M0 0 C1.16402344 0.41378906 2.32804687 0.82757813 3.52734375 1.25390625 C45.24559149 16.74537284 80.02075603 51.30007913 98.67578125 91.35351562 C101.6169335 98.01312464 103.4103855 104.90655896 105 112 C105.29003906 113.19689453 105.29003906 113.19689453 105.5859375 114.41796875 C108.08627927 130.00972261 104.73526877 142.52291525 96.3125 155.625 C86.81517905 165.3790053 75.77340726 169.35069773 62.375 169.5625 C30.4199828 169.24501647 2.40209692 149.00196586 -20 128 C-20.74056641 127.31043213 -20.74056641 127.31043213 -21.49609375 126.60693359 C-44.40500951 105.10483093 -65.39378618 74.36961913 -66.47045898 41.95458984 C-66.61946519 27.99726433 -63.79352432 18.01409576 -53.9296875 7.87109375 C-39.79959944 -5.49587108 -17.81772542 -6.42407787 0 0 Z " fill="#FD8D9C" transform="translate(391,328)"/>
<path d="M0 0 C7.06957977 5.79279947 12.34298729 11.88799712 13.64453125 21.09765625 C14.09050007 28.89535344 11.07658959 35.04666843 6.2734375 41.0390625 C-5.11367028 53.22569061 -20.80747643 57.41217045 -36.6640625 59.9140625 C-37.56382813 60.09710938 -38.46359375 60.28015625 -39.390625 60.46875 C-64.71682245 63.91407996 -90.22940461 59.50775369 -111.3515625 44.8515625 C-117.02686421 40.24116287 -121.1883485 34.23420939 -122 26.86328125 C-122.11579471 17.19442283 -120.61048246 11.85267383 -114.0390625 4.7890625 C-86.2316726 -21.42786783 -30.56497991 -21.34846289 0 0 Z " fill="#FC8C9C" transform="translate(162.6640625,351.0859375)"/>
<path d="M0 0 C23.95230012 3.18466912 50.88422713 33.31901336 64.875 51.5 C77.10428383 67.79588017 86.5272799 85.04108774 91 105 C91.29003906 106.19689453 91.29003906 106.19689453 91.5859375 107.41796875 C94.08627927 123.00972261 90.73526877 135.52291525 82.3125 148.625 C72.81517905 158.3790053 61.77340726 162.35069773 48.375 162.5625 C31.63838157 162.39621623 9.66433272 156.53932855 -3 145 C-6.60479796 136.8892046 -6.2409036 126.43919598 -3.3125 118.1875 C-2.17179718 115.30992459 -1.62624332 114.30077636 1.1796875 112.953125 C5.38191275 113.02296808 8.09764603 115.24951686 11.4375 117.5625 C24.03858483 125.87109939 37.55024199 132.43370331 53 131 C57.38719953 129.49746092 57.38719953 129.49746092 60 126 C60.5838196 123.0850745 60.5838196 123.0850745 60 120 C59.03835938 119.41347656 58.07671875 118.82695312 57.0859375 118.22265625 C53.21626286 115.43551084 53.03974624 113.92260391 52.1875 109.3125 C47.09356624 86.29156405 27.91191188 62.12623674 8.8125 49 C2.0426055 44.1212906 -2.53560466 36.82253398 -4.5625 28.765625 C-6.0984188 19.056424 -5.51391917 10.77404369 -1 2 C-0.67 1.34 -0.34 0.68 0 0 Z " fill="#FDB3BE" transform="translate(405,335)"/>
<path d="M0 0 C7.72397956 6.52751998 11.81546795 14.1534351 14.9921875 23.68359375 C17.0610582 54.81053571 5.62271074 80.94999859 -14.0078125 104.68359375 C-14.46526855 105.24788086 -14.92272461 105.81216797 -15.39404297 106.39355469 C-29.49754403 123.75543413 -46.11365613 137.93056159 -65.2578125 149.49609375 C-65.97300049 149.93526123 -66.68818848 150.37442871 -67.42504883 150.8269043 C-72.43693007 153.75325635 -72.43693007 153.75325635 -75.15258789 153.421875 C-77.0078125 152.68359375 -77.0078125 152.68359375 -78.23828125 150.5390625 C-78.55410156 149.65863281 -78.86992188 148.77820313 -79.1953125 147.87109375 C-79.51886719 146.99839844 -79.84242187 146.12570313 -80.17578125 145.2265625 C-81.51229505 141.14172455 -82.18524683 137.62625082 -82.2578125 133.30859375 C-82.29648438 131.93574219 -82.29648438 131.93574219 -82.3359375 130.53515625 C-81.7859965 125.75590708 -80.2491758 122.67400244 -76.4765625 119.6640625 C-75.496875 119.07238281 -74.5171875 118.48070312 -73.5078125 117.87109375 C-56.07028688 106.76119719 -41.33607253 91.95012955 -30.0078125 74.68359375 C-29.63043945 74.11318359 -29.25306641 73.54277344 -28.86425781 72.95507812 C-20.23218778 59.65018085 -14.25191426 44.73117008 -16.0078125 28.68359375 C-16.30479017 27.34169466 -16.62225522 26.00277322 -17.0078125 24.68359375 C-20.02020847 24.09141335 -22.93230717 23.63587039 -26.0078125 23.68359375 C-28.55933218 25.53344552 -29.61757965 26.90312805 -31.0078125 29.68359375 C-32.67920711 30.12486611 -34.37237895 30.48408963 -36.0703125 30.80859375 C-47.42199075 33.4875357 -57.91493229 39.27896743 -66.9921875 46.53125 C-69.0078125 47.68359375 -69.0078125 47.68359375 -71.08203125 47.6484375 C-76.20791942 45.08029474 -78.89676761 37.44783789 -80.8828125 32.30859375 C-83.11440181 24.80354637 -83.03877694 16.79541193 -80.10546875 9.51489258 C-78.17210653 6.2893254 -75.14146298 4.98845102 -71.8203125 3.55859375 C-71.11704834 3.23294434 -70.41378418 2.90729492 -69.68920898 2.57177734 C-62.28242988 -0.79127404 -54.71476513 -3.72181755 -47.0078125 -6.31640625 C-46.22535156 -6.58453125 -45.44289062 -6.85265625 -44.63671875 -7.12890625 C-30.02762501 -11.22970449 -12.23461893 -8.98549852 0 0 Z " fill="#FDB3BE" transform="translate(172.0078125,23.31640625)"/>
<path d="M0 0 C3.39073787 0.20243211 3.88868466 0.51925043 6.5 3 C8 5.625 8 5.625 8 7.625 C9.00933594 7.57472656 10.01867187 7.52445312 11.05859375 7.47265625 C23.11549973 7.93868136 34.42930347 15.83693614 44 22.625 C45.05703125 23.36363281 46.1140625 24.10226562 47.203125 24.86328125 C68.15522747 40.21611496 91.85109284 64.77632495 96 91.625 C96 92.945 96 94.265 96 95.625 C96.78375 95.91375 97.5675 96.2025 98.375 96.5 C101 97.625 101 97.625 103 99.625 C103.4375 102.4375 103.4375 102.4375 103 105.625 C99.86779786 109.43443503 97.57311018 111.33069001 92.609375 111.8984375 C67.62732592 112.78577804 45.67309389 94.37863204 28 78.625 C27.22269531 77.93277344 26.44539063 77.24054688 25.64453125 76.52734375 C9.76615783 61.51664101 -7.54777229 37.87053971 -8.45458984 15.34448242 C-8.63712016 6.6742922 -8.63712016 6.6742922 -6.21875 2.69140625 C-3.89410462 0.52637561 -3.10987728 -0.06073979 0 0 Z " fill="#E85A6F" transform="translate(363,355.375)"/>
<path d="M0 0 C3.37762534 0.7840916 4.53313985 1.08074979 6.5 3.8125 C10.19408488 11.20066977 7.4639314 21.37155402 5 28.8125 C-1.07145417 46.14434114 -11.94796631 60.57323742 -24.5 73.8125 C-25.39332031 74.77027344 -26.28664063 75.72804688 -27.20703125 76.71484375 C-42.40754751 92.68818 -64.89722355 109.78077492 -87.69140625 110.98046875 C-89.36009766 110.99013672 -89.36009766 110.99013672 -91.0625 111 C-92.17753906 111.01417969 -93.29257813 111.02835937 -94.44140625 111.04296875 C-97.41348148 110.81901928 -99.03026622 110.42069874 -101.5 108.8125 C-103.5815902 106.13616974 -103.49587591 104.69496332 -103.375 101.25 C-102.5 97.8125 -102.5 97.8125 -100.5625 95.875 C-98.5 94.8125 -98.5 94.8125 -96.5 94.8125 C-96.479375 93.6575 -96.45875 92.5025 -96.4375 91.3125 C-94.18980158 71.93369469 -79.0893297 54.66315153 -66.5 40.8125 C-65.89800781 40.13832031 -65.29601562 39.46414062 -64.67578125 38.76953125 C-51.13621965 24.41145711 -28.80973848 7.51283581 -8.5 6.8125 C-8.231875 6.02875 -7.96375 5.245 -7.6875 4.4375 C-5.86710514 0.41346925 -4.36138055 -0.23364539 0 0 Z " fill="#E85A6F" transform="translate(149.5,46.1875)"/>
<path d="M0 0 C7.06715986 6.86194287 10.14578288 14.11507128 10.30444336 23.80932617 C10.39737326 52.68236519 -5.01256942 75.57027476 -23.9375 96.3125 C-27.36202571 93.06384685 -29.71737367 89.33156449 -32.25 85.375 C-32.73017578 84.65892578 -33.21035156 83.94285156 -33.70507812 83.20507812 C-34.14916016 82.50962891 -34.59324219 81.81417969 -35.05078125 81.09765625 C-35.46110596 80.46738525 -35.87143066 79.83711426 -36.29418945 79.18774414 C-36.9375 77.3125 -36.9375 77.3125 -36.17529297 75.22436523 C-34.56116228 72.73121782 -32.6924684 70.55921044 -30.75 68.3125 C-20.93751614 56.377123 -11.32898677 39.58494515 -12.421875 23.46484375 C-12.88930812 21.00006943 -12.88930812 21.00006943 -15 18.0625 C-17.89561118 15.99795307 -17.89561118 15.99795307 -21.625 16.3125 C-25.19289113 17.00633331 -25.19289113 17.00633331 -26.9375 20.3125 C-27.02859759 22.42632224 -27.02859759 22.42632224 -26.8125 24.75 C-26.57804294 39.43553751 -35.92383875 52.46322992 -44.9375 63.3125 C-49.07387635 59.4453995 -52.1941444 55.29474381 -55.375 50.625 C-59.86460763 44.14696484 -64.52384339 37.83702727 -69.375 31.625 C-69.9537085 30.88354736 -70.53241699 30.14209473 -71.12866211 29.37817383 C-73.64597597 26.17162594 -76.18785723 23.00752103 -78.84765625 19.91796875 C-80.9375 17.3125 -80.9375 17.3125 -80.9375 15.3125 C-60.9790196 -1.70279435 -23.52648505 -19.45011388 0 0 Z " fill="#FCB3BD" transform="translate(433.9375,63.6875)"/>
<path d="M0 0 C3.45617061 0.78032514 6.73425156 1.85057185 10.04199219 3.11425781 C10.73671631 3.37932129 11.43144043 3.64438477 12.1472168 3.91748047 C22.01880242 7.85052016 30.9965928 13.98253891 36.26074219 23.45800781 C39.06265876 29.99581315 39.24005147 36.44013926 36.60449219 43.05175781 C30.60013118 55.03963136 19.6392599 61.59929783 7.49121094 66.42675781 C1.1819365 68.44335317 -5.3023468 69.45883369 -11.83300781 70.48925781 C-12.73277344 70.67230469 -13.63253906 70.85535156 -14.55957031 71.04394531 C-32.0221685 73.4195255 -49.01135173 71.29398486 -65.83300781 66.48925781 C-66.40673828 64.62084961 -66.40673828 64.62084961 -66.83300781 62.48925781 C-65.65332031 60.38378906 -65.65332031 60.38378906 -63.95800781 58.30175781 C-63.40371094 57.60695313 -62.84941406 56.91214844 -62.27832031 56.19628906 C-61.49257881 55.26826464 -60.69283891 54.34908891 -59.83300781 53.48925781 C-55.38012994 53.24637356 -51.54873879 53.47608179 -47.20800781 54.48144531 C-41.8580381 55.58512589 -36.72213939 55.83546716 -31.27050781 55.80175781 C-30.31668213 55.79684326 -29.36285645 55.79192871 -28.38012695 55.78686523 C-11.73464385 55.51567556 6.02831777 52.48703216 19.16699219 41.48925781 C21.97674941 38.266301 22.18791734 37.10654972 22.04199219 32.80175781 C21.48863824 29.22500527 21.48863824 29.22500527 18.16699219 27.48925781 C14.75659459 27.27610796 12.4216742 27.40436381 9.16699219 28.48925781 C6.12792969 27.34472656 6.12792969 27.34472656 2.54199219 25.67675781 C-2.87677698 23.21917216 -7.98556282 21.57945942 -13.83300781 20.48925781 C-14.83300781 19.48925781 -14.83300781 19.48925781 -15.27050781 15.98925781 C-15.23051733 10.44057811 -12.21953871 6.66680322 -8.83300781 2.48925781 C-8.43726563 1.88726562 -8.04152344 1.28527344 -7.63378906 0.66503906 C-5.0594181 -1.01584089 -2.92971788 -0.49653967 0 0 Z " fill="#FBB2BC" transform="translate(137.8330078125,340.5107421875)"/>
<path d="M0 0 C5.41499303 0.2504043 5.41499303 0.2504043 7.69140625 1.671875 C9.65497118 4.63529201 9.26700217 7.32761334 9.27734375 10.84375 C10.11416891 34.43526824 27.9372097 55.28872749 44.27734375 70.84375 C54.34908504 79.65285317 65.67005098 87.27806019 77.96484375 92.59375 C78.71765625 92.93148437 79.47046875 93.26921875 80.24609375 93.6171875 C85.87223535 95.83910574 90.95150149 95.72148008 96.94921875 95.30859375 C100.7737561 95.67024042 102.29812605 96.88824368 104.96484375 99.59375 C105.58984375 102.53125 105.58984375 102.53125 104.96484375 105.59375 C101.83264161 109.40318503 99.53795393 111.29944001 94.57421875 111.8671875 C69.59216967 112.75452804 47.63793764 94.34738204 29.96484375 78.59375 C29.18753906 77.90152344 28.41023438 77.20929688 27.609375 76.49609375 C11.73100158 61.48539101 -5.58292854 37.83928971 -6.48974609 15.31323242 C-6.67217253 6.64797693 -6.67217253 6.64797693 -4.2578125 2.65234375 C-2.03515625 0.59375 -2.03515625 0.59375 0 0 Z " fill="#040202" transform="translate(361.03515625,355.40625)"/>
<path d="M0 0 C3.26916294 0.89158989 4.5095711 1.25982098 6.4375 3.9375 C10.13158488 11.32566977 7.4014314 21.49655402 4.9375 28.9375 C-1.13395417 46.26934114 -12.01046631 60.69823742 -24.5625 73.9375 C-25.45582031 74.89527344 -26.34914063 75.85304688 -27.26953125 76.83984375 C-42.47004751 92.81318 -64.95972355 109.90577492 -87.75390625 111.10546875 C-89.42259766 111.11513672 -89.42259766 111.11513672 -91.125 111.125 C-92.24003906 111.13917969 -93.35507813 111.15335937 -94.50390625 111.16796875 C-97.47598148 110.94401928 -99.09276622 110.54569874 -101.5625 108.9375 C-103.676063 106.22006185 -103.55618176 104.81534742 -103.375 101.3125 C-102.5625 97.9375 -102.5625 97.9375 -99.5625 95.9375 C-97.2751402 95.76265169 -94.98108557 95.67029951 -92.6875 95.625 C-68.2028806 94.54305253 -47.53200027 75.63702059 -31.4375 58.6875 C-18.48925871 44.07389005 -8.53645258 27.20570398 -8.1015625 7.3984375 C-7.5625 3.9375 -7.5625 3.9375 -5.74609375 1.47265625 C-3.5625 -0.0625 -3.5625 -0.0625 0 0 Z " fill="#030202" transform="translate(149.5625,46.0625)"/>
<path d="M0 0 C10.97883261 0.19122967 20.83018763 1.45190333 28.8125 9.62890625 C33.24517698 15.61901028 34.63583436 20.29049131 33.8125 27.62890625 C31.89091605 34.27489404 27.48123291 38.8592943 21.8125 42.62890625 C13.20299321 47.17504769 3.98782387 48.30835654 -5.43359375 45.74609375 C-13.36904067 42.7542024 -18.35802192 38.73621313 -23.125 31.81640625 C-25.1499377 25.74159315 -25.16422517 20.01659573 -22.375 14.19140625 C-20.96208247 11.59835071 -19.50651297 9.48081945 -17.1875 7.62890625 C-14.99609375 7.15234375 -14.99609375 7.15234375 -12.625 7.00390625 C-9.27974742 6.80018444 -9.27974742 6.80018444 -6.1875 5.62890625 C-5.795625 4.79488281 -5.40375 3.96085938 -5 3.1015625 C-3.1875 0.62890625 -3.1875 0.62890625 0 0 Z " fill="#FED9DE" transform="translate(330.1875,178.37109375)"/>
<path d="M0 0 C0.2475 0.680625 0.495 1.36125 0.75 2.0625 C1.1625 2.701875 1.575 3.34125 2 4 C5.39727382 4.75923729 5.39727382 4.75923729 9 5 C11.53177291 5.37952573 12.66630863 5.64921931 14.44921875 7.5234375 C14.85785156 8.13445312 15.26648438 8.74546875 15.6875 9.375 C16.10386719 9.98085937 16.52023438 10.58671875 16.94921875 11.2109375 C19.53359671 15.61110519 19.55485454 20.05455734 19 25 C17.07841605 31.64598779 12.66873291 36.23038805 7 40 C-1.60950679 44.54614144 -10.82467613 45.67945029 -20.24609375 43.1171875 C-28.18154067 40.12529615 -33.17052192 36.10730688 -37.9375 29.1875 C-39.88262259 23.35213222 -39.98475617 17.53480241 -37.5625 11.8125 C-33.98641993 5.57015528 -27.25748332 0.666886 -20.44921875 -1.5703125 C-14.02766685 -2.69690055 -5.51465575 -3.67643716 0 0 Z " fill="#FED9DE" transform="translate(187,181)"/>
<path d="M0 0 C2.5 2.25 2.5 2.25 5 5 C18.28493382 15.9600704 38.7968831 14.82345115 55 14 C59.22934138 13.42191917 63.00251143 12.46975808 67 11 C67.88558594 10.7215625 68.77117187 10.443125 69.68359375 10.15625 C75.29894717 8.22049667 78.43102441 5.77583257 82.4140625 1.4375 C84 0 84 0 87.125 -0.75 C91.09100697 0.28461051 92.64982791 1.6527852 95 5 C95.18452123 10.07433378 93.74875168 12.7826738 90.46289062 16.56176758 C78.0462943 28.76907214 55.04042892 30.30249215 38.83203125 30.31469727 C22.76435335 30.0916817 4.33222182 27.03371805 -7.375 15 C-9.53978904 12.17207306 -10.02138181 10.88337196 -10.6875 7.25 C-9.39118879 1.12198335 -6.21429467 -1.14140106 0 0 Z " fill="#040202" transform="translate(66,367)"/>
<path d="M0 0 C1.21067139 -0.00999023 2.42134277 -0.01998047 3.66870117 -0.03027344 C14.30175677 0.07087678 24.3794133 1.78058183 34.125 6.125 C35.12144531 6.56199219 36.11789063 6.99898438 37.14453125 7.44921875 C37.85996094 7.77535156 38.57539063 8.10148437 39.3125 8.4375 C39.3125 11.4375 39.3125 11.4375 36.9375 13.875 C26.84587807 21.73983211 13.68466768 22.7816466 1.375 22.6875 C0.36759766 22.69523437 -0.63980469 22.70296875 -1.67773438 22.7109375 C-13.5030069 22.68051879 -25.68264427 20.92060767 -35.8125 14.4375 C-37.8064393 12.31063141 -38.1209959 11.21221394 -38.6875 8.4375 C-26.4089822 1.27503129 -13.95062565 0.06736435 0 0 Z " fill="#E75A6F" transform="translate(107.6875,359.5625)"/>
<path d="M0 0 C2.32691116 3.49036674 2.17074237 5.28335586 1.59765625 9.34765625 C-1.07947038 21.22849929 -7.9727299 31.99972747 -16 41 C-20.4446733 36.87633088 -23.80677996 32.2874466 -27.25 27.3125 C-27.79140625 26.54099609 -28.3328125 25.76949219 -28.890625 24.97460938 C-32.83636676 19.32726648 -32.83636676 19.32726648 -34 17 C-12.46283784 2.21114865 -12.46283784 2.21114865 0 0 Z " fill="#FC8C9C" transform="translate(405,86)"/>
<path d="M0 0 C4.32202149 1.36484889 6.26876839 3.06106362 9.5625 6.125 C12.63444908 7.66097454 15.16494293 7.3515038 18.5625 7.125 C21.95576461 5.76769415 24.34571898 4.31005697 27.125 1.9375 C29.5625 0.125 29.5625 0.125 32.0625 -0.4375 C35.85332295 0.41543516 37.30939043 2.01040736 39.5625 5.125 C39.91200274 8.89962957 39.46076645 10.99446413 37.08203125 13.98828125 C30.82169074 20.01627923 23.11090401 23.20749142 14.4375 23.625 C6.35910451 23.22874959 -0.06546338 19.43622966 -5.88671875 13.98828125 C-7.4375 12.125 -7.4375 12.125 -8.75 8.5 C-8.4375 5.125 -8.4375 5.125 -6.4375 2.125 C-3.4375 0.125 -3.4375 0.125 0 0 Z " fill="#050202" transform="translate(240.4375,170.875)"/>
<path d="M0 0 C2.1953125 1.5 2.1953125 1.5 4 4 C4.34612503 6.98019513 4.4705768 9.53711928 4.375 12.5 C4.37371094 13.25925781 4.37242187 14.01851562 4.37109375 14.80078125 C4.25908644 21.90702259 4.25908644 21.90702259 2 25 C-1 27 -1 27 -4.5 26.9375 C-8 26 -8 26 -9.69140625 23.9765625 C-11.42527597 20.03265586 -11.4777278 16.69798945 -11.4375 12.4375 C-11.45748047 11.68275391 -11.47746094 10.92800781 -11.49804688 10.15039062 C-11.4949031 6.58220221 -11.30989491 4.42769514 -9.19140625 1.50390625 C-5.9771468 -0.70195808 -3.80386171 -0.54340882 0 0 Z " fill="#040203" transform="translate(197,160)"/>
<path d="M0 0 C2.1953125 1.5 2.1953125 1.5 4 4 C4.34612503 6.98019513 4.4705768 9.53711928 4.375 12.5 C4.37371094 13.25925781 4.37242187 14.01851562 4.37109375 14.80078125 C4.25984889 21.85864977 4.25984889 21.85864977 2 25 C-1.01868434 26.50934217 -3.67297229 26.17510672 -7 26 C-10 24 -10 24 -11 21 C-11.17404815 18.17243085 -11.27687131 15.39141795 -11.3125 12.5625 C-11.34150391 11.79873047 -11.37050781 11.03496094 -11.40039062 10.24804688 C-11.44278647 6.50090642 -11.43713818 4.6078212 -9.19921875 1.49609375 C-5.97779109 -0.69539256 -3.80319481 -0.54331354 0 0 Z " fill="#020101" transform="translate(322,160)"/>
</svg>
