<svg width="512" height="512" version="1.1" xmlns="http://www.w3.org/2000/svg" desc="Created with imagetracer.js version 1.2.6" ><path fill="rgb(14,20,21)" stroke="rgb(14,20,21)" stroke-width="1" opacity="0.8745098039215686" d="M 221.5 43 L 244 43.5 L 221.5 44 L 221.5 43 Z " /><path fill="rgb(14,20,21)" stroke="rgb(14,20,21)" stroke-width="1" opacity="0.8745098039215686" d="M 209.5 44 L 213 44.5 L 209.5 45 L 209.5 44 Z " /><path fill="rgb(14,20,21)" stroke="rgb(14,20,21)" stroke-width="1" opacity="0.8745098039215686" d="M 252.5 44 L 256 44.5 L 252.5 45 L 252.5 44 Z " /><path fill="rgb(14,20,21)" stroke="rgb(14,20,21)" stroke-width="1" opacity="0.8745098039215686" d="M 201.5 45 L 204 45.5 L 201.5 46 L 201.5 45 Z " /><path fill="rgb(14,20,21)" stroke="rgb(14,20,21)" stroke-width="1" opacity="0.8745098039215686" d="M 261.5 45 L 264 45.5 L 261.5 46 L 261.5 45 Z " /><path fill="rgb(14,20,21)" stroke="rgb(14,20,21)" stroke-width="1" opacity="0.8745098039215686" d="M 195.5 46 L 198 46.5 L 195.5 47 L 195.5 46 Z " /><path fill="rgb(14,20,21)" stroke="rgb(14,20,21)" stroke-width="1" opacity="0.8745098039215686" d="M 151.5 62 L 150.5 64 L 151.5 62 Z " /><path fill="rgb(14,20,21)" stroke="rgb(14,20,21)" stroke-width="1" opacity="0.8745098039215686" d="M 316.5 64 L 318.5 67 L 316.5 64 Z " /><path fill="rgb(14,20,21)" stroke="rgb(14,20,21)" stroke-width="1" opacity="0.8745098039215686" d="M 147.5 65 L 140.5 73 L 147.5 65 Z " /><path fill="rgb(14,20,21)" stroke="rgb(14,20,21)" stroke-width="1" opacity="0.8745098039215686" d="M 323.5 71 L 325.5 74 L 323.5 71 Z " /><path fill="rgb(14,20,21)" stroke="rgb(14,20,21)" stroke-width="1" opacity="0.8745098039215686" d="M 138.5 75 L 137.5 77 L 138.5 75 Z " /><path fill="rgb(14,20,21)" stroke="rgb(14,20,21)" stroke-width="1" opacity="0.8745098039215686" d="M 328.5 78 L 329.5 80 L 328.5 78 Z " /><path fill="rgb(14,20,21)" stroke="rgb(14,20,21)" stroke-width="1" opacity="0.8745098039215686" d="M 307.5 80 L 308.5 82 L 307.5 80 Z " /><path fill="rgb(14,20,21)" stroke="rgb(14,20,21)" stroke-width="1" opacity="0.8745098039215686" d="M 279.5 81 L 278.5 83 L 279.5 81 Z " /><path fill="rgb(14,20,21)" stroke="rgb(14,20,21)" stroke-width="1" opacity="0.8745098039215686" d="M 311.5 83 L 312.5 85 L 311.5 83 Z " /><path fill="rgb(14,20,21)" stroke="rgb(14,20,21)" stroke-width="1" opacity="0.8745098039215686" d="M 273.5 87 L 272.5 89 L 273.5 87 Z " /><path fill="rgb(14,20,21)" stroke="rgb(14,20,21)" stroke-width="1" opacity="0.8745098039215686" d="M 314.5 87 L 315.5 89 L 314.5 87 Z " /><path fill="rgb(14,20,21)" stroke="rgb(14,20,21)" stroke-width="1" opacity="0.8745098039215686" d="M 271.5 90 L 270.5 92 L 271.5 90 Z " /><path fill="rgb(14,20,21)" stroke="rgb(14,20,21)" stroke-width="1" opacity="0.8745098039215686" d="M 292.5 91 L 296 91.5 L 292.5 92 L 292.5 91 Z " /><path fill="rgb(14,20,21)" stroke="rgb(14,20,21)" stroke-width="1" opacity="0.8745098039215686" d="M 289.5 92 L 291 92.5 L 288.5 94 L 289.5 92 Z " /><path fill="rgb(14,20,21)" stroke="rgb(14,20,21)" stroke-width="1" opacity="0.8745098039215686" d="M 300.5 93 L 302.5 96 L 300.5 93 Z " /><path fill="rgb(14,20,21)" stroke="rgb(14,20,21)" stroke-width="1" opacity="0.8745098039215686" d="M 284.5 97 L 284 98.5 L 283.5 100 L 283 98.5 L 284.5 97 Z " /><path fill="rgb(14,20,21)" stroke="rgb(14,20,21)" stroke-width="1" opacity="0.8745098039215686" d="M 304.5 99 L 305 101.5 L 304 101.5 L 304.5 99 Z " /><path fill="rgb(14,20,21)" stroke="rgb(14,20,21)" stroke-width="1" opacity="0.8745098039215686" d="M 319.5 99 L 320 102.5 L 319 102.5 L 319.5 99 Z " /><path fill="rgb(14,20,21)" stroke="rgb(14,20,21)" stroke-width="1" opacity="0.8745098039215686" d="M 335.5 99 L 336 104.5 L 335 104.5 L 335.5 99 Z " /><path fill="rgb(14,20,21)" stroke="rgb(14,20,21)" stroke-width="1" opacity="0.8745098039215686" d="M 319.5 105 L 320 108.5 L 319 108.5 L 319.5 105 Z " /><path fill="rgb(14,20,21)" stroke="rgb(14,20,21)" stroke-width="1" opacity="0.8745098039215686" d="M 130.5 110 L 131 112.5 L 130 112.5 L 130.5 110 Z " /><path fill="rgb(14,20,21)" stroke="rgb(14,20,21)" stroke-width="1" opacity="0.8745098039215686" d="M 302.5 112 L 298.5 117 L 302.5 112 Z " /><path fill="rgb(14,20,21)" stroke="rgb(14,20,21)" stroke-width="1" opacity="0.8745098039215686" d="M 284.5 114 L 286.5 117 L 284.5 114 Z " /><path fill="rgb(14,20,21)" stroke="rgb(14,20,21)" stroke-width="1" opacity="0.8745098039215686" d="M 313.5 122 L 308.5 128 L 313.5 122 Z " /><path fill="rgb(14,20,21)" stroke="rgb(14,20,21)" stroke-width="1" opacity="0.8745098039215686" d="M 273.5 124 L 276.5 128 L 273.5 124 Z " /><path fill="rgb(14,20,21)" stroke="rgb(14,20,21)" stroke-width="1" opacity="0.8745098039215686" d="M 333.5 124 L 337 124.5 L 333.5 125 L 333.5 124 Z " /><path fill="rgb(14,20,21)" stroke="rgb(14,20,21)" stroke-width="1" opacity="0.8745098039215686" d="M 135.5 126 L 136.5 128 L 135.5 126 Z " /><path fill="rgb(14,20,21)" stroke="rgb(14,20,21)" stroke-width="1" opacity="0.8745098039215686" d="M 278.5 128 L 279.5 130 L 278.5 128 Z " /><path fill="rgb(14,20,21)" stroke="rgb(14,20,21)" stroke-width="1" opacity="0.8745098039215686" d="M 328.5 128 L 327.5 130 L 328.5 128 Z " /><path fill="rgb(14,20,21)" stroke="rgb(14,20,21)" stroke-width="1" opacity="0.8745098039215686" d="M 326.5 131 L 325.5 133 L 326.5 131 Z " /><path fill="rgb(14,20,21)" stroke="rgb(14,20,21)" stroke-width="1" opacity="0.8745098039215686" d="M 139.5 132 L 140.5 134 L 139.5 132 Z " /><path fill="rgb(14,20,21)" stroke="rgb(14,20,21)" stroke-width="1" opacity="0.8745098039215686" d="M 322.5 136 L 320.5 139 L 322.5 136 Z " /><path fill="rgb(14,20,21)" stroke="rgb(14,20,21)" stroke-width="1" opacity="0.8745098039215686" d="M 147.5 140 L 149.5 143 L 147.5 140 Z " /><path fill="rgb(14,20,21)" stroke="rgb(14,20,21)" stroke-width="1" opacity="0.8745098039215686" d="M 316.5 141 L 315.5 143 L 316.5 141 Z " /><path fill="rgb(14,20,21)" stroke="rgb(14,20,21)" stroke-width="1" opacity="0.8745098039215686" d="M 151.5 143 L 152.5 145 L 151.5 143 Z " /><path fill="rgb(14,20,21)" stroke="rgb(14,20,21)" stroke-width="1" opacity="0.8745098039215686" d="M 313.5 143 L 312.5 145 L 313.5 143 Z " /><path fill="rgb(14,20,21)" stroke="rgb(14,20,21)" stroke-width="1" opacity="0.8745098039215686" d="M 218.5 144 L 223 144.5 L 218.5 145 L 218.5 144 Z " /><path fill="rgb(14,20,21)" stroke="rgb(14,20,21)" stroke-width="1" opacity="0.8745098039215686" d="M 242.5 144 L 247 144.5 L 242.5 145 L 242.5 144 Z " /><path fill="rgb(14,20,21)" stroke="rgb(14,20,21)" stroke-width="1" opacity="0.8745098039215686" d="M 211.5 145 L 214 145.5 L 211.5 146 L 211.5 145 Z " /><path fill="rgb(14,20,21)" stroke="rgb(14,20,21)" stroke-width="1" opacity="0.8745098039215686" d="M 251.5 145 L 254 145.5 L 251.5 146 L 251.5 145 Z " /><path fill="rgb(14,20,21)" stroke="rgb(14,20,21)" stroke-width="1" opacity="0.8745098039215686" d="M 274.5 150 L 277 150.5 L 274.5 151 L 274.5 150 Z " /><path fill="rgb(14,20,21)" stroke="rgb(14,20,21)" stroke-width="1" opacity="0.8745098039215686" d="M 171.5 151 L 176 151.5 L 171.5 152 L 171.5 151 Z " /><path fill="rgb(14,20,21)" stroke="rgb(14,20,21)" stroke-width="1" opacity="0.8745098039215686" d="M 182.5 151 L 186 151.5 L 182.5 152 L 182.5 151 Z " /><path fill="rgb(14,20,21)" stroke="rgb(14,20,21)" stroke-width="1" opacity="0.8745098039215686" d="M 279.5 151 L 284 151.5 L 279.5 152 L 279.5 151 Z " /><path fill="rgb(14,20,21)" stroke="rgb(14,20,21)" stroke-width="1" opacity="0.8745098039215686" d="M 290.5 151 L 294 151.5 L 290.5 152 L 290.5 151 Z " /><path fill="rgb(14,20,21)" stroke="rgb(14,20,21)" stroke-width="1" opacity="0.8745098039215686" d="M 457.5 162 L 455.5 165 L 457.5 162 Z " /><path fill="rgb(14,20,21)" stroke="rgb(14,20,21)" stroke-width="1" opacity="0.8745098039215686" d="M 485.5 164 L 487.5 167 L 485.5 164 Z " /><path fill="rgb(14,20,21)" stroke="rgb(14,20,21)" stroke-width="1" opacity="0.8745098039215686" d="M 453.5 166 L 451.5 169 L 453.5 166 Z " /><path fill="rgb(14,20,21)" stroke="rgb(14,20,21)" stroke-width="1" opacity="0.8745098039215686" d="M 488.5 168 L 489.5 170 L 488.5 168 Z " /><path fill="rgb(14,20,21)" stroke="rgb(14,20,21)" stroke-width="1" opacity="0.8745098039215686" d="M 450.5 170 L 450 171.5 L 449.5 173 L 449 171.5 L 450.5 170 Z " /><path fill="rgb(14,20,21)" stroke="rgb(14,20,21)" stroke-width="1" opacity="0.8745098039215686" d="M 492.5 176 L 493 178.5 L 492 178.5 L 492.5 176 Z " /><path fill="rgb(14,20,21)" stroke="rgb(14,20,21)" stroke-width="1" opacity="0.8745098039215686" d="M 447.5 177 L 448 185.5 L 447 185.5 L 447.5 177 Z " /><path fill="rgb(14,20,21)" stroke="rgb(14,20,21)" stroke-width="1" opacity="0.8745098039215686" d="M 45.5 179 L 48 179.5 L 45.5 180 L 45.5 179 Z " /><path fill="rgb(14,20,21)" stroke="rgb(14,20,21)" stroke-width="1" opacity="0.8745098039215686" d="M 29.5 182 L 28.5 184 L 29.5 182 Z " /><path fill="rgb(14,20,21)" stroke="rgb(14,20,21)" stroke-width="1" opacity="0.8745098039215686" d="M 54.5 182 L 60.5 189 L 54.5 182 Z " /><path fill="rgb(14,20,21)" stroke="rgb(14,20,21)" stroke-width="1" opacity="0.8745098039215686" d="M 26.5 184 L 24.5 187 L 26.5 184 Z " /><path fill="rgb(14,20,21)" stroke="rgb(14,20,21)" stroke-width="1" opacity="0.8745098039215686" d="M 492.5 184 L 493 187.5 L 492 187.5 L 492.5 184 Z " /><path fill="rgb(14,20,21)" stroke="rgb(14,20,21)" stroke-width="1" opacity="0.8745098039215686" d="M 23.5 188 L 22.5 190 L 23.5 188 Z " /><path fill="rgb(14,20,21)" stroke="rgb(14,20,21)" stroke-width="1" opacity="0.8745098039215686" d="M 491.5 189 L 492 190.5 L 489.5 194 L 490 192.5 L 491.5 189 Z " /><path fill="rgb(14,20,21)" stroke="rgb(14,20,21)" stroke-width="1" opacity="0.8745098039215686" d="M 488.5 195 L 483.5 201 L 488.5 195 Z " /><path fill="rgb(14,20,21)" stroke="rgb(14,20,21)" stroke-width="1" opacity="0.8745098039215686" d="M 452.5 196 L 455.5 200 L 452.5 196 Z " /><path fill="rgb(14,20,21)" stroke="rgb(14,20,21)" stroke-width="1" opacity="0.8745098039215686" d="M 64.5 197 L 65 205.5 L 64 205.5 L 64.5 197 Z " /><path fill="rgb(14,20,21)" stroke="rgb(14,20,21)" stroke-width="1" opacity="0.8745098039215686" d="M 457.5 200 L 458.5 202 L 457.5 200 Z " /><path fill="rgb(14,20,21)" stroke="rgb(14,20,21)" stroke-width="1" opacity="0.8745098039215686" d="M 466.5 204 L 475 204.5 L 466.5 205 L 466.5 204 Z " /><path fill="rgb(14,20,21)" stroke="rgb(14,20,21)" stroke-width="1" opacity="0.8745098039215686" d="M 19.5 205 L 20 207.5 L 19 207.5 L 19.5 205 Z " /><path fill="rgb(14,20,21)" stroke="rgb(14,20,21)" stroke-width="1" opacity="0.8745098039215686" d="M 61.5 213 L 60.5 215 L 61.5 213 Z " /><path fill="rgb(14,20,21)" stroke="rgb(14,20,21)" stroke-width="1" opacity="0.8745098039215686" d="M 22.5 214 L 28.5 221 L 22.5 214 Z " /><path fill="rgb(14,20,21)" stroke="rgb(14,20,21)" stroke-width="1" opacity="0.8745098039215686" d="M 59.5 216 L 56.5 220 L 59.5 216 Z " /><path fill="rgb(14,20,21)" stroke="rgb(14,20,21)" stroke-width="1" opacity="0.8745098039215686" d="M 54.5 220 L 53.5 222 L 54.5 220 Z " /><path fill="rgb(14,20,21)" stroke="rgb(14,20,21)" stroke-width="1" opacity="0.8745098039215686" d="M 30.5 221 L 33 222.5 L 31.5 223 L 30.5 221 Z " /><path fill="rgb(14,20,21)" stroke="rgb(14,20,21)" stroke-width="1" opacity="0.8745098039215686" d="M 37.5 224 L 46 224.5 L 37.5 225 L 37.5 224 Z " /><path fill="rgb(14,20,21)" stroke="rgb(14,20,21)" stroke-width="1" opacity="0.8745098039215686" d="M 234.5 224 L 239 224.5 L 234.5 225 L 234.5 224 Z " /><path fill="rgb(14,20,21)" stroke="rgb(14,20,21)" stroke-width="1" opacity="0.8745098039215686" d="M 227.5 227 L 226.5 229 L 227.5 227 Z " /><path fill="rgb(14,20,21)" stroke="rgb(14,20,21)" stroke-width="1" opacity="0.8745098039215686" d="M 245.5 227 L 248.5 231 L 245.5 227 Z " /><path fill="rgb(14,20,21)" stroke="rgb(14,20,21)" stroke-width="1" opacity="0.8745098039215686" d="M 224.5 230 L 222.5 233 L 224.5 230 Z " /><path fill="rgb(14,20,21)" stroke="rgb(14,20,21)" stroke-width="1" opacity="0.8745098039215686" d="M 250.5 234 L 251 236.5 L 250 236.5 L 250.5 234 Z " /><path fill="rgb(14,20,21)" stroke="rgb(14,20,21)" stroke-width="1" opacity="0.8745098039215686" d="M 220.5 236 L 219.5 238 L 220.5 236 Z " /><path fill="rgb(14,20,21)" stroke="rgb(14,20,21)" stroke-width="1" opacity="0.8745098039215686" d="M 216.5 243 L 215.5 245 L 216.5 243 Z " /><path fill="rgb(14,20,21)" stroke="rgb(14,20,21)" stroke-width="1" opacity="0.8745098039215686" d="M 249.5 246 L 250 247.5 L 247.5 251 L 248 249.5 L 249.5 246 Z " /><path fill="rgb(14,20,21)" stroke="rgb(14,20,21)" stroke-width="1" opacity="0.8745098039215686" d="M 245.5 254 L 244.5 256 L 245.5 254 Z " /><path fill="rgb(14,20,21)" stroke="rgb(14,20,21)" stroke-width="1" opacity="0.8745098039215686" d="M 209.5 255 L 208.5 257 L 209.5 255 Z " /><path fill="rgb(14,20,21)" stroke="rgb(14,20,21)" stroke-width="1" opacity="0.8745098039215686" d="M 142.5 256 L 143.5 258 L 142.5 256 Z " /><path fill="rgb(14,20,21)" stroke="rgb(14,20,21)" stroke-width="1" opacity="0.8745098039215686" d="M 125.5 258 L 121.5 263 L 125.5 258 Z " /><path fill="rgb(14,20,21)" stroke="rgb(14,20,21)" stroke-width="1" opacity="0.8745098039215686" d="M 241.5 261 L 240.5 263 L 241.5 261 Z " /><path fill="rgb(14,20,21)" stroke="rgb(14,20,21)" stroke-width="1" opacity="0.8745098039215686" d="M 205.5 262 L 204.5 264 L 205.5 262 Z " /><path fill="rgb(14,20,21)" stroke="rgb(14,20,21)" stroke-width="1" opacity="0.8745098039215686" d="M 149.5 265 L 150 268.5 L 149 268.5 L 149.5 265 Z " /><path fill="rgb(14,20,21)" stroke="rgb(14,20,21)" stroke-width="1" opacity="0.8745098039215686" d="M 237.5 268 L 236.5 270 L 237.5 268 Z " /><path fill="rgb(14,20,21)" stroke="rgb(14,20,21)" stroke-width="1" opacity="0.8745098039215686" d="M 149.5 271 L 150 274.5 L 149 274.5 L 149.5 271 Z " /><path fill="rgb(14,20,21)" stroke="rgb(14,20,21)" stroke-width="1" opacity="0.8745098039215686" d="M 115.5 273 L 114.5 275 L 115.5 273 Z " /><path fill="rgb(14,20,21)" stroke="rgb(14,20,21)" stroke-width="1" opacity="0.8745098039215686" d="M 234.5 273 L 234 274.5 L 232.5 277 L 233 275.5 L 234.5 273 Z " /><path fill="rgb(14,20,21)" stroke="rgb(14,20,21)" stroke-width="1" opacity="0.8745098039215686" d="M 147.5 279 L 146.5 281 L 147.5 279 Z " /><path fill="rgb(14,20,21)" stroke="rgb(14,20,21)" stroke-width="1" opacity="0.8745098039215686" d="M 111.5 280 L 110.5 282 L 111.5 280 Z " /><path fill="rgb(14,20,21)" stroke="rgb(14,20,21)" stroke-width="1" opacity="0.8745098039215686" d="M 230.5 280 L 229.5 282 L 230.5 280 Z " /><path fill="rgb(14,20,21)" stroke="rgb(14,20,21)" stroke-width="1" opacity="0.8745098039215686" d="M 396.5 280 L 408 280.5 L 396.5 281 L 396.5 280 Z " /><path fill="rgb(14,20,21)" stroke="rgb(14,20,21)" stroke-width="1" opacity="0.8745098039215686" d="M 108.5 285 L 105.5 289 L 104 288.5 L 108.5 285 Z " /><path fill="rgb(14,20,21)" stroke="rgb(14,20,21)" stroke-width="1" opacity="0.8745098039215686" d="M 143.5 286 L 142.5 288 L 143.5 286 Z " /><path fill="rgb(14,20,21)" stroke="rgb(14,20,21)" stroke-width="1" opacity="0.8745098039215686" d="M 226.5 287 L 225.5 289 L 226.5 287 Z " /><path fill="rgb(14,20,21)" stroke="rgb(14,20,21)" stroke-width="1" opacity="0.8745098039215686" d="M 427.5 287 L 428.5 289 L 427.5 287 Z " /><path fill="rgb(14,20,21)" stroke="rgb(14,20,21)" stroke-width="1" opacity="0.8745098039215686" d="M 191.5 289 L 192 293.5 L 191 293.5 L 191.5 289 Z " /><path fill="rgb(14,20,21)" stroke="rgb(14,20,21)" stroke-width="1" opacity="0.8745098039215686" d="M 430.5 289 L 432.5 292 L 430.5 289 Z " /><path fill="rgb(14,20,21)" stroke="rgb(14,20,21)" stroke-width="1" opacity="0.8745098039215686" d="M 140.5 291 L 140 292.5 L 138.5 295 L 139 293.5 L 140.5 291 Z " /><path fill="rgb(14,20,21)" stroke="rgb(14,20,21)" stroke-width="1" opacity="0.8745098039215686" d="M 369.5 292 L 364.5 298 L 369.5 292 Z " /><path fill="rgb(14,20,21)" stroke="rgb(14,20,21)" stroke-width="1" opacity="0.8745098039215686" d="M 222.5 294 L 221.5 296 L 222.5 294 Z " /><path fill="rgb(14,20,21)" stroke="rgb(14,20,21)" stroke-width="1" opacity="0.8745098039215686" d="M 396.5 296 L 399 296.5 L 396.5 297 L 396.5 296 Z " /><path fill="rgb(14,20,21)" stroke="rgb(14,20,21)" stroke-width="1" opacity="0.8745098039215686" d="M 406.5 296 L 409 296.5 L 406.5 297 L 406.5 296 Z " /><path fill="rgb(14,20,21)" stroke="rgb(14,20,21)" stroke-width="1" opacity="0.8745098039215686" d="M 136.5 298 L 135.5 300 L 136.5 298 Z " /><path fill="rgb(14,20,21)" stroke="rgb(14,20,21)" stroke-width="1" opacity="0.8745098039215686" d="M 439.5 298 L 441.5 301 L 439.5 298 Z " /><path fill="rgb(14,20,21)" stroke="rgb(14,20,21)" stroke-width="1" opacity="0.8745098039215686" d="M 193.5 299 L 194.5 301 L 193.5 299 Z " /><path fill="rgb(14,20,21)" stroke="rgb(14,20,21)" stroke-width="1" opacity="0.8745098039215686" d="M 388.5 299 L 387.5 301 L 388.5 299 Z " /><path fill="rgb(14,20,21)" stroke="rgb(14,20,21)" stroke-width="1" opacity="0.8745098039215686" d="M 218.5 300 L 216.5 303 L 218.5 300 Z " /><path fill="rgb(14,20,21)" stroke="rgb(14,20,21)" stroke-width="1" opacity="0.8745098039215686" d="M 362.5 300 L 361.5 302 L 362.5 300 Z " /><path fill="rgb(14,20,21)" stroke="rgb(14,20,21)" stroke-width="1" opacity="0.8745098039215686" d="M 418.5 300 L 419.5 302 L 418.5 300 Z " /><path fill="rgb(14,20,21)" stroke="rgb(14,20,21)" stroke-width="1" opacity="0.8745098039215686" d="M 385.5 301 L 380.5 307 L 385.5 301 Z " /><path fill="rgb(14,20,21)" stroke="rgb(14,20,21)" stroke-width="1" opacity="0.8745098039215686" d="M 421.5 302 L 425.5 307 L 421.5 302 Z " /><path fill="rgb(14,20,21)" stroke="rgb(14,20,21)" stroke-width="1" opacity="0.8745098039215686" d="M 442.5 302 L 443.5 304 L 442.5 302 Z " /><path fill="rgb(14,20,21)" stroke="rgb(14,20,21)" stroke-width="1" opacity="0.8745098039215686" d="M 197.5 303 L 198.5 305 L 197.5 303 Z " /><path fill="rgb(14,20,21)" stroke="rgb(14,20,21)" stroke-width="1" opacity="0.8745098039215686" d="M 214.5 303 L 213.5 305 L 214.5 303 Z " /><path fill="rgb(14,20,21)" stroke="rgb(14,20,21)" stroke-width="1" opacity="0.8745098039215686" d="M 132.5 305 L 131.5 307 L 132.5 305 Z " /><path fill="rgb(14,20,21)" stroke="rgb(14,20,21)" stroke-width="1" opacity="0.8745098039215686" d="M 359.5 305 L 358.5 307 L 359.5 305 Z " /><path fill="rgb(14,20,21)" stroke="rgb(14,20,21)" stroke-width="1" opacity="0.8745098039215686" d="M 204.5 306 L 208 306.5 L 204.5 307 L 204.5 306 Z " /><path fill="rgb(14,20,21)" stroke="rgb(14,20,21)" stroke-width="1" opacity="0.8745098039215686" d="M 129.5 310 L 129 311.5 L 127.5 314 L 128 312.5 L 129.5 310 Z " /><path fill="rgb(14,20,21)" stroke="rgb(14,20,21)" stroke-width="1" opacity="0.8745098039215686" d="M 395.5 312 L 391.5 317 L 395.5 312 Z " /><path fill="rgb(14,20,21)" stroke="rgb(14,20,21)" stroke-width="1" opacity="0.8745098039215686" d="M 411.5 313 L 417 320.5 L 416 320.5 L 411.5 313 Z " /><path fill="rgb(14,20,21)" stroke="rgb(14,20,21)" stroke-width="1" opacity="0.8745098039215686" d="M 125.5 317 L 124.5 319 L 125.5 317 Z " /><path fill="rgb(14,20,21)" stroke="rgb(14,20,21)" stroke-width="1" opacity="0.8745098039215686" d="M 90.5 318 L 91 324.5 L 90 324.5 L 90.5 318 Z " /><path fill="rgb(14,20,21)" stroke="rgb(14,20,21)" stroke-width="1" opacity="0.8745098039215686" d="M 375.5 318 L 376 324.5 L 375 324.5 L 375.5 318 Z " /><path fill="rgb(14,20,21)" stroke="rgb(14,20,21)" stroke-width="1" opacity="0.8745098039215686" d="M 390.5 318 L 391 323.5 L 390 323.5 L 390.5 318 Z " /><path fill="rgb(14,20,21)" stroke="rgb(14,20,21)" stroke-width="1" opacity="0.8745098039215686" d="M 431.5 318 L 432 320.5 L 431 320.5 L 431.5 318 Z " /><path fill="rgb(14,20,21)" stroke="rgb(14,20,21)" stroke-width="1" opacity="0.8745098039215686" d="M 121.5 324 L 120.5 326 L 121.5 324 Z " /><path fill="rgb(14,20,21)" stroke="rgb(14,20,21)" stroke-width="1" opacity="0.8745098039215686" d="M 450.5 324 L 451 336.5 L 450 336.5 L 450.5 324 Z " /><path fill="rgb(14,20,21)" stroke="rgb(14,20,21)" stroke-width="1" opacity="0.8745098039215686" d="M 431.5 325 L 432 327.5 L 431 327.5 L 431.5 325 Z " /><path fill="rgb(14,20,21)" stroke="rgb(14,20,21)" stroke-width="1" opacity="0.8745098039215686" d="M 391.5 326 L 392.5 328 L 391.5 326 Z " /><path fill="rgb(14,20,21)" stroke="rgb(14,20,21)" stroke-width="1" opacity="0.8745098039215686" d="M 118.5 329 L 114.5 334 L 118.5 329 Z " /><path fill="rgb(14,20,21)" stroke="rgb(14,20,21)" stroke-width="1" opacity="0.8745098039215686" d="M 93.5 331 L 95.5 334 L 93.5 331 Z " /><path fill="rgb(14,20,21)" stroke="rgb(14,20,21)" stroke-width="1" opacity="0.8745098039215686" d="M 412.5 331 L 411.5 333 L 410 332.5 L 412.5 331 Z " /><path fill="rgb(14,20,21)" stroke="rgb(14,20,21)" stroke-width="1" opacity="0.8745098039215686" d="M 97.5 334 L 100 335.5 L 98.5 336 L 97.5 334 Z " /><path fill="rgb(14,20,21)" stroke="rgb(14,20,21)" stroke-width="1" opacity="0.8745098039215686" d="M 101.5 336 L 108 336.5 L 101.5 337 L 101.5 336 Z " /><path fill="rgb(14,20,21)" stroke="rgb(14,20,21)" stroke-width="1" opacity="0.8745098039215686" d="M 380.5 336 L 381.5 338 L 380.5 336 Z " /><path fill="rgb(14,20,21)" stroke="rgb(14,20,21)" stroke-width="1" opacity="0.8745098039215686" d="M 427.5 337 L 425.5 340 L 427.5 337 Z " /><path fill="rgb(14,20,21)" stroke="rgb(14,20,21)" stroke-width="1" opacity="0.8745098039215686" d="M 423.5 341 L 421.5 344 L 423.5 341 Z " /><path fill="rgb(14,20,21)" stroke="rgb(14,20,21)" stroke-width="1" opacity="0.8745098039215686" d="M 386.5 342 L 387.5 344 L 386.5 342 Z " /><path fill="rgb(14,20,21)" stroke="rgb(14,20,21)" stroke-width="1" opacity="0.8745098039215686" d="M 449.5 342 L 450 344.5 L 449 344.5 L 449.5 342 Z " /><path fill="rgb(14,20,21)" stroke="rgb(14,20,21)" stroke-width="1" opacity="0.8745098039215686" d="M 419.5 344 L 418.5 346 L 419.5 344 Z " /><path fill="rgb(14,20,21)" stroke="rgb(14,20,21)" stroke-width="1" opacity="0.8745098039215686" d="M 400.5 348 L 403 348.5 L 400.5 349 L 400.5 348 Z " /><path fill="rgb(14,20,21)" stroke="rgb(14,20,21)" stroke-width="1" opacity="0.8745098039215686" d="M 406.5 348 L 410 348.5 L 406.5 349 L 406.5 348 Z " /><path fill="rgb(14,20,21)" stroke="rgb(14,20,21)" stroke-width="1" opacity="0.8745098039215686" d="M 448.5 348 L 449 350.5 L 448 350.5 L 448.5 348 Z " /><path fill="rgb(14,20,21)" stroke="rgb(14,20,21)" stroke-width="1" opacity="0.8745098039215686" d="M 332.5 366 L 331.5 368 L 332.5 366 Z " /><path fill="rgb(14,20,21)" stroke="rgb(14,20,21)" stroke-width="1" opacity="0.8745098039215686" d="M 329.5 370 L 327.5 373 L 329.5 370 Z " /><path fill="rgb(14,20,21)" stroke="rgb(14,20,21)" stroke-width="1" opacity="0.8745098039215686" d="M 325.5 375 L 321.5 380 L 325.5 375 Z " /><path fill="rgb(14,20,21)" stroke="rgb(14,20,21)" stroke-width="1" opacity="0.8745098039215686" d="M 312.5 389 L 309.5 393 L 312.5 389 Z " /><path fill="rgb(14,20,21)" stroke="rgb(14,20,21)" stroke-width="1" opacity="0.8745098039215686" d="M 170.5 404 L 173 404.5 L 170.5 405 L 170.5 404 Z " /><path fill="rgb(14,20,21)" stroke="rgb(14,20,21)" stroke-width="1" opacity="0.8745098039215686" d="M 179.5 407 L 185.5 414 L 179.5 407 Z " /><path fill="rgb(14,20,21)" stroke="rgb(14,20,21)" stroke-width="1" opacity="0.8745098039215686" d="M 425.5 408 L 426 410.5 L 425 410.5 L 425.5 408 Z " /><path fill="rgb(14,20,21)" stroke="rgb(14,20,21)" stroke-width="1" opacity="0.8745098039215686" d="M 151.5 409 L 149.5 412 L 151.5 409 Z " /><path fill="rgb(14,20,21)" stroke="rgb(14,20,21)" stroke-width="1" opacity="0.8745098039215686" d="M 147.5 414 L 147 415.5 L 146.5 417 L 146 415.5 L 147.5 414 Z " /><path fill="rgb(14,20,21)" stroke="rgb(14,20,21)" stroke-width="1" opacity="0.8745098039215686" d="M 427.5 414 L 428.5 416 L 427.5 414 Z " /><path fill="rgb(14,20,21)" stroke="rgb(14,20,21)" stroke-width="1" opacity="0.8745098039215686" d="M 299.5 415 L 300 417.5 L 299 417.5 L 299.5 415 Z " /><path fill="rgb(14,20,21)" stroke="rgb(14,20,21)" stroke-width="1" opacity="0.8745098039215686" d="M 144.5 420 L 145 422.5 L 144 422.5 L 144.5 420 Z " /><path fill="rgb(14,20,21)" stroke="rgb(14,20,21)" stroke-width="1" opacity="0.8745098039215686" d="M 189.5 423 L 190 430.5 L 189 430.5 L 189.5 423 Z " /><path fill="rgb(14,20,21)" stroke="rgb(14,20,21)" stroke-width="1" opacity="0.8745098039215686" d="M 299.5 428 L 300 430.5 L 299 430.5 L 299.5 428 Z " /><path fill="rgb(14,20,21)" stroke="rgb(14,20,21)" stroke-width="1" opacity="0.8745098039215686" d="M 188.5 432 L 189 434.5 L 185.5 440 L 186 438.5 L 188.5 432 Z " /><path fill="rgb(14,20,21)" stroke="rgb(14,20,21)" stroke-width="1" opacity="0.8745098039215686" d="M 408.5 432 L 406.5 435 L 408.5 432 Z " /><path fill="rgb(14,20,21)" stroke="rgb(14,20,21)" stroke-width="1" opacity="0.8745098039215686" d="M 403.5 438 L 388.5 454 L 403.5 438 Z " /><path fill="rgb(14,20,21)" stroke="rgb(14,20,21)" stroke-width="1" opacity="0.8745098039215686" d="M 147.5 439 L 153.5 446 L 147.5 439 Z " /><path fill="rgb(14,20,21)" stroke="rgb(14,20,21)" stroke-width="1" opacity="0.8745098039215686" d="M 184.5 441 L 181.5 445 L 184.5 441 Z " /><path fill="rgb(14,20,21)" stroke="rgb(14,20,21)" stroke-width="1" opacity="0.8745098039215686" d="M 179.5 445 L 178.5 447 L 179.5 445 Z " /><path fill="rgb(14,20,21)" stroke="rgb(14,20,21)" stroke-width="1" opacity="0.8745098039215686" d="M 155.5 446 L 158 447.5 L 156.5 448 L 155.5 446 Z " /><path fill="rgb(14,20,21)" stroke="rgb(14,20,21)" stroke-width="1" opacity="0.8745098039215686" d="M 175.5 447 L 177 447.5 L 173.5 449 L 173.5 448 L 175.5 447 Z " /><path fill="rgb(14,20,21)" stroke="rgb(14,20,21)" stroke-width="1" opacity="0.8745098039215686" d="M 162.5 449 L 171 449.5 L 162.5 450 L 162.5 449 Z " /><path fill="rgb(14,20,21)" stroke="rgb(14,20,21)" stroke-width="1" opacity="0.8745098039215686" d="M 307.5 450 L 308.5 452 L 307.5 450 Z " /><path fill="rgb(14,20,21)" stroke="rgb(14,20,21)" stroke-width="1" opacity="0.8745098039215686" d="M 310.5 454 L 315.5 460 L 310.5 454 Z " /><path fill="rgb(14,20,21)" stroke="rgb(14,20,21)" stroke-width="1" opacity="0.8745098039215686" d="M 385.5 455 L 383.5 458 L 385.5 455 Z " /><path fill="rgb(14,20,21)" stroke="rgb(14,20,21)" stroke-width="1" opacity="0.8745098039215686" d="M 380.5 459 L 379.5 461 L 380.5 459 Z " /><path fill="rgb(14,20,21)" stroke="rgb(14,20,21)" stroke-width="1" opacity="0.8745098039215686" d="M 318.5 461 L 319.5 463 L 318.5 461 Z " /><path fill="rgb(14,20,21)" stroke="rgb(14,20,21)" stroke-width="1" opacity="0.8745098039215686" d="M 377.5 461 L 376.5 463 L 377.5 461 Z " /><path fill="rgb(14,20,21)" stroke="rgb(14,20,21)" stroke-width="1" opacity="0.8745098039215686" d="M 372.5 464 L 371.5 466 L 372.5 464 Z " /><path fill="rgb(14,20,21)" stroke="rgb(14,20,21)" stroke-width="1" opacity="0.8745098039215686" d="M 337.5 470 L 340 470.5 L 337.5 471 L 337.5 470 Z " /><path fill="rgb(14,20,21)" stroke="rgb(14,20,21)" stroke-width="1" opacity="0.8745098039215686" d="M 344.5 471 L 352 471.5 L 344.5 472 L 344.5 471 Z " /><path fill="rgb(0,0,0)" stroke="rgb(0,0,0)" stroke-width="1" opacity="0" d="M 0 0 L 230 0.5 L 226 3.5 L 225 5.5 L 225 29 L 202.5 30 L 186 33 L 180 14.5 L 176.5 10 L 169.5 9 L 166 11.5 L 165 19.5 L 172 36.5 L 155.5 43 L 138.5 53 L 121.5 36 L 116.5 36 L 112 39.5 L 111 45.5 L 128 64.5 L 119 79.5 L 115 96 L 90.5 96 L 87 99.5 L 86 103.5 L 90.5 110 L 92.5 111 L 114.5 111 L 116 112.5 L 116 117.5 L 118 124.5 L 128 142.5 L 113 157.5 L 111 164.5 L 115.5 170 L 123.5 169 L 139.5 153 Q 151 164.2 171 166 L 171 190.5 L 175.5 195 Q 183.5 196.5 185 191.5 L 186 189.5 L 186 166 Q 198.6 165.5 208.5 161 L 225 159 L 225 181.5 L 229.5 187 Q 238.5 188.5 240 182.5 L 240 159.5 L 243.5 159 L 279 166 L 279 191.5 L 281.5 194 L 289.5 195 L 293 193 L 294 190.5 L 294 167.5 L 295.5 166 L 309.5 163 L 326.5 154 L 341.5 169 L 349.5 170 L 352 169 L 354 165.5 L 354 160.5 L 337 142.5 L 342 135.5 L 342 128.5 L 339 124.5 L 343 111 L 372.5 111 L 377 109 L 379 101.5 L 374.5 96 L 350.5 96 L 350 93.5 Q 346.7 75.3 337 63.5 L 353 47.5 L 354 41.5 L 350.5 37 L 344.5 36 L 325.5 53 Q 312.8 41.8 294 38 L 294 34.5 L 300 19.5 L 300 13.5 L 297.5 10 L 290.5 9 L 286 12.5 L 279 33 L 262.5 30 L 241.5 29 L 240 27.5 L 240 5.5 L 236.5 1 L 235 0.5 L 512 0 L 512 511.5 L 511.5 512 L 372.5 512 L 372.5 511 L 376 508.5 L 377 501.5 L 372 485.5 L 372 481 L 374.5 481 L 383.5 476 L 402.5 462 L 416.5 478 L 420.5 479 L 427 474.5 L 428 469.5 L 413 450.5 L 422 439.5 L 423 433.5 L 420 429.5 L 422 429 L 429.5 416 L 454.5 431 L 460.5 431 L 465 426.5 L 465 421.5 L 461.5 417 L 443 406.5 Q 453.2 390.9 458 371 L 475.5 375 L 482.5 375 L 486 372.5 L 487 364.5 L 481.5 360 L 463 357 L 466 327.5 L 465 326.5 L 465 320 L 487.5 314 L 490 311.5 L 491 304.5 Q 489.3 298.3 479.5 300 L 461.5 305 Q 454.3 289.2 441.5 279 Q 439.3 279.8 440 277.5 L 450 261.5 L 452 254.5 L 447.5 249 L 443.5 248 L 437 252.5 L 426.5 270 L 413.5 266 L 398.5 265 L 393.5 266 L 392 264.5 L 388 246.5 L 384.5 241 L 377.5 240 L 374 242.5 L 372 247.5 L 378 269.5 Q 365.2 275.2 356 284.5 L 350.5 291 L 334.5 281 L 327.5 279 L 323 281 L 321 288.5 L 325.5 294 L 343 304.5 L 331 341 L 310.5 330 L 306.5 330 L 302 333.5 L 301 339.5 L 305.5 345 L 322 354.5 L 317 362.5 L 297.5 384 L 291.5 382 L 276.5 373 L 272.5 373 L 268 376.5 L 267 382.5 L 271.5 388 L 289 397 L 284 416.5 L 284 429.5 L 285 432 L 264.5 437 L 259 441.5 Q 257.8 448.8 261.5 451 L 269.5 452 L 288.5 447 Q 293.9 460.1 303.5 469 L 309 473.5 L 309 475.5 L 298 493.5 L 298 498.5 L 300.5 502 L 305.5 504 L 311 502 L 322.5 482 L 337.5 486 L 357 486 L 362 506.5 L 365.5 511 L 367 511.5 L 0 512 L 0 0 Z M 464 144 Q 454 146 448 151 L 436 165 L 432 179 Q 432 197 441 207 Q 450 217 467 220 Q 484 220 494 212 Q 505 204 508 188 Q 509 176 506 169 L 497 154 Q 491 148 481 145 Q 474 143 464 144 Z M 36 164 L 21 170 Q 8 178 4 196 Q 3 215 11 225 L 25 236 L 39 240 Q 57 240 67 231 Q 77 222 80 206 L 79 193 L 72 179 Q 65 169 53 165 L 36 164 Z M 231 210 L 218 216 Q 210 222 206 231 L 183 271 L 177 284 L 177 299 L 182 310 Q 188 318 200 321 L 213 321 Q 222 319 228 313 L 233 307 L 262 257 L 266 246 Q 267 228 259 220 Q 254 212 244 210 L 231 210 Z M 131 240 Q 121 242 116 247 L 108 256 L 94 282 Q 94 287 98 289 L 90 302 L 89 301 L 83 302 L 77 311 L 75 320 Q 75 335 83 343 Q 89 350 102 352 Q 117 352 125 345 L 132 337 L 157 294 L 162 285 L 165 275 L 165 266 L 160 253 L 148 242 Q 141 239 131 240 Z M 161 389 Q 148 392 141 399 Q 132 407 129 421 L 129 434 Q 131 443 136 450 L 150 461 L 164 465 L 171 465 L 180 463 L 193 455 L 202 442 L 205 430 Q 205 413 197 404 Q 191 395 181 391 L 173 389 L 161 389 Z " /><path fill="rgb(0,0,0)" stroke="rgb(0,0,0)" stroke-width="1" opacity="0.996078431372549" d="M 230.5 0 L 235 0.5 L 230.5 1 L 230.5 0 Z " /><path fill="rgb(0,0,0)" stroke="rgb(0,0,0)" stroke-width="1" opacity="0.996078431372549" d="M 228.5 1 L 226.5 4 L 228.5 1 Z " /><path fill="rgb(0,0,0)" stroke="rgb(0,0,0)" stroke-width="1" opacity="0.996078431372549" d="M 236.5 1 L 238.5 4 L 236.5 1 Z " /><path fill="rgb(0,0,0)" stroke="rgb(0,0,0)" stroke-width="1" opacity="0.996078431372549" d="M 225.5 5 L 226 28.5 L 225 28.5 L 225.5 5 Z " /><path fill="rgb(0,0,0)" stroke="rgb(0,0,0)" stroke-width="1" opacity="0.996078431372549" d="M 167.5 10 L 166.5 12 L 167.5 10 Z " /><path fill="rgb(0,0,0)" stroke="rgb(0,0,0)" stroke-width="1" opacity="0.996078431372549" d="M 176.5 10 L 178.5 13 L 176.5 10 Z " /><path fill="rgb(0,0,0)" stroke="rgb(0,0,0)" stroke-width="1" opacity="0.996078431372549" d="M 288.5 10 L 287 12.5 L 286.5 14 L 286 12.5 L 288.5 10 Z " /><path fill="rgb(0,0,0)" stroke="rgb(0,0,0)" stroke-width="1" opacity="0.996078431372549" d="M 297.5 10 L 298.5 12 L 297.5 10 Z " /><path fill="rgb(0,0,0)" stroke="rgb(0,0,0)" stroke-width="1" opacity="0.996078431372549" d="M 296.5 27 L 297 28.5 L 295.5 31 L 295 29.5 L 296.5 27 Z " /><path fill="rgb(0,0,0)" stroke="rgb(0,0,0)" stroke-width="1" opacity="0.996078431372549" d="M 211.5 29 L 217 29.5 L 211.5 30 L 211.5 29 Z " /><path fill="rgb(0,0,0)" stroke="rgb(0,0,0)" stroke-width="1" opacity="0.996078431372549" d="M 248.5 29 L 254 29.5 L 248.5 30 L 248.5 29 Z " /><path fill="rgb(0,0,0)" stroke="rgb(0,0,0)" stroke-width="1" opacity="0.996078431372549" d="M 202.5 30 L 206 30.5 L 202.5 31 L 202.5 30 Z " /><path fill="rgb(0,0,0)" stroke="rgb(0,0,0)" stroke-width="1" opacity="0.996078431372549" d="M 259.5 30 L 263 30.5 L 259.5 31 L 259.5 30 Z " /><path fill="rgb(0,0,0)" stroke="rgb(0,0,0)" stroke-width="1" opacity="0.996078431372549" d="M 196.5 31 L 199 31.5 L 196.5 32 L 196.5 31 Z " /><path fill="rgb(0,0,0)" stroke="rgb(0,0,0)" stroke-width="1" opacity="0.996078431372549" d="M 266.5 31 L 270 31.5 L 266.5 32 L 266.5 31 Z " /><path fill="rgb(0,0,0)" stroke="rgb(0,0,0)" stroke-width="1" opacity="0.996078431372549" d="M 190.5 32 L 193 32.5 L 190.5 33 L 190.5 32 Z " /><path fill="rgb(0,0,0)" stroke="rgb(0,0,0)" stroke-width="1" opacity="0.996078431372549" d="M 272.5 32 L 275 32.5 L 272.5 33 L 272.5 32 Z " /><path fill="rgb(0,0,0)" stroke="rgb(0,0,0)" stroke-width="1" opacity="0.996078431372549" d="M 293.5 35 L 294 37.5 L 293 37.5 L 293.5 35 Z " /><path fill="rgb(0,0,0)" stroke="rgb(0,0,0)" stroke-width="1" opacity="0.996078431372549" d="M 120.5 36 L 123 37.5 L 121.5 37 L 120.5 36 Z " /><path fill="rgb(0,0,0)" stroke="rgb(0,0,0)" stroke-width="1" opacity="0.996078431372549" d="M 114.5 37 L 112.5 40 L 114.5 37 Z " /><path fill="rgb(0,0,0)" stroke="rgb(0,0,0)" stroke-width="1" opacity="0.996078431372549" d="M 342.5 37 L 326.5 54 L 323 51.5 L 325.5 53 L 342.5 37 Z " /><path fill="rgb(0,0,0)" stroke="rgb(0,0,0)" stroke-width="1" opacity="0.996078431372549" d="M 350.5 37 L 352.5 40 L 350.5 37 Z " /><path fill="rgb(0,0,0)" stroke="rgb(0,0,0)" stroke-width="1" opacity="0.996078431372549" d="M 162.5 40 L 164 40.5 L 160.5 42 L 160.5 41 L 162.5 40 Z " /><path fill="rgb(0,0,0)" stroke="rgb(0,0,0)" stroke-width="1" opacity="0.996078431372549" d="M 111.5 41 L 113 47.5 L 129 64.5 L 125.5 69 L 126 67.5 L 128 63.5 L 112 47.5 L 111.5 41 Z " /><path fill="rgb(0,0,0)" stroke="rgb(0,0,0)" stroke-width="1" opacity="0.996078431372549" d="M 306.5 42 L 312 44.5 L 310.5 45 L 306.5 43 L 306.5 42 Z " /><path fill="rgb(0,0,0)" stroke="rgb(0,0,0)" stroke-width="1" opacity="0.996078431372549" d="M 155.5 43 L 157 43.5 L 148.5 48 L 149.5 46 L 155.5 43 Z " /><path fill="rgb(0,0,0)" stroke="rgb(0,0,0)" stroke-width="1" opacity="0.996078431372549" d="M 313.5 45 L 319 48.5 L 317.5 48 Q 313.5 47.5 313.5 45 Z " /><path fill="rgb(0,0,0)" stroke="rgb(0,0,0)" stroke-width="1" opacity="0.996078431372549" d="M 352.5 47 L 337 63.5 L 339 66.5 L 336 64.5 L 352.5 47 Z " /><path fill="rgb(0,0,0)" stroke="rgb(0,0,0)" stroke-width="1" opacity="0.996078431372549" d="M 144.5 49 L 143.5 51 L 144.5 49 Z " /><path fill="rgb(0,0,0)" stroke="rgb(0,0,0)" stroke-width="1" opacity="0.996078431372549" d="M 320.5 49 L 321.5 51 L 320.5 49 Z " /><path fill="rgb(0,0,0)" stroke="rgb(0,0,0)" stroke-width="1" opacity="0.996078431372549" d="M 141.5 51 L 139.5 54 L 141.5 51 Z " /><path fill="rgb(0,0,0)" stroke="rgb(0,0,0)" stroke-width="1" opacity="0.996078431372549" d="M 339.5 68 L 340.5 70 L 339.5 68 Z " /><path fill="rgb(0,0,0)" stroke="rgb(0,0,0)" stroke-width="1" opacity="0.996078431372549" d="M 124.5 70 L 123.5 72 L 124.5 70 Z " /><path fill="rgb(0,0,0)" stroke="rgb(0,0,0)" stroke-width="1" opacity="0.996078431372549" d="M 342.5 73 L 344 75.5 L 343 75.5 L 342.5 73 Z " /><path fill="rgb(0,0,0)" stroke="rgb(0,0,0)" stroke-width="1" opacity="0.996078431372549" d="M 120.5 77 L 121 78.5 L 119.5 81 L 119 79.5 L 120.5 77 Z " /><path fill="rgb(0,0,0)" stroke="rgb(0,0,0)" stroke-width="1" opacity="0.996078431372549" d="M 116.5 89 L 117 91.5 L 116 91.5 L 116.5 89 Z " /><path fill="rgb(0,0,0)" stroke="rgb(0,0,0)" stroke-width="1" opacity="0.996078431372549" d="M 349.5 93 L 350 95.5 L 349 95.5 L 349.5 93 Z " /><path fill="rgb(0,0,0)" stroke="rgb(0,0,0)" stroke-width="1" opacity="0.996078431372549" d="M 90.5 96 L 92 96.5 L 88 99.5 L 87.5 101 L 87 99.5 L 90.5 96 Z " /><path fill="rgb(0,0,0)" stroke="rgb(0,0,0)" stroke-width="1" opacity="0.996078431372549" d="M 373.5 96 L 378 99.5 L 374.5 97 L 373.5 96 Z " /><path fill="rgb(0,0,0)" stroke="rgb(0,0,0)" stroke-width="1" opacity="0.996078431372549" d="M 378.5 101 L 379 104.5 L 378 104.5 L 378.5 101 Z " /><path fill="rgb(0,0,0)" stroke="rgb(0,0,0)" stroke-width="1" opacity="0.996078431372549" d="M 87.5 106 L 90.5 110 L 87.5 106 Z " /><path fill="rgb(0,0,0)" stroke="rgb(0,0,0)" stroke-width="1" opacity="0.996078431372549" d="M 92.5 110 L 115.5 110 L 116 111.5 L 114.5 111 L 92.5 111 L 92.5 110 Z " /><path fill="rgb(0,0,0)" stroke="rgb(0,0,0)" stroke-width="1" opacity="0.996078431372549" d="M 343.5 110 L 373 110.5 L 343.5 111 L 343.5 110 Z " /><path fill="rgb(0,0,0)" stroke="rgb(0,0,0)" stroke-width="1" opacity="0.996078431372549" d="M 116.5 115 L 117 117.5 L 116 117.5 L 116.5 115 Z " /><path fill="rgb(0,0,0)" stroke="rgb(0,0,0)" stroke-width="1" opacity="0.996078431372549" d="M 339.5 126 L 342 129.5 L 341 129.5 L 339.5 126 Z " /><path fill="rgb(0,0,0)" stroke="rgb(0,0,0)" stroke-width="1" opacity="0.996078431372549" d="M 120.5 128 L 124 134.5 L 122 133.5 L 120.5 128 Z " /><path fill="rgb(0,0,0)" stroke="rgb(0,0,0)" stroke-width="1" opacity="0.996078431372549" d="M 341.5 134 L 342 135.5 L 340 136.5 L 341.5 134 Z " /><path fill="rgb(0,0,0)" stroke="rgb(0,0,0)" stroke-width="1" opacity="0.996078431372549" d="M 124.5 136 L 125.5 138 L 124.5 136 Z " /><path fill="rgb(0,0,0)" stroke="rgb(0,0,0)" stroke-width="1" opacity="0.996078431372549" d="M 339.5 138 L 338 140.5 L 337 142.5 L 353 158.5 L 354 165.5 L 352 166.5 Q 354.2 165.3 353 160.5 L 336 142.5 L 339.5 138 Z " /><path fill="rgb(0,0,0)" stroke="rgb(0,0,0)" stroke-width="1" opacity="0.996078431372549" d="M 126.5 139 L 127.5 141 L 126.5 139 Z " /><path fill="rgb(0,0,0)" stroke="rgb(0,0,0)" stroke-width="1" opacity="0.996078431372549" d="M 128.5 142 L 113.5 158 L 128.5 142 Z " /><path fill="rgb(0,0,0)" stroke="rgb(0,0,0)" stroke-width="1" opacity="0.996078431372549" d="M 463.5 144 L 467 144.5 L 463.5 145 L 463.5 144 Z " /><path fill="rgb(0,0,0)" stroke="rgb(0,0,0)" stroke-width="1" opacity="0.996078431372549" d="M 473.5 144 L 477 144.5 L 473.5 145 L 473.5 144 Z " /><path fill="rgb(0,0,0)" stroke="rgb(0,0,0)" stroke-width="1" opacity="0.996078431372549" d="M 456.5 146 L 458 146.5 L 454.5 148 L 454.5 147 L 456.5 146 Z " /><path fill="rgb(0,0,0)" stroke="rgb(0,0,0)" stroke-width="1" opacity="0.996078431372549" d="M 452.5 148 L 451.5 150 L 440.5 159 L 447.5 151 L 452.5 148 Z " /><path fill="rgb(0,0,0)" stroke="rgb(0,0,0)" stroke-width="1" opacity="0.996078431372549" d="M 489.5 149 L 497 154.5 L 495.5 155 L 489.5 149 Z " /><path fill="rgb(0,0,0)" stroke="rgb(0,0,0)" stroke-width="1" opacity="0.996078431372549" d="M 138.5 153 L 123.5 169 L 138.5 153 Z " /><path fill="rgb(0,0,0)" stroke="rgb(0,0,0)" stroke-width="1" opacity="0.996078431372549" d="M 140.5 153 L 142.5 156 L 140.5 153 Z " /><path fill="rgb(0,0,0)" stroke="rgb(0,0,0)" stroke-width="1" opacity="0.996078431372549" d="M 325.5 153 L 342 168.5 L 326.5 154 L 325.5 153 Z " /><path fill="rgb(0,0,0)" stroke="rgb(0,0,0)" stroke-width="1" opacity="0.996078431372549" d="M 323.5 154 L 322.5 156 L 323.5 154 Z " /><path fill="rgb(0,0,0)" stroke="rgb(0,0,0)" stroke-width="1" opacity="0.996078431372549" d="M 144.5 156 L 148 158.5 L 146.5 158 L 144.5 156 Z " /><path fill="rgb(0,0,0)" stroke="rgb(0,0,0)" stroke-width="1" opacity="0.996078431372549" d="M 320.5 156 L 319.5 158 L 320.5 156 Z " /><path fill="rgb(0,0,0)" stroke="rgb(0,0,0)" stroke-width="1" opacity="0.996078431372549" d="M 497.5 156 L 503 162.5 L 501 161.5 L 497.5 156 Z " /><path fill="rgb(0,0,0)" stroke="rgb(0,0,0)" stroke-width="1" opacity="0.996078431372549" d="M 217.5 159 L 221 159.5 L 217.5 160 L 217.5 159 Z " /><path fill="rgb(0,0,0)" stroke="rgb(0,0,0)" stroke-width="1" opacity="0.996078431372549" d="M 225.5 159 L 226 181.5 L 225 181.5 L 225.5 159 Z " /><path fill="rgb(0,0,0)" stroke="rgb(0,0,0)" stroke-width="1" opacity="0.996078431372549" d="M 244.5 159 L 248 159.5 L 244.5 160 L 244.5 159 Z " /><path fill="rgb(0,0,0)" stroke="rgb(0,0,0)" stroke-width="1" opacity="0.996078431372549" d="M 211.5 160 L 214 160.5 L 211.5 161 L 211.5 160 Z " /><path fill="rgb(0,0,0)" stroke="rgb(0,0,0)" stroke-width="1" opacity="0.996078431372549" d="M 251.5 160 L 255 160.5 L 251.5 161 L 251.5 160 Z " /><path fill="rgb(0,0,0)" stroke="rgb(0,0,0)" stroke-width="1" opacity="0.996078431372549" d="M 439.5 160 L 438.5 162 L 439.5 160 Z " /><path fill="rgb(0,0,0)" stroke="rgb(0,0,0)" stroke-width="1" opacity="0.996078431372549" d="M 111.5 161 L 112 164.5 L 111 164.5 L 111.5 161 Z " /><path fill="rgb(0,0,0)" stroke="rgb(0,0,0)" stroke-width="1" opacity="0.996078431372549" d="M 201.5 162 L 204 162.5 L 201.5 163 L 201.5 162 Z " /><path fill="rgb(0,0,0)" stroke="rgb(0,0,0)" stroke-width="1" opacity="0.996078431372549" d="M 197.5 163 L 200 163.5 L 197.5 164 L 197.5 163 Z " /><path fill="rgb(0,0,0)" stroke="rgb(0,0,0)" stroke-width="1" opacity="0.996078431372549" d="M 437.5 163 L 437 164.5 L 435.5 168 L 435 166.5 L 437.5 163 Z " /><path fill="rgb(0,0,0)" stroke="rgb(0,0,0)" stroke-width="1" opacity="0.996078431372549" d="M 35.5 164 L 40 164.5 L 35.5 165 L 35.5 164 Z " /><path fill="rgb(0,0,0)" stroke="rgb(0,0,0)" stroke-width="1" opacity="0.996078431372549" d="M 44.5 164 L 48 164.5 L 44.5 165 L 44.5 164 Z " /><path fill="rgb(0,0,0)" stroke="rgb(0,0,0)" stroke-width="1" opacity="0.996078431372549" d="M 193.5 164 L 196 164.5 L 193.5 165 L 193.5 164 Z " /><path fill="rgb(0,0,0)" stroke="rgb(0,0,0)" stroke-width="1" opacity="0.996078431372549" d="M 301.5 164 L 304 164.5 L 301.5 165 L 301.5 164 Z " /><path fill="rgb(0,0,0)" stroke="rgb(0,0,0)" stroke-width="1" opacity="0.996078431372549" d="M 50.5 165 L 53 165.5 L 50.5 166 L 50.5 165 Z " /><path fill="rgb(0,0,0)" stroke="rgb(0,0,0)" stroke-width="1" opacity="0.996078431372549" d="M 166.5 165 L 169 165.5 L 166.5 166 L 166.5 165 Z " /><path fill="rgb(0,0,0)" stroke="rgb(0,0,0)" stroke-width="1" opacity="0.996078431372549" d="M 188.5 165 L 191 165.5 L 188.5 166 L 188.5 165 Z " /><path fill="rgb(0,0,0)" stroke="rgb(0,0,0)" stroke-width="1" opacity="0.996078431372549" d="M 274.5 165 L 277 165.5 L 274.5 166 L 274.5 165 Z " /><path fill="rgb(0,0,0)" stroke="rgb(0,0,0)" stroke-width="1" opacity="0.996078431372549" d="M 296.5 165 L 299 165.5 L 296.5 166 L 296.5 165 Z " /><path fill="rgb(0,0,0)" stroke="rgb(0,0,0)" stroke-width="1" opacity="0.996078431372549" d="M 112.5 166 L 115.5 170 L 112.5 166 Z " /><path fill="rgb(0,0,0)" stroke="rgb(0,0,0)" stroke-width="1" opacity="0.996078431372549" d="M 279.5 166 L 280 191.5 L 281.5 193 L 285 194.5 L 283.5 195 L 279 191.5 L 279.5 166 Z " /><path fill="rgb(0,0,0)" stroke="rgb(0,0,0)" stroke-width="1" opacity="0.996078431372549" d="M 56.5 167 Q 66.5 170.5 72 178.5 L 64.5 172 L 56.5 168 L 56.5 167 Z " /><path fill="rgb(0,0,0)" stroke="rgb(0,0,0)" stroke-width="1" opacity="0.996078431372549" d="M 350.5 168 L 352 168.5 L 349.5 170 L 350.5 168 Z " /><path fill="rgb(0,0,0)" stroke="rgb(0,0,0)" stroke-width="1" opacity="0.996078431372549" d="M 22.5 169 L 21.5 171 L 16.5 175 L 20.5 170 L 22.5 169 Z " /><path fill="rgb(0,0,0)" stroke="rgb(0,0,0)" stroke-width="1" opacity="0.996078431372549" d="M 433.5 172 L 434 174.5 L 433 174.5 L 433.5 172 Z " /><path fill="rgb(0,0,0)" stroke="rgb(0,0,0)" stroke-width="1" opacity="0.996078431372549" d="M 507.5 175 L 508 179.5 L 507 179.5 L 507.5 175 Z " /><path fill="rgb(0,0,0)" stroke="rgb(0,0,0)" stroke-width="1" opacity="0.996078431372549" d="M 14.5 176 L 11 180.5 L 9.5 183 L 10 181.5 L 14.5 176 Z " /><path fill="rgb(0,0,0)" stroke="rgb(0,0,0)" stroke-width="1" opacity="0.996078431372549" d="M 432.5 178 L 433 185.5 L 432 185.5 L 432.5 178 Z " /><path fill="rgb(0,0,0)" stroke="rgb(0,0,0)" stroke-width="1" opacity="0.996078431372549" d="M 72.5 180 L 73.5 182 L 72.5 180 Z " /><path fill="rgb(0,0,0)" stroke="rgb(0,0,0)" stroke-width="1" opacity="0.996078431372549" d="M 239.5 181 L 240 182.5 L 238 183.5 L 239.5 181 Z " /><path fill="rgb(0,0,0)" stroke="rgb(0,0,0)" stroke-width="1" opacity="0.996078431372549" d="M 74.5 183 L 76 185.5 L 75 185.5 L 74.5 183 Z " /><path fill="rgb(0,0,0)" stroke="rgb(0,0,0)" stroke-width="1" opacity="0.996078431372549" d="M 226.5 183 L 231 186.5 L 229.5 187 L 226.5 183 Z " /><path fill="rgb(0,0,0)" stroke="rgb(0,0,0)" stroke-width="1" opacity="0.996078431372549" d="M 507.5 184 L 508 187.5 L 507 187.5 L 507.5 184 Z " /><path fill="rgb(0,0,0)" stroke="rgb(0,0,0)" stroke-width="1" opacity="0.996078431372549" d="M 236.5 185 L 235.5 187 L 234 186.5 L 236.5 185 Z " /><path fill="rgb(0,0,0)" stroke="rgb(0,0,0)" stroke-width="1" opacity="0.996078431372549" d="M 171.5 189 L 175.5 194 L 177 194.5 L 175.5 195 L 171 190.5 L 171.5 189 Z " /><path fill="rgb(0,0,0)" stroke="rgb(0,0,0)" stroke-width="1" opacity="0.996078431372549" d="M 293.5 189 L 294 190.5 L 292.5 193 L 292 191.5 L 293.5 189 Z " /><path fill="rgb(0,0,0)" stroke="rgb(0,0,0)" stroke-width="1" opacity="0.996078431372549" d="M 506.5 190 L 507 192.5 L 506 192.5 L 506.5 190 Z " /><path fill="rgb(0,0,0)" stroke="rgb(0,0,0)" stroke-width="1" opacity="0.996078431372549" d="M 184.5 191 L 181.5 195 L 180 194.5 L 184.5 191 Z " /><path fill="rgb(0,0,0)" stroke="rgb(0,0,0)" stroke-width="1" opacity="0.996078431372549" d="M 78.5 192 L 79 194.5 L 78 194.5 L 78.5 192 Z " /><path fill="rgb(0,0,0)" stroke="rgb(0,0,0)" stroke-width="1" opacity="0.996078431372549" d="M 290.5 193 L 289.5 195 L 288 194.5 L 290.5 193 Z " /><path fill="rgb(0,0,0)" stroke="rgb(0,0,0)" stroke-width="1" opacity="0.996078431372549" d="M 434.5 193 L 436 196.5 L 435 196.5 L 434.5 193 Z " /><path fill="rgb(0,0,0)" stroke="rgb(0,0,0)" stroke-width="1" opacity="0.996078431372549" d="M 4.5 195 L 5 199.5 L 4 199.5 L 4.5 195 Z " /><path fill="rgb(0,0,0)" stroke="rgb(0,0,0)" stroke-width="1" opacity="0.996078431372549" d="M 504.5 196 L 505 197.5 L 500.5 204 L 502 201.5 L 504.5 196 Z " /><path fill="rgb(0,0,0)" stroke="rgb(0,0,0)" stroke-width="1" opacity="0.996078431372549" d="M 79.5 198 L 80 205.5 L 79 205.5 L 79.5 198 Z " /><path fill="rgb(0,0,0)" stroke="rgb(0,0,0)" stroke-width="1" opacity="0.996078431372549" d="M 437.5 200 L 441 204.5 L 438 202.5 L 437.5 200 Z " /><path fill="rgb(0,0,0)" stroke="rgb(0,0,0)" stroke-width="1" opacity="0.996078431372549" d="M 4.5 204 L 5 207.5 L 4 207.5 L 4.5 204 Z " /><path fill="rgb(0,0,0)" stroke="rgb(0,0,0)" stroke-width="1" opacity="0.996078431372549" d="M 499.5 205 L 493.5 212 L 499.5 205 Z " /><path fill="rgb(0,0,0)" stroke="rgb(0,0,0)" stroke-width="1" opacity="0.996078431372549" d="M 441.5 206 L 444.5 210 L 441.5 206 Z " /><path fill="rgb(0,0,0)" stroke="rgb(0,0,0)" stroke-width="1" opacity="0.996078431372549" d="M 5.5 210 L 6 212.5 L 5 212.5 L 5.5 210 Z " /><path fill="rgb(0,0,0)" stroke="rgb(0,0,0)" stroke-width="1" opacity="0.996078431372549" d="M 241.5 210 L 244 210.5 L 241.5 211 L 241.5 210 Z " /><path fill="rgb(0,0,0)" stroke="rgb(0,0,0)" stroke-width="1" opacity="0.996078431372549" d="M 447.5 211 L 452 214.5 L 450.5 214 L 447.5 211 Z " /><path fill="rgb(0,0,0)" stroke="rgb(0,0,0)" stroke-width="1" opacity="0.996078431372549" d="M 248.5 212 L 251 213.5 L 249.5 213 L 248.5 212 Z " /><path fill="rgb(0,0,0)" stroke="rgb(0,0,0)" stroke-width="1" opacity="0.996078431372549" d="M 491.5 212 L 490.5 214 L 491.5 212 Z " /><path fill="rgb(0,0,0)" stroke="rgb(0,0,0)" stroke-width="1" opacity="0.996078431372549" d="M 6.5 214 Q 10.4 225.1 19 231.5 L 11 224.5 L 6 215.5 L 6.5 214 Z " /><path fill="rgb(0,0,0)" stroke="rgb(0,0,0)" stroke-width="1" opacity="0.996078431372549" d="M 220.5 214 L 219.5 216 L 220.5 214 Z " /><path fill="rgb(0,0,0)" stroke="rgb(0,0,0)" stroke-width="1" opacity="0.996078431372549" d="M 252.5 214 L 253.5 216 L 252.5 214 Z " /><path fill="rgb(0,0,0)" stroke="rgb(0,0,0)" stroke-width="1" opacity="0.996078431372549" d="M 217.5 216 L 211.5 223 L 217.5 216 Z " /><path fill="rgb(0,0,0)" stroke="rgb(0,0,0)" stroke-width="1" opacity="0.996078431372549" d="M 255.5 216 L 258.5 220 L 255.5 216 Z " /><path fill="rgb(0,0,0)" stroke="rgb(0,0,0)" stroke-width="1" opacity="0.996078431372549" d="M 466.5 219 L 474 219.5 L 466.5 220 L 466.5 219 Z " /><path fill="rgb(0,0,0)" stroke="rgb(0,0,0)" stroke-width="1" opacity="0.996078431372549" d="M 74.5 220 L 74 221.5 L 71.5 225 L 73 222.5 L 74.5 220 Z " /><path fill="rgb(0,0,0)" stroke="rgb(0,0,0)" stroke-width="1" opacity="0.996078431372549" d="M 259.5 221 L 264 228.5 L 263 228.5 L 259.5 221 Z " /><path fill="rgb(0,0,0)" stroke="rgb(0,0,0)" stroke-width="1" opacity="0.996078431372549" d="M 210.5 224 L 210 225.5 L 208.5 228 L 209 226.5 L 210.5 224 Z " /><path fill="rgb(0,0,0)" stroke="rgb(0,0,0)" stroke-width="1" opacity="0.996078431372549" d="M 70.5 226 L 66.5 231 L 70.5 226 Z " /><path fill="rgb(0,0,0)" stroke="rgb(0,0,0)" stroke-width="1" opacity="0.996078431372549" d="M 207.5 229 L 207 230.5 L 205.5 233 L 206 231.5 L 207.5 229 Z " /><path fill="rgb(0,0,0)" stroke="rgb(0,0,0)" stroke-width="1" opacity="0.996078431372549" d="M 64.5 231 L 62.5 234 L 60.5 235 L 61.5 233 L 64.5 231 Z " /><path fill="rgb(0,0,0)" stroke="rgb(0,0,0)" stroke-width="1" opacity="0.996078431372549" d="M 20.5 232 L 21.5 234 L 20.5 232 Z " /><path fill="rgb(0,0,0)" stroke="rgb(0,0,0)" stroke-width="1" opacity="0.996078431372549" d="M 23.5 234 L 28 236.5 L 26.5 237 L 23.5 234 Z " /><path fill="rgb(0,0,0)" stroke="rgb(0,0,0)" stroke-width="1" opacity="0.996078431372549" d="M 265.5 234 L 266 237.5 L 265 237.5 L 265.5 234 Z " /><path fill="rgb(0,0,0)" stroke="rgb(0,0,0)" stroke-width="1" opacity="0.996078431372549" d="M 203.5 236 L 203 237.5 L 201.5 240 L 202 238.5 L 203.5 236 Z " /><path fill="rgb(0,0,0)" stroke="rgb(0,0,0)" stroke-width="1" opacity="0.996078431372549" d="M 32.5 238 L 35 238.5 L 32.5 239 L 32.5 238 Z " /><path fill="rgb(0,0,0)" stroke="rgb(0,0,0)" stroke-width="1" opacity="0.996078431372549" d="M 38.5 239 L 46 239.5 L 38.5 240 L 38.5 239 Z " /><path fill="rgb(0,0,0)" stroke="rgb(0,0,0)" stroke-width="1" opacity="0.996078431372549" d="M 130.5 240 L 134 240.5 L 130.5 241 L 130.5 240 Z " /><path fill="rgb(0,0,0)" stroke="rgb(0,0,0)" stroke-width="1" opacity="0.996078431372549" d="M 138.5 240 L 142 240.5 L 138.5 241 L 138.5 240 Z " /><path fill="rgb(0,0,0)" stroke="rgb(0,0,0)" stroke-width="1" opacity="0.996078431372549" d="M 377.5 240 L 379 240.5 L 374.5 243 L 375.5 241 L 377.5 240 Z " /><path fill="rgb(0,0,0)" stroke="rgb(0,0,0)" stroke-width="1" opacity="0.996078431372549" d="M 265.5 241 L 266 245.5 L 265 245.5 L 265.5 241 Z " /><path fill="rgb(0,0,0)" stroke="rgb(0,0,0)" stroke-width="1" opacity="0.996078431372549" d="M 384.5 241 L 385.5 243 L 384.5 241 Z " /><path fill="rgb(0,0,0)" stroke="rgb(0,0,0)" stroke-width="1" opacity="0.996078431372549" d="M 123.5 242 L 125 242.5 L 120.5 245 L 121.5 243 L 123.5 242 Z " /><path fill="rgb(0,0,0)" stroke="rgb(0,0,0)" stroke-width="1" opacity="0.996078431372549" d="M 146.5 242 L 151 244.5 L 149.5 244 Q 145.7 243.8 146.5 242 Z " /><path fill="rgb(0,0,0)" stroke="rgb(0,0,0)" stroke-width="1" opacity="0.996078431372549" d="M 199.5 243 L 199 244.5 L 197.5 247 L 198 245.5 L 199.5 243 Z " /><path fill="rgb(0,0,0)" stroke="rgb(0,0,0)" stroke-width="1" opacity="0.996078431372549" d="M 118.5 245 L 117.5 247 L 118.5 245 Z " /><path fill="rgb(0,0,0)" stroke="rgb(0,0,0)" stroke-width="1" opacity="0.996078431372549" d="M 152.5 245 L 161 254.5 L 159 253.5 L 152.5 245 Z " /><path fill="rgb(0,0,0)" stroke="rgb(0,0,0)" stroke-width="1" opacity="0.996078431372549" d="M 115.5 247 L 111.5 252 L 115.5 247 Z " /><path fill="rgb(0,0,0)" stroke="rgb(0,0,0)" stroke-width="1" opacity="0.996078431372549" d="M 196.5 248 L 196 249.5 L 193.5 254 L 194 252.5 L 196.5 248 Z " /><path fill="rgb(0,0,0)" stroke="rgb(0,0,0)" stroke-width="1" opacity="0.996078431372549" d="M 443.5 248 L 446 248.5 L 443.5 249 L 443.5 248 Z " /><path fill="rgb(0,0,0)" stroke="rgb(0,0,0)" stroke-width="1" opacity="0.996078431372549" d="M 440.5 249 L 437.5 253 L 440.5 249 Z " /><path fill="rgb(0,0,0)" stroke="rgb(0,0,0)" stroke-width="1" opacity="0.996078431372549" d="M 447.5 249 L 450.5 253 L 447.5 249 Z " /><path fill="rgb(0,0,0)" stroke="rgb(0,0,0)" stroke-width="1" opacity="0.996078431372549" d="M 110.5 253 L 109 255.5 L 107.5 258 L 108 256.5 L 110.5 253 Z " /><path fill="rgb(0,0,0)" stroke="rgb(0,0,0)" stroke-width="1" opacity="0.996078431372549" d="M 262.5 253 L 263 254.5 L 260.5 258 L 261 256.5 L 262.5 253 Z " /><path fill="rgb(0,0,0)" stroke="rgb(0,0,0)" stroke-width="1" opacity="0.996078431372549" d="M 451.5 254 L 452 256.5 L 451 256.5 L 451.5 254 Z " /><path fill="rgb(0,0,0)" stroke="rgb(0,0,0)" stroke-width="1" opacity="0.996078431372549" d="M 192.5 255 L 192 256.5 L 190.5 259 L 191 257.5 L 192.5 255 Z " /><path fill="rgb(0,0,0)" stroke="rgb(0,0,0)" stroke-width="1" opacity="0.996078431372549" d="M 435.5 256 L 435 257.5 L 433.5 260 L 434 258.5 L 435.5 256 Z " /><path fill="rgb(0,0,0)" stroke="rgb(0,0,0)" stroke-width="1" opacity="0.996078431372549" d="M 390.5 257 L 391 259.5 L 390 259.5 L 390.5 257 Z " /><path fill="rgb(0,0,0)" stroke="rgb(0,0,0)" stroke-width="1" opacity="0.996078431372549" d="M 259.5 259 L 259 260.5 L 257.5 263 L 258 261.5 L 259.5 259 Z " /><path fill="rgb(0,0,0)" stroke="rgb(0,0,0)" stroke-width="1" opacity="0.996078431372549" d="M 450.5 259 L 450 260.5 L 448.5 263 L 449 261.5 L 450.5 259 Z " /><path fill="rgb(0,0,0)" stroke="rgb(0,0,0)" stroke-width="1" opacity="0.996078431372549" d="M 105.5 261 L 105 262.5 L 103.5 265 L 104 263.5 L 105.5 261 Z " /><path fill="rgb(0,0,0)" stroke="rgb(0,0,0)" stroke-width="1" opacity="0.996078431372549" d="M 376.5 261 L 377 263.5 L 376 263.5 L 376.5 261 Z " /><path fill="rgb(0,0,0)" stroke="rgb(0,0,0)" stroke-width="1" opacity="0.996078431372549" d="M 188.5 262 L 188 263.5 L 186.5 266 L 187 264.5 L 188.5 262 Z " /><path fill="rgb(0,0,0)" stroke="rgb(0,0,0)" stroke-width="1" opacity="0.996078431372549" d="M 431.5 263 L 431 264.5 L 429.5 267 L 430 265.5 L 431.5 263 Z " /><path fill="rgb(0,0,0)" stroke="rgb(0,0,0)" stroke-width="1" opacity="0.996078431372549" d="M 164.5 265 L 165 274.5 L 164 274.5 L 164.5 265 Z " /><path fill="rgb(0,0,0)" stroke="rgb(0,0,0)" stroke-width="1" opacity="0.996078431372549" d="M 398.5 265 L 406 265.5 L 398.5 266 L 398.5 265 Z " /><path fill="rgb(0,0,0)" stroke="rgb(0,0,0)" stroke-width="1" opacity="0.996078431372549" d="M 102.5 266 L 102 267.5 L 100.5 270 L 101 268.5 L 102.5 266 Z " /><path fill="rgb(0,0,0)" stroke="rgb(0,0,0)" stroke-width="1" opacity="0.996078431372549" d="M 255.5 266 L 255 267.5 L 253.5 270 L 254 268.5 L 255.5 266 Z " /><path fill="rgb(0,0,0)" stroke="rgb(0,0,0)" stroke-width="1" opacity="0.996078431372549" d="M 410.5 266 L 414 266.5 L 410.5 267 L 410.5 266 Z " /><path fill="rgb(0,0,0)" stroke="rgb(0,0,0)" stroke-width="1" opacity="0.996078431372549" d="M 446.5 266 L 446 267.5 L 444.5 270 L 445 268.5 L 446.5 266 Z " /><path fill="rgb(0,0,0)" stroke="rgb(0,0,0)" stroke-width="1" opacity="0.996078431372549" d="M 428.5 268 L 428 269.5 Q 428.8 272.1 425.5 271 L 425.5 270 L 428.5 268 Z " /><path fill="rgb(0,0,0)" stroke="rgb(0,0,0)" stroke-width="1" opacity="0.996078431372549" d="M 184.5 269 L 184 270.5 L 182.5 273 L 183 271.5 L 184.5 269 Z " /><path fill="rgb(0,0,0)" stroke="rgb(0,0,0)" stroke-width="1" opacity="0.996078431372549" d="M 378.5 269 L 379 271 L 377 270.5 L 378.5 269 Z " /><path fill="rgb(0,0,0)" stroke="rgb(0,0,0)" stroke-width="1" opacity="0.996078431372549" d="M 98.5 273 L 98 274.5 L 96.5 277 L 97 275.5 L 98.5 273 Z " /><path fill="rgb(0,0,0)" stroke="rgb(0,0,0)" stroke-width="1" opacity="0.996078431372549" d="M 251.5 273 L 251 274.5 L 249.5 277 L 250 275.5 L 251.5 273 Z " /><path fill="rgb(0,0,0)" stroke="rgb(0,0,0)" stroke-width="1" opacity="0.996078431372549" d="M 442.5 273 L 442 274.5 L 440.5 277 L 441 275.5 L 442.5 273 Z " /><path fill="rgb(0,0,0)" stroke="rgb(0,0,0)" stroke-width="1" opacity="0.996078431372549" d="M 369.5 274 L 368.5 276 L 369.5 274 Z " /><path fill="rgb(0,0,0)" stroke="rgb(0,0,0)" stroke-width="1" opacity="0.996078431372549" d="M 366.5 276 L 365.5 278 L 366.5 276 Z " /><path fill="rgb(0,0,0)" stroke="rgb(0,0,0)" stroke-width="1" opacity="0.996078431372549" d="M 363.5 278 L 359.5 283 L 363.5 278 Z " /><path fill="rgb(0,0,0)" stroke="rgb(0,0,0)" stroke-width="1" opacity="0.996078431372549" d="M 327.5 279 L 331 279.5 L 327.5 280 L 327.5 279 Z " /><path fill="rgb(0,0,0)" stroke="rgb(0,0,0)" stroke-width="1" opacity="0.996078431372549" d="M 441.5 279 L 451.5 290 L 441.5 279 Z " /><path fill="rgb(0,0,0)" stroke="rgb(0,0,0)" stroke-width="1" opacity="0.996078431372549" d="M 247.5 280 L 247 281.5 L 245.5 284 L 246 282.5 L 247.5 280 Z " /><path fill="rgb(0,0,0)" stroke="rgb(0,0,0)" stroke-width="1" opacity="0.996078431372549" d="M 332.5 280 L 336 282.5 L 334.5 282 L 332.5 280 Z " /><path fill="rgb(0,0,0)" stroke="rgb(0,0,0)" stroke-width="1" opacity="0.996078431372549" d="M 161.5 283 L 162 284.5 L 159.5 288 L 160 286.5 L 161.5 283 Z " /><path fill="rgb(0,0,0)" stroke="rgb(0,0,0)" stroke-width="1" opacity="0.996078431372549" d="M 177.5 283 L 178 285.5 L 177 285.5 L 177.5 283 Z " /><path fill="rgb(0,0,0)" stroke="rgb(0,0,0)" stroke-width="1" opacity="0.996078431372549" d="M 357.5 283 L 356.5 285 L 357.5 283 Z " /><path fill="rgb(0,0,0)" stroke="rgb(0,0,0)" stroke-width="1" opacity="0.996078431372549" d="M 95.5 284 L 98 287.5 L 95 285.5 L 95.5 284 Z " /><path fill="rgb(0,0,0)" stroke="rgb(0,0,0)" stroke-width="1" opacity="0.996078431372549" d="M 339.5 284 L 343 286.5 L 341.5 286 L 339.5 284 Z " /><path fill="rgb(0,0,0)" stroke="rgb(0,0,0)" stroke-width="1" opacity="0.996078431372549" d="M 244.5 285 L 244 286.5 L 242.5 289 L 243 287.5 L 244.5 285 Z " /><path fill="rgb(0,0,0)" stroke="rgb(0,0,0)" stroke-width="1" opacity="0.996078431372549" d="M 321.5 285 L 322 288.5 L 321 288.5 L 321.5 285 Z " /><path fill="rgb(0,0,0)" stroke="rgb(0,0,0)" stroke-width="1" opacity="0.996078431372549" d="M 354.5 287 L 351.5 291 L 354.5 287 Z " /><path fill="rgb(0,0,0)" stroke="rgb(0,0,0)" stroke-width="1" opacity="0.996078431372549" d="M 346.5 288 L 350 290.5 L 348.5 290 L 346.5 288 Z " /><path fill="rgb(0,0,0)" stroke="rgb(0,0,0)" stroke-width="1" opacity="0.996078431372549" d="M 322.5 290 L 325.5 294 L 322.5 290 Z " /><path fill="rgb(0,0,0)" stroke="rgb(0,0,0)" stroke-width="1" opacity="0.996078431372549" d="M 157.5 291 L 157 292.5 L 155.5 295 L 156 293.5 L 157.5 291 Z " /><path fill="rgb(0,0,0)" stroke="rgb(0,0,0)" stroke-width="1" opacity="0.996078431372549" d="M 452.5 291 L 456 295.5 L 454 294.5 L 452.5 291 Z " /><path fill="rgb(0,0,0)" stroke="rgb(0,0,0)" stroke-width="1" opacity="0.996078431372549" d="M 240.5 292 L 240 293.5 L 238.5 296 L 239 294.5 L 240.5 292 Z " /><path fill="rgb(0,0,0)" stroke="rgb(0,0,0)" stroke-width="1" opacity="0.996078431372549" d="M 329.5 295 L 333 297.5 L 331.5 297 L 329.5 295 Z " /><path fill="rgb(0,0,0)" stroke="rgb(0,0,0)" stroke-width="1" opacity="0.996078431372549" d="M 154.5 296 L 154 297.5 L 152.5 300 L 153 298.5 L 154.5 296 Z " /><path fill="rgb(0,0,0)" stroke="rgb(0,0,0)" stroke-width="1" opacity="0.996078431372549" d="M 177.5 296 L 178 298.5 L 177 298.5 L 177.5 296 Z " /><path fill="rgb(0,0,0)" stroke="rgb(0,0,0)" stroke-width="1" opacity="0.996078431372549" d="M 456.5 297 L 459 300.5 L 457 299.5 L 456.5 297 Z " /><path fill="rgb(0,0,0)" stroke="rgb(0,0,0)" stroke-width="1" opacity="0.996078431372549" d="M 236.5 299 L 236 300.5 L 234.5 303 L 235 301.5 L 236.5 299 Z " /><path fill="rgb(0,0,0)" stroke="rgb(0,0,0)" stroke-width="1" opacity="0.996078431372549" d="M 336.5 299 L 340 301.5 L 338.5 301 L 336.5 299 Z " /><path fill="rgb(0,0,0)" stroke="rgb(0,0,0)" stroke-width="1" opacity="0.996078431372549" d="M 486.5 300 L 487.5 302 L 486.5 300 Z " /><path fill="rgb(0,0,0)" stroke="rgb(0,0,0)" stroke-width="1" opacity="0.996078431372549" d="M 475.5 301 L 478 301.5 L 475.5 302 L 475.5 301 Z " /><path fill="rgb(0,0,0)" stroke="rgb(0,0,0)" stroke-width="1" opacity="0.996078431372549" d="M 82.5 302 L 80.5 305 L 82.5 302 Z " /><path fill="rgb(0,0,0)" stroke="rgb(0,0,0)" stroke-width="1" opacity="0.996078431372549" d="M 341.5 302 L 344 303 L 343.5 305 L 341.5 302 Z " /><path fill="rgb(0,0,0)" stroke="rgb(0,0,0)" stroke-width="1" opacity="0.996078431372549" d="M 459.5 302 L 461.5 305 L 463 305.5 L 460 306 L 459.5 302 Z " /><path fill="rgb(0,0,0)" stroke="rgb(0,0,0)" stroke-width="1" opacity="0.996078431372549" d="M 150.5 303 L 150 304.5 L 148.5 307 L 149 305.5 L 150.5 303 Z " /><path fill="rgb(0,0,0)" stroke="rgb(0,0,0)" stroke-width="1" opacity="0.996078431372549" d="M 179.5 303 L 182 307.5 L 180 306.5 L 179.5 303 Z " /><path fill="rgb(0,0,0)" stroke="rgb(0,0,0)" stroke-width="1" opacity="0.996078431372549" d="M 489.5 303 Q 492.3 304.3 491 309.5 L 490 309.5 L 489.5 303 Z " /><path fill="rgb(0,0,0)" stroke="rgb(0,0,0)" stroke-width="1" opacity="0.996078431372549" d="M 233.5 304 L 233 305.5 L 229.5 310 L 232 306.5 L 233.5 304 Z " /><path fill="rgb(0,0,0)" stroke="rgb(0,0,0)" stroke-width="1" opacity="0.996078431372549" d="M 182.5 309 L 188.5 316 L 182.5 309 Z " /><path fill="rgb(0,0,0)" stroke="rgb(0,0,0)" stroke-width="1" opacity="0.996078431372549" d="M 146.5 310 L 146 311.5 L 144.5 314 L 145 312.5 L 146.5 310 Z " /><path fill="rgb(0,0,0)" stroke="rgb(0,0,0)" stroke-width="1" opacity="0.996078431372549" d="M 228.5 311 L 227.5 313 L 228.5 311 Z " /><path fill="rgb(0,0,0)" stroke="rgb(0,0,0)" stroke-width="1" opacity="0.996078431372549" d="M 489.5 311 L 487.5 314 L 486 313.5 L 489.5 311 Z " /><path fill="rgb(0,0,0)" stroke="rgb(0,0,0)" stroke-width="1" opacity="0.996078431372549" d="M 76.5 313 L 77 315.5 L 76 315.5 L 76.5 313 Z " /><path fill="rgb(0,0,0)" stroke="rgb(0,0,0)" stroke-width="1" opacity="0.996078431372549" d="M 225.5 313 L 223.5 316 L 225.5 313 Z " /><path fill="rgb(0,0,0)" stroke="rgb(0,0,0)" stroke-width="1" opacity="0.996078431372549" d="M 190.5 316 L 197 319.5 L 195.5 320 Q 190.9 318.8 190.5 316 Z " /><path fill="rgb(0,0,0)" stroke="rgb(0,0,0)" stroke-width="1" opacity="0.996078431372549" d="M 221.5 316 L 220.5 318 L 217.5 319 L 217.5 318 L 221.5 316 Z " /><path fill="rgb(0,0,0)" stroke="rgb(0,0,0)" stroke-width="1" opacity="0.996078431372549" d="M 142.5 317 L 142 318.5 L 140.5 321 L 141 319.5 L 142.5 317 Z " /><path fill="rgb(0,0,0)" stroke="rgb(0,0,0)" stroke-width="1" opacity="0.996078431372549" d="M 468.5 318 L 471 318.5 L 468.5 319 L 468.5 318 Z " /><path fill="rgb(0,0,0)" stroke="rgb(0,0,0)" stroke-width="1" opacity="0.996078431372549" d="M 75.5 319 L 76 323.5 L 75 323.5 L 75.5 319 Z " /><path fill="rgb(0,0,0)" stroke="rgb(0,0,0)" stroke-width="1" opacity="0.996078431372549" d="M 465.5 319 L 467 319.5 L 464.5 321 L 465.5 319 Z " /><path fill="rgb(0,0,0)" stroke="rgb(0,0,0)" stroke-width="1" opacity="0.996078431372549" d="M 210.5 320 L 213 320.5 L 210.5 321 L 210.5 320 Z " /><path fill="rgb(0,0,0)" stroke="rgb(0,0,0)" stroke-width="1" opacity="0.996078431372549" d="M 139.5 322 L 139 323.5 L 137.5 326 L 138 324.5 L 139.5 322 Z " /><path fill="rgb(0,0,0)" stroke="rgb(0,0,0)" stroke-width="1" opacity="0.996078431372549" d="M 76.5 327 L 77 329.5 L 76 329.5 L 76.5 327 Z " /><path fill="rgb(0,0,0)" stroke="rgb(0,0,0)" stroke-width="1" opacity="0.996078431372549" d="M 465.5 327 L 466 329.5 L 465 329.5 L 465.5 327 Z " /><path fill="rgb(0,0,0)" stroke="rgb(0,0,0)" stroke-width="1" opacity="0.996078431372549" d="M 135.5 329 L 135 330.5 L 133.5 333 L 134 331.5 L 135.5 329 Z " /><path fill="rgb(0,0,0)" stroke="rgb(0,0,0)" stroke-width="1" opacity="0.996078431372549" d="M 306.5 330 L 311 330.5 L 306.5 331 L 306.5 330 Z " /><path fill="rgb(0,0,0)" stroke="rgb(0,0,0)" stroke-width="1" opacity="0.996078431372549" d="M 304.5 331 L 302.5 334 L 304.5 331 Z " /><path fill="rgb(0,0,0)" stroke="rgb(0,0,0)" stroke-width="1" opacity="0.996078431372549" d="M 312.5 331 L 316 333.5 L 314.5 333 L 312.5 331 Z " /><path fill="rgb(0,0,0)" stroke="rgb(0,0,0)" stroke-width="1" opacity="0.996078431372549" d="M 132.5 334 L 132 335.5 L 129.5 339 L 131 336.5 L 132.5 334 Z " /><path fill="rgb(0,0,0)" stroke="rgb(0,0,0)" stroke-width="1" opacity="0.996078431372549" d="M 301.5 335 L 302 339.5 L 301 339.5 L 301.5 335 Z " /><path fill="rgb(0,0,0)" stroke="rgb(0,0,0)" stroke-width="1" opacity="0.996078431372549" d="M 319.5 335 L 323 337.5 L 321.5 337 L 319.5 335 Z " /><path fill="rgb(0,0,0)" stroke="rgb(0,0,0)" stroke-width="1" opacity="0.996078431372549" d="M 332.5 336 L 333 337.5 L 331.5 340 L 331 338.5 L 332.5 336 Z " /><path fill="rgb(0,0,0)" stroke="rgb(0,0,0)" stroke-width="1" opacity="0.996078431372549" d="M 80.5 338 L 82.5 341 L 80.5 338 Z " /><path fill="rgb(0,0,0)" stroke="rgb(0,0,0)" stroke-width="1" opacity="0.996078431372549" d="M 326.5 339 L 331 341.5 L 329.5 342 L 326.5 339 Z " /><path fill="rgb(0,0,0)" stroke="rgb(0,0,0)" stroke-width="1" opacity="0.996078431372549" d="M 464.5 339 L 465 343.5 L 464 343.5 L 464.5 339 Z " /><path fill="rgb(0,0,0)" stroke="rgb(0,0,0)" stroke-width="1" opacity="0.996078431372549" d="M 128.5 340 L 124.5 345 L 121.5 347 L 123.5 344 L 128.5 340 Z " /><path fill="rgb(0,0,0)" stroke="rgb(0,0,0)" stroke-width="1" opacity="0.996078431372549" d="M 302.5 341 L 305.5 345 L 302.5 341 Z " /><path fill="rgb(0,0,0)" stroke="rgb(0,0,0)" stroke-width="1" opacity="0.996078431372549" d="M 83.5 342 L 85.5 345 L 83.5 342 Z " /><path fill="rgb(0,0,0)" stroke="rgb(0,0,0)" stroke-width="1" opacity="0.996078431372549" d="M 87.5 345 L 88.5 347 L 87.5 345 Z " /><path fill="rgb(0,0,0)" stroke="rgb(0,0,0)" stroke-width="1" opacity="0.996078431372549" d="M 309.5 346 L 313 348.5 L 311.5 348 L 309.5 346 Z " /><path fill="rgb(0,0,0)" stroke="rgb(0,0,0)" stroke-width="1" opacity="0.996078431372549" d="M 90.5 347 L 95 349.5 L 93.5 350 L 90.5 347 Z " /><path fill="rgb(0,0,0)" stroke="rgb(0,0,0)" stroke-width="1" opacity="0.996078431372549" d="M 463.5 347 L 464 350.5 L 463 350.5 L 463.5 347 Z " /><path fill="rgb(0,0,0)" stroke="rgb(0,0,0)" stroke-width="1" opacity="0.996078431372549" d="M 96.5 350 L 99 350.5 L 96.5 351 L 96.5 350 Z " /><path fill="rgb(0,0,0)" stroke="rgb(0,0,0)" stroke-width="1" opacity="0.996078431372549" d="M 316.5 350 L 320 352.5 L 318.5 352 L 316.5 350 Z " /><path fill="rgb(0,0,0)" stroke="rgb(0,0,0)" stroke-width="1" opacity="0.996078431372549" d="M 101.5 351 L 108 351.5 L 101.5 352 L 101.5 351 Z " /><path fill="rgb(0,0,0)" stroke="rgb(0,0,0)" stroke-width="1" opacity="0.996078431372549" d="M 321.5 353 L 323 355.5 L 320 357.5 L 322 354.5 L 321.5 353 Z " /><path fill="rgb(0,0,0)" stroke="rgb(0,0,0)" stroke-width="1" opacity="0.996078431372549" d="M 462.5 353 L 463 356.5 L 462 356.5 L 462.5 353 Z " /><path fill="rgb(0,0,0)" stroke="rgb(0,0,0)" stroke-width="1" opacity="0.996078431372549" d="M 464.5 357 L 467 357.5 L 464.5 358 L 464.5 357 Z " /><path fill="rgb(0,0,0)" stroke="rgb(0,0,0)" stroke-width="1" opacity="0.996078431372549" d="M 470.5 358 L 473 358.5 L 470.5 359 L 470.5 358 Z " /><path fill="rgb(0,0,0)" stroke="rgb(0,0,0)" stroke-width="1" opacity="0.996078431372549" d="M 319.5 359 L 317.5 362 L 319.5 359 Z " /><path fill="rgb(0,0,0)" stroke="rgb(0,0,0)" stroke-width="1" opacity="0.996078431372549" d="M 483.5 361 L 487 365.5 L 486 365.5 L 483.5 361 Z " /><path fill="rgb(0,0,0)" stroke="rgb(0,0,0)" stroke-width="1" opacity="0.996078431372549" d="M 316.5 363 L 311.5 369 L 316.5 363 Z " /><path fill="rgb(0,0,0)" stroke="rgb(0,0,0)" stroke-width="1" opacity="0.996078431372549" d="M 310.5 370 L 299.5 382 L 310.5 370 Z " /><path fill="rgb(0,0,0)" stroke="rgb(0,0,0)" stroke-width="1" opacity="0.996078431372549" d="M 465.5 372 L 468 372.5 L 465.5 373 L 465.5 372 Z " /><path fill="rgb(0,0,0)" stroke="rgb(0,0,0)" stroke-width="1" opacity="0.996078431372549" d="M 485.5 372 L 484.5 374 L 485.5 372 Z " /><path fill="rgb(0,0,0)" stroke="rgb(0,0,0)" stroke-width="1" opacity="0.996078431372549" d="M 272.5 373 L 277 373.5 L 272.5 374 L 272.5 373 Z " /><path fill="rgb(0,0,0)" stroke="rgb(0,0,0)" stroke-width="1" opacity="0.996078431372549" d="M 470.5 373 L 473 373.5 L 470.5 374 L 470.5 373 Z " /><path fill="rgb(0,0,0)" stroke="rgb(0,0,0)" stroke-width="1" opacity="0.996078431372549" d="M 270.5 374 L 268.5 377 L 270.5 374 Z " /><path fill="rgb(0,0,0)" stroke="rgb(0,0,0)" stroke-width="1" opacity="0.996078431372549" d="M 475.5 374 L 478 374.5 L 475.5 375 L 475.5 374 Z " /><path fill="rgb(0,0,0)" stroke="rgb(0,0,0)" stroke-width="1" opacity="0.996078431372549" d="M 280.5 375 L 284 377.5 L 282.5 377 L 280.5 375 Z " /><path fill="rgb(0,0,0)" stroke="rgb(0,0,0)" stroke-width="1" opacity="0.996078431372549" d="M 267.5 378 L 268 382.5 L 267 382.5 L 267.5 378 Z " /><path fill="rgb(0,0,0)" stroke="rgb(0,0,0)" stroke-width="1" opacity="0.996078431372549" d="M 455.5 378 L 456 379.5 L 454.5 382 L 454 380.5 L 455.5 378 Z " /><path fill="rgb(0,0,0)" stroke="rgb(0,0,0)" stroke-width="1" opacity="0.996078431372549" d="M 287.5 379 L 291 381.5 L 289.5 381 L 287.5 379 Z " /><path fill="rgb(0,0,0)" stroke="rgb(0,0,0)" stroke-width="1" opacity="0.996078431372549" d="M 292.5 382 L 297.5 384 L 299 383.5 L 295.5 385 L 292.5 382 Z " /><path fill="rgb(0,0,0)" stroke="rgb(0,0,0)" stroke-width="1" opacity="0.996078431372549" d="M 453.5 383 L 454 384.5 L 452.5 387 L 452 385.5 L 453.5 383 Z " /><path fill="rgb(0,0,0)" stroke="rgb(0,0,0)" stroke-width="1" opacity="0.996078431372549" d="M 268.5 384 L 274 388.5 L 272.5 388 L 268.5 384 Z " /><path fill="rgb(0,0,0)" stroke="rgb(0,0,0)" stroke-width="1" opacity="0.996078431372549" d="M 451.5 388 L 452 389.5 L 449.5 394 L 449 392.5 L 451.5 388 Z " /><path fill="rgb(0,0,0)" stroke="rgb(0,0,0)" stroke-width="1" opacity="0.996078431372549" d="M 160.5 389 L 164 389.5 L 160.5 390 L 160.5 389 Z " /><path fill="rgb(0,0,0)" stroke="rgb(0,0,0)" stroke-width="1" opacity="0.996078431372549" d="M 169.5 389 L 173 389.5 L 169.5 390 L 169.5 389 Z " /><path fill="rgb(0,0,0)" stroke="rgb(0,0,0)" stroke-width="1" opacity="0.996078431372549" d="M 175.5 390 L 178 390.5 L 175.5 391 L 175.5 390 Z " /><path fill="rgb(0,0,0)" stroke="rgb(0,0,0)" stroke-width="1" opacity="0.996078431372549" d="M 277.5 390 L 281 392.5 L 279.5 392 L 277.5 390 Z " /><path fill="rgb(0,0,0)" stroke="rgb(0,0,0)" stroke-width="1" opacity="0.996078431372549" d="M 179.5 391 Q 190.8 394.8 197 403.5 L 189.5 397 L 179.5 392 L 179.5 391 Z " /><path fill="rgb(0,0,0)" stroke="rgb(0,0,0)" stroke-width="1" opacity="0.996078431372549" d="M 147.5 394 L 146.5 396 L 142.5 399 L 145.5 395 L 147.5 394 Z " /><path fill="rgb(0,0,0)" stroke="rgb(0,0,0)" stroke-width="1" opacity="0.996078431372549" d="M 284.5 394 L 285.5 396 L 284.5 394 Z " /><path fill="rgb(0,0,0)" stroke="rgb(0,0,0)" stroke-width="1" opacity="0.996078431372549" d="M 140.5 399 L 139.5 401 L 140.5 399 Z " /><path fill="rgb(0,0,0)" stroke="rgb(0,0,0)" stroke-width="1" opacity="0.996078431372549" d="M 138.5 402 L 135.5 406 L 138.5 402 Z " /><path fill="rgb(0,0,0)" stroke="rgb(0,0,0)" stroke-width="1" opacity="0.996078431372549" d="M 197.5 405 L 198.5 407 L 197.5 405 Z " /><path fill="rgb(0,0,0)" stroke="rgb(0,0,0)" stroke-width="1" opacity="0.996078431372549" d="M 443.5 407 L 446 408.5 L 444.5 408 L 443.5 407 Z " /><path fill="rgb(0,0,0)" stroke="rgb(0,0,0)" stroke-width="1" opacity="0.996078431372549" d="M 285.5 410 L 286 412.5 L 285 412.5 L 285.5 410 Z " /><path fill="rgb(0,0,0)" stroke="rgb(0,0,0)" stroke-width="1" opacity="0.996078431372549" d="M 449.5 410 L 453 412.5 L 451.5 412 L 449.5 410 Z " /><path fill="rgb(0,0,0)" stroke="rgb(0,0,0)" stroke-width="1" opacity="0.996078431372549" d="M 454.5 413 L 458 415.5 L 456.5 415 L 454.5 413 Z " /><path fill="rgb(0,0,0)" stroke="rgb(0,0,0)" stroke-width="1" opacity="0.996078431372549" d="M 284.5 416 L 285 429.5 L 284 429.5 L 284.5 416 Z " /><path fill="rgb(0,0,0)" stroke="rgb(0,0,0)" stroke-width="1" opacity="0.996078431372549" d="M 432.5 417 L 436 419.5 L 434.5 419 L 432.5 417 Z " /><path fill="rgb(0,0,0)" stroke="rgb(0,0,0)" stroke-width="1" opacity="0.996078431372549" d="M 461.5 417 L 463.5 420 L 461.5 417 Z " /><path fill="rgb(0,0,0)" stroke="rgb(0,0,0)" stroke-width="1" opacity="0.996078431372549" d="M 129.5 420 L 130 422.5 L 129 422.5 L 129.5 420 Z " /><path fill="rgb(0,0,0)" stroke="rgb(0,0,0)" stroke-width="1" opacity="0.996078431372549" d="M 439.5 421 L 443 423.5 L 441.5 423 L 439.5 421 Z " /><path fill="rgb(0,0,0)" stroke="rgb(0,0,0)" stroke-width="1" opacity="0.996078431372549" d="M 204.5 424 L 205 429.5 L 204 429.5 L 204.5 424 Z " /><path fill="rgb(0,0,0)" stroke="rgb(0,0,0)" stroke-width="1" opacity="0.996078431372549" d="M 444.5 424 L 448 426.5 L 446.5 426 L 444.5 424 Z " /><path fill="rgb(0,0,0)" stroke="rgb(0,0,0)" stroke-width="1" opacity="0.996078431372549" d="M 464.5 425 L 465 426.5 L 463 427.5 L 464.5 425 Z " /><path fill="rgb(0,0,0)" stroke="rgb(0,0,0)" stroke-width="1" opacity="0.996078431372549" d="M 451.5 428 L 456 430.5 L 454.5 431 L 451.5 428 Z " /><path fill="rgb(0,0,0)" stroke="rgb(0,0,0)" stroke-width="1" opacity="0.996078431372549" d="M 461.5 429 L 460.5 431 L 459 430.5 L 461.5 429 Z " /><path fill="rgb(0,0,0)" stroke="rgb(0,0,0)" stroke-width="1" opacity="0.996078431372549" d="M 129.5 430 L 130 433.5 L 129 433.5 L 129.5 430 Z " /><path fill="rgb(0,0,0)" stroke="rgb(0,0,0)" stroke-width="1" opacity="0.996078431372549" d="M 420.5 430 L 421.5 432 L 420.5 430 Z " /><path fill="rgb(0,0,0)" stroke="rgb(0,0,0)" stroke-width="1" opacity="0.996078431372549" d="M 282.5 432 L 285 432.5 L 282.5 433 L 282.5 432 Z " /><path fill="rgb(0,0,0)" stroke="rgb(0,0,0)" stroke-width="1" opacity="0.996078431372549" d="M 203.5 433 L 204 435.5 L 203 435.5 L 203.5 433 Z " /><path fill="rgb(0,0,0)" stroke="rgb(0,0,0)" stroke-width="1" opacity="0.996078431372549" d="M 422.5 433 L 423 437.5 L 422 437.5 L 422.5 433 Z " /><path fill="rgb(0,0,0)" stroke="rgb(0,0,0)" stroke-width="1" opacity="0.996078431372549" d="M 267.5 436 L 270 436.5 L 267.5 437 L 267.5 436 Z " /><path fill="rgb(0,0,0)" stroke="rgb(0,0,0)" stroke-width="1" opacity="0.996078431372549" d="M 262.5 438 L 260 441.5 L 259.5 443 L 259 441.5 L 262.5 438 Z " /><path fill="rgb(0,0,0)" stroke="rgb(0,0,0)" stroke-width="1" opacity="0.996078431372549" d="M 421.5 439 L 420 441.5 L 414.5 448 L 419 442.5 L 421.5 439 Z " /><path fill="rgb(0,0,0)" stroke="rgb(0,0,0)" stroke-width="1" opacity="0.996078431372549" d="M 133.5 444 L 136 447.5 L 134 446.5 L 133.5 444 Z " /><path fill="rgb(0,0,0)" stroke="rgb(0,0,0)" stroke-width="1" opacity="0.996078431372549" d="M 199.5 445 L 198.5 447 L 199.5 445 Z " /><path fill="rgb(0,0,0)" stroke="rgb(0,0,0)" stroke-width="1" opacity="0.996078431372549" d="M 286.5 446 L 290 447.5 L 288.5 447 Q 285.5 447.5 286.5 446 Z " /><path fill="rgb(0,0,0)" stroke="rgb(0,0,0)" stroke-width="1" opacity="0.996078431372549" d="M 197.5 448 L 195.5 451 L 197.5 448 Z " /><path fill="rgb(0,0,0)" stroke="rgb(0,0,0)" stroke-width="1" opacity="0.996078431372549" d="M 136.5 449 L 143.5 457 L 136.5 449 Z " /><path fill="rgb(0,0,0)" stroke="rgb(0,0,0)" stroke-width="1" opacity="0.996078431372549" d="M 260.5 449 L 261.5 451 L 260.5 449 Z " /><path fill="rgb(0,0,0)" stroke="rgb(0,0,0)" stroke-width="1" opacity="0.996078431372549" d="M 275.5 449 L 278 449.5 L 275.5 450 L 275.5 449 Z " /><path fill="rgb(0,0,0)" stroke="rgb(0,0,0)" stroke-width="1" opacity="0.996078431372549" d="M 290.5 449 L 293 453.5 L 291 452.5 L 290.5 449 Z " /><path fill="rgb(0,0,0)" stroke="rgb(0,0,0)" stroke-width="1" opacity="0.996078431372549" d="M 413.5 449 L 413 450.5 L 418 456.5 L 412 451.5 L 413.5 449 Z " /><path fill="rgb(0,0,0)" stroke="rgb(0,0,0)" stroke-width="1" opacity="0.996078431372549" d="M 194.5 452 L 192.5 455 L 194.5 452 Z " /><path fill="rgb(0,0,0)" stroke="rgb(0,0,0)" stroke-width="1" opacity="0.996078431372549" d="M 190.5 455 L 188.5 458 L 190.5 455 Z " /><path fill="rgb(0,0,0)" stroke="rgb(0,0,0)" stroke-width="1" opacity="0.996078431372549" d="M 145.5 457 L 146.5 459 L 145.5 457 Z " /><path fill="rgb(0,0,0)" stroke="rgb(0,0,0)" stroke-width="1" opacity="0.996078431372549" d="M 294.5 457 L 300 463.5 L 296 460.5 L 294.5 457 Z " /><path fill="rgb(0,0,0)" stroke="rgb(0,0,0)" stroke-width="1" opacity="0.996078431372549" d="M 186.5 458 L 185.5 460 L 186.5 458 Z " /><path fill="rgb(0,0,0)" stroke="rgb(0,0,0)" stroke-width="1" opacity="0.996078431372549" d="M 418.5 458 L 424.5 465 L 418.5 458 Z " /><path fill="rgb(0,0,0)" stroke="rgb(0,0,0)" stroke-width="1" opacity="0.996078431372549" d="M 148.5 459 L 153 461.5 L 151.5 462 L 148.5 459 Z " /><path fill="rgb(0,0,0)" stroke="rgb(0,0,0)" stroke-width="1" opacity="0.996078431372549" d="M 180.5 461 L 182 461.5 L 178.5 463 L 178.5 462 L 180.5 461 Z " /><path fill="rgb(0,0,0)" stroke="rgb(0,0,0)" stroke-width="1" opacity="0.996078431372549" d="M 401.5 461 L 404 462.5 L 402.5 462 L 394.5 468 L 398.5 463 L 401.5 461 Z " /><path fill="rgb(0,0,0)" stroke="rgb(0,0,0)" stroke-width="1" opacity="0.996078431372549" d="M 157.5 463 L 160 463.5 L 157.5 464 L 157.5 463 Z " /><path fill="rgb(0,0,0)" stroke="rgb(0,0,0)" stroke-width="1" opacity="0.996078431372549" d="M 163.5 464 L 171 464.5 L 163.5 465 L 163.5 464 Z " /><path fill="rgb(0,0,0)" stroke="rgb(0,0,0)" stroke-width="1" opacity="0.996078431372549" d="M 404.5 464 L 410.5 471 L 404.5 464 Z " /><path fill="rgb(0,0,0)" stroke="rgb(0,0,0)" stroke-width="1" opacity="0.996078431372549" d="M 300.5 465 L 303.5 469 L 300.5 465 Z " /><path fill="rgb(0,0,0)" stroke="rgb(0,0,0)" stroke-width="1" opacity="0.996078431372549" d="M 425.5 466 L 426.5 468 L 425.5 466 Z " /><path fill="rgb(0,0,0)" stroke="rgb(0,0,0)" stroke-width="1" opacity="0.996078431372549" d="M 392.5 468 L 389.5 472 L 381.5 477 L 382.5 475 L 392.5 468 Z " /><path fill="rgb(0,0,0)" stroke="rgb(0,0,0)" stroke-width="1" opacity="0.996078431372549" d="M 427.5 469 L 428 472.5 L 427 472.5 L 427.5 469 Z " /><path fill="rgb(0,0,0)" stroke="rgb(0,0,0)" stroke-width="1" opacity="0.996078431372549" d="M 306.5 470 L 310 474.5 L 309 474.5 L 306.5 470 Z " /><path fill="rgb(0,0,0)" stroke="rgb(0,0,0)" stroke-width="1" opacity="0.996078431372549" d="M 411.5 472 L 418 477.5 L 416.5 478 L 411.5 472 Z " /><path fill="rgb(0,0,0)" stroke="rgb(0,0,0)" stroke-width="1" opacity="0.996078431372549" d="M 426.5 474 L 423.5 478 L 426.5 474 Z " /><path fill="rgb(0,0,0)" stroke="rgb(0,0,0)" stroke-width="1" opacity="0.996078431372549" d="M 308.5 476 L 308 477.5 L 306.5 480 L 307 478.5 L 308.5 476 Z " /><path fill="rgb(0,0,0)" stroke="rgb(0,0,0)" stroke-width="1" opacity="0.996078431372549" d="M 379.5 477 L 378.5 479 L 373.5 481 L 373.5 480 L 379.5 477 Z " /><path fill="rgb(0,0,0)" stroke="rgb(0,0,0)" stroke-width="1" opacity="0.996078431372549" d="M 322.5 481 L 325 481.5 L 321.5 483 L 322.5 481 Z " /><path fill="rgb(0,0,0)" stroke="rgb(0,0,0)" stroke-width="1" opacity="0.996078431372549" d="M 371.5 481 L 372 484.5 L 371 484.5 L 371.5 481 Z " /><path fill="rgb(0,0,0)" stroke="rgb(0,0,0)" stroke-width="1" opacity="0.996078431372549" d="M 304.5 483 L 304 484.5 L 302.5 487 L 303 485.5 L 304.5 483 Z " /><path fill="rgb(0,0,0)" stroke="rgb(0,0,0)" stroke-width="1" opacity="0.996078431372549" d="M 332.5 484 L 335 484.5 L 332.5 485 L 332.5 484 Z " /><path fill="rgb(0,0,0)" stroke="rgb(0,0,0)" stroke-width="1" opacity="0.996078431372549" d="M 337.5 485 L 341 485.5 L 337.5 486 L 337.5 485 Z " /><path fill="rgb(0,0,0)" stroke="rgb(0,0,0)" stroke-width="1" opacity="0.996078431372549" d="M 355.5 485 L 358 486.5 L 357.5 489 L 357 486 L 355.5 485 Z " /><path fill="rgb(0,0,0)" stroke="rgb(0,0,0)" stroke-width="1" opacity="0.996078431372549" d="M 319.5 486 L 319 487.5 L 317.5 490 L 318 488.5 L 319.5 486 Z " /><path fill="rgb(0,0,0)" stroke="rgb(0,0,0)" stroke-width="1" opacity="0.996078431372549" d="M 301.5 488 L 301 489.5 L 299.5 492 L 300 490.5 L 301.5 488 Z " /><path fill="rgb(0,0,0)" stroke="rgb(0,0,0)" stroke-width="1" opacity="0.996078431372549" d="M 315.5 493 L 315 494.5 L 313.5 497 L 314 495.5 L 315.5 493 Z " /><path fill="rgb(0,0,0)" stroke="rgb(0,0,0)" stroke-width="1" opacity="0.996078431372549" d="M 374.5 493 L 375 495.5 L 374 495.5 L 374.5 493 Z " /><path fill="rgb(0,0,0)" stroke="rgb(0,0,0)" stroke-width="1" opacity="0.996078431372549" d="M 298.5 497 L 301 501.5 L 299 500.5 L 298.5 497 Z " /><path fill="rgb(0,0,0)" stroke="rgb(0,0,0)" stroke-width="1" opacity="0.996078431372549" d="M 312.5 498 L 311.5 500 L 312.5 498 Z " /><path fill="rgb(0,0,0)" stroke="rgb(0,0,0)" stroke-width="1" opacity="0.996078431372549" d="M 361.5 501 L 362 503.5 L 361 503.5 L 361.5 501 Z " /><path fill="rgb(0,0,0)" stroke="rgb(0,0,0)" stroke-width="1" opacity="0.996078431372549" d="M 363.5 508 L 365.5 511 L 363.5 508 Z " /><path fill="rgb(0,0,0)" stroke="rgb(0,0,0)" stroke-width="1" opacity="0.996078431372549" d="M 375.5 508 L 373.5 511 L 375.5 508 Z " /><path fill="rgb(0,0,0)" stroke="rgb(0,0,0)" stroke-width="1" opacity="0.996078431372549" d="M 367.5 511 L 372 511.5 L 367.5 512 L 367.5 511 Z " /><path fill="rgb(0,0,0)" stroke="rgb(0,0,0)" stroke-width="1" opacity="1" d="M 229.5 1 Q 237.5 -0.5 239 4.5 L 240 6.5 L 240 29 L 258.5 30 L 279 34 L 285 16.5 L 289.5 10 L 293.5 9 L 299 12.5 L 300 18.5 Q 294.7 27.1 293 38 Q 312.6 42.7 326.5 54 L 343.5 37 L 347.5 36 L 353 40.5 L 354 43.5 L 353 46.5 L 336 64.5 Q 347.6 75.7 349 96 L 372.5 96 L 378 100.5 Q 379 107 375.5 109 L 373.5 110 L 340.5 110 L 337 107.5 L 335 93.5 L 332 83.5 Q 326.4 71.6 316.5 64 L 300.5 55 L 274.5 47 L 256.5 45 L 255.5 44 L 244.5 44 L 243.5 43 L 221.5 43 L 220.5 44 L 209.5 44 L 208.5 45 L 195.5 46 L 169.5 53 L 151.5 62 L 140 72.5 L 131 90.5 Q 128.2 99.2 130 112.5 Q 134.6 132.9 149.5 143 L 166.5 151 L 185.5 152 L 214.5 145 L 241.5 144 L 242.5 145 L 250.5 145 L 261.5 147 L 279.5 152 L 293.5 152 Q 312.3 148.3 323 136.5 L 330.5 126 L 337.5 125 Q 341.9 127.1 342 133.5 L 336 142.5 L 352 158.5 L 353 165.5 L 352 168 L 348.5 170 L 344.5 170 L 325.5 153 L 310.5 162 L 294 166 L 294 188.5 L 292 193 L 285.5 195 L 280 191.5 L 280 166.5 L 277.5 166 L 254.5 160 L 240 159 L 240 180.5 L 238 185 L 231.5 187 L 226 182.5 L 226 159 L 217.5 159 L 186 166 L 186 187.5 L 181.5 194 L 177.5 195 L 172 190.5 L 171 188.5 L 171 166 L 152.5 161 L 140.5 153 L 138.5 153 L 122.5 169 L 116.5 170 L 112 165.5 L 112 160.5 L 129 142.5 Q 117.6 130.5 116 110 L 91.5 110 L 87 105.5 Q 86.1 98.6 90.5 97 L 92.5 96 L 116 96 Q 118.3 76 129 63.5 L 113 47.5 L 112 40.5 Q 114 36.5 119.5 36 L 123.5 38 L 139.5 54 Q 153 42.6 172 38 L 172 34.5 L 165 15.5 L 168.5 10 L 173.5 9 L 179 13.5 L 186 34 L 206.5 30 L 226 29 L 226 4.5 L 229.5 1 Z " /><path fill="rgb(0,0,0)" stroke="rgb(0,0,0)" stroke-width="1" opacity="1" d="M 289.5 77 L 302.5 78 L 314 86.5 L 318 93.5 L 320 104.5 Q 317.5 106 319 111.5 L 315 120.5 L 306.5 129 L 296.5 133 L 288.5 133 Q 277.6 130.4 272 122.5 Q 266.3 115.7 267 102.5 Q 269.1 89.6 277.5 83 L 289.5 77 Z M 293 91 L 290 92 Q 284 95 282 102 Q 281 111 284 115 L 287 117 L 293 119 L 299 117 Q 303 114 305 108 Q 306 99 303 96 Q 300 91 293 91 Z " /><path fill="rgb(0,0,0)" stroke="rgb(0,0,0)" stroke-width="1" opacity="1" d="M 467.5 144 L 478.5 145 L 484.5 147 L 497 155 L 505 167.5 L 507 173.5 L 508 183.5 L 506 193.5 L 502 201.5 L 492.5 212 Q 486.1 217.1 476.5 219 L 463.5 219 Q 448.9 215.6 441 205.5 L 434 192.5 Q 431.7 185.8 433 175.5 Q 436.5 160 447.5 152 L 453.5 148 L 467.5 144 Z M 465 159 L 458 162 Q 450 167 447 178 Q 446 190 452 197 Q 457 203 467 205 L 475 205 L 484 201 Q 490 196 493 188 Q 495 173 488 167 Q 483 161 476 159 L 465 159 Z " /><path fill="rgb(0,0,0)" stroke="rgb(0,0,0)" stroke-width="1" opacity="1" d="M 40.5 164 L 53.5 166 Q 65.1 170.4 72 179.5 Q 77.1 185.9 79 195.5 L 79 208.5 Q 75.6 223.1 65.5 231 L 52.5 238 Q 45.8 240.3 35.5 239 Q 20 235.5 12 224.5 Q 4.5 216 4 200.5 L 7 187.5 L 15 175 L 27.5 167 L 40.5 164 Z M 37 179 L 27 184 Q 21 189 19 197 Q 17 209 22 215 Q 27 222 38 225 Q 50 226 57 220 Q 63 215 65 206 L 65 198 L 61 189 Q 55 177 37 179 Z " /><path fill="rgb(0,0,0)" stroke="rgb(0,0,0)" stroke-width="1" opacity="1" d="M 232.5 210 L 245.5 211 Q 253.9 214.1 259 220.5 Q 265.2 227.8 266 240.5 Q 263.5 242 265 247.5 L 260 258.5 L 234 303.5 L 226.5 313 Q 218.5 321.5 201.5 321 Q 188.5 318 182 308.5 L 177 295.5 L 177 286.5 L 182 273.5 L 205 233.5 Q 209.8 222.8 218.5 216 L 232.5 210 Z M 235 224 L 228 227 L 219 238 L 196 278 L 191 290 L 193 300 Q 196 306 205 307 Q 213 307 217 303 L 223 295 L 251 245 Q 253 235 249 231 Q 245 224 235 224 Z " /><path fill="rgb(0,0,0)" stroke="rgb(0,0,0)" stroke-width="1" opacity="1" d="M 134.5 240 Q 151.8 241.2 159 252.5 L 164 263.5 L 164 276.5 L 158 290.5 L 136 328.5 L 124.5 344 L 110.5 351 L 99.5 351 Q 89 348.5 83 341.5 Q 74.9 333.6 76 316.5 L 80 305.5 L 83.5 302 L 86.5 301 L 92 303 L 94 309.5 L 90 318.5 L 90 324.5 L 95.5 334 Q 99 338 107.5 337 Q 115.2 335.1 119 329.5 L 149 277.5 L 150 265.5 L 142.5 256 Q 139 253.5 131.5 255 Q 124.8 257.3 121 262.5 L 109 284.5 L 105.5 288 L 99.5 289 Q 94.1 287.4 95 279.5 L 107 258.5 L 116.5 247 L 125.5 242 L 134.5 240 Z " /><path fill="rgb(0,0,0)" stroke="rgb(0,0,0)" stroke-width="1" opacity="1" d="M 379.5 240 Q 384.3 240.3 386 243.5 L 392 266 L 409.5 266 L 428 271 L 437 253.5 L 441.5 249 L 446.5 249 L 451 253.5 L 451 258.5 L 441 274.5 L 440 278.5 Q 454 288.8 460 306 L 481.5 300 L 485.5 300 L 489 302 Q 490.8 304.4 490 310.5 L 485.5 314 L 468.5 318 L 464 320.5 L 465 321.5 L 465 338.5 L 462 357 L 479.5 360 L 486 364.5 L 487 369.5 L 483.5 374 L 478.5 375 L 458.5 371 L 443 408 L 460.5 417 L 464 420.5 L 465 424.5 L 463 429 L 456.5 431 L 427 413.5 L 426 407.5 Q 438.5 387.5 446 362.5 L 450 344.5 L 451 324.5 L 449 314.5 L 444 303.5 L 430.5 289 Q 418.7 279.3 396.5 280 Q 375.3 283.8 364 297.5 L 358 306.5 L 349 335.5 L 338 358.5 Q 325.5 377.5 309 392.5 L 302 404.5 L 299 415.5 L 299 430.5 Q 302.8 449.7 315.5 460 Q 327.5 472 351.5 472 L 367.5 468 L 376.5 463 Q 392.1 452.6 404 438.5 L 410.5 430 L 416.5 428 L 422 432.5 L 422 438.5 L 412 451.5 L 425 465.5 Q 428 467.5 427 473.5 L 422.5 478 L 418.5 478 L 411 471.5 L 402.5 461 L 380.5 477 L 371 481 L 377 504.5 L 372.5 511 Q 364.5 512.5 363 507.5 L 358 486.5 L 356.5 485 L 354.5 486 L 341.5 486 L 322.5 481 L 309.5 502 L 303.5 503 L 300 500.5 L 298 495.5 L 310 473.5 L 300 464.5 L 288.5 446 L 265.5 452 L 260 448.5 L 259 443.5 L 263.5 438 L 285 433 L 285 413.5 L 290 397 L 274.5 389 L 268 383.5 Q 266.5 375.5 271.5 374 L 277.5 374 L 293.5 384 L 297.5 385 L 317 363.5 L 323 354.5 L 306.5 345 L 302 340.5 Q 300.5 332.5 305.5 331 L 311.5 331 L 331 342 L 344 303 L 326.5 294 L 322 289.5 Q 321 283 324.5 281 L 331.5 280 L 347.5 290 L 351.5 291 L 358.5 283 Q 366.5 274.1 379 271 L 373 249.5 L 373 245.5 L 375.5 242 L 379.5 240 Z " /><path fill="rgb(0,0,0)" stroke="rgb(0,0,0)" stroke-width="1" opacity="1" d="M 399.5 296 L 405.5 296 L 413.5 298 Q 421.9 301.6 427 308.5 Q 431.8 314.2 432 324.5 Q 429.8 325.7 431 330.5 L 425 341 L 415.5 347 L 403.5 349 L 391.5 346 L 382 338.5 Q 373.9 332.1 376 315.5 Q 378.8 305.8 386.5 301 L 391.5 298 L 399.5 296 Z M 398 311 L 396 312 L 390 319 L 390 324 L 393 330 L 401 334 L 412 333 L 417 327 L 416 318 Q 412 309 398 311 Z " /><path fill="rgb(0,0,0)" stroke="rgb(0,0,0)" stroke-width="1" opacity="1" d="M 164.5 389 L 178.5 391 Q 190.1 395.4 197 404.5 Q 205.3 413.7 204 432.5 Q 201.2 447.2 191.5 455 L 177.5 463 Q 170.8 465.3 160.5 464 Q 144.3 460.2 136 448.5 L 130 435.5 L 129 423.5 L 135 406.5 L 141.5 399 L 152.5 392 L 164.5 389 Z M 162 404 L 152 409 Q 146 413 144 421 Q 142 433 147 440 Q 152 447 163 450 Q 175 451 182 445 Q 188 440 190 431 L 190 424 L 186 414 Q 180 402 162 404 Z " /><path fill="rgb(186,228,233)" stroke="rgb(186,228,233)" stroke-width="1" opacity="0.996078431372549" d="M 213.5 44 L 251.5 44 L 252.5 45 L 260.5 45 L 277.5 48 L 299.5 55 Q 313.6 60.4 323 70.5 L 333 87.5 L 335 95.5 L 335 104.5 L 337 109 L 343 111 L 342 117.5 L 338.5 125 L 333.5 124 L 327 129.5 Q 324 137 317.5 141 Q 306 151.5 284.5 152 L 246.5 144 L 218.5 144 L 201.5 147 L 188.5 151 L 176.5 152 L 161.5 149 Q 149.2 143.8 141 134.5 L 132 118.5 L 130 109.5 L 130 96.5 Q 134.3 74.8 149.5 64 Q 162.7 54.7 180.5 50 L 213.5 44 Z M 289 77 L 280 81 Q 270 87 267 101 Q 266 117 273 125 Q 278 130 287 133 Q 302 135 309 128 Q 317 121 320 109 Q 321 92 313 85 Q 308 79 301 77 L 289 77 Z " /><path fill="rgb(186,228,233)" stroke="rgb(186,228,233)" stroke-width="1" opacity="0.996078431372549" d="M 291.5 92 Q 300.9 90.7 303 96.5 L 305 105.5 Q 303.6 113.6 297.5 117 L 289.5 118 L 284 113.5 Q 281 110.5 282 103.5 L 287.5 94 L 291.5 92 Z " /><path fill="rgb(186,228,233)" stroke="rgb(186,228,233)" stroke-width="1" opacity="0.996078431372549" d="M 466.5 159 Q 482.3 158.3 488 167.5 Q 492.8 173.2 493 183.5 Q 491 195.5 482.5 201 Q 476.6 205.7 464.5 204 Q 455.8 201.2 451 194.5 Q 446.2 188.3 448 175.5 L 454 165 L 466.5 159 Z " /><path fill="rgb(186,228,233)" stroke="rgb(186,228,233)" stroke-width="1" opacity="0.996078431372549" d="M 38.5 179 Q 55.3 178.7 61 189.5 Q 65.7 195.4 64 207.5 Q 61.5 215.5 55.5 220 Q 49.8 225.8 36.5 224 Q 26.8 221.2 22 213.5 L 19 204.5 L 19 198.5 Q 21.1 189.1 27.5 184 L 38.5 179 Z " /><path fill="rgb(186,228,233)" stroke="rgb(186,228,233)" stroke-width="1" opacity="0.996078431372549" d="M 232.5 225 Q 245.5 223.5 249 231.5 L 251 237.5 L 251 242.5 L 223 293.5 L 215.5 303 Q 211.7 307.2 202.5 306 L 195 301.5 Q 190.5 297 192 286.5 L 225 229 L 232.5 225 Z " /><path fill="rgb(186,228,233)" stroke="rgb(186,228,233)" stroke-width="1" opacity="0.996078431372549" d="M 132.5 255 Q 143.3 254.3 147 260.5 L 150 270.5 L 148 278.5 L 144 285.5 L 119 328.5 L 113.5 334 Q 109.5 337.5 100.5 336 L 93 330.5 Q 89.3 326.2 91 316.5 Q 94.9 313.9 94 306.5 L 90 300.5 L 97.5 289 Q 107 291 109 285.5 L 121 263.5 L 127.5 257 L 132.5 255 Z " /><path fill="rgb(186,228,233)" stroke="rgb(186,228,233)" stroke-width="1" opacity="0.996078431372549" d="M 392.5 281 L 410.5 281 L 418.5 283 Q 430.8 288.2 439 297.5 Q 452.9 311.1 450 341.5 L 442 373.5 L 425 410.5 L 429 417.5 L 422 429 L 413.5 428 L 406 434.5 L 386.5 455 Q 376.6 463.6 363.5 469 L 355.5 471 L 340.5 471 Q 319.5 467 309 452.5 Q 302.8 444.7 300 433.5 L 299 418.5 L 301 408.5 L 306 397.5 L 326 375.5 L 339 357.5 L 348 339.5 L 358 307.5 Q 363.4 296.9 372.5 290 Q 380.6 283.6 392.5 281 Z M 397 296 L 386 301 Q 377 307 375 319 Q 375 330 380 337 Q 387 346 401 349 L 410 349 L 422 344 Q 430 339 432 328 L 432 319 L 426 307 Q 418 295 397 296 Z " /><path fill="rgb(186,228,233)" stroke="rgb(186,228,233)" stroke-width="1" opacity="0.996078431372549" d="M 399.5 311 Q 411.2 310.3 415 317.5 L 417 324.5 L 413.5 331 L 406.5 334 L 402.5 334 L 393 328.5 Q 389.4 325.6 391 317.5 Q 393.4 312.4 399.5 311 Z " /><path fill="rgb(186,228,233)" stroke="rgb(186,228,233)" stroke-width="1" opacity="0.996078431372549" d="M 163.5 404 Q 180.3 403.7 186 414.5 Q 190.5 420 189 431.5 Q 186.9 440.4 180.5 445 L 172.5 449 L 161.5 449 Q 151.8 446.3 147 438.5 L 144 430.5 L 144 423.5 Q 146.1 413.1 153.5 408 L 163.5 404 Z " /></svg>