<svg width="512" height="512" version="1.1" xmlns="http://www.w3.org/2000/svg" desc="Created with imagetracer.js version 1.2.6" ><path fill="rgb(179,208,251)" stroke="rgb(179,208,251)" stroke-width="1" opacity="1" d="M 194.5 10 L 201 10.5 L 194.5 11 L 194.5 10 Z " /><path fill="rgb(179,208,251)" stroke="rgb(179,208,251)" stroke-width="1" opacity="1" d="M 213.5 10 L 219 10.5 L 213.5 11 L 213.5 10 Z " /><path fill="rgb(179,208,251)" stroke="rgb(179,208,251)" stroke-width="1" opacity="1" d="M 184.5 11 L 187 11.5 L 184.5 12 L 184.5 11 Z " /><path fill="rgb(179,208,251)" stroke="rgb(179,208,251)" stroke-width="1" opacity="1" d="M 177.5 12 L 180 12.5 L 177.5 13 L 177.5 12 Z " /><path fill="rgb(179,208,251)" stroke="rgb(179,208,251)" stroke-width="1" opacity="1" d="M 106.5 42 L 105.5 44 L 106.5 42 Z " /><path fill="rgb(179,208,251)" stroke="rgb(179,208,251)" stroke-width="1" opacity="1" d="M 102.5 45 L 100.5 48 L 102.5 45 Z " /><path fill="rgb(179,208,251)" stroke="rgb(179,208,251)" stroke-width="1" opacity="1" d="M 313.5 47 L 314.5 49 L 313.5 47 Z " /><path fill="rgb(179,208,251)" stroke="rgb(179,208,251)" stroke-width="1" opacity="1" d="M 96.5 50 L 94.5 53 L 96.5 50 Z " /><path fill="rgb(179,208,251)" stroke="rgb(179,208,251)" stroke-width="1" opacity="1" d="M 320.5 53 L 331.5 65 L 320.5 53 Z " /><path fill="rgb(179,208,251)" stroke="rgb(179,208,251)" stroke-width="1" opacity="1" d="M 80.5 66 L 78.5 69 L 80.5 66 Z " /><path fill="rgb(179,208,251)" stroke="rgb(179,208,251)" stroke-width="1" opacity="1" d="M 336.5 70 L 337.5 72 L 336.5 70 Z " /><path fill="rgb(179,208,251)" stroke="rgb(179,208,251)" stroke-width="1" opacity="1" d="M 74.5 73 L 73.5 75 L 74.5 73 Z " /><path fill="rgb(179,208,251)" stroke="rgb(179,208,251)" stroke-width="1" opacity="1" d="M 340.5 75 L 341.5 77 L 340.5 75 Z " /><path fill="rgb(179,208,251)" stroke="rgb(179,208,251)" stroke-width="1" opacity="1" d="M 71.5 77 L 70.5 79 L 71.5 77 Z " /><path fill="rgb(179,208,251)" stroke="rgb(179,208,251)" stroke-width="1" opacity="1" d="M 127.5 110 L 136 110.5 L 127.5 111 L 127.5 110 Z " /><path fill="rgb(179,208,251)" stroke="rgb(179,208,251)" stroke-width="1" opacity="1" d="M 278.5 110 L 286 110.5 L 278.5 111 L 278.5 110 Z " /><path fill="rgb(179,208,251)" stroke="rgb(179,208,251)" stroke-width="1" opacity="1" d="M 162.5 119 L 163.5 121 L 162.5 119 Z " /><path fill="rgb(179,208,251)" stroke="rgb(179,208,251)" stroke-width="1" opacity="1" d="M 249.5 120 L 248.5 122 L 249.5 120 Z " /><path fill="rgb(179,208,251)" stroke="rgb(179,208,251)" stroke-width="1" opacity="1" d="M 361.5 120 L 364 120.5 L 361.5 121 L 361.5 120 Z " /><path fill="rgb(179,208,251)" stroke="rgb(179,208,251)" stroke-width="1" opacity="1" d="M 315.5 121 L 316.5 123 L 315.5 121 Z " /><path fill="rgb(179,208,251)" stroke="rgb(179,208,251)" stroke-width="1" opacity="1" d="M 96.5 122 L 93.5 126 L 96.5 122 Z " /><path fill="rgb(179,208,251)" stroke="rgb(179,208,251)" stroke-width="1" opacity="1" d="M 166.5 122 L 167.5 124 L 166.5 122 Z " /><path fill="rgb(179,208,251)" stroke="rgb(179,208,251)" stroke-width="1" opacity="1" d="M 244.5 124 L 238.5 131 L 244.5 124 Z " /><path fill="rgb(179,208,251)" stroke="rgb(179,208,251)" stroke-width="1" opacity="1" d="M 320.5 125 L 323.5 129 L 320.5 125 Z " /><path fill="rgb(179,208,251)" stroke="rgb(179,208,251)" stroke-width="1" opacity="1" d="M 89.5 129 L 87.5 132 L 89.5 129 Z " /><path fill="rgb(179,208,251)" stroke="rgb(179,208,251)" stroke-width="1" opacity="1" d="M 175.5 131 L 176.5 133 L 175.5 131 Z " /><path fill="rgb(179,208,251)" stroke="rgb(179,208,251)" stroke-width="1" opacity="1" d="M 236.5 133 L 235.5 135 L 236.5 133 Z " /><path fill="rgb(179,208,251)" stroke="rgb(179,208,251)" stroke-width="1" opacity="1" d="M 38.5 154 L 39 156.5 L 38 156.5 L 38.5 154 Z " /><path fill="rgb(179,208,251)" stroke="rgb(179,208,251)" stroke-width="1" opacity="1" d="M 187.5 156 L 188 158.5 L 187 158.5 L 187.5 156 Z " /><path fill="rgb(179,208,251)" stroke="rgb(179,208,251)" stroke-width="1" opacity="1" d="M 188.5 164 L 189 169.5 L 188 169.5 L 188.5 164 Z " /><path fill="rgb(179,208,251)" stroke="rgb(179,208,251)" stroke-width="1" opacity="1" d="M 37.5 165 L 38 170.5 L 37 170.5 L 37.5 165 Z " /><path fill="rgb(179,208,251)" stroke="rgb(179,208,251)" stroke-width="1" opacity="1" d="M 225.5 172 L 226 174.5 L 225 174.5 L 225.5 172 Z " /><path fill="rgb(179,208,251)" stroke="rgb(179,208,251)" stroke-width="1" opacity="1" d="M 178.5 199 L 177.5 201 L 178.5 199 Z " /><path fill="rgb(179,208,251)" stroke="rgb(179,208,251)" stroke-width="1" opacity="1" d="M 85.5 200 L 86.5 202 L 85.5 200 Z " /><path fill="rgb(179,208,251)" stroke="rgb(179,208,251)" stroke-width="1" opacity="1" d="M 236.5 201 L 237.5 203 L 236.5 201 Z " /><path fill="rgb(179,208,251)" stroke="rgb(179,208,251)" stroke-width="1" opacity="1" d="M 367.5 201 Q 378.2 199.2 384.5 202 Q 394.5 205.5 400 213.5 L 405 224.5 L 406 232.5 L 403 245.5 L 392.5 258 L 381.5 263 L 367.5 263 Q 355.5 260 349 251.5 L 343 238.5 L 343 225.5 Q 346 213.5 354.5 207 L 367.5 201 Z M 372 210 L 362 214 Q 354 219 352 231 Q 352 240 356 245 Q 361 252 372 254 Q 381 254 387 250 Q 394 245 396 236 Q 398 229 395 228 L 396 226 Q 397 219 394 217 Q 391 212 385 210 L 381 211 L 372 210 Z " /><path fill="rgb(179,208,251)" stroke="rgb(179,208,251)" stroke-width="1" opacity="1" d="M 175.5 203 L 168.5 211 L 175.5 203 Z " /><path fill="rgb(179,208,251)" stroke="rgb(179,208,251)" stroke-width="1" opacity="1" d="M 89.5 205 L 93.5 210 L 89.5 205 Z " /><path fill="rgb(179,208,251)" stroke="rgb(179,208,251)" stroke-width="1" opacity="1" d="M 343 205 L 345 205.5 L 343 206.5 L 343 205 Z " /><path fill="rgb(179,208,251)" stroke="rgb(179,208,251)" stroke-width="1" opacity="1" d="M 405.5 207 L 406.5 209 L 405.5 207 Z " /><path fill="rgb(179,208,251)" stroke="rgb(179,208,251)" stroke-width="1" opacity="1" d="M 246.5 211 L 247.5 213 L 246.5 211 Z " /><path fill="rgb(179,208,251)" stroke="rgb(179,208,251)" stroke-width="1" opacity="1" d="M 97.5 212 L 98.5 214 L 97.5 212 Z " /><path fill="rgb(179,208,251)" stroke="rgb(179,208,251)" stroke-width="1" opacity="1" d="M 419.5 212 L 420.5 214 L 419.5 212 Z " /><path fill="rgb(179,208,251)" stroke="rgb(179,208,251)" stroke-width="1" opacity="1" d="M 327.5 213 L 326.5 215 L 327.5 213 Z " /><path fill="rgb(179,208,251)" stroke="rgb(179,208,251)" stroke-width="1" opacity="1" d="M 424.5 216 L 426.5 219 L 424.5 216 Z " /><path fill="rgb(179,208,251)" stroke="rgb(179,208,251)" stroke-width="1" opacity="1" d="M 385.5 219 L 386.5 221 L 385.5 219 Z " /><path fill="rgb(179,208,251)" stroke="rgb(179,208,251)" stroke-width="1" opacity="1" d="M 428.5 221 L 429.5 223 L 428.5 221 Z " /><path fill="rgb(179,208,251)" stroke="rgb(179,208,251)" stroke-width="1" opacity="1" d="M 378.5 222 L 379 224.5 L 378 224.5 L 378.5 222 Z " /><path fill="rgb(179,208,251)" stroke="rgb(179,208,251)" stroke-width="1" opacity="1" d="M 138.5 223 L 141 223.5 L 138.5 224 L 138.5 223 Z " /><path fill="rgb(179,208,251)" stroke="rgb(179,208,251)" stroke-width="1" opacity="1" d="M 265.5 226 L 266 230.5 L 265 230.5 L 265.5 226 Z " /><path fill="rgb(179,208,251)" stroke="rgb(179,208,251)" stroke-width="1" opacity="1" d="M 334.5 226 L 335 229.5 L 334 229.5 L 334.5 226 Z " /><path fill="rgb(179,208,251)" stroke="rgb(179,208,251)" stroke-width="1" opacity="1" d="M 37.5 231 L 38 241.5 L 37 241.5 L 37.5 231 Z " /><path fill="rgb(179,208,251)" stroke="rgb(179,208,251)" stroke-width="1" opacity="1" d="M 201.5 231 L 200.5 233 L 201.5 231 Z " /><path fill="rgb(179,208,251)" stroke="rgb(179,208,251)" stroke-width="1" opacity="1" d="M 334.5 234 L 335 237.5 L 334 237.5 L 334.5 234 Z " /><path fill="rgb(179,208,251)" stroke="rgb(179,208,251)" stroke-width="1" opacity="1" d="M 266.5 241 L 267 243.5 L 266 243.5 L 266.5 241 Z " /><path fill="rgb(179,208,251)" stroke="rgb(179,208,251)" stroke-width="1" opacity="1" d="M 429.5 241 L 428.5 243 L 429.5 241 Z " /><path fill="rgb(179,208,251)" stroke="rgb(179,208,251)" stroke-width="1" opacity="1" d="M 319.5 242 L 320.5 244 L 319.5 242 Z " /><path fill="rgb(179,208,251)" stroke="rgb(179,208,251)" stroke-width="1" opacity="1" d="M 426.5 245 L 424.5 248 L 426.5 245 Z " /><path fill="rgb(179,208,251)" stroke="rgb(179,208,251)" stroke-width="1" opacity="1" d="M 38.5 247 L 39 249.5 L 38 249.5 L 38.5 247 Z " /><path fill="rgb(179,208,251)" stroke="rgb(179,208,251)" stroke-width="1" opacity="1" d="M 326.5 249 L 327.5 251 L 326.5 249 Z " /><path fill="rgb(179,208,251)" stroke="rgb(179,208,251)" stroke-width="1" opacity="1" d="M 406.5 255 L 405.5 257 L 406.5 255 Z " /><path fill="rgb(179,208,251)" stroke="rgb(179,208,251)" stroke-width="1" opacity="1" d="M 343.5 257 L 344.5 259 Q 341.7 259.7 343.5 257 Z " /><path fill="rgb(179,208,251)" stroke="rgb(179,208,251)" stroke-width="1" opacity="1" d="M 179.5 279 L 180.5 281 L 179.5 279 Z " /><path fill="rgb(179,208,251)" stroke="rgb(179,208,251)" stroke-width="1" opacity="1" d="M 51.5 280 L 52.5 282 L 51.5 280 Z " /><path fill="rgb(179,208,251)" stroke="rgb(179,208,251)" stroke-width="1" opacity="1" d="M 54.5 284 L 56.5 287 L 54.5 284 Z " /><path fill="rgb(179,208,251)" stroke="rgb(179,208,251)" stroke-width="1" opacity="1" d="M 285.5 291 L 286.5 293 L 285.5 291 Z " /><path fill="rgb(179,208,251)" stroke="rgb(179,208,251)" stroke-width="1" opacity="1" d="M 64.5 294 L 66.5 297 L 64.5 294 Z " /><path fill="rgb(179,208,251)" stroke="rgb(179,208,251)" stroke-width="1" opacity="1" d="M 288.5 295 L 289.5 297 L 288.5 295 Z " /><path fill="rgb(179,208,251)" stroke="rgb(179,208,251)" stroke-width="1" opacity="1" d="M 70.5 299 L 71.5 301 L 70.5 299 Z " /><path fill="rgb(179,208,251)" stroke="rgb(179,208,251)" stroke-width="1" opacity="1" d="M 293.5 301 L 301.5 310 L 293.5 301 Z " /><path fill="rgb(179,208,251)" stroke="rgb(179,208,251)" stroke-width="1" opacity="1" d="M 80.5 309 L 81.5 311 L 80.5 309 Z " /><path fill="rgb(179,208,251)" stroke="rgb(179,208,251)" stroke-width="1" opacity="1" d="M 306.5 313 L 307.5 315 L 306.5 313 Z " /><path fill="rgb(179,208,251)" stroke="rgb(179,208,251)" stroke-width="1" opacity="1" d="M 310.5 316 L 311.5 318 L 310.5 316 Z " /><path fill="rgb(179,208,251)" stroke="rgb(179,208,251)" stroke-width="1" opacity="1" d="M 322.5 324 L 323.5 326 L 322.5 324 Z " /><path fill="rgb(179,208,251)" stroke="rgb(179,208,251)" stroke-width="1" opacity="1" d="M 171.5 340 L 172 378.5 L 171 378.5 L 171.5 340 Z " /><path fill="rgb(179,208,251)" stroke="rgb(179,208,251)" stroke-width="1" opacity="1" d="M 250.5 340 L 251 378.5 L 250 378.5 L 250.5 340 Z " /><path fill="rgb(179,208,251)" stroke="rgb(179,208,251)" stroke-width="1" opacity="1" d="M 92.5 367 L 93 369.5 L 92 369.5 L 92.5 367 Z " /><path fill="rgb(179,208,251)" stroke="rgb(179,208,251)" stroke-width="1" opacity="1" d="M 318.5 375 L 317.5 377 L 318.5 375 Z " /><path fill="rgb(179,208,251)" stroke="rgb(179,208,251)" stroke-width="1" opacity="1" d="M 95.5 376 L 98.5 380 L 95.5 376 Z " /><path fill="rgb(179,208,251)" stroke="rgb(179,208,251)" stroke-width="1" opacity="1" d="M 314.5 379 L 313.5 381 L 314.5 379 Z " /><path fill="rgb(179,208,251)" stroke="rgb(179,208,251)" stroke-width="1" opacity="1" d="M 172.5 380 L 174.5 383 L 172.5 380 Z " /><path fill="rgb(179,208,251)" stroke="rgb(179,208,251)" stroke-width="1" opacity="1" d="M 251.5 380 L 253.5 383 L 251.5 380 Z " /><path fill="rgb(0,0,0)" stroke="rgb(0,0,0)" stroke-width="1" opacity="0" d="M 0 0 L 512 0 L 512 512 L 0 512 L 0 0 Z M 188 2 L 157 8 L 137 15 Q 106 28 84 50 Q 56 76 40 114 L 34 131 L 31 145 L 30 159 L 29 160 L 29 175 L 28 176 L 28 215 L 29 216 L 29 247 Q 31 248 30 253 Q 35 275 47 290 Q 56 301 69 309 Q 78 318 83 332 Q 82 336 84 338 L 84 373 L 88 382 Q 94 389 105 392 L 160 392 L 167 388 L 175 392 L 240 392 L 246 388 L 254 392 L 309 392 L 319 388 Q 328 382 330 370 L 330 334 L 332 329 Q 340 334 352 335 L 353 337 L 353 355 L 352 355 L 348 360 L 348 499 L 351 505 L 360 510 L 390 510 L 396 507 L 401 499 L 401 360 L 398 355 L 396 355 L 396 336 Q 425 330 445 313 Q 460 300 470 283 L 480 259 L 483 245 L 483 236 L 484 235 L 483 213 L 478 193 Q 471 171 457 157 Q 441 137 416 127 L 395 121 L 375 120 L 374 115 L 361 90 L 341 62 Q 315 31 275 14 L 254 7 L 234 3 Q 227 5 226 2 L 188 2 Z " /><path fill="rgb(224,235,252)" stroke="rgb(224,235,252)" stroke-width="1" opacity="1" d="M 201.5 10 L 226.5 11 L 227.5 12 L 239.5 13 L 270.5 22 Q 310.3 38.7 336 69.5 Q 354.6 91.6 366 120 Q 342.3 121.6 325.5 131 L 320.5 125 Q 312.3 117.2 300.5 113 L 285.5 110 L 278.5 110 L 263.5 113 L 254.5 117 L 238 130.5 Q 230.9 138.9 227 150.5 L 225 160.5 L 225 174.5 Q 229.5 200.5 247.5 213 Q 255.5 219.5 266 222 L 265 230.5 L 266 231.5 L 267 249.5 L 273 269.5 Q 283.2 293.8 301.5 310 L 323 325.5 L 321 332.5 L 321 369.5 L 315.5 379 L 308.5 383 L 254.5 383 L 251 379.5 L 251 340.5 L 250 337 L 244.5 336 L 242 338.5 L 242 378.5 L 239.5 382 L 237.5 383 L 175.5 383 L 172 379.5 L 172 340.5 L 168.5 336 Q 163.8 335.3 163 338.5 L 163 378.5 L 160.5 382 L 158.5 383 L 105.5 383 Q 98.3 381.2 95 375.5 L 92 366.5 L 92 331.5 L 91 327.5 Q 84.5 309.5 70.5 299 L 57 287.5 Q 44.3 273.7 39 252.5 L 38 231.5 L 37 230.5 L 37 171.5 L 38 170.5 L 38 157.5 L 39 156.5 L 39 149.5 L 41 139.5 L 48 117.5 Q 64.8 79.3 93.5 53 Q 116.5 32 148.5 20 L 174.5 13 L 186.5 12 L 187.5 11 L 200.5 11 L 201.5 10 Z M 128 110 L 111 114 L 97 122 Q 80 134 75 159 L 75 177 L 76 182 Q 80 196 89 206 Q 101 220 124 224 L 141 224 L 149 222 Q 160 218 169 211 Q 178 203 184 191 L 188 178 Q 186 171 189 170 L 187 153 L 177 133 Q 168 120 153 114 L 143 111 L 128 110 Z M 204 230 L 202 231 Q 188 251 177 274 L 179 280 L 185 283 L 230 283 L 232 282 L 236 277 L 236 272 L 233 266 L 215 235 Q 213 229 204 230 Z " /><path fill="rgb(224,235,252)" stroke="rgb(224,235,252)" stroke-width="1" opacity="1" d="M 341.5 206 Q 343.8 205.3 343 207.5 Q 332.8 216.8 334 237.5 L 336 245.5 L 343 258 Q 329.4 254.3 321 244.5 Q 316 239.5 316 229.5 Q 318.4 219.9 325.5 215 L 341.5 206 Z " /><path fill="rgb(224,235,252)" stroke="rgb(224,235,252)" stroke-width="1" opacity="1" d="M 405.5 206 Q 419.9 210.1 428 220.5 Q 433.2 224.8 432 235.5 Q 428.8 244.8 421.5 250 L 405.5 258 L 407 255.5 Q 412.1 248.6 414 238.5 L 414 225.5 Q 411.4 213.2 405.5 206 Z " /><path fill="rgb(224,235,252)" stroke="rgb(224,235,252)" stroke-width="1" opacity="1" d="M 381.5 219 Q 386.3 218.3 387 221.5 Q 388 226 385.5 227 L 382.5 228 L 379 225.5 Q 377.8 219.4 380.5 220 L 381.5 219 Z " /><path fill="rgb(71,113,198)" stroke="rgb(71,113,198)" stroke-width="1" opacity="0.996078431372549" d="M 188.5 10 L 191 10.5 L 188.5 11 L 188.5 10 Z " /><path fill="rgb(71,113,198)" stroke="rgb(71,113,198)" stroke-width="1" opacity="0.996078431372549" d="M 222.5 10 L 225 10.5 L 222.5 11 L 222.5 10 Z " /><path fill="rgb(71,113,198)" stroke="rgb(71,113,198)" stroke-width="1" opacity="0.996078431372549" d="M 306.5 41 L 307.5 43 L 306.5 41 Z " /><path fill="rgb(71,113,198)" stroke="rgb(71,113,198)" stroke-width="1" opacity="0.996078431372549" d="M 310.5 44 L 311.5 46 L 310.5 44 Z " /><path fill="rgb(71,113,198)" stroke="rgb(71,113,198)" stroke-width="1" opacity="0.996078431372549" d="M 100.5 46 L 99.5 48 L 100.5 46 Z " /><path fill="rgb(71,113,198)" stroke="rgb(71,113,198)" stroke-width="1" opacity="0.996078431372549" d="M 315.5 48 L 317.5 51 L 315.5 48 Z " /><path fill="rgb(71,113,198)" stroke="rgb(71,113,198)" stroke-width="1" opacity="0.996078431372549" d="M 83.5 50 L 82.5 52 L 83.5 50 Z " /><path fill="rgb(71,113,198)" stroke="rgb(71,113,198)" stroke-width="1" opacity="0.996078431372549" d="M 94.5 51 L 90.5 56 L 94.5 51 Z " /><path fill="rgb(71,113,198)" stroke="rgb(71,113,198)" stroke-width="1" opacity="0.996078431372549" d="M 324.5 56 L 328.5 61 L 324.5 56 Z " /><path fill="rgb(71,113,198)" stroke="rgb(71,113,198)" stroke-width="1" opacity="0.996078431372549" d="M 83.5 62 L 79.5 67 L 83.5 62 Z " /><path fill="rgb(71,113,198)" stroke="rgb(71,113,198)" stroke-width="1" opacity="0.996078431372549" d="M 334.5 67 L 336.5 70 L 334.5 67 Z " /><path fill="rgb(71,113,198)" stroke="rgb(71,113,198)" stroke-width="1" opacity="0.996078431372549" d="M 75.5 71 L 74.5 73 L 75.5 71 Z " /><path fill="rgb(71,113,198)" stroke="rgb(71,113,198)" stroke-width="1" opacity="0.996078431372549" d="M 339.5 73 L 340.5 75 L 339.5 73 Z " /><path fill="rgb(71,113,198)" stroke="rgb(71,113,198)" stroke-width="1" opacity="0.996078431372549" d="M 69.5 79 L 68.5 81 L 69.5 79 Z " /><path fill="rgb(71,113,198)" stroke="rgb(71,113,198)" stroke-width="1" opacity="0.996078431372549" d="M 345.5 81 L 346.5 83 L 345.5 81 Z " /><path fill="rgb(71,113,198)" stroke="rgb(71,113,198)" stroke-width="1" opacity="0.996078431372549" d="M 122.5 119 Q 135.8 117.2 144.5 120 Q 158.5 124 167 133.5 Q 175.2 141.8 179 154.5 L 180 159.5 L 180 175.5 Q 175.6 195.6 161.5 206 Q 149.5 217 125.5 216 Q 103.8 212.2 93 197.5 L 84 179.5 L 83 160.5 Q 87.3 138.8 102.5 128 Q 110.4 121.4 122.5 119 Z " /><path fill="rgb(71,113,198)" stroke="rgb(71,113,198)" stroke-width="1" opacity="0.996078431372549" d="M 272.5 119 Q 290.1 116.9 300.5 122 Q 311.2 126.3 318 134.5 L 315.5 138 Q 302.3 145.3 293 156.5 Q 281.3 169.3 274 186.5 Q 268.7 198.3 267 213 Q 254 209.8 246 200.5 Q 232.8 188.2 233 162.5 L 239 143.5 L 251.5 129 Q 259.8 121.8 272.5 119 Z " /><path fill="rgb(71,113,198)" stroke="rgb(71,113,198)" stroke-width="1" opacity="0.996078431372549" d="M 250.5 120 L 249.5 122 L 250.5 120 Z " /><path fill="rgb(71,113,198)" stroke="rgb(71,113,198)" stroke-width="1" opacity="0.996078431372549" d="M 97.5 122 L 96.5 124 L 97.5 122 Z " /><path fill="rgb(71,113,198)" stroke="rgb(71,113,198)" stroke-width="1" opacity="0.996078431372549" d="M 246.5 123 L 243.5 127 L 246.5 123 Z " /><path fill="rgb(71,113,198)" stroke="rgb(71,113,198)" stroke-width="1" opacity="0.996078431372549" d="M 318.5 124 L 327 131.5 L 325.5 132 L 318.5 124 Z " /><path fill="rgb(71,113,198)" stroke="rgb(71,113,198)" stroke-width="1" opacity="0.996078431372549" d="M 170.5 126 L 172.5 129 L 170.5 126 Z " /><path fill="rgb(71,113,198)" stroke="rgb(71,113,198)" stroke-width="1" opacity="0.996078431372549" d="M 361.5 128 L 365 128.5 L 361.5 129 L 361.5 128 Z " /><path fill="rgb(71,113,198)" stroke="rgb(71,113,198)" stroke-width="1" opacity="0.996078431372549" d="M 384.5 128 L 388 128.5 L 384.5 129 L 384.5 128 Z " /><path fill="rgb(71,113,198)" stroke="rgb(71,113,198)" stroke-width="1" opacity="0.996078431372549" d="M 240.5 129 L 238.5 132 L 240.5 129 Z " /><path fill="rgb(71,113,198)" stroke="rgb(71,113,198)" stroke-width="1" opacity="0.996078431372549" d="M 355.5 129 L 358 129.5 L 355.5 130 L 355.5 129 Z " /><path fill="rgb(71,113,198)" stroke="rgb(71,113,198)" stroke-width="1" opacity="0.996078431372549" d="M 391.5 129 L 394 129.5 L 391.5 130 L 391.5 129 Z " /><path fill="rgb(71,113,198)" stroke="rgb(71,113,198)" stroke-width="1" opacity="0.996078431372549" d="M 350.5 130 L 353 130.5 L 350.5 131 L 350.5 130 Z " /><path fill="rgb(71,113,198)" stroke="rgb(71,113,198)" stroke-width="1" opacity="0.996078431372549" d="M 396.5 130 L 399 130.5 L 396.5 131 L 396.5 130 Z " /><path fill="rgb(71,113,198)" stroke="rgb(71,113,198)" stroke-width="1" opacity="0.996078431372549" d="M 323.5 141 L 322.5 143 L 323.5 141 Z " /><path fill="rgb(71,113,198)" stroke="rgb(71,113,198)" stroke-width="1" opacity="0.996078431372549" d="M 425.5 141 L 426.5 143 L 425.5 141 Z " /><path fill="rgb(71,113,198)" stroke="rgb(71,113,198)" stroke-width="1" opacity="0.996078431372549" d="M 430.5 144 L 431.5 146 L 430.5 144 Z " /><path fill="rgb(71,113,198)" stroke="rgb(71,113,198)" stroke-width="1" opacity="0.996078431372549" d="M 317.5 145 L 316.5 147 L 317.5 145 Z " /><path fill="rgb(71,113,198)" stroke="rgb(71,113,198)" stroke-width="1" opacity="0.996078431372549" d="M 314.5 147 L 312.5 150 L 314.5 147 Z " /><path fill="rgb(71,113,198)" stroke="rgb(71,113,198)" stroke-width="1" opacity="0.996078431372549" d="M 434.5 147 L 435.5 149 L 434.5 147 Z " /><path fill="rgb(71,113,198)" stroke="rgb(71,113,198)" stroke-width="1" opacity="0.996078431372549" d="M 365.5 148 L 372 148.5 L 365.5 149 L 365.5 148 Z " /><path fill="rgb(71,113,198)" stroke="rgb(71,113,198)" stroke-width="1" opacity="0.996078431372549" d="M 377.5 148 L 384 148.5 L 377.5 149 L 377.5 148 Z " /><path fill="rgb(71,113,198)" stroke="rgb(71,113,198)" stroke-width="1" opacity="0.996078431372549" d="M 310.5 150 L 304.5 157 L 310.5 150 Z " /><path fill="rgb(71,113,198)" stroke="rgb(71,113,198)" stroke-width="1" opacity="0.996078431372549" d="M 438.5 150 L 443.5 156 L 438.5 150 Z " /><path fill="rgb(71,113,198)" stroke="rgb(71,113,198)" stroke-width="1" opacity="0.996078431372549" d="M 340.5 155 L 342 155.5 L 335.5 159 L 336.5 157 L 340.5 155 Z " /><path fill="rgb(71,113,198)" stroke="rgb(71,113,198)" stroke-width="1" opacity="0.996078431372549" d="M 363.5 156 L 366 156.5 L 363.5 157 L 363.5 156 Z " /><path fill="rgb(71,113,198)" stroke="rgb(71,113,198)" stroke-width="1" opacity="0.996078431372549" d="M 383.5 156 L 386 156.5 L 383.5 157 L 383.5 156 Z " /><path fill="rgb(71,113,198)" stroke="rgb(71,113,198)" stroke-width="1" opacity="0.996078431372549" d="M 410.5 156 L 414 158.5 L 412.5 158 L 410.5 156 Z " /><path fill="rgb(71,113,198)" stroke="rgb(71,113,198)" stroke-width="1" opacity="0.996078431372549" d="M 302.5 158 L 296.5 165 L 302.5 158 Z " /><path fill="rgb(71,113,198)" stroke="rgb(71,113,198)" stroke-width="1" opacity="0.996078431372549" d="M 37.5 159 L 38 161.5 L 37 161.5 L 37.5 159 Z " /><path fill="rgb(71,113,198)" stroke="rgb(71,113,198)" stroke-width="1" opacity="0.996078431372549" d="M 447.5 159 L 452.5 165 L 447.5 159 Z " /><path fill="rgb(71,113,198)" stroke="rgb(71,113,198)" stroke-width="1" opacity="0.996078431372549" d="M 331.5 160 L 330.5 162 L 331.5 160 Z " /><path fill="rgb(71,113,198)" stroke="rgb(71,113,198)" stroke-width="1" opacity="0.996078431372549" d="M 417.5 160 L 418.5 162 L 417.5 160 Z " /><path fill="rgb(71,113,198)" stroke="rgb(71,113,198)" stroke-width="1" opacity="0.996078431372549" d="M 75.5 161 L 76 165.5 L 75 165.5 L 75.5 161 Z " /><path fill="rgb(71,113,198)" stroke="rgb(71,113,198)" stroke-width="1" opacity="0.996078431372549" d="M 328.5 162 L 327.5 164 L 328.5 162 Z " /><path fill="rgb(71,113,198)" stroke="rgb(71,113,198)" stroke-width="1" opacity="0.996078431372549" d="M 420.5 162 L 421.5 164 L 420.5 162 Z " /><path fill="rgb(71,113,198)" stroke="rgb(71,113,198)" stroke-width="1" opacity="0.996078431372549" d="M 324.5 165 L 321.5 169 L 324.5 165 Z " /><path fill="rgb(71,113,198)" stroke="rgb(71,113,198)" stroke-width="1" opacity="0.996078431372549" d="M 424.5 165 L 427.5 169 L 424.5 165 Z " /><path fill="rgb(71,113,198)" stroke="rgb(71,113,198)" stroke-width="1" opacity="0.996078431372549" d="M 294.5 167 L 293.5 169 L 294.5 167 Z " /><path fill="rgb(71,113,198)" stroke="rgb(71,113,198)" stroke-width="1" opacity="0.996078431372549" d="M 454.5 167 L 455.5 169 L 454.5 167 Z " /><path fill="rgb(71,113,198)" stroke="rgb(71,113,198)" stroke-width="1" opacity="0.996078431372549" d="M 75.5 168 L 76 172.5 L 75 172.5 L 75.5 168 Z " /><path fill="rgb(71,113,198)" stroke="rgb(71,113,198)" stroke-width="1" opacity="0.996078431372549" d="M 330.5 170 L 329.5 172 L 330.5 170 Z " /><path fill="rgb(71,113,198)" stroke="rgb(71,113,198)" stroke-width="1" opacity="0.996078431372549" d="M 418.5 170 L 419.5 172 L 418.5 170 Z " /><path fill="rgb(71,113,198)" stroke="rgb(71,113,198)" stroke-width="1" opacity="0.996078431372549" d="M 291.5 171 L 290.5 173 L 291.5 171 Z " /><path fill="rgb(71,113,198)" stroke="rgb(71,113,198)" stroke-width="1" opacity="0.996078431372549" d="M 457.5 171 L 458.5 173 L 457.5 171 Z " /><path fill="rgb(71,113,198)" stroke="rgb(71,113,198)" stroke-width="1" opacity="0.996078431372549" d="M 325.5 174 L 320.5 180 L 325.5 174 Z " /><path fill="rgb(71,113,198)" stroke="rgb(71,113,198)" stroke-width="1" opacity="0.996078431372549" d="M 423.5 174 L 428.5 180 L 423.5 174 Z " /><path fill="rgb(71,113,198)" stroke="rgb(71,113,198)" stroke-width="1" opacity="0.996078431372549" d="M 459.5 174 L 460.5 176 L 459.5 174 Z " /><path fill="rgb(71,113,198)" stroke="rgb(71,113,198)" stroke-width="1" opacity="0.996078431372549" d="M 314.5 175 L 311.5 179 L 314.5 175 Z " /><path fill="rgb(71,113,198)" stroke="rgb(71,113,198)" stroke-width="1" opacity="0.996078431372549" d="M 36.5 176 L 37 209.5 L 36 209.5 L 36.5 176 Z " /><path fill="rgb(71,113,198)" stroke="rgb(71,113,198)" stroke-width="1" opacity="0.996078431372549" d="M 435.5 176 L 437.5 179 L 435.5 176 Z " /><path fill="rgb(71,113,198)" stroke="rgb(71,113,198)" stroke-width="1" opacity="0.996078431372549" d="M 309.5 181 L 308.5 183 L 309.5 181 Z " /><path fill="rgb(71,113,198)" stroke="rgb(71,113,198)" stroke-width="1" opacity="0.996078431372549" d="M 439.5 181 L 440.5 183 L 439.5 181 Z " /><path fill="rgb(71,113,198)" stroke="rgb(71,113,198)" stroke-width="1" opacity="0.996078431372549" d="M 317.5 183 L 316.5 185 L 317.5 183 Z " /><path fill="rgb(71,113,198)" stroke="rgb(71,113,198)" stroke-width="1" opacity="0.996078431372549" d="M 431.5 183 L 432.5 185 L 431.5 183 Z " /><path fill="rgb(71,113,198)" stroke="rgb(71,113,198)" stroke-width="1" opacity="0.996078431372549" d="M 464.5 183 L 466 185.5 L 465 185.5 L 464.5 183 Z " /><path fill="rgb(71,113,198)" stroke="rgb(71,113,198)" stroke-width="1" opacity="0.996078431372549" d="M 307.5 184 L 306.5 186 L 307.5 184 Z " /><path fill="rgb(71,113,198)" stroke="rgb(71,113,198)" stroke-width="1" opacity="0.996078431372549" d="M 441.5 184 L 442.5 186 L 441.5 184 Z " /><path fill="rgb(71,113,198)" stroke="rgb(71,113,198)" stroke-width="1" opacity="0.996078431372549" d="M 305.5 187 L 305 188.5 L 303.5 191 L 304 189.5 L 305.5 187 Z " /><path fill="rgb(71,113,198)" stroke="rgb(71,113,198)" stroke-width="1" opacity="0.996078431372549" d="M 314.5 187 L 313.5 189 L 314.5 187 Z " /><path fill="rgb(71,113,198)" stroke="rgb(71,113,198)" stroke-width="1" opacity="0.996078431372549" d="M 434.5 187 L 435.5 189 L 434.5 187 Z " /><path fill="rgb(71,113,198)" stroke="rgb(71,113,198)" stroke-width="1" opacity="0.996078431372549" d="M 443.5 187 L 444.5 189 L 443.5 187 Z " /><path fill="rgb(71,113,198)" stroke="rgb(71,113,198)" stroke-width="1" opacity="0.996078431372549" d="M 311.5 192 L 310.5 194 L 311.5 192 Z " /><path fill="rgb(71,113,198)" stroke="rgb(71,113,198)" stroke-width="1" opacity="0.996078431372549" d="M 367.5 192 L 381 192.5 L 367.5 193 L 367.5 192 Z " /><path fill="rgb(71,113,198)" stroke="rgb(71,113,198)" stroke-width="1" opacity="0.996078431372549" d="M 437.5 192 L 438.5 194 L 437.5 192 Z " /><path fill="rgb(71,113,198)" stroke="rgb(71,113,198)" stroke-width="1" opacity="0.996078431372549" d="M 358.5 193 L 361 193.5 L 358.5 194 L 358.5 193 Z " /><path fill="rgb(71,113,198)" stroke="rgb(71,113,198)" stroke-width="1" opacity="0.996078431372549" d="M 387.5 193 L 390 193.5 L 387.5 194 L 387.5 193 Z " /><path fill="rgb(71,113,198)" stroke="rgb(71,113,198)" stroke-width="1" opacity="0.996078431372549" d="M 178.5 198 L 177.5 200 L 178.5 198 Z " /><path fill="rgb(71,113,198)" stroke="rgb(71,113,198)" stroke-width="1" opacity="0.996078431372549" d="M 236.5 200 L 237.5 202 L 236.5 200 Z " /><path fill="rgb(71,113,198)" stroke="rgb(71,113,198)" stroke-width="1" opacity="0.996078431372549" d="M 368.5 200 L 373 200.5 L 368.5 201 L 368.5 200 Z " /><path fill="rgb(71,113,198)" stroke="rgb(71,113,198)" stroke-width="1" opacity="0.996078431372549" d="M 375.5 200 L 380 200.5 L 375.5 201 L 375.5 200 Z " /><path fill="rgb(71,113,198)" stroke="rgb(71,113,198)" stroke-width="1" opacity="0.996078431372549" d="M 175.5 202 L 173.5 205 L 175.5 202 Z " /><path fill="rgb(71,113,198)" stroke="rgb(71,113,198)" stroke-width="1" opacity="0.996078431372549" d="M 329.5 202 L 328.5 204 L 329.5 202 Z " /><path fill="rgb(71,113,198)" stroke="rgb(71,113,198)" stroke-width="1" opacity="0.996078431372549" d="M 88.5 203 L 95.5 211 L 88.5 203 Z " /><path fill="rgb(71,113,198)" stroke="rgb(71,113,198)" stroke-width="1" opacity="0.996078431372549" d="M 420.5 203 L 421.5 205 L 420.5 203 Z " /><path fill="rgb(71,113,198)" stroke="rgb(71,113,198)" stroke-width="1" opacity="0.996078431372549" d="M 240.5 205 L 243.5 209 L 240.5 205 Z " /><path fill="rgb(71,113,198)" stroke="rgb(71,113,198)" stroke-width="1" opacity="0.996078431372549" d="M 324.5 205 L 323.5 207 L 324.5 205 Z " /><path fill="rgb(71,113,198)" stroke="rgb(71,113,198)" stroke-width="1" opacity="0.996078431372549" d="M 423.5 205 L 424.5 207 L 423.5 205 Z " /><path fill="rgb(71,113,198)" stroke="rgb(71,113,198)" stroke-width="1" opacity="0.996078431372549" d="M 393.5 206 L 399.5 213 L 393.5 206 Z " /><path fill="rgb(71,113,198)" stroke="rgb(71,113,198)" stroke-width="1" opacity="0.996078431372549" d="M 343.5 207 L 342.5 209 L 343.5 207 Z " /><path fill="rgb(71,113,198)" stroke="rgb(71,113,198)" stroke-width="1" opacity="0.996078431372549" d="M 353.5 207 L 349.5 212 L 353.5 207 Z " /><path fill="rgb(71,113,198)" stroke="rgb(71,113,198)" stroke-width="1" opacity="0.996078431372549" d="M 426.5 207 L 434.5 216 L 426.5 207 Z " /><path fill="rgb(71,113,198)" stroke="rgb(71,113,198)" stroke-width="1" opacity="0.996078431372549" d="M 275.5 208 L 276 210.5 L 275 210.5 L 275.5 208 Z " /><path fill="rgb(71,113,198)" stroke="rgb(71,113,198)" stroke-width="1" opacity="0.996078431372549" d="M 320.5 208 L 314.5 215 L 320.5 208 Z " /><path fill="rgb(71,113,198)" stroke="rgb(71,113,198)" stroke-width="1" opacity="0.996078431372549" d="M 405.5 208 L 406.5 210 L 405.5 208 Z " /><path fill="rgb(71,113,198)" stroke="rgb(71,113,198)" stroke-width="1" opacity="0.996078431372549" d="M 473.5 208 L 474 210.5 L 473 210.5 L 473.5 208 Z " /><path fill="rgb(71,113,198)" stroke="rgb(71,113,198)" stroke-width="1" opacity="0.996078431372549" d="M 168.5 209 L 166.5 212 L 168.5 209 Z " /><path fill="rgb(71,113,198)" stroke="rgb(71,113,198)" stroke-width="1" opacity="0.996078431372549" d="M 295.5 212 L 296 214.5 L 295 214.5 L 295.5 212 Z " /><path fill="rgb(71,113,198)" stroke="rgb(71,113,198)" stroke-width="1" opacity="0.996078431372549" d="M 389.5 212 L 390.5 214 L 389.5 212 Z " /><path fill="rgb(71,113,198)" stroke="rgb(71,113,198)" stroke-width="1" opacity="0.996078431372549" d="M 326.5 213 L 324.5 216 L 326.5 213 Z " /><path fill="rgb(71,113,198)" stroke="rgb(71,113,198)" stroke-width="1" opacity="0.996078431372549" d="M 474.5 213 L 475 216.5 L 474 216.5 L 474.5 213 Z " /><path fill="rgb(71,113,198)" stroke="rgb(71,113,198)" stroke-width="1" opacity="0.996078431372549" d="M 274.5 214 L 275 217.5 L 274 217.5 L 274.5 214 Z " /><path fill="rgb(71,113,198)" stroke="rgb(71,113,198)" stroke-width="1" opacity="0.996078431372549" d="M 360.5 215 L 358.5 218 L 360.5 215 Z " /><path fill="rgb(71,113,198)" stroke="rgb(71,113,198)" stroke-width="1" opacity="0.996078431372549" d="M 392.5 215 L 393.5 217 L 392.5 215 Z " /><path fill="rgb(71,113,198)" stroke="rgb(71,113,198)" stroke-width="1" opacity="0.996078431372549" d="M 302.5 216 L 303 218.5 L 302 218.5 L 302.5 216 Z " /><path fill="rgb(71,113,198)" stroke="rgb(71,113,198)" stroke-width="1" opacity="0.996078431372549" d="M 446.5 216 L 447 218.5 L 446 218.5 L 446.5 216 Z " /><path fill="rgb(71,113,198)" stroke="rgb(71,113,198)" stroke-width="1" opacity="0.996078431372549" d="M 435.5 217 L 436.5 219 L 435.5 217 Z " /><path fill="rgb(71,113,198)" stroke="rgb(71,113,198)" stroke-width="1" opacity="0.996078431372549" d="M 454.5 217 L 455 221.5 L 454 221.5 L 454.5 217 Z " /><path fill="rgb(71,113,198)" stroke="rgb(71,113,198)" stroke-width="1" opacity="0.996078431372549" d="M 294.5 218 L 295 221.5 L 294 221.5 L 294.5 218 Z " /><path fill="rgb(71,113,198)" stroke="rgb(71,113,198)" stroke-width="1" opacity="0.996078431372549" d="M 320.5 219 L 319.5 221 L 320.5 219 Z " /><path fill="rgb(71,113,198)" stroke="rgb(71,113,198)" stroke-width="1" opacity="0.996078431372549" d="M 369.5 219 Q 371.8 218.3 371 220.5 L 370 225.5 L 374.5 233 Q 377.7 236.8 385.5 236 L 387 235.5 L 382.5 243 L 373.5 246 L 364 242 L 361 236.5 L 361 227.5 L 364 222 L 369.5 219 Z " /><path fill="rgb(71,113,198)" stroke="rgb(71,113,198)" stroke-width="1" opacity="0.996078431372549" d="M 379.5 219 L 378.5 221 L 379.5 219 Z " /><path fill="rgb(71,113,198)" stroke="rgb(71,113,198)" stroke-width="1" opacity="0.996078431372549" d="M 356.5 220 L 355.5 222 L 356.5 220 Z " /><path fill="rgb(71,113,198)" stroke="rgb(71,113,198)" stroke-width="1" opacity="0.996078431372549" d="M 428.5 220 L 429.5 222 L 428.5 220 Z " /><path fill="rgb(71,113,198)" stroke="rgb(71,113,198)" stroke-width="1" opacity="0.996078431372549" d="M 127.5 223 L 136 223.5 L 127.5 224 L 127.5 223 Z " /><path fill="rgb(71,113,198)" stroke="rgb(71,113,198)" stroke-width="1" opacity="0.996078431372549" d="M 475.5 223 L 476 233.5 L 475 233.5 L 475.5 223 Z " /><path fill="rgb(71,113,198)" stroke="rgb(71,113,198)" stroke-width="1" opacity="0.996078431372549" d="M 273.5 224 L 274 233.5 L 273 233.5 L 273.5 224 Z " /><path fill="rgb(71,113,198)" stroke="rgb(71,113,198)" stroke-width="1" opacity="0.996078431372549" d="M 301.5 224 L 302 232.5 L 301 232.5 L 301.5 224 Z " /><path fill="rgb(71,113,198)" stroke="rgb(71,113,198)" stroke-width="1" opacity="0.996078431372549" d="M 447.5 224 L 448 232.5 L 447 232.5 L 447.5 224 Z " /><path fill="rgb(71,113,198)" stroke="rgb(71,113,198)" stroke-width="1" opacity="0.996078431372549" d="M 205.5 230 L 208 230.5 L 205.5 231 L 205.5 230 Z " /><path fill="rgb(71,113,198)" stroke="rgb(71,113,198)" stroke-width="1" opacity="0.996078431372549" d="M 315.5 230 L 316 233.5 L 315 233.5 L 315.5 230 Z " /><path fill="rgb(71,113,198)" stroke="rgb(71,113,198)" stroke-width="1" opacity="0.996078431372549" d="M 413.5 230 L 414 233.5 L 413 233.5 L 413.5 230 Z " /><path fill="rgb(71,113,198)" stroke="rgb(71,113,198)" stroke-width="1" opacity="0.996078431372549" d="M 202.5 231 L 199.5 235 L 202.5 231 Z " /><path fill="rgb(71,113,198)" stroke="rgb(71,113,198)" stroke-width="1" opacity="0.996078431372549" d="M 266.5 235 L 267 238.5 L 266 238.5 L 266.5 235 Z " /><path fill="rgb(71,113,198)" stroke="rgb(71,113,198)" stroke-width="1" opacity="0.996078431372549" d="M 294.5 235 L 295 239.5 L 294 239.5 L 294.5 235 Z " /><path fill="rgb(71,113,198)" stroke="rgb(71,113,198)" stroke-width="1" opacity="0.996078431372549" d="M 454.5 235 L 455 239.5 L 454 239.5 L 454.5 235 Z " /><path fill="rgb(71,113,198)" stroke="rgb(71,113,198)" stroke-width="1" opacity="0.996078431372549" d="M 206.5 238 L 228 273.5 L 226.5 275 L 186 275 L 186 272.5 L 206.5 238 Z " /><path fill="rgb(71,113,198)" stroke="rgb(71,113,198)" stroke-width="1" opacity="0.996078431372549" d="M 302.5 238 L 303 240.5 L 302 240.5 L 302.5 238 Z " /><path fill="rgb(71,113,198)" stroke="rgb(71,113,198)" stroke-width="1" opacity="0.996078431372549" d="M 446.5 239 L 447 241.5 L 446 241.5 L 446.5 239 Z " /><path fill="rgb(71,113,198)" stroke="rgb(71,113,198)" stroke-width="1" opacity="0.996078431372549" d="M 274.5 240 L 275 243.5 L 274 243.5 L 274.5 240 Z " /><path fill="rgb(71,113,198)" stroke="rgb(71,113,198)" stroke-width="1" opacity="0.996078431372549" d="M 474.5 240 L 475 243.5 L 474 243.5 L 474.5 240 Z " /><path fill="rgb(71,113,198)" stroke="rgb(71,113,198)" stroke-width="1" opacity="0.996078431372549" d="M 355.5 242 L 356.5 244 L 355.5 242 Z " /><path fill="rgb(71,113,198)" stroke="rgb(71,113,198)" stroke-width="1" opacity="0.996078431372549" d="M 429.5 242 L 428.5 244 L 429.5 242 Z " /><path fill="rgb(71,113,198)" stroke="rgb(71,113,198)" stroke-width="1" opacity="0.996078431372549" d="M 295.5 243 L 296 245.5 L 295 245.5 L 295.5 243 Z " /><path fill="rgb(71,113,198)" stroke="rgb(71,113,198)" stroke-width="1" opacity="0.996078431372549" d="M 319.5 243 L 320.5 245 L 319.5 243 Z " /><path fill="rgb(71,113,198)" stroke="rgb(71,113,198)" stroke-width="1" opacity="0.996078431372549" d="M 453.5 243 L 454 245.5 L 453 245.5 L 453.5 243 Z " /><path fill="rgb(71,113,198)" stroke="rgb(71,113,198)" stroke-width="1" opacity="0.996078431372549" d="M 391.5 244 L 387.5 249 L 391.5 244 Z " /><path fill="rgb(71,113,198)" stroke="rgb(71,113,198)" stroke-width="1" opacity="0.996078431372549" d="M 436.5 245 L 435.5 247 L 436.5 245 Z " /><path fill="rgb(71,113,198)" stroke="rgb(71,113,198)" stroke-width="1" opacity="0.996078431372549" d="M 358.5 246 L 360.5 249 L 358.5 246 Z " /><path fill="rgb(71,113,198)" stroke="rgb(71,113,198)" stroke-width="1" opacity="0.996078431372549" d="M 473.5 247 L 474 249.5 L 473 249.5 L 473.5 247 Z " /><path fill="rgb(71,113,198)" stroke="rgb(71,113,198)" stroke-width="1" opacity="0.996078431372549" d="M 324.5 248 L 326.5 251 L 324.5 248 Z " /><path fill="rgb(71,113,198)" stroke="rgb(71,113,198)" stroke-width="1" opacity="0.996078431372549" d="M 434.5 248 L 426.5 257 L 434.5 248 Z " /><path fill="rgb(71,113,198)" stroke="rgb(71,113,198)" stroke-width="1" opacity="0.996078431372549" d="M 314.5 249 L 320.5 256 L 314.5 249 Z " /><path fill="rgb(71,113,198)" stroke="rgb(71,113,198)" stroke-width="1" opacity="0.996078431372549" d="M 276.5 251 L 277 253.5 L 276 253.5 L 276.5 251 Z " /><path fill="rgb(71,113,198)" stroke="rgb(71,113,198)" stroke-width="1" opacity="0.996078431372549" d="M 399.5 251 L 393.5 258 L 399.5 251 Z " /><path fill="rgb(71,113,198)" stroke="rgb(71,113,198)" stroke-width="1" opacity="0.996078431372549" d="M 349.5 252 L 353.5 257 L 349.5 252 Z " /><path fill="rgb(71,113,198)" stroke="rgb(71,113,198)" stroke-width="1" opacity="0.996078431372549" d="M 406.5 254 L 405.5 256 L 406.5 254 Z " /><path fill="rgb(71,113,198)" stroke="rgb(71,113,198)" stroke-width="1" opacity="0.996078431372549" d="M 342.5 255 L 343.5 257 L 342.5 255 Z " /><path fill="rgb(71,113,198)" stroke="rgb(71,113,198)" stroke-width="1" opacity="0.996078431372549" d="M 323.5 257 L 324.5 259 L 323.5 257 Z " /><path fill="rgb(71,113,198)" stroke="rgb(71,113,198)" stroke-width="1" opacity="0.996078431372549" d="M 424.5 257 L 423.5 259 L 424.5 257 Z " /><path fill="rgb(71,113,198)" stroke="rgb(71,113,198)" stroke-width="1" opacity="0.996078431372549" d="M 421.5 259 L 420.5 261 L 421.5 259 Z " /><path fill="rgb(71,113,198)" stroke="rgb(71,113,198)" stroke-width="1" opacity="0.996078431372549" d="M 328.5 260 L 329.5 262 L 328.5 260 Z " /><path fill="rgb(71,113,198)" stroke="rgb(71,113,198)" stroke-width="1" opacity="0.996078431372549" d="M 368.5 263 L 373 263.5 L 368.5 264 L 368.5 263 Z " /><path fill="rgb(71,113,198)" stroke="rgb(71,113,198)" stroke-width="1" opacity="0.996078431372549" d="M 375.5 263 L 380 263.5 L 375.5 264 L 375.5 263 Z " /><path fill="rgb(71,113,198)" stroke="rgb(71,113,198)" stroke-width="1" opacity="0.996078431372549" d="M 467.5 267 L 468 268.5 L 466.5 271 L 466 269.5 L 467.5 267 Z " /><path fill="rgb(71,113,198)" stroke="rgb(71,113,198)" stroke-width="1" opacity="0.996078431372549" d="M 305.5 270 L 306.5 272 L 305.5 270 Z " /><path fill="rgb(71,113,198)" stroke="rgb(71,113,198)" stroke-width="1" opacity="0.996078431372549" d="M 358.5 270 L 361 270.5 L 358.5 271 L 358.5 270 Z " /><path fill="rgb(71,113,198)" stroke="rgb(71,113,198)" stroke-width="1" opacity="0.996078431372549" d="M 387.5 270 L 391 270.5 L 387.5 271 L 387.5 270 Z " /><path fill="rgb(71,113,198)" stroke="rgb(71,113,198)" stroke-width="1" opacity="0.996078431372549" d="M 443.5 270 L 442.5 272 L 443.5 270 Z " /><path fill="rgb(71,113,198)" stroke="rgb(71,113,198)" stroke-width="1" opacity="0.996078431372549" d="M 315.5 271 L 316.5 273 L 315.5 271 Z " /><path fill="rgb(71,113,198)" stroke="rgb(71,113,198)" stroke-width="1" opacity="0.996078431372549" d="M 367.5 271 L 381 271.5 L 367.5 272 L 367.5 271 Z " /><path fill="rgb(71,113,198)" stroke="rgb(71,113,198)" stroke-width="1" opacity="0.996078431372549" d="M 433.5 271 L 432.5 273 L 433.5 271 Z " /><path fill="rgb(71,113,198)" stroke="rgb(71,113,198)" stroke-width="1" opacity="0.996078431372549" d="M 307.5 273 L 308.5 275 L 307.5 273 Z " /><path fill="rgb(71,113,198)" stroke="rgb(71,113,198)" stroke-width="1" opacity="0.996078431372549" d="M 441.5 273 L 440.5 275 L 441.5 273 Z " /><path fill="rgb(71,113,198)" stroke="rgb(71,113,198)" stroke-width="1" opacity="0.996078431372549" d="M 431.5 274 L 420.5 286 L 431.5 274 Z " /><path fill="rgb(71,113,198)" stroke="rgb(71,113,198)" stroke-width="1" opacity="0.996078431372549" d="M 318.5 275 L 328.5 286 L 318.5 275 Z " /><path fill="rgb(71,113,198)" stroke="rgb(71,113,198)" stroke-width="1" opacity="0.996078431372549" d="M 285.5 276 L 288 279.5 L 286 278.5 L 285.5 276 Z " /><path fill="rgb(71,113,198)" stroke="rgb(71,113,198)" stroke-width="1" opacity="0.996078431372549" d="M 309.5 276 L 311.5 279 L 309.5 276 Z " /><path fill="rgb(71,113,198)" stroke="rgb(71,113,198)" stroke-width="1" opacity="0.996078431372549" d="M 439.5 276 L 437.5 279 L 439.5 276 Z " /><path fill="rgb(71,113,198)" stroke="rgb(71,113,198)" stroke-width="1" opacity="0.996078431372549" d="M 49.5 278 L 50.5 280 L 49.5 278 Z " /><path fill="rgb(71,113,198)" stroke="rgb(71,113,198)" stroke-width="1" opacity="0.996078431372549" d="M 179.5 278 L 181.5 281 L 179.5 278 Z " /><path fill="rgb(71,113,198)" stroke="rgb(71,113,198)" stroke-width="1" opacity="0.996078431372549" d="M 462.5 278 L 461.5 280 L 462.5 278 Z " /><path fill="rgb(71,113,198)" stroke="rgb(71,113,198)" stroke-width="1" opacity="0.996078431372549" d="M 313.5 281 L 321.5 290 L 313.5 281 Z " /><path fill="rgb(71,113,198)" stroke="rgb(71,113,198)" stroke-width="1" opacity="0.996078431372549" d="M 435.5 281 L 427.5 290 L 435.5 281 Z " /><path fill="rgb(71,113,198)" stroke="rgb(71,113,198)" stroke-width="1" opacity="0.996078431372549" d="M 459.5 283 L 458.5 285 L 459.5 283 Z " /><path fill="rgb(71,113,198)" stroke="rgb(71,113,198)" stroke-width="1" opacity="0.996078431372549" d="M 55.5 286 L 64.5 296 L 55.5 286 Z " /><path fill="rgb(71,113,198)" stroke="rgb(71,113,198)" stroke-width="1" opacity="0.996078431372549" d="M 330.5 286 L 332.5 289 L 330.5 286 Z " /><path fill="rgb(71,113,198)" stroke="rgb(71,113,198)" stroke-width="1" opacity="0.996078431372549" d="M 457.5 286 L 455.5 289 L 457.5 286 Z " /><path fill="rgb(71,113,198)" stroke="rgb(71,113,198)" stroke-width="1" opacity="0.996078431372549" d="M 292.5 287 L 293.5 289 L 292.5 287 Z " /><path fill="rgb(71,113,198)" stroke="rgb(71,113,198)" stroke-width="1" opacity="0.996078431372549" d="M 417.5 287 L 416.5 289 L 417.5 287 Z " /><path fill="rgb(71,113,198)" stroke="rgb(71,113,198)" stroke-width="1" opacity="0.996078431372549" d="M 334.5 289 L 335.5 291 L 334.5 289 Z " /><path fill="rgb(71,113,198)" stroke="rgb(71,113,198)" stroke-width="1" opacity="0.996078431372549" d="M 414.5 289 L 413.5 291 L 414.5 289 Z " /><path fill="rgb(71,113,198)" stroke="rgb(71,113,198)" stroke-width="1" opacity="0.996078431372549" d="M 294.5 290 L 297.5 294 L 294.5 290 Z " /><path fill="rgb(71,113,198)" stroke="rgb(71,113,198)" stroke-width="1" opacity="0.996078431372549" d="M 454.5 290 L 451.5 294 L 454.5 290 Z " /><path fill="rgb(71,113,198)" stroke="rgb(71,113,198)" stroke-width="1" opacity="0.996078431372549" d="M 324.5 291 L 326.5 294 L 324.5 291 Z " /><path fill="rgb(71,113,198)" stroke="rgb(71,113,198)" stroke-width="1" opacity="0.996078431372549" d="M 424.5 291 L 422.5 294 L 424.5 291 Z " /><path fill="rgb(71,113,198)" stroke="rgb(71,113,198)" stroke-width="1" opacity="0.996078431372549" d="M 328.5 294 L 329.5 296 L 328.5 294 Z " /><path fill="rgb(71,113,198)" stroke="rgb(71,113,198)" stroke-width="1" opacity="0.996078431372549" d="M 420.5 294 L 419.5 296 L 420.5 294 Z " /><path fill="rgb(71,113,198)" stroke="rgb(71,113,198)" stroke-width="1" opacity="0.996078431372549" d="M 299.5 296 L 306.5 304 L 299.5 296 Z " /><path fill="rgb(71,113,198)" stroke="rgb(71,113,198)" stroke-width="1" opacity="0.996078431372549" d="M 331.5 296 L 332.5 298 L 331.5 296 Z " /><path fill="rgb(71,113,198)" stroke="rgb(71,113,198)" stroke-width="1" opacity="0.996078431372549" d="M 417.5 296 L 416.5 298 L 417.5 296 Z " /><path fill="rgb(71,113,198)" stroke="rgb(71,113,198)" stroke-width="1" opacity="0.996078431372549" d="M 449.5 296 L 442.5 304 L 449.5 296 Z " /><path fill="rgb(71,113,198)" stroke="rgb(71,113,198)" stroke-width="1" opacity="0.996078431372549" d="M 68.5 298 L 69.5 300 L 68.5 298 Z " /><path fill="rgb(71,113,198)" stroke="rgb(71,113,198)" stroke-width="1" opacity="0.996078431372549" d="M 292.5 299 L 294.5 302 L 292.5 299 Z " /><path fill="rgb(71,113,198)" stroke="rgb(71,113,198)" stroke-width="1" opacity="0.996078431372549" d="M 386.5 300 L 389 300.5 L 386.5 301 L 386.5 300 Z " /><path fill="rgb(71,113,198)" stroke="rgb(71,113,198)" stroke-width="1" opacity="0.996078431372549" d="M 410.5 300 L 409.5 302 L 408 301.5 L 410.5 300 Z " /><path fill="rgb(71,113,198)" stroke="rgb(71,113,198)" stroke-width="1" opacity="0.996078431372549" d="M 367.5 301 L 382 301.5 L 367.5 302 L 367.5 301 Z " /><path fill="rgb(71,113,198)" stroke="rgb(71,113,198)" stroke-width="1" opacity="0.996078431372549" d="M 74.5 303 L 77.5 307 L 74.5 303 Z " /><path fill="rgb(71,113,198)" stroke="rgb(71,113,198)" stroke-width="1" opacity="0.996078431372549" d="M 309.5 305 L 312.5 309 L 309.5 305 Z " /><path fill="rgb(71,113,198)" stroke="rgb(71,113,198)" stroke-width="1" opacity="0.996078431372549" d="M 439.5 305 L 436.5 309 L 439.5 305 Z " /><path fill="rgb(71,113,198)" stroke="rgb(71,113,198)" stroke-width="1" opacity="0.996078431372549" d="M 301.5 308 L 304.5 312 L 301.5 308 Z " /><path fill="rgb(71,113,198)" stroke="rgb(71,113,198)" stroke-width="1" opacity="0.996078431372549" d="M 362.5 308 L 366 308.5 L 362.5 309 L 362.5 308 Z " /><path fill="rgb(71,113,198)" stroke="rgb(71,113,198)" stroke-width="1" opacity="0.996078431372549" d="M 383.5 308 L 387 308.5 L 383.5 309 L 383.5 308 Z " /><path fill="rgb(71,113,198)" stroke="rgb(71,113,198)" stroke-width="1" opacity="0.996078431372549" d="M 314.5 309 L 316.5 312 L 314.5 309 Z " /><path fill="rgb(71,113,198)" stroke="rgb(71,113,198)" stroke-width="1" opacity="0.996078431372549" d="M 434.5 309 L 432.5 312 L 434.5 309 Z " /><path fill="rgb(71,113,198)" stroke="rgb(71,113,198)" stroke-width="1" opacity="0.996078431372549" d="M 318.5 312 L 319.5 314 L 318.5 312 Z " /><path fill="rgb(71,113,198)" stroke="rgb(71,113,198)" stroke-width="1" opacity="0.996078431372549" d="M 430.5 312 L 429.5 314 L 430.5 312 Z " /><path fill="rgb(71,113,198)" stroke="rgb(71,113,198)" stroke-width="1" opacity="0.996078431372549" d="M 308.5 314 L 309.5 316 L 308.5 314 Z " /><path fill="rgb(71,113,198)" stroke="rgb(71,113,198)" stroke-width="1" opacity="0.996078431372549" d="M 323.5 315 L 324.5 317 L 323.5 315 Z " /><path fill="rgb(71,113,198)" stroke="rgb(71,113,198)" stroke-width="1" opacity="0.996078431372549" d="M 425.5 315 L 424.5 317 L 425.5 315 Z " /><path fill="rgb(71,113,198)" stroke="rgb(71,113,198)" stroke-width="1" opacity="0.996078431372549" d="M 358.5 328 L 362 328.5 L 358.5 329 L 358.5 328 Z " /><path fill="rgb(71,113,198)" stroke="rgb(71,113,198)" stroke-width="1" opacity="0.996078431372549" d="M 387.5 328 L 391 328.5 L 387.5 329 L 387.5 328 Z " /><path fill="rgb(71,113,198)" stroke="rgb(71,113,198)" stroke-width="1" opacity="0.996078431372549" d="M 366.5 329 L 383 329.5 L 366.5 330 L 366.5 329 Z " /><path fill="rgb(71,113,198)" stroke="rgb(71,113,198)" stroke-width="1" opacity="0.996078431372549" d="M 361.5 336 L 365 336.5 L 361.5 337 L 361.5 336 Z " /><path fill="rgb(71,113,198)" stroke="rgb(71,113,198)" stroke-width="1" opacity="0.996078431372549" d="M 384.5 336 L 388 336.5 L 384.5 337 L 384.5 336 Z " /><path fill="rgb(71,113,198)" stroke="rgb(71,113,198)" stroke-width="1" opacity="0.996078431372549" d="M 248.5 337 L 249.5 339 L 248.5 337 Z " /><path fill="rgb(71,113,198)" stroke="rgb(71,113,198)" stroke-width="1" opacity="0.996078431372549" d="M 321.5 338 L 322 368.5 L 321 368.5 L 321.5 338 Z " /><path fill="rgb(71,113,198)" stroke="rgb(71,113,198)" stroke-width="1" opacity="0.996078431372549" d="M 163.5 339 L 164 375.5 L 163 375.5 L 163.5 339 Z " /><path fill="rgb(71,113,198)" stroke="rgb(71,113,198)" stroke-width="1" opacity="0.996078431372549" d="M 242.5 339 L 243 375.5 L 242 375.5 L 242.5 339 Z " /><path fill="rgb(71,113,198)" stroke="rgb(71,113,198)" stroke-width="1" opacity="0.996078431372549" d="M 356 362 L 392.5 362 L 393 362.5 L 393 495.5 L 391 500 L 387.5 502 L 361.5 502 L 358 500 L 356 495.5 L 356 362 Z " /><path fill="rgb(71,113,198)" stroke="rgb(71,113,198)" stroke-width="1" opacity="0.996078431372549" d="M 317.5 377 L 314.5 381 L 317.5 377 Z " /><path fill="rgb(71,113,198)" stroke="rgb(71,113,198)" stroke-width="1" opacity="0.996078431372549" d="M 162.5 380 L 160.5 383 L 162.5 380 Z " /><path fill="rgb(71,113,198)" stroke="rgb(71,113,198)" stroke-width="1" opacity="0.996078431372549" d="M 172.5 381 L 173.5 383 L 172.5 381 Z " /><path fill="rgb(71,113,198)" stroke="rgb(71,113,198)" stroke-width="1" opacity="0.996078431372549" d="M 251.5 381 L 252.5 383 L 251.5 381 Z " /><path fill="rgb(110,213,221)" stroke="rgb(110,213,221)" stroke-width="1" opacity="1" d="M 191.5 10 L 194 10.5 L 191.5 11 L 191.5 10 Z " /><path fill="rgb(110,213,221)" stroke="rgb(110,213,221)" stroke-width="1" opacity="1" d="M 219.5 10 L 222 10.5 L 219.5 11 L 219.5 10 Z " /><path fill="rgb(110,213,221)" stroke="rgb(110,213,221)" stroke-width="1" opacity="1" d="M 98.5 48 L 97.5 50 L 98.5 48 Z " /><path fill="rgb(110,213,221)" stroke="rgb(110,213,221)" stroke-width="1" opacity="1" d="M 318.5 51 L 319.5 53 L 318.5 51 Z " /><path fill="rgb(110,213,221)" stroke="rgb(110,213,221)" stroke-width="1" opacity="1" d="M 89.5 56 L 84.5 62 L 89.5 56 Z " /><path fill="rgb(110,213,221)" stroke="rgb(110,213,221)" stroke-width="1" opacity="1" d="M 332.5 65 L 333.5 67 L 332.5 65 Z " /><path fill="rgb(110,213,221)" stroke="rgb(110,213,221)" stroke-width="1" opacity="1" d="M 77.5 69 L 76.5 71 L 77.5 69 Z " /><path fill="rgb(110,213,221)" stroke="rgb(110,213,221)" stroke-width="1" opacity="1" d="M 366.5 119 L 365.5 121 L 364 120.5 L 366.5 119 Z " /><path fill="rgb(110,213,221)" stroke="rgb(110,213,221)" stroke-width="1" opacity="1" d="M 168.5 124 L 169.5 126 L 168.5 124 Z " /><path fill="rgb(110,213,221)" stroke="rgb(110,213,221)" stroke-width="1" opacity="1" d="M 92.5 126 L 90.5 129 L 92.5 126 Z " /><path fill="rgb(110,213,221)" stroke="rgb(110,213,221)" stroke-width="1" opacity="1" d="M 173.5 129 L 174.5 131 L 173.5 129 Z " /><path fill="rgb(110,213,221)" stroke="rgb(110,213,221)" stroke-width="1" opacity="1" d="M 86.5 133 L 85.5 135 L 86.5 133 Z " /><path fill="rgb(110,213,221)" stroke="rgb(110,213,221)" stroke-width="1" opacity="1" d="M 366.5 156 L 382.5 156 L 404.5 162 Q 420.5 169.5 431 182.5 Q 440.3 193.7 445 209.5 L 447 219.5 L 447 238.5 Q 440.9 270.9 418.5 287 L 394.5 299 L 385.5 301 L 363.5 301 Q 332.8 294.8 317 273.5 Q 308.2 262.8 304 247.5 L 302 237.5 L 302 219.5 Q 307.5 188 328.5 172 Q 337.5 164.5 349.5 160 L 366.5 156 Z M 368 192 L 367 193 L 353 194 L 339 198 L 321 208 Q 312 215 308 227 L 308 238 L 314 250 Q 322 259 334 264 L 353 270 L 367 271 L 368 272 L 381 272 L 382 271 L 391 271 L 401 269 Q 416 265 427 257 L 437 246 L 441 233 L 439 223 L 435 216 Q 426 205 413 199 L 390 193 L 368 192 Z " /><path fill="rgb(110,213,221)" stroke="rgb(110,213,221)" stroke-width="1" opacity="1" d="M 37.5 162 L 38 164.5 L 37 164.5 L 37.5 162 Z " /><path fill="rgb(110,213,221)" stroke="rgb(110,213,221)" stroke-width="1" opacity="1" d="M 225.5 162 L 226 171.5 L 225 171.5 L 225.5 162 Z " /><path fill="rgb(110,213,221)" stroke="rgb(110,213,221)" stroke-width="1" opacity="1" d="M 238.5 203 L 239.5 205 L 238.5 203 Z " /><path fill="rgb(110,213,221)" stroke="rgb(110,213,221)" stroke-width="1" opacity="1" d="M 403.5 205 L 406 205.5 Q 403.9 208.8 403.5 205 Z " /><path fill="rgb(110,213,221)" stroke="rgb(110,213,221)" stroke-width="1" opacity="1" d="M 244.5 209 L 245.5 211 L 244.5 209 Z " /><path fill="rgb(110,213,221)" stroke="rgb(110,213,221)" stroke-width="1" opacity="1" d="M 371.5 210 L 377 210.5 L 371.5 211 L 371.5 210 Z " /><path fill="rgb(110,213,221)" stroke="rgb(110,213,221)" stroke-width="1" opacity="1" d="M 381.5 210 L 385 210.5 L 381.5 211 L 381.5 210 Z " /><path fill="rgb(110,213,221)" stroke="rgb(110,213,221)" stroke-width="1" opacity="1" d="M 422.5 214 L 423.5 216 L 422.5 214 Z " /><path fill="rgb(110,213,221)" stroke="rgb(110,213,221)" stroke-width="1" opacity="1" d="M 323.5 216 L 321.5 219 L 323.5 216 Z " /><path fill="rgb(110,213,221)" stroke="rgb(110,213,221)" stroke-width="1" opacity="1" d="M 357.5 218 L 356.5 220 L 357.5 218 Z " /><path fill="rgb(110,213,221)" stroke="rgb(110,213,221)" stroke-width="1" opacity="1" d="M 395.5 220 L 396 222.5 L 395 222.5 L 395.5 220 Z " /><path fill="rgb(110,213,221)" stroke="rgb(110,213,221)" stroke-width="1" opacity="1" d="M 379.5 226 L 380.5 228 L 379.5 226 Z " /><path fill="rgb(110,213,221)" stroke="rgb(110,213,221)" stroke-width="1" opacity="1" d="M 405.5 227 L 406 230.5 L 405 230.5 L 405.5 227 Z " /><path fill="rgb(110,213,221)" stroke="rgb(110,213,221)" stroke-width="1" opacity="1" d="M 413.5 227 L 414 229.5 L 413 229.5 L 413.5 227 Z " /><path fill="rgb(110,213,221)" stroke="rgb(110,213,221)" stroke-width="1" opacity="1" d="M 395.5 228 L 396 230.5 L 395 230.5 L 395.5 228 Z " /><path fill="rgb(110,213,221)" stroke="rgb(110,213,221)" stroke-width="1" opacity="1" d="M 342.5 229 L 343 234.5 L 342 234.5 L 342.5 229 Z " /><path fill="rgb(110,213,221)" stroke="rgb(110,213,221)" stroke-width="1" opacity="1" d="M 334.5 230 L 335 233.5 L 334 233.5 L 334.5 230 Z " /><path fill="rgb(110,213,221)" stroke="rgb(110,213,221)" stroke-width="1" opacity="1" d="M 352.5 230 L 353 233.5 L 352 233.5 L 352.5 230 Z " /><path fill="rgb(110,213,221)" stroke="rgb(110,213,221)" stroke-width="1" opacity="1" d="M 432.5 230 L 433 233.5 L 432 233.5 L 432.5 230 Z " /><path fill="rgb(110,213,221)" stroke="rgb(110,213,221)" stroke-width="1" opacity="1" d="M 212.5 232 L 213.5 234 L 212.5 232 Z " /><path fill="rgb(110,213,221)" stroke="rgb(110,213,221)" stroke-width="1" opacity="1" d="M 395.5 233 L 396 235.5 L 395 235.5 L 395.5 233 Z " /><path fill="rgb(110,213,221)" stroke="rgb(110,213,221)" stroke-width="1" opacity="1" d="M 405.5 233 L 406 236.5 L 405 236.5 L 405.5 233 Z " /><path fill="rgb(110,213,221)" stroke="rgb(110,213,221)" stroke-width="1" opacity="1" d="M 413.5 234 L 414 236.5 L 413 236.5 L 413.5 234 Z " /><path fill="rgb(110,213,221)" stroke="rgb(110,213,221)" stroke-width="1" opacity="1" d="M 37.5 242 L 38 244.5 L 37 244.5 L 37.5 242 Z " /><path fill="rgb(110,213,221)" stroke="rgb(110,213,221)" stroke-width="1" opacity="1" d="M 356.5 244 L 357.5 246 L 356.5 244 Z " /><path fill="rgb(110,213,221)" stroke="rgb(110,213,221)" stroke-width="1" opacity="1" d="M 321.5 245 L 323.5 248 L 321.5 245 Z " /><path fill="rgb(110,213,221)" stroke="rgb(110,213,221)" stroke-width="1" opacity="1" d="M 423.5 248 L 422.5 250 L 423.5 248 Z " /><path fill="rgb(110,213,221)" stroke="rgb(110,213,221)" stroke-width="1" opacity="1" d="M 371.5 253 L 377 253.5 L 371.5 254 L 371.5 253 Z " /><path fill="rgb(110,213,221)" stroke="rgb(110,213,221)" stroke-width="1" opacity="1" d="M 404.5 257 L 405.5 259 L 403 258.5 L 404.5 257 Z " /><path fill="rgb(110,213,221)" stroke="rgb(110,213,221)" stroke-width="1" opacity="1" d="M 235.5 272 L 236 275.5 L 235 275.5 L 235.5 272 Z " /><path fill="rgb(110,213,221)" stroke="rgb(110,213,221)" stroke-width="1" opacity="1" d="M 233.5 279 L 232.5 281 L 233.5 279 Z " /><path fill="rgb(110,213,221)" stroke="rgb(110,213,221)" stroke-width="1" opacity="1" d="M 186.5 282 L 228 282.5 L 186.5 283 L 186.5 282 Z " /><path fill="rgb(110,213,221)" stroke="rgb(110,213,221)" stroke-width="1" opacity="1" d="M 290.5 297 L 291.5 299 L 290.5 297 Z " /><path fill="rgb(110,213,221)" stroke="rgb(110,213,221)" stroke-width="1" opacity="1" d="M 72.5 301 L 73.5 303 L 72.5 301 Z " /><path fill="rgb(110,213,221)" stroke="rgb(110,213,221)" stroke-width="1" opacity="1" d="M 78.5 307 L 79.5 309 L 78.5 307 Z " /><path fill="rgb(110,213,221)" stroke="rgb(110,213,221)" stroke-width="1" opacity="1" d="M 321.5 334 L 322 337.5 L 321 337.5 L 321.5 334 Z " /><path fill="rgb(110,213,221)" stroke="rgb(110,213,221)" stroke-width="1" opacity="1" d="M 107.5 383 L 158 383.5 L 107.5 384 L 107.5 383 Z " /><path fill="rgb(110,213,221)" stroke="rgb(110,213,221)" stroke-width="1" opacity="1" d="M 176.5 383 L 237 383.5 L 176.5 384 L 176.5 383 Z " /><path fill="rgb(110,213,221)" stroke="rgb(110,213,221)" stroke-width="1" opacity="1" d="M 255.5 383 L 306 383.5 L 255.5 384 L 255.5 383 Z " /><path fill="rgb(55,98,204)" stroke="rgb(55,98,204)" stroke-width="1" opacity="0.9686274509803922" d="M 187.5 2 L 225.5 2 L 226.5 3 L 244.5 5 L 263.5 10 L 291.5 22 Q 309.4 31.8 324 44 Q 322.9 46.7 325.5 46 L 339 59.5 L 339 61 Q 341.7 59.9 341 62.5 Q 363.3 86.4 375 120 L 394.5 121 L 415.5 127 Q 439.2 136.8 455 154.5 L 457 157.5 Q 470.8 171.7 478 192.5 L 483 213.5 L 484 234.5 L 483 235.5 L 483 244.5 L 481 254.5 L 475 272.5 Q 464.3 296.3 445.5 312 Q 426 329.9 396 336 L 396 354.5 L 397.5 355 L 401 359.5 L 401 498.5 L 397 506 L 389.5 510 L 359.5 510 L 352 506 L 348 498.5 L 348 359.5 L 351.5 355 L 353 354.5 L 353 336.5 L 351.5 335 L 337.5 332 L 331 329 L 330 333.5 L 330 369.5 Q 327.8 382.3 318.5 388 L 308.5 392 L 253.5 392 L 245.5 388 L 239.5 392 L 174.5 392 L 166.5 388 L 159.5 392 L 105.5 392 Q 93.7 389.8 88 381.5 L 84 372.5 L 84 337.5 Q 81.7 336.3 83 331.5 Q 78.1 316.9 67.5 308 Q 55.3 300.7 47 289.5 Q 37.1 277.4 32 260.5 L 29 246.5 L 29 214.5 L 28 213.5 L 28 211.5 L 29 159.5 L 35 127.5 Q 50.3 83.8 79.5 54 L 82.5 52 Q 104.5 28.5 136.5 15 L 160.5 7 L 187.5 2 Z M 189 10 L 162 15 L 139 23 Q 114 34 95 51 Q 64 78 47 118 L 39 146 L 38 159 L 37 160 L 37 176 L 36 177 L 36 210 L 37 211 L 37 246 Q 39 247 38 252 Q 43 273 55 287 L 71 300 Q 85 311 91 331 Q 90 335 92 337 L 92 372 L 96 379 L 106 384 L 159 384 L 161 383 L 163 381 L 164 376 L 164 339 Q 165 336 169 337 L 171 340 L 171 380 L 172 382 L 176 384 L 238 384 L 240 383 L 242 381 L 243 376 L 243 339 Q 244 336 248 337 L 250 340 L 250 380 L 251 382 L 255 384 L 308 384 L 315 381 Q 320 377 322 369 L 322 332 L 324 324 Q 311 318 301 308 Q 283 292 273 268 L 267 245 L 266 221 L 262 220 L 248 212 Q 231 200 226 176 L 226 160 L 228 151 Q 232 137 241 129 Q 249 120 261 115 L 277 111 L 288 111 L 304 115 Q 317 121 326 132 Q 342 122 367 121 Q 354 86 329 61 Q 304 34 268 20 L 256 16 L 233 11 Q 226 13 225 10 L 189 10 Z M 273 119 Q 260 122 252 129 L 239 144 L 233 163 Q 233 188 246 201 Q 254 210 267 213 Q 269 198 274 187 Q 281 169 293 157 Q 302 145 316 138 L 318 135 Q 311 126 301 122 Q 290 117 273 119 Z M 362 128 L 351 130 L 336 135 Q 321 141 311 150 Q 296 161 287 178 L 277 201 L 274 215 L 274 224 L 273 225 L 274 244 L 280 266 Q 287 284 299 297 Q 313 313 335 322 L 354 328 L 366 329 L 367 330 L 391 329 L 410 324 Q 429 317 443 304 Q 459 290 468 269 L 474 250 L 475 235 L 476 234 L 475 214 L 469 192 Q 463 176 453 165 Q 436 143 409 133 L 388 128 L 362 128 Z M 361 336 L 361 354 L 388 354 L 388 336 L 384 337 L 366 337 L 361 336 Z M 356 362 L 356 496 L 358 500 L 362 502 L 388 502 L 391 500 L 393 496 L 393 363 L 393 362 L 356 362 Z " /><path fill="rgb(55,98,204)" stroke="rgb(55,98,204)" stroke-width="1" opacity="0.9686274509803922" d="M 125.5 111 L 137.5 111 L 150.5 114 Q 166.5 120 176 132.5 L 186 152.5 L 188 162.5 L 188 172.5 L 186 182.5 L 181 194.5 L 169.5 209 Q 160.2 218.2 145.5 222 L 141.5 223 L 122.5 223 Q 98.1 217.9 86 200.5 L 77 181.5 L 75 166.5 L 79 146.5 Q 84.8 132.8 95.5 124 L 110.5 115 L 125.5 111 Z M 123 119 Q 110 121 103 128 Q 87 139 83 161 L 84 180 L 93 198 Q 104 212 126 216 Q 150 217 162 206 Q 176 196 180 176 L 180 160 L 179 155 Q 175 142 167 134 Q 159 124 145 120 Q 136 117 123 119 Z " /><path fill="rgb(55,98,204)" stroke="rgb(55,98,204)" stroke-width="1" opacity="0.9686274509803922" d="M 372.5 148 L 392.5 150 L 409.5 156 Q 424.5 163.5 435 175.5 Q 444.6 185.9 450 200.5 L 454 214.5 L 455 234.5 L 451 254.5 L 444 269.5 Q 436.5 282 425.5 291 Q 413.7 300.7 397.5 306 L 382.5 309 L 366.5 309 L 351.5 306 L 333.5 298 Q 321 290.5 312 279.5 Q 301.1 266.4 296 247.5 L 295 235.5 L 294 234.5 L 294 222.5 L 297 206.5 L 301 195.5 Q 308.4 179.9 320.5 169 Q 331.5 159 346.5 153 L 361.5 149 L 371.5 149 L 372.5 148 Z M 364 156 Q 340 160 326 174 Q 314 184 307 200 L 303 212 L 302 224 L 301 225 L 302 241 L 306 256 L 318 276 L 336 291 L 348 297 L 368 302 L 382 302 L 393 300 Q 409 295 421 286 Q 431 278 438 266 L 445 250 L 448 233 L 447 217 L 444 205 Q 439 190 429 180 Q 418 167 401 160 L 386 156 L 364 156 Z " /><path fill="rgb(55,98,204)" stroke="rgb(55,98,204)" stroke-width="1" opacity="0.9686274509803922" d="M 361.5 193 Q 413.7 189.3 435 216.5 Q 441.2 222.8 440 236.5 Q 436 250 425.5 257 Q 403.5 274 361.5 271 L 342.5 267 L 332.5 263 Q 320.6 257.4 313 247.5 Q 307.5 241 308 228.5 Q 311.5 214 322.5 207 L 342.5 197 L 361.5 193 Z M 369 200 Q 359 202 354 207 Q 345 214 342 228 L 343 242 L 349 253 Q 356 261 369 264 L 380 264 L 394 258 Q 403 251 406 239 L 406 226 L 400 213 Q 392 199 369 200 Z M 345 204 L 327 213 Q 318 219 315 231 Q 315 239 319 244 Q 328 255 345 260 L 346 260 Q 338 252 335 239 Q 334 228 336 222 Q 339 211 346 205 L 345 204 Z M 403 204 Q 410 211 413 225 Q 415 236 412 244 L 405 257 L 403 260 Q 414 257 422 251 Q 430 246 433 236 Q 434 226 430 222 Q 420 209 403 204 Z " /><path fill="rgb(55,98,204)" stroke="rgb(55,98,204)" stroke-width="1" opacity="0.9686274509803922" d="M 369.5 211 L 385.5 211 L 392 214 L 395 219.5 L 395 236.5 Q 392.5 245.5 385.5 250 Q 380.3 254.3 369.5 253 Q 361.2 250.8 357 244.5 Q 352.1 239.4 353 228.5 Q 355.1 218.6 362.5 214 L 369.5 211 Z M 382 218 L 378 221 Q 377 227 381 228 Q 387 229 388 226 L 387 219 L 382 218 Z M 370 219 L 364 222 L 361 228 L 361 237 L 364 242 L 374 246 L 383 243 L 387 236 L 386 236 Q 378 237 375 233 L 370 226 L 371 221 Q 372 218 370 219 Z " /><path fill="rgb(55,98,204)" stroke="rgb(55,98,204)" stroke-width="1" opacity="0.9686274509803922" d="M 203.5 231 Q 211.8 229.7 214 234.5 L 232 265.5 L 235 271.5 L 235 276.5 L 231.5 281 L 229.5 282 L 184.5 282 L 179 277.5 L 178 272.5 L 197 238.5 L 203.5 231 Z M 207 238 L 186 273 L 186 275 L 227 275 L 228 274 L 207 238 Z " /><path fill="rgb(246,166,167)" stroke="rgb(246,166,167)" stroke-width="1" opacity="1" d="M 365.5 128 L 383.5 128 L 400.5 131 L 409.5 134 Q 432 142.5 447 158.5 Q 463 174.5 471 198.5 L 475 217.5 L 475 239.5 L 472 255.5 L 463 277.5 Q 453.9 293.4 440.5 305 Q 424.7 319.2 401.5 326 L 386.5 329 L 362.5 329 Q 320.1 321.9 298 294.5 Q 284.8 279.7 278 258.5 L 274 239.5 L 274 218.5 L 275 217.5 L 276 206.5 L 281 190.5 L 288 176.5 L 303 157 L 319.5 144 L 334.5 136 L 348.5 131 L 365.5 128 Z M 366 148 L 355 150 L 341 155 L 325 165 Q 300 183 294 219 L 294 240 L 296 250 Q 302 268 313 282 Q 325 296 345 304 L 363 309 L 374 309 L 375 310 L 376 309 L 387 309 L 400 306 Q 416 300 428 290 Q 449 272 455 240 L 455 218 L 452 205 Q 447 189 438 179 Q 426 164 409 155 L 395 150 L 384 148 L 366 148 Z " /><path fill="rgb(246,166,167)" stroke="rgb(246,166,167)" stroke-width="1" opacity="1" d="M 361 337 L 388 337 L 388 354 L 361 354 L 361 337 Z " /></svg>