<?xml version="1.0" encoding="UTF-8"?>
<svg version="1.1" xmlns="http://www.w3.org/2000/svg" width="512" height="512">
<path d="M0 0 C12.77918746 10.94254176 19.85690045 25.18594677 21.26953125 41.9609375 C22.91518472 68.97487007 14.82768048 93.44835959 4.26953125 117.9609375 C26.51394526 113.34400427 43.69768311 107.24357363 60.26953125 90.9609375 C60.89472656 90.34863281 61.51992187 89.73632812 62.1640625 89.10546875 C79.10821042 71.16685617 83.65812965 46.92361299 83.71582031 23.15185547 C83.73225586 22.02279785 83.74869141 20.89374023 83.765625 19.73046875 C83.76747803 18.71573486 83.76933105 17.70100098 83.77124023 16.65551758 C84.40437219 13.23176579 85.53029558 12.05320111 88.26953125 9.9609375 C92.13278014 9.4090448 94.26659244 9.22012152 97.45727539 11.5769043 C99.85523524 14.73143453 99.77179724 16.66730871 99.765625 20.60546875 C99.76626953 21.92353516 99.76691406 23.24160156 99.76757812 24.59960938 C99.75718506 25.28724365 99.74679199 25.97487793 99.73608398 26.68334961 C99.70764598 28.72921294 99.71537024 30.77239221 99.72851562 32.81835938 C99.69019108 56.84004126 91.61071612 81.07134933 75.26953125 98.9609375 C74.80949707 99.46866699 74.34946289 99.97639648 73.87548828 100.49951172 C63.75515462 111.53719514 52.49304394 118.99935278 39.26953125 125.9609375 C40.12933594 126.35023438 40.98914063 126.73953125 41.875 127.140625 C65.4467246 138.2967084 84.05495051 157.40256682 93.26953125 181.9609375 C96.73420658 191.98208365 99.3752733 201.82626639 99.41670227 212.50834656 C99.42743523 214.41991547 99.42743523 214.41991547 99.43838501 216.37010193 C99.44122445 217.76455664 99.44393627 219.15901161 99.4465332 220.5534668 C99.45280583 222.03567664 99.45945333 223.51788493 99.46644592 225.00009155 C99.48737366 229.84510221 99.49782985 234.69011281 99.5078125 239.53515625 C99.51186269 241.20637338 99.51597968 242.87759034 99.52016258 244.54880714 C99.53918038 252.39337569 99.55342494 260.23793496 99.56177455 268.08252209 C99.57156905 277.13377281 99.59796016 286.18478042 99.63827544 295.2359454 C99.66839871 302.23906561 99.68323935 309.24211588 99.68655556 316.24529964 C99.68890809 320.42610645 99.69789647 324.60665248 99.72301674 328.78738976 C99.74623988 332.71503497 99.75055427 336.64224648 99.74025536 340.56994247 C99.73975866 342.01152169 99.74611835 343.45312189 99.7598114 344.89463615 C99.77744867 346.86117165 99.76806554 348.82789437 99.75727844 350.79447937 C99.7596668 351.89522639 99.76205515 352.99597342 99.76451588 354.13007641 C99.14843978 357.65347036 98.10056051 358.83165356 95.26953125 360.9609375 C91.76953125 361.4609375 91.76953125 361.4609375 88.26953125 360.9609375 C85.49433981 358.85668298 84.39943147 357.67517723 83.7701025 354.21489239 C83.77031178 353.15403329 83.77052107 352.09317419 83.77073669 351.00016785 C83.7563707 349.16911499 83.7563707 349.16911499 83.74171448 347.30107117 C83.75121235 345.95095579 83.76106626 344.60084288 83.77124023 343.25073242 C83.76741623 341.82621696 83.7617965 340.40170536 83.7545166 338.97720337 C83.74256049 335.90892207 83.74306012 332.84098294 83.75311089 329.77269554 C83.76869407 324.90801619 83.75497409 320.04368659 83.73707581 315.17903137 C83.70623615 305.71328072 83.70475286 296.24763669 83.70672607 286.78184509 C83.70811766 274.77365793 83.69752549 262.76555483 83.65814835 250.75742799 C83.64332654 245.93610715 83.64340242 241.11509802 83.65562618 236.29377306 C83.66038818 233.27093441 83.65273829 230.24821115 83.64208221 227.22539139 C83.63858719 225.18745932 83.64985069 223.14951796 83.66181946 221.11161804 C83.52808533 196.33951399 74.43154895 174.59851664 57.15234375 156.77734375 C41.03084087 141.63021742 20.99741107 134.99221166 -0.73046875 133.9609375 C-0.51898193 134.7816272 -0.51898193 134.7816272 -0.30322266 135.61889648 C6.49245104 162.27007052 11.44680611 191.02234996 -2.07421875 216.4921875 C-8.60287788 227.08312343 -17.93852494 233.55670253 -29.85522461 236.81542969 C-38.35440496 238.73630284 -46.40134601 239.47305593 -55.10546875 239.3984375 C-56.37479248 239.38941406 -57.64411621 239.38039063 -58.9519043 239.37109375 C-78.90504193 239.00322334 -96.8650064 232.99687989 -111.12109375 218.671875 C-111.9821875 217.77726563 -112.84328125 216.88265625 -113.73046875 215.9609375 C-114.4678125 215.23132813 -115.20515625 214.50171875 -115.96484375 213.75 C-138.87655892 189.86142875 -143.43512537 153.50480567 -142.98046875 122.015625 C-141.89832434 82.00874622 -128.22842479 42.86752058 -99.42016602 14.54370117 C-73.8603419 -9.3985528 -30.46636303 -22.75170458 0 0 Z " fill="#FE92BA" transform="translate(142.73046875,81.0390625)"/>
<path d="M0 0 C30.30040017 23.24525989 45.53843346 59.1848408 50.54785156 96.26513672 C54.92448759 131.23807228 51.51694295 169.5816583 31.00146484 199.32910156 C17.7045223 216.25248298 0.60415104 228.43500554 -21.18603516 231.39160156 C-25.93959527 231.68757595 -30.67436366 231.71651468 -35.43603516 231.70410156 C-37.26714844 231.72827148 -37.26714844 231.72827148 -39.13525391 231.75292969 C-56.00024363 231.76185296 -71.46826665 227.97034672 -83.92822266 216.07128906 C-96.77712696 200.82155143 -98.29416448 180.26148195 -96.91259766 161.22753906 C-95.87094468 149.33722367 -93.18659215 137.92402805 -90.18603516 126.39160156 C-114.76963217 128.29796846 -135.70622122 135.89984498 -152.99853516 154.20410156 C-168.76213924 172.6865658 -174.33829683 193.78633039 -174.32788086 217.52514648 C-174.33091618 218.95809536 -174.33443866 220.39104328 -174.33840942 221.82398987 C-174.34626697 224.89867953 -174.35143126 227.97335776 -174.35470009 231.04805565 C-174.36063129 235.90986524 -174.37718894 240.77160248 -174.39604187 245.63337708 C-174.40237809 247.3001699 -174.40870373 248.96696277 -174.41501904 250.63375568 C-174.41818485 251.46809057 -174.42135066 252.30242545 -174.4246124 253.16204321 C-174.46665271 264.47349491 -174.49969548 275.78491081 -174.51196289 287.09643555 C-174.52033518 294.73809059 -174.54278733 302.37956421 -174.58131856 310.02112848 C-174.60109294 314.06217005 -174.61347892 318.10294036 -174.60848427 322.14403343 C-174.60384826 325.94043346 -174.61758486 329.73631774 -174.64549637 333.53261375 C-174.65242357 334.92578437 -174.65251825 336.31900815 -174.6452961 337.71217728 C-174.63643608 339.61310884 -174.65441789 341.51410919 -174.67378235 343.41496277 C-174.6761707 344.47883807 -174.67855906 345.54271338 -174.68101978 346.63882732 C-175.3161744 350.10097393 -176.40806931 351.28569314 -179.18603516 353.39160156 C-182.68603516 353.89160156 -182.68603516 353.89160156 -186.18603516 353.39160156 C-188.99498804 351.27176105 -190.06075894 350.08849264 -190.68939972 346.5914669 C-190.69166187 344.96177688 -190.69166187 344.96177688 -190.69396973 343.29916382 C-190.70524902 342.04914078 -190.71652832 340.79911774 -190.72814941 339.51121521 C-190.72037178 338.12807996 -190.71217908 336.744947 -190.70361328 335.36181641 C-190.70903489 333.9027588 -190.71615777 332.44370668 -190.72485352 330.98466492 C-190.74310812 327.01880748 -190.73600478 323.05336587 -190.72333717 319.08750105 C-190.71319362 314.92255012 -190.7226091 310.75763426 -190.72888184 306.59268188 C-190.73616563 299.58320766 -190.72656325 292.57390178 -190.70751953 285.56445312 C-190.68586809 277.50300448 -190.69271306 269.44196239 -190.71482515 261.38052404 C-190.73310118 254.4358109 -190.73547492 247.49121883 -190.72507048 240.54648936 C-190.71888664 236.40994747 -190.71785432 232.27359501 -190.73121643 228.13706589 C-190.82836888 193.28413204 -185.28831737 164.27173901 -160.37353516 138.14160156 C-151.52689183 129.61338202 -141.31465316 123.50475037 -130.18603516 118.39160156 C-131.22501953 117.83472656 -132.26400391 117.27785156 -133.33447266 116.70410156 C-141.55601396 112.23524985 -149.23658177 107.73107158 -156.18603516 101.39160156 C-156.69231445 100.93301758 -157.19859375 100.47443359 -157.72021484 100.00195312 C-176.32864443 82.93962452 -189.09765217 59.38594521 -190.36303711 33.81469727 C-190.41741858 30.48919464 -190.46237622 27.16449203 -190.48120117 23.83862305 C-190.49280159 22.41013752 -190.5133785 20.98169797 -190.54272461 19.5534668 C-190.58532783 17.47447709 -190.60154748 15.39675419 -190.61181641 13.31738281 C-190.62639893 12.08415283 -190.64098145 10.85092285 -190.65600586 9.58032227 C-190.18603516 6.39160156 -190.18603516 6.39160156 -188.37817383 3.98999023 C-185.18080091 1.65863925 -183.04148982 1.84082233 -179.18603516 2.39160156 C-176.44679949 4.48386517 -175.3208761 5.66242985 -174.68774414 9.08618164 C-174.68589111 10.10091553 -174.68403809 11.11564941 -174.68212891 12.16113281 C-174.66569336 13.29019043 -174.64925781 14.41924805 -174.63232422 15.58251953 C-174.62942383 16.7776416 -174.62652344 17.97276367 -174.62353516 19.20410156 C-174.13658933 43.16246845 -168.24977187 64.05498432 -152.18603516 82.39160156 C-151.31398438 83.40673828 -151.31398438 83.40673828 -150.42431641 84.44238281 C-135.65588032 100.42817372 -115.95180451 106.59162224 -95.18603516 110.39160156 C-95.46278076 109.73377686 -95.73952637 109.07595215 -96.0246582 108.39819336 C-108.69584066 78.0743792 -119.28299366 45.28983963 -106.93603516 13.01660156 C-100.28329822 -1.75405843 -88.35185939 -10.99617609 -73.45556641 -16.64355469 C-48.13510509 -24.3218328 -20.51415582 -15.11683118 0 0 Z " fill="#FE92BA" transform="translate(460.18603515625,88.6083984375)"/>
<path d="M0 0 C0.94101562 -0.02578125 1.88203125 -0.0515625 2.8515625 -0.078125 C5.375 0.25 5.375 0.25 7.1796875 1.55078125 C9.23144732 4.46749865 8.85628507 6.82084387 8.375 10.25 C5.45041584 14.01017964 2.080491 14.63615378 -2.375 15.625 C-12.33778354 17.94761211 -17.66628082 22.40911549 -23.1171875 30.98046875 C-24.50614974 33.99228585 -25.37109428 36.7592968 -26.21923828 39.9543457 C-26.48407013 40.94578079 -26.74890198 41.93721588 -27.02175903 42.95869446 C-27.22082855 43.71482529 -27.41989807 44.47095612 -27.625 45.25 C-27.00747864 45.24111755 -26.38995728 45.23223511 -25.75372314 45.2230835 C-19.33005016 45.13463081 -12.90654998 45.07427431 -6.48242188 45.03027344 C-4.08456394 45.01015064 -1.68675512 44.98284941 0.7109375 44.94824219 C4.15637323 44.8997551 7.60116052 44.87703759 11.046875 44.859375 C12.65644073 44.82840729 12.65644073 44.82840729 14.29852295 44.79681396 C15.79962616 44.79636078 15.79962616 44.79636078 17.33105469 44.79589844 C18.21041687 44.78701599 19.08977905 44.77813354 19.99578857 44.76898193 C23.20107197 45.41701145 24.40616772 46.68573202 26.375 49.25 C26.375 52.8125 26.375 52.8125 25.375 56.25 C22.48373353 59.03412957 20.47727358 59.62186005 16.51464844 59.59057617 C15.55395447 59.59034958 14.5932605 59.59012299 13.60345459 59.58988953 C12.57415833 59.57440567 11.54486206 59.55892181 10.484375 59.54296875 C9.42462463 59.53872391 8.36487427 59.53447906 7.27301025 59.53010559 C3.89008113 59.5133203 0.50774891 59.47566755 -2.875 59.4375 C-5.16926223 59.42245301 -7.4635338 59.40876463 -9.7578125 59.39648438 C-15.3804118 59.36341728 -21.00266325 59.31321903 -26.625 59.25 C-25.85235231 61.16075982 -25.07386794 63.06916008 -24.29296875 64.9765625 C-23.86008545 66.03955566 -23.42720215 67.10254883 -22.98120117 68.19775391 C-19.32598159 76.42413649 -14.01778605 81.80357626 -5.625 85.25 C-2.24480139 85.95404597 1.05437407 86.41982296 4.4921875 86.73046875 C7.65850004 87.30109147 9.14223226 87.94845032 11.375 90.25 C11.90625 92.1875 11.90625 92.1875 11.875 94.25 C11.89046875 95.2709375 11.89046875 95.2709375 11.90625 96.3125 C11.375 98.25 11.375 98.25 9.69140625 99.97265625 C4.53385477 102.81670234 -1.89263525 101.84676648 -7.46875 100.62890625 C-21.37586509 96.13307163 -30.45179134 86.86804317 -36.9375 74.25 C-37.28772217 73.57324219 -37.63794434 72.89648438 -37.9987793 72.19921875 C-38.48858276 71.20341797 -38.48858276 71.20341797 -38.98828125 70.1875 C-39.28001221 69.59839844 -39.57174316 69.00929688 -39.87231445 68.40234375 C-40.92034284 65.40545168 -41.24095467 62.39214619 -41.625 59.25 C-46.49589857 59.34490267 -51.3663774 59.45126134 -56.23681641 59.56738281 C-57.88714088 59.60521811 -59.53753519 59.64014187 -61.18798828 59.671875 C-89.36137565 60.21992874 -113.17877042 65.76716797 -134.16796875 85.66015625 C-151.61387557 104.12699394 -157.77769537 126.65629677 -157.7668457 151.38354492 C-157.76988102 152.8164938 -157.7734035 154.24944171 -157.77737427 155.68238831 C-157.78523181 158.75707797 -157.79039611 161.8317562 -157.79366493 164.90645409 C-157.79959614 169.76826368 -157.81615378 174.63000091 -157.83500671 179.49177551 C-157.84134294 181.15856834 -157.84766858 182.82536121 -157.85398388 184.49215412 C-157.85714969 185.32648901 -157.8603155 186.16082389 -157.86357725 187.02044165 C-157.90561755 198.33189335 -157.93866032 209.64330925 -157.95092773 220.95483398 C-157.95930003 228.59648903 -157.98175218 236.23796264 -158.0202834 243.87952691 C-158.04005779 247.92056849 -158.05244377 251.9613388 -158.04744911 256.00243187 C-158.0428131 259.7988319 -158.0565497 263.59471618 -158.08446121 267.39101219 C-158.09138841 268.78418281 -158.09148309 270.17740659 -158.08426094 271.57057571 C-158.07540092 273.47150728 -158.09338273 275.37250763 -158.11274719 277.27336121 C-158.11513555 278.33723651 -158.1175239 279.40111181 -158.11998463 280.49722576 C-158.75513924 283.95937237 -159.84703415 285.14409157 -162.625 287.25 C-166.125 287.75 -166.125 287.75 -169.625 287.25 C-172.43395288 285.13015948 -173.49972378 283.94689108 -174.12836456 280.44986534 C-174.13062672 278.82017531 -174.13062672 278.82017531 -174.13293457 277.15756226 C-174.14421387 275.90753922 -174.15549316 274.65751617 -174.16711426 273.36961365 C-174.15933663 271.9864784 -174.15114393 270.60334544 -174.14257812 269.22021484 C-174.14799973 267.76115724 -174.15512261 266.30210512 -174.16381836 264.84306335 C-174.18207296 260.87720592 -174.17496962 256.91176431 -174.16230202 252.94589949 C-174.15215846 248.78094855 -174.16157395 244.6160327 -174.16784668 240.45108032 C-174.17513048 233.4416061 -174.16552809 226.43230021 -174.14648438 219.42285156 C-174.12483294 211.36140291 -174.1316779 203.30036082 -174.15379 195.23892248 C-174.17206603 188.29420934 -174.17443977 181.34961727 -174.16403532 174.4048878 C-174.15785148 170.2683459 -174.15681916 166.13199345 -174.17018127 161.99546432 C-174.26733372 127.14253047 -168.72728222 98.13013745 -143.8125 72 C-125.79338961 54.62946479 -101.458945 44.78319383 -76.48828125 45.0546875 C-74.98010078 45.05893234 -74.98010078 45.05893234 -73.44145203 45.06326294 C-70.27333979 45.07433513 -67.10552479 45.09941443 -63.9375 45.125 C-61.7714885 45.13504659 -59.6054725 45.14416948 -57.43945312 45.15234375 C-52.16786969 45.17423175 -46.89645609 45.20757708 -41.625 45.25 C-41.5637796 44.49518341 -41.5025592 43.74036682 -41.43948364 42.962677 C-41.35520111 41.9722641 -41.27091858 40.9818512 -41.18408203 39.96142578 C-41.06131393 38.4888884 -41.06131393 38.4888884 -40.93606567 36.98660278 C-39.59567117 25.19447125 -31.64128367 15.21279567 -22.8046875 7.8203125 C-15.6944146 2.69785783 -8.74359793 0.14452228 0 0 Z " fill="#FD5694" transform="translate(443.625,154.75)"/>
<path d="M0 0 C10.00365561 1.59404522 20.76120087 7.39972106 26.82421875 15.609375 C27.42492187 16.40988281 28.025625 17.21039063 28.64453125 18.03515625 C34.45317509 26.43217067 37.9678509 35.34190642 37.82421875 45.609375 C39.12456055 45.59890137 40.42490234 45.58842773 41.76464844 45.57763672 C46.64010814 45.5411337 51.51555604 45.51836538 56.39111328 45.49951172 C58.49171996 45.48952264 60.59231298 45.47592675 62.69287109 45.45849609 C77.4049391 45.3395683 90.76894031 45.74177189 104.76171875 50.734375 C105.62071777 51.03931885 106.4797168 51.3442627 107.36474609 51.65844727 C130.45910293 60.1959542 150.07017744 78.72508604 160.63671875 100.921875 C166.09756735 112.92245365 169.92007006 125.92446622 169.97138977 139.15678406 C169.98212273 141.06835297 169.98212273 141.06835297 169.99307251 143.01853943 C169.99591195 144.41299414 169.99862377 145.80744911 170.0012207 147.2019043 C170.00749333 148.68411414 170.01414083 150.16632243 170.02113342 151.64852905 C170.04206116 156.49353971 170.05251735 161.33855031 170.0625 166.18359375 C170.06655019 167.85481088 170.07066718 169.52602784 170.07485008 171.19724464 C170.09386788 179.04181319 170.10811244 186.88637246 170.11646205 194.73095959 C170.12625655 203.78221031 170.15264766 212.83321792 170.19296294 221.8843829 C170.22308621 228.88750311 170.23792685 235.89055338 170.24124306 242.89373714 C170.24359559 247.07454395 170.25258397 251.25508998 170.27770424 255.43582726 C170.30092738 259.36347247 170.30524177 263.29068398 170.29494286 267.21837997 C170.29444616 268.65995919 170.30080585 270.10155939 170.3144989 271.54307365 C170.33213617 273.50960915 170.32275304 275.47633187 170.31196594 277.44291687 C170.3143543 278.54366389 170.31674265 279.64441092 170.31920338 280.77851391 C169.70312728 284.30190786 168.65524801 285.48009106 165.82421875 287.609375 C162.32421875 288.109375 162.32421875 288.109375 158.82421875 287.609375 C156.04902731 285.50512048 154.95411897 284.32361473 154.32479 280.86332989 C154.32499928 279.80247079 154.32520857 278.74161169 154.32542419 277.64860535 C154.3110582 275.81755249 154.3110582 275.81755249 154.29640198 273.94950867 C154.30589985 272.59939329 154.31575376 271.24928038 154.32592773 269.89916992 C154.32210373 268.47465446 154.316484 267.05014286 154.3092041 265.62564087 C154.29724799 262.55735957 154.29774762 259.48942044 154.30779839 256.42113304 C154.32338157 251.55645369 154.30966159 246.69212409 154.29176331 241.82746887 C154.26092365 232.36171822 154.25944036 222.89607419 154.26141357 213.43028259 C154.26280516 201.42209543 154.25221299 189.41399233 154.21283585 177.40586549 C154.19801404 172.58454465 154.19808992 167.76353552 154.21031368 162.94221056 C154.21507568 159.91937191 154.20742579 156.89664865 154.19676971 153.87382889 C154.19327469 151.83589682 154.20453819 149.79795546 154.21650696 147.76005554 C154.08277283 122.98795149 144.98623645 101.24695414 127.70703125 83.42578125 C110.3322285 67.10110394 88.36730609 60.81840533 65.0703125 60.29296875 C64.28398941 60.27218765 63.49766632 60.25140656 62.68751526 60.22999573 C60.21232568 60.16538912 57.73704385 60.10603554 55.26171875 60.046875 C53.5683504 60.00360489 51.87499088 59.95998813 50.18164062 59.91601562 C46.06259093 59.80980109 41.94344988 59.70829253 37.82421875 59.609375 C37.69942139 60.20758057 37.57462402 60.80578613 37.44604492 61.42211914 C34.60660035 74.67420302 28.19072411 86.71061704 16.82421875 94.609375 C10.76552831 98.17996323 4.97105547 101.33968305 -2.17578125 101.609375 C-2.92859375 101.65835938 -3.68140625 101.70734375 -4.45703125 101.7578125 C-7.88633744 101.90255594 -10.52098346 101.86490585 -13.73828125 100.609375 C-15.68187489 97.90524472 -15.61555956 95.81232469 -15.609375 92.546875 C-15.03065291 89.96087357 -14.34640282 89.13701833 -12.17578125 87.609375 C-9.3203125 87.01953125 -9.3203125 87.01953125 -5.98828125 86.671875 C-0.29925016 85.90616559 4.00184186 84.70123387 8.82421875 81.609375 C9.69046875 81.073125 10.55671875 80.536875 11.44921875 79.984375 C16.10917555 75.3244182 19.1455055 69.57971933 21.41357422 63.43261719 C21.67911102 62.7156366 21.94464783 61.99865601 22.2182312 61.25994873 C22.41820709 60.7152594 22.61818298 60.17057007 22.82421875 59.609375 C21.91672882 59.62602959 21.91672882 59.62602959 20.99090576 59.64302063 C14.69704952 59.75359396 8.40346888 59.82903371 2.10888672 59.8840332 C-0.24051113 59.90918562 -2.58983066 59.94331163 -4.93896484 59.98657227 C-8.31497508 60.04718926 -11.68995136 60.07557795 -15.06640625 60.09765625 C-16.64316132 60.13636589 -16.64316132 60.13636589 -18.25177002 60.17585754 C-25.50794909 60.17865176 -25.50794909 60.17865176 -28.87402344 57.30932617 C-30.64139335 53.64365778 -30.27061979 51.47780452 -29.17578125 47.609375 C-25.91199392 45.43351678 -25.0167381 45.36332484 -21.24536133 45.38232422 C-20.24455032 45.38247528 -19.24373932 45.38262634 -18.21260071 45.38278198 C-16.59529305 45.39826584 -16.59529305 45.39826584 -14.9453125 45.4140625 C-13.28697639 45.41830734 -13.28697639 45.41830734 -11.59513855 45.42263794 C-8.05940997 45.43384498 -4.52393345 45.45895073 -0.98828125 45.484375 C1.40689739 45.49440411 3.80207999 45.50353008 6.19726562 45.51171875 C12.07300286 45.53378603 17.9485928 45.56726882 23.82421875 45.609375 C23.23120466 43.55350453 22.62753778 41.50070533 22.01953125 39.44921875 C21.68453613 38.30573975 21.34954102 37.16226074 21.00439453 35.98413086 C18.09776507 27.67251747 13.2207859 21.92660901 5.51953125 17.7109375 C1.80852075 16.19426364 -1.86350638 15.65734432 -5.8125 15.08203125 C-8.17578125 14.609375 -8.17578125 14.609375 -10.86328125 12.921875 C-12.7275292 9.63724766 -12.64775315 7.31772568 -12.17578125 3.609375 C-9.13779642 -0.72481668 -4.86755414 -0.10901577 0 0 Z " fill="#FD5694" transform="translate(72.17578125,154.390625)"/>
<path d="M0 0 C-2.90745601 1.93830401 -4.01605982 2.30833856 -7.3125 2.8125 C-24.08733497 6.00190984 -38.14312978 14.03455016 -51 25 C-52.010625 25.763125 -53.02125 26.52625 -54.0625 27.3125 C-58.58029285 31.44579984 -62.23241868 36.18730195 -66 41 C-66.6496875 41.77601562 -67.299375 42.55203125 -67.96875 43.3515625 C-91.97435978 73.55534202 -96.93364789 114.78641239 -96 152 C-95.97035156 153.22460938 -95.94070312 154.44921875 -95.91015625 155.7109375 C-94.47369922 183.52915417 -83.4420075 211.3144936 -63.3125 230.6875 C-51.23666454 241.11833001 -37.44882547 245.85786601 -22 249 C-22 249.33 -22 249.66 -22 250 C-42.01142352 250.83380931 -61.3695508 247.56820043 -76.9765625 233.96972656 C-79.40671754 231.72494874 -81.70528312 229.38403221 -84 227 C-84.73734375 226.27039063 -85.4746875 225.54078125 -86.234375 224.7890625 C-109.14609017 200.90049125 -113.70465662 164.54386817 -113.25 133.0546875 C-112.16785559 93.04780872 -98.49795604 53.90658308 -69.68969727 25.58276367 C-50.11496686 7.24683285 -26.4068109 -0.86317663 0 0 Z " fill="#FE77A8" transform="translate(113,70)"/>
<path d="M0 0 C26.72195918 -1.20399315 49.89272434 7.76778757 69.75 25.75 C98.03122943 52.34869157 111.45063173 91.70017628 113.1262207 129.87573242 C114.02560309 165.13437733 108.72921967 200.86258869 83.82568359 227.61914062 C74.28708745 237.50554618 63.07372162 243.82789504 50 248 C48.84371094 248.36931641 48.84371094 248.36931641 47.6640625 248.74609375 C38.75740236 251.01182308 29.11864434 250.17255077 20 250 C20 249.67 20 249.34 20 249 C21.1859375 248.8040625 22.371875 248.608125 23.59375 248.40625 C44.55693324 244.65138996 62.03344553 235.4547776 75 218 C90.55811155 194.79087013 96.46471531 167.96522565 96.3125 140.3125 C96.30976578 139.27009659 96.30976578 139.27009659 96.30697632 138.20663452 C96.25593077 126.58171659 95.41948974 115.38610934 93 104 C92.73461426 102.7001416 92.73461426 102.7001416 92.46386719 101.37402344 C90.04908006 89.73383194 86.96705497 78.83402342 82 68 C81.69690918 67.33629395 81.39381836 66.67258789 81.08154297 65.98876953 C76.90363205 56.94689522 72.25078709 48.80485018 66 41 C65.22785156 40.00226563 64.45570313 39.00453125 63.66015625 37.9765625 C47.2836194 17.43474534 25.36083875 6.21954308 0 1 C0 0.67 0 0.34 0 0 Z " fill="#FE77A8" transform="translate(399,70)"/>
<path d="M0 0 C2.73923567 2.09226361 3.86515906 3.27082829 4.49829102 6.69458008 C4.50014404 7.70931396 4.50199707 8.72404785 4.50390625 9.76953125 C4.5203418 10.89858887 4.53677734 12.02764648 4.55371094 13.19091797 C4.55661133 14.38604004 4.55951172 15.58116211 4.5625 16.8125 C5.04944582 40.77086689 10.93626328 61.66338275 27 80 C27.87205078 81.01513672 27.87205078 81.01513672 28.76171875 82.05078125 C43.8798214 98.41506156 65.65288244 106.55918735 87.56393433 107.4355011 C92.02147781 107.56366221 96.47855091 107.63178819 100.9375 107.6875 C102.79624658 107.72076434 104.65497151 107.75526197 106.51367188 107.79101562 C111.0089925 107.87485596 115.50427296 107.94214528 120 108 C120.33 107.34 120.66 106.68 121 106 C121 106.99 121 107.98 121 109 C120.18219559 109.00879936 120.18219559 109.00879936 119.34786987 109.01777649 C113.60350146 109.0823858 107.8596589 109.16696597 102.11572266 109.26245117 C99.98037713 109.29542886 97.84495011 109.32354249 95.70947266 109.34643555 C75.2240457 109.54737715 75.2240457 109.54737715 55.6875 115.25 C50.07393113 116.85269052 46.34151852 114.81832659 41.4375 112.1875 C34.78906243 108.39129069 28.6289689 104.20836232 23 99 C22.4951709 98.54141602 21.9903418 98.08283203 21.47021484 97.61035156 C2.85794208 80.54956163 -9.91150826 56.99654136 -11.17700195 31.4230957 C-11.23138342 28.09759307 -11.27634107 24.77289046 -11.29516602 21.44702148 C-11.30676644 20.01853596 -11.32734335 18.5900964 -11.35668945 17.16186523 C-11.39929268 15.08287553 -11.41551232 13.00515263 -11.42578125 10.92578125 C-11.44036377 9.69255127 -11.45494629 8.45932129 -11.4699707 7.1887207 C-11 4 -11 4 -9.19213867 1.59838867 C-5.99476575 -0.73296231 -3.85545466 -0.55077924 0 0 Z " fill="#FE75A8" transform="translate(281,91)"/>
<path d="M0 0 C4.12003083 0.58857583 5.02139227 1.239377 7.5 4.5 C8.00170898 7.56176758 8.00170898 7.56176758 7.99609375 11.14453125 C7.99673828 12.46259766 7.99738281 13.78066406 7.99804688 15.13867188 C7.98765381 15.82630615 7.97726074 16.51394043 7.96655273 17.22241211 C7.93811473 19.26827544 7.94583899 21.31145471 7.95898438 23.35742188 C7.92065983 47.37910376 -0.15881513 71.61041183 -16.5 89.5 C-16.96003418 90.00772949 -17.42006836 90.51545898 -17.89404297 91.03857422 C-25.60337967 99.44671774 -33.63659045 105.81002357 -43.5 111.5 C-44.38558594 112.08265625 -45.27117187 112.6653125 -46.18359375 113.265625 C-51.128729 116.27226723 -54.06751629 116.79878295 -59.75 115.4375 C-61.67907802 114.829742 -63.59817302 114.18830657 -65.5 113.5 C-73.67328535 110.67078584 -81.54717745 110.33561101 -90.125 110.18359375 C-91.60625366 110.1524221 -91.60625366 110.1524221 -93.11743164 110.12062073 C-96.24488961 110.05569247 -99.37242527 109.9965063 -102.5 109.9375 C-104.63151817 109.89426072 -106.76302873 109.85064478 -108.89453125 109.80664062 C-114.09627412 109.70006997 -119.29809277 109.5982026 -124.5 109.5 C-124.5 109.17 -124.5 108.84 -124.5 108.5 C-123.35225098 108.4906543 -122.20450195 108.48130859 -121.02197266 108.47167969 C-116.67151201 108.43112693 -112.32171134 108.36520592 -107.97167969 108.29248047 C-106.10620751 108.26464238 -104.24062551 108.24324785 -102.375 108.22900391 C-74.60260128 108.00455025 -51.79647703 101.44226277 -31.5 81.5 C-30.87480469 80.88769531 -30.24960938 80.27539062 -29.60546875 79.64453125 C-12.66132083 61.70591867 -8.1114016 37.46267549 -8.05371094 13.69091797 C-8.02905762 11.99733154 -8.02905762 11.99733154 -8.00390625 10.26953125 C-8.00205322 9.25479736 -8.0002002 8.24006348 -7.99829102 7.19458008 C-7.10457175 2.36166508 -4.7221237 0.6745891 0 0 Z " fill="#FE75A8" transform="translate(234.5,90.5)"/>
</svg>
