<?xml version="1.0" encoding="UTF-8"?>
<svg version="1.1" xmlns="http://www.w3.org/2000/svg" width="512" height="512">
<path d="M0 0 C2.50310706 0.9589714 3.79264842 2.13498698 5.68228531 4.03331852 C6.3777446 4.72465382 7.07320389 5.41598911 7.7897377 6.12827396 C8.91830688 7.27302189 8.91830688 7.27302189 10.06967545 8.44089603 C10.87005234 9.24083485 11.67042923 10.04077366 12.49505997 10.86495304 C15.14266303 13.51464854 17.77947777 16.17481713 20.41635513 18.83518314 C22.24844429 20.6728666 24.08119628 22.50988947 25.91458511 24.34627628 C30.24784289 28.68982383 34.57435439 33.03998726 38.89767909 37.39341873 C43.82040854 42.34968229 48.75166105 47.29742822 53.68364954 52.24447548 C63.82802389 62.42020604 73.96164529 72.60659416 84.08823013 82.80002689 C87.11805251 81.37172202 90.14680806 79.94116848 93.17538834 78.51023197 C94.02625267 78.10915478 94.877117 77.70807758 95.75376511 77.29484653 C102.34698459 74.17769985 108.83430951 70.90852441 115.27573013 67.48752689 C117.16472373 66.49080877 119.05404033 65.49470252 120.94369888 64.49924564 C121.74444839 64.07474125 122.54519791 63.65023685 123.37021255 63.21286869 C124.26715836 62.7466309 125.16410416 62.2803931 126.08823013 61.80002689 C126.87848083 61.28301716 126.87848083 61.28301716 127.6846962 60.75556278 C134.266523 56.79684425 140.9455689 57.29185691 148.43198013 57.40940189 C149.81059315 57.41687534 151.18921689 57.42256305 152.56784439 57.42655277 C156.17166579 57.4417227 159.77482785 57.48092721 163.37839127 57.52536869 C167.06543273 57.56651007 170.75258538 57.58482397 174.43979263 57.60471439 C181.65651807 57.6453034 188.87144021 57.72361382 196.08823013 57.80002689 C196.08823013 68.03002689 196.08823013 78.26002689 196.08823013 88.80002689 C192.46854263 88.73299564 188.84885513 88.66596439 185.11948013 88.59690189 C181.52460289 88.57276734 177.93025056 88.5695053 174.33530045 88.5680933 C171.88002192 88.55625524 169.42473481 88.52349104 166.97006607 88.46750736 C147.68493177 88.04895203 134.57397354 91.92557973 118.08823013 101.80002689 C115.09878169 103.48595108 112.09527519 105.14572494 109.08823013 106.80002689 C114.75397063 113.72813413 121.11856653 119.94206832 127.46323013 126.23752689 C128.59236968 127.36164156 129.72127791 128.48598863 130.84994888 129.61057377 C133.59338201 132.34307924 136.33992998 135.07241698 139.08823013 137.80002689 C139.6135231 137.40315678 140.13881607 137.00628666 140.68002701 136.59739017 C157.99955389 123.55208079 174.24490084 115.57578224 196.71323013 118.42502689 C210.68361758 121.03807002 223.26899232 127.41565309 233.08823013 137.80002689 C236.40225608 136.32377897 238.84493362 134.40926189 241.58823013 132.05002689 C254.81823014 121.32983571 269.98186052 117.05380502 286.86166763 118.01487064 C304.60489018 119.93552875 315.91460977 127.27310907 329.08823013 138.80002689 C345.91823013 121.97002689 362.74823013 105.14002689 380.08823013 87.80002689 C375.97345637 82.9994575 372.14889325 78.87145523 367.52963638 74.69455814 C366.08823013 72.80002689 366.08823013 72.80002689 366.24765396 70.94822025 C367.35091384 68.12870714 368.92495487 66.64126183 371.09604263 64.53440189 C371.91846451 63.72615971 372.74088638 62.91791752 373.58823013 62.08518314 C374.45448013 61.24858158 375.32073013 60.41198002 376.21323013 59.55002689 C377.90577024 57.90148248 379.59590881 56.25046857 381.28354263 54.59690189 C382.03651627 53.86825932 382.7894899 53.13961674 383.56528091 52.38889408 C385.59451371 50.30664281 387.50297477 48.19762864 389.4029274 46.00071049 C393.06943735 41.77479792 396.92407605 37.76887145 400.85776138 33.79221439 C401.57880554 33.06309849 402.2998497 32.33398258 403.04274368 31.58277225 C404.55814792 30.05363769 406.07503931 28.5259756 407.59335709 26.99973392 C409.13073713 25.45080442 410.66363272 23.89741089 412.1919899 22.33957767 C414.42486685 20.06377462 416.67093994 17.80175256 418.92026138 15.54221439 C419.59039764 14.85457005 420.26053391 14.1669257 420.95097733 13.45844364 C429.8179052 4.63097807 439.24565692 -0.60137263 451.83823013 -0.57497311 C452.63519302 -0.57336178 453.43215591 -0.57175045 454.2532692 -0.57009029 C460.53502038 -0.43959363 465.58735617 0.63948499 471.08823013 3.80002689 C472.66604263 4.69721439 472.66604263 4.69721439 474.27573013 5.61252689 C482.00017041 11.62042489 488.33671663 18.82170755 490.08823013 28.80002689 C491.10071503 44.61802858 488.64860249 54.62709668 478.08823013 66.80002689 C473.84926244 71.40799533 469.42686178 75.84008468 465.01401138 80.28049564 C464.0910933 81.21189586 464.0910933 81.21189586 463.14953041 82.16211224 C459.9071462 85.43422077 456.6592597 88.70074106 453.40634537 91.96238041 C450.05027319 95.32951926 446.71322757 98.71489434 443.3800211 102.10464859 C440.80528351 104.71653703 438.21732131 107.31500585 435.62548256 109.90991497 C434.38810713 111.15334576 433.15573831 112.40177962 431.92852592 113.65524197 C430.2199026 115.39784574 428.49349981 117.12067098 426.76132584 118.83982182 C426.0076548 119.6211372 426.0076548 119.6211372 425.23875809 120.41823673 C423.79961014 121.82363224 423.79961014 121.82363224 421.08823013 123.80002689 C417.39808036 123.6470077 415.50190815 122.71540505 412.97494888 120.07737064 C412.44965591 119.53918705 411.92436295 119.00100346 411.38315201 118.44651127 C410.58747818 117.600564 410.58747818 117.600564 409.77573013 116.73752689 C409.22594498 116.16969486 408.67615982 115.60186283 408.10971451 115.01682377 C406.75995649 113.62011764 405.42281489 112.21123852 404.08823013 110.80002689 C400.19427898 112.38402278 397.57670778 115.04199632 394.67709732 117.98410892 C394.1498204 118.51109379 393.62254349 119.03807865 393.07928848 119.58103275 C391.34310941 121.31860165 389.61411613 123.06314004 387.88510513 124.80783939 C386.68056577 126.01611012 385.47558316 127.22393911 384.27017593 128.43134403 C381.10274907 131.60639766 377.941375 134.78741211 374.7812233 137.96970463 C371.55385925 141.21754765 368.32080785 144.45971822 365.08823013 147.70237064 C358.7493171 154.06271671 352.41678389 160.42937442 346.08823013 166.80002689 C347.12431915 167.27610889 348.16040817 167.7521909 349.22789383 168.24269962 C350.59750152 168.87584402 351.96704035 169.50913739 353.33652115 170.14255619 C354.0182061 170.45531246 354.69989105 170.76806873 355.40223312 171.09030247 C369.32491537 177.54428646 379.37376362 187.61611957 386.02573013 201.42502689 C386.32076431 202.03435062 386.61579849 202.64367435 386.9197731 203.27146244 C388.97908908 207.8317264 389.6588489 211.87573069 390.08823013 216.80002689 C391.34635513 217.13002689 392.60448013 217.46002689 393.90073013 217.80002689 C407.7898644 222.46607828 418.77245545 234.52184496 425.35776138 247.22580814 C432.93299505 262.87217113 433.85914771 281.41696618 428.24448013 297.96018314 C426.71637645 301.71332968 425.06876818 305.26335182 423.08823013 308.80002689 C423.63350357 309.20092533 424.17877701 309.60182377 424.74057388 310.01487064 C443.54455367 324.19017848 455.07569399 342.74707003 458.61948013 366.03440189 C460.52811728 381.36712027 458.08192837 396.98460661 451.08823013 410.80002689 C450.59580826 411.78358158 450.10338638 412.76713627 449.59604263 413.78049564 C445.19297635 421.92300817 439.57821189 428.30058453 433.08823013 434.80002689 C432.43080826 435.46905033 431.77338638 436.13807377 431.09604263 436.82737064 C417.34756972 449.83826453 397.48407063 456.83733155 378.77573013 456.92502689 C377.55885513 456.88377689 376.34198013 456.84252689 375.08823013 456.80002689 C374.99283951 457.64307377 374.89744888 458.48612064 374.79916763 459.35471439 C372.28347268 471.54615917 363.7450391 481.35527233 355.08823013 489.80002689 C353.99381607 490.90797611 353.99381607 490.90797611 352.87729263 492.03830814 C336.38735654 507.82328414 315.60587525 512.34946582 293.47885513 512.06955814 C270.39391999 511.38242591 252.84082952 499.72030259 236.92416763 483.90158939 C235.08823013 481.80002689 235.08823013 481.80002689 235.08823013 479.80002689 C234.42823013 479.80002689 233.76823013 479.80002689 233.08823013 479.80002689 C232.86780045 480.34143314 232.64737076 480.88283939 232.42026138 481.44065189 C224.12817295 496.12810471 206.49607954 504.82770961 191.08823013 509.80002689 C168.93740891 515.6310848 146.53802932 512.00830854 126.84653091 500.85569096 C122.53094348 498.26466068 118.78348152 495.19990955 115.08823013 491.80002689 C114.24776138 491.05108158 113.40729263 490.30213627 112.54135513 489.53049564 C103.93978854 481.46326879 96.80480752 471.09646606 93.08823013 459.80002689 C93.08823013 458.81002689 93.08823013 457.82002689 93.08823013 456.80002689 C92.55198013 456.83483158 92.01573013 456.86963627 91.46323013 456.90549564 C70.13280134 457.64223743 51.089593 449.00093472 35.15463638 435.27268314 C18.5075822 419.54918259 9.45653143 398.56307084 8.71323013 375.73752689 C9.43842827 352.72036865 18.89604768 332.8762195 35.08823013 316.80002689 C37.19602498 314.84571226 39.32442227 312.94774157 41.52963638 311.10471439 C43.21016082 309.73698291 43.21016082 309.73698291 45.08823013 307.80002689 C44.76209732 307.20576908 44.43596451 306.61151127 44.09994888 305.99924564 C35.7796822 290.21773687 34.08897564 273.57177875 39.09213638 256.34299564 C45.31338908 239.0343619 56.67276607 226.04003048 73.08823013 217.80002689 C75.97494888 217.08518314 75.97494888 217.08518314 78.08823013 216.80002689 C78.15010513 215.70690189 78.21198013 214.61377689 78.27573013 213.48752689 C79.4452712 204.29363465 84.68976556 196.12851248 90.08823013 188.80002689 C90.50330826 188.20705814 90.91838638 187.61408939 91.34604263 187.00315189 C97.52204678 178.94106264 106.75834026 173.79763555 115.83212662 169.65573978 C117.00347656 169.11969624 118.17482651 168.58365269 119.38167191 168.03136539 C120.72141823 167.42185284 120.72141823 167.42185284 122.08823013 166.80002689 C121.34517089 166.06157661 120.60211164 165.32312634 119.83653545 164.56229877 C101.77999836 146.61662266 83.73778475 128.65664514 65.7106123 110.68146992 C56.99257018 101.98923983 48.26988633 93.30176403 39.53622818 84.62522221 C31.92645025 77.06518713 24.32541998 69.4964859 16.73488718 61.91712642 C12.71321206 57.90198542 8.68721069 53.89140387 4.65071297 49.89116001 C0.85531561 46.12957768 -2.92831747 42.35656141 -6.70306969 38.57426548 C-8.09396993 37.18474626 -9.48919382 35.79954019 -10.88891602 34.41890812 C-12.79270676 32.53982728 -14.68063435 30.64614672 -16.56522751 28.74784184 C-17.1284369 28.19919665 -17.6916463 27.65055146 -18.27192265 27.08528066 C-19.78591633 25.54111958 -19.78591633 25.54111958 -21.91176987 22.80002689 C-21.77343688 17.04728266 -15.38878315 12.76593537 -11.59926987 8.98752689 C-10.73108627 8.09098392 -9.86290268 7.19444096 -8.96841049 6.27073002 C-8.12858627 5.42832767 -7.28876205 4.58592533 -6.42348862 3.71799564 C-5.65480453 2.94222172 -4.88612045 2.16644779 -4.09414291 1.36716557 C-1.91176987 -0.19997311 -1.91176987 -0.19997311 0 0 Z " fill="#FE3377" transform="translate(21.91176986694336,0.19997310638427734)"/>
<path d="M0 0 C2.50310706 0.9589714 3.79264842 2.13498698 5.68228531 4.03331852 C6.3777446 4.72465382 7.07320389 5.41598911 7.7897377 6.12827396 C8.91830688 7.27302189 8.91830688 7.27302189 10.06967545 8.44089603 C10.87005234 9.24083485 11.67042923 10.04077366 12.49505997 10.86495304 C15.14266303 13.51464854 17.77947777 16.17481713 20.41635513 18.83518314 C22.24844429 20.6728666 24.08119628 22.50988947 25.91458511 24.34627628 C30.24784289 28.68982383 34.57435439 33.03998726 38.89767909 37.39341873 C43.82040854 42.34968229 48.75166105 47.29742822 53.68364954 52.24447548 C63.82802389 62.42020604 73.96164529 72.60659416 84.08823013 82.80002689 C87.11805251 81.37172202 90.14680806 79.94116848 93.17538834 78.51023197 C94.02625267 78.10915478 94.877117 77.70807758 95.75376511 77.29484653 C102.34698459 74.17769985 108.83430951 70.90852441 115.27573013 67.48752689 C117.16472373 66.49080877 119.05404033 65.49470252 120.94369888 64.49924564 C121.74444839 64.07474125 122.54519791 63.65023685 123.37021255 63.21286869 C124.26715836 62.7466309 125.16410416 62.2803931 126.08823013 61.80002689 C126.87848083 61.28301716 126.87848083 61.28301716 127.6846962 60.75556278 C134.266523 56.79684425 140.9455689 57.29185691 148.43198013 57.40940189 C149.81059315 57.41687534 151.18921689 57.42256305 152.56784439 57.42655277 C156.17166579 57.4417227 159.77482785 57.48092721 163.37839127 57.52536869 C167.06543273 57.56651007 170.75258538 57.58482397 174.43979263 57.60471439 C181.65651807 57.6453034 188.87144021 57.72361382 196.08823013 57.80002689 C196.08823013 68.03002689 196.08823013 78.26002689 196.08823013 88.80002689 C192.46854263 88.73299564 188.84885513 88.66596439 185.11948013 88.59690189 C181.52460289 88.57276734 177.93025056 88.5695053 174.33530045 88.5680933 C171.88002192 88.55625524 169.42473481 88.52349104 166.97006607 88.46750736 C147.68493177 88.04895203 134.57397354 91.92557973 118.08823013 101.80002689 C115.09878169 103.48595108 112.09527519 105.14572494 109.08823013 106.80002689 C114.75397063 113.72813413 121.11856653 119.94206832 127.46323013 126.23752689 C128.59236968 127.36164156 129.72127791 128.48598863 130.84994888 129.61057377 C133.59338201 132.34307924 136.33992998 135.07241698 139.08823013 137.80002689 C139.6135231 137.40315678 140.13881607 137.00628666 140.68002701 136.59739017 C157.99955389 123.55208079 174.24490084 115.57578224 196.71323013 118.42502689 C209.19370192 120.75939387 219.2360148 125.9825082 229.08823013 133.80002689 C229.95915424 134.39378211 230.83007835 134.98753733 231.7273941 135.59928513 C235.5235137 140.74593589 234.78328712 146.06171791 234.7366066 152.29314518 C234.74380035 153.69832823 234.7531668 155.10350155 234.76451898 156.50865716 C234.78929749 160.37003474 234.78281518 164.23082574 234.77117157 168.09224212 C234.76398418 172.25668676 234.78548523 176.42099742 234.80322647 180.58539677 C234.83319602 188.74429898 234.83578897 196.90299073 234.8282133 205.06193606 C234.82239184 211.69363639 234.82557654 218.32527378 234.835186 224.95696926 C234.83720142 226.37208569 234.83720142 226.37208569 234.83925755 227.81579032 C234.84200075 229.73227382 234.84475324 231.6487573 234.8475149 233.56524076 C234.87212883 251.54488787 234.86450747 269.5244156 234.84694484 287.50406369 C234.83184627 303.95254884 234.85603089 320.40069893 234.89897725 336.8491262 C234.94273438 353.73626204 234.96061291 370.62324074 234.95020127 387.5104329 C234.94479406 396.99212741 234.9495391 406.47355292 234.98116684 415.95520306 C235.00778863 424.02811241 235.0098613 432.10057382 234.98030576 440.17348067 C234.96589194 444.29215857 234.96269302 448.41002791 234.98995972 452.52865887 C235.01463398 456.30118159 235.00684474 460.07220946 234.9734588 463.84465232 C234.96400718 465.8516789 234.98889998 467.85877707 235.01510978 469.86565477 C234.92953902 475.9019832 234.70304865 479.85682932 230.65705109 484.52653122 C229.4898237 485.64160366 228.30302219 486.73697159 227.08823013 487.80002689 C226.43596451 488.54252689 225.78369888 489.28502689 225.11166763 490.05002689 C212.57296196 503.36125946 193.32678316 511.43419214 175.17026138 512.13596439 C152.3035581 512.46859728 132.29997723 507.63600509 115.08823013 491.80002689 C114.24776138 491.05108158 113.40729263 490.30213627 112.54135513 489.53049564 C103.93978854 481.46326879 96.80480752 471.09646606 93.08823013 459.80002689 C93.08823013 458.81002689 93.08823013 457.82002689 93.08823013 456.80002689 C92.55198013 456.83483158 92.01573013 456.86963627 91.46323013 456.90549564 C70.13280134 457.64223743 51.089593 449.00093472 35.15463638 435.27268314 C18.5075822 419.54918259 9.45653143 398.56307084 8.71323013 375.73752689 C9.43842827 352.72036865 18.89604768 332.8762195 35.08823013 316.80002689 C37.19602498 314.84571226 39.32442227 312.94774157 41.52963638 311.10471439 C43.21016082 309.73698291 43.21016082 309.73698291 45.08823013 307.80002689 C44.76209732 307.20576908 44.43596451 306.61151127 44.09994888 305.99924564 C35.7796822 290.21773687 34.08897564 273.57177875 39.09213638 256.34299564 C45.31338908 239.0343619 56.67276607 226.04003048 73.08823013 217.80002689 C75.97494888 217.08518314 75.97494888 217.08518314 78.08823013 216.80002689 C78.15010513 215.70690189 78.21198013 214.61377689 78.27573013 213.48752689 C79.4452712 204.29363465 84.68976556 196.12851248 90.08823013 188.80002689 C90.50330826 188.20705814 90.91838638 187.61408939 91.34604263 187.00315189 C97.52204678 178.94106264 106.75834026 173.79763555 115.83212662 169.65573978 C117.00347656 169.11969624 118.17482651 168.58365269 119.38167191 168.03136539 C120.72141823 167.42185284 120.72141823 167.42185284 122.08823013 166.80002689 C121.34517089 166.06157661 120.60211164 165.32312634 119.83653545 164.56229877 C101.77999836 146.61662266 83.73778475 128.65664514 65.7106123 110.68146992 C56.99257018 101.98923983 48.26988633 93.30176403 39.53622818 84.62522221 C31.92645025 77.06518713 24.32541998 69.4964859 16.73488718 61.91712642 C12.71321206 57.90198542 8.68721069 53.89140387 4.65071297 49.89116001 C0.85531561 46.12957768 -2.92831747 42.35656141 -6.70306969 38.57426548 C-8.09396993 37.18474626 -9.48919382 35.79954019 -10.88891602 34.41890812 C-12.79270676 32.53982728 -14.68063435 30.64614672 -16.56522751 28.74784184 C-17.1284369 28.19919665 -17.6916463 27.65055146 -18.27192265 27.08528066 C-19.78591633 25.54111958 -19.78591633 25.54111958 -21.91176987 22.80002689 C-21.77343688 17.04728266 -15.38878315 12.76593537 -11.59926987 8.98752689 C-10.73108627 8.09098392 -9.86290268 7.19444096 -8.96841049 6.27073002 C-8.12858627 5.42832767 -7.28876205 4.58592533 -6.42348862 3.71799564 C-5.65480453 2.94222172 -4.88612045 2.16644779 -4.09414291 1.36716557 C-1.91176987 -0.19997311 -1.91176987 -0.19997311 0 0 Z " fill="#FE98BA" transform="translate(21.91176986694336,0.19997310638427734)"/>
<path d="M0 0 C5.75907067 3.19410642 10.24642007 6.41769873 13.5625 12.1875 C14.29533203 13.43853516 14.29533203 13.43853516 15.04296875 14.71484375 C15.70232422 15.96974609 15.70232422 15.96974609 16.375 17.25 C16.72695749 17.90827254 17.07891499 18.56654509 17.44153786 19.24476528 C18.84606456 23.76656882 18.65683272 28.16028929 18.64242554 32.86891174 C18.64695665 33.95094201 18.65148776 35.03297227 18.65615618 36.14779133 C18.66883514 39.78029274 18.66717752 43.41264489 18.66552734 47.04516602 C18.67151054 49.64709161 18.67831561 52.24901542 18.68588257 54.85093689 C18.70249058 61.19032895 18.7079921 67.52968381 18.70910732 73.86909581 C18.71005826 79.0252485 18.71417086 84.18138895 18.72050858 89.33753777 C18.73812346 103.96699784 18.74734751 118.59642859 18.74584763 133.22589935 C18.74576772 134.01446047 18.7456878 134.8030216 18.74560547 135.61547852 C18.74552371 136.40500681 18.74544195 137.19453511 18.74535771 138.00798851 C18.7445456 150.79040391 18.76366356 163.57270124 18.7918822 176.35508252 C18.82065056 189.4905713 18.8344202 202.6260026 18.83269465 215.76152366 C18.83203192 223.13171652 18.83747207 230.50178574 18.85905075 237.87195015 C18.87922999 244.80851418 18.87854842 251.7448137 18.86401749 258.68139076 C18.86192967 261.22258638 18.86662857 263.76379835 18.8787384 266.30496597 C18.89424053 269.78434866 18.88484871 273.26283843 18.86947632 276.74220276 C18.87976344 277.73883031 18.89005057 278.73545786 18.90064943 279.76228625 C18.76589697 293.64238074 12.7495844 306.24799375 3.3984375 316.375 C-5.64559822 324.75557364 -17.92643723 330.45241459 -30.3125 330.6875 C-32.41936713 330.58802322 -34.52473347 330.44407526 -36.625 330.25 C-37.56085938 330.16621094 -38.49671875 330.08242188 -39.4609375 329.99609375 C-51.9736078 328.29307988 -62.37900966 321.64688777 -70.625 312.25 C-79.52803947 300.10391657 -83.15233842 287.20643713 -81.23828125 272.22265625 C-80.61705381 268.52014072 -79.97407425 265.1073977 -78.5546875 261.62109375 C-77.4424823 259.20897685 -77.4424823 259.20897685 -77.625 256.25 C-81.41320084 254.24338316 -85.20611052 252.2458376 -89 250.25 C-90.08023438 249.67765625 -91.16046875 249.1053125 -92.2734375 248.515625 C-93.3046875 247.97421875 -94.3359375 247.4328125 -95.3984375 246.875 C-96.35153809 246.37226563 -97.30463867 245.86953125 -98.28662109 245.3515625 C-100.49574059 244.10794637 -100.49574059 244.10794637 -102.625 244.25 C-107.09778189 254.33936677 -109.58266026 263.30543274 -110.625 274.25 C-124.15130681 275.01564001 -134.66489346 269.63124933 -144.8125 261.0625 C-154.10559172 252.32378424 -159.83246953 241.45940471 -160.93359375 228.6640625 C-161.21357693 213.47909249 -157.50383059 200.51009902 -146.82421875 189.28125 C-135.78934187 179.08917899 -123.11790919 173.73822706 -108.1015625 173.9140625 C-102.33774549 174.4710156 -97.0399107 176.26482816 -91.625 178.25 C-91.56892578 179.59191406 -91.56892578 179.59191406 -91.51171875 180.9609375 C-90.64569766 196.88893327 -86.09374752 210.71339007 -74.625 222.25 C-73.49804669 221.12304669 -72.37145194 219.99573368 -71.24609375 218.8671875 C-70.0766988 217.70061036 -68.90148502 216.53985593 -67.72265625 215.3828125 C-63.45506541 211.17255973 -59.46307766 206.85569319 -55.625 202.25 C-56.77327292 199.18793888 -57.99457823 196.66302281 -59.75 193.875 C-62.84038932 187.74086874 -62.45739042 180.91642506 -61.625 174.25 C-60.48778465 170.98427982 -58.98331025 168.75757039 -56.625 166.25 C-56.10550781 165.68796875 -55.58601563 165.1259375 -55.05078125 164.546875 C-44.29843925 154.22061649 -30.77663191 157.25 -16.625 157.25 C-16.625 136.46 -16.625 115.67 -16.625 94.25 C-26.525 94.25 -36.425 94.25 -46.625 94.25 C-46.625 105.8 -46.625 117.35 -46.625 129.25 C-53.06 131.23 -53.06 131.23 -59.625 133.25 C-68.74799089 137.66435043 -75.63702426 142.9708586 -82.625 150.25 C-83.841875 149.79625 -85.05875 149.3425 -86.3125 148.875 C-99.54449674 144.56643316 -112.871964 145.00927095 -126.625 145.25 C-127.43352067 143.82043898 -128.23890514 142.38910391 -129.04296875 140.95703125 C-129.4918042 140.16014893 -129.94063965 139.3632666 -130.40307617 138.54223633 C-134.22592734 131.37085779 -135.18491364 122.52475952 -132.8671875 114.6875 C-131.90613506 112.44756675 -130.84237949 110.36040528 -129.625 108.25 C-129.026875 107.198125 -128.42875 106.14625 -127.8125 105.0625 C-120.81752738 96.06896377 -112.25008292 92.4203357 -101.203125 90.546875 C-98.65130355 90.25302889 -96.19113616 90.19461577 -93.625 90.25 C-93.6564209 89.41976318 -93.6564209 89.41976318 -93.68847656 88.57275391 C-94.12626539 75.25898617 -94.29441219 65.59975194 -85.5 54.9375 C-77.25414146 46.25477478 -67.36432002 43.55823132 -55.75683594 43.07617188 C-48.96408395 43.26628119 -45.36341999 45.29820174 -40.50268555 49.97485352 C-37.40089285 53.29161842 -34.42693273 56.67569396 -31.625 60.25 C-26.80084479 56.19748968 -22.13636494 52.02332391 -17.625 47.625 C-17.02816406 47.06554687 -16.43132812 46.50609375 -15.81640625 45.9296875 C-13.90924326 44.12003257 -13.90924326 44.12003257 -11.625 41.25 C-12.04603372 36.60367676 -15.45594964 34.04216118 -18.62890625 30.953125 C-19.22678452 30.35949158 -19.82466278 29.76585815 -20.44065857 29.15423584 C-22.34934102 27.26232805 -24.2681954 25.38112501 -26.1875 23.5 C-27.48440836 22.21813998 -28.78064078 20.9355957 -30.07617188 19.65234375 C-33.25132957 16.51023928 -36.43564946 13.37769461 -39.625 10.25 C-38.68448297 9.12192857 -37.73952591 7.99755804 -36.79272461 6.87475586 C-36.26698349 6.24822617 -35.74124237 5.62169647 -35.1995697 4.97618103 C-26.25913124 -4.8251096 -11.33486365 -5.45855842 0 0 Z " fill="#FE6699" transform="translate(222.625,151.75)"/>
<path d="M0 0 C2.37109375 2.3046875 2.37109375 2.3046875 3.37109375 5.3046875 C-3.55890625 12.2346875 -10.48890625 19.1646875 -17.62890625 26.3046875 C-19.93890625 24.3246875 -22.24890625 22.3446875 -24.62890625 20.3046875 C-27.26799008 18.65429544 -27.26799008 18.65429544 -29.81640625 17.4921875 C-30.63496094 17.09386719 -31.45351563 16.69554687 -32.296875 16.28515625 C-39.06457072 13.43977664 -47.16095144 13.07214824 -54.234375 15.0234375 C-56.47888005 15.98150506 -58.53286826 17.05694779 -60.62890625 18.3046875 C-61.25410156 18.64371094 -61.87929688 18.98273438 -62.5234375 19.33203125 C-67.99475553 22.68157453 -70.78897902 27.6775871 -73.62890625 33.3046875 C-73.97955234 33.96380095 -74.33019842 34.62291441 -74.69147015 35.302001 C-76.09597748 39.80075585 -75.90723555 44.16123935 -75.88960266 48.84767151 C-75.89342821 49.92153467 -75.89725376 50.99539782 -75.90119523 52.10180229 C-75.9115287 55.70667099 -75.90753229 59.3113805 -75.90356445 62.91625977 C-75.90791087 65.49848071 -75.91309378 68.08070036 -75.91905212 70.66291809 C-75.93180425 76.9541881 -75.93359198 83.24541544 -75.93125186 89.5366962 C-75.92946822 94.65375605 -75.93121935 99.77080295 -75.9354763 104.88786125 C-75.93607149 105.61641449 -75.93666668 106.34496774 -75.93727991 107.09559835 C-75.93849169 108.57576991 -75.93970582 110.05594146 -75.94092228 111.53611302 C-75.95180092 125.42076927 -75.94963448 139.30540125 -75.94353744 153.19005888 C-75.93837451 165.87545637 -75.94960661 178.56077693 -75.96863566 191.2461592 C-75.9880401 204.28220576 -75.99626508 217.31821598 -75.9925124 230.35427707 C-75.99060347 237.66855361 -75.99305729 244.98276477 -76.00722694 252.2970295 C-76.02042818 259.1810321 -76.01784522 266.06487889 -76.00481606 272.94888115 C-76.00245394 275.47072273 -76.00517181 277.99257516 -76.01343918 280.5144043 C-76.02393951 283.96738542 -76.01577895 287.41985479 -76.00312805 290.87281799 C-76.01050234 291.86166365 -76.01787662 292.8505093 -76.02547437 293.86931998 C-75.91701589 308.02272473 -71.39689357 321.02220879 -61.6640625 331.4609375 C-50.33142272 341.7277436 -36.63655301 346.02817109 -21.62890625 345.3046875 C-8.85801634 343.84039098 3.42974206 337.76390167 11.671875 327.7734375 C20.76503483 314.56222597 24.2009858 301.29599625 21.49609375 285.3671875 C20.97200938 282.60950545 20.37424187 280.31181963 19.23828125 277.73828125 C18.23130929 274.91240949 18.20789261 274.03605127 19.37109375 271.3046875 C21.54833984 269.7331543 21.54833984 269.7331543 24.39453125 268.25390625 C25.41546875 267.72087891 26.43640625 267.18785156 27.48828125 266.63867188 C29.10089844 265.82366211 29.10089844 265.82366211 30.74609375 264.9921875 C31.8134375 264.42951172 32.88078125 263.86683594 33.98046875 263.28710938 C39.8929859 260.24521611 39.8929859 260.24521611 42.37109375 259.3046875 C45.37109375 260.3046875 45.37109375 260.3046875 46.6875 262.7109375 C50.51295157 272.20861038 52.69653242 280.05336926 52.37109375 290.3046875 C68.44171727 288.36463025 81.292028 283.02151418 91.8046875 270.484375 C94.53233278 266.68879877 96.50923604 262.57928965 98.37109375 258.3046875 C98.72558594 257.50417969 99.08007812 256.70367187 99.4453125 255.87890625 C103.66211635 244.15370062 102.20710217 230.5552234 97.37109375 219.3046875 C90.5297731 205.65833968 80.33248443 198.14724143 66.1953125 193.19140625 C61.3533669 192.06870793 56.82240167 192.01266791 51.87109375 192.0546875 C50.95972656 192.04695312 50.04835938 192.03921875 49.109375 192.03125 C43.80632464 192.04655462 39.38711584 192.56837216 34.37109375 194.3046875 C34.35691406 195.14128906 34.34273438 195.97789062 34.328125 196.83984375 C33.76884455 210.48930989 30.18609216 223.55641982 21.37109375 234.3046875 C19.42984044 236.0641573 17.42892724 237.67810182 15.37109375 239.3046875 C8.97666113 232.35779471 2.61421063 225.38856798 -3.62890625 218.3046875 C-2.46360201 215.22870423 -1.27287524 212.73922648 0.49609375 209.9296875 C3.58510934 203.79828297 3.20949362 196.96814385 2.37109375 190.3046875 C0.34501118 184.63165631 -3.64465584 180.59617362 -8.62890625 177.3046875 C-20.56563367 173.27772964 -20.56563367 173.27772964 -41.62890625 173.3046875 C-41.62890625 152.5146875 -41.62890625 131.7246875 -41.62890625 110.3046875 C-31.72890625 110.3046875 -21.82890625 110.3046875 -11.62890625 110.3046875 C-11.62890625 121.8546875 -11.62890625 133.4046875 -11.62890625 145.3046875 C-8.98890625 145.6346875 -6.34890625 145.9646875 -3.62890625 146.3046875 C-1.37890625 147.04150391 -1.37890625 147.04150391 0.37109375 147.90625 C1.35505127 148.38928589 1.35505127 148.38928589 2.35888672 148.88208008 C3.3549292 149.40064575 3.3549292 149.40064575 4.37109375 149.9296875 C5.41547607 150.46275513 5.41547607 150.46275513 6.48095703 151.0065918 C12.90462951 154.39139042 18.30410184 158.20419963 22.37109375 164.3046875 C26.92945661 163.71336335 31.29072587 162.85872643 35.74609375 161.7421875 C46.58847807 159.36751999 57.42828425 159.78689289 68.37109375 161.3046875 C68.63921875 160.6240625 68.90734375 159.9434375 69.18359375 159.2421875 C70.05813668 157.07884445 70.98237054 154.93542748 71.93359375 152.8046875 C75.06427524 145.18215865 75.97909909 136.35761938 72.74609375 128.6171875 C67.80707789 118.9636565 61.69444309 112.9105898 51.37109375 109.3046875 C48.61606414 108.66866599 45.843231 108.16743451 43.05859375 107.6796875 C42.31802734 107.545625 41.57746094 107.4115625 40.81445312 107.2734375 C39.00084331 106.94581766 37.18607851 106.62460256 35.37109375 106.3046875 C35.36174805 105.75119629 35.35240234 105.19770508 35.34277344 104.62744141 C35.04467276 90.58456168 34.63016248 79.85481174 24.515625 69.21484375 C17.36492075 62.84563723 8.25357707 61.08898228 -1.06640625 60.6796875 C-1.79794922 60.64101562 -2.52949219 60.60234375 -3.28320312 60.5625 C-5.06474157 60.46934766 -6.84678747 60.38598464 -8.62890625 60.3046875 C-3.40612106 54.07718741 2.06547913 48.11476733 7.68359375 42.2421875 C8.13436279 41.7469458 8.58513184 41.2517041 9.04956055 40.74145508 C16.5724485 32.49399067 16.5724485 32.49399067 20.85546875 32.04321289 C23.24201751 32.53139315 25.18289231 33.2441949 27.37109375 34.3046875 C28.32757813 34.69785156 29.2840625 35.09101563 30.26953125 35.49609375 C46.25448024 44.34580526 57.00353813 56.04350884 63.37109375 73.3046875 C63.99683256 76.06456863 64.25983738 78.46765002 64.37109375 81.3046875 C65.62921875 81.6346875 66.88734375 81.9646875 68.18359375 82.3046875 C82.07272801 86.97073889 93.05531906 99.02650557 99.640625 111.73046875 C107.21585867 127.37683174 108.14201133 145.92162678 102.52734375 162.46484375 C100.99924007 166.21799029 99.35163179 169.76801242 97.37109375 173.3046875 C97.91636719 173.70558594 98.46164062 174.10648438 99.0234375 174.51953125 C117.82741729 188.69483909 129.35855761 207.25173063 132.90234375 230.5390625 C134.81098089 245.87178088 132.36479199 261.48926721 125.37109375 275.3046875 C124.63246094 276.78001953 124.63246094 276.78001953 123.87890625 278.28515625 C119.47583997 286.42766878 113.8610755 292.80524513 107.37109375 299.3046875 C106.71367187 299.97371094 106.05625 300.64273437 105.37890625 301.33203125 C91.63043334 314.34292514 71.76693425 321.34199215 53.05859375 321.4296875 C51.84171875 321.3884375 50.62484375 321.3471875 49.37109375 321.3046875 C49.27570313 322.14773438 49.1803125 322.99078125 49.08203125 323.859375 C46.5663363 336.05081978 38.02790271 345.85993293 29.37109375 354.3046875 C28.27667969 355.41263672 28.27667969 355.41263672 27.16015625 356.54296875 C10.67022016 372.32794475 -10.11126114 376.85412643 -32.23828125 376.57421875 C-55.25178058 375.88921283 -72.91921494 364.30540604 -88.6953125 348.40625 C-91.74364603 345.09311173 -91.758724 343.17934189 -91.78268051 338.76100159 C-91.79145525 337.57534859 -91.80022998 336.38969559 -91.80927062 335.16811371 C-91.8138611 333.85394722 -91.81845157 332.53978073 -91.82318115 331.18579102 C-91.83148747 329.7846325 -91.84020116 328.38347635 -91.84928918 326.98232269 C-91.87296661 323.11822567 -91.8901827 319.25412256 -91.90622139 315.38998723 C-91.92073993 312.07888263 -91.93891825 308.76780199 -91.9570528 305.45671552 C-92.12821472 274.06342642 -92.2126884 242.66957015 -92.28097153 211.27590942 C-92.29002025 207.18800826 -92.29922986 203.10010749 -92.30859375 199.01220703 C-92.31091366 197.9961615 -92.31323358 196.98011597 -92.31562379 195.93328118 C-92.35438476 179.47938173 -92.43491197 163.0259495 -92.53172252 146.57230031 C-92.63027303 129.68303624 -92.68714955 112.79401462 -92.70455003 95.90446949 C-92.71545462 86.42015533 -92.74520379 76.93669346 -92.82250214 67.45266724 C-92.88832683 59.3738044 -92.91693211 51.29590165 -92.8969346 43.21677607 C-92.88790949 39.09532594 -92.89662543 34.97595197 -92.95362473 30.85484123 C-93.00546752 27.07717205 -93.00596712 23.3030092 -92.96658137 19.52522171 C-92.95875104 17.52035676 -93.00497712 15.5155024 -93.05346274 13.51120853 C-92.93694249 7.26811507 -92.4014532 3.3958052 -87.78577711 -1.10837412 C-61.78630919 -23.93996568 -25.62256781 -21.91856025 0 0 Z " fill="#FE6598" transform="translate(347.62890625,135.6953125)"/>
<path d="M0 0 C2.50310706 0.9589714 3.79264842 2.13498698 5.68228531 4.03331852 C6.3777446 4.72465382 7.07320389 5.41598911 7.7897377 6.12827396 C8.91830688 7.27302189 8.91830688 7.27302189 10.06967545 8.44089603 C10.87005234 9.24083485 11.67042923 10.04077366 12.49505997 10.86495304 C15.14266303 13.51464854 17.77947777 16.17481713 20.41635513 18.83518314 C22.24844429 20.6728666 24.08119628 22.50988947 25.91458511 24.34627628 C30.24784289 28.68982383 34.57435439 33.03998726 38.89767909 37.39341873 C43.82040854 42.34968229 48.75166105 47.29742822 53.68364954 52.24447548 C63.82802389 62.42020604 73.96164529 72.60659416 84.08823013 82.80002689 C87.11805251 81.37172202 90.14680806 79.94116848 93.17538834 78.51023197 C94.02625267 78.10915478 94.877117 77.70807758 95.75376511 77.29484653 C102.34698459 74.17769985 108.83430951 70.90852441 115.27573013 67.48752689 C117.16472373 66.49080877 119.05404033 65.49470252 120.94369888 64.49924564 C121.74444839 64.07474125 122.54519791 63.65023685 123.37021255 63.21286869 C124.26715836 62.7466309 125.16410416 62.2803931 126.08823013 61.80002689 C126.87848083 61.28301716 126.87848083 61.28301716 127.6846962 60.75556278 C134.266523 56.79684425 140.9455689 57.29185691 148.43198013 57.40940189 C149.81059315 57.41687534 151.18921689 57.42256305 152.56784439 57.42655277 C156.17166579 57.4417227 159.77482785 57.48092721 163.37839127 57.52536869 C167.06543273 57.56651007 170.75258538 57.58482397 174.43979263 57.60471439 C181.65651807 57.6453034 188.87144021 57.72361382 196.08823013 57.80002689 C196.08823013 68.03002689 196.08823013 78.26002689 196.08823013 88.80002689 C192.46854263 88.73299564 188.84885513 88.66596439 185.11948013 88.59690189 C181.52460289 88.57276734 177.93025056 88.5695053 174.33530045 88.5680933 C171.88002192 88.55625524 169.42473481 88.52349104 166.97006607 88.46750736 C147.68493177 88.04895203 134.57397354 91.92557973 118.08823013 101.80002689 C115.09878169 103.48595108 112.09527519 105.14572494 109.08823013 106.80002689 C115.25347898 114.35218585 122.28234582 121.05803991 129.20859146 127.89988041 C130.8568208 129.52980411 132.50186502 131.16289733 134.14682388 132.79612064 C134.63871704 133.27971546 135.1306102 133.76331028 135.63740921 134.26155949 C138.32460894 136.93029068 140.86254525 139.67076794 143.32675552 142.54734135 C147.69035264 147.58356321 152.44958317 152.19267292 157.21323013 156.84690189 C158.66053021 158.27212422 160.10601869 159.69916907 161.55153275 161.12620258 C165.08521414 164.61440708 168.62302755 168.09820069 172.17660904 171.56614017 C174.66578631 173.99607456 177.14270128 176.43792382 179.61185074 178.88819981 C181.00749363 180.2663934 182.41620574 181.63131145 183.82504654 182.99601078 C185.08260757 184.2481638 185.08260757 184.2481638 186.36557388 185.52561283 C187.11057144 186.25649113 187.855569 186.98736942 188.62314224 187.74039555 C190.08823013 189.80002689 190.08823013 189.80002689 189.93700027 191.92978764 C188.71633836 194.61947914 186.93953831 196.28351291 184.83432388 198.34690189 C183.98031998 199.19123783 183.12631607 200.03557377 182.24643326 200.90549564 C181.34860123 201.77819096 180.4507692 202.65088627 179.52573013 203.55002689 C178.62403091 204.43819096 177.7223317 205.32635502 176.79330826 206.24143314 C174.56485915 208.43451004 172.3297142 210.62028733 170.08823013 212.80002689 C164.54682236 208.18882487 159.44170903 203.27062898 154.37338638 198.14768314 C153.15152885 196.92014568 153.15152885 196.92014568 151.90498734 195.66780949 C148.44702573 192.19362022 144.99506012 188.71349582 141.54257584 185.23386478 C139.00910708 182.68221267 136.47256685 180.1336418 133.93588638 177.58518314 C133.16793243 176.80893085 132.39997849 176.03267857 131.6087532 175.23290348 C130.87116272 174.49200977 130.13357224 173.75111607 129.37363052 172.98777103 C128.73744293 172.34634663 128.10125534 171.70492222 127.44578934 171.04406071 C125.5619098 169.2508971 123.65245686 167.56745404 121.67563248 165.88147831 C115.2966007 160.32892667 109.39118701 154.27639989 103.40439224 148.3090601 C102.03232163 146.94490328 100.66007357 145.58092493 99.28766251 144.21711063 C94.80991893 139.7654004 90.3374611 135.30840011 85.86557388 130.85080814 C84.3227142 129.31331247 82.77984778 127.77582357 81.23697472 126.23834133 C74.82556912 119.84852093 68.41558567 113.45727958 62.00931835 107.06230736 C52.83432658 97.90360334 43.65091167 88.75353263 34.45571893 79.61510879 C27.98321632 73.18121176 21.52023771 66.73784721 15.06435972 60.28726929 C11.20911554 56.43568622 7.34976143 52.58843821 3.48021126 48.75122356 C-0.15124435 45.1496895 -3.77082142 41.53664031 -7.38142395 37.9142046 C-8.71105592 36.58435068 -10.045009 35.25880171 -11.38345909 33.9378233 C-13.20364537 32.14012173 -15.00792222 30.32785267 -16.80887985 28.51091862 C-17.34717755 27.98650301 -17.88547525 27.4620874 -18.44008499 26.92178041 C-19.88634968 25.44347954 -19.88634968 25.44347954 -21.91176987 22.80002689 C-21.73245072 17.02875681 -15.4052946 12.78239844 -11.59926987 8.98752689 C-10.73108627 8.09098392 -9.86290268 7.19444096 -8.96841049 6.27073002 C-8.12858627 5.42832767 -7.28876205 4.58592533 -6.42348862 3.71799564 C-5.65480453 2.94222172 -4.88612045 2.16644779 -4.09414291 1.36716557 C-1.91176987 -0.19997311 -1.91176987 -0.19997311 0 0 Z " fill="#E6F1F1" transform="translate(21.91176986694336,0.19997310638427734)"/>
<path d="M0 0 C0.79696289 0.00161133 1.59392578 0.00322266 2.41503906 0.00488281 C8.69679025 0.13537948 13.74912604 1.2144581 19.25 4.375 C20.301875 4.973125 21.35375 5.57125 22.4375 6.1875 C30.16194028 12.195398 36.4984865 19.39668065 38.25 29.375 C39.26248489 45.19300168 36.81037235 55.20206978 26.25 67.375 C22.01103231 71.98296844 17.58863164 76.41505779 13.17578125 80.85546875 C12.25286317 81.78686896 12.25286317 81.78686896 11.31130028 82.73708534 C8.06891607 86.00919388 4.82102957 89.27571417 1.56811523 92.53735352 C-1.78795694 95.90449236 -5.12500256 99.28986745 -8.45820904 102.6796217 C-11.03294662 105.29151013 -13.62090882 107.88997896 -16.21274757 110.48488808 C-17.450123 111.72831886 -18.68249183 112.97675273 -19.90970421 114.23021507 C-21.61832754 115.97281884 -23.34473032 117.69564409 -25.0769043 119.41479492 C-25.57935165 119.93567184 -26.08179901 120.45654877 -26.59947205 120.99320984 C-28.03862 122.39860535 -28.03862 122.39860535 -30.75 124.375 C-34.4042941 124.22061576 -36.31590047 123.31242697 -38.8359375 120.71484375 C-39.37017334 120.17287354 -39.90440918 119.63090332 -40.45483398 119.07250977 C-41.00598877 118.49170654 -41.55714355 117.91090332 -42.125 117.3125 C-42.70515869 116.71687256 -43.28531738 116.12124512 -43.88305664 115.50756836 C-47.30000197 111.97542892 -50.56508614 108.34383628 -53.75 104.6015625 C-60.6417628 96.92909219 -68.09688935 89.66508396 -75.92578125 82.95703125 C-78.09650693 81.07449613 -80.22032566 79.15724073 -82.3125 77.1875 C-82.99441406 76.55457031 -83.67632812 75.92164062 -84.37890625 75.26953125 C-85.75 73.375 -85.75 73.375 -85.58618164 71.52319336 C-84.48762047 68.70093357 -82.91377872 67.21672351 -80.7421875 65.109375 C-79.91976563 64.30113281 -79.09734375 63.49289063 -78.25 62.66015625 C-76.950625 61.40525391 -76.950625 61.40525391 -75.625 60.125 C-73.9324599 58.47645559 -72.24232132 56.82544168 -70.5546875 55.171875 C-69.80171387 54.44323242 -69.04874023 53.71458984 -68.27294922 52.96386719 C-66.24371642 50.88161592 -64.33525536 48.77260175 -62.43530273 46.57568359 C-58.76879279 42.34977103 -54.91415408 38.34384456 -50.98046875 34.3671875 C-50.25942459 33.63807159 -49.53838043 32.90895569 -48.79548645 32.15774536 C-47.28008221 30.6286108 -45.76319082 29.10094871 -44.24487305 27.57470703 C-42.70749301 26.02577753 -41.17459741 24.472384 -39.64624023 22.91455078 C-37.41336328 20.63874772 -35.16729019 18.37672566 -32.91796875 16.1171875 C-32.24783249 15.42954315 -31.57769623 14.7418988 -30.88725281 14.03341675 C-22.02032494 5.20595118 -12.59257322 -0.02639952 0 0 Z " fill="#7FBEFE" transform="translate(473.75,-0.375)"/>
<path d="M0 0 C3.76672156 3.18402088 7.49002591 6.36161906 10.96484375 9.8671875 C11.61904297 10.52460937 12.27324219 11.18203125 12.94726562 11.859375 C13.60404297 12.52453125 14.26082031 13.1896875 14.9375 13.875 C15.62134766 14.56335938 16.30519531 15.25171875 17.00976562 15.9609375 C18.67551464 17.63833511 20.3388622 19.31803791 22 21 C20.51619764 24.44469918 18.57149259 26.67558307 15.92514038 29.31536865 C15.07256149 30.17069687 14.2199826 31.02602509 13.34156799 31.90727234 C12.39495937 32.84680334 11.44825511 33.78623799 10.50146484 34.72558594 C9.50567898 35.7208075 8.51033361 36.71646998 7.51539612 37.71253967 C4.81551531 40.41299428 2.10951264 43.10723816 -0.59762621 45.80041409 C-3.42659877 48.61688388 -6.24990833 51.43901871 -9.07382202 54.26055908 C-14.42110945 59.60163041 -19.77347467 64.93758304 -25.12768018 70.27171826 C-31.22345189 76.34513503 -37.31354534 82.424232 -43.40316701 88.50381422 C-55.9291342 101.00887648 -68.46221915 113.5067829 -81 126 C-84.42482707 124.38223883 -86.65690522 122.57656756 -89.328125 119.8671875 C-90.12734375 119.06152344 -90.9265625 118.25585938 -91.75 117.42578125 C-92.575 116.58402344 -93.4 115.74226563 -94.25 114.875 C-95.09046875 114.02550781 -95.9309375 113.17601562 -96.796875 112.30078125 C-98.86915683 110.20495077 -100.93662393 108.10459287 -103 106 C-101.46374962 102.35048629 -99.27668889 100.04027316 -96.4777832 97.26660156 C-96.02056381 96.81069641 -95.56334442 96.35479126 -95.0922699 95.8850708 C-93.58298883 94.38226733 -92.06685442 92.88657335 -90.55078125 91.390625 C-89.49372679 90.33984839 -88.43719079 89.28855 -87.38114929 88.23675537 C-84.59822101 85.46712313 -81.80979129 82.70310252 -79.01971436 79.94067383 C-74.57128318 75.53534175 -70.12940906 71.12342729 -65.69099998 66.70800018 C-64.14980334 65.17690765 -62.60517189 63.64934709 -61.06013489 62.12213135 C-56.47172379 57.57276337 -52.03494985 52.96859882 -47.83192444 48.0602417 C-43.8393214 43.5700307 -39.512688 39.39190784 -35.25390625 35.15625 C-34.23235953 34.13657291 -33.21103674 33.11667144 -32.18992615 32.09655762 C-29.52733563 29.43774939 -26.86175401 26.78196042 -24.19549561 24.12683105 C-21.46507329 21.40671607 -18.73754926 18.68369815 -16.00976562 15.9609375 C-10.675978 10.63781137 -5.33902084 5.31787782 0 0 Z " fill="#203259" transform="translate(403,87)"/>
<path d="M0 0 C3.01953015 1.22659577 4.73388398 3.08825701 7.02772522 5.40020752 C7.49648071 5.86852493 7.96523621 6.33684235 8.44819641 6.8193512 C9.99201691 8.3652576 11.52494626 9.92150896 13.05799866 11.47808838 C14.1277976 12.55348397 15.1982619 13.62821804 16.2693634 14.70231628 C19.08392946 17.52832562 21.88936944 20.36322855 24.69300842 23.20007324 C27.55661394 26.09439065 30.42875226 28.98021289 33.30018616 31.86676025 C38.93097182 37.52970096 44.55214549 43.20206486 50.16737366 48.88043213 C48.50875486 52.40387857 46.60080057 54.67945091 43.81581116 57.42730713 C42.96502991 58.27164307 42.11424866 59.115979 41.23768616 59.98590088 C40.34823303 60.85859619 39.45877991 61.7312915 38.54237366 62.63043213 C37.64518616 63.51859619 36.74799866 64.40676025 35.82362366 65.32183838 C33.60930362 67.51260182 31.39044931 69.69855976 29.16737366 71.88043213 C25.53393807 70.34218266 23.17829458 68.1618763 20.38294983 65.40240479 C19.92234161 64.95012009 19.4617334 64.49783539 18.98716736 64.03184509 C17.47277555 62.54146796 15.96607758 61.04361405 14.46034241 59.54449463 C13.4099876 58.50310786 12.35955619 57.46179833 11.30905151 56.42056274 C9.11234678 54.24032392 6.92005283 52.05575065 4.7301178 49.86871338 C1.91938589 47.06338359 -0.90717132 44.27459212 -3.73788929 41.48945045 C-5.91068627 39.34633841 -8.07219993 37.19211723 -10.23070335 35.03461838 C-11.26847613 34.00105972 -12.31038267 32.97163487 -13.35640907 31.94643021 C-14.81438081 30.51520809 -16.25523858 29.06661425 -17.69517517 27.61724854 C-18.52028091 26.79721344 -19.34538666 25.97717834 -20.19549561 25.1322937 C-21.83262634 22.88043213 -21.83262634 22.88043213 -21.70335388 20.72276306 C-19.51724225 16.09727358 -15.09538718 12.63271602 -11.52012634 9.06793213 C-10.65194275 8.17138916 -9.78375916 7.27484619 -8.88926697 6.35113525 C-8.04944275 5.50873291 -7.20961853 4.66633057 -6.34434509 3.79840088 C-5.57566101 3.02262695 -4.80697693 2.24685303 -4.01499939 1.4475708 C-1.83262634 -0.11956787 -1.83262634 -0.11956787 0 0 Z " fill="#333E73" transform="translate(21.832626342773438,0.11956787109375)"/>
</svg>
