<?xml version="1.0" encoding="UTF-8"?>
<svg version="1.1" xmlns="http://www.w3.org/2000/svg" width="512" height="512">
<path d="M0 0 C1.45108658 0.00273422 1.45108658 0.00273422 2.93148804 0.00552368 C17.26440977 0.05095174 31.21023917 0.55983928 45.3125 3.3125 C46.65803955 3.55395752 46.65803955 3.55395752 48.03076172 3.80029297 C109.66150546 14.95231874 168.16034615 50.62552183 205.3125 101.3125 C205.73724609 101.88178223 206.16199219 102.45106445 206.59960938 103.03759766 C213.11651959 111.7802151 218.92287157 120.83657062 224.3125 130.3125 C224.67698242 130.94430176 225.04146484 131.57610352 225.41699219 132.22705078 C238.59268166 155.24671301 247.27606895 180.76595449 252.625 206.6875 C252.77243652 207.39817627 252.91987305 208.10885254 253.07177734 208.84106445 C256.05713787 224.48358366 256.6873098 240.11919606 256.625 256 C256.62226578 257.45108658 256.62226578 257.45108658 256.61947632 258.93148804 C256.57404826 273.26440977 256.06516072 287.21023917 253.3125 301.3125 C253.15152832 302.20952637 252.99055664 303.10655273 252.82470703 304.03076172 C242.00212011 363.84088904 207.94435543 421.35495829 159.3125 458.3125 C158.77222168 458.72918945 158.23194336 459.14587891 157.67529297 459.57519531 C147.6802884 467.2584873 137.22040964 474.00092968 126.3125 480.3125 C125.63525879 480.70679199 124.95801758 481.10108398 124.26025391 481.50732422 C86.85070239 503.02446876 44.04569533 512.78824631 1.1875 512.625 C0.19393494 512.62317719 -0.79963013 512.62135437 -1.82330322 512.61947632 C-16.317192 512.57469978 -30.42886097 512.11360213 -44.6875 509.3125 C-45.58307617 509.15152832 -46.47865234 508.99055664 -47.40136719 508.82470703 C-107.21340465 498.00365541 -164.72893264 463.94570506 -201.6875 415.3125 C-202.10418945 414.77222168 -202.52087891 414.23194336 -202.95019531 413.67529297 C-210.6334873 403.6802884 -217.37592968 393.22040964 -223.6875 382.3125 C-224.08179199 381.63525879 -224.47608398 380.95801758 -224.88232422 380.26025391 C-238.06461173 357.3416244 -246.67010918 331.76677437 -252 305.9375 C-252.14743652 305.22682373 -252.29487305 304.51614746 -252.44677734 303.78393555 C-255.43213787 288.14141634 -256.0623098 272.50580394 -256 256.625 C-255.99817719 255.65760895 -255.99635437 254.6902179 -255.99447632 253.69351196 C-255.94904826 239.36059023 -255.44016072 225.41476083 -252.6875 211.3125 C-252.44604248 209.96696045 -252.44604248 209.96696045 -252.19970703 208.59423828 C-241.37712011 148.78411096 -207.31935543 91.27004171 -158.6875 54.3125 C-158.14722168 53.89581055 -157.60694336 53.47912109 -157.05029297 53.04980469 C-147.0552884 45.3665127 -136.59540964 38.62407032 -125.6875 32.3125 C-125.01025879 31.91820801 -124.33301758 31.52391602 -123.63525391 31.11767578 C-100.7166244 17.93538827 -75.14177437 9.32989082 -49.3125 4 C-48.60182373 3.85256348 -47.89114746 3.70512695 -47.15893555 3.55322266 C-31.51641634 0.56786213 -15.88080394 -0.0623098 0 0 Z " fill="#FCD197" transform="translate(255.6875,-0.3125)"/>
<path d="M0 0 C1.30780426 -0.01727142 2.61560852 -0.03454285 3.96304321 -0.05233765 C5.41599864 -0.06634252 6.86895587 -0.08016067 8.32191467 -0.09381104 C9.84966849 -0.11153506 11.37741911 -0.12953705 12.90516663 -0.14779663 C26.86790614 -0.30695855 40.83162721 -0.39119963 54.79508114 -0.45779037 C65.1093359 -0.50797446 75.42199498 -0.59381558 85.73552603 -0.72641158 C92.99512899 -0.81658461 100.25429587 -0.86426663 107.51443392 -0.88136888 C111.84612055 -0.89280245 116.17576626 -0.92286712 120.50683403 -0.99932098 C124.58946152 -1.07061327 128.66905549 -1.08888566 132.75222015 -1.06820297 C134.24216661 -1.06962101 135.73224186 -1.08956799 137.22162819 -1.13044357 C144.487433 -1.31943912 150.24941931 -0.87694945 155.9049564 4.01854491 C158.30889324 6.3150385 160.53191599 8.72516077 162.75965881 11.1942749 C164.17691511 12.56654004 165.60275613 13.93012895 167.04481506 15.27630615 C175.35723034 23.42208859 182.89656435 31.79691443 189.75965881 41.1942749 C190.45261047 42.13593506 190.45261047 42.13593506 191.15956116 43.09661865 C199.17038271 54.0157227 199.17038271 54.0157227 201.75965881 59.1942749 C162.15965881 59.1942749 122.55965881 59.1942749 81.75965881 59.1942749 C82.08965881 61.8342749 82.41965881 64.4742749 82.75965881 67.1942749 C82.83900246 68.82499569 82.8873318 70.45786614 82.88905334 72.09051514 C82.89378159 73.39743568 82.89378159 73.39743568 82.89860535 74.73075867 C82.895569 76.10295311 82.895569 76.10295311 82.89247131 77.50286865 C82.89342804 78.46902603 82.89438477 79.43518341 82.89537048 80.43061829 C82.89604765 82.46357285 82.89422588 84.49652963 82.89002991 86.52947998 C82.88468099 89.61896691 82.88998773 92.7083081 82.89637756 95.79779053 C82.89571659 97.78281689 82.89443502 99.76784315 82.89247131 101.75286865 C82.89449554 102.66564072 82.89651978 103.57841278 82.89860535 104.5188446 C82.87829612 110.15277447 82.47400437 115.60471598 81.75965881 121.1942749 C82.14815002 120.64166992 82.53664124 120.08906494 82.93690491 119.51971436 C87.94909857 112.46253861 93.27445469 106.78298125 101.75965881 104.1942749 C111.46192032 102.67301439 120.16854784 106.54569675 128.13465881 111.8817749 C139.52354614 121.1677349 142.89967778 138.32528154 144.75965881 152.1942749 C145.18417772 157.27554444 145.19421138 162.35974256 145.15077209 167.45550537 C145.13466607 169.69326677 145.15073952 171.92922325 145.16981506 174.16693115 C145.18991801 188.05949599 144.02528242 205.55283863 135.65809631 217.0927124 C132.6006146 222.31062557 133.28965535 228.33217724 133.31767273 234.19918823 C133.34699018 248.05437389 132.12195728 260.96522721 127.75965881 274.1942749 C127.53648987 274.87151611 127.31332092 275.54875732 127.08338928 276.246521 C121.68081184 292.01418882 113.50077757 306.49721168 102.75965881 319.1942749 C101.94497131 320.16107178 101.13028381 321.12786865 100.29090881 322.1239624 C94.65480871 328.56267169 88.56826391 334.02368205 81.75965881 339.1942749 C80.99395569 339.78724365 80.22825256 340.3802124 79.43934631 340.9911499 C67.21246785 350.02660585 53.54003125 356.38655286 38.96864319 360.56097412 C37.54608942 360.9688106 36.12759474 361.39122897 34.71473694 361.83148193 C15.31469812 367.80764023 -9.7156054 367.69356035 -29.24034119 362.1942749 C-30.061474 361.96321045 -30.88260681 361.732146 -31.72862244 361.49407959 C-54.00757513 355.01100221 -72.47484531 344.24573773 -89.24034119 328.1942749 C-89.98670837 327.51107178 -90.73307556 326.82786865 -91.50205994 326.1239624 C-98.12271077 319.86149687 -103.21997454 312.75079228 -108.24034119 305.1942749 C-108.86940369 304.26099365 -109.49846619 303.3277124 -110.14659119 302.3661499 C-117.06813144 291.3546086 -122.44106663 278.2002748 -124.40318298 265.32415771 C-124.95388532 261.94736743 -125.68872382 259.25628309 -127.24034119 256.1942749 C-131.67593388 253.46266286 -136.14398998 252.22328987 -141.13291931 250.855896 C-149.98301907 248.07742399 -157.83670272 241.97923128 -165.11534119 236.3817749 C-166.03597351 235.67951782 -166.03597351 235.67951782 -166.97520447 234.96307373 C-168.4588351 233.78057181 -169.8584722 232.4942398 -171.24034119 231.1942749 C-171.24034119 226.99159535 -168.95321269 224.83422236 -166.42784119 221.6942749 C-165.92937683 221.07133545 -165.43091248 220.448396 -164.91734314 219.80657959 C-153.41120215 205.65241528 -138.83266433 192.33364398 -121.14268494 186.50286865 C-118.05773785 184.38077979 -116.93911062 181.0683668 -115.42784119 177.7567749 C-110.22848871 166.89973152 -103.99060396 157.41860726 -96.24034119 148.1942749 C-95.58291931 147.40150146 -94.92549744 146.60872803 -94.24815369 145.79193115 C-90.71526482 141.62136317 -90.71526482 141.62136317 -89.24034119 140.1942749 C-88.58034119 140.1942749 -87.92034119 140.1942749 -87.24034119 140.1942749 C-86.91034119 139.2042749 -86.58034119 138.2142749 -86.24034119 137.1942749 C-83.92639036 135.21088848 -81.62365982 133.37675706 -79.17784119 131.5692749 C-78.4619281 131.03802002 -77.74601501 130.50676514 -77.00840759 129.95941162 C-64.60394475 120.93477837 -49.59205874 111.55484514 -34.24034119 109.1942749 C-34.25033394 107.7839222 -34.25033394 107.7839222 -34.26052856 106.34507751 C-34.32158131 97.44527449 -34.36642915 88.54551445 -34.3957777 79.64554882 C-34.41137378 75.0709625 -34.43250014 70.49654646 -34.46665955 65.92205811 C-34.49947066 61.50000162 -34.51723966 57.07810801 -34.52497292 52.6559391 C-34.53047765 50.97639722 -34.5412261 49.29686334 -34.55753136 47.61739159 C-34.69774839 32.56378918 -33.2947429 20.69833088 -22.50987244 9.37786865 C-16.03723963 3.46807348 -8.76548918 0.10281769 0 0 Z " fill="#FEFEFE" transform="translate(271.24034118652344,59.80572509765625)"/>
<path d="M0 0 C15.54210538 -0.2103701 31.0841041 -0.36901111 46.62729836 -0.46630955 C53.84462743 -0.51269132 61.06107125 -0.57590621 68.27783203 -0.67895508 C74.56906553 -0.76874532 80.85965796 -0.82674287 87.15151441 -0.84679645 C90.48262623 -0.85851792 93.81147959 -0.89073218 97.14210892 -0.95157051 C100.8635892 -1.01684915 104.58126265 -1.02590467 108.30322266 -1.02172852 C109.40373962 -1.054086 110.50425659 -1.08644348 111.63812256 -1.11978149 C118.94645622 -1.03095703 118.94645622 -1.03095703 121.96839523 1.92619514 C123.52628196 4.22528681 124.78611453 6.50488706 126 9 C126.80047981 10.38936362 127.60669989 11.77545721 128.421875 13.15625 C141.08747852 36.41987704 149.96230726 61.44734019 155.3125 87.375 C155.45993652 88.08567627 155.60737305 88.79635254 155.75927734 89.52856445 C158.74463787 105.17108366 159.3748098 120.80669606 159.3125 136.6875 C159.31067719 137.65489105 159.30885437 138.6222821 159.30697632 139.61898804 C159.26154826 153.95190977 158.75266072 167.89773917 156 182 C155.83902832 182.89702637 155.67805664 183.79405273 155.51220703 184.71826172 C144.68962011 244.52838904 110.63185543 302.04245829 62 339 C61.45972168 339.41668945 60.91944336 339.83337891 60.36279297 340.26269531 C50.3677884 347.9459873 39.90790964 354.68842968 29 361 C28.32275879 361.39429199 27.64551758 361.78858398 26.94775391 362.19482422 C5.99547115 374.24611268 -26.18218759 390.60114919 -51 389 C-49.07849806 385.60861298 -47.14873013 382.24164813 -45.10546875 378.921875 C-37.31686729 366.04133653 -32.49383334 352.52242336 -29.375 337.8125 C-29.16681641 336.834021 -28.95863281 335.85554199 -28.74414062 334.84741211 C-27.54392563 328.82014198 -26.75911521 322.85469074 -26.21484375 316.7421875 C-24.01867147 293.92410894 -24.01867147 293.92410894 -18.03125 288.80078125 C-14.27994249 286.31501338 -10.3014892 284.54485195 -6.12011719 282.90771484 C-1.44669095 280.90681679 2.20922856 277.31005767 6 274 C7.12921875 273.06800781 7.12921875 273.06800781 8.28125 272.1171875 C14.31437838 267.01382205 19.20167801 261.26176585 24 255 C24.58394531 254.25492188 25.16789062 253.50984375 25.76953125 252.7421875 C35.03835357 240.28245913 41.84725466 225.91501283 46 211 C46.56847656 209.22689453 46.56847656 209.22689453 47.1484375 207.41796875 C49.24420083 200.36119771 50.12069111 193.59202525 50.2578125 186.2265625 C50.27841736 185.18141731 50.27841736 185.18141731 50.29943848 184.11515808 C50.35790362 180.59813302 50.3703246 177.08769914 50.32128906 173.57055664 C50.35142814 165.34811342 51.47231294 159.80882026 55.5390625 152.64672852 C57.50614061 149.08304306 58.46628106 145.57936908 59.3125 141.625 C59.54549805 140.63693359 59.54549805 140.63693359 59.78320312 139.62890625 C65.4655369 115.09488144 64.72725374 83.81336215 52.52734375 61.33984375 C48.46938331 55.1231729 44.59011283 52.18030321 38 49 C37.33613281 48.67644531 36.67226563 48.35289062 35.98828125 48.01953125 C29.86940923 45.37588066 23.78136517 44.7791108 17.38671875 46.84375 C9.06320549 50.58238418 3.54525488 56.6582238 0 65 C-0.33 65 -0.66 65 -1 65 C-0.8934182 63.92277679 -0.8934182 63.92277679 -0.78468323 62.8237915 C-0.08952805 55.27299818 0.13330536 47.81396717 0.09765625 40.234375 C0.0962413 39.07496399 0.09482635 37.91555298 0.09336853 36.7210083 C0.08782776 33.06397786 0.07528675 29.40701154 0.0625 25.75 C0.05747733 23.25130298 0.05291578 20.75260498 0.04882812 18.25390625 C0.03787782 12.16924942 0.02119996 6.0846293 0 0 Z " fill="#0F7986" transform="translate(353,119)"/>
<path d="M0 0 C1.30780426 -0.01727142 2.61560852 -0.03454285 3.96304321 -0.05233765 C5.41599864 -0.06634252 6.86895587 -0.08016067 8.32191467 -0.09381104 C9.84966849 -0.11153506 11.37741911 -0.12953705 12.90516663 -0.14779663 C26.86790614 -0.30695855 40.83162721 -0.39119963 54.79508114 -0.45779037 C65.1093359 -0.50797446 75.42199498 -0.59381558 85.73552603 -0.72641158 C92.99512899 -0.81658461 100.25429587 -0.86426663 107.51443392 -0.88136888 C111.84612055 -0.89280245 116.17576626 -0.92286712 120.50683403 -0.99932098 C124.58946152 -1.07061327 128.66905549 -1.08888566 132.75222015 -1.06820297 C134.24216661 -1.06962101 135.73224186 -1.08956799 137.22162819 -1.13044357 C144.487433 -1.31943912 150.24941931 -0.87694945 155.9049564 4.01854491 C158.30889324 6.3150385 160.53191599 8.72516077 162.75965881 11.1942749 C164.17691511 12.56654004 165.60275613 13.93012895 167.04481506 15.27630615 C175.35723034 23.42208859 182.89656435 31.79691443 189.75965881 41.1942749 C190.45261047 42.13593506 190.45261047 42.13593506 191.15956116 43.09661865 C199.17038271 54.0157227 199.17038271 54.0157227 201.75965881 59.1942749 C162.15965881 59.1942749 122.55965881 59.1942749 81.75965881 59.1942749 C82.08965881 61.8342749 82.41965881 64.4742749 82.75965881 67.1942749 C82.83900246 68.82499569 82.8873318 70.45786614 82.88905334 72.09051514 C82.89378159 73.39743568 82.89378159 73.39743568 82.89860535 74.73075867 C82.895569 76.10295311 82.895569 76.10295311 82.89247131 77.50286865 C82.89342804 78.46902603 82.89438477 79.43518341 82.89537048 80.43061829 C82.89604765 82.46357285 82.89422588 84.49652963 82.89002991 86.52947998 C82.88468099 89.61896691 82.88998773 92.7083081 82.89637756 95.79779053 C82.89571659 97.78281689 82.89443502 99.76784315 82.89247131 101.75286865 C82.89449554 102.66564072 82.89651978 103.57841278 82.89860535 104.5188446 C82.87829612 110.15277447 82.47400437 115.60471598 81.75965881 121.1942749 C82.14815002 120.64166992 82.53664124 120.08906494 82.93690491 119.51971436 C87.94909857 112.46253861 93.27445469 106.78298125 101.75965881 104.1942749 C111.46192032 102.67301439 120.16854784 106.54569675 128.13465881 111.8817749 C139.52354614 121.1677349 142.89967778 138.32528154 144.75965881 152.1942749 C145.18417772 157.27554444 145.19421138 162.35974256 145.15077209 167.45550537 C145.13466607 169.69326677 145.15073952 171.92922325 145.16981506 174.16693115 C145.18991801 188.05949599 144.02528242 205.55283863 135.65809631 217.0927124 C132.6006146 222.31062557 133.28965535 228.33217724 133.31767273 234.19918823 C133.34699018 248.05437389 132.12195728 260.96522721 127.75965881 274.1942749 C127.53648987 274.87151611 127.31332092 275.54875732 127.08338928 276.246521 C121.68081184 292.01418882 113.50077757 306.49721168 102.75965881 319.1942749 C101.94497131 320.16107178 101.13028381 321.12786865 100.29090881 322.1239624 C94.65480871 328.56267169 88.56826391 334.02368205 81.75965881 339.1942749 C80.99395569 339.78724365 80.22825256 340.3802124 79.43934631 340.9911499 C67.21246785 350.02660585 53.54003125 356.38655286 38.96864319 360.56097412 C37.54608942 360.9688106 36.12759474 361.39122897 34.71473694 361.83148193 C15.31469812 367.80764023 -9.7156054 367.69356035 -29.24034119 362.1942749 C-30.061474 361.96321045 -30.88260681 361.732146 -31.72862244 361.49407959 C-54.00757513 355.01100221 -72.47484531 344.24573773 -89.24034119 328.1942749 C-89.98670837 327.51107178 -90.73307556 326.82786865 -91.50205994 326.1239624 C-98.12271077 319.86149687 -103.21997454 312.75079228 -108.24034119 305.1942749 C-108.86940369 304.26099365 -109.49846619 303.3277124 -110.14659119 302.3661499 C-117.06813144 291.3546086 -122.44106663 278.2002748 -124.40318298 265.32415771 C-124.95388532 261.94736743 -125.68872382 259.25628309 -127.24034119 256.1942749 C-131.67593388 253.46266286 -136.14398998 252.22328987 -141.13291931 250.855896 C-149.98301907 248.07742399 -157.83670272 241.97923128 -165.11534119 236.3817749 C-166.03597351 235.67951782 -166.03597351 235.67951782 -166.97520447 234.96307373 C-168.4588351 233.78057181 -169.8584722 232.4942398 -171.24034119 231.1942749 C-171.24034119 226.99159535 -168.95321269 224.83422236 -166.42784119 221.6942749 C-165.92937683 221.07133545 -165.43091248 220.448396 -164.91734314 219.80657959 C-153.41120215 205.65241528 -138.83266433 192.33364398 -121.14268494 186.50286865 C-118.05773785 184.38077979 -116.93911062 181.0683668 -115.42784119 177.7567749 C-110.22848871 166.89973152 -103.99060396 157.41860726 -96.24034119 148.1942749 C-95.58291931 147.40150146 -94.92549744 146.60872803 -94.24815369 145.79193115 C-90.71526482 141.62136317 -90.71526482 141.62136317 -89.24034119 140.1942749 C-88.58034119 140.1942749 -87.92034119 140.1942749 -87.24034119 140.1942749 C-86.91034119 139.2042749 -86.58034119 138.2142749 -86.24034119 137.1942749 C-83.92639036 135.21088848 -81.62365982 133.37675706 -79.17784119 131.5692749 C-78.4619281 131.03802002 -77.74601501 130.50676514 -77.00840759 129.95941162 C-64.60394475 120.93477837 -49.59205874 111.55484514 -34.24034119 109.1942749 C-34.25033394 107.7839222 -34.25033394 107.7839222 -34.26052856 106.34507751 C-34.32158131 97.44527449 -34.36642915 88.54551445 -34.3957777 79.64554882 C-34.41137378 75.0709625 -34.43250014 70.49654646 -34.46665955 65.92205811 C-34.49947066 61.50000162 -34.51723966 57.07810801 -34.52497292 52.6559391 C-34.53047765 50.97639722 -34.5412261 49.29686334 -34.55753136 47.61739159 C-34.69774839 32.56378918 -33.2947429 20.69833088 -22.50987244 9.37786865 C-16.03723963 3.46807348 -8.76548918 0.10281769 0 0 Z M-78.24034119 141.1942749 C-79.01764587 141.84009521 -79.79495056 142.48591553 -80.59580994 143.15130615 C-86.60352347 148.2283928 -91.46560522 153.95985907 -96.24034119 160.1942749 C-96.84748962 160.97415771 -97.45463806 161.75404053 -98.08018494 162.55755615 C-117.75515509 189.1031508 -124.23485837 223.42343494 -119.54893494 255.7880249 C-118.73440379 260.34614481 -117.60538697 264.77173577 -116.24034119 269.1942749 C-116.03135193 269.87554443 -115.82236267 270.55681396 -115.60704041 271.25872803 C-106.62304727 299.44222109 -88.35515515 323.5141265 -63.24034119 339.1942749 C-62.47205994 339.7202124 -61.70377869 340.2461499 -60.91221619 340.7880249 C-35.21114526 357.68243516 -1.19347763 361.67391646 28.50965881 355.63519287 C61.00158833 348.07825165 89.46366849 328.51045523 107.37294006 300.21380615 C125.29061515 270.73680738 129.80388778 236.46327965 122.25575256 202.9574585 C114.80966223 173.37303849 94.61142503 146.18146959 68.75965881 130.1942749 C49.78320708 118.94835675 29.9689685 112.18410486 7.75965881 111.1942749 C6.91661194 111.1530249 6.07356506 111.1117749 5.20497131 111.0692749 C-25.22608348 110.32931004 -55.48461454 120.97906 -78.24034119 141.1942749 Z " fill="#EEF2F5" transform="translate(271.24034118652344,59.80572509765625)"/>
<path d="M0 0 C1.52865336 -0.01690654 3.05728999 -0.0353876 4.58590698 -0.05531311 C8.71622558 -0.10323244 12.84626668 -0.12514612 16.97682595 -0.13916087 C19.56318555 -0.14870309 22.14947264 -0.16316339 24.73579979 -0.17917061 C33.77522452 -0.23405856 42.81442593 -0.26511049 51.85400391 -0.27734375 C60.2542738 -0.289448 68.65283609 -0.35803707 77.05255061 -0.45207018 C84.2868796 -0.53020731 91.52064189 -0.56562866 98.75538892 -0.56899267 C103.06673827 -0.57187011 107.37625359 -0.59209187 111.68715858 -0.65662956 C115.7454072 -0.71613309 119.80040001 -0.72211899 123.85891342 -0.68869591 C125.33912762 -0.68536316 126.8195296 -0.70047134 128.29931068 -0.73643112 C136.62454392 -0.92650076 142.35580467 0.12146607 148.46574402 5.95555115 C150.28437999 7.80425019 152.01617507 9.70343198 153.7565918 11.62866211 C155.17402214 13.00074747 156.59990063 14.36428961 158.04174805 15.71069336 C166.36169861 23.86608286 173.8065025 32.28650441 180.7565918 41.62866211 C181.4062793 42.44463867 182.0559668 43.26061523 182.7253418 44.10131836 C183.54518555 45.13579102 183.54518555 45.13579102 184.3815918 46.19116211 C184.82760742 46.74932617 185.27362305 47.30749023 185.7331543 47.88256836 C187.01564063 50.0706271 187.30427216 52.14850184 187.7565918 54.62866211 C186.91175673 54.63197226 186.06692165 54.6352824 185.19648552 54.63869286 C164.64009112 54.71991204 144.08377048 54.81200101 123.52747917 54.91618919 C113.5866131 54.96631166 103.64575525 55.01275467 93.70483398 55.05053711 C85.0403646 55.08347748 76.37595917 55.12332007 67.71156037 55.17145216 C63.12380954 55.19669677 58.53610101 55.21848412 53.94829941 55.23200607 C49.62928319 55.24484487 45.31041221 55.26691898 40.99147606 55.2960453 C39.4072559 55.30510684 37.82301235 55.31080799 36.23876762 55.31287575 C34.0730664 55.31620838 31.90777446 55.33171242 29.74215698 55.35018921 C28.530921 55.35571997 27.31968502 55.36125072 26.07174492 55.36694908 C22.61756252 55.6396377 19.92453746 56.22704192 16.7565918 57.62866211 C14.36514737 62.984961 14.42033664 68.48347689 14.3425293 74.28100586 C14.32316315 75.18113907 14.303797 76.08127228 14.28384399 77.00868225 C14.22444709 79.86108156 14.17782349 82.71352211 14.1315918 85.56616211 C14.09337525 87.5095383 14.05432142 89.45289823 14.0144043 91.39624023 C13.91877868 96.14024744 13.83460161 100.88433386 13.7565918 105.62866211 C12.7143042 105.61295166 11.6720166 105.59724121 10.59814453 105.58105469 C6.65633157 105.52592544 2.71455107 105.49201693 -1.22753906 105.46386719 C-2.91965502 105.44896644 -4.61173369 105.42863877 -6.30371094 105.40234375 C-16.29067617 105.25125054 -25.51260489 105.67538136 -35.25488281 107.97900391 C-38.2434082 108.62866211 -38.2434082 108.62866211 -42.2434082 108.62866211 C-42.33631935 98.22308727 -42.4072801 87.81761203 -42.45065689 77.41170597 C-42.47148156 72.57917125 -42.49970512 67.74692152 -42.54516602 62.91455078 C-42.58880711 58.24610553 -42.61258378 53.57793344 -42.62291718 48.90929985 C-42.63027589 47.13319032 -42.64464548 45.35709479 -42.66632843 43.58110237 C-42.87454372 25.81093547 -42.87454372 25.81093547 -38.2434082 18.62866211 C-37.77418945 17.83073242 -37.3049707 17.03280273 -36.8215332 16.21069336 C-33.25158398 11.45426102 -29.39103248 7.65569803 -24.2434082 4.62866211 C-23.69264524 4.30138343 -23.14188227 3.97410475 -22.57442951 3.63690853 C-15.28710912 -0.1615395 -8.05193476 0.01400695 0 0 Z " fill="#FEFEFE" transform="translate(280.243408203125,59.371337890625)"/>
<path d="M0 0 C0.86882812 0.32742188 1.73765625 0.65484375 2.6328125 0.9921875 C7.3838501 2.97324746 9.29636871 5.36355813 11.30859375 9.90234375 C15.18927232 21.67592788 14.72556368 36.98708281 9.5390625 48.21484375 C1.84085549 62.14586304 -9.36258642 72.91387698 -24.89282227 77.56713867 C-35.88954699 79.82611132 -50.12864216 79.50393143 -60 74 C-60.928125 73.49082031 -61.85625 72.98164063 -62.8125 72.45703125 C-76.52843069 64.3131974 -84.44625734 53.20249472 -89 38 C-91.89584971 25.3547896 -89.18947917 11.05746633 -83.0625 -0.3125 C-78.79273824 -6.3897635 -73.04561349 -7.74185473 -66 -9 C-64.95457031 -9.18691406 -63.90914062 -9.37382812 -62.83203125 -9.56640625 C-40.40920663 -12.10354543 -20.61840441 -8.55593652 0 0 Z " fill="#22D0C3" transform="translate(292,256)"/>
<path d="M0 0 C0.92065247 0.00007553 1.84130493 0.00015106 2.78985596 0.00022888 C3.77540466 0.00539017 4.76095337 0.01055145 5.77636719 0.01586914 C6.79172546 0.01728409 7.80708374 0.01869904 8.85321045 0.02015686 C12.09325111 0.02575023 15.33322244 0.03830154 18.57324219 0.05102539 C20.77115786 0.05604125 22.96907461 0.060604 25.16699219 0.06469727 C30.55243247 0.07571749 35.93783238 0.09244906 41.32324219 0.11352539 C42.2233567 6.25656114 42.46978225 12.21831856 42.45605469 18.42211914 C42.45701141 19.38827652 42.45796814 20.3544339 42.45895386 21.34986877 C42.45963102 23.38282334 42.45780926 25.41578012 42.45361328 27.44873047 C42.44826436 30.5382174 42.45357111 33.62755859 42.45996094 36.71704102 C42.45929996 38.70206737 42.45801839 40.68709364 42.45605469 42.67211914 C42.45807892 43.5848912 42.46010315 44.49766327 42.46218872 45.43809509 C42.44187949 51.07202496 42.03758775 56.52396647 41.32324219 62.11352539 C41.7117334 61.56092041 42.10022461 61.00831543 42.50048828 60.43896484 C47.51268194 53.3817891 52.83803806 47.70223173 61.32324219 45.11352539 C71.02550369 43.59226488 79.73213121 47.46494724 87.69824219 52.80102539 C99.08712951 62.08698539 102.46326115 79.24453203 104.32324219 93.11352539 C104.7477611 98.19479492 104.75779476 103.27899304 104.71435547 108.37475586 C104.69824944 110.61251726 104.71432289 112.84847374 104.73339844 115.08618164 C104.75686006 131.29982912 102.16994564 148.21156282 93.32324219 162.11352539 C91.56218825 159.01175137 90.95867665 156.38793285 90.51074219 152.86352539 C86.97946657 130.24129097 76.51091387 108.15658454 61.32324219 91.11352539 C60.61554688 90.2743457 59.90785156 89.43516602 59.17871094 88.57055664 C42.45447937 69.13428752 21.04314856 57.27485806 -3.25097656 50.15649414 C-6.14587149 49.27515213 -8.88008619 48.2572246 -11.67675781 47.11352539 C-11.75093333 41.20535021 -11.80537215 35.29744628 -11.84155273 29.38891602 C-11.85663607 27.37910236 -11.87710554 25.3693216 -11.90307617 23.35961914 C-11.93947926 20.47021363 -11.95648869 17.58124343 -11.96972656 14.69165039 C-11.98521042 13.7935968 -12.00069427 12.89554321 -12.01664734 11.97027588 C-12.01831161 5.79650149 -12.01831161 5.79650149 -10.40844727 2.57739258 C-7.31258187 -0.03966775 -3.92883816 -0.01079351 0 0 Z " fill="#FDD198" transform="translate(311.6767578125,118.886474609375)"/>
<path d="M0 0 C-1.12038285 2.98768759 -2.36500149 5.64758329 -3.9375 8.4375 C-10.32912311 21.1010529 -10.29852612 34.47196471 -6.1875 47.67578125 C-1.4655771 60.89405885 7.65879154 70.45620874 20 77 C21.17369141 77.65162109 21.17369141 77.65162109 22.37109375 78.31640625 C33.29096322 83.33081031 48.95495447 82.96838435 60.1875 79 C75.91560209 71.70133825 84.56614094 60.93775967 91.1484375 45.265625 C92.32018397 40.77213854 92.33890704 36.50077019 92.3125 31.875 C92.31121094 30.9466333 92.30992187 30.0182666 92.30859375 29.06176758 C92.20992442 21.98902686 91.33553058 15.7146504 89 9 C101.83960773 13.67555527 113.25017872 22.76422699 124 31 C124.6182666 31.47260254 125.2365332 31.94520508 125.87353516 32.43212891 C129.43097282 35.16238546 132.95310066 37.93147108 136.44140625 40.74951172 C137.90570134 41.92434246 139.38975915 43.07441978 140.875 44.22265625 C146.79427806 49.02282081 146.79427806 49.02282081 147.75 53.5625 C146.01697235 61.50554337 144.31556428 64.09153962 137.5925293 68.41430664 C133.26160049 71.06327383 128.8410855 73.52482329 124.375 75.9375 C123.40933105 76.46037598 122.44366211 76.98325195 121.44873047 77.52197266 C108.66964331 84.38698252 95.69183142 90.20635367 82 95 C81.35981934 95.22961426 80.71963867 95.45922852 80.06005859 95.69580078 C56.24627187 104.15365497 28.77753449 106.18988898 4 101 C2.81664062 100.77763672 2.81664062 100.77763672 1.609375 100.55078125 C-4.96091608 98.78282124 -8.48901878 93.51625105 -12 88 C-23.18976018 67.5803969 -27.739428 43.89584963 -21.90234375 21.05859375 C-21.60457031 20.04925781 -21.30679688 19.03992188 -21 18 C-20.73316406 17.04222656 -20.46632812 16.08445312 -20.19140625 15.09765625 C-18.35835882 9.5496327 -16.29395567 6.69992149 -11.09765625 3.9609375 C-10.40542969 3.64382812 -9.71320313 3.32671875 -9 3 C-8.33871094 2.68289062 -7.67742187 2.36578125 -6.99609375 2.0390625 C-2.51576835 0 -2.51576835 0 0 0 Z " fill="#FDFEFE" transform="translate(212,252)"/>
<path d="M0 0 C0.63631348 0.20898926 1.27262695 0.41797852 1.92822266 0.63330078 C11.76759433 3.94785066 19.80157554 8.62952866 28 15 C29.21623047 15.93972656 29.21623047 15.93972656 30.45703125 16.8984375 C45.92167686 29.7359892 54.8290113 47.65321063 59 67 C59.1959375 67.7734375 59.391875 68.546875 59.59375 69.34375 C60.20366429 73.33165114 60.10381987 77.28540157 60.0625 81.3125 C60.05798828 82.14845703 60.05347656 82.98441406 60.04882812 83.84570312 C60.03710548 85.89716649 60.01917203 87.94859273 60 90 C56.31455493 88.40441907 53.60005738 86.10479819 50.5625 83.5 C39.20990385 73.91003461 27.40430196 65.34154853 14.93847656 57.26123047 C13.40483305 56.26339642 11.8836646 55.24639079 10.3671875 54.22265625 C-8.46918573 42.03640045 -31.93893311 34.56679482 -54.3125 34.6875 C-55.96270142 34.69595947 -55.96270142 34.69595947 -57.64624023 34.70458984 C-72.71680446 34.92934097 -86.95749907 38.74411166 -100.34375 45.75 C-101.2203125 46.1625 -102.096875 46.575 -103 47 C-103.66 46.67 -104.32 46.34 -105 46 C-100.6347634 38.06072593 -95.98299067 30.81521118 -90 24 C-89.00226563 22.85917969 -89.00226563 22.85917969 -87.984375 21.6953125 C-65.84797141 -1.998838 -30.38963298 -10.10888309 0 0 Z " fill="#FDD298" transform="translate(300,212)"/>
<path d="M0 0 C-2.56737407 15.04918206 -11.5841264 28.26508162 -22 39 C-22.81017578 39.92039062 -22.81017578 39.92039062 -23.63671875 40.859375 C-31.92639248 49.96339955 -43.57540316 55.87805739 -55 60 C-55.825 60.30679688 -56.65 60.61359375 -57.5 60.9296875 C-73.91526221 66.75266903 -95.92037593 66.56530835 -112 60 C-113.52173828 59.45666016 -113.52173828 59.45666016 -115.07421875 58.90234375 C-127.29133555 54.28768376 -140.63981645 46.04027533 -148 35 C-147.33355469 35.13277344 -146.66710937 35.26554687 -145.98046875 35.40234375 C-145.05878906 35.57894531 -144.13710937 35.75554687 -143.1875 35.9375 C-142.29417969 36.11152344 -141.40085938 36.28554688 -140.48046875 36.46484375 C-91.15490179 44.04913407 -45.45129299 27.87815829 -4.37109375 1.3984375 C-2 0 -2 0 0 0 Z " fill="#FDD298" transform="translate(357,316)"/>
<path d="M0 0 C3.5586164 2.80320678 6.81463634 5.78303551 10 9 C10.886875 9.845625 11.77375 10.69125 12.6875 11.5625 C13.450625 12.366875 14.21375 13.17125 15 14 C15.50660156 14.50015625 16.01320313 15.0003125 16.53515625 15.515625 C31.52708416 31.22470664 38.43347209 53.43298976 38.3125 74.75 C38.30686035 75.79986084 38.3012207 76.84972168 38.29541016 77.93139648 C37.91369485 102.49912242 28.29065764 123.67993648 11 141 C10.24203125 141.76957031 9.4840625 142.53914062 8.703125 143.33203125 C-8.41498954 159.7508764 -32.11682666 167.68629672 -55.53930664 167.33398438 C-81.158971 166.55813266 -104.19687102 155.81411291 -121.8125 137.1875 C-139.2118797 116.74241882 -146.75993363 91.66446929 -145 65 C-142.11581345 40.34070057 -129.21344232 19.05815946 -110.5 3.125 C-78.46764675 -22.04652298 -33.4235086 -22.66124884 0 0 Z M-120 20 C-135.33653147 39.28638264 -141.27980011 62.86694063 -138.77734375 87.16162109 C-136.48392015 103.75260274 -129.57350476 118.21131174 -119 131 C-118.45472656 131.680625 -117.90945312 132.36125 -117.34765625 133.0625 C-106.30651601 146.3638266 -91.54164874 154.69959711 -75 159 C-73.99324219 159.35835937 -72.98648438 159.71671875 -71.94921875 160.0859375 C-66.36830603 161.681798 -60.50124032 161.28771305 -54.75 161.25 C-53.58597656 161.25773438 -52.42195313 161.26546875 -51.22265625 161.2734375 C-27.39441445 161.22007078 -7.70179085 151.67806671 9 135 C10.11375 133.90365234 10.11375 133.90365234 11.25 132.78515625 C20.89165654 122.6727157 28.94958617 107.84029333 31 94 C31.17660156 93.22140625 31.35320312 92.4428125 31.53515625 91.640625 C36.16677404 70.64395769 31.91944263 48.88204088 20.875 30.5625 C6.61025654 9.22687078 -12.32365664 -4.56633238 -37.75 -10.07421875 C-68.98080357 -16.08483988 -99.22045061 -3.25606924 -120 20 Z " fill="#EEF2F5" transform="translate(327,219)"/>
<path d="M0 0 C12.20844003 14.31117906 14.54554749 35.14490961 14.39111328 53.26123047 C14.37500726 55.49899187 14.39108071 57.73494835 14.41015625 59.97265625 C14.43361787 76.18630373 11.84670345 93.09803743 3 107 C1.23894606 103.89822598 0.63543447 101.27440746 0.1875 97.75 C-3.33799255 75.16481333 -13.78527675 52.98630062 -29 36 C-29.8353125 35.05640625 -30.670625 34.1128125 -31.53125 33.140625 C-35.18936003 28.99924435 -35.18936003 28.99924435 -39 25 C-38.83351772 17.34181493 -35.1023978 10.53097647 -30.10546875 4.84375 C-23.75452498 -1.0687657 -16.93229234 -3.52071383 -8.3203125 -4.11328125 C-4.46464682 -3.92504168 -2.76631746 -2.64057575 0 0 Z " fill="#FCD198" transform="translate(402,174)"/>
<path d="M0 0 C39.43043505 3.03942937 80.34900032 27.88930965 110 53 C110 53.33 110 53.66 110 54 C82.94 54 55.88 54 28 54 C24.37 45.75 20.74 37.5 17 29 C12.14075225 19.80213819 7.36974908 10.99609036 1.1796875 2.65234375 C0 1 0 1 0 0 Z " fill="#117A87" transform="translate(311,6)"/>
<path d="M0 0 C-0.32613281 0.969375 -0.65226562 1.93875 -0.98828125 2.9375 C-7.77605198 23.52161607 -10.93221474 45.40453037 -7 67 C-13.7257046 66.55161969 -19.01637929 63.98016907 -25 61 C-26.02480469 60.505 -27.04960938 60.01 -28.10546875 59.5 C-34.48166528 56.26918665 -40.16574405 52.61624877 -45.8125 48.25 C-46.42971924 47.77804199 -47.04693848 47.30608398 -47.68286133 46.81982422 C-49.18441221 45.62089656 -50.60102513 44.31717574 -52 43 C-52 38.79732044 -49.7128715 36.63994746 -47.1875 33.5 C-46.68903564 32.87706055 -46.19057129 32.25412109 -45.67700195 31.61230469 C-38.11887743 22.31475336 -14.04988639 -5.4418574 0 0 Z " fill="#FEFEFD" transform="translate(152,248)"/>
<path d="M0 0 C-9.86524801 10.04141315 -18.28529628 14.8492169 -31.58203125 18.95703125 C-39.24053411 21.33867595 -46.73905204 24.13355083 -54.25 26.9375 C-54.97396973 27.20674286 -55.69793945 27.47598572 -56.44384766 27.75338745 C-71.37364188 33.31081209 -86.2082599 39.11274992 -101.02246094 44.97045898 C-101.87454636 45.30602814 -102.72663177 45.64159729 -103.60453796 45.98733521 C-105.20952935 46.61951923 -106.81343891 47.25445881 -108.41609192 47.89254761 C-113.77476285 50 -113.77476285 50 -116 50 C-116.62780409 46.311651 -116.66977949 44.16352719 -114.78125 40.8828125 C-93.41180252 14.54590573 -46.16748521 4.05859269 -14.296875 0.26953125 C-9.52115481 -0.12090085 -4.78667998 -0.17912732 0 0 Z " fill="#848382" transform="translate(202,184)"/>
<path d="M0 0 C0.84747803 0.30421875 1.69495605 0.6084375 2.56811523 0.921875 C23.59545442 8.68217571 41.98619366 20.86209631 58.296875 36.16796875 C61.01769159 38.71597672 63.77909095 41.20826589 66.5625 43.6875 C68.10460139 45.08285304 69.64631112 46.47863915 71.1875 47.875 C71.83203125 48.44089844 72.4765625 49.00679688 73.140625 49.58984375 C75.70115622 51.94098574 77.10331679 53.22959542 77.5625 56.75 C77.376875 57.801875 77.376875 57.801875 77.1875 58.875 C74.46292704 57.60306359 72.22515531 56.23052617 69.9296875 54.29296875 C69.31343506 53.77959961 68.69718262 53.26623047 68.06225586 52.73730469 C67.40233643 52.18461914 66.74241699 51.63193359 66.0625 51.0625 C52.87418649 40.20493889 39.15188 30.15207382 24.1875 21.875 C23.57261719 21.53130371 22.95773437 21.18760742 22.32421875 20.83349609 C14.28056246 16.39741132 6.07962804 12.93558745 -2.625 10 C-3.89561279 9.57050049 -3.89561279 9.57050049 -5.19189453 9.13232422 C-15.47029955 5.81394186 -25.33653748 4.50429635 -36.125 4.5625 C-37.77520142 4.57095947 -37.77520142 4.57095947 -39.45874023 4.57958984 C-54.52930446 4.80434097 -68.76999907 8.61911166 -82.15625 15.625 C-83.0328125 16.0375 -83.909375 16.45 -84.8125 16.875 C-85.4725 16.545 -86.1325 16.215 -86.8125 15.875 C-84.81342366 10.52509093 -82.74318296 6.13403002 -77.859375 2.94921875 C-74.23735626 1.34908034 -70.58356305 0.06043887 -66.8125 -1.125 C-65.66265625 -1.53621094 -64.5128125 -1.94742188 -63.328125 -2.37109375 C-43.70026731 -8.45741443 -19.19317634 -7.02030299 0 0 Z " fill="#EEBB7F" transform="translate(281.8125,242.125)"/>
<path d="M0 0 C5.07785884 2.85250238 8.47935526 6.99980118 10.75 12.375 C11.32889354 17.13384539 11.38023426 22.24177474 8.75 26.375 C7.986875 26.66375 7.22375 26.9525 6.4375 27.25 C3.2966584 28.5647709 3.2783192 29.11452913 1.8125 32 C-0.06911246 34.85837307 -0.97994847 35.31770619 -4.3984375 36.04296875 C-11.2155458 36.31187387 -16.54048625 35.93044501 -21.6953125 31.20703125 C-25.94655313 26.19740347 -28.03106106 21.24622128 -27.69921875 14.609375 C-26.34416046 7.86943288 -21.64581912 3.24591372 -16.25 -0.625 C-10.72542882 -2.46652373 -5.33994339 -2.4419855 0 0 Z " fill="#646767" transform="translate(262.25,265.625)"/>
<path d="M0 0 C-0.24726553 3.4617174 -0.6824336 4.71521118 -3.30859375 7.0703125 C-4.85740234 8.08738281 -4.85740234 8.08738281 -6.4375 9.125 C-7.01097168 9.50333984 -7.58444336 9.88167969 -8.17529297 10.27148438 C-10.10556284 11.532778 -12.0516944 12.76677648 -14 14 C-15.02552979 14.66273926 -15.02552979 14.66273926 -16.07177734 15.33886719 C-27.27050726 22.56136686 -38.75447227 28.74071904 -51 34 C-52.12994385 34.48726563 -52.12994385 34.48726563 -53.28271484 34.984375 C-79.43768616 46.01364785 -113.35753798 51.97683537 -141 43 C-143.98219171 41.01774554 -146.09211781 39.02772608 -148 36 C-144.51089481 34.83696494 -142.79711554 35.52455124 -139.34301758 36.45776367 C-94.46936433 46.84271562 -46.70936724 27.65841631 -9.15600586 4.45532227 C-7.55364883 3.44801585 -5.96191802 2.42386053 -4.37109375 1.3984375 C-2 0 -2 0 0 0 Z " fill="#F0BC80" transform="translate(357,316)"/>
<path d="M0 0 C2.37109375 1.2890625 2.37109375 1.2890625 3.37109375 3.2890625 C2.06785156 3.45341797 2.06785156 3.45341797 0.73828125 3.62109375 C-7.86184549 4.69045025 -7.86184549 4.69045025 -15.62890625 8.2890625 C-16.59828125 8.9078125 -17.56765625 9.5265625 -18.56640625 10.1640625 C-23.40240232 14.31102483 -25.85302707 20.68722384 -28.62890625 26.2890625 C-29.0259375 27.08183594 -29.42296875 27.87460938 -29.83203125 28.69140625 C-30.095 29.21863281 -30.35796875 29.74585938 -30.62890625 30.2890625 C-32.25510473 28.99890504 -33.87982608 27.70688553 -35.50390625 26.4140625 C-36.40882813 25.69476563 -37.31375 24.97546875 -38.24609375 24.234375 C-40.62890625 22.2890625 -40.62890625 22.2890625 -42.62890625 20.2890625 C-37.82682983 9.57673818 -33.14950395 2.13476372 -22.2265625 -2.82421875 C-14.0710445 -5.60813241 -7.66004635 -3.33724312 0 0 Z " fill="#FBE3B9" transform="translate(392.62890625,167.7109375)"/>
<path d="M0 0 C4.09811486 0.52998177 5.45466398 2.83827424 7.95703125 5.93359375 C15.34466967 16.75120715 16.58139595 30.59136943 15.59765625 43.3359375 C14.91564779 46.80318052 14.11786129 50.13513882 12.59765625 53.3359375 C11.60765625 53.8309375 11.60765625 53.8309375 10.59765625 54.3359375 C9.35486973 51.85036445 9.45599472 50.12706339 9.421875 47.34765625 C9.51855132 28.58176657 9.51855132 28.58176657 2.22265625 11.7109375 C-0.5031942 9.24469185 -3.02070498 7.75150722 -6.40234375 6.3359375 C-3.6861197 0.51545739 -3.6861197 0.51545739 0 0 Z " fill="#E8B57F" transform="translate(382.40234375,186.6640625)"/>
<path d="M0 0 C3 2.0625 3 2.0625 5 5 C5.7878128 9.4117517 5.52975133 11.22192774 3 14.9375 C-1.15080314 17.79117716 -3.0301078 17.7099846 -8 17 C-10.5 15.5625 -10.5 15.5625 -12 13 C-12.76004105 8.68518361 -12.73570183 5.25682396 -10.5 1.4375 C-6.99753422 -0.57641782 -3.87856287 -0.87555677 0 0 Z " fill="#F8FDFD" transform="translate(232,253)"/>
<path d="M0 0 C-0.1875 2.8125 -0.1875 2.8125 -1 6 C-4.56110624 8.50572385 -8.49555789 10.1771366 -12.4375 12 C-25.19161372 18.19674183 -35.32713015 27.79413528 -45 38 C-45 31.086608 -36.40397222 24.27925924 -31.8125 19.4375 C-24.34882863 12.1822383 -10.94124072 0 0 0 Z " fill="#EBBA84" transform="translate(154,239)"/>
<path d="M0 0 C3.5 0.25 3.5 0.25 5.5 2.25 C5.75 5.75 5.75 5.75 5.5 9.25 C3.5 11.25 3.5 11.25 0 11.5 C-3.5 11.25 -3.5 11.25 -5.5 9.25 C-5.75 5.75 -5.75 5.75 -5.5 2.25 C-3.5 0.25 -3.5 0.25 0 0 Z " fill="#F8FDFC" transform="translate(269.5,292.75)"/>
<path d="M0 0 C3.44330243 1.28744289 6.45433236 2.79358991 9.5625 4.75 C18.30495354 10.07601182 27.42360454 14.39825834 37 18 C37 18.99 37 19.98 37 21 C23.89134288 19.13463554 11.01963227 10.21732037 1 2 C0.67 1.34 0.34 0.68 0 0 Z " fill="#EABA87" transform="translate(108,298)"/>
<path d="M0 0 C5.94 0 11.88 0 18 0 C18 1.65 18 3.3 18 5 C12.06 5 6.12 5 0 5 C0 3.35 0 1.7 0 0 Z " fill="#D2D4D5" transform="translate(158,292)"/>
<path d="M0 0 C1.32 0.66 2.64 1.32 4 2 C1.08785803 7.3762621 -2.24351901 12.17918273 -6 17 C-7.32 16.34 -8.64 15.68 -10 15 C-9.08333333 13.625 -8.16666667 12.25 -7.25 10.875 C-6.70601562 10.05902344 -6.16203125 9.24304688 -5.6015625 8.40234375 C-3.734375 5.6015625 -1.8671875 2.80078125 0 0 Z " fill="#CCCED0" transform="translate(214,372)"/>
<path d="M0 0 C0 1.32 0 2.64 0 4 C-2.26882087 4.83919398 -4.53977027 5.67151724 -6.8125 6.5 C-7.77639648 6.85771484 -7.77639648 6.85771484 -8.75976562 7.22265625 C-11.64933739 8.27068746 -13.90076061 9 -17 9 C-17.33 7.68 -17.66 6.36 -18 5 C-15.75267898 4.15875684 -13.50261215 3.32685168 -11.25 2.5 C-10.61578125 2.26152344 -9.9815625 2.02304687 -9.328125 1.77734375 C-5.96713393 0.55198242 -3.63128413 0 0 0 Z " fill="#CCCED0" transform="translate(181,323)"/>
<path d="M0 0 C2.475 0.495 2.475 0.495 5 1 C5.67184618 3.10251861 6.33730968 5.20707763 7 7.3125 C7.37125 8.48425781 7.7425 9.65601563 8.125 10.86328125 C9 14 9 14 9 17 C7.68 17.33 6.36 17.66 5 18 C4.16112944 15.56427941 3.32873471 13.12666783 2.5 10.6875 C2.14228516 9.65206055 2.14228516 9.65206055 1.77734375 8.59570312 C0.76791737 5.61068511 0 3.17341086 0 0 Z " fill="#CCCED0" transform="translate(302,387)"/>
<path d="M0 0 C0.99 0.66 1.98 1.32 3 2 C3 2.66 3 3.32 3 4 C0.69833213 5.79083852 -1.60238901 7.47259242 -4 9.125 C-4.66773438 9.59292969 -5.33546875 10.06085938 -6.0234375 10.54296875 C-7.67814266 11.70126236 -9.33855307 12.85139765 -11 14 C-11.99 13.34 -12.98 12.68 -14 12 C-14 11.34 -14 10.68 -14 10 C-11.69833213 8.20916148 -9.39761099 6.52740758 -7 4.875 C-6.33226562 4.40707031 -5.66453125 3.93914062 -4.9765625 3.45703125 C-3.32185734 2.29873764 -1.66144693 1.14860235 0 0 Z " fill="#CCCED0" transform="translate(193,350)"/>
<path d="M0 0 C6.00477279 0.64916463 11.400781 2.85795003 17 5 C16.67 6.32 16.34 7.64 16 9 C4.47835991 5.92482916 4.47835991 5.92482916 -1 4 C-0.67 2.68 -0.34 1.36 0 0 Z " fill="#CCCECF" transform="translate(367,323)"/>
<path d="M0 0 C5.3762621 2.91214197 10.17918273 6.24351901 15 10 C14.34 11.32 13.68 12.64 13 14 C8 10.66666667 3 7.33333333 -2 4 C-1.34 2.68 -0.68 1.36 0 0 Z " fill="#CCCDCF" transform="translate(181,225)"/>
<path d="M0 0 C3.88800558 1.29600186 5.39873667 3.70784087 7.75 6.875 C8.17410156 7.41769531 8.59820312 7.96039063 9.03515625 8.51953125 C10.234375 10.1171875 10.234375 10.1171875 12 13 C11.67 13.99 11.34 14.98 11 16 C9.296875 15.87890625 9.296875 15.87890625 7 15 C5.27105302 13.00484099 3.75742499 11.08570336 2.25 8.9375 C1.83878906 8.36966797 1.42757812 7.80183594 1.00390625 7.21679688 C-0.00695036 5.81805343 -1.00477206 4.40990625 -2 3 C-1.34 2.01 -0.68 1.02 0 0 Z " fill="#CCCECF" transform="translate(206,200)"/>
<path d="M0 0 C1.32 0 2.64 0 4 0 C2.9007105 6.31121503 1.41862058 12.06338584 -1 18 C-2.32 17.67 -3.64 17.34 -5 17 C-1.92482916 5.47835991 -1.92482916 5.47835991 0 0 Z " fill="#CCCDCF" transform="translate(241,387)"/>
<path d="M0 0 C4.54075781 4.14010271 7.71842138 8.82390176 11 14 C10.01 15.485 10.01 15.485 9 17 C8.34 17 7.68 17 7 17 C5.37322909 14.86229382 3.86020356 12.7324466 2.375 10.5 C1.95476562 9.87996094 1.53453125 9.25992187 1.1015625 8.62109375 C0.06162833 7.08482736 -0.96997056 5.54292476 -2 4 C-1.34 2.68 -0.68 1.36 0 0 Z " fill="#CBCDCF" transform="translate(332,372)"/>
<path d="M0 0 C0 0.99 0 1.98 0 3 C-2.45714547 3.83698386 -4.91558857 4.66972424 -7.375 5.5 C-8.42300781 5.85771484 -8.42300781 5.85771484 -9.4921875 6.22265625 C-14.7734375 8 -14.7734375 8 -17 8 C-17.33 6.68 -17.66 5.36 -18 4 C-15.75438718 3.13237686 -13.50473745 2.2807897 -11.25 1.4375 C-10.61578125 1.19064453 -9.9815625 0.94378906 -9.328125 0.68945312 C-5.88990821 -0.58197079 -3.47831118 -1.46686355 0 0 Z " fill="#CCCDCF" transform="translate(384,258)"/>
<path d="M0 0 C1.32 0.66 2.64 1.32 4 2 C1.08785803 7.3762621 -2.24351901 12.17918273 -6 17 C-6.99 16.34 -7.98 15.68 -9 15 C-7.61219205 11.10993227 -5.7847773 8.03441292 -3.375 4.6875 C-2.74335938 3.80449219 -2.11171875 2.92148438 -1.4609375 2.01171875 C-0.97882813 1.34785156 -0.49671875 0.68398437 0 0 Z " fill="#CBCDCF" transform="translate(339,200)"/>
<path d="M0 0 C1.32 0.33 2.64 0.66 4 1 C3.54619105 2.89692143 3.08675008 4.79249595 2.625 6.6875 C2.36976563 7.74324219 2.11453125 8.79898438 1.8515625 9.88671875 C1.08094511 12.70406766 0.14501457 15.31668325 -1 18 C-2.32 17.67 -3.64 17.34 -5 17 C-1.92482916 5.47835991 -1.92482916 5.47835991 0 0 Z " fill="#CBCDCF" transform="translate(307,184)"/>
<path d="M0 0 C0.99 0.33 1.98 0.66 3 1 C4.203125 3.546875 4.203125 3.546875 5.25 6.75 C5.60578125 7.79671875 5.9615625 8.8434375 6.328125 9.921875 C7.01571542 13.07199855 6.88539298 14.93517813 6 18 C5.01 18 4.02 18 3 18 C1.35 12.39 -0.3 6.78 -2 1 C-1.34 0.67 -0.68 0.34 0 0 Z " fill="#CCCECF" transform="translate(238,184)"/>
<path d="M0 0 C3.58513106 1.62184501 6.58992323 3.79256239 9.75 6.125 C11.22726562 7.21167969 11.22726562 7.21167969 12.734375 8.3203125 C13.48203125 8.87460937 14.2296875 9.42890625 15 10 C14.67 10.99 14.34 11.98 14 13 C9.99264783 12.39889717 7.44530629 10.33397972 4.25 7.9375 C3.26515625 7.20402344 2.2803125 6.47054688 1.265625 5.71484375 C0.51796875 5.14894531 -0.2296875 4.58304687 -1 4 C-0.67 2.68 -0.34 1.36 0 0 Z " fill="#CBCDCF" transform="translate(353,350)"/>
<path d="M0 0 C0.99 0.66 1.98 1.32 3 2 C1.71001392 5.86995825 -0.05277704 6.8494623 -3.3125 9.25 C-4.76076172 10.34054688 -4.76076172 10.34054688 -6.23828125 11.453125 C-9 13 -9 13 -11.35546875 12.734375 C-11.89816406 12.49203125 -12.44085938 12.2496875 -13 12 C-11.47236536 7.91403748 -8.88915809 6.20173821 -5.375 3.75 C-4.37210937 3.04359375 -3.36921875 2.3371875 -2.3359375 1.609375 C-1.56507813 1.07828125 -0.79421875 0.5471875 0 0 Z " fill="#CBCDCF" transform="translate(365,225)"/>
<path d="M0 0 C1.32 0 2.64 0 4 0 C4 5.94 4 11.88 4 18 C2.68 18 1.36 18 0 18 C0 12.06 0 6.12 0 0 Z " fill="#CBCDCF" transform="translate(272,392)"/>
<path d="M0 0 C5.94 0 11.88 0 18 0 C18 1.32 18 2.64 18 4 C12.06 4 6.12 4 0 4 C0 2.68 0 1.36 0 0 Z " fill="#CDCED0" transform="translate(371,292)"/>
<path d="M0 0 C3.91121498 0.68936071 7.55508596 1.78250181 11.3125 3.0625 C12.38113281 3.42472656 13.44976562 3.78695313 14.55078125 4.16015625 C15.76314453 4.57587891 15.76314453 4.57587891 17 5 C17 6.32 17 7.64 17 9 C11.07136283 7.83348574 5.61201606 6.24480642 0 4 C0 2.68 0 1.36 0 0 Z " fill="#CBCDCF" transform="translate(164,257)"/>
<path d="M0 0 C1.32 0 2.64 0 4 0 C4 5.94 4 11.88 4 18 C2.68 18 1.36 18 0 18 C0 12.06 0 6.12 0 0 Z " fill="#CBCDCF" transform="translate(272,179)"/>
</svg>
