<?xml version="1.0" encoding="UTF-8"?>
<svg version="1.1" xmlns="http://www.w3.org/2000/svg" width="512" height="512">
<path d="M0 0 C0.98527176 -0.00705963 1.97054352 -0.01411926 2.985672 -0.02139282 C44.33908038 -0.25033537 44.33908038 -0.25033537 62.5 3.203125 C63.57330566 3.40180176 64.64661133 3.60047852 65.75244141 3.80517578 C99.2779015 10.18892834 132.67593518 22.18423016 158.5 45.203125 C159.77230469 46.31300781 159.77230469 46.31300781 161.0703125 47.4453125 C163.58069734 49.66397066 166.04867235 51.91947774 168.5 54.203125 C169.25023437 54.89921875 170.00046875 55.5953125 170.7734375 56.3125 C202.93253123 87.23036555 216.82416267 133.030857 217.78564453 176.62548828 C218.29229684 231.15048811 194.90039563 283.29464866 170.69921875 330.9453125 C170.16442902 331.99927216 170.16442902 331.99927216 169.61883545 333.07452393 C167.93341697 336.39313665 166.24063068 339.70755604 164.53271484 343.01464844 C161.06660468 349.76787228 158.04783373 356.4627677 155.75 363.703125 C155.4597998 364.59604248 155.16959961 365.48895996 154.87060547 366.40893555 C150.19156942 381.11731455 148.29896296 395.3669305 148.25976562 410.77148438 C148.25016924 413.03814987 148.21912947 415.3038631 148.1875 417.5703125 C148.02132909 438.70941041 153.63223419 458.73847206 158.65942383 479.12164307 C159.72180066 483.43487826 160.77569757 487.75019223 161.83009815 492.06538296 C162.64749005 495.41044196 163.46635939 498.75511243 164.28996277 502.09864807 C164.72590508 503.87331703 164.72590508 503.87331703 165.1706543 505.68383789 C165.42807907 506.72874893 165.68550385 507.77365997 165.95072937 508.85023499 C166.5 511.203125 166.5 511.203125 166.5 512.203125 C87.63 512.203125 8.76 512.203125 -72.5 512.203125 C-73.49 506.593125 -74.48 500.983125 -75.5 495.203125 C-79.67772022 486.45905941 -85.01223677 479.76495691 -94.17163086 476.03930664 C-101.23075572 473.59018669 -108.24371962 473.64877904 -115.61746407 473.68670464 C-118.12083045 473.69949686 -120.62312011 473.68789965 -123.12644958 473.67066956 C-127.53993252 473.64413341 -131.95314515 473.6383676 -136.36669922 473.63977051 C-143.43179953 473.64200994 -150.49656591 473.6276 -157.56153679 473.58418465 C-160.01098092 473.57443927 -162.459885 473.58301258 -164.90931702 473.59288025 C-177.94911415 473.575465 -188.03397188 471.60257767 -198.125 462.953125 C-206.89448695 452.79898221 -209.5532506 443.57958631 -208.74707031 430.30371094 C-207.84421655 422.62766967 -203.41903634 415.66278066 -199.515625 409.140625 C-196.92170936 404.1922321 -196.6092472 398.39595321 -198.1015625 393.046875 C-198.83463156 391.06240523 -199.63739586 389.13432829 -200.5 387.203125 C-200.809375 386.419375 -201.11875 385.635625 -201.4375 384.828125 C-202.39216301 383.06304937 -202.39216301 383.06304937 -204.3125 382.328125 C-208.04415707 380.40898708 -210.63095023 376.94122454 -212.5 373.203125 C-213.05257557 367.45633903 -212.10207271 364.68137756 -208.5 360.203125 C-206.8707726 358.49984181 -205.21358643 356.82151219 -203.5 355.203125 C-203.95890625 354.8628125 -204.4178125 354.5225 -204.890625 354.171875 C-209.51204473 350.52134177 -212.8821814 346.97651686 -214.5 341.203125 C-215.04587868 334.94223077 -212.88878279 330.45711038 -209.4609375 325.34375 C-208.17410044 322.47713737 -208.43849346 321.13842135 -209.5 318.203125 C-211.65203122 315.28036632 -212.77122089 314.32162567 -216.3828125 313.734375 C-217.45273438 313.7240625 -218.52265625 313.71375 -219.625 313.703125 C-226.64069238 313.34092315 -232.98591252 312.34461693 -238.37890625 307.5234375 C-242.78532954 302.57550196 -244.79529066 298.68059307 -244.875 291.953125 C-244.90335938 290.87546875 -244.93171875 289.7978125 -244.9609375 288.6875 C-243.984689 281.30772319 -239.86536763 275.97851588 -235 270.578125 C-233.9281754 269.35825741 -232.85656696 268.13819987 -231.78515625 266.91796875 C-230.96748779 265.99540283 -230.96748779 265.99540283 -230.13330078 265.05419922 C-227.5359086 262.11048809 -224.98778687 259.12512738 -222.4375 256.140625 C-221.94056641 255.56103027 -221.44363281 254.98143555 -220.93164062 254.38427734 C-217.15100311 249.97394433 -213.39368866 245.54427663 -209.65087891 241.10180664 C-207.26280868 238.27107184 -204.85798303 235.45701419 -202.42578125 232.6640625 C-188.62914851 217.84522058 -188.62914851 217.84522058 -182.5 199.203125 C-182.94164657 196.02757841 -183.69149658 192.94414254 -184.4375 189.828125 C-189.40041632 166.89573787 -184.1266603 148.68193288 -174.62988281 127.72314453 C-173.38547691 124.97625165 -172.15988469 122.22159636 -170.9375 119.46484375 C-166.86839959 110.33855273 -162.64176077 101.29838383 -158.19921875 92.34765625 C-157.80294281 91.54531555 -157.40666687 90.74297485 -156.99838257 89.9163208 C-137.53077156 51.17919045 -101.88357345 23.94135679 -61.16943359 10.4296875 C-41.43126329 4.1247096 -20.75604053 0.09884206 0 0 Z " fill="#FE7777" transform="translate(269.5,-0.203125)"/>
<path d="M0 0 C1.38471243 -0.0027073 2.76942297 -0.00659986 4.15412903 -0.01159668 C7.02733833 -0.01742802 9.90004359 -0.00913504 12.77319336 0.00976562 C16.42084955 0.03261767 20.06733184 0.01935335 23.71494579 -0.00452423 C26.56436225 -0.01910181 29.41350833 -0.01432334 32.26293373 -0.00401306 C34.25010079 -0.00012218 36.23727923 -0.01207252 38.22441101 -0.02453613 C52.60387325 0.12262666 63.56273914 4.51461712 74.14453125 14.15625 C80.6135169 20.94611787 83.67579596 29.34918965 86.45703125 38.15625 C91.0741529 52.74975125 98.72399583 61.23145304 112.08203125 68.34375 C136.54541853 81.86489103 156.27584751 101.49746797 164.3046875 128.88671875 C167.50683715 140.81656262 168.10078537 152.13403526 168.07055664 164.40234375 C168.07027425 166.00941465 168.07043351 167.61648569 168.07099915 169.22355652 C168.07128511 173.56799696 168.06542083 177.91240957 168.05842519 182.25684357 C168.05215823 186.80387734 168.05158521 191.3509118 168.05039978 195.89794922 C168.0472963 204.50022738 168.0390962 213.10249277 168.02905029 221.70476532 C168.01576439 233.33480338 168.0103813 244.96484495 168.00454807 256.59488869 C167.99515563 274.90701868 167.97523014 293.21912174 167.95703125 311.53125 C140.89703125 311.53125 113.83703125 311.53125 85.95703125 311.53125 C86.60277248 304.42809642 87.2314527 298.26955462 89.08203125 291.53125 C89.30157471 290.72220215 89.52111816 289.9131543 89.74731445 289.07958984 C93.65549466 275.09882204 98.99272413 261.92403472 105.4050293 248.91064453 C110.86195955 237.83079375 115.24866313 228.42823519 112.33203125 215.83203125 C108.05650443 203.67350186 98.59269473 196.27972347 88.66601562 188.83203125 C86.18617497 186.94451825 83.79185578 184.95951072 81.39453125 182.96875 C79.58223951 181.48932817 77.76973362 180.01016865 75.95703125 178.53125 C74.96445313 177.70625 73.971875 176.88125 72.94921875 176.03125 C67.30892703 171.43542429 61.56056698 167.48709428 55.08203125 164.15625 C54.20188354 163.69206665 54.20188354 163.69206665 53.30395508 163.21850586 C51.22184316 162.20163479 49.12410623 161.35301008 46.95703125 160.53125 C46.01400146 160.1693457 45.07097168 159.80744141 44.09936523 159.43457031 C32.16105364 155.56380137 19.99986442 155.92574285 7.55883789 156.00976562 C3.76709471 156.03126381 -0.0227664 156.0098538 -3.81445312 155.984375 C-6.2591187 155.98701757 -8.70378313 155.99214107 -11.1484375 156 C-12.8223481 155.98785461 -12.8223481 155.98785461 -14.53007507 155.97546387 C-23.25634317 156.07811572 -32.42560758 157.47696982 -39.60546875 162.84375 C-46.64974821 170.61051966 -45.50033039 179.81635351 -45.55419922 189.72119141 C-45.56994732 191.7231088 -45.60312659 193.72486501 -45.63671875 195.7265625 C-45.64380859 196.91266113 -45.65089844 198.09875977 -45.65820312 199.32080078 C-46.22513846 204.05125739 -48.39754832 207.49339964 -52.04296875 210.53125 C-55.80062583 211.78380236 -59.15747956 212.29840326 -63.04296875 211.53125 C-66.91730028 209.1903537 -69.60064047 206.85823484 -71.04296875 202.53125 C-71.3465701 196.83881348 -71.39935796 191.14675563 -71.44799805 185.44702148 C-71.46946394 183.56076623 -71.50342931 181.67460745 -71.55053711 179.78881836 C-71.90954924 165.26607491 -70.63891101 156.01615728 -61.04296875 144.53125 C-48.08096305 132.69415209 -28.84965281 129.20765872 -11.93359375 129.265625 C-10.68978943 129.26371155 -9.44598511 129.2617981 -8.16448975 129.25982666 C-4.87496814 129.25812558 -1.58563872 129.26610995 1.70385742 129.27734375 C5.01483553 129.28380026 8.32575819 129.26846394 11.63671875 129.2578125 C14.19661557 129.25913491 16.7565121 129.26169897 19.31640625 129.265625 C20.48975525 129.26157654 21.66310425 129.25752808 22.87200928 129.25335693 C49.12971665 129.39969803 66.36873567 140.38726136 87.5234375 154.59375 C88.20599609 155.05168945 88.88855469 155.50962891 89.59179688 155.98144531 C90.83298501 156.81833559 92.07030776 157.66100226 93.30273438 158.51074219 C99.84766373 162.97039075 105.09215016 164.47897432 112.95703125 163.53125 C117.69490684 162.17105065 120.29080179 159.51548783 122.89453125 155.40625 C125.72992995 149.6885089 126.01973318 144.46744202 124.36328125 138.33203125 C121.86773132 132.26645851 117.45347621 129.71340235 111.95703125 126.53125 C110.76517808 125.80233128 109.5751961 125.07034751 108.38671875 124.3359375 C89.20643359 112.54361403 71.80421693 106.19799843 49.00952148 106.27246094 C47.65615655 106.26974313 46.30279309 106.26617782 44.94943237 106.26184082 C41.31105301 106.25280913 37.67278847 106.25622228 34.03440738 106.26259899 C30.20523214 106.26770619 26.37606593 106.26295464 22.54689026 106.25982666 C16.12084205 106.25620109 9.69484001 106.2609494 3.26879883 106.27050781 C-4.13506758 106.28139429 -11.53882382 106.27785969 -18.94268757 106.266855 C-25.32862075 106.25774734 -31.71452098 106.25651365 -38.10045856 106.26173234 C-41.90182005 106.26483239 -45.70312993 106.26531588 -49.50448799 106.25865936 C-53.07921192 106.25283544 -56.65379526 106.25697394 -60.22850418 106.26844788 C-62.14784304 106.27230613 -64.06719395 106.26645245 -65.98652649 106.26019287 C-75.63713597 106.30681659 -84.8559799 106.85038767 -93.48046875 111.53125 C-94.44855469 112.046875 -95.41664062 112.5625 -96.4140625 113.09375 C-97.28160156 113.568125 -98.14914063 114.0425 -99.04296875 114.53125 C-100.373189 115.20410683 -101.70523734 115.873453 -103.04296875 116.53125 C-103.29046875 115.891875 -103.53796875 115.2525 -103.79296875 114.59375 C-104.81570149 112.4260581 -104.81570149 112.4260581 -106.66015625 111.92578125 C-111.1688108 111.17926632 -115.75583437 111.18146153 -120.31640625 111.0078125 C-124.17067075 110.51491914 -126.70265082 109.46511827 -130.04296875 107.53125 C-128.44503924 103.6688261 -125.82147362 100.94907198 -122.98046875 97.96875 C-119.37247876 94.11555108 -115.90703939 90.21768989 -112.60546875 86.09375 C-108.76251396 81.31583662 -104.67465546 76.84130016 -100.48681641 72.36962891 C-96.56390021 68.15695895 -92.92385851 63.76711445 -89.3203125 59.27734375 C-86.38087652 55.73287806 -83.25803312 52.37361811 -80.12207031 49.00488281 C-77.19132605 45.83755794 -74.42262003 42.5901825 -71.73046875 39.21875 C-52.51299195 15.49771424 -31.61270618 -0.1992171 0 0 Z " fill="#D23232" transform="translate(166.04296875,200.46875)"/>
<path d="M0 0 C1.3446618 -0.00463688 2.6893223 -0.00966268 4.03398132 -0.01504517 C7.66876304 -0.02809116 11.30352635 -0.03459928 14.93832779 -0.03905582 C17.21730032 -0.04200041 19.49626798 -0.04610782 21.77523804 -0.05056 C28.92891762 -0.06421704 36.08258587 -0.07389133 43.23627758 -0.07776189 C51.45026354 -0.0822324 59.66408226 -0.0997409 67.87801743 -0.12876248 C74.25544946 -0.15050049 80.63283487 -0.16047265 87.0103035 -0.16180301 C90.80578317 -0.16284281 94.60110527 -0.16857148 98.39654541 -0.18662262 C125.84498637 -0.30964581 146.36784196 2.70622128 170.2109375 17.09863281 C170.78632263 17.44107025 171.36170776 17.78350769 171.95452881 18.13632202 C179.52769303 22.6720797 185.68701841 26.46437555 188.5859375 35.16113281 C189.60821111 42.2135267 188.32488711 47.12419354 184.34765625 53.02050781 C181.16129304 56.89218639 178.35073127 58.68090725 173.26953125 59.56347656 C162.49851395 60.2545747 153.76137744 53.16634258 145.2734375 47.34863281 C143.42409818 46.10247312 141.57384026 44.85767554 139.72265625 43.61425781 C138.39693604 42.7219043 138.39693604 42.7219043 137.04443359 41.81152344 C119.2969595 29.89762821 103.62985212 24.86663603 82.19140625 24.82519531 C80.96037674 24.81853851 79.72934723 24.81188171 78.46101379 24.80502319 C75.87531004 24.79496906 73.28958071 24.79020391 70.70385742 24.79052734 C66.79366451 24.78615543 62.88460336 24.74975826 58.97460938 24.71191406 C39.7480783 24.62530048 18.56359918 25.36591811 3.5859375 39.16113281 C2.9259375 39.16113281 2.2659375 39.16113281 1.5859375 39.16113281 C1.3075 39.73992187 1.0290625 40.31871094 0.7421875 40.91503906 C-0.72182638 43.75898494 -2.44957936 46.38633092 -4.1953125 49.06347656 C-7.40991442 54.59630102 -7.72152731 59.1700244 -7.71484375 65.44238281 C-7.72127144 66.77903992 -7.72127144 66.77903992 -7.72782898 68.1427002 C-7.73355819 70.02204541 -7.73408295 71.9014128 -7.72973633 73.78076172 C-7.7265732 76.65142668 -7.7500638 79.52106364 -7.77539062 82.39160156 C-7.77766349 84.22102735 -7.77836717 86.0504559 -7.77734375 87.87988281 C-7.7865535 88.73521606 -7.79576324 89.59054932 -7.80525208 90.47180176 C-7.76039493 96.26428374 -6.76546322 99.63555426 -2.7265625 103.97363281 C0.67077568 105.71821188 3.88900412 105.69873468 7.5859375 105.16113281 C11.83356141 103.36769161 13.56853171 101.24958558 15.5859375 97.16113281 C16.02285373 93.91062873 16.02285373 93.91062873 15.95703125 90.39160156 C15.97443359 89.09029297 15.99183594 87.78898437 16.00976562 86.44824219 C16.01979877 84.40123564 16.02344233 82.35440307 16.02172852 80.30737305 C16.03937936 70.55587153 16.3157336 63.8583571 23.0859375 56.41113281 C31.24470527 50.34594313 41.58046405 49.55082386 51.375 49.59472656 C52.55830902 49.58852798 53.74161804 49.58232941 54.96078491 49.57594299 C57.44992254 49.56888398 59.93910777 49.57194962 62.42822266 49.5847168 C66.18092641 49.59852241 69.93110187 49.56451728 73.68359375 49.52636719 C100.41049352 49.44044854 119.03000306 56.1389011 139.5859375 73.16113281 C141.02307636 74.34126024 142.46059043 75.52093086 143.8984375 76.70019531 C146.11285339 78.51808307 148.32436584 80.3390164 150.52783203 82.17016602 C154.35580934 85.35048715 158.23302958 88.41863369 162.2109375 91.41113281 C168.93802269 96.77446478 174.91488253 104.55221569 176.5859375 113.16113281 C177.82913706 125.23570854 173.93680177 133.60006363 168.67797852 144.2019043 C158.75156224 164.23245644 152.58095728 184.18852404 148.5859375 206.16113281 C130.4359375 206.16113281 112.2859375 206.16113281 93.5859375 206.16113281 C92.5959375 200.55113281 91.6059375 194.94113281 90.5859375 189.16113281 C86.40821728 180.41706723 81.07370073 173.72296472 71.91430664 169.99731445 C64.85518178 167.5481945 57.84221788 167.60678686 50.46847343 167.64471245 C47.96510705 167.65750467 45.46281739 167.64590747 42.95948792 167.62867737 C38.54600498 167.60214122 34.13279235 167.59637541 29.71923828 167.59777832 C22.65413797 167.60001776 15.58937159 167.58560781 8.52440071 167.54219246 C6.07495658 167.53244708 3.6260525 167.54102039 1.17662048 167.55088806 C-11.86317665 167.53347281 -21.94803438 165.56058549 -32.0390625 156.91113281 C-40.80854945 146.75699003 -43.4673131 137.53759413 -42.66113281 124.26171875 C-41.75827905 116.58567748 -37.33309884 109.62078847 -33.4296875 103.09863281 C-30.83577186 98.15023991 -30.5233097 92.35396102 -32.015625 87.00488281 C-32.74869406 85.02041304 -33.55145836 83.09233611 -34.4140625 81.16113281 C-34.878125 79.98550781 -34.878125 79.98550781 -35.3515625 78.78613281 C-36.30622551 77.02105718 -36.30622551 77.02105718 -38.2265625 76.28613281 C-41.95821957 74.36699489 -44.54501273 70.89923236 -46.4140625 67.16113281 C-46.96663807 61.41434684 -46.01613521 58.63938537 -42.4140625 54.16113281 C-40.7848351 52.45784962 -39.12764893 50.77952 -37.4140625 49.16113281 C-37.87296875 48.82082031 -38.331875 48.48050781 -38.8046875 48.12988281 C-43.42610723 44.47934958 -46.7962439 40.93452467 -48.4140625 35.16113281 C-48.95636466 28.94125905 -46.81926996 24.42122355 -43.47265625 19.30175781 C-42.19285594 17.18145237 -42.19285594 17.18145237 -42.63671875 14.65332031 C-42.56324219 13.83089844 -42.48976563 13.00847656 -42.4140625 12.16113281 C-39.8515625 10.02832031 -39.8515625 10.02832031 -36.4140625 8.03613281 C-35.52037964 7.51684204 -35.52037964 7.51684204 -34.60864258 6.98706055 C-23.222476 0.50252054 -12.84922444 0.01152914 0 0 Z " fill="#FE7777" transform="translate(103.4140625,305.8388671875)"/>
<path d="M0 0 C4.35326221 2.30466823 7.35494517 4.85229482 10 9 C10.55214387 11.94381004 10.51042592 14.82866207 10.46875 17.81640625 C10.47579956 18.66871323 10.48284912 19.5210202 10.4901123 20.39915466 C10.51942858 24.02611234 10.50310711 27.65252523 10.49072266 31.27954102 C10.47699851 46.40766906 11.55099867 59.10833576 22 71 C30.65898934 79.24741032 40.01997405 83.14105719 51.86694336 83.15771484 C53.05081635 83.16533592 53.05081635 83.16533592 54.25860596 83.17311096 C55.97133722 83.18380027 57.68408232 83.19242608 59.39683342 83.19923019 C62.1185967 83.2110625 64.84020438 83.2305306 67.56190491 83.25234985 C75.30041215 83.31379018 83.03890559 83.36779971 90.77758789 83.40136719 C95.51562067 83.42246859 100.25337253 83.45790099 104.99124336 83.50212479 C106.78629786 83.51617144 108.5814021 83.52498125 110.37650871 83.52817917 C120.70425655 83.5485102 130.02552956 84.0640686 140 87 C140.69968399 87.19711578 141.39936798 87.39423157 142.12025452 87.59732056 C150.59972068 90.12158646 157.87075744 93.80553714 165 99 C165.91523438 99.65742188 166.83046875 100.31484375 167.7734375 100.9921875 C177.66561358 108.55679274 184.56026464 117.84018914 190.28515625 128.78515625 C190.67003708 129.51726822 191.05491791 130.24938019 191.45146179 131.00367737 C195.37637445 138.56886338 198.87786119 146.30903784 202.29516602 154.11401367 C203.3239313 156.46360792 204.36139722 158.80920978 205.40039062 161.15429688 C207.01593339 164.80797334 208.61090265 168.47002061 210.19247437 172.13851929 C210.89931914 173.7679139 211.62274235 175.39009618 212.34887695 177.01098633 C214.66962421 182.3785218 215.68298144 186.96166057 215.5625 192.8125 C215.55081787 193.58658203 215.53913574 194.36066406 215.52709961 195.15820312 C215.10415989 206.30445098 211.18745365 214.59189307 203.57421875 222.68359375 C196.67504411 228.89180401 188.93990836 233.61502991 181 238.375 C179.93910156 239.01566406 178.87820313 239.65632812 177.78515625 240.31640625 C175.19237082 241.88142088 172.59730939 243.44250911 170 245 C167.26252688 242.26252688 165.96101358 238.95114529 164.3125 235.5 C154.53896476 215.58051992 140.18707506 201.63126969 120.90087891 190.98071289 C105.41044494 182.37938632 96.55344437 172.34718703 91.18286133 155.33642578 C89.01312383 148.476264 86.61736957 142.6117041 82 137 C81.49984375 136.37738281 80.9996875 135.75476563 80.484375 135.11328125 C73.76119754 127.59050258 63.07343342 122.47542288 53.00488281 121.7986908 C49.28326648 121.70207115 45.56662867 121.67035519 41.84375 121.6640625 C40.45479196 121.65762001 39.06583522 121.65089063 37.67687988 121.64389038 C34.76860418 121.63195005 31.8604469 121.62820573 28.95214844 121.62939453 C25.26876911 121.62959648 21.58617212 121.60240997 17.90297699 121.56785011 C15.03203014 121.54533427 12.16126343 121.54156456 9.29023743 121.54261398 C7.28600306 121.5391778 5.28182493 121.51765943 3.27770996 121.49551392 C-14.89107328 121.58441111 -31.25105515 127.51332213 -45.109375 139.3984375 C-47 141 -47 141 -49 142 C-48.85925049 141.39921631 -48.71850098 140.79843262 -48.57348633 140.17944336 C-47.19928632 133.91045074 -46.64972066 127.97259207 -46.6875 121.5625 C-46.68878906 120.63800049 -46.69007812 119.71350098 -46.69140625 118.76098633 C-46.77247809 113.01451269 -47.53201385 108.17095491 -49.30859375 102.6953125 C-52.74950778 89.28157985 -48.4256262 76.5899936 -44 64 C-43.70585205 63.14212891 -43.4117041 62.28425781 -43.10864258 61.40039062 C-40.5485839 54.10965982 -37.45271869 47.12454253 -34.1875 40.125 C-33.65415039 38.97966797 -33.12080078 37.83433594 -32.57128906 36.65429688 C-14.42694426 -2.06099204 -14.42694426 -2.06099204 0 0 Z " fill="#FEC746" transform="translate(159,80)"/>
<path d="M0 0 C0.66 0 1.32 0 2 0 C2.01458252 0.6705542 2.02916504 1.3411084 2.04418945 2.03198242 C2.118883 5.08438822 2.21547299 8.13572585 2.3125 11.1875 C2.33505859 12.24259766 2.35761719 13.29769531 2.38085938 14.38476562 C2.41630859 15.40634766 2.45175781 16.42792969 2.48828125 17.48046875 C2.51446533 18.41785889 2.54064941 19.35524902 2.56762695 20.32104492 C3.20319238 24.25896671 4.99945481 26.92534035 7.6875 29.8125 C11.07620041 31.55264345 14.31059775 31.55855492 18 31 C20.80167287 29.73666727 20.80167287 29.73666727 23 28 C23.99 27.34 24.98 26.68 26 26 C26.07347656 27.68029297 26.07347656 27.68029297 26.1484375 29.39453125 C26.22347856 30.86721203 26.29902582 32.33986707 26.375 33.8125 C26.4059375 34.55048828 26.436875 35.28847656 26.46875 36.04882812 C26.67346148 39.81893115 26.86433827 41.79650741 29 45 C31.61580632 45.43670001 31.61580632 45.43670001 34.71557617 45.3371582 C35.91409714 45.33758621 37.1126181 45.33801422 38.34745789 45.3384552 C39.64947647 45.3260228 40.95149506 45.31359039 42.29296875 45.30078125 C43.64098023 45.30239387 44.98899071 45.30618361 46.33699036 45.3120575 C52.06474704 45.3338769 57.79211015 45.32308792 63.51977539 45.28491211 C67.02374684 45.2630351 70.52669837 45.27043272 74.03063393 45.2953701 C76.00642414 45.30068298 77.98221476 45.27300355 79.95780945 45.2447052 C86.58459991 45.29864857 91.00501929 45.53968863 95.8495636 50.31535339 C98.08319378 53.58617958 98.12553308 56.04570806 98 60 C96.29079537 64.27301158 94.06221816 65.98713762 90 68 C86.84651184 68.39440918 86.84651184 68.39440918 83.25708008 68.41992188 C82.27058472 68.43262619 82.27058472 68.43262619 81.26416016 68.44558716 C79.0990846 68.46890197 76.93472266 68.46998025 74.76953125 68.46875 C73.25363384 68.47585819 71.73773909 68.48355815 70.22184753 68.49182129 C67.04520192 68.50525578 63.86880471 68.50684106 60.69213867 68.50097656 C56.64484594 68.49510064 52.5987612 68.52558738 48.55170155 68.56609344 C45.41928318 68.5921062 42.28714975 68.59483534 39.15463829 68.59120178 C37.66405913 68.59288238 36.17346527 68.60242158 34.68299294 68.62034607 C24.78554305 68.72622351 16.38048768 68.07089666 8.86921692 60.99182129 C1.05061922 52.64265113 -0.15825521 44.88386406 -0.09765625 33.88671875 C-0.0962413 32.91716751 -0.09482635 31.94761627 -0.09336853 30.94868469 C-0.08778513 27.86159133 -0.07523564 24.77457133 -0.0625 21.6875 C-0.05748286 19.59049584 -0.05292032 17.49349054 -0.04882812 15.39648438 C-0.03782112 10.26429479 -0.02056788 5.13215982 0 0 Z " fill="#FEC546" transform="translate(93,380)"/>
</svg>
