<?xml version="1.0" encoding="UTF-8"?>
<svg version="1.1" xmlns="http://www.w3.org/2000/svg" width="512" height="512">
<path d="M0 0 C3.8561886 3.42973419 7.60748654 6.96367851 11.32470703 10.54296875 C11.84838867 11.04473633 12.37207031 11.54650391 12.91162109 12.06347656 C19.9298128 18.82093049 26.34457444 25.8323216 32.32470703 33.54296875 C33.02853516 34.42984375 33.73236328 35.31671875 34.45751953 36.23046875 C57.67960751 66.19445324 73.27904011 101.07010294 80.57470703 138.23046875 C80.8016626 139.38530762 80.8016626 139.38530762 81.03320312 140.56347656 C83.70420238 155.18908376 84.70830039 169.82094957 84.63720703 184.66796875 C84.63447281 185.86803558 84.63447281 185.86803558 84.63168335 187.09234619 C84.57963477 200.7528083 83.75995215 214.07721374 81.32470703 227.54296875 C81.15841797 228.48172852 80.99212891 229.42048828 80.82080078 230.38769531 C77.23927692 249.96005995 71.43876283 269.11748663 62.67504883 287.01293945 C60.87623815 290.77066437 60.18003059 292.59245165 61.32470703 296.54296875 C61.40756994 297.94695927 61.44257325 299.35431523 61.43823242 300.76074219 C61.43815689 301.58129089 61.43808136 302.4018396 61.43800354 303.24725342 C61.43284225 304.12343323 61.42768097 304.99961304 61.42236328 305.90234375 C61.42024086 307.25891083 61.42024086 307.25891083 61.41807556 308.6428833 C61.41248614 311.52627902 61.39993556 314.40959657 61.38720703 317.29296875 C61.38219066 319.24999888 61.377628 321.20703022 61.37353516 323.1640625 C61.36252016 327.95706128 61.34526278 332.75000177 61.32470703 337.54296875 C62.5510083 337.5272583 63.77730957 337.51154785 65.04077148 337.49536133 C69.58611495 337.44110264 74.13142973 337.40663346 78.67700195 337.37817383 C80.64514986 337.36307793 82.61326409 337.34259927 84.58129883 337.31665039 C87.40861315 337.28030226 90.23548313 337.26325061 93.06298828 337.25 C94.38499992 337.22677422 94.38499992 337.22677422 95.73371887 337.20307922 C96.55434311 337.20285263 97.37496735 337.20262604 98.22045898 337.20239258 C99.30300713 337.19239983 99.30300713 337.19239983 100.40742493 337.1822052 C103.00748537 337.67144308 103.82813727 338.36259145 105.32470703 340.54296875 C105.70565796 343.19934082 105.70565796 343.19934082 105.71289062 346.43554688 C105.72234711 347.64690308 105.73180359 348.85825928 105.74154663 350.10632324 C105.73243759 352.07043152 105.73243759 352.07043152 105.72314453 354.07421875 C105.72516554 355.43038082 105.72807721 356.78654184 105.73184204 358.1427002 C105.73626419 360.98407342 105.72983826 363.8251636 105.71582031 366.66650391 C105.698728 370.30848978 105.70856983 373.94981245 105.7265377 377.59177399 C105.73737878 380.39191687 105.73392782 383.19190255 105.72615433 385.99205017 C105.72318001 387.98790925 105.73229043 389.98377443 105.74154663 391.97961426 C105.73209015 393.19097046 105.72263367 394.40232666 105.71289062 395.65039062 C105.71050385 396.71833862 105.70811707 397.78628662 105.70565796 398.88659668 C105.32470703 401.54296875 105.32470703 401.54296875 104.05696106 403.38996887 C101.93469888 404.80256079 100.75794191 404.90696784 98.22045898 404.88354492 C96.98952263 404.88320503 96.98952263 404.88320503 95.73371887 404.88285828 C94.85237778 404.86737442 93.97103668 404.85189056 93.06298828 404.8359375 C92.15719528 404.83169266 91.25140228 404.82744781 90.31816101 404.82307434 C87.4242077 404.80627723 84.53094997 404.76862325 81.63720703 404.73046875 C79.67562854 404.71542324 77.71403915 404.7017346 75.75244141 404.68945312 C70.94292847 404.65637032 66.1339357 404.60458097 61.32470703 404.54296875 C61.34041748 405.76927002 61.35612793 406.99557129 61.37231445 408.2590332 C61.42657315 412.80437667 61.46104232 417.34969145 61.48950195 421.89526367 C61.50459785 423.86341158 61.52507651 425.83152581 61.55102539 427.79956055 C61.58737352 430.62687487 61.60442517 433.45374485 61.61767578 436.28125 C61.63315964 437.16259109 61.64864349 438.04393219 61.66459656 438.95198059 C61.66482315 439.77260483 61.66504974 440.59322906 61.6652832 441.4387207 C61.67527596 442.52126884 61.67527596 442.52126884 61.68547058 443.62568665 C61.19697798 446.22178628 60.49775938 447.04480156 58.32470703 448.54296875 C55.71302795 448.9306488 55.71302795 448.9306488 52.53979492 448.94702148 C51.35168716 448.95970566 50.16357941 448.97238983 48.93946838 448.98545837 C47.6550737 448.98252274 46.37067902 448.9795871 45.04736328 448.9765625 C43.72933212 448.98180435 42.41130096 448.9870462 41.05332947 448.9924469 C38.26323888 449.00138146 35.47343446 448.9989516 32.68334961 448.98901367 C29.11082068 448.97752775 25.53928073 448.99772607 21.96688175 449.02693081 C18.55615649 449.04970942 15.14566282 449.04282561 11.73486328 449.0390625 C10.45249283 449.05029648 9.17012238 449.06153046 7.84889221 449.07310486 C6.65763229 449.06372391 5.46637238 449.05434296 4.23901367 449.04467773 C3.19105118 449.04451157 2.14308868 449.0443454 1.06336975 449.04417419 C-2.40565306 448.40930481 -3.58605615 447.34734353 -5.67529297 444.54296875 C-6.15631104 442.543396 -6.15631104 442.543396 -6.12939453 440.41699219 C-6.12894135 439.21620026 -6.12894135 439.21620026 -6.128479 437.9911499 C-6.10783386 437.13684387 -6.08718872 436.28253784 -6.06591797 435.40234375 C-6.06025818 434.52016174 -6.05459839 433.63797974 -6.04876709 432.72906494 C-6.02640888 429.91647662 -5.97621429 427.1051708 -5.92529297 424.29296875 C-5.90522721 422.38413301 -5.88697658 420.47527726 -5.87060547 418.56640625 C-5.82654597 413.8914343 -5.75752281 409.21741883 -5.67529297 404.54296875 C-6.86606445 404.54820557 -8.05683594 404.55344238 -9.28369141 404.55883789 C-13.70425667 404.57694663 -18.12481865 404.58842228 -22.54541016 404.59790039 C-24.45817618 404.60292716 -26.37093837 404.60974952 -28.28369141 404.6184082 C-31.03402657 404.63054623 -33.7843109 404.63621365 -36.53466797 404.640625 C-37.388974 404.64578629 -38.24328003 404.65094757 -39.12347412 404.65626526 C-40.32426605 404.65637856 -40.32426605 404.65637856 -41.54931641 404.65649414 C-42.25102966 404.65871475 -42.95274292 404.66093536 -43.67572021 404.66322327 C-45.67529297 404.54296875 -45.67529297 404.54296875 -47.81384277 403.99926758 C-50.29884537 403.39011683 -51.33054565 404.00197582 -53.59716797 405.1328125 C-54.36262939 405.50116211 -55.12809082 405.86951172 -55.91674805 406.24902344 C-56.74456787 406.65540039 -57.5723877 407.06177734 -58.42529297 407.48046875 C-77.03851224 416.19573427 -96.45685892 421.96706062 -116.67529297 425.54296875 C-117.58585449 425.70667969 -118.49641602 425.87039063 -119.43457031 426.0390625 C-153.98331893 431.97186162 -189.89311819 429.28066445 -223.67529297 420.54296875 C-224.40586914 420.36040527 -225.13644531 420.1778418 -225.88916016 419.98974609 C-283.06410598 405.52910473 -334.68616002 364.87551901 -365.73779297 315.23046875 C-366.71001418 313.5968995 -367.68182238 311.96301305 -368.63769531 310.31982422 C-369.35889061 309.08479849 -370.08906367 307.85498937 -370.82617188 306.62939453 C-402.83278489 253.30222657 -410.61540633 186.2979721 -396.18310547 126.23828125 C-383.0832088 75.13273037 -353.58181315 27.06386316 -311.67529297 -5.45703125 C-310.74072266 -6.22015625 -309.80615234 -6.98328125 -308.84326172 -7.76953125 C-230.14243406 -70.81101579 -111.7239787 -75.69656856 0 0 Z " fill="#030303" transform="translate(404.67529296875,60.45703125)"/>
<path d="M0 0 C14.58494748 4.68801883 28.80935407 10.45865769 43.06240845 16.0581665 C48.11591216 18.04317843 53.1711494 20.02376306 58.2265625 22.00390625 C59.27562271 22.41481506 60.32468292 22.82572388 61.40553284 23.24908447 C72.86420275 27.73435042 84.33768216 32.18124542 95.8125 36.625 C115.03187215 44.06917497 134.23881206 51.54450009 153.43617249 59.04524231 C159.57396347 61.44334436 165.71256664 63.83935914 171.8515625 66.234375 C172.75014481 66.58494461 173.64872711 66.93551422 174.57453918 67.29670715 C176.37270039 67.99823157 178.17086221 68.6997544 179.96902466 69.40127563 C194.98274514 75.25885373 209.99432855 81.1218262 225 87 C224.81244141 87.61238525 224.62488281 88.22477051 224.43164062 88.85571289 C222.66152814 94.68716342 221.0042724 100.5320177 219.5 106.4375 C219.20029297 107.56188477 219.20029297 107.56188477 218.89453125 108.70898438 C214.99634109 124.04103803 213.35765166 140.01037874 211.4375 155.6875 C211.32950073 156.56220947 211.22150146 157.43691895 211.11022949 158.33813477 C209.1804124 174.10080656 207.93567917 189.828165 207.21777344 205.69140625 C207.06020565 208.08530606 206.81739474 210.47409871 206.52246094 212.85498047 C205.68857905 220.12421796 205.55199008 227.45061199 205.28125 234.7578125 C205.21815616 236.3905467 205.1547138 238.02326747 205.09094238 239.65597534 C204.92423697 243.94081741 204.76102406 248.22578418 204.59893799 252.51080322 C204.34027989 259.34521729 204.07819489 266.17949412 203.81248474 273.01363754 C203.72147909 275.37451414 203.63313921 277.73547935 203.54504395 280.09646606 C203.18975071 289.4117051 202.67526548 298.70210554 202 308 C140.34577505 303.01519032 84.95058924 274.72561769 43.76953125 228.49609375 C41.44019158 225.71700908 39.19962903 222.88177639 37 220 C36.27707764 219.05906494 36.27707764 219.05906494 35.53955078 218.09912109 C3.53901162 176.10651579 -12.19973504 127.09999784 -12.25 74.5 C-12.25133942 73.66572479 -12.25267883 72.83144958 -12.25405884 71.97189331 C-12.24947329 58.75807351 -11.47026129 46.00596936 -9 33 C-8.76799404 31.64870053 -8.53745311 30.29714845 -8.30859375 28.9453125 C-3.71974269 3.71974269 -3.71974269 3.71974269 0 0 Z " fill="#67BFDF" transform="translate(25,170)"/>
<path d="M0 0 C3.18643309 0.87583287 5.61275542 2.19221021 8.46337891 3.86523438 C9.57664551 4.51186035 10.68991211 5.15848633 11.83691406 5.82470703 C12.42514954 6.17027649 13.01338501 6.51584595 13.6194458 6.87188721 C16.76344262 8.71718785 19.92212002 10.53699828 23.08056641 12.35742188 C24.04781647 12.91559601 24.04781647 12.91559601 25.03460693 13.48504639 C31.25830108 17.06574573 37.55823595 20.49744234 43.88916016 23.88476562 C44.9493335 24.45203369 46.00950684 25.01930176 47.10180664 25.60375977 C49.24361633 26.74788957 51.38594935 27.89104024 53.52880859 29.03320312 C59.03145688 31.96972053 64.52266308 34.92746208 70.01416016 37.88476562 C71.6407959 38.76007935 71.6407959 38.76007935 73.30029297 39.65307617 C80.09282103 43.31110354 86.8707976 46.99474872 93.63916016 50.69726562 C101.94857216 55.24221369 110.28757348 59.73042807 118.63916016 64.19726562 C155.36977118 83.85095394 192.08363572 103.61134273 226.76416016 126.75976562 C226.60431641 127.62988281 226.44447266 128.5 226.27978516 129.39648438 C224.44625955 141.35607187 226.15243618 150.81744303 233.06884766 160.74023438 C235.61756143 163.77637498 238.40426469 165.67663044 241.76416016 167.75976562 C239.25562809 170.26829769 237.05436482 170.79832707 233.70166016 171.94726562 C224.53516041 175.42141967 218.06344145 179.69244463 213.69384766 188.64257812 C213.38705078 189.34125 213.08025391 190.03992188 212.76416016 190.75976562 C212.33103516 191.72914063 211.89791016 192.69851563 211.45166016 193.69726562 C209.23469158 203.57285293 211.26020373 212.01071846 216.51416016 220.50976562 C219.40121344 224.65174408 222.49214502 227.11111624 226.76416016 229.75976562 C226.16004957 236.32247221 224.06303538 242.14730348 221.85400391 248.33007812 C221.45524551 249.46235336 221.05648712 250.5946286 220.64564514 251.76121521 C219.56277265 254.83181802 218.47414074 257.90030046 217.38275146 260.96788406 C216.23381047 264.20149426 215.092222 267.43769905 213.94970703 270.67358398 C211.65161347 277.17826624 209.34477988 283.67982019 207.03533936 290.18048096 C205.54148843 294.38674685 204.05093678 298.5941757 202.56066895 302.80171204 C199.03817196 312.74506645 195.50014655 322.68283734 191.95507812 332.61816406 C190.35121391 337.11313506 188.7489095 341.60866009 187.14746094 346.10449219 C184.83164242 352.60576686 182.51433234 359.1065084 180.19604492 365.60690308 C179.28703489 368.15582441 178.37853524 370.70492677 177.47045898 373.25418091 C176.20631841 376.80205927 174.94053849 380.34934846 173.67431641 383.89648438 C173.29283951 384.96810822 172.91136261 386.03973206 172.51832581 387.14382935 C171.99431435 388.6102034 171.99431435 388.6102034 171.4597168 390.10620117 C171.15489883 390.96086472 170.85008087 391.81552826 170.536026 392.6960907 C169.76416016 394.75976563 169.76416016 394.75976563 168.76416016 396.75976562 C164.47416016 396.75976562 160.18416016 396.75976562 155.76416016 396.75976562 C159.48766675 254.76514533 159.48766675 254.76514533 171.13916016 200.94726562 C171.34831055 199.97660156 171.55746094 199.0059375 171.77294922 198.00585938 C173.2378338 191.47391502 175.15304276 185.48121903 177.76025391 179.31054688 C179.03049113 176.08305696 179.5237969 173.20497231 179.76416016 169.75976562 C170.95159308 165.51153022 161.88172137 162.0656549 152.73217773 158.63208008 C136.00544187 152.35013506 119.36390253 145.86924336 102.76416016 139.25976562 C87.80772637 133.30722853 72.82123518 127.4529907 57.76416016 121.75976562 C41.62910476 115.6583258 25.57567597 109.36717697 9.54681396 102.99224854 C-6.47206887 96.62218357 -22.53140643 90.3673004 -38.63500977 84.21459961 C-39.40895584 83.91864395 -40.18290192 83.62268829 -40.9803009 83.31776428 C-42.41591862 82.76912051 -43.8519199 82.22147891 -45.28837585 81.67503357 C-50.01519434 79.87008838 -50.01519434 79.87008838 -52.23583984 78.75976562 C-51.65288949 73.35032923 -49.80672492 69.04424982 -47.48583984 64.19726562 C-47.09243408 63.37444092 -46.69902832 62.55161621 -46.29370117 61.70385742 C-35.65165092 40.02575812 -21.27656939 20.70831277 -5.23583984 2.75976562 C-4.73181641 2.11652344 -4.22779297 1.47328125 -3.70849609 0.81054688 C-2.23583984 -0.24023438 -2.23583984 -0.24023438 0 0 Z " fill="#FDCDBE" transform="translate(81.23583984375,82.240234375)"/>
<path d="M0 0 C62.03285572 -0.9274015 117.75423672 26.59606377 161.88671875 68.7578125 C168.08072437 74.82223641 173.70420646 81.13974454 179 88 C179.62575928 88.8031665 179.62575928 88.8031665 180.26416016 89.62255859 C204.2860047 120.64001996 218.86896867 155.60725958 226 194 C226.21785156 195.16273438 226.43570313 196.32546875 226.66015625 197.5234375 C235.43265865 247.03933992 224.22560247 297.60884773 202 342 C201.3758168 342.01030746 200.75163361 342.02061493 200.10853577 342.03123474 C193.63645448 342.13906533 187.16451907 342.25368147 180.69262695 342.37231445 C178.27436361 342.41573878 175.8560681 342.45740812 173.43774414 342.49731445 C169.97011604 342.55483603 166.50265097 342.61858187 163.03515625 342.68359375 C161.40236473 342.70866249 161.40236473 342.70866249 159.73658752 342.73423767 C158.73562546 342.75418289 157.73466339 342.77412811 156.70336914 342.79467773 C155.81734512 342.81022202 154.93132111 342.8257663 154.01844788 342.84178162 C152.00362459 342.77981325 152.00362459 342.77981325 151 344 C150.83958807 347.10085221 150.74036598 350.18187579 150.68359375 353.28515625 C150.66281265 354.21597519 150.64203156 355.14679413 150.62062073 356.1058197 C150.55502069 359.09130182 150.49619198 362.07687484 150.4375 365.0625 C150.3943247 367.08138976 150.35071075 369.1002702 150.30664062 371.11914062 C150.19932871 376.07933297 150.09809112 381.03961709 150 386 C144.72 386 139.44 386 134 386 C135.27228406 379.76843613 136.93478326 373.94318652 139.140625 367.984375 C139.61282974 366.68693359 139.61282974 366.68693359 140.09457397 365.36328125 C141.14133376 362.49031695 142.19575773 359.62022608 143.25 356.75 C143.99592925 354.70629156 144.74119243 352.6623399 145.48583984 350.61816406 C146.6844749 347.32777487 147.88349528 344.03753207 149.08444214 340.74798584 C152.33567283 331.83970919 155.55998408 322.92195203 158.7734375 314 C159.01660706 313.32494667 159.25977661 312.64989334 159.51031494 311.95438385 C161.21573571 307.21977849 162.92042133 302.48490859 164.625 297.75 C166.00866203 293.90652078 167.39268035 290.06317269 168.7782135 286.22036743 C169.6517605 283.79548308 170.52325308 281.36985753 171.39256287 278.94345093 C173.2393655 273.80203567 175.10569333 268.67696829 177.11645508 263.59716797 C181.17962983 253.27272957 183.43616916 243.66850447 184.4375 232.625 C184.5912146 231.09174658 184.74543701 229.55854398 184.90014648 228.02539062 C187.69029524 199.37067113 185.74656311 175.27054831 167.32421875 151.75 C162.08639512 145.55264229 156.24457567 140.0917628 150.09765625 134.8125 C147.70082688 132.74149659 145.34999818 130.62396782 143 128.5 C140.04130249 125.82951656 137.07073528 123.17701942 134.0625 120.5625 C129.86835635 116.91062947 125.76905708 113.15733816 121.66015625 109.41015625 C118.80972966 106.82761116 115.92174108 104.29344897 113.01953125 101.76953125 C108.10263444 97.46130252 103.27360968 93.05313844 98.421875 88.671875 C93.99878599 84.68295423 89.55384995 80.72432093 85.0625 76.8125 C81.82624923 73.96852205 78.63591332 71.07387299 75.4375 68.1875 C73.30582519 66.27445851 71.1598089 64.38112388 69 62.5 C65.10487189 59.10746907 61.27217237 55.64805799 57.4375 52.1875 C55.30582519 50.27445851 53.1598089 48.38112388 51 46.5 C47.10487189 43.10746907 43.27217237 39.64805799 39.4375 36.1875 C37.30582519 34.27445851 35.1598089 32.38112388 33 30.5 C29.10487189 27.10746907 25.27217237 23.64805799 21.4375 20.1875 C19.30582519 18.27445851 17.1598089 16.38112388 15 14.5 C11.84217723 11.74255558 8.69513833 8.97354855 5.5625 6.1875 C4.71816406 5.43855469 3.87382812 4.68960937 3.00390625 3.91796875 C1 2 1 2 0 0 Z " fill="#67BEDE" transform="translate(250,13)"/>
<path d="M0 0 C1.67236328 1.25585938 1.67236328 1.25585938 3.3203125 2.84375 C3.93277832 3.42592285 4.54524414 4.0080957 5.17626953 4.60791016 C6.14089111 5.54449463 6.14089111 5.54449463 7.125 6.5 C8.47852421 7.78973706 9.83269091 9.0788002 11.1875 10.3671875 C11.84363281 10.99463867 12.49976563 11.62208984 13.17578125 12.26855469 C15.45410133 14.43100731 17.78031642 16.53483799 20.125 18.625 C24.52453906 22.55681398 28.85923946 26.55473822 33.18847656 30.56347656 C36.39373954 33.52782723 39.61954057 36.46563592 42.875 39.375 C47.75586014 43.74875779 52.54013604 48.22186264 57.32495117 52.69995117 C63.17846566 58.17567675 69.08211716 63.59393405 75 69 C86.7694905 79.76916196 98.49849637 90.57792719 110.12573242 101.50073242 C115.03523674 106.10800442 119.98641226 110.66572348 124.95703125 115.20703125 C133.14083022 122.70098744 141.21695084 130.31395589 149.29418945 137.92236328 C150.67114177 139.21449805 152.05243993 140.50201871 153.43823242 141.78466797 C156.21379125 144.35464247 158.91325607 146.90601603 161.48046875 149.6875 C165.99372913 154.42938708 168.96913009 155.42552313 175.5625 155.75 C176.8515625 155.77320313 178.140625 155.79640625 179.46875 155.8203125 C186.05335253 156.15536971 190.0081073 158.65372017 194.375 163.4375 C199.05849056 169.076004 199.5115251 174.65237025 199.3671875 181.7890625 C198.81494889 186.61821289 197.12159967 189.3642545 194 193 C193.37996094 193.73089844 192.75992187 194.46179688 192.12109375 195.21484375 C189.79550177 197.85736724 187.4016075 200.42634752 185 203 C183.89962955 204.21356484 182.80075443 205.42848668 181.703125 206.64453125 C180.55244101 207.90917971 179.4014011 209.17350441 178.25 210.4375 C177.70730469 211.04094238 177.16460937 211.64438477 176.60546875 212.26611328 C171.76816237 217.52980385 167.48752819 220.55124718 160.265625 221.2734375 C153.07615836 221.5155698 148.44682349 220.83891908 143 216 C137.35590015 210.58267202 134.95826012 205.77731439 134.75 197.875 C134.72760802 194.28108695 135.2915518 192.1419737 137 189 C137.75060849 186.08617271 137.75060849 186.08617271 137 183 C132.89205397 178.52060693 127.53614573 175.17784135 122.4375 171.9375 C121.71062988 171.4719873 120.98375977 171.00647461 120.23486328 170.52685547 C86.07097706 148.83447403 50.07943933 129.85376287 14.38916016 110.81152344 C7.84407665 107.31314283 1.31396472 103.78695655 -5.21826172 100.26464844 C-10.75065181 97.2831609 -16.28724238 94.3099366 -21.83203125 91.3515625 C-45.75332386 78.58581619 -69.51925592 65.56265903 -93 52 C-93 51.34 -93 50.68 -93 50 C-90.03421769 47.24223849 -86.81617137 44.78819657 -83.63378906 42.28515625 C-82.56252179 41.44248576 -81.49405016 40.59624637 -80.42871094 39.74609375 C-72.29205623 33.25305347 -63.87253833 27.44798931 -55 22 C-54.25935303 21.5359375 -53.51870605 21.071875 -52.75561523 20.59375 C-46.51471933 16.74671576 -40.11199929 13.52441632 -33.4375 10.5 C-32.39625977 10.0265918 -31.35501953 9.55318359 -30.28222656 9.06542969 C-24.01211759 6.25322895 -17.7136247 3.58605972 -11.25 1.25 C-10.56607178 0.99798828 -9.88214355 0.74597656 -9.17749023 0.48632812 C-5.67967544 -0.71787424 -3.48542591 -1.26912657 0 0 Z " fill="#FDFDFD" transform="translate(181,23)"/>
<path d="M0 0 C2.05689587 1.8102356 3.8802483 3.73694208 5.734375 5.75390625 C7.38760559 7.26870207 9.05497062 8.76818128 10.734375 10.25390625 C12.0028125 11.39859375 12.0028125 11.39859375 13.296875 12.56640625 C15.42854981 14.47944774 17.5745661 16.37278237 19.734375 18.25390625 C23.62950311 21.64643718 27.46220263 25.10584826 31.296875 28.56640625 C33.42854981 30.47944774 35.5745661 32.37278237 37.734375 34.25390625 C41.62950311 37.64643718 45.46220263 41.10584826 49.296875 44.56640625 C52.07343846 47.05819397 54.88148245 49.511448 57.6953125 51.9609375 C59.93727313 53.93231668 62.14823303 55.93553316 64.359375 57.94140625 C68.33982307 61.53841666 72.39490631 65.03271821 76.484375 68.50390625 C82.09421879 73.27304195 87.52292385 78.20729299 92.89648438 83.24023438 C96.4765101 86.59269888 100.09939133 89.87669812 103.8125 93.08203125 C106.14542574 95.11148698 108.43948745 97.18155325 110.734375 99.25390625 C114.35869658 102.52463548 118.01320678 105.75559845 121.6953125 108.9609375 C123.93727313 110.93231668 126.14823303 112.93553316 128.359375 114.94140625 C131.74836608 118.0044333 135.1831516 121.00000886 138.66699219 123.95361328 C145.12390371 129.42779509 151.38018141 135.07163143 157.53417969 140.88452148 C160.67851491 143.85191534 163.84639509 146.73809615 167.171875 149.50390625 C180.77611215 161.40394091 189.50840631 179.73277014 191.07421875 197.640625 C191.44319235 207.43710759 190.37630757 217.26093564 189.484375 227.00390625 C189.37536865 228.24664307 189.2663623 229.48937988 189.15405273 230.76977539 C187.68466153 245.30298777 182.87614812 258.52416407 177.85159302 272.1295166 C176.08500253 276.91337822 174.33496969 281.70331048 172.58203125 286.4921875 C172.20225632 287.52826141 171.82248138 288.56433533 171.43119812 289.63180542 C168.29449119 298.19757534 165.19433249 306.7762739 162.10546875 315.359375 C161.86528519 316.02659639 161.62510162 316.69381779 161.37763977 317.38125801 C159.21797124 323.38094412 157.05932706 329.3809979 154.90362549 335.3821106 C148.97374784 351.88808014 142.94600391 368.3517172 136.734375 384.75390625 C129.296875 385.19140625 129.296875 385.19140625 126.95141602 385.32202148 C123.55276419 385.25186204 123.55276419 385.25186204 120.734375 386.75390625 C120.62775692 388.16451552 120.58819116 389.58028725 120.57666016 390.99487305 C120.56639801 391.89638596 120.55613586 392.79789886 120.54556274 393.72673035 C120.53826141 394.70894058 120.53096008 395.69115082 120.5234375 396.703125 C120.4953575 398.76888798 120.46669297 400.83464308 120.4375 402.90039062 C120.39629765 406.16788418 120.35942491 409.43523247 120.33300781 412.70288086 C120.30534448 415.84910824 120.25945736 418.99465928 120.2109375 422.140625 C120.20768463 423.11271408 120.20443176 424.08480316 120.20108032 425.08634949 C120.10619269 430.34021135 119.81754827 434.28719579 116.734375 438.75390625 C114.89672852 440.15356445 114.89672852 440.15356445 112.86328125 441.0546875 C111.75436523 441.56032227 111.75436523 441.56032227 110.62304688 442.07617188 C109.4715918 442.56633789 109.4715918 442.56633789 108.296875 443.06640625 C107.53310547 443.41251953 106.76933594 443.75863281 105.98242188 444.11523438 C102.59046734 445.62965794 99.36486678 446.92872541 95.734375 447.75390625 C96.43206319 441.38526538 98.10274033 435.40473529 99.859375 429.25390625 C100.17140869 428.14877686 100.48344238 427.04364746 100.80493164 425.9050293 C102.83538198 418.7625137 104.97364956 411.65875829 107.171875 404.56640625 C109.84361876 395.93128258 112.24777126 387.24530217 114.546875 378.50390625 C117.51081373 367.23948259 120.5932588 356.01514997 123.796875 344.81640625 C124.00957031 344.07273804 124.22226562 343.32906982 124.44140625 342.56286621 C127.3195059 332.5185836 130.28066738 322.50356097 133.39819336 312.53051758 C134.76326267 308.1243432 136.01753387 303.72360235 137.09765625 299.23828125 C137.31252686 298.35591797 137.52739746 297.47355469 137.7487793 296.56445312 C138.14239951 294.91379785 138.51891676 293.25892414 138.87426758 291.59960938 C139.69546144 288.1450109 140.23886531 286.14518519 143.07421875 283.90625 C143.95207031 283.52597656 144.82992187 283.14570313 145.734375 282.75390625 C155.28637314 277.62216716 161.1671039 272.26796844 164.734375 261.75390625 C164.79625 260.45453125 164.858125 259.15515625 164.921875 257.81640625 C165.35672222 253.0053306 168.24505975 250.95133473 171.6640625 247.8203125 C180.14755674 239.35282486 181.09512052 228.30935769 181.109375 216.94140625 C181.13386719 215.92498047 181.15835938 214.90855469 181.18359375 213.86132812 C181.22306021 203.54084793 178.45228001 194.73837391 171.78515625 186.7578125 C167.13967131 182.21851007 161.71102067 179.24212856 155.484375 177.50390625 C150.81450521 175.94104401 149.46247548 172.39755245 147.21484375 168.2578125 C143.13329812 161.35472345 136.35058947 157.73129717 128.734375 155.75390625 C126.73591501 155.65358725 124.73518648 155.59209061 122.734375 155.56640625 C115.24167215 155.16295302 111.65079197 151.02863835 106.734375 145.75390625 C105.36317507 144.37511665 103.98839348 142.99987599 102.609375 141.62890625 C101.96871094 140.97792969 101.32804688 140.32695312 100.66796875 139.65625 C98.10514248 137.13484314 95.3932538 134.8115389 92.66796875 132.46875 C90.20273827 130.28241428 87.91508863 127.94770267 85.60839844 125.59667969 C83.80420437 123.82257119 81.94598831 122.16450247 80.02734375 120.515625 C75.76188713 116.80674531 71.6466929 112.95656355 67.546875 109.06640625 C60.83856561 102.72703923 54.08972864 96.435877 47.29492188 90.18945312 C44.60463723 87.71466061 41.91984884 85.23391646 39.234375 82.75390625 C38.15106661 81.75387923 37.06773331 80.75387919 35.984375 79.75390625 C16.484375 61.75390625 16.484375 61.75390625 14.85913086 60.25366211 C13.77663629 59.25444887 12.69411679 58.25526263 11.61157227 57.25610352 C8.89019992 54.7442879 6.16927305 52.23199292 3.44921875 49.71875 C-3.28060869 43.50159502 -10.02427397 37.29989432 -16.78173828 31.11279297 C-18.27546166 29.74489821 -19.76868865 28.37646391 -21.26171875 27.0078125 C-21.75808838 26.55293457 -22.25445801 26.09805664 -22.76586914 25.62939453 C-23.75922253 24.71834895 -24.75190777 23.80657428 -25.74389648 22.89404297 C-28.35216032 20.49665639 -30.97377081 18.11642433 -33.6171875 15.7578125 C-34.16503906 15.26539062 -34.71289062 14.77296875 -35.27734375 14.265625 C-36.80373111 12.89446348 -38.33530718 11.52908447 -39.8671875 10.1640625 C-42.03184877 7.98882471 -43.014896 6.47483451 -44.265625 3.75390625 C-40.74519801 3.10584505 -37.22421376 2.46086138 -33.703125 1.81640625 C-32.71248047 1.63400391 -31.72183594 1.45160156 -30.70117188 1.26367188 C-5.93153126 -3.26234219 -5.93153126 -3.26234219 0 0 Z " fill="#FCCBBC" transform="translate(236.265625,14.24609375)"/>
<path d="M0 0 C3.75149156 3.08645442 6.55533819 7.08723887 8.71875 11.4140625 C9.40253719 20.07975018 8.64525003 25.75334024 4.03125 33.1015625 C-0.8185868 37.9513993 -6.77774479 39.63324744 -13.28125 41.4140625 C-13.48878906 42.30222656 -13.69632812 43.19039063 -13.91015625 44.10546875 C-15.84115312 52.11223819 -18.02311859 59.99330831 -20.46484375 67.859375 C-24.08649731 79.64865186 -27.48786401 91.49481184 -30.83349609 103.36499023 C-31.77795544 106.71487709 -32.72660444 110.06355651 -33.67578125 113.41210938 C-37.17176108 125.77219198 -40.59069174 138.1497799 -43.8828125 150.56587219 C-46.15323363 159.08883368 -48.6765713 167.51214874 -51.3828125 175.90625 C-52.72576084 180.25371336 -53.78853657 184.60038673 -54.73458862 189.04595947 C-60.10034246 214.16141664 -60.10034246 214.16141664 -65.31640625 219.49511719 C-70.05699538 222.34153179 -75.01889922 222.89249226 -80.46044922 223.20410156 C-83.42663598 223.42488403 -86.21750147 223.92782503 -89.12890625 224.53125 C-100.13071255 226.79648812 -111.05525572 228.0881991 -122.28125 228.4140625 C-120.09318334 219.44655602 -117.04184111 210.84866394 -113.90335083 202.18270874 C-112.23137501 197.56510733 -110.57420672 192.94217776 -108.9140625 188.3203125 C-108.36955193 186.80633125 -108.36955193 186.80633125 -107.81404114 185.26176453 C-103.42608698 173.05375818 -99.09429043 160.8258278 -94.76052856 148.59851074 C-93.34547951 144.60613286 -91.92956607 140.61406193 -90.51342773 136.62207031 C-90.28085738 135.96646244 -90.04828703 135.31085457 -89.80866909 134.63537979 C-89.3408504 133.31661912 -88.87302961 131.9978592 -88.40520668 130.67910004 C-87.48030957 128.07180713 -86.55550729 125.46448058 -85.63071346 122.85715103 C-84.5142532 119.70944508 -83.39775082 116.56175407 -82.28125 113.4140625 C-81.86051208 112.2278833 -81.43977417 111.0417041 -81.00628662 109.81958008 C-78.69597123 103.30659126 -76.38466959 96.79395422 -74.07174683 90.28189087 C-73.38463048 88.34678019 -72.69787612 86.41154094 -72.01150513 84.47616577 C-71.07629924 81.83925124 -70.13987194 79.20277365 -69.203125 76.56640625 C-68.93336349 75.80487244 -68.66360199 75.04333862 -68.38566589 74.25872803 C-67.35017639 71.34787212 -66.3011123 68.4614439 -65.10644531 65.61157227 C-64.05316116 62.80665788 -64.14315682 60.38306594 -64.28125 57.4140625 C-65.01730469 57.06214844 -65.75335938 56.71023438 -66.51171875 56.34765625 C-74.14527011 52.48550279 -78.12699728 49.23548525 -81.59375 41.4765625 C-83.24639128 34.11479679 -82.32394154 29.61559667 -79.15625 22.90625 C-73.8146552 15.80638024 -66.19650933 12.86478718 -58.01953125 10.109375 C-56.95188034 9.74053192 -55.88422943 9.37168884 -54.78422546 8.9916687 C-52.5351866 8.21980338 -50.28355873 7.45544496 -48.02954102 6.69824219 C-44.61265005 5.54543907 -41.20989179 4.35644247 -37.80664062 3.1640625 C-35.60753064 2.41443399 -33.4076824 1.66696703 -31.20703125 0.921875 C-30.20553543 0.56884308 -29.20403961 0.21581116 -28.17219543 -0.1479187 C-19.26016297 -3.08421822 -8.51791331 -5.01690657 0 0 Z " fill="#FDFDFD" transform="translate(383.28125,249.5859375)"/>
<path d="M0 0 C15.18 0 30.36 0 46 0 C46.33 14.19 46.66 28.38 47 43 C50.38116904 44.69058452 54.22195698 44.24452612 57.9453125 44.31640625 C58.72962646 44.33505737 59.51394043 44.3537085 60.32202148 44.3729248 C63.25623136 44.44130382 66.19062952 44.50140059 69.125 44.5625 C78.963125 44.7790625 78.963125 44.7790625 89 45 C89 59.85 89 74.7 89 90 C69.125 90.4375 69.125 90.4375 62.85205078 90.56811523 C61.21646253 90.60623109 59.58088243 90.64469961 57.9453125 90.68359375 C56.66515259 90.7083075 56.66515259 90.7083075 55.35913086 90.73352051 C51.04250314 90.71887235 51.04250314 90.71887235 47 92 C46.67 106.19 46.34 120.38 46 135 C30.82 135 15.64 135 0 135 C-0.375 114.125 -0.375 114.125 -0.47802734 107.53564453 C-0.51322267 105.8180178 -0.54914273 104.10040571 -0.5859375 102.3828125 C-0.59729736 101.48618896 -0.60865723 100.58956543 -0.62036133 99.66577148 C-0.64042236 98.81329834 -0.6604834 97.9608252 -0.68115234 97.08251953 C-0.69447601 96.34083527 -0.70779968 95.599151 -0.7215271 94.83499146 C-0.85199729 92.7526636 -0.85199729 92.7526636 -3 91 C-4.85536424 90.67110612 -4.85536424 90.67110612 -6.99072266 90.68115234 C-7.82289307 90.66109131 -8.65506348 90.64103027 -9.51245117 90.62036133 C-10.82499878 90.60332153 -10.82499878 90.60332153 -12.1640625 90.5859375 C-12.96803467 90.56829346 -13.77200684 90.55064941 -14.6003418 90.5324707 C-17.60835641 90.4693259 -20.61670869 90.42319296 -23.625 90.375 C-30.34875 90.25125 -37.0725 90.1275 -44 90 C-44 75.15 -44 60.3 -44 45 C-23.625 44.625 -23.625 44.625 -17.19384766 44.52197266 C-15.51723617 44.48677691 -13.84063967 44.45085681 -12.1640625 44.4140625 C-10.85151489 44.39702271 -10.85151489 44.39702271 -9.51245117 44.37963867 C-8.68028076 44.35957764 -7.84811035 44.3395166 -6.99072266 44.31884766 C-6.26680328 44.30552399 -5.54288391 44.29220032 -4.79702759 44.2784729 C-2.74846505 44.14212079 -2.74846505 44.14212079 -1 42 C-0.67087115 40.10388475 -0.67087115 40.10388475 -0.68115234 37.91748047 C-0.66109131 37.06500732 -0.64103027 36.21253418 -0.62036133 35.33422852 C-0.60900146 34.43760498 -0.5976416 33.54098145 -0.5859375 32.6171875 C-0.56829346 31.79355713 -0.55064941 30.96992676 -0.5324707 30.12133789 C-0.46932024 27.03942525 -0.42319122 23.95718285 -0.375 20.875 C-0.25125 13.98625 -0.1275 7.0975 0 0 Z " fill="#4DB6A1" transform="translate(410,364)"/>
<path d="M0 0 C6 2 12 4 18 6 C17.54753906 6.66773438 17.09507813 7.33546875 16.62890625 8.0234375 C14.7521805 11.45285003 13.81463815 14.84990132 12.9375 18.625 C12.68154053 19.69657349 12.68154053 19.69657349 12.42041016 20.78979492 C11.07603261 26.49986166 9.84159975 32.19145887 9 38 C8.814375 39.23363281 8.62875 40.46726563 8.4375 41.73828125 C0.46393984 100.8993716 14.65120684 164.58814314 50 213 C50.39896484 213.54769043 50.79792969 214.09538086 51.20898438 214.65966797 C62.59188163 230.13472595 75.17532327 244.78705841 90.23046875 256.7890625 C92.04519001 258.23776804 93.84055226 259.71113988 95.61328125 261.2109375 C116.315273 278.69261943 140.46287178 290.6912999 165.74536133 300.0612793 C168 301 168 301 171 303 C163.67278404 302.45217077 157.16180687 300.77250266 150.1875 298.5 C148.54261597 297.96596558 148.54261597 297.96596558 146.86450195 297.42114258 C104.274162 283.23878498 64.33343771 255.81006364 37 220 C36.27707764 219.05906494 36.27707764 219.05906494 35.53955078 218.09912109 C3.53901162 176.10651579 -12.19973504 127.09999784 -12.25 74.5 C-12.25133942 73.66572479 -12.25267883 72.83144958 -12.25405884 71.97189331 C-12.24947329 58.75807351 -11.47026129 46.00596936 -9 33 C-8.76799404 31.64870053 -8.53745311 30.29714845 -8.30859375 28.9453125 C-3.71974269 3.71974269 -3.71974269 3.71974269 0 0 Z " fill="#3181A0" transform="translate(25,170)"/>
<path d="M0 0 C-3.20054396 2.13369597 -6.32469009 3.21958337 -9.94140625 4.390625 C-11.34454602 4.85763756 -12.74753591 5.3251006 -14.15039062 5.79296875 C-16.34480757 6.51964852 -18.54019884 7.24274893 -20.73852539 7.95751953 C-37.39465308 13.01638877 -37.39465308 13.01638877 -49.16015625 25.0703125 C-52.28425344 32.2484707 -52.33614253 41.61597441 -49.5 48.875 C-46.1985382 55.26644206 -40.25762464 59.67563691 -34 63 C-35.94103697 70.52912473 -38.24516448 77.83680856 -40.89453125 85.14453125 C-41.27441696 86.20346588 -41.65430267 87.26240051 -42.04570007 88.35342407 C-43.29761801 91.84111801 -44.5551356 95.32676633 -45.8125 98.8125 C-47.3890001 103.20008187 -48.96338341 107.58842223 -50.53757858 111.97683144 C-51.24421028 113.94621169 -51.95137032 115.91540163 -52.65859985 117.88456726 C-56.05883386 127.35534515 -59.43333273 136.83506213 -62.79296875 146.3203125 C-63.03068623 146.99140108 -63.2684037 147.66248966 -63.51332474 148.35391426 C-64.70466053 151.71741346 -65.89564042 155.08103856 -67.08642578 158.44473267 C-73.89738116 177.68368436 -80.71066255 196.92079874 -87.765625 216.07202148 C-88.18972656 217.22645752 -88.61382812 218.38089355 -89.05078125 219.5703125 C-89.40825439 220.53727051 -89.76572754 221.50422852 -90.1340332 222.50048828 C-90.88115372 224.65696413 -91.4936665 226.77657813 -92 229 C-98.43028541 230.32388229 -104.4294834 231.24794402 -111 231 C-108.81193334 222.03249352 -105.76059111 213.43460144 -102.62210083 204.76864624 C-100.95012501 200.15104483 -99.29295672 195.52811526 -97.6328125 190.90625 C-97.08830193 189.39226875 -97.08830193 189.39226875 -96.53279114 187.84770203 C-92.14483698 175.63969568 -87.81304043 163.4117653 -83.47927856 151.18444824 C-82.06422951 147.19207036 -80.64831607 143.19999943 -79.23217773 139.20800781 C-78.99960738 138.55239994 -78.76703703 137.89679207 -78.52741909 137.22131729 C-78.0596004 135.90255662 -77.59177961 134.5837967 -77.12395668 133.26503754 C-76.19905957 130.65774463 -75.27425729 128.05041808 -74.34946346 125.44308853 C-73.2330032 122.29538258 -72.11650082 119.14769157 -71 116 C-70.57926208 114.8138208 -70.15852417 113.6276416 -69.72503662 112.40551758 C-67.41472123 105.89252876 -65.10341959 99.37989172 -62.79049683 92.86782837 C-62.10338048 90.93271769 -61.41662612 88.99747844 -60.73025513 87.06210327 C-59.79504924 84.42518874 -58.85862194 81.78871115 -57.921875 79.15234375 C-57.65211349 78.39080994 -57.38235199 77.62927612 -57.10441589 76.84466553 C-56.06892639 73.93380962 -55.0198623 71.0473814 -53.82519531 68.19750977 C-52.77191116 65.39259538 -52.86190682 62.96900344 -53 60 C-53.73605469 59.64808594 -54.47210938 59.29617188 -55.23046875 58.93359375 C-62.86402011 55.07144029 -66.84574728 51.82142275 -70.3125 44.0625 C-71.96514128 36.70073429 -71.04269154 32.20153417 -67.875 25.4921875 C-62.48445236 18.32725126 -54.82211304 15.43607442 -46.5625 12.6953125 C-45.48299072 12.32646942 -44.40348145 11.95762634 -43.29125977 11.5776062 C-41.02113403 10.80598418 -38.74853034 10.04161789 -36.47363281 9.28417969 C-33.00387561 8.12629332 -29.54481515 6.93994031 -26.0859375 5.75 C-23.8703715 5.00088707 -21.65424337 4.25343421 -19.4375 3.5078125 C-18.41019775 3.15478058 -17.38289551 2.80174866 -16.32446289 2.4380188 C-10.6403114 0.56595382 -5.98581288 -0.39946938 0 0 Z " fill="#CACAC3" transform="translate(372,247)"/>
<path d="M0 0 C3.58199256 1.22113383 6.51567932 2.97154037 9.75 4.9375 C7.03852886 8.57657968 4.32825615 12.20685873 1.51171875 15.765625 C-13.35485295 34.63929497 -25.73701062 55.52547085 -34.1640625 78.07421875 C-35.25 80.9375 -35.25 80.9375 -37.25 84.9375 C-42.2 82.9575 -47.15 80.9775 -52.25 78.9375 C-51.30527231 73.26913388 -49.92698072 69.44355651 -47.5 64.375 C-47.10659424 63.55217529 -46.71318848 62.72935059 -46.30786133 61.8815918 C-40.70036086 50.45898534 -15.01498411 -0.41708289 0 0 Z " fill="#FBAD9C" transform="translate(81.25,82.0625)"/>
<path d="M0 0 C8.29283691 2.31428007 11.55988465 6.45186416 15.765625 13.66015625 C18.60379273 19.04010078 18.25676181 24.17959277 18.3125 30.125 C18.34150391 31.13304687 18.37050781 32.14109375 18.40039062 33.1796875 C18.46797972 41.20719176 17.13427759 47.43040608 11.75 53.5625 C11.1725 54.036875 10.595 54.51125 10 55 C9.59910156 54.34773438 9.19820313 53.69546875 8.78515625 53.0234375 C3.57073585 45.00670953 -2.44528471 39.23620996 -12 37 C-14.666276 36.5871886 -17.31417481 36.27784399 -20 36 C-18.51923722 32.48712661 -16.53694424 30.44391799 -13.75 27.875 C-7.13230484 21.41715255 -1.33422139 13.11984371 -0.375 3.6875 C-0.25125 2.470625 -0.1275 1.25375 0 0 Z " fill="#C8C8C2" transform="translate(390,201)"/>
<path d="M0 0 C5.94 0 11.88 0 18 0 C18 14.85 18 29.7 18 45 C12.06 45 6.12 45 0 45 C0 30.15 0 15.3 0 0 Z " fill="#218E79" transform="translate(366,409)"/>
<path d="M0 0 C0.33 0 0.66 0 1 0 C1 13.53 1 27.06 1 41 C-14.18 41 -29.36 41 -45 41 C-45 27.8 -45 14.6 -45 1 C-39.06 1 -33.12 1 -27 1 C-27 13.87 -27 26.74 -27 40 C-18.09 40 -9.18 40 0 40 C0 26.8 0 13.6 0 0 Z " fill="#218773" transform="translate(455,458)"/>
<path d="M0 0 C15.18 0 30.36 0 46 0 C46 13.53 46 27.06 46 41 C45.67 41 45.34 41 45 41 C45 27.8 45 14.6 45 1 C36.09 1 27.18 1 18 1 C18 13.87 18 26.74 18 40 C12.06 40 6.12 40 0 40 C0 26.8 0 13.6 0 0 Z " fill="#208672" transform="translate(410,364)"/>
<path d="M0 0 C-2.29412254 2.57158142 -4.48928938 3.86995361 -7.62109375 5.27734375 C-8.54647949 5.70192871 -9.47186523 6.12651367 -10.42529297 6.56396484 C-11.41932129 7.01723145 -12.41334961 7.47049805 -13.4375 7.9375 C-36.54408737 18.7679202 -56.46613492 32.52203728 -75 50 C-77.64626044 52.3581761 -80.31967331 54.68048651 -83 57 C-86.3 55.35 -89.6 53.7 -93 52 C-93 51.34 -93 50.68 -93 50 C-90.03421769 47.24223849 -86.81617137 44.78819657 -83.63378906 42.28515625 C-82.56252179 41.44248576 -81.49405016 40.59624637 -80.42871094 39.74609375 C-72.29205623 33.25305347 -63.87253833 27.44798931 -55 22 C-54.25935303 21.5359375 -53.51870605 21.071875 -52.75561523 20.59375 C-46.51471933 16.74671576 -40.11199929 13.52441632 -33.4375 10.5 C-32.39625977 10.0265918 -31.35501953 9.55318359 -30.28222656 9.06542969 C-24.01211759 6.25322895 -17.7136247 3.58605972 -11.25 1.25 C-10.56607178 0.99798828 -9.88214355 0.74597656 -9.17749023 0.48632812 C-5.79963474 -0.67657551 -3.38637946 -1.40243998 0 0 Z " fill="#C8C8C1" transform="translate(181,23)"/>
<path d="M0 0 C0.33 0 0.66 0 1 0 C1 14.85 1 29.7 1 45 C-4.28 45 -9.56 45 -15 45 C-13.74284831 38.86541801 -12.13104693 33.11414589 -9.9609375 27.24609375 C-9.67521881 26.45977066 -9.38950012 25.67344757 -9.09512329 24.86329651 C-8.19365381 22.38608279 -7.28448144 19.91178191 -6.375 17.4375 C-5.75729778 15.74432832 -5.14010564 14.05097045 -4.5234375 12.35742188 C-3.02150534 8.23610829 -1.51266479 4.1173858 0 0 Z " fill="#62B5D4" transform="translate(399,354)"/>
<path d="M0 0 C-4.83595489 3.22396993 -10.44825181 4.6556844 -15.93383789 6.47827148 C-18.06115748 7.1870527 -20.18388602 7.90853827 -22.30664062 8.63085938 C-23.65338516 9.08150894 -25.00038212 9.53140496 -26.34765625 9.98046875 C-27.57492432 10.39192139 -28.80219238 10.80337402 -30.06665039 11.22729492 C-33 12 -33 12 -35 11 C-35 10.34 -35 9.68 -35 9 C-31.30662145 7.70240936 -27.6079266 6.42140395 -23.90380859 5.15478516 C-22.0331925 4.51141604 -20.16693245 3.85542609 -18.30078125 3.19921875 C-11.97758109 1.04591275 -6.69395569 -0.60245601 0 0 Z " fill="#C2C2BC" transform="translate(372,247)"/>
<path d="M0 0 C-2.77079887 3.80984844 -6.62868145 4.06840752 -11 5 C-11 4.01 -11 3.02 -11 2 C-9.54494642 1.47007308 -8.08581873 0.9513211 -6.625 0.4375 C-5.81289063 0.14746094 -5.00078125 -0.14257812 -4.1640625 -0.44140625 C-2 -1 -2 -1 0 0 Z " fill="#B3B3AD" transform="translate(348,254)"/>
<path d="M0 0 C5.05255964 0.63156995 9.29593201 2.13459373 14 4 C14 4.33 14 4.66 14 5 C9.02906176 4.58846263 4.55491614 4.20399168 0 2 C0 1.34 0 0.68 0 0 Z " fill="#2F7894" transform="translate(182,468)"/>
</svg>
