<?xml version="1.0" encoding="UTF-8"?>
<svg version="1.1" xmlns="http://www.w3.org/2000/svg" width="512" height="512">
<path d="M0 0 C2 3 2 3 1.75 6.0625 C1 9 1 9 -1 11 C-2.90139678 11.51804523 -4.82192342 11.96732212 -6.75 12.375 C-12.60072922 13.8079743 -17.05592128 14.91390782 -20.4296875 20.26953125 C-22.80852447 24.75169018 -24.59567957 28.87860789 -25 34 C-24.07832031 33.84015625 -23.15664062 33.6803125 -22.20703125 33.515625 C11.16680192 28.7945711 44.58032317 39.03744926 71.4375 58.79296875 C91.9997478 74.77484405 109.87621287 94.72972887 120 119 C120 119.99 120 120.98 120 122 C121.18335938 121.96519531 122.36671875 121.93039063 123.5859375 121.89453125 C137.22832474 121.6116379 147.14493732 122.59370055 157.625 132.1875 C163.45511718 138.17239905 166.10704123 145.93163124 166.25 154.1875 C166.1283428 163.34828689 163.03539519 171.06813398 157 178 C148.1719659 185.64804935 140.44654118 187.37258181 129 187 C128.9175 188.2375 128.835 189.475 128.75 190.75 C128.21026185 195.91022385 126.57412813 200.46824821 124.7421875 205.30078125 C123.95978485 208.14625616 123.92251457 209.30343594 125 212 C126.45078132 214.43378199 126.45078132 214.43378199 127.96484375 216.828125 C131.73477981 224.73787764 131.28528955 233.07233406 131.25878906 241.63574219 C131.26150302 243.11184359 131.26506622 244.58794363 131.26940918 246.06404114 C131.27849688 250.05861855 131.27500135 254.05309218 131.26865101 258.04767132 C131.26356082 262.25169324 131.26829187 266.45570671 131.27142334 270.659729 C131.27505903 277.73101377 131.27027934 284.80225674 131.26074219 291.87353516 C131.24990895 299.99854314 131.25334727 308.12345032 131.264395 316.24845576 C131.27353998 323.25949603 131.27471678 330.27050633 131.26951766 337.28155065 C131.2664307 341.45269873 131.26589574 345.62379987 131.27259064 349.79494476 C131.33314508 393.48409952 131.33314508 393.48409952 126.8125 410.1875 C126.59891846 411.00299316 126.38533691 411.81848633 126.1652832 412.65869141 C116.70262997 447.24215645 93.65338284 476.56195006 62.6875 494.5390625 C51.28862228 500.93570256 39.58989152 505.52412279 27 509 C25.9783374 509.28810547 25.9783374 509.28810547 24.93603516 509.58203125 C-0.06365075 516.25710662 -29.05568551 513.06787219 -52.96166992 504.24975586 C-53.8044751 503.94561768 -54.64728027 503.64147949 -55.515625 503.328125 C-56.63372559 502.90901855 -56.63372559 502.90901855 -57.77441406 502.48144531 C-62.30011092 501.50243322 -65.8898122 503.30749118 -69.875 505.3125 C-86.40029678 512.84190675 -106.77350022 515.52691794 -124.41796875 509.97265625 C-125.69607422 509.49119141 -125.69607422 509.49119141 -127 509 C-127.98613281 508.64808594 -128.97226563 508.29617188 -129.98828125 507.93359375 C-149.4356031 500.44625129 -163.93051409 486.57099589 -172.5234375 467.64453125 C-180.08251217 449.00900901 -180.90630948 427.70684637 -173.17041016 408.99316406 C-167.67755482 396.316428 -158.69494117 380.45622549 -145.36621094 374.90258789 C-144.58536133 374.60473389 -143.80451172 374.30687988 -143 374 C-143.00276538 373.26892406 -143.00553076 372.53784813 -143.00837994 371.78461838 C-143.07477646 353.95508326 -143.12434689 336.12557298 -143.15543652 318.2959404 C-143.17087275 309.67348527 -143.19189989 301.05111292 -143.22631836 292.42871094 C-143.25632043 284.90907586 -143.27559855 277.38950076 -143.28226548 269.86980748 C-143.28615953 265.89212058 -143.29524255 261.91460522 -143.31719017 257.93697357 C-143.33772659 254.1842859 -143.34379962 250.43183857 -143.33932304 246.67910004 C-143.34052711 244.66319189 -143.35657866 242.64730921 -143.3732605 240.63146973 C-143.34253427 231.48113184 -143.23109233 221.37979633 -137 214.125 C-135.56366779 212.29874086 -135.56366779 212.29874086 -135 210 C-135.85855156 206.27813472 -137.17009041 202.95481623 -138.64453125 199.43359375 C-140.32836756 195.1681986 -140.76467882 191.54954274 -141 187 C-141.68964844 187.03480469 -142.37929687 187.06960937 -143.08984375 187.10546875 C-154.34080334 187.42957047 -161.73017194 184.7388858 -170 177 C-175.87215661 170.79187423 -178.07730175 162.97913254 -178.4375 154.5625 C-178.09595707 144.48698353 -174.20006898 136.88986193 -167 130 C-159.22645132 122.80946747 -150.75949196 121.83415675 -140.6875 121.9375 C-139.85154297 121.94201172 -139.01558594 121.94652344 -138.15429688 121.95117188 C-136.10283351 121.96289452 -134.05140727 121.98082797 -132 122 C-131.690625 120.845 -131.38125 119.69 -131.0625 118.5 C-120.3135586 86.55454799 -90.32564138 60.00170292 -61.24316406 45.06982422 C-44.32268371 37 -44.32268371 37 -36 37 C-36.20625 36.05125 -36.4125 35.1025 -36.625 34.125 C-37.70794127 26.09183864 -35.15889041 19.02370268 -30.83203125 12.328125 C-23.13726506 2.54970144 -12.34179012 -1.93671168 0 0 Z " fill="#312E3E" transform="translate(262,0)"/>
<path d="M0 0 C0.66267883 0.11298431 1.32535767 0.22596863 2.00811768 0.34237671 C13.05132465 2.2349428 23.85532084 4.50281339 34.5625 7.8125 C35.49755371 8.09996094 36.43260742 8.38742188 37.39599609 8.68359375 C50.87103424 12.88134356 63.83649645 17.71323389 76.5625 23.8125 C77.22088867 24.12123047 77.87927734 24.42996094 78.55761719 24.74804688 C128.44626421 48.19298482 184.48364611 94.88050293 203.828125 148.3515625 C211.64683634 174.55256326 209.66980971 199.18311084 196.79443359 223.17993164 C180.72134336 251.94924456 153.92388965 272.21237671 122.5625 281.8125 C121.87591309 282.02277832 121.18932617 282.23305664 120.48193359 282.44970703 C96.84455712 289.30481759 64.08514297 289.07382148 41.5625 277.8125 C42.90544685 274.82672497 44.4128686 272.77560949 46.6875 270.4375 C61.48285167 253.81975637 64.40605133 234.2231781 63.73291016 212.71582031 C62.74448501 195.87577466 53.41282754 179.48302946 41.5625 167.8125 C34.05027693 161.36576094 25.82971859 156.32715721 16.5625 152.8125 C15.77101562 152.50699219 14.97953125 152.20148438 14.1640625 151.88671875 C5.96009349 148.93272991 -2.29091004 148.59185471 -10.9375 148.5 C-11.81664062 148.47099609 -12.69578125 148.44199219 -13.6015625 148.41210938 C-19.642079 148.35617867 -25.01379696 149.31299807 -30.81835938 150.83911133 C-31.92180695 151.1224017 -31.92180695 151.1224017 -33.04754639 151.4114151 C-34.84542226 151.87370648 -36.64163873 152.3424433 -38.4375 152.8125 C-38.53103109 134.69697467 -38.60152212 116.5815122 -38.64474869 98.46579742 C-38.66535496 90.05393898 -38.69343839 81.64223076 -38.73925781 73.23046875 C-38.77918503 65.89691868 -38.80494688 58.56347743 -38.81385398 51.22982168 C-38.81905882 47.34833393 -38.83125127 43.46715744 -38.86042023 39.58576965 C-38.88768264 35.92825233 -38.89592339 32.27117283 -38.88993073 28.61356354 C-38.89154628 26.6398 -38.91301226 24.66608355 -38.93518066 22.69244385 C-38.89794104 14.64009071 -38.11466175 8.97994998 -32.62109375 2.75390625 C-32.04488281 2.29886719 -31.46867188 1.84382812 -30.875 1.375 C-30.29621094 0.90191406 -29.71742188 0.42882812 -29.12109375 -0.05859375 C-21.24832012 -5.33755333 -8.54190873 -1.47194137 0 0 Z " fill="#5C8FEA" transform="translate(168.4375,215.1875)"/>
<path d="M0 0 C22.88956786 5.00679381 42.84092054 17.10889885 59.6953125 33.1015625 C60.40905029 33.76647705 60.40905029 33.76647705 61.13720703 34.44482422 C83.10249945 54.9939239 100.43003205 85.35488196 101.81958008 115.82666016 C102.7281141 148.96705593 102.7281141 148.96705593 95.6953125 157.1015625 C92.73828125 157.4140625 92.73828125 157.4140625 88.8828125 157.1015625 C54.86600273 155.68074073 15.33623279 168.2373442 -14.74975586 183.39599609 C-19.71279964 185.79840157 -22.78765243 186.65619094 -28.3046875 185.1015625 C-30.8844125 184.01937775 -33.35929992 182.88950421 -35.8671875 181.6640625 C-55.2464073 172.66500994 -76.37205887 166.24734519 -97.3046875 162.1015625 C-99.01229248 161.76318359 -99.01229248 161.76318359 -100.75439453 161.41796875 C-104.49697382 160.68905477 -108.24304475 159.98339339 -111.9921875 159.2890625 C-113.74813232 158.95974731 -113.74813232 158.95974731 -115.53955078 158.6237793 C-124.83697392 156.97234236 -133.271769 155.95967781 -142.3046875 159.1015625 C-150.152636 141.86685208 -150.96146257 119.36294748 -146.3046875 101.1015625 C-146.15402832 100.48716309 -146.00336914 99.87276367 -145.84814453 99.23974609 C-137.26591235 64.91906157 -114.78584001 34.89372862 -84.984375 15.99609375 C-73.9396658 9.4925463 -62.06422389 3.15220228 -49.3046875 1.1015625 C-48.8921875 1.69324219 -48.4796875 2.28492188 -48.0546875 2.89453125 C-42.85243908 10.01278634 -37.13906507 15.19610852 -28.3046875 17.1015625 C-24.63106045 17.24932281 -20.97874278 17.21923687 -17.3046875 17.1015625 C-17.13791468 13.68500226 -17.13791468 13.68500226 -17.3046875 10.1015625 C-19.7930037 7.6132463 -20.99102237 7.75385758 -24.4296875 7.3515625 C-30.33095724 6.40300531 -33.93972666 4.07880476 -38.3046875 0.1015625 C-29.14680224 -6.00369434 -10.42695073 -1.99230014 0 0 Z " fill="#FAD7C3" transform="translate(279.3046875,45.8984375)"/>
<path d="M0 0 C1.01819824 0.34877197 2.03639648 0.69754395 3.08544922 1.05688477 C20.96456314 7.42291236 38.51106849 15.79152951 54 26.8125 C55.16059522 27.60933152 56.32208591 28.40486001 57.484375 29.19921875 C65.75593973 34.91309145 73.46694648 41.16264827 81 47.8125 C81.50772949 48.25706543 82.01545898 48.70163086 82.53857422 49.15966797 C99.03107694 63.66014338 112.72053024 80.26524212 124.5625 98.75 C125.29533203 99.88429443 125.29533203 99.88429443 126.04296875 101.04150391 C134.24641877 114.15728521 137.31586076 128.42069618 134.25 143.75 C128.77297881 163.73168419 113.87787767 179.72736454 96.32421875 190.0078125 C76.48931695 201.19980035 54.14455288 205.23288726 31.92602539 199.23583984 C30.28045374 198.77390335 28.63962399 198.29512257 27 197.8125 C27.06856201 197.15475586 27.13712402 196.49701172 27.20776367 195.81933594 C29.77134833 169.75660774 27.84607729 147.68483954 11.375 126.5 C3.10800896 117.07740806 -7.3046911 110.24802737 -19 105.8125 C-19.79148438 105.50699219 -20.58296875 105.20148438 -21.3984375 104.88671875 C-24.99843011 103.59047568 -28.34751641 102.73396009 -32.14770508 102.27636719 C-33.4189624 102.12329102 -34.69021973 101.97021484 -36 101.8125 C-36.11601432 90.08584595 -36.20477677 78.35932916 -36.25906086 66.63221741 C-36.28511885 61.18640831 -36.32044795 55.74099277 -36.37719727 50.29541016 C-36.43165184 45.03692778 -36.4614491 39.77882321 -36.47438622 34.52008057 C-36.48360192 32.51704972 -36.50159826 30.5140388 -36.52865028 28.51116943 C-36.56511933 25.69840332 -36.5699379 22.88718446 -36.56762695 20.07421875 C-36.58560333 19.25206375 -36.60357971 18.42990875 -36.62210083 17.58283997 C-36.562377 10.83404762 -34.1970952 6.04279832 -29.45094776 1.24736023 C-20.81819874 -6.27017412 -9.90820044 -3.465932 0 0 Z " fill="#A3E5FE" transform="translate(204,262.1875)"/>
<path d="M0 0 C14.67914574 11.7507303 24.21899029 26.15331109 27 45 C28.65918758 63.63550926 23.20789298 81.52290144 11.1875 95.9375 C-1.83108737 109.41199121 -19.21860785 117.11479912 -37.9375 117.4375 C-55.53998355 117.30276026 -71.5842645 109.27078491 -83.96484375 97.0625 C-91.25235786 89.15307549 -95.79712484 80.20552496 -99 70 C-99.35964844 68.90042969 -99.71929687 67.80085938 -100.08984375 66.66796875 C-103.86986964 51.43430216 -100.42793067 33.93547619 -93.1484375 20.359375 C-83.90783309 5.91042992 -69.95752407 -4.90756678 -53.5 -9.875 C-35.04333688 -13.88521738 -15.62063729 -10.88850305 0 0 Z " fill="#48D092" transform="translate(196,385)"/>
<path d="M0 0 C0.66267883 0.11298431 1.32535767 0.22596863 2.00811768 0.34237671 C13.05132465 2.2349428 23.85532084 4.50281339 34.5625 7.8125 C35.49755371 8.09996094 36.43260742 8.38742188 37.39599609 8.68359375 C50.86483044 12.87941094 63.85334321 17.68718022 76.5625 23.8125 C77.66174805 24.3394043 77.66174805 24.3394043 78.78320312 24.87695312 C80.96480002 25.92862407 83.14032645 26.99151174 85.3125 28.0625 C85.95638672 28.37960938 86.60027344 28.69671875 87.26367188 29.0234375 C91.25161456 31.032179 94.90181428 33.27472401 98.5625 35.8125 C96.5625 37.8125 96.5625 37.8125 93.75 39.125 C87.70467113 42.32546822 84.59126134 46.29910833 82.5625 52.8125 C81.8473986 58.98392304 82.31009281 63.39182135 85.5625 68.8125 C85.5625 69.4725 85.5625 70.1325 85.5625 70.8125 C82.00015513 69.45621641 78.69027098 67.87680377 75.34375 66.0546875 C46.0885653 49.37796704 46.0885653 49.37796704 13.5625 44.8125 C7.91433416 46.75797935 4.72473164 50.60261543 1.47695923 55.42401123 C0.08776563 59.05246529 0.25366445 62.69445469 0.24365234 66.52832031 C0.22858391 67.8459285 0.22858391 67.8459285 0.21321106 69.19015503 C0.1823483 72.0903051 0.16533527 74.99036272 0.1484375 77.890625 C0.12972835 79.90273841 0.11015512 81.91484397 0.0897522 83.92694092 C0.03839835 89.22049322 -0.00121004 94.51407096 -0.03839111 99.80773926 C-0.07841031 105.21043204 -0.12951217 110.61301868 -0.1796875 116.015625 C-0.27648534 126.6145088 -0.36087785 137.21345249 -0.4375 147.8125 C-1.02015625 147.8218457 -1.6028125 147.83119141 -2.203125 147.84082031 C-14.80806989 148.09351378 -26.36521097 149.09395825 -38.4375 152.8125 C-38.53103109 134.69697467 -38.60152212 116.5815122 -38.64474869 98.46579742 C-38.66535496 90.05393898 -38.69343839 81.64223076 -38.73925781 73.23046875 C-38.77918503 65.89691868 -38.80494688 58.56347743 -38.81385398 51.22982168 C-38.81905882 47.34833393 -38.83125127 43.46715744 -38.86042023 39.58576965 C-38.88768264 35.92825233 -38.89592339 32.27117283 -38.88993073 28.61356354 C-38.89154628 26.6398 -38.91301226 24.66608355 -38.93518066 22.69244385 C-38.89794104 14.64009071 -38.11466175 8.97994998 -32.62109375 2.75390625 C-32.04488281 2.29886719 -31.46867188 1.84382812 -30.875 1.375 C-30.29621094 0.90191406 -29.71742188 0.42882812 -29.12109375 -0.05859375 C-21.24832012 -5.33755333 -8.54190873 -1.47194137 0 0 Z " fill="#5DB7FE" transform="translate(168.4375,215.1875)"/>
<path d="M0 0 C6.17339317 -0.22102272 10.1620135 -0.19642658 14.9140625 4.19921875 C18.71111564 8.50938718 20.03968071 10.79267768 20.03431702 16.48892212 C20.03637901 18.17166985 20.03637901 18.17166985 20.03848267 19.88841248 C20.03308975 21.74309898 20.03308975 21.74309898 20.02758789 23.63525391 C20.02773392 24.93277084 20.02787994 26.23028778 20.0280304 27.56712341 C20.028318 31.13095467 20.02242725 34.69475246 20.01545644 38.25857592 C20.00921675 41.98084374 20.00861861 45.70311228 20.00743103 49.42538452 C20.00431954 56.47664443 19.99610859 63.52788888 19.98608154 70.57914197 C19.97491477 78.60563568 19.96940853 86.63213012 19.96438611 94.65862966 C19.95392583 111.17216841 19.93632989 127.68569161 19.9140625 144.19921875 C17.45999114 141.74514739 16.50642881 139.35296127 15.0390625 136.19921875 C8.44147623 122.55412897 -0.75588068 110.092478 -10.0859375 98.19921875 C-10.78976562 97.30203125 -11.49359375 96.40484375 -12.21875 95.48046875 C-24.06899188 80.69952189 -37.21578779 66.94604772 -52.0859375 55.19921875 C-53.14537694 54.33827922 -54.20394225 53.47626311 -55.26171875 52.61328125 C-65.12145753 44.63700908 -75.52670278 37.33908789 -86.40332031 30.80761719 C-87.13647461 30.36708008 -87.86962891 29.92654297 -88.625 29.47265625 C-89.28967285 29.08255371 -89.9543457 28.69245117 -90.63916016 28.29052734 C-91.11659668 27.93039551 -91.5940332 27.57026367 -92.0859375 27.19921875 C-92.0859375 26.53921875 -92.0859375 25.87921875 -92.0859375 25.19921875 C-63.07277916 12.28435166 -31.91322617 2.06022093 0 0 Z " fill="#4E59C7" transform="translate(361.0859375,212.80078125)"/>
<path d="M0 0 C1.01819824 0.34877197 2.03639648 0.69754395 3.08544922 1.05688477 C20.96428646 7.42281385 38.51023472 15.79335803 54 26.8125 C55.03382813 27.49957031 56.06765625 28.18664062 57.1328125 28.89453125 C63.93791509 33.54083498 68.30477287 37.48772391 70 45.8125 C70.85845635 54.17631755 70.0901768 60.93586691 65 67.8125 C59.71947536 72.94397757 54.10430049 76.04092035 46.64990234 76.10302734 C45.604664 76.11578705 44.55942566 76.12854675 43.48251343 76.14169312 C41.80120834 76.14503159 41.80120834 76.14503159 40.0859375 76.1484375 C38.92051422 76.1550943 37.75509094 76.1617511 36.55435181 76.16860962 C34.08817114 76.17872832 31.62196313 76.18342688 29.15576172 76.18310547 C25.4093621 76.18746006 21.66415861 76.22373895 17.91796875 76.26171875 C15.515629 76.26759097 13.11328369 76.27155765 10.7109375 76.2734375 C9.60221283 76.28780853 8.49348816 76.30217957 7.35116577 76.31698608 C-5.49322994 76.24271573 -14.18392518 71.81713734 -23.625 63.5 C-33.78605056 52.0019691 -36.70202954 39.65947409 -36.5625 24.5 C-36.58634766 23.29021484 -36.61019531 22.08042969 -36.63476562 20.83398438 C-36.62116515 12.54223116 -35.37044189 7.17949788 -29.45092773 1.26464844 C-20.86797142 -6.30377718 -9.88025082 -3.4561551 0 0 Z " fill="#FEFEFE" transform="translate(204,262.1875)"/>
<path d="M0 0 C2.45401698 2.05452584 4.11509659 3.49096918 5.6875 6.25 C5.39453125 8.94140625 5.39453125 8.94140625 4.5 11.8125 C4.21769531 12.76253906 3.93539062 13.71257812 3.64453125 14.69140625 C2.6875 17.25 2.6875 17.25 0.6875 20.25 C-2.171875 20.3671875 -2.171875 20.3671875 -6.0625 20.125 C-40.26265444 19.12708754 -79.48041965 31.28946681 -109.75756836 46.54443359 C-114.72061214 48.94683907 -117.79546493 49.80462844 -123.3125 48.25 C-125.892225 47.16781525 -128.36711242 46.03794171 -130.875 44.8125 C-150.2542198 35.81344744 -171.37987137 29.39578269 -192.3125 25.25 C-194.02010498 24.91162109 -194.02010498 24.91162109 -195.76220703 24.56640625 C-199.50478632 23.83749227 -203.25085725 23.13183089 -207 22.4375 C-208.17062988 22.21795654 -209.34125977 21.99841309 -210.54736328 21.7722168 C-219.84478642 20.12077986 -228.2795815 19.10811531 -237.3125 22.25 C-238.6875 19.875 -238.6875 19.875 -239.3125 16.25 C-236.53888603 8.6989276 -231.43942739 3.76163149 -224.3125 0.25 C-216.15509278 -2.20142091 -207.33622306 -0.54455124 -199.125 0.875 C-198.07892578 1.05538818 -197.03285156 1.23577637 -195.95507812 1.42163086 C-179.0288061 4.45599337 -162.80896398 9.25986673 -146.5625 14.8125 C-145.88268066 15.04397736 -145.20286133 15.27545471 -144.50244141 15.51394653 C-137.92526189 17.76523536 -131.48887142 20.09372185 -125.234375 23.15234375 C-121.04341082 25.08533008 -118.80898634 25.88879723 -114.3125 24.25 C-110.55210561 22.79950661 -106.83909797 21.25224106 -103.125 19.6875 C-23.74296597 -12.74992253 -23.74296597 -12.74992253 0 0 Z " fill="#F99B87" transform="translate(374.3125,182.75)"/>
<path d="M0 0 C5.12724516 3.02293829 8.61656604 7.14560463 11 12.5625 C11.64361661 15.52313639 12.04057321 17.43325203 11.625 20.4375 C9.89837931 22.72779411 8.24414844 24.65904751 6.25 26.6875 C5.42689331 27.54565308 5.42689331 27.54565308 4.5871582 28.42114258 C2.94997443 30.11099333 1.29280383 31.77791449 -0.375 33.4375 C-1.19871094 34.26121094 -2.02242187 35.08492188 -2.87109375 35.93359375 C-14.39286443 46.83361627 -27.88603938 54.25179916 -42.375 60.4375 C-43.78652344 61.05238281 -43.78652344 61.05238281 -45.2265625 61.6796875 C-47.91712711 62.75424736 -50.59317877 63.62613548 -53.375 64.4375 C-53.9834375 64.61796875 -54.591875 64.7984375 -55.21875 64.984375 C-79.048904 71.76680345 -111.65751534 71.79624233 -134.375 60.4375 C-133.03205315 57.45172497 -131.5246314 55.40060949 -129.25 53.0625 C-122.24448059 45.22159438 -117.16303 35.54410875 -114.375 25.4375 C-114.045 26.0975 -113.715 26.7575 -113.375 27.4375 C-110.98190069 28.10123492 -108.68652525 28.62208263 -106.25 29.0625 C-105.53078369 29.19293701 -104.81156738 29.32337402 -104.07055664 29.45776367 C-80.56940428 33.40077194 -56.86620834 28.07854135 -37.375 14.4375 C-33.89398318 11.73319055 -30.58647763 8.82966183 -27.26171875 5.9375 C-19.01218897 -1.20688303 -10.82524376 -4.76974342 0 0 Z " fill="#5763D1" transform="translate(344.375,432.5625)"/>
<path d="M0 0 C1.16208984 0.00322266 2.32417969 0.00644531 3.52148438 0.00976562 C4.67970703 -0.00634766 5.83792969 -0.02246094 7.03125 -0.0390625 C8.14048828 -0.03970703 9.24972656 -0.04035156 10.39257812 -0.04101562 C11.41150146 -0.04399658 12.4304248 -0.04697754 13.48022461 -0.05004883 C16.08398438 0.32226562 16.08398438 0.32226562 17.92138672 1.58056641 C19.36553063 3.74405289 19.43199044 4.96598054 19.37695312 7.55273438 C19.36245117 8.75639648 19.36245117 8.75639648 19.34765625 9.984375 C19.32251953 10.81775391 19.29738281 11.65113281 19.27148438 12.50976562 C19.25118164 13.77723633 19.25118164 13.77723633 19.23046875 15.0703125 C19.19514236 17.15456947 19.14133577 19.23849839 19.08398438 21.32226562 C20.34855469 21.28746094 21.613125 21.25265625 22.91601562 21.21679688 C24.5761586 21.18865886 26.23631593 21.16135871 27.89648438 21.13476562 C29.14655273 21.09706055 29.14655273 21.09706055 30.421875 21.05859375 C31.62553711 21.0440918 31.62553711 21.0440918 32.85351562 21.02929688 C33.96110229 21.0057312 33.96110229 21.0057312 35.09106445 20.98168945 C37.08398438 21.32226562 37.08398438 21.32226562 38.82348633 22.48706055 C40.57915161 25.04319766 40.4721116 26.89328886 40.48242188 29.97851562 C40.48628906 31.08324219 40.49015625 32.18796875 40.49414062 33.32617188 C40.48253906 34.47988281 40.4709375 35.63359375 40.45898438 36.82226562 C40.47058594 37.97597656 40.4821875 39.1296875 40.49414062 40.31835938 C40.49027344 41.42308594 40.48640625 42.5278125 40.48242188 43.66601562 C40.47903809 44.67857422 40.4756543 45.69113281 40.47216797 46.734375 C40.08398438 49.32226562 40.08398438 49.32226562 38.82348633 51.1574707 C36.66132908 52.60528154 35.44105234 52.67028835 32.85351562 52.61523438 C32.05107422 52.60556641 31.24863281 52.59589844 30.421875 52.5859375 C29.58849609 52.56080078 28.75511719 52.53566406 27.89648438 52.50976562 C26.62901367 52.48946289 26.62901367 52.48946289 25.3359375 52.46875 C23.25168053 52.43342361 21.16775161 52.37961702 19.08398438 52.32226562 C19.13619141 54.21912109 19.13619141 54.21912109 19.18945312 56.15429688 C19.21759114 57.81443985 19.24489129 59.47459718 19.27148438 61.13476562 C19.29662109 61.96814453 19.32175781 62.80152344 19.34765625 63.66015625 C19.35732422 64.46259766 19.36699219 65.26503906 19.37695312 66.09179688 C19.39266357 66.83018799 19.40837402 67.5685791 19.42456055 68.3293457 C19.08398438 70.32226562 19.08398438 70.32226562 17.92138672 72.06396484 C15.35136466 73.82398261 13.49064373 73.69461056 10.39257812 73.68554688 C9.28333984 73.68490234 8.17410156 73.68425781 7.03125 73.68359375 C5.29391602 73.65942383 5.29391602 73.65942383 3.52148438 73.63476562 C1.77834961 73.63959961 1.77834961 73.63959961 0 73.64453125 C-8.64909617 73.58918508 -8.64909617 73.58918508 -10.91601562 71.32226562 C-11.14306641 69.35107422 -11.14306641 69.35107422 -11.11132812 66.97070312 C-11.10488281 66.11992187 -11.0984375 65.26914062 -11.09179688 64.39257812 C-11.07503906 63.503125 -11.05828125 62.61367188 -11.04101562 61.69726562 C-11.03199219 60.80007813 -11.02296875 59.90289062 -11.01367188 58.97851562 C-10.99006532 56.75949977 -10.95713872 54.54101485 -10.91601562 52.32226562 C-11.47587158 52.34321289 -12.03572754 52.36416016 -12.61254883 52.38574219 C-15.15102148 52.46892764 -17.68920763 52.52092943 -20.22851562 52.57226562 C-21.10958984 52.60578125 -21.99066406 52.63929688 -22.8984375 52.67382812 C-23.74599609 52.68671875 -24.59355469 52.69960938 -25.46679688 52.71289062 C-26.24708252 52.73383789 -27.02736816 52.75478516 -27.83129883 52.77636719 C-29.91601562 52.32226562 -29.91601562 52.32226562 -31.66699219 50.62792969 C-33.9973932 46.32607137 -33.38597565 41.60864359 -33.35351562 36.82226562 C-33.37349609 35.77683594 -33.39347656 34.73140625 -33.4140625 33.65429688 C-33.41341797 32.64753906 -33.41277344 31.64078125 -33.41210938 30.60351562 C-33.4139624 29.68634766 -33.41581543 28.76917969 -33.41772461 27.82421875 C-32.75531224 24.52086012 -31.57903145 23.33701868 -28.91601562 21.32226562 C-26.80957031 20.86816406 -26.80957031 20.86816406 -24.58789062 20.93164062 C-23.78867188 20.94453125 -22.98945313 20.95742188 -22.16601562 20.97070312 C-21.34101563 21.00421875 -20.51601562 21.03773438 -19.66601562 21.07226562 C-18.82554687 21.0903125 -17.98507813 21.10835938 -17.11914062 21.12695312 C-15.05094168 21.17395765 -12.98333122 21.24569838 -10.91601562 21.32226562 C-10.92648926 20.75717285 -10.93696289 20.19208008 -10.94775391 19.60986328 C-10.98926351 17.0557091 -11.01532522 14.50162581 -11.04101562 11.94726562 C-11.05777344 11.0578125 -11.07453125 10.16835938 -11.09179688 9.25195312 C-11.09824219 8.40117187 -11.1046875 7.55039062 -11.11132812 6.67382812 C-11.12180176 5.88830566 -11.13227539 5.1027832 -11.14306641 4.29345703 C-10.4826167 -1.44038272 -4.35424181 0.02786309 0 0 Z " fill="#32303F" transform="translate(154.916015625,400.677734375)"/>
<path d="M0 0 C3.19642811 2.34143947 5.46337606 5.09472086 7.234375 8.63671875 C7.32652131 10.94459749 7.35186897 13.25522725 7.34790039 15.56494141 C7.34804642 16.27724411 7.34819244 16.98954681 7.3483429 17.72343445 C7.34764511 20.08258081 7.33985897 22.44164864 7.33203125 24.80078125 C7.3301666 26.43460039 7.32874292 28.06842009 7.32774353 29.70223999 C7.32392209 34.00620055 7.31409498 38.31012746 7.30303955 42.61407471 C7.29281742 47.00443059 7.28824419 51.3947919 7.28320312 55.78515625 C7.27247239 64.40235921 7.25540043 73.01953479 7.234375 81.63671875 C4.45872309 78.87981136 1.74566992 76.1804955 -0.67578125 73.10546875 C-1.18455811 72.46625488 -1.69333496 71.82704102 -2.2175293 71.16845703 C-2.74902588 70.4979834 -3.28052246 69.82750977 -3.828125 69.13671875 C-9.83305726 61.65991372 -16.12734754 54.55411089 -22.765625 47.63671875 C-23.61898437 46.74210937 -24.47234375 45.8475 -25.3515625 44.92578125 C-32.20475016 37.89964248 -39.66609794 31.82796511 -47.3984375 25.8046875 C-48.32994629 25.0775354 -48.32994629 25.0775354 -49.28027344 24.33569336 C-50.48622974 23.3964085 -51.69505072 22.46078556 -52.90722656 21.52954102 C-56.45889699 18.77366994 -59.65074587 15.87992623 -62.765625 12.63671875 C-51.86879466 8.50103474 -41.05889008 4.56159316 -29.765625 1.63671875 C-28.69054687 1.33765625 -27.61546875 1.03859375 -26.5078125 0.73046875 C-18.35247905 -1.39188309 -7.88571933 -3.88716956 0 0 Z " fill="#7F8FF9" transform="translate(352.765625,239.36328125)"/>
<path d="M0 0 C7.0228494 4.32566811 13.0286845 9.32593886 19 15 C19.47872559 15.44617676 19.95745117 15.89235352 20.45068359 16.35205078 C41.62348909 36.15886883 59.00915236 65.63711522 61 95 C61.13025689 99.08460745 61.14009748 103.16361459 61.125 107.25 C61.12886719 108.3121875 61.13273437 109.374375 61.13671875 110.46875 C61.13542969 111.49484375 61.13414062 112.5209375 61.1328125 113.578125 C61.13168457 114.50012695 61.13055664 115.42212891 61.12939453 116.37207031 C60.9996893 119.00631004 60.58436106 121.43159679 60 124 C58.515 123.505 58.515 123.505 57 123 C57 122.34 57 121.68 57 121 C55.824375 120.5359375 55.824375 120.5359375 54.625 120.0625 C52 119 52 119 50 118 C48.29636178 117.77377919 46.58671299 117.59111527 44.875 117.4375 C43.50988281 117.31181641 43.50988281 117.31181641 42.1171875 117.18359375 C41.41851562 117.12300781 40.71984375 117.06242187 40 117 C39.97421875 115.68128906 39.9484375 114.36257812 39.921875 113.00390625 C39.1310901 84.76309961 30.53965902 60.57202561 12 39 C11.44957031 38.31679687 10.89914062 37.63359375 10.33203125 36.9296875 C3.28363527 28.39125057 -5.67913747 21.86869122 -15 16 C-14.42378906 15.71253906 -13.84757812 15.42507812 -13.25390625 15.12890625 C-12.51011719 14.75636719 -11.76632812 14.38382813 -11 14 C-10.32839844 13.67902344 -9.65679687 13.35804687 -8.96484375 13.02734375 C-4.63864514 10.70169941 -2.56117113 8.93824085 -1 4.1875 C-0.63756933 2.7989375 -0.29379098 1.4046881 0 0 Z " fill="#F9C8AF" transform="translate(320,64)"/>
<path d="M0 0 C13.0644845 2.85768523 31.01267862 8.41892862 40.6953125 18.1015625 C40.49636868 23.37357364 39.42998761 26.36688739 35.6953125 30.1015625 C31.45756487 32.57941907 27.48749565 32.91308549 22.6953125 32.1015625 C19.40328457 30.78986185 16.27033901 29.26509541 13.09375 27.6953125 C-8.70728684 17.47137798 -33.87025104 17.60259402 -56.3046875 25.6640625 C-62.36786266 27.94217323 -67.69706193 31.05627556 -73.1796875 34.4765625 C-78.53511399 37.80286935 -82.81447316 40.43958991 -89.35546875 39.62890625 C-93.82525238 38.41964615 -95.67442712 37.12301897 -98.1171875 33.1640625 C-99.3046875 30.1015625 -99.3046875 30.1015625 -99.3046875 26.1015625 C-97.39478536 24.32563392 -95.63060514 22.93145177 -93.4921875 21.4765625 C-92.8727124 21.04706299 -92.2532373 20.61756348 -91.61499023 20.17504883 C-79.450007 11.96506567 -65.74650565 4.30438507 -51.3046875 1.1015625 C-47.8526163 2.2522529 -47.53893286 2.92213978 -45.6171875 5.8515625 C-41.35271014 11.75622346 -35.45684354 15.55894061 -28.3046875 17.1015625 C-24.63106045 17.24932281 -20.97874278 17.21923687 -17.3046875 17.1015625 C-17.13791468 13.68500226 -17.13791468 13.68500226 -17.3046875 10.1015625 C-19.7930037 7.6132463 -20.99102237 7.75385758 -24.4296875 7.3515625 C-30.33095724 6.40300531 -33.93972666 4.07880476 -38.3046875 0.1015625 C-29.14680224 -6.00369434 -10.42695073 -1.99230014 0 0 Z " fill="#F8F8FC" transform="translate(279.3046875,45.8984375)"/>
<path d="M0 0 C2 3 2 3 2.8125 6.0625 C3.69883434 9.11320278 3.69883434 9.11320278 6.125 10.25 C7.07375 10.4975 8.0225 10.745 9 11 C9.69480469 11.18304688 10.38960937 11.36609375 11.10546875 11.5546875 C13.06417563 12.06083122 15.03161113 12.53292468 17 13 C14.69533834 16.16890978 12.22796257 18.73514578 9.25 21.25 C-9.16554115 37.15124218 -22.93049125 61.76549757 -26 86 C-26.13695772 89.37624277 -26.1397537 92.74640229 -26.125 96.125 C-26.12886719 97.01832031 -26.13273437 97.91164063 -26.13671875 98.83203125 C-26.13478516 100.12560547 -26.13478516 100.12560547 -26.1328125 101.4453125 C-26.13168457 102.22406738 -26.13055664 103.00282227 -26.12939453 103.80517578 C-26.00067995 105.98846647 -25.60139679 107.90197923 -25 110 C-26.8253125 110.5878125 -26.8253125 110.5878125 -28.6875 111.1875 C-35.60176633 113.77729587 -39.95427641 119.43997996 -43 126 C-43.66 125.67 -44.32 125.34 -45 125 C-49.78815472 109.3176951 -50.03838258 89.83637984 -46 74 C-45.84934082 73.38560059 -45.69868164 72.77120117 -45.54345703 72.13818359 C-38.56856501 44.2453157 -22.18243321 18.34770406 0 0 Z " fill="#F9C8AF" transform="translate(179,73)"/>
<path d="M0 0 C0.33 0 0.66 0 1 0 C1.33 32.67 1.66 65.34 2 99 C4.64 97.35 7.28 95.7 10 94 C16.01686641 92.80506158 22.11636963 92.98454895 27.5 96.125 C33.11785652 100.3443184 36.77902495 104.92557311 38 112 C38.22941376 115.9836521 38.18937035 119.94901381 38.125 123.9375 C38.11597656 125.00291016 38.10695312 126.06832031 38.09765625 127.16601562 C38.07423414 129.77758034 38.04143452 132.38866937 38 135 C37.41734375 135.0093457 36.8346875 135.01869141 36.234375 135.02832031 C33.48885332 135.08336025 30.74480497 135.16671436 28 135.25 C27.08476562 135.26417969 26.16953125 135.27835938 25.2265625 135.29296875 C16.05308808 135.60712883 9.44050121 137.6398747 0 140 C0 93.8 0 47.6 0 0 Z " fill="#5B8EE6" transform="translate(130,228)"/>
<path d="M0 0 C1.25425781 0.01804688 2.50851563 0.03609375 3.80078125 0.0546875 C5.22970703 0.08949219 5.22970703 0.08949219 6.6875 0.125 C6.38972656 1.41019531 6.09195313 2.69539062 5.78515625 4.01953125 C4.69701372 8.92528043 3.86318241 13.84327209 3.125 18.8125 C2.99569092 19.67520508 2.86638184 20.53791016 2.7331543 21.42675781 C1.68627345 28.64708762 1.03751597 35.83501223 0.6875 43.125 C-5.85032887 43.66981907 -10.96346509 43.15648315 -16.3125 39.125 C-21.41355364 33.8090461 -23.97531419 28.60925337 -24.6875 21.25 C-24.49215377 15.55240173 -22.32081068 11.25909215 -18.44140625 7.13671875 C-12.47567957 1.68975091 -8.19990948 -0.15326934 0 0 Z " fill="#F69986" transform="translate(119.3125,132.875)"/>
<path d="M0 0 C8.03049429 -0.44682812 15.19552428 -0.7618066 22 4 C27.38934343 8.9548858 30.7063915 13.41797635 31.3125 20.8125 C31.09331543 28.08668787 28.25669762 33.97185445 23 39 C17.21504476 42.56167416 12.68671888 43.18319778 6 43 C5.95512451 42.38181396 5.91024902 41.76362793 5.86401367 41.12670898 C4.95074021 28.87201214 3.76639498 16.98244225 1 5 C0.66105692 3.33446511 0.32557787 1.66819901 0 0 Z " fill="#F79986" transform="translate(386,133)"/>
<path d="M0 0 C2.97 0 5.94 0 9 0 C9.04898438 1.26457031 9.09796875 2.52914063 9.1484375 3.83203125 C9.2234738 5.49220947 9.29902127 7.15236464 9.375 8.8125 C9.4059375 9.64587891 9.436875 10.47925781 9.46875 11.33789062 C9.50742188 12.14033203 9.54609375 12.94277344 9.5859375 13.76953125 C9.63306885 14.87711792 9.63306885 14.87711792 9.68115234 16.00708008 C9.90834614 18.31349588 9.90834614 18.31349588 12 21 C14.02276681 21.50621513 14.02276681 21.50621513 16.3515625 21.51171875 C17.20234375 21.54716797 18.053125 21.58261719 18.9296875 21.61914062 C19.81914062 21.64169922 20.70859375 21.66425781 21.625 21.6875 C22.97078125 21.73874023 22.97078125 21.73874023 24.34375 21.79101562 C26.56205613 21.87361213 28.78100936 21.93847923 31 22 C31 24.97 31 27.94 31 31 C29.72382813 31.06058594 28.44765625 31.12117188 27.1328125 31.18359375 C25.46352984 31.26799568 23.79425963 31.35264386 22.125 31.4375 C21.28324219 31.47681641 20.44148438 31.51613281 19.57421875 31.55664062 C18.76855469 31.59853516 17.96289062 31.64042969 17.1328125 31.68359375 C16.01737061 31.73858032 16.01737061 31.73858032 14.87939453 31.79467773 C12.91135688 31.89955865 12.91135688 31.89955865 11 33 C10.67 39.6 10.34 46.2 10 53 C6.7 53 3.4 53 0 53 C-0.04898438 51.65164063 -0.09796875 50.30328125 -0.1484375 48.9140625 C-0.22346057 47.15102041 -0.29900859 45.38800061 -0.375 43.625 C-0.4059375 42.73554688 -0.436875 41.84609375 -0.46875 40.9296875 C-0.50742188 40.07890625 -0.54609375 39.228125 -0.5859375 38.3515625 C-0.63306885 37.17327881 -0.63306885 37.17327881 -0.68115234 35.97119141 C-0.8399465 33.76997061 -0.8399465 33.76997061 -3 32 C-4.93257855 31.63168919 -4.93257855 31.63168919 -7.1328125 31.5859375 C-7.93847656 31.54726563 -8.74414062 31.50859375 -9.57421875 31.46875 C-10.41597656 31.4378125 -11.25773438 31.406875 -12.125 31.375 C-12.97449219 31.33632813 -13.82398438 31.29765625 -14.69921875 31.2578125 C-16.79911684 31.16343506 -18.89952891 31.08062414 -21 31 C-21 28.03 -21 25.06 -21 22 C-11.1 21.505 -11.1 21.505 -1 21 C-0.67 14.07 -0.34 7.14 0 0 Z " fill="#F7F7F7" transform="translate(154,411)"/>
<path d="M0 0 C4.28878297 1.68187567 5.47089904 4.20637741 7.6953125 8.12109375 C9.37893894 10.52312624 10.44429311 11.2827125 13.1875 12.25 C17.68217518 12.95280376 21.24751398 12.69234636 25.375 10.75 C28.90078344 7.61597028 31.53156097 4.13030809 34.1875 0.25 C37.125 0.625 37.125 0.625 40.1875 1.25 C41.67481668 4.22463337 41.6188052 5.92278843 41.1875 9.25 C37.25630054 16.10981113 31.95055598 21.15928691 24.41796875 23.703125 C16.99899184 25.5221386 11.10496228 24.49402 4.453125 20.8125 C-0.24863992 17.5699035 -3.50271286 13.45485972 -5.8125 8.25 C-6.16345988 5.37212902 -6.18731269 3.87468782 -4.6875 1.375 C-2.8125 0.25 -2.8125 0.25 0 0 Z " fill="#363241" transform="translate(288.8125,128.75)"/>
<path d="M0 0 C3.50636417 1.62490047 4.43035319 3.97380272 6.328125 7.2421875 C8.07828115 10.00034498 9.48728741 11.06924088 12.5625 12.1875 C18.18249956 12.91737007 22.86728606 12.60220105 27.5625 9.1875 C28.43790189 7.81765816 29.26895813 6.41883277 30.0625 5 C31.26953125 2.87109375 31.26953125 2.87109375 32.5625 1.1875 C35.75 0.5625 35.75 0.5625 38.5625 1.1875 C40.5625 3.1875 40.5625 3.1875 41.0625 5.75 C40.3047998 10.9591889 38.18561224 14.39539932 34.5625 18.1875 C28.55700606 22.40687721 22.36816213 25.14965886 14.9453125 24.6484375 C8.02071087 23.3089244 1.46392291 20.00516172 -2.84765625 14.33203125 C-4.85263124 11.35528565 -6.29221163 8.91394183 -7 5.375 C-6.4375 3.1875 -6.4375 3.1875 -4.75 1.3125 C-2.4375 0.1875 -2.4375 0.1875 0 0 Z " fill="#363241" transform="translate(189.4375,128.8125)"/>
<path d="M0 0 C1.6328125 1.0859375 1.6328125 1.0859375 3 3 C3.3984375 6.25 3.3984375 6.25 3.375 10 C3.38273437 11.2375 3.39046875 12.475 3.3984375 13.75 C3 17 3 17 1.703125 18.94921875 C0 20 0 20 -3.625 19.8125 C-4.73875 19.544375 -5.8525 19.27625 -7 19 C-8.47694068 16.04611864 -8.20930797 13.34838118 -8.25 10.0625 C-8.27578125 8.81597656 -8.3015625 7.56945312 -8.328125 6.28515625 C-8 3 -8 3 -6.640625 1.08203125 C-4.28415242 -0.47211852 -2.761737 -0.41426055 0 0 Z " fill="#393443" transform="translate(261,171)"/>
</svg>
