<?xml version="1.0" encoding="UTF-8"?>
<svg version="1.1" xmlns="http://www.w3.org/2000/svg" width="512" height="512">
<path d="M0 0 C1.2379834 -0.00315216 2.4759668 -0.00630432 3.75146484 -0.009552 C5.11295609 -0.00776222 6.47444701 -0.00571127 7.8359375 -0.00341797 C9.22216814 -0.00409106 10.60839867 -0.00506113 11.99462891 -0.00631714 C14.90333172 -0.00779387 17.81200387 -0.00564037 20.72070312 -0.00097656 C24.45690348 0.00472073 28.19303202 0.00144159 31.92922974 -0.00454903 C34.79273016 -0.00815532 37.65621343 -0.00701574 40.51971436 -0.00442123 C41.89768482 -0.00375215 43.27565682 -0.00457973 44.65362549 -0.00690079 C46.57637504 -0.00942839 48.49913002 -0.0048957 50.421875 0 C52.06615479 0.00119339 52.06615479 0.00119339 53.74365234 0.00241089 C56.2109375 0.12939453 56.2109375 0.12939453 57.2109375 1.12939453 C57.31502975 3.96374556 57.35298808 6.76765664 57.33753967 9.60214233 C57.33319856 10.88927818 57.33319856 10.88927818 57.32876974 12.20241678 C57.26458443 20.68239034 56.77919869 29.10880426 56.18530273 37.56542969 C56.07474038 39.20874289 55.96476346 40.85209556 55.85531616 42.4954834 C55.62151639 45.98927241 55.38391508 49.48277282 55.14321709 52.97609329 C54.76232978 58.50761677 54.39167507 64.03979882 54.0224762 69.57211304 C53.10509763 83.29555403 52.17457292 97.01809964 51.24145508 110.74047852 C50.51364677 121.44585172 49.78949377 132.15144588 49.07621151 142.85779798 C48.70982646 148.35105134 48.33600699 153.84373113 47.95642269 159.33608747 C47.72200119 162.75158142 47.49422648 166.16749533 47.2682457 169.58355713 C47.16259354 171.16028978 47.05422513 172.73684328 46.94286156 174.31318283 C45.62647231 188.43144333 45.62647231 188.43144333 49.0859375 201.94189453 C49.41335938 202.64958984 49.74078125 203.35728516 50.078125 204.08642578 C51.28515616 206.26324404 52.70240894 208.15315512 54.2109375 210.12939453 C54.28824348 209.26212486 54.28824348 209.26212486 54.36711121 208.37733459 C64.04850444 100.16718932 64.04850444 100.16718932 79.6796875 85.87158203 C89.09280732 79.39279894 101.01652204 78.96011583 111.984375 80.74267578 C134.03834948 85.35868756 151.37895595 98.76543282 167.2109375 114.12939453 C168.03464844 114.91314453 168.85835938 115.69689453 169.70703125 116.50439453 C175.3673914 121.99798497 180.34503608 127.93159916 185.2109375 134.12939453 C185.69046875 134.73251465 186.17 135.33563477 186.6640625 135.95703125 C247.65638701 212.83277361 287.01245337 323.30535561 276.64453125 421.94580078 C275.60123656 430.58278479 273.92952059 439.06268627 271.8359375 447.50439453 C271.6512793 448.27154785 271.46662109 449.03870117 271.27636719 449.82910156 C269.58357979 456.14968336 266.53950504 462.21534602 260.8359375 465.81689453 C252.19914296 470.77323685 241.05819754 472.79032101 231.2109375 473.12939453 C229.50744141 473.20673828 229.50744141 473.20673828 227.76953125 473.28564453 C177.04904371 474.47556799 111.33012623 459.24896495 73.2734375 423.69189453 C55.67629529 405.14355544 55.6877463 370.9180033 54.078125 346.84033203 C54.03435919 346.18948261 53.99059338 345.53863319 53.94550133 344.86806107 C53.29654031 334.92134595 53.13206149 325.03615291 53.29101372 315.07122803 C53.3242141 312.90313598 53.34810329 310.73513861 53.36891174 308.56689453 C53.37603967 307.85033691 53.38316759 307.1337793 53.39051151 306.39550781 C53.40490197 304.94808173 53.41905921 303.50065331 53.43298244 302.05322266 C53.473229 298.37793091 53.54184897 294.70637944 53.65991211 291.03271484 C54.98797259 273.7530426 54.98797259 273.7530426 49.0090332 258.45532227 C45.99101967 255.58091298 42.72205316 253.43140804 39.11677551 251.36680603 C35.83201543 249.23409597 33.35160448 246.35908998 30.7734375 243.44189453 C29.88785156 242.46865234 29.00226563 241.49541016 28.08984375 240.49267578 C26.2109375 238.12939453 26.2109375 238.12939453 26.2109375 236.12939453 C25.5509375 236.12939453 24.8909375 236.12939453 24.2109375 236.12939453 C23.99179688 236.66306641 23.77265625 237.19673828 23.546875 237.74658203 C21.73609706 240.97633216 19.33650986 243.55454777 16.8359375 246.25439453 C16.37316406 246.77259766 15.91039062 247.29080078 15.43359375 247.82470703 C12.81712583 250.66661475 10.32229671 253.05102375 7.14428711 255.28759766 C0.81827364 259.67401216 0.81827364 259.67401216 -2.73730469 266.31542969 C-2.94195208 270.06641494 -2.77794452 273.63494414 -2.4765625 277.37939453 C-2.41325417 278.77401317 -2.35762402 280.16899834 -2.30908203 281.56420898 C-2.23181652 283.77509434 -2.15052898 285.98490557 -2.04797363 288.19477844 C-1.65037407 296.91137978 -1.89802444 305.59947968 -2.1640625 314.31689453 C-2.18684265 315.12025238 -2.2096228 315.92361023 -2.23309326 316.75131226 C-4.02794544 379.81113849 -4.02794544 379.81113849 -12.7890625 406.12939453 C-13.06105469 407.03947266 -13.33304688 407.94955078 -13.61328125 408.88720703 C-16.03473616 416.05296048 -20.46346823 420.87504567 -25.7890625 426.12939453 C-26.39492187 426.74556641 -27.00078125 427.36173828 -27.625 427.99658203 C-33.84081724 433.88667959 -41.32806034 438.03545353 -48.7890625 442.12939453 C-49.43584961 442.48759277 -50.08263672 442.84579102 -50.74902344 443.21484375 C-81.26473224 459.74355563 -117.59644295 468.17530676 -151.7890625 472.12939453 C-153.45388672 472.32662109 -153.45388672 472.32662109 -155.15234375 472.52783203 C-173.20383434 474.33542378 -196.07356333 475.1093103 -211.7890625 464.75439453 C-224.45432569 453.67228924 -225.33029611 430.88413637 -226.7890625 415.12939453 C-227.25172792 407.55040169 -227.22808452 399.96921689 -227.1640625 392.37939453 C-227.15907745 391.37515442 -227.15409241 390.37091431 -227.1489563 389.33624268 C-227.05852474 373.73780282 -226.46456044 358.52743096 -223.7890625 343.12939453 C-223.56100244 341.78044173 -223.33297708 340.43148306 -223.10498047 339.08251953 C-209.05617283 257.00141908 -174.73921007 174.92530827 -116.7890625 114.12939453 C-116.1909375 113.47841797 -115.5928125 112.82744141 -114.9765625 112.15673828 C-98.83479687 95.08682112 -75.63661129 80.47138426 -51.7265625 79.75439453 C-43.37567531 79.99773164 -34.16287637 81.37741616 -27.7890625 87.12939453 C-3.99263043 116.26199621 -6.64939678 174.59962738 -3.7890625 210.12939453 C3.6114896 201.12872306 4.76958079 191.95549412 3.875 180.59814453 C3.80092926 179.46144318 3.72685852 178.32474182 3.65054321 177.15359497 C3.44052969 173.98237231 3.21405922 170.81280791 2.98121643 167.64319611 C2.73309682 164.20385589 2.50780072 160.76301865 2.28027344 157.32226562 C1.85857312 150.98606231 1.42413974 144.65082343 0.98339844 138.31591797 C-0.32935968 119.41689434 -1.57387854 100.51321157 -2.81990623 81.60969162 C-3.29413952 74.42435689 -3.77607562 67.23959299 -4.2644825 60.05520821 C-4.57378118 55.48967262 -4.87789591 50.92380072 -5.18092728 46.35784531 C-5.32325308 44.23000226 -5.46771694 42.10230087 -5.61457443 39.97476578 C-6.3204092 29.73326611 -6.91095465 19.52461793 -6.93847656 9.25585938 C-6.94162746 8.44618525 -6.94477837 7.63651112 -6.94802475 6.80230141 C-6.91076338 0.12004434 -6.56032108 0.00476137 0 0 Z " fill="#E8535E" transform="translate(230.7890625,3.87060546875)"/>
<path d="M0 0 C10.75749719 9.29169503 12.3595705 29.24978388 14.69140625 42.4609375 C14.82788574 43.21826172 14.96436523 43.97558594 15.10498047 44.75585938 C18.82244178 65.65451703 20.87124501 86.98646736 22.28125 108.15625 C22.49978363 111.43483722 22.85446935 114.59697512 23.4453125 117.828125 C23.99059612 122.02723827 24.16424334 124.47588778 22.69140625 128.4609375 C18.2647225 133.30114598 12.63570583 136.75444274 7.0234375 140.06347656 C5.46911673 140.99489742 3.94410967 141.97706773 2.453125 143.00683594 C1.75832031 143.48411133 1.06351563 143.96138672 0.34765625 144.453125 C-0.26271484 144.88737793 -0.87308594 145.32163086 -1.50195312 145.76904297 C-3.30859375 146.4609375 -3.30859375 146.4609375 -5.4284668 145.671875 C-7.34775465 144.43571505 -8.9725868 143.16490446 -10.62109375 141.5859375 C-11.15347656 141.09351563 -11.68585938 140.60109375 -12.234375 140.09375 C-13.30859375 138.4609375 -13.30859375 138.4609375 -13.125 136.4921875 C-12.27062578 134.36647174 -11.24871985 132.70899589 -9.93359375 130.8359375 C-5.00784862 123.12607556 -3.78978227 115.49210028 -4.30859375 106.4609375 C-5.96474032 106.07874983 -7.63316399 105.74698648 -9.30859375 105.4609375 C-11.01514599 107.16748974 -10.80325792 109.56665124 -11.12109375 111.8984375 C-12.05334803 117.72154821 -13.40807693 123.27923129 -16.30859375 128.4609375 C-17.29859375 129.1209375 -18.28859375 129.7809375 -19.30859375 130.4609375 C-25.00260381 121.92767992 -28.59410891 113.30760673 -31.80859375 103.5859375 C-34.3570476 95.90544758 -36.93702544 88.3967875 -40.55859375 81.1484375 C-41.01588867 80.21765381 -41.01588867 80.21765381 -41.48242188 79.26806641 C-43.53637128 75.3320694 -45.92292776 72.33198226 -49.30859375 69.4609375 C-52.06875875 69.51073334 -52.06875875 69.51073334 -54.30859375 70.4609375 C-54.078299 74.14565342 -52.89409968 76.13878278 -50.62109375 78.8984375 C-46.18221477 84.5088366 -41.30859375 93.1917221 -41.30859375 100.4609375 C-42.93667969 100.96753906 -42.93667969 100.96753906 -44.59765625 101.484375 C-46.04297836 101.93486501 -47.48829032 102.38538757 -48.93359375 102.8359375 C-49.64644531 103.05765625 -50.35929688 103.279375 -51.09375 103.5078125 C-51.79628906 103.72695312 -52.49882812 103.94609375 -53.22265625 104.171875 C-53.92036133 104.38255615 -54.61806641 104.5932373 -55.33691406 104.81030273 C-57.54119659 105.49821899 -57.54119659 105.49821899 -60.45703125 106.89453125 C-63.30859375 107.4609375 -63.30859375 107.4609375 -66.30859375 105.72265625 C-67.29859375 104.87316406 -68.28859375 104.02367187 -69.30859375 103.1484375 C-73.36454185 99.69982538 -75.93895658 97.88443567 -81.30859375 97.4609375 C-81.63859375 99.1109375 -81.96859375 100.7609375 -82.30859375 102.4609375 C-81.30957031 103.17121094 -80.31054688 103.88148438 -79.28125 104.61328125 C-77.97782917 105.54161695 -76.67444568 106.47000507 -75.37109375 107.3984375 C-74.71173828 107.86701172 -74.05238281 108.33558594 -73.37304688 108.81835938 C-68.421875 112.34765625 -68.421875 112.34765625 -67.30859375 113.4609375 C-67.65554226 120.74685612 -68.94739659 129.09974034 -74.30859375 134.4609375 C-73.98817978 137.06374318 -73.98817978 137.06374318 -73.30859375 139.4609375 C-70.96711144 139.58307644 -70.96711144 139.58307644 -68.30859375 138.4609375 C-64.02188382 133.33779636 -62.81533128 128.58449931 -61.49609375 122.2109375 C-59.97040638 115.16272539 -59.97040638 115.16272539 -57.5625 112.609375 C-55.46650671 111.53890669 -53.60683977 110.95312086 -51.30859375 110.4609375 C-50.60863281 110.24695313 -49.90867188 110.03296875 -49.1875 109.8125 C-45.49054087 108.73625859 -42.13075173 108.38172179 -38.30859375 108.4609375 C-37.90640625 109.51667969 -37.90640625 109.51667969 -37.49609375 110.59375 C-31.59262987 125.46892542 -23.80754125 138.2209753 -12.30859375 149.4609375 C-13.71178625 152.89350286 -15.122989 154.28468959 -18.31640625 156.125 C-19.12956299 156.60291992 -19.94271973 157.08083984 -20.78051758 157.57324219 C-21.65603271 158.07243164 -22.53154785 158.57162109 -23.43359375 159.0859375 C-31.11776274 163.45393613 -31.11776274 163.45393613 -38.3828125 168.46875 C-48.47417749 176.01113031 -58.49554495 177.86958145 -71.046875 176.06933594 C-74.38541026 175.17127572 -75.70979544 173.78973772 -77.43359375 170.8359375 C-78.10041938 169.05941336 -78.72879915 167.26773928 -79.30859375 165.4609375 C-81.87294073 161.4898171 -84.56584158 158.52805674 -89.30859375 157.4609375 C-92.04223695 157.75613518 -92.04223695 157.75613518 -94.30859375 158.4609375 C-94.27766202 160.87679324 -94.27766202 160.87679324 -93.30859375 163.4609375 C-92.42171875 163.8528125 -91.53484375 164.2446875 -90.62109375 164.6484375 C-85.7093998 167.33596815 -83.87182583 171.61624708 -81.30859375 176.4609375 C-84.40367681 178.52432621 -86.74500748 179.2343778 -90.30859375 180.2109375 C-101.14886345 183.47869399 -111.86319329 188.7928368 -118.30859375 198.4609375 C-117.99641735 201.10726037 -117.99641735 201.10726037 -117.30859375 203.4609375 C-113.0690078 202.96302412 -111.31716065 201.87053242 -108.49609375 198.7109375 C-104.92211833 194.95420197 -101.17977777 191.43749332 -96.30859375 189.4609375 C-95.31859375 189.7909375 -94.32859375 190.1209375 -93.30859375 190.4609375 C-91.8456776 199.80655718 -90.85397091 209.01730143 -90.30859375 218.4609375 C-88.65244718 218.84312517 -86.98402351 219.17488852 -85.30859375 219.4609375 C-83.46076388 217.61310763 -84.13472615 214.68658125 -84.12109375 212.2109375 C-84.1523178 206.09726895 -84.77992778 200.30977165 -85.87109375 194.30078125 C-86.28219915 191.63226671 -86.38768438 189.15496195 -86.30859375 186.4609375 C-78.26593607 183.2862042 -69.83993084 183.32333529 -61.30859375 183.4609375 C-61.57542969 183.986875 -61.84226562 184.5128125 -62.1171875 185.0546875 C-63.57767098 188.00438529 -64.97898907 190.97834467 -66.37109375 193.9609375 C-67.16193359 195.64703125 -67.16193359 195.64703125 -67.96875 197.3671875 C-73.84164751 210.92793043 -70.20243534 228.82121902 -68.81430054 243.1343689 C-68.64476664 244.88407442 -68.48017925 246.63426677 -68.32070923 248.38491821 C-68.08924488 250.88759493 -67.8351566 253.38696154 -67.57421875 255.88671875 C-67.5073436 256.63195801 -67.44046844 257.37719727 -67.37156677 258.14501953 C-66.68170158 264.31308245 -64.73499061 269.87278084 -60.43359375 274.4609375 C-57.54570164 275.81994555 -55.46646409 275.78988233 -52.30859375 275.4609375 C-49.72308248 274.51857212 -48.56967207 273.88135195 -47.10449219 271.52197266 C-44.43529617 264.69033385 -43.31005664 258.11186638 -42.55859375 250.8359375 C-42.43355469 249.73636719 -42.30851563 248.63679687 -42.1796875 247.50390625 C-41.87674674 244.82404566 -41.58664985 242.14347416 -41.30859375 239.4609375 C-38.83402415 240.43973304 -36.39121887 241.42191622 -33.984375 242.55859375 C-30.50150059 243.73311052 -27.13233564 243.79473916 -23.49609375 243.8984375 C-10.08691265 244.53639129 -10.08691265 244.53639129 -4.93359375 249.9609375 C-4.39734375 250.7859375 -3.86109375 251.6109375 -3.30859375 252.4609375 C-2.31859375 253.9459375 -2.31859375 253.9459375 -1.30859375 255.4609375 C0.34140625 255.1309375 1.99140625 254.8009375 3.69140625 254.4609375 C3.44942199 249.50026022 1.90177374 246.65302366 -1.34375 243.07421875 C-4.86579696 240.18235912 -9.00865897 238.82909857 -13.30859375 237.4609375 C-12.12869972 223.93284219 -12.12869972 223.93284219 -6.90625 218.76171875 C-4.82513696 217.0673162 -2.70896991 215.66112558 -0.30859375 214.4609375 C-0.63859375 212.8109375 -0.96859375 211.1609375 -1.30859375 209.4609375 C-6.70914624 209.85609988 -10.44790144 211.75915989 -14.30859375 215.4609375 C-17.66032892 220.15174362 -18.39419574 224.93008118 -19.46484375 230.5 C-20.31430224 233.48097006 -20.7419431 234.76586611 -23.30859375 236.4609375 C-28.9311927 237.17069358 -34.28049234 235.15245482 -38.83203125 231.9609375 C-40.30859375 230.4609375 -40.30859375 230.4609375 -40.99609375 227.3359375 C-38.04927117 210.72657389 -38.04927117 210.72657389 -30.64770508 205.22680664 C-28.73417735 204.00685196 -26.78993154 202.87982952 -24.80859375 201.7734375 C-24.07519775 201.35336426 -23.34180176 200.93329102 -22.58618164 200.50048828 C-10.33312803 193.55252414 2.23491398 187.16381221 14.81640625 180.8359375 C15.80169312 180.339729 15.80169312 180.339729 16.80688477 179.83349609 C19.41393126 178.53466866 21.92338144 177.38361244 24.69140625 176.4609375 C25.34774277 241.18921223 25.34774277 241.18921223 21.69140625 272.4609375 C21.57542084 273.48000183 21.57542084 273.48000183 21.45709229 274.51965332 C20.92719362 279.17206762 20.35567785 283.81724673 19.75390625 288.4609375 C19.60856445 289.59450684 19.46322266 290.72807617 19.31347656 291.89599609 C17.02257561 308.02674795 12.78340636 322.07552974 -0.30859375 332.4609375 C-27.2776018 351.9462537 -61.09356354 362.02015625 -93.30859375 368.4609375 C-94.1490625 368.63206055 -94.98953125 368.80318359 -95.85546875 368.97949219 C-109.5450851 371.72761468 -122.9975508 372.53885809 -136.93359375 372.6484375 C-137.97064453 372.66156982 -139.00769531 372.67470215 -140.07617188 372.68823242 C-152.09640292 372.70060283 -164.52099088 371.72641707 -173.74609375 363.2109375 C-177.60660064 356.41644538 -179.03428189 348.698194 -180.43359375 341.0859375 C-180.60246094 340.21710938 -180.77132812 339.34828125 -180.9453125 338.453125 C-183.10482586 326.95839245 -183.51426617 315.56917188 -183.49609375 303.8984375 C-183.4954895 303.17817383 -183.49488525 302.45791016 -183.4942627 301.71582031 C-183.27468793 204.5031075 -143.12500161 101.428917 -74.74609375 27.6484375 C-56.73284768 10.18300035 -26.47893258 -12.93542844 0 0 Z " fill="#E8535E" transform="translate(195.30859375,95.5390625)"/>
<path d="M0 0 C1.2379834 -0.00315216 2.4759668 -0.00630432 3.75146484 -0.009552 C5.11295609 -0.00776222 6.47444701 -0.00571127 7.8359375 -0.00341797 C9.22216814 -0.00409106 10.60839867 -0.00506113 11.99462891 -0.00631714 C14.90333172 -0.00779387 17.81200387 -0.00564037 20.72070312 -0.00097656 C24.45690348 0.00472073 28.19303202 0.00144159 31.92922974 -0.00454903 C34.79273016 -0.00815532 37.65621343 -0.00701574 40.51971436 -0.00442123 C41.89768482 -0.00375215 43.27565682 -0.00457973 44.65362549 -0.00690079 C46.57637504 -0.00942839 48.49913002 -0.0048957 50.421875 0 C52.06615479 0.00119339 52.06615479 0.00119339 53.74365234 0.00241089 C56.2109375 0.12939453 56.2109375 0.12939453 57.2109375 1.12939453 C57.31502975 3.96374556 57.35298808 6.76765664 57.33753967 9.60214233 C57.33319856 10.88927818 57.33319856 10.88927818 57.32876974 12.20241678 C57.26458443 20.68239034 56.77919869 29.10880426 56.18530273 37.56542969 C56.07474038 39.20874289 55.96476346 40.85209556 55.85531616 42.4954834 C55.62151639 45.98927241 55.38391508 49.48277282 55.14321709 52.97609329 C54.76232978 58.50761677 54.39167507 64.03979882 54.0224762 69.57211304 C53.10509763 83.29555403 52.17457292 97.01809964 51.24145508 110.74047852 C50.51364677 121.44585172 49.78949377 132.15144588 49.07621151 142.85779798 C48.70982646 148.35105134 48.33600699 153.84373113 47.95642269 159.33608747 C47.72200119 162.75158142 47.49422648 166.16749533 47.2682457 169.58355713 C47.16259354 171.16028978 47.05422513 172.73684328 46.94286156 174.31318283 C45.62647231 188.43144333 45.62647231 188.43144333 49.0859375 201.94189453 C49.41335938 202.64958984 49.74078125 203.35728516 50.078125 204.08642578 C51.28515616 206.26324404 52.70240894 208.15315512 54.2109375 210.12939453 C54.28824348 209.26212486 54.28824348 209.26212486 54.36711121 208.37733459 C64.04850444 100.16718932 64.04850444 100.16718932 79.6796875 85.87158203 C89.09280732 79.39279894 101.01652204 78.96011583 111.984375 80.74267578 C134.03834948 85.35868756 151.37895595 98.76543282 167.2109375 114.12939453 C168.03464844 114.91314453 168.85835938 115.69689453 169.70703125 116.50439453 C175.3673914 121.99798497 180.34503608 127.93159916 185.2109375 134.12939453 C185.69046875 134.73251465 186.17 135.33563477 186.6640625 135.95703125 C247.65638701 212.83277361 287.01245337 323.30535561 276.64453125 421.94580078 C275.60123656 430.58278479 273.92952059 439.06268627 271.8359375 447.50439453 C271.6512793 448.27154785 271.46662109 449.03870117 271.27636719 449.82910156 C269.58357979 456.14968336 266.53950504 462.21534602 260.8359375 465.81689453 C252.19914296 470.77323685 241.05819754 472.79032101 231.2109375 473.12939453 C229.50744141 473.20673828 229.50744141 473.20673828 227.76953125 473.28564453 C177.04904371 474.47556799 111.33012623 459.24896495 73.2734375 423.69189453 C55.67629529 405.14355544 55.6877463 370.9180033 54.078125 346.84033203 C54.03435919 346.18948261 53.99059338 345.53863319 53.94550133 344.86806107 C53.29654031 334.92134595 53.13206149 325.03615291 53.29101372 315.07122803 C53.3242141 312.90313598 53.34810329 310.73513861 53.36891174 308.56689453 C53.37603967 307.85033691 53.38316759 307.1337793 53.39051151 306.39550781 C53.40490197 304.94808173 53.41905921 303.50065331 53.43298244 302.05322266 C53.473229 298.37793091 53.54184897 294.70637944 53.65991211 291.03271484 C54.98797259 273.7530426 54.98797259 273.7530426 49.0090332 258.45532227 C45.99101967 255.58091298 42.72205316 253.43140804 39.11677551 251.36680603 C35.83201543 249.23409597 33.35160448 246.35908998 30.7734375 243.44189453 C29.88785156 242.46865234 29.00226563 241.49541016 28.08984375 240.49267578 C26.2109375 238.12939453 26.2109375 238.12939453 26.2109375 236.12939453 C25.5509375 236.12939453 24.8909375 236.12939453 24.2109375 236.12939453 C23.99179688 236.66306641 23.77265625 237.19673828 23.546875 237.74658203 C21.73609706 240.97633216 19.33650986 243.55454777 16.8359375 246.25439453 C16.37316406 246.77259766 15.91039062 247.29080078 15.43359375 247.82470703 C12.81712583 250.66661475 10.32229671 253.05102375 7.14428711 255.28759766 C0.81827364 259.67401216 0.81827364 259.67401216 -2.73730469 266.31542969 C-2.94195208 270.06641494 -2.77794452 273.63494414 -2.4765625 277.37939453 C-2.41325417 278.77401317 -2.35762402 280.16899834 -2.30908203 281.56420898 C-2.23181652 283.77509434 -2.15052898 285.98490557 -2.04797363 288.19477844 C-1.65037407 296.91137978 -1.89802444 305.59947968 -2.1640625 314.31689453 C-2.18684265 315.12025238 -2.2096228 315.92361023 -2.23309326 316.75131226 C-4.02794544 379.81113849 -4.02794544 379.81113849 -12.7890625 406.12939453 C-13.06105469 407.03947266 -13.33304688 407.94955078 -13.61328125 408.88720703 C-16.03473616 416.05296048 -20.46346823 420.87504567 -25.7890625 426.12939453 C-26.39492187 426.74556641 -27.00078125 427.36173828 -27.625 427.99658203 C-33.84081724 433.88667959 -41.32806034 438.03545353 -48.7890625 442.12939453 C-49.43584961 442.48759277 -50.08263672 442.84579102 -50.74902344 443.21484375 C-81.26473224 459.74355563 -117.59644295 468.17530676 -151.7890625 472.12939453 C-153.45388672 472.32662109 -153.45388672 472.32662109 -155.15234375 472.52783203 C-173.20383434 474.33542378 -196.07356333 475.1093103 -211.7890625 464.75439453 C-224.45432569 453.67228924 -225.33029611 430.88413637 -226.7890625 415.12939453 C-227.25172792 407.55040169 -227.22808452 399.96921689 -227.1640625 392.37939453 C-227.15907745 391.37515442 -227.15409241 390.37091431 -227.1489563 389.33624268 C-227.05852474 373.73780282 -226.46456044 358.52743096 -223.7890625 343.12939453 C-223.56100244 341.78044173 -223.33297708 340.43148306 -223.10498047 339.08251953 C-209.05617283 257.00141908 -174.73921007 174.92530827 -116.7890625 114.12939453 C-116.1909375 113.47841797 -115.5928125 112.82744141 -114.9765625 112.15673828 C-98.83479687 95.08682112 -75.63661129 80.47138426 -51.7265625 79.75439453 C-43.37567531 79.99773164 -34.16287637 81.37741616 -27.7890625 87.12939453 C-3.99263043 116.26199621 -6.64939678 174.59962738 -3.7890625 210.12939453 C3.6114896 201.12872306 4.76958079 191.95549412 3.875 180.59814453 C3.80092926 179.46144318 3.72685852 178.32474182 3.65054321 177.15359497 C3.44052969 173.98237231 3.21405922 170.81280791 2.98121643 167.64319611 C2.73309682 164.20385589 2.50780072 160.76301865 2.28027344 157.32226562 C1.85857312 150.98606231 1.42413974 144.65082343 0.98339844 138.31591797 C-0.32935968 119.41689434 -1.57387854 100.51321157 -2.81990623 81.60969162 C-3.29413952 74.42435689 -3.77607562 67.23959299 -4.2644825 60.05520821 C-4.57378118 55.48967262 -4.87789591 50.92380072 -5.18092728 46.35784531 C-5.32325308 44.23000226 -5.46771694 42.10230087 -5.61457443 39.97476578 C-6.3204092 29.73326611 -6.91095465 19.52461793 -6.93847656 9.25585938 C-6.94162746 8.44618525 -6.94477837 7.63651112 -6.94802475 6.80230141 C-6.91076338 0.12004434 -6.56032108 0.00476137 0 0 Z M-127.80078125 138.82080078 C-166.36276132 187.59723974 -191.89847844 245.32728216 -207.7890625 305.12939453 C-208.05211182 306.11641357 -208.31516113 307.10343262 -208.58618164 308.12036133 C-210.53913743 315.66867561 -212.01128732 323.2631908 -213.3515625 330.94189453 C-213.67688965 332.79500244 -213.67688965 332.79500244 -214.00878906 334.68554688 C-217.51878865 354.89600731 -218.87053102 374.58165693 -218.9140625 395.06689453 C-218.91674133 395.77867859 -218.91942017 396.49046265 -218.92218018 397.22381592 C-218.95885955 410.08049225 -217.99028082 422.20246007 -215.4765625 434.81689453 C-215.27611328 435.89261719 -215.07566406 436.96833984 -214.86914062 438.07666016 C-213.44443795 445.27956871 -211.84417794 451.89456642 -206.6640625 457.37939453 C-181.66521056 472.59608702 -142.47187253 463.59512407 -115.7890625 457.12939453 C-114.52320312 456.83291016 -113.25734375 456.53642578 -111.953125 456.23095703 C-83.23315783 449.06739543 -42.30928291 438.25892858 -24.5 412.24658203 C-19.16514101 402.51351869 -17.12086425 391.00402071 -15.7265625 380.12939453 C-15.56446289 378.87852051 -15.40236328 377.62764648 -15.23535156 376.33886719 C-14.72138083 372.27259046 -14.25255238 368.2016825 -13.7890625 364.12939453 C-13.71173889 363.46806519 -13.63441528 362.80673584 -13.55474854 362.12536621 C-9.91852736 330.88696417 -10.47073139 299.52338638 -10.7890625 268.12939453 C-21.11819759 272.97645075 -31.43712418 277.81990026 -41.5390625 283.12939453 C-42.4986084 283.6335791 -43.4581543 284.13776367 -44.44677734 284.65722656 C-61.99077251 292.73848164 -61.99077251 292.73848164 -73.93359375 306.87548828 C-76.05069663 314.45482163 -76.05069663 314.45482163 -75.7890625 322.12939453 C-71.61133239 326.37343782 -66.53164632 327.72669477 -60.76953125 328.37939453 C-58.74901612 328.26686976 -58.74901612 328.26686976 -57.1484375 327.09033203 C-54.81364494 323.72232667 -54.27557966 319.70145093 -53.41601562 315.75439453 C-52.16686877 310.50693243 -50.26143794 307.1095073 -46.04296875 303.73095703 C-43.10423819 302.03423038 -41.27358488 301.08815858 -37.8515625 301.37939453 C-37.1709375 301.62689453 -36.4903125 301.87439453 -35.7890625 302.12939453 C-35.9140625 304.37939453 -35.9140625 304.37939453 -36.7890625 307.12939453 C-38.74797131 308.52239635 -40.7529743 309.85184899 -42.7890625 311.12939453 C-46.43050557 314.90496073 -47.41250684 317.77281035 -48.0390625 322.94189453 C-48.18859375 324.10333984 -48.338125 325.26478516 -48.4921875 326.46142578 C-48.63914063 327.78207031 -48.63914063 327.78207031 -48.7890625 329.12939453 C-48.13679687 329.33693359 -47.48453125 329.54447266 -46.8125 329.75830078 C-40.58846467 331.95231914 -36.16483472 334.29395184 -32.7890625 340.12939453 C-31.9140625 343.56689453 -31.9140625 343.56689453 -31.7890625 346.12939453 C-33.4390625 346.45939453 -35.0890625 346.78939453 -36.7890625 347.12939453 C-37.129375 346.58669922 -37.4696875 346.04400391 -37.8203125 345.48486328 C-40.68309962 341.25920676 -43.10829207 338.13576185 -48.1875 336.56689453 C-52.39789271 335.8588405 -56.65180882 335.77005077 -60.91210938 335.61425781 C-66.55263479 335.33648453 -70.04642436 334.06983018 -74.7890625 331.12939453 C-75.4490625 331.12939453 -76.1090625 331.12939453 -76.7890625 331.12939453 C-76.85899414 331.80405762 -76.92892578 332.4787207 -77.00097656 333.17382812 C-77.33213955 336.28580187 -77.68546157 339.39489356 -78.0390625 342.50439453 C-78.14863281 343.56529297 -78.25820312 344.62619141 -78.37109375 345.71923828 C-79.15527928 352.44672469 -80.15439819 359.2764943 -83.7890625 365.12939453 C-87.16759653 367.29067506 -89.79911304 367.61795977 -93.7890625 367.12939453 C-98.37955166 364.46050549 -100.16799911 361.03042325 -101.7890625 356.12939453 C-102.37563412 353.31839508 -102.68272677 350.50951698 -102.95703125 347.65283203 C-103.08438408 346.45344498 -103.08438408 346.45344498 -103.21430969 345.22982788 C-103.48224463 342.65586278 -103.73133353 340.08061583 -103.9765625 337.50439453 C-104.06244629 336.62867798 -104.14833008 335.75296143 -104.23681641 334.85070801 C-108.22777842 293.87946188 -108.22777842 293.87946188 -97.7421875 278.68798828 C-96.61515935 277.14950793 -96.61515935 277.14950793 -96.7890625 275.12939453 C-105.18210303 274.84488468 -113.7776332 275.4589181 -121.7890625 278.12939453 C-121.64711486 280.1921656 -121.50034034 282.25460484 -121.3515625 284.31689453 C-121.27035156 285.46544922 -121.18914062 286.61400391 -121.10546875 287.79736328 C-120.86662984 291.003034 -120.86662984 291.003034 -120.2578125 293.59814453 C-119.64483159 296.90824143 -119.69512952 300.07856612 -119.7265625 303.44189453 C-119.73558594 304.69615234 -119.74460937 305.95041016 -119.75390625 307.24267578 C-119.76550781 308.19529297 -119.77710937 309.14791016 -119.7890625 310.12939453 C-121.44520907 310.5115822 -123.11363274 310.84334555 -124.7890625 311.12939453 C-126.35975588 309.55870116 -126.09950577 307.86356133 -126.2890625 305.68408203 C-126.3715625 304.77142578 -126.4540625 303.85876953 -126.5390625 302.91845703 C-126.6215625 301.95681641 -126.7040625 300.99517578 -126.7890625 300.00439453 C-127.31536157 294.01774259 -127.86760708 288.06949111 -128.7890625 282.12939453 C-134.41672656 282.12939453 -137.44343623 284.73230597 -141.7890625 288.12939453 C-143.06180687 289.41985105 -144.31358321 290.73147071 -145.5390625 292.06689453 C-147.21484375 293.84814453 -147.21484375 293.84814453 -148.7890625 295.12939453 C-151.7265625 295.06689453 -151.7265625 295.06689453 -153.7890625 294.12939453 C-153.36406012 289.31270089 -151.27632572 286.30736611 -147.7890625 283.12939453 C-138.51680206 276.19442031 -128.10153375 271.52241729 -116.7890625 269.12939453 C-119.69200694 262.59371516 -122.82392548 256.96704295 -129.7890625 254.12939453 C-129.4590625 252.47939453 -129.1290625 250.82939453 -128.7890625 249.12939453 C-123.43983889 249.54894148 -120.64389972 250.37940889 -116.7890625 254.12939453 C-115.8003287 256.36620214 -114.84395563 258.61749233 -113.9140625 260.87939453 C-112.07650716 264.29274114 -110.26714426 266.5530873 -106.59375 267.98535156 C-94.34278145 270.67591838 -84.05861983 267.12609199 -73.71697998 260.64877319 C-70.00112826 258.25288619 -66.36451105 255.75626628 -62.76367188 253.19140625 C-58.88580597 250.50325331 -54.8468302 248.11833029 -50.76464844 245.75463867 C-50.11270508 245.21830811 -49.46076172 244.68197754 -48.7890625 244.12939453 C-48.36497843 240.15355325 -48.36497843 240.15355325 -50.66015625 237.85986328 C-51.50707031 237.02068359 -52.35398438 236.18150391 -53.2265625 235.31689453 C-61.98835522 226.18029092 -67.74722754 215.43629848 -71.9140625 203.54345703 C-72.56676991 201.21041131 -72.56676991 201.21041131 -73.7890625 200.12939453 C-81.08424464 200.65995323 -88.63708055 202.02807323 -94.7890625 206.12939453 C-95.53248006 208.68745337 -96.13099894 211.15361939 -96.6640625 213.75439453 C-98.1054476 220.06370783 -99.55195137 225.06553001 -103.7890625 230.12939453 C-106.6015625 231.12939453 -106.6015625 231.12939453 -108.7890625 231.12939453 C-109.5390625 229.00439453 -109.5390625 229.00439453 -109.7890625 226.12939453 C-108.86398468 224.70873931 -107.92785792 223.29284951 -106.9140625 221.93408203 C-104.05442919 217.34675359 -101.8343841 210.50262873 -102.7890625 205.12939453 C-104.71849212 203.30167128 -106.43000101 201.91214435 -108.6015625 200.44189453 C-109.42237305 199.85698242 -109.42237305 199.85698242 -110.25976562 199.26025391 C-112.73836882 197.50269891 -115.2609774 195.8147846 -117.7890625 194.12939453 C-117.4590625 192.47939453 -117.1290625 190.82939453 -116.7890625 189.12939453 C-110.10039521 189.65692335 -106.72026003 193.15978624 -101.7890625 197.39111328 C-98.93660876 199.48490285 -98.93660876 199.48490285 -95.9375 198.56298828 C-94.89851563 198.08990234 -93.85953125 197.61681641 -92.7890625 197.12939453 C-91.43284429 196.68185596 -90.07030579 196.25317011 -88.703125 195.84033203 C-88.00058594 195.62119141 -87.29804688 195.40205078 -86.57421875 195.17626953 C-85.86136719 194.95455078 -85.14851562 194.73283203 -84.4140625 194.50439453 C-83.67800781 194.27494141 -82.94195312 194.04548828 -82.18359375 193.80908203 C-80.38557993 193.24866214 -78.58734403 192.68895482 -76.7890625 192.12939453 C-77.35026513 186.78540535 -79.19318399 182.71624939 -81.6015625 178.00439453 C-81.94509766 177.30185547 -82.28863281 176.59931641 -82.64257812 175.87548828 C-84.62068957 171.94895562 -86.61894513 169.22043868 -89.7890625 166.12939453 C-89.5390625 163.37939453 -89.5390625 163.37939453 -88.7890625 161.12939453 C-85.0167555 161.34495493 -83.92292755 161.98347528 -81.31640625 164.82470703 C-73.54053152 174.60497158 -69.9333022 186.90888277 -66.16113281 198.62646484 C-61.92666887 211.51241484 -61.92666887 211.51241484 -53.7890625 222.12939453 C-48.5278778 214.39826435 -46.58719962 207.39198584 -45.7890625 198.12939453 C-44.13291593 197.74720686 -42.46449226 197.41544351 -40.7890625 197.12939453 C-39.21357217 198.70488486 -39.54288485 200.25325708 -39.4765625 202.44189453 C-39.56624359 210.26656924 -41.81452198 217.88484726 -46.6015625 224.12939453 C-49.02578579 226.77589031 -49.02578579 226.77589031 -48.6484375 229.08251953 C-47.58632614 231.61227568 -46.21498895 232.9994277 -44.2265625 234.87939453 C-43.58589844 235.49298828 -42.94523438 236.10658203 -42.28515625 236.73876953 C-41.79144531 237.19767578 -41.29773438 237.65658203 -40.7890625 238.12939453 C-35.63848772 236.27518761 -31.48826226 233.426077 -27.015625 230.31298828 C-23.7890625 228.12939453 -23.7890625 228.12939453 -20.5625 226.35205078 C-17.40942842 224.49035348 -15.20247512 222.88704709 -12.7890625 220.12939453 C-12.16285704 216.96334871 -12.16285704 216.96334871 -12.41015625 213.44580078 C-12.42942673 212.79297119 -12.4486972 212.1401416 -12.46855164 211.4675293 C-12.54331122 209.35193165 -12.65993214 207.24233577 -12.7890625 205.12939453 C-12.84969879 204.0847554 -12.84969879 204.0847554 -12.91156006 203.01901245 C-13.22490625 197.8815733 -13.64920724 192.75622348 -14.1015625 187.62939453 C-14.16975189 186.8409314 -14.23794128 186.05246826 -14.30819702 185.2401123 C-15.8693405 167.25737202 -18.06747311 149.50325709 -21.28305054 131.73571777 C-21.53125246 130.36359951 -21.77669292 128.99097794 -22.01895142 127.61779785 C-25.17437988 108.44718083 -25.17437988 108.44718083 -34.7890625 92.12939453 C-40.62087784 89.46993476 -45.53644612 88.57765049 -51.9140625 88.62939453 C-52.74301025 88.63511475 -53.57195801 88.64083496 -54.42602539 88.64672852 C-83.73551322 89.48640421 -110.46784562 117.36071226 -127.80078125 138.82080078 Z M84.2109375 93.12939453 C82.31448131 95.6409176 81.33643339 97.29957628 80.2109375 100.12939453 C79.89898437 100.83064453 79.58703125 101.53189453 79.265625 102.25439453 C68.34473115 129.08367707 66.81403591 160.97340569 64.3984375 189.56689453 C64.33509216 190.30458069 64.27174683 191.04226685 64.20648193 191.80230713 C63.91353959 195.27426332 63.64879265 198.74452151 63.44482422 202.22290039 C63.28898484 204.82580847 63.08746109 207.42638483 62.84033203 210.0222168 C62.29519634 216.54551151 62.29519634 216.54551151 64.77416992 222.3581543 C66.98037907 224.26224172 69.19545178 225.7232136 71.7109375 227.19189453 C72.50242187 227.706875 73.29390625 228.22185547 74.109375 228.75244141 C75.6822324 229.76706335 77.2722104 230.75568149 78.87890625 231.71582031 C80.43165921 232.65703049 81.95655277 233.64582745 83.44921875 234.6796875 C84.49142578 235.39535889 84.49142578 235.39535889 85.5546875 236.12548828 C86.47024414 236.77602173 86.47024414 236.77602173 87.40429688 237.43969727 C89.26110814 238.37631736 89.26110814 238.37631736 91.33081055 237.34008789 C93.25022662 236.1040946 94.87491928 234.83337228 96.5234375 233.25439453 C97.05582031 232.76197266 97.58820313 232.26955078 98.13671875 231.76220703 C99.42230894 230.1784247 99.42230894 230.1784247 99.02734375 228.16064453 C98.17296953 226.03492877 97.1510636 224.37745292 95.8359375 222.50439453 C90.91019237 214.7945326 89.69212602 207.16055731 90.2109375 198.12939453 C91.86708407 197.74720686 93.53550774 197.41544351 95.2109375 197.12939453 C96.91748974 198.83594677 96.70560167 201.23510827 97.0234375 203.56689453 C97.95569178 209.39000525 99.31042068 214.94768832 102.2109375 220.12939453 C103.2009375 220.78939453 104.1909375 221.44939453 105.2109375 222.12939453 C111.05376263 212.28735415 115.81489194 202.90255212 119.0859375 191.87939453 C122.53818615 180.45730623 126.6626302 169.67770183 135.2109375 161.12939453 C137.8359375 161.50439453 137.8359375 161.50439453 140.2109375 162.12939453 C139.98064275 165.81411045 138.79644343 167.80723981 136.5234375 170.56689453 C132.08455852 176.17729363 127.2109375 184.86017913 127.2109375 192.12939453 C130.12677335 193.11104732 133.0437463 194.08927754 135.9609375 195.06689453 C136.7859375 195.3446875 137.6109375 195.62248047 138.4609375 195.90869141 C139.26015625 196.17617187 140.059375 196.44365234 140.8828125 196.71923828 C141.6159668 196.96536865 142.34912109 197.21149902 143.10449219 197.46508789 C143.79961914 197.68430908 144.49474609 197.90353027 145.2109375 198.12939453 C146.24806885 198.47732056 146.24806885 198.47732056 147.30615234 198.83227539 C149.49412592 199.39147543 149.49412592 199.39147543 152.015625 197.29345703 C153.02882813 196.45556641 154.04203125 195.61767578 155.0859375 194.75439453 C159.1807039 191.37176142 161.86094349 189.56058808 167.2109375 189.12939453 C167.5409375 190.77939453 167.8709375 192.42939453 168.2109375 194.12939453 C167.21191406 194.83966797 166.21289062 195.54994141 165.18359375 196.28173828 C163.88017292 197.21007398 162.57678943 198.13846211 161.2734375 199.06689453 C160.61408203 199.53546875 159.95472656 200.00404297 159.27539062 200.48681641 C156.10888915 202.64394971 156.10888915 202.64394971 153.2109375 205.12939453 C153.55788601 212.41531316 154.84974034 220.76819738 160.2109375 226.12939453 C159.8359375 228.75439453 159.8359375 228.75439453 159.2109375 231.12939453 C157.0234375 231.12939453 157.0234375 231.12939453 154.2109375 230.12939453 C150.44242613 225.62556387 149.0249744 221.69440706 147.89868164 216.04614258 C146.78883566 209.62563362 146.78883566 209.62563362 143.3828125 204.27783203 C140.96267531 203.13740767 138.84846123 202.58641039 136.2109375 202.12939453 C135.13714844 201.91541016 134.06335938 201.70142578 132.95703125 201.48095703 C130.04636671 200.9517453 127.14461739 200.50665286 124.2109375 200.12939453 C123.9428125 200.83322266 123.6746875 201.53705078 123.3984375 202.26220703 C117.49497362 217.13738246 109.709885 229.88943233 98.2109375 241.12939453 C99.61413 244.56195989 101.02533275 245.95314662 104.21875 247.79345703 C105.03190674 248.27137695 105.84506348 248.74929687 106.68286133 249.24169922 C107.55837646 249.74088867 108.4338916 250.24007812 109.3359375 250.75439453 C120.01575591 256.88320253 120.01575591 256.88320253 124.28515625 260.13720703 C133.6253981 267.12363048 142.4285566 269.20546319 154.140625 268.32861328 C157.74251057 267.74471639 159.85566789 267.10588121 162.28125 264.33642578 C163.81553213 262.04860673 164.71737917 259.95156344 165.78125 257.36376953 C167.39915648 253.70358765 168.86058191 252.25725396 172.2109375 250.12939453 C176.0234375 249.37939453 176.0234375 249.37939453 179.2109375 249.12939453 C179.7059375 251.60439453 179.7059375 251.60439453 180.2109375 254.12939453 C179.1796875 254.58314453 178.1484375 255.03689453 177.0859375 255.50439453 C172.02101017 258.33085093 169.81468383 263.13172758 167.2109375 268.12939453 C170.26216622 269.79157284 173.41857224 270.93839373 176.69384766 272.08227539 C186.72949363 275.62738677 198.87569291 280.19073093 204.2109375 290.12939453 C204.0859375 293.06689453 204.0859375 293.06689453 203.2109375 295.12939453 C198.97296971 294.63252934 197.25634513 293.55708013 194.4609375 290.37939453 C190.5123248 286.18964517 186.36992099 283.61334955 181.2109375 281.12939453 C175.9693304 288.99180519 176.72616051 300.96384839 176.2109375 310.12939453 C174.55479093 310.5115822 172.88636726 310.84334555 171.2109375 311.12939453 C169.36310763 309.28156466 170.0370699 306.35503828 170.0234375 303.87939453 C170.05466155 297.76572598 170.68227153 291.97822868 171.7734375 285.96923828 C172.1845429 283.30072374 172.29002813 280.82341898 172.2109375 278.12939453 C163.88151411 275.08204451 155.97499142 274.99987649 147.2109375 275.12939453 C147.47777344 275.65533203 147.74460937 276.18126953 148.01953125 276.72314453 C149.48001473 279.67284232 150.88133282 282.6468017 152.2734375 285.62939453 C152.80066406 286.75345703 153.32789063 287.87751953 153.87109375 289.03564453 C156.24174409 294.50956602 156.39538292 299.19150994 156.3828125 305.08251953 C156.38118103 305.96433899 156.37954956 306.84615845 156.37786865 307.75469971 C156.29939862 316.64619952 155.62433566 325.44657239 154.72167969 334.28857422 C154.45695661 336.91894995 154.22021892 339.55097686 153.984375 342.18408203 C153.81677154 343.88997584 153.64756152 345.59571275 153.4765625 347.30126953 C153.37628754 348.45764923 153.37628754 348.45764923 153.27398682 349.63739014 C152.58476122 355.99284706 150.77525426 361.84230121 145.8984375 366.19189453 C142.1989652 367.48240813 139.96068551 367.22023032 136.2109375 366.12939453 C129.70191616 359.97221218 129.55651082 351.1627287 128.5859375 342.75439453 C128.38484375 341.07796875 128.38484375 341.07796875 128.1796875 339.36767578 C127.85116863 336.62219666 127.52843555 333.87616624 127.2109375 331.12939453 C123.15200819 332.38020409 123.15200819 332.38020409 119.3515625 334.23095703 C116.0047068 335.63565924 112.53793551 335.42784399 108.9609375 335.50439453 C99.93887408 335.82445783 99.93887408 335.82445783 92.2109375 340.12939453 C90.26033943 342.37934181 88.78150132 344.57722832 87.2109375 347.12939453 C85.5609375 346.79939453 83.9109375 346.46939453 82.2109375 346.12939453 C82.45292176 341.16871725 84.00057001 338.32148069 87.24609375 334.74267578 C90.76814071 331.85081615 94.91100272 330.4975556 99.2109375 329.12939453 C98.37148204 318.79882202 98.37148204 318.79882202 92.80859375 310.43017578 C90.72748071 308.73577323 88.61131366 307.32958261 86.2109375 306.12939453 C86.5409375 304.47939453 86.8709375 302.82939453 87.2109375 301.12939453 C92.69359555 301.53056463 96.33331864 303.33668703 100.2109375 307.12939453 C103.67186425 311.95111911 104.81059309 317.12917664 105.62109375 322.93017578 C106.31757899 325.52700485 107.04021337 326.55854264 109.2109375 328.12939453 C115.96806762 328.12939453 120.56744681 325.66963985 126.2109375 322.12939453 C126.71007296 314.64236269 125.43368569 307.30241856 121.08203125 301.09033203 C118.03692688 297.65109672 114.44233617 295.5347635 110.4609375 293.31689453 C109.71650391 292.89166504 108.97207031 292.46643555 108.20507812 292.02832031 C105.88284489 290.71144415 103.54976614 289.41653843 101.2109375 288.12939453 C100.13295898 287.53457275 100.13295898 287.53457275 99.03320312 286.92773438 C89.26760172 281.57465471 79.30704799 276.69696785 69.18286133 272.06152344 C66.50328264 270.79488589 63.85875915 269.46089458 61.2109375 268.12939453 C60.79142432 306.57589108 60.94044899 344.64837301 66.5234375 382.75439453 C66.69963623 383.99833984 66.87583496 385.24228516 67.05737305 386.52392578 C69.04292528 398.80037851 72.6985098 411.58917888 82.2109375 420.12939453 C82.90574219 420.76876953 83.60054688 421.40814453 84.31640625 422.06689453 C95.90513689 432.0056384 110.15040747 438.48162287 124.2109375 444.12939453 C124.91492676 444.41524414 125.61891602 444.70109375 126.34423828 444.99560547 C155.97586141 456.88536881 188.46885346 464.23475789 220.44091797 464.42456055 C222.44391826 464.44174849 224.44663092 464.48565369 226.44921875 464.52978516 C237.89526677 464.60308497 248.88080382 463.24206325 258.2109375 456.12939453 C261.83045959 452.42386939 262.92431468 449.37810407 263.87890625 444.32470703 C264.06662346 443.36139969 264.06662346 443.36139969 264.25813293 442.37863159 C264.65191538 440.33955304 265.02525949 438.29733277 265.3984375 436.25439453 C265.65950808 434.89086388 265.92186676 433.5275792 266.18554688 432.16455078 C267.92790151 423.06246755 269.36426227 414.2640475 269.4140625 404.98876953 C269.42107681 404.11734314 269.42809113 403.24591675 269.43531799 402.3480835 C269.45283346 399.52513462 269.45917775 396.70239589 269.4609375 393.87939453 C269.46161224 392.91332275 269.46228699 391.94725098 269.46298218 390.9519043 C269.44546203 375.14775004 268.72064867 359.76061025 266.2109375 344.12939453 C266.03933105 343.03884766 265.86772461 341.94830078 265.69091797 340.82470703 C259.67507353 303.5791572 248.56001276 266.6166221 233.2109375 232.12939453 C232.74107422 231.06382324 232.27121094 229.99825195 231.78710938 228.90039062 C216.16552034 193.69196245 196.85351774 158.32657201 170.2109375 130.12939453 C169.03864072 128.78009889 167.87177929 127.42605781 166.7109375 126.06689453 C153.85164902 111.46200128 139.14498004 99.80697586 121.2109375 92.12939453 C120.35628906 91.75041016 119.50164062 91.37142578 118.62109375 90.98095703 C109.02879914 87.40639254 92.56060242 86.36918389 84.2109375 93.12939453 Z " fill="#3D322B" transform="translate(230.7890625,3.87060546875)"/>
<path d="M0 0 C15.84 0 31.68 0 48 0 C47.67 5.28 47.34 10.56 47 16 C46.81262235 19.09749021 46.62623645 22.19497429 46.44335938 25.29272461 C46.34559446 26.94066954 46.24781555 28.58861364 46.15002441 30.23655701 C46.1001387 31.07848539 46.05025299 31.92041378 45.99885559 32.78785515 C45.67205615 38.29644708 45.34270864 43.80488746 45.01392365 49.31336117 C44.72707275 54.1216834 44.44106024 58.93005291 44.15673828 63.73852539 C43.8787823 68.4384763 43.59856884 73.13828787 43.31684875 77.8380146 C43.2107903 79.61403143 43.1055397 81.39009671 43.00114441 83.16621208 C42.85511964 85.64862025 42.7061984 88.13083962 42.55664062 90.61303711 C42.51505325 91.33165421 42.47346588 92.0502713 42.43061829 92.79066467 C42.16149428 97.19673541 41.74436115 101.56790104 41.2250967 105.95164394 C40.87000823 109.18291133 40.70420486 112.4184119 40.53515625 115.6640625 C40.49755692 116.36666702 40.45995758 117.06927155 40.42121887 117.79316711 C40.29951776 120.07033734 40.18104261 122.34766339 40.0625 124.625 C39.89141459 127.84777068 39.71789653 131.07040444 39.54296875 134.29296875 C39.49895935 135.10441849 39.45494995 135.91586823 39.40960693 136.75190735 C39.11519587 142.10396574 38.78569077 147.45274421 38.42578125 152.80078125 C38.35608879 153.84144745 38.35608879 153.84144745 38.2849884 154.90313721 C38.06601924 158.15610442 37.8414231 161.408565 37.60961914 164.66064453 C36.51332436 180.73301057 35.67370551 193.80236342 46 207 C48.33333333 209.66666667 48.33333333 209.66666667 51 212 C51.75603516 212.72703125 51.75603516 212.72703125 52.52734375 213.46875 C68.91340053 228.67156855 90.00039415 239.7911965 109 251.3125 C111.82358895 253.02764747 114.64678781 254.74342891 117.46923828 256.46044922 C119.05796217 257.42692547 120.64737674 258.39226821 122.23779297 259.35595703 C133.84526912 266.42270634 143.82049948 273.50952662 147.6171875 287.23046875 C148.16591932 291.2003755 148.19134748 295.12131287 148.1875 299.125 C148.18669434 300.00591309 148.18588867 300.88682617 148.18505859 301.79443359 C148.10903169 310.14993978 147.30387366 318.34223121 146.27783203 326.62695312 C145.9897675 329.08739882 145.7526983 331.5486864 145.52734375 334.015625 C145.44919434 334.8307959 145.37104492 335.6459668 145.29052734 336.48583984 C145.1429347 338.03224411 145.00340152 339.57944772 144.87353516 341.12744141 C144.43611223 345.46263289 143.55233757 348.45315488 141 352 C138 351 138 351 136.86132812 349.37084961 C135.73017381 346.25728965 135.49232961 343.36850351 135.21875 340.06640625 C135.13022766 339.05573341 135.13022766 339.05573341 135.03991699 338.02464294 C134.85224151 335.87117231 134.67533601 333.71700759 134.5 331.5625 C133.80996689 307.11985189 133.80996689 307.11985189 123.57275391 286.1706543 C120.37061884 283.46898578 116.97977215 281.41157507 113.36328125 279.3125 C112.61850021 278.87752197 111.87371918 278.44254395 111.10636902 277.99438477 C102.13957196 272.82978321 92.83358839 268.35800865 83.50317383 263.89550781 C65.65613657 255.33195325 48.67697224 244.45005992 36 229 C34.75386851 227.57992932 33.50388318 226.16323084 32.25 224.75 C30.03763295 222.24816436 27.97732655 219.69202289 26 217 C22.80266072 217.29871336 21.34767628 217.64387814 19.0703125 219.9765625 C18.42835938 220.85054687 17.78640625 221.72453125 17.125 222.625 C0.76044077 243.49456227 -18.68673129 255.43158452 -42.11547852 267.03466797 C-66.38666994 277.59684816 -66.38666994 277.59684816 -82.13427734 297.18554688 C-83.6064941 301.97170446 -84.12986204 306.7813846 -84.625 311.75 C-84.80482422 313.36406738 -84.80482422 313.36406738 -84.98828125 315.01074219 C-85.58103955 320.4491402 -86.08549788 325.89080536 -86.5234375 331.34375 C-86.60513184 332.33922852 -86.68682617 333.33470703 -86.77099609 334.36035156 C-86.92007691 336.2415035 -87.05648365 338.1237169 -87.17822266 340.00683594 C-87.54207871 344.76134206 -88.01771841 348.07765139 -91 352 C-94 351 -94 351 -95.13647461 349.31396484 C-96.18316321 346.50918268 -96.51131422 343.95612151 -96.81640625 340.9765625 C-96.94080078 339.78933594 -97.06519531 338.60210937 -97.19335938 337.37890625 C-97.31517578 336.14011719 -97.43699219 334.90132813 -97.5625 333.625 C-97.68818359 332.42488281 -97.81386719 331.22476562 -97.94335938 329.98828125 C-102.32681896 287.25528783 -102.32681896 287.25528783 -94.3125 275.8125 C-88.36149711 268.6730162 -81.2340861 263.62002334 -73.3125 258.875 C-71.44523929 257.73709929 -69.57805392 256.59907495 -67.7109375 255.4609375 C-66.7631543 254.88698242 -65.81537109 254.31302734 -64.83886719 253.72167969 C-37.89543645 237.44954386 -37.89543645 237.44954386 -12.0625 219.5 C-11.09606567 218.77961548 -11.09606567 218.77961548 -10.11010742 218.04467773 C-6.45590116 215.26454783 -3.17968914 212.32873707 0 209 C0.54785156 208.44957031 1.09570312 207.89914063 1.66015625 207.33203125 C10.30356587 197.96633113 11.29901455 187.18566429 11 175 C10.77919977 170.30697924 10.45902478 165.62368024 10.125 160.9375 C9.93984607 158.2253532 9.75586439 155.51316196 9.57421875 152.80078125 C9.52691116 152.09781921 9.47960358 151.39485718 9.43086243 150.67059326 C9.0684576 145.21332024 8.75322445 139.75420872 8.45703125 134.29296875 C8.41318298 133.48518478 8.36933472 132.67740082 8.32415771 131.84513855 C8.1523741 128.66193062 7.98193601 125.47866571 7.81622314 122.2951355 C7.70115708 120.08466359 7.58312633 117.87436425 7.46484375 115.6640625 C7.36610962 113.76841553 7.36610962 113.76841553 7.26538086 111.83447266 C7.0761181 109.09982601 6.83176297 106.41944431 6.51147461 103.70117188 C5.91310362 98.51616298 5.62599356 93.32798689 5.3515625 88.1171875 C5.2336416 85.97622806 5.11555206 83.83527791 4.99731445 81.69433594 C4.93661774 80.58086792 4.87592102 79.4673999 4.81338501 78.32019043 C3.7480287 58.83692395 2.52525422 39.37920768 0.91455078 19.93310547 C0.82219902 18.80124313 0.82219902 18.80124313 0.72798157 17.64651489 C0.56450023 15.65176943 0.39635512 13.65740766 0.2277832 11.66308594 C-0.01354694 7.78214538 0 3.88843669 0 0 Z " fill="#C83039" transform="translate(232,12)"/>
<path d="M0 0 C4.55555556 0.55555556 4.55555556 0.55555556 6 2 C6.04092937 4.33297433 6.04241723 6.66705225 6 9 C8.28836222 9.41986946 8.28836222 9.41986946 11 9 C11.825 8.154375 12.65 7.30875 13.5 6.4375 C14.325 5.633125 15.15 4.82875 16 4 C18.8125 4.1875 18.8125 4.1875 21 5 C21.8125 7.1875 21.8125 7.1875 22 10 C20.3545622 11.68762851 18.68711423 13.3540349 17 15 C16.58013054 17.71163778 16.58013054 17.71163778 17 20 C18.11375 19.95875 19.2275 19.9175 20.375 19.875 C24 20 24 20 26 22 C25.44444444 26.55555556 25.44444444 26.55555556 24 28 C21.66702567 28.04092937 19.33294775 28.04241723 17 28 C16.58013054 30.28836222 16.58013054 30.28836222 17 33 C17.845625 33.825 18.69125 34.65 19.5625 35.5 C20.366875 36.325 21.17125 37.15 22 38 C21.8125 40.8125 21.8125 40.8125 21 43 C18.8125 43.8125 18.8125 43.8125 16 44 C14.31237149 42.3545622 12.6459651 40.68711423 11 39 C8.28836222 38.58013054 8.28836222 38.58013054 6 39 C6.04125 40.11375 6.0825 41.2275 6.125 42.375 C6 46 6 46 4 48 C-0.55555556 47.44444444 -0.55555556 47.44444444 -2 46 C-2.04092937 43.66702567 -2.04241723 41.33294775 -2 39 C-4.28836222 38.58013054 -4.28836222 38.58013054 -7 39 C-8.2375 40.2684375 -8.2375 40.2684375 -9.5 41.5625 C-10.325 42.366875 -11.15 43.17125 -12 44 C-14.8125 43.8125 -14.8125 43.8125 -17 43 C-17.8125 40.8125 -17.8125 40.8125 -18 38 C-16.3545622 36.31237149 -14.68711423 34.6459651 -13 33 C-12.58013054 30.28836222 -12.58013054 30.28836222 -13 28 C-14.670625 28.061875 -14.670625 28.061875 -16.375 28.125 C-20 28 -20 28 -22 26 C-21.44444444 21.44444444 -21.44444444 21.44444444 -20 20 C-17.66702567 19.95907063 -15.33294775 19.95758277 -13 20 C-12.58013054 17.71163778 -12.58013054 17.71163778 -13 15 C-13.845625 14.175 -14.69125 13.35 -15.5625 12.5 C-16.366875 11.675 -17.17125 10.85 -18 10 C-17.8125 7.1875 -17.8125 7.1875 -17 5 C-14.8125 4.1875 -14.8125 4.1875 -12 4 C-10.31237149 5.6454378 -8.6459651 7.31288577 -7 9 C-4.28836222 9.41986946 -4.28836222 9.41986946 -2 9 C-2.04125 7.88625 -2.0825 6.7725 -2.125 5.625 C-2 2 -2 2 0 0 Z " fill="#3C322B" transform="translate(106,396)"/>
<path d="M0 0 C4.55555556 0.55555556 4.55555556 0.55555556 6 2 C6.04092937 4.33297433 6.04241723 6.66705225 6 9 C8.28836222 9.41986946 8.28836222 9.41986946 11 9 C11.825 8.154375 12.65 7.30875 13.5 6.4375 C14.325 5.633125 15.15 4.82875 16 4 C18.8125 4.1875 18.8125 4.1875 21 5 C21.8125 7.1875 21.8125 7.1875 22 10 C20.3545622 11.68762851 18.68711423 13.3540349 17 15 C16.58013054 17.71163778 16.58013054 17.71163778 17 20 C18.11375 19.95875 19.2275 19.9175 20.375 19.875 C24 20 24 20 26 22 C25.44444444 26.55555556 25.44444444 26.55555556 24 28 C21.66702567 28.04092937 19.33294775 28.04241723 17 28 C16.58013054 30.28836222 16.58013054 30.28836222 17 33 C17.845625 33.825 18.69125 34.65 19.5625 35.5 C20.366875 36.325 21.17125 37.15 22 38 C21.8125 40.8125 21.8125 40.8125 21 43 C18.8125 43.8125 18.8125 43.8125 16 44 C14.31237149 42.3545622 12.6459651 40.68711423 11 39 C8.28836222 38.58013054 8.28836222 38.58013054 6 39 C6.04125 40.11375 6.0825 41.2275 6.125 42.375 C6 46 6 46 4 48 C-0.55555556 47.44444444 -0.55555556 47.44444444 -2 46 C-2.04092937 43.66702567 -2.04241723 41.33294775 -2 39 C-4.28836222 38.58013054 -4.28836222 38.58013054 -7 39 C-8.2375 40.2684375 -8.2375 40.2684375 -9.5 41.5625 C-10.325 42.366875 -11.15 43.17125 -12 44 C-14.8125 43.8125 -14.8125 43.8125 -17 43 C-17.8125 40.8125 -17.8125 40.8125 -18 38 C-16.3545622 36.31237149 -14.68711423 34.6459651 -13 33 C-12.58013054 30.28836222 -12.58013054 30.28836222 -13 28 C-14.670625 28.061875 -14.670625 28.061875 -16.375 28.125 C-20 28 -20 28 -22 26 C-21.44444444 21.44444444 -21.44444444 21.44444444 -20 20 C-17.66702567 19.95907063 -15.33294775 19.95758277 -13 20 C-12.58013054 17.71163778 -12.58013054 17.71163778 -13 15 C-13.845625 14.175 -14.69125 13.35 -15.5625 12.5 C-16.366875 11.675 -17.17125 10.85 -18 10 C-17.8125 7.1875 -17.8125 7.1875 -17 5 C-14.8125 4.1875 -14.8125 4.1875 -12 4 C-10.31237149 5.6454378 -8.6459651 7.31288577 -7 9 C-4.28836222 9.41986946 -4.28836222 9.41986946 -2 9 C-2.04125 7.88625 -2.0825 6.7725 -2.125 5.625 C-2 2 -2 2 0 0 Z " fill="#3C322B" transform="translate(386,392)"/>
<path d="M0 0 C4.55555556 0.55555556 4.55555556 0.55555556 6 2 C6.04092937 4.33297433 6.04241723 6.66705225 6 9 C8.28836222 9.41986946 8.28836222 9.41986946 11 9 C11.825 8.154375 12.65 7.30875 13.5 6.4375 C14.325 5.633125 15.15 4.82875 16 4 C18.8125 4.1875 18.8125 4.1875 21 5 C21.8125 7.1875 21.8125 7.1875 22 10 C20.3545622 11.68762851 18.68711423 13.3540349 17 15 C16.58013054 17.71163778 16.58013054 17.71163778 17 20 C18.11375 19.95875 19.2275 19.9175 20.375 19.875 C24 20 24 20 26 22 C25.44444444 26.55555556 25.44444444 26.55555556 24 28 C21.66702567 28.04092937 19.33294775 28.04241723 17 28 C16.58013054 30.28836222 16.58013054 30.28836222 17 33 C17.845625 33.825 18.69125 34.65 19.5625 35.5 C20.366875 36.325 21.17125 37.15 22 38 C21.8125 40.8125 21.8125 40.8125 21 43 C18.8125 43.8125 18.8125 43.8125 16 44 C14.31237149 42.3545622 12.6459651 40.68711423 11 39 C8.28836222 38.58013054 8.28836222 38.58013054 6 39 C6.04125 40.11375 6.0825 41.2275 6.125 42.375 C6 46 6 46 4 48 C-0.55555556 47.44444444 -0.55555556 47.44444444 -2 46 C-2.04092937 43.66702567 -2.04241723 41.33294775 -2 39 C-4.28836222 38.58013054 -4.28836222 38.58013054 -7 39 C-8.2375 40.2684375 -8.2375 40.2684375 -9.5 41.5625 C-10.325 42.366875 -11.15 43.17125 -12 44 C-14.8125 43.8125 -14.8125 43.8125 -17 43 C-17.8125 40.8125 -17.8125 40.8125 -18 38 C-16.3545622 36.31237149 -14.68711423 34.6459651 -13 33 C-12.58013054 30.28836222 -12.58013054 30.28836222 -13 28 C-14.670625 28.061875 -14.670625 28.061875 -16.375 28.125 C-20 28 -20 28 -22 26 C-21.44444444 21.44444444 -21.44444444 21.44444444 -20 20 C-17.66702567 19.95907063 -15.33294775 19.95758277 -13 20 C-12.58013054 17.71163778 -12.58013054 17.71163778 -13 15 C-13.845625 14.175 -14.69125 13.35 -15.5625 12.5 C-16.366875 11.675 -17.17125 10.85 -18 10 C-17.8125 7.1875 -17.8125 7.1875 -17 5 C-14.8125 4.1875 -14.8125 4.1875 -12 4 C-10.31237149 5.6454378 -8.6459651 7.31288577 -7 9 C-4.28836222 9.41986946 -4.28836222 9.41986946 -2 9 C-2.04125 7.88625 -2.0825 6.7725 -2.125 5.625 C-2 2 -2 2 0 0 Z " fill="#3C322B" transform="translate(466,356)"/>
<path d="M0 0 C4.55555556 0.55555556 4.55555556 0.55555556 6 2 C6.04092937 4.33297433 6.04241723 6.66705225 6 9 C8.28836222 9.41986946 8.28836222 9.41986946 11 9 C11.825 8.154375 12.65 7.30875 13.5 6.4375 C14.325 5.633125 15.15 4.82875 16 4 C18.8125 4.1875 18.8125 4.1875 21 5 C21.8125 7.1875 21.8125 7.1875 22 10 C20.3545622 11.68762851 18.68711423 13.3540349 17 15 C16.58013054 17.71163778 16.58013054 17.71163778 17 20 C18.11375 19.95875 19.2275 19.9175 20.375 19.875 C24 20 24 20 26 22 C25.44444444 26.55555556 25.44444444 26.55555556 24 28 C21.66702567 28.04092937 19.33294775 28.04241723 17 28 C16.58013054 30.28836222 16.58013054 30.28836222 17 33 C17.845625 33.825 18.69125 34.65 19.5625 35.5 C20.366875 36.325 21.17125 37.15 22 38 C21.8125 40.8125 21.8125 40.8125 21 43 C18.8125 43.8125 18.8125 43.8125 16 44 C14.31237149 42.3545622 12.6459651 40.68711423 11 39 C8.28836222 38.58013054 8.28836222 38.58013054 6 39 C6.04125 40.11375 6.0825 41.2275 6.125 42.375 C6 46 6 46 4 48 C-0.55555556 47.44444444 -0.55555556 47.44444444 -2 46 C-2.04092937 43.66702567 -2.04241723 41.33294775 -2 39 C-4.28836222 38.58013054 -4.28836222 38.58013054 -7 39 C-8.2375 40.2684375 -8.2375 40.2684375 -9.5 41.5625 C-10.325 42.366875 -11.15 43.17125 -12 44 C-14.8125 43.8125 -14.8125 43.8125 -17 43 C-17.8125 40.8125 -17.8125 40.8125 -18 38 C-16.3545622 36.31237149 -14.68711423 34.6459651 -13 33 C-12.58013054 30.28836222 -12.58013054 30.28836222 -13 28 C-14.670625 28.061875 -14.670625 28.061875 -16.375 28.125 C-20 28 -20 28 -22 26 C-21.44444444 21.44444444 -21.44444444 21.44444444 -20 20 C-17.66702567 19.95907063 -15.33294775 19.95758277 -13 20 C-12.58013054 17.71163778 -12.58013054 17.71163778 -13 15 C-13.845625 14.175 -14.69125 13.35 -15.5625 12.5 C-16.366875 11.675 -17.17125 10.85 -18 10 C-17.8125 7.1875 -17.8125 7.1875 -17 5 C-14.8125 4.1875 -14.8125 4.1875 -12 4 C-10.31237149 5.6454378 -8.6459651 7.31288577 -7 9 C-4.28836222 9.41986946 -4.28836222 9.41986946 -2 9 C-2.04125 7.88625 -2.0825 6.7725 -2.125 5.625 C-2 2 -2 2 0 0 Z " fill="#3C322B" transform="translate(414,324)"/>
<path d="M0 0 C4.55555556 0.55555556 4.55555556 0.55555556 6 2 C6.04092937 4.33297433 6.04241723 6.66705225 6 9 C8.28836222 9.41986946 8.28836222 9.41986946 11 9 C11.825 8.154375 12.65 7.30875 13.5 6.4375 C14.325 5.633125 15.15 4.82875 16 4 C18.8125 4.1875 18.8125 4.1875 21 5 C21.8125 7.1875 21.8125 7.1875 22 10 C20.3545622 11.68762851 18.68711423 13.3540349 17 15 C16.58013054 17.71163778 16.58013054 17.71163778 17 20 C18.11375 19.95875 19.2275 19.9175 20.375 19.875 C24 20 24 20 26 22 C25.44444444 26.55555556 25.44444444 26.55555556 24 28 C21.66702567 28.04092937 19.33294775 28.04241723 17 28 C16.58013054 30.28836222 16.58013054 30.28836222 17 33 C17.845625 33.825 18.69125 34.65 19.5625 35.5 C20.366875 36.325 21.17125 37.15 22 38 C21.8125 40.8125 21.8125 40.8125 21 43 C18.8125 43.8125 18.8125 43.8125 16 44 C14.31237149 42.3545622 12.6459651 40.68711423 11 39 C8.28836222 38.58013054 8.28836222 38.58013054 6 39 C6.04125 40.11375 6.0825 41.2275 6.125 42.375 C6 46 6 46 4 48 C-0.55555556 47.44444444 -0.55555556 47.44444444 -2 46 C-2.04092937 43.66702567 -2.04241723 41.33294775 -2 39 C-4.28836222 38.58013054 -4.28836222 38.58013054 -7 39 C-8.2375 40.2684375 -8.2375 40.2684375 -9.5 41.5625 C-10.325 42.366875 -11.15 43.17125 -12 44 C-14.8125 43.8125 -14.8125 43.8125 -17 43 C-17.8125 40.8125 -17.8125 40.8125 -18 38 C-16.3545622 36.31237149 -14.68711423 34.6459651 -13 33 C-12.58013054 30.28836222 -12.58013054 30.28836222 -13 28 C-14.670625 28.061875 -14.670625 28.061875 -16.375 28.125 C-20 28 -20 28 -22 26 C-21.44444444 21.44444444 -21.44444444 21.44444444 -20 20 C-17.66702567 19.95907063 -15.33294775 19.95758277 -13 20 C-12.58013054 17.71163778 -12.58013054 17.71163778 -13 15 C-13.845625 14.175 -14.69125 13.35 -15.5625 12.5 C-16.366875 11.675 -17.17125 10.85 -18 10 C-17.8125 7.1875 -17.8125 7.1875 -17 5 C-14.8125 4.1875 -14.8125 4.1875 -12 4 C-10.31237149 5.6454378 -8.6459651 7.31288577 -7 9 C-4.28836222 9.41986946 -4.28836222 9.41986946 -2 9 C-2.04125 7.88625 -2.0825 6.7725 -2.125 5.625 C-2 2 -2 2 0 0 Z " fill="#3C322B" transform="translate(66,320)"/>
<path d="M0 0 C4.50489576 1.54019711 8.12961064 3.37709458 10.6640625 7.57421875 C12.30288303 11.54301454 12.0820299 15.54047572 11.5625 19.75 C9.31711513 24.80211595 6.3975084 26.75020119 1.5625 28.98828125 C-4.60307569 31.33649855 -10.90953719 31.3353217 -17.4375 30.75 C-21.94415768 28.61526742 -24.6116532 25.83177871 -27.4375 21.75 C-28.79432449 17.67952653 -28.96222254 14.00608283 -28.4375 9.75 C-22.39981674 -2.10174863 -11.94356538 -3.30468576 0 0 Z " fill="#3F332C" transform="translate(472.4375,429.25)"/>
<path d="M0 0 C5.67476113 1.96434039 9.31400331 5.62800662 12 11 C12.59057744 16.67862925 12.29370905 21.16922672 9 26 C4.99653611 30.03627917 1.41408246 32.12458106 -4.3125 32.3125 C-8.94226662 32.25237316 -11.4369151 31.06591027 -15 28 C-19.3022759 23.23261319 -20.36282503 19.56252705 -20.28125 13.28125 C-19.69180611 8.50020514 -16.85179203 5.75038822 -13.375 2.6875 C-8.92314854 -0.47565762 -5.3540278 -0.48837416 0 0 Z " fill="#3F332C" transform="translate(52,424)"/>
<path d="M0 0 C4.08998175 1.80720124 6.66247347 4.19069751 9 8 C9.62819266 13.0255413 9.03320735 15.95572354 6 20 C3.24705395 23.21177039 0.96958591 23.86947882 -3.25 24.4375 C-8.1843364 23.86182742 -10.79803186 21.71753928 -14 18 C-15.23534045 14.29397865 -15.45528745 11.90246386 -15 8 C-10.91704021 1.64314568 -7.65816344 -0.51919752 0 0 Z " fill="#3E332C" transform="translate(51,380)"/>
<path d="M0 0 C3.45128672 1.33207558 5.40996081 2.40996081 8 5 C8.34490322 9.05261287 8.30163882 10.54754176 6 14 C0.52501112 15.82499629 -5.23912445 17.06236678 -11 16 C-14.50368509 13.56887157 -15.75445216 12.17862962 -16.625 8 C-14.76019141 -0.95108121 -7.68978583 -1.0598825 0 0 Z " fill="#F9C38A" transform="translate(468,436)"/>
<path d="M0 0 C4.0743356 0.84881992 5.54405875 2.30225596 8 5.625 C8.625 8.625 8.625 8.625 8 11.625 C5.54405875 14.94774404 4.0743356 16.40118008 0 17.25 C-4.0743356 16.40118008 -5.54405875 14.94774404 -8 11.625 C-8.625 8.625 -8.625 8.625 -8 5.625 C-5.54405875 2.30225596 -4.0743356 0.84881992 0 0 Z " fill="#F5C087" transform="translate(48,431.375)"/>
<path d="M0 0 C2.0625 1.5625 2.0625 1.5625 3 4 C3.17821261 6.85140177 2.92914963 9.292848 2 12 C-0.93837168 14.85194898 -2.53597436 15 -6.625 15 C-10 14 -10 14 -12 11.875 C-13.30782688 8.11499772 -13.06090617 5.81926223 -12 2 C-8.81688665 -2.07438508 -4.54417813 -1.38635943 0 0 Z " fill="#7D8B01" transform="translate(113,413)"/>
<path d="M0 0 C2.0625 1.5625 2.0625 1.5625 3 4 C3.17821261 6.85140177 2.92914963 9.292848 2 12 C-0.93837168 14.85194898 -2.53597436 15 -6.625 15 C-10 14 -10 14 -12 11.875 C-13.30782688 8.11499772 -13.06090617 5.81926223 -12 2 C-8.81688665 -2.07438508 -4.54417813 -1.38635943 0 0 Z " fill="#7D8B01" transform="translate(393,409)"/>
<path d="M0 0 C2.0625 1.5625 2.0625 1.5625 3 4 C3.17821261 6.85140177 2.92914963 9.292848 2 12 C-0.93837168 14.85194898 -2.53597436 15 -6.625 15 C-10 14 -10 14 -12 11.875 C-13.30782688 8.11499772 -13.06090617 5.81926223 -12 2 C-8.81688665 -2.07438508 -4.54417813 -1.38635943 0 0 Z " fill="#7D8B01" transform="translate(473,373)"/>
<path d="M0 0 C2.0625 1.5625 2.0625 1.5625 3 4 C3.17821261 6.85140177 2.92914963 9.292848 2 12 C-0.93837168 14.85194898 -2.53597436 15 -6.625 15 C-10 14 -10 14 -12 11.875 C-13.30782688 8.11499772 -13.06090617 5.81926223 -12 2 C-8.81688665 -2.07438508 -4.54417813 -1.38635943 0 0 Z " fill="#7D8B01" transform="translate(421,341)"/>
<path d="M0 0 C2.0625 1.5625 2.0625 1.5625 3 4 C3.17821261 6.85140177 2.92914963 9.292848 2 12 C-0.93837168 14.85194898 -2.53597436 15 -6.625 15 C-10 14 -10 14 -12 11.875 C-13.30782688 8.11499772 -13.06090617 5.81926223 -12 2 C-8.81688665 -2.07438508 -4.54417813 -1.38635943 0 0 Z " fill="#7D8B01" transform="translate(73,337)"/>
<path d="M0 0 C2.625 0.375 2.625 0.375 5 1 C5.625 3.375 5.625 3.375 6 6 C5.34 6.66 4.68 7.32 4 8 C1.375 7.625 1.375 7.625 -1 7 C-1.625 4.625 -1.625 4.625 -2 2 C-1.34 1.34 -0.68 0.68 0 0 Z " fill="#F2BE86" transform="translate(46,388)"/>
</svg>
