<?xml version="1.0" encoding="UTF-8"?>
<svg version="1.1" xmlns="http://www.w3.org/2000/svg" width="512" height="512">
<path d="M0 0 C1.31152039 -0.01279495 1.31152039 -0.01279495 2.64953613 -0.02584839 C3.60636292 -0.02494202 4.5631897 -0.02403564 5.54901123 -0.02310181 C6.5592334 -0.02981903 7.56945557 -0.03653625 8.61029053 -0.04345703 C11.96328614 -0.06251067 15.31608196 -0.06636639 18.66912842 -0.06851196 C21.00545331 -0.07493994 23.34177739 -0.0816683 25.67810059 -0.08868408 C30.5875637 -0.10067889 35.49695637 -0.10436316 40.40643311 -0.10317993 C46.66361733 -0.1029778 52.92034194 -0.13016032 59.17741776 -0.16472435 C64.01108828 -0.18710155 68.84465063 -0.191014 73.67836761 -0.18996048 C75.98258787 -0.19230478 78.28681164 -0.20106147 80.59098053 -0.21662521 C104.45692684 -0.36259555 123.50589791 3.92845014 141.71600342 20.26742554 C142.32572998 20.7843396 142.93545654 21.30125366 143.56365967 21.83383179 C156.00687063 33.14326498 164.5235999 51.7275392 165.98446655 68.31585693 C166.07196506 71.44107876 166.07920156 74.55519744 166.05194092 77.68148804 C166.06444496 80.01222003 166.07748168 82.34294922 166.09100342 84.67367554 C166.09493632 88.29194082 166.0909329 91.90992853 166.07635498 95.52816772 C166.06775055 99.05885192 166.08950941 102.58840365 166.11444092 106.11898804 C166.10109711 107.18904083 166.0877533 108.25909363 166.07400513 109.36157227 C166.13761552 115.88617182 167.22660527 120.37218344 170.54574585 126.01873779 C173.67865931 132.03873228 173.28014749 138.73361419 171.59100342 145.14242554 C168.51871264 154.50153354 163.48811438 160.72747337 154.71600342 165.26742554 C149.54023375 167.26509102 145.17743456 167.4590547 139.71600342 167.26742554 C139.65412842 168.33992554 139.59225342 169.41242554 139.52850342 170.51742554 C138.24082511 180.48370283 133.32083285 188.89558365 126.71600342 196.26742554 C125.86328857 197.22455444 125.86328857 197.22455444 124.99334717 198.20101929 C122.07598765 201.29116092 119.20449131 203.63689036 115.58685303 205.87387085 C114.86299911 206.32256531 114.1391452 206.77125977 113.39335632 207.23355103 C112.83982986 207.57472961 112.28630341 207.9159082 111.71600342 208.26742554 C112.74385201 208.27289398 112.74385201 208.27289398 113.79246521 208.2784729 C120.30793712 208.31662691 126.82294819 208.37378335 133.33807659 208.45132828 C136.68622911 208.49053441 140.03388738 208.5207521 143.38226318 208.53842163 C147.24783331 208.56003712 151.1124447 208.60678472 154.97772217 208.65805054 C156.74728523 208.65989349 156.74728523 208.65989349 158.55259705 208.66177368 C174.12521777 208.93108648 186.99898668 214.17017633 198.34881592 224.72445679 C202.60181104 229.29326838 206.18694029 234.61913457 208.60662842 240.39242554 C210.11180541 242.93638665 211.95869153 243.91634779 214.46600342 245.45492554 C222.54297195 250.956122 225.89601879 257.30122142 228.11825562 266.67819214 C229.2871034 273.69664954 229.0799617 280.75384213 229.00897217 287.84555054 C229.00336362 289.50991429 228.99909949 291.17428305 228.99610901 292.83865356 C228.98475914 297.17876319 228.95537928 301.51856243 228.92199707 305.85855103 C228.89108122 310.30339359 228.87755811 314.74828725 228.86248779 319.19320679 C228.83049805 327.88477001 228.77781317 336.57602318 228.71600342 345.26742554 C237.95600342 345.26742554 247.19600342 345.26742554 256.71600342 345.26742554 C256.66959717 343.18301147 256.62319092 341.09859741 256.57537842 338.95101929 C256.54410392 336.91222565 256.51986153 334.87345963 256.49627686 332.83456421 C256.47627096 331.4272142 256.44905679 330.01994616 256.41424561 328.61288452 C256.06124774 313.96866406 256.06124774 313.96866406 260.71600342 308.26742554 C261.70600342 307.60742554 262.69600342 306.94742554 263.71600342 306.26742554 C264.17102649 303.88020742 264.17102649 303.88020742 264.09454346 301.04933167 C264.10684746 299.39004387 264.10684746 299.39004387 264.11940002 297.69723511 C264.11017769 295.86835754 264.11017769 295.86835754 264.10076904 294.00253296 C264.10901642 292.03810326 264.11726457 290.07367356 264.12554169 288.10924399 C264.13155021 285.99376831 264.13015389 283.87841026 264.12669373 281.76292992 C264.1198969 277.35484549 264.13573069 272.94702267 264.15509033 268.53898621 C264.19299601 259.17764682 264.20574761 249.81632989 264.21600342 240.45492554 C264.22707228 230.35950869 264.24243505 220.26421184 264.28671598 210.16887742 C264.30507251 205.78802315 264.3089643 201.40746663 264.3017807 197.02658308 C264.30062477 194.95580043 264.30626539 192.88517033 264.31495667 190.81440735 C264.32550738 188.29102739 264.3253949 185.76757127 264.31260681 183.24420166 C264.32491081 181.57222466 264.32491081 181.57222466 264.33746338 179.86647034 C264.33853214 178.41716015 264.33853214 178.41716015 264.3396225 176.93857098 C264.80043079 173.66825122 265.63943739 171.83586268 267.71600342 169.26742554 C269.36600342 168.93742554 271.01600342 168.60742554 272.71600342 168.26742554 C272.71600342 161.99742554 272.71600342 155.72742554 272.71600342 149.26742554 C271.06600342 148.93742554 269.41600342 148.60742554 267.71600342 148.26742554 C263.68208259 143.92540339 264.29268215 138.6411214 264.32781982 133.06454468 C264.31993439 131.52708839 264.31993439 131.52708839 264.31188965 129.95857239 C264.29869464 126.5730868 264.30742691 123.1880721 264.31756592 119.80258179 C264.31554489 117.44755462 264.31263321 115.09252807 264.30886841 112.73750305 C264.30444559 107.80218547 264.31087437 102.86703082 264.32489014 97.93173218 C264.34197239 91.60875746 264.33214636 85.28616504 264.31417274 78.96320438 C264.3033259 74.09987006 264.3067856 69.23662617 264.31455612 64.37328911 C264.31655611 62.04210808 264.31410593 59.71091881 264.30711746 57.37974739 C264.29948946 54.1195111 264.31112722 50.85989137 264.32781982 47.59970093 C264.32174713 46.63794952 264.31567444 45.67619812 264.30941772 44.68530273 C264.37125306 38.15839882 265.26974654 33.68796684 270.0848999 28.9234314 C275.59604921 26.41000937 280.82572801 26.71628526 286.81365967 26.77133179 C288.08068222 26.76987656 289.34770477 26.76842133 290.65312195 26.766922 C293.32738957 26.76857966 296.0002259 26.77802739 298.67425537 26.8008728 C302.09292457 26.82928618 305.5107011 26.82650748 308.92943668 26.81378269 C312.20340148 26.80513766 315.47722276 26.82027681 318.75115967 26.83383179 C320.58723534 26.82942833 320.58723534 26.82942833 322.46040344 26.82493591 C323.60186325 26.83762009 324.74332306 26.85030426 325.91937256 26.8633728 C326.92053604 26.86877579 327.92169952 26.87417877 328.95320129 26.87974548 C333.57493398 27.52827314 335.92050754 29.28535691 338.83394963 32.88210726 C341.02565884 36.82441395 341.27443327 39.89512372 341.21657467 44.28226471 C341.22484592 45.47265871 341.22484592 45.47265871 341.23328426 46.68710107 C341.24689841 49.35095107 341.23197219 52.01387104 341.21720886 54.67770386 C341.22110104 56.60489198 341.22674082 58.53207724 341.23397976 60.4592557 C341.24876426 65.75875275 341.2385353 71.05795357 341.22424304 76.35744119 C341.2131542 82.07122032 341.22506894 87.78495719 341.23408508 93.49873352 C341.24803378 104.69348704 341.24044931 115.88812792 341.2254095 127.08287609 C341.20856812 140.11352595 341.2117573 153.14414761 341.21550358 166.17480499 C341.22156292 190.123997 341.20576824 214.07312953 341.18031595 238.02230627 C341.15720062 259.88837403 341.15181258 281.75437566 341.16204834 303.62045288 C341.16465032 309.21956632 341.16723532 314.81867975 341.16964626 320.41779327 C341.16994371 321.10709492 341.17024116 321.79639657 341.17054762 322.50658615 C341.17816127 340.77390256 341.17169235 359.04121238 341.16095024 377.30852652 C341.15942437 379.92661635 341.15790401 382.54470618 341.15638924 385.16279602 C341.15563142 386.45102132 341.15487361 387.73924661 341.15409283 389.06650904 C341.14934578 398.15432467 341.15120442 407.24212539 341.15545464 416.3299408 C341.16037621 427.4015849 341.15441964 438.47316055 341.13456034 449.54478896 C341.12467402 455.19610048 341.1195977 460.84730767 341.12745285 466.4986248 C341.13449239 471.66886051 341.12774547 476.83888538 341.10984922 482.00909323 C341.10579351 483.88249009 341.10682332 485.75590606 341.11336809 487.62929589 C341.12148858 490.17064657 341.11124245 492.71128173 341.09632015 495.25258636 C341.1030578 495.98433852 341.10979545 496.71609067 341.11673728 497.47001714 C341.06364496 502.1276188 340.16923987 505.31004198 337.71600342 509.26742554 C334.09610451 512.15984969 331.30654324 512.65022734 326.73577881 512.68734741 C325.5542775 512.70325928 324.37277618 512.71917114 323.1554718 512.73556519 C321.8876738 512.7357666 320.61987579 512.73596802 319.31365967 512.73617554 C318.00320175 512.74378906 316.69274384 512.75140259 315.34257507 512.75924683 C312.57283964 512.77266805 309.80338915 512.77427114 307.03363037 512.7684021 C303.49481323 512.76250661 299.95736837 512.79309892 296.41881657 512.83351898 C293.02955486 512.86567637 289.64057334 512.86127965 286.25115967 512.86117554 C284.98538589 512.8775708 283.71961212 512.89396606 282.41548157 512.91085815 C272.62251318 512.83393466 272.62251318 512.83393466 268.99505615 510.04281616 C265.38843515 505.65073609 264.46397376 502.100114 264.48895264 496.46737671 C264.4891037 495.3265715 264.48925476 494.1857663 264.4894104 493.01039124 C264.49973297 491.78939224 264.51005554 490.56839325 264.52069092 489.31039429 C264.52493576 487.42324455 264.52493576 487.42324455 264.52926636 485.49797058 C264.53855221 482.16555171 264.55649866 478.83341007 264.57867432 475.50106812 C264.59919325 472.09573757 264.60828096 468.69037831 264.61834717 465.28500366 C264.64038701 458.61240136 264.67384952 451.93992945 264.71600342 445.26742554 C263.92800858 444.99266388 263.14001373 444.71790222 262.32814026 444.43481445 C259.71600342 443.26742554 259.71600342 443.26742554 257.92181396 440.58920288 C256.57057133 436.86678796 256.37236136 434.07150577 256.42303467 430.11898804 C256.42727951 429.46159637 256.43152435 428.80420471 256.43589783 428.12689209 C256.45255365 426.04830163 256.49017722 423.9707178 256.52850342 421.89242554 C256.54356736 420.47447089 256.55725277 419.05650089 256.56951904 417.63851929 C256.59984993 414.18079793 256.65858609 410.72522463 256.71600342 407.26742554 C247.47600342 407.26742554 238.23600342 407.26742554 228.71600342 407.26742554 C228.72647705 409.45673706 228.73695068 411.64604858 228.7477417 413.90170288 C228.78100272 421.16595185 228.80302132 428.43020434 228.81962776 435.69450951 C228.83002865 440.09532095 228.84411974 444.49605383 228.86688232 448.89682007 C228.88874327 453.15028268 228.90059977 457.40367011 228.9057579 461.6571846 C228.90943001 463.27334398 228.9166002 464.88949963 228.92746353 466.50562668 C229.01632815 480.28412318 228.88446264 492.97663162 218.96600342 503.51742554 C213.4577316 508.75800564 206.97272984 512.38428523 199.25180721 512.40164661 C198.33238462 512.40610446 197.41296203 512.4105623 196.46567816 512.41515523 C195.45402753 512.41497087 194.4423769 512.41478651 193.40007019 512.41459656 C192.32650475 512.41827325 191.25293931 512.42194993 190.14684159 512.42573804 C186.5311375 512.43679586 182.91546213 512.4406223 179.29974365 512.44442749 C176.71457324 512.45069061 174.12940374 512.45733727 171.54423523 512.46434021 C163.77229245 512.48410377 156.00034836 512.49417162 148.22838673 512.503068 C144.56715933 512.5074519 140.90593337 512.51281853 137.24470711 512.51805687 C125.0710591 512.53507059 112.897412 512.5495636 100.72375393 512.55680561 C97.56451351 512.55871547 94.4052731 512.56063581 91.24603271 512.56259155 C90.46083002 512.56307529 89.67562733 512.56355903 88.86663062 512.56405743 C76.15387434 512.57235333 63.44121229 512.59768213 50.72849714 512.63017223 C37.67218871 512.6632679 24.61592812 512.68125672 11.55957752 512.68444985 C4.23076954 512.68661285 -3.09790111 512.6953304 -10.42666817 512.72091103 C-17.32379085 512.74492949 -24.22066294 512.74842793 -31.11781883 512.73814964 C-33.64695685 512.73765397 -36.17610698 512.74398369 -38.70520782 512.75770569 C-42.16349319 512.77541649 -45.62089154 512.7683213 -49.07917786 512.75517273 C-50.07521343 512.76614198 -51.07124901 512.77711122 -52.09746748 512.78841287 C-61.66429298 512.70086468 -69.51959851 509.86964554 -76.53009033 503.25570679 C-83.01581621 495.90329148 -85.58784556 487.21103283 -85.61993408 477.50570679 C-85.62659088 476.79262863 -85.63324768 476.07955048 -85.6401062 475.34486389 C-85.65016103 473.84992021 -85.65492546 472.35493229 -85.65460205 470.85995483 C-85.65900585 468.57511481 -85.69547925 466.29216303 -85.73321533 464.00765991 C-85.73907906 462.54868209 -85.74305142 461.08969518 -85.74493408 459.63070679 C-85.75315186 458.31368774 -85.76136963 456.9966687 -85.76983643 455.63973999 C-85.28399658 452.26742554 -85.28399658 452.26742554 -83.44268799 449.80722046 C-81.28399658 448.26742554 -81.28399658 448.26742554 -78.28399658 448.26742554 C-78.28399658 441.66742554 -78.28399658 435.06742554 -78.28399658 428.26742554 C-79.93399658 427.93742554 -81.58399658 427.60742554 -83.28399658 427.26742554 C-85.65388905 423.71258683 -85.53911006 422.19978892 -85.55142212 417.98239136 C-85.55995209 416.66472778 -85.56848206 415.34706421 -85.57727051 413.98947144 C-85.57657143 412.52548206 -85.57564834 411.06149277 -85.57452393 409.59750366 C-85.5805074 408.05827508 -85.58731253 406.5190495 -85.59487915 404.97982788 C-85.612574 400.79343405 -85.61723625 396.60712196 -85.61851072 392.42069435 C-85.61993197 389.80257441 -85.62420125 387.18447526 -85.62950516 384.56636047 C-85.64802341 375.42438437 -85.65617433 366.28246664 -85.65460205 357.14047241 C-85.65340312 348.63416476 -85.67445183 340.12811186 -85.70608938 331.62186861 C-85.73230851 324.31043196 -85.74296685 316.99907815 -85.74169123 309.68759489 C-85.74118285 305.32487769 -85.7467957 300.96238636 -85.76804733 296.59971619 C-85.78752256 292.48905585 -85.78749136 288.37883448 -85.77301407 284.26815796 C-85.77093567 282.76664076 -85.77556856 281.26509545 -85.78773499 279.7636261 C-85.88252994 267.24469435 -84.18703616 257.41993758 -75.36993408 248.11117554 C-73.46926378 246.43118231 -71.87018619 245.4022333 -69.59649658 244.32992554 C-65.44152534 241.74286797 -64.67293843 239.33757754 -62.71368408 234.99008179 C-55.98871816 222.18324778 -43.66079889 214.46067186 -30.28399658 210.26742554 C-26.54828087 209.38356103 -23.04393298 209.1186246 -19.20855713 209.06210327 C-18.00768967 209.04215805 -16.8068222 209.02221283 -15.56956482 209.00166321 C-13.63963432 208.97659447 -13.63963432 208.97659447 -11.67071533 208.95101929 C-10.33264046 208.93042918 -8.99457179 208.90943219 -7.6565094 208.88804626 C-4.14670864 208.83303779 -0.63685126 208.7835356 2.87304688 208.73519897 C6.45942177 208.68482826 10.04571514 208.62922373 13.63201904 208.57406616 C20.65994302 208.46674451 27.68794021 208.36524261 34.71600342 208.26742554 C33.95438904 207.78971207 33.19277466 207.3119986 32.40808105 206.81980896 C31.41238098 206.19158737 30.41668091 205.56336578 29.39080811 204.91610718 C28.40231873 204.29401871 27.41382935 203.67193024 26.39538574 203.0309906 C15.97044686 196.16931288 9.00808012 183.92910058 6.27850342 171.89242554 C6.09287842 170.69617554 5.90725342 169.49992554 5.71600342 168.26742554 C4.69893311 168.13787476 4.69893311 168.13787476 3.66131592 168.00570679 C-6.25392621 166.50880735 -14.44785721 163.54959623 -20.81134033 155.48617554 C-26.0779618 147.55131879 -27.47003002 139.70963352 -26.28399658 130.26742554 C-23.84683811 121.83026707 -23.84683811 121.83026707 -21.28399658 119.26742554 C-21.03744541 116.03486578 -20.89978567 112.80315062 -20.76055908 109.56430054 C-20.24389437 105.9899971 -19.58508071 104.04494559 -17.28399658 101.26742554 C-15.63399658 100.93742554 -13.98399658 100.60742554 -12.28399658 100.26742554 C-12.28399658 93.99742554 -12.28399658 87.72742554 -12.28399658 81.26742554 C-13.93399658 80.93742554 -15.58399658 80.60742554 -17.28399658 80.26742554 C-19.76086106 77.33188246 -20.50136995 74.51126253 -21.22149658 70.82992554 C-22.06976573 66.53202853 -23.82927101 63.91232109 -26.28399658 60.26742554 C-29.01000048 54.29782206 -29.55818023 48.42596726 -29.59649658 41.95492554 C-29.6019751 41.27317261 -29.60745361 40.59141968 -29.61309814 39.88900757 C-29.55675583 35.94018873 -29.18371859 32.75554386 -27.28399658 29.26742554 C-24.23718597 27.23621846 -23.68281334 27.02082679 -20.27227783 27.07211304 C-19.51495361 27.07855835 -18.75762939 27.08500366 -17.97735596 27.09164429 C-17.19167236 27.1084021 -16.40598877 27.12515991 -15.59649658 27.14242554 C-14.79921143 27.15144897 -14.00192627 27.16047241 -13.18048096 27.16976929 C-11.21485758 27.19330969 -9.24938883 27.22918007 -7.28399658 27.26742554 C-7.60884033 26.22586304 -7.93368408 25.18430054 -8.26837158 24.11117554 C-10.19115667 16.83417352 -10.12151659 9.28655397 -7.28399658 2.26742554 C-4.18254738 0.19979274 -3.51325255 0.01550542 0 0 Z " fill="#020202" transform="translate(128.28399658203125,-0.267425537109375)"/>
<path d="M0 0 C0.85831262 -0.00583219 1.71662523 -0.01166439 2.60094732 -0.01767331 C4.00827787 -0.01200433 4.00827787 -0.01200433 5.44403934 -0.00622082 C6.44439954 -0.01004636 7.44475974 -0.01387191 8.47543389 -0.01781338 C11.83717882 -0.02815604 15.19875337 -0.0241488 18.56050968 -0.02018261 C20.96675112 -0.02452837 23.37299118 -0.02971106 25.77922916 -0.03567028 C31.64249852 -0.04769162 37.50572539 -0.05020994 43.36900239 -0.04787002 C48.13431595 -0.04608767 52.89961559 -0.04783471 57.66492748 -0.05209446 C58.34290541 -0.05268965 59.02088334 -0.05328484 59.71940606 -0.05389806 C61.09667627 -0.0551098 62.47394648 -0.05632394 63.85121668 -0.05754044 C76.76994865 -0.06841918 89.68865452 -0.06625188 102.60738797 -0.06015559 C114.42783236 -0.0549859 126.24819437 -0.06624264 138.06862246 -0.08525381 C150.20398422 -0.10462198 162.33930698 -0.11289003 174.4746843 -0.10913056 C181.28852681 -0.10721699 188.10229919 -0.10972122 194.91612911 -0.1238451 C201.32239395 -0.1369897 207.72853494 -0.13451275 214.13480091 -0.12143421 C216.48865088 -0.11906121 218.84251236 -0.12182886 221.19634914 -0.13005733 C224.4044319 -0.1404651 227.61195373 -0.13247191 230.82001591 -0.11974621 C232.22400038 -0.13080764 232.22400038 -0.13080764 233.65634817 -0.14209253 C240.03274516 -0.08871735 243.26663996 0.94987096 247.97585297 5.41813469 C250.24164506 9.15523073 250.2548393 12.39356525 250.21018314 16.63593006 C250.21712867 17.47718058 250.2240742 18.31843109 250.2312302 19.18517405 C250.24951962 22.00273407 250.23923057 24.81945395 250.22896671 27.63704395 C250.23602421 29.65758361 250.24476851 31.67811798 250.2550745 33.69864368 C250.27759732 39.18626522 250.27462192 44.67359873 250.26575303 50.16124892 C250.26064687 54.74141419 250.26793271 59.32152515 250.2752251 63.90168482 C250.29223336 74.7060975 250.28864894 85.51036897 250.27193546 96.31477833 C250.25501204 107.46377476 250.27084982 118.61237973 250.30315834 129.76133341 C250.32984247 139.33175428 250.33713344 148.9020532 250.32864326 158.47250754 C250.32371078 164.18928054 250.32594724 169.90581796 250.34643078 175.62256145 C250.36476928 180.99810536 250.35885123 186.37308555 250.33423138 191.74859905 C250.32921775 193.72146288 250.3327275 195.69436951 250.34537983 197.66719913 C250.36128803 200.36079504 250.34638123 203.05252964 250.32370853 205.74603748 C250.33554426 206.52668518 250.34737999 207.30733289 250.35957438 208.11163658 C250.29311794 211.99801718 249.78934365 214.63473968 247.40625763 217.66125298 C243.83476231 221.0779173 241.33911908 222.50232279 236.39383221 222.5117445 C235.53613629 222.51819339 234.67844037 222.52464228 233.79475367 222.5312866 C232.85721542 222.52818939 231.91967717 222.52509219 230.95372868 222.52190113 C229.95407404 222.52643224 228.95441941 222.53096336 227.92447221 222.53563178 C224.56506766 222.54832142 221.20582427 222.54665246 217.84639835 222.54500294 C215.44177891 222.55098531 213.0371614 222.55779018 210.63254642 222.56535816 C204.77295672 222.58121523 198.91340499 222.58746781 193.05379821 222.58858292 C188.29087629 222.58953326 183.52796765 222.59364283 178.76504993 222.59998417 C165.26137531 222.61759705 151.75773247 222.62682294 138.25404628 222.62532322 C137.16208233 222.62520335 137.16208233 222.62520335 136.04805851 222.62508106 C135.31919376 222.6249993 134.59032901 222.62491754 133.83937745 222.6248333 C122.02605326 222.62402033 110.21285654 222.64316058 98.39956923 222.6713578 C86.26985141 222.70008186 74.14019578 222.71389836 62.01044309 222.71217024 C55.20045391 222.71150619 48.39059839 222.71700527 41.58063984 222.73852634 C35.17681089 222.75863426 28.77319141 222.7580693 22.36934566 222.74349308 C20.01752467 222.74139734 17.66568622 222.74615116 15.31389523 222.758214 C12.1060213 222.77360357 8.89912962 222.76439923 5.6912775 222.74895191 C4.7582007 222.75923904 3.82512389 222.76952616 2.86377203 222.78012502 C-2.65758031 222.72127409 -6.00555527 222.06996081 -10.30448055 218.25447559 C-13.11254664 214.67611984 -12.58896158 210.30091146 -12.57190609 205.94858265 C-12.5764372 205.10339744 -12.58096832 204.25821223 -12.58563673 203.38741535 C-12.59831326 200.55081044 -12.59665828 197.71439674 -12.5950079 194.87776661 C-12.60099105 192.84590374 -12.60779611 190.81404314 -12.61536312 188.78218555 C-12.63305046 183.25952343 -12.63771961 177.73692325 -12.63899469 172.21423554 C-12.64089239 167.60670087 -12.64824832 162.99918068 -12.65533888 158.39165157 C-12.6716303 147.52357179 -12.67650709 136.65552516 -12.67508602 125.78743458 C-12.67388391 114.568635 -12.69499805 103.3500276 -12.72657335 92.13127667 C-12.75270358 82.50486136 -12.76345471 72.87850896 -12.7621752 63.25205845 C-12.76166468 57.50011057 -12.76739807 51.74833348 -12.7885313 45.99642086 C-12.80785924 40.58815265 -12.80807545 35.18021912 -12.79349804 29.77193928 C-12.79140217 27.78574798 -12.79615688 25.79953602 -12.80821896 23.81338024 C-12.82360734 21.10430782 -12.81440606 18.39639873 -12.79895687 15.68735218 C-12.809244 14.89921857 -12.81953112 14.11108496 -12.83012998 13.29906851 C-12.78432505 9.67080937 -12.43716249 7.47068607 -10.52357578 4.35242081 C-7.19578325 1.20630687 -4.57447663 0.00535802 0 0 Z " fill="#8F808F" transform="translate(81.30448055267334,264.7455244064331)"/>
<path d="M0 0 C0.85831262 -0.00583219 1.71662523 -0.01166439 2.60094732 -0.01767331 C4.00827787 -0.01200433 4.00827787 -0.01200433 5.44403934 -0.00622082 C6.44439954 -0.01004636 7.44475974 -0.01387191 8.47543389 -0.01781338 C11.83717882 -0.02815604 15.19875337 -0.0241488 18.56050968 -0.02018261 C20.96675112 -0.02452837 23.37299118 -0.02971106 25.77922916 -0.03567028 C31.64249852 -0.04769162 37.50572539 -0.05020994 43.36900239 -0.04787002 C48.13431595 -0.04608767 52.89961559 -0.04783471 57.66492748 -0.05209446 C58.34290541 -0.05268965 59.02088334 -0.05328484 59.71940606 -0.05389806 C61.09667627 -0.0551098 62.47394648 -0.05632394 63.85121668 -0.05754044 C76.76994865 -0.06841918 89.68865452 -0.06625188 102.60738797 -0.06015559 C114.42783236 -0.0549859 126.24819437 -0.06624264 138.06862246 -0.08525381 C150.20398422 -0.10462198 162.33930698 -0.11289003 174.4746843 -0.10913056 C181.28852681 -0.10721699 188.10229919 -0.10972122 194.91612911 -0.1238451 C201.32239395 -0.1369897 207.72853494 -0.13451275 214.13480091 -0.12143421 C216.48865088 -0.11906121 218.84251236 -0.12182886 221.19634914 -0.13005733 C224.4044319 -0.1404651 227.61195373 -0.13247191 230.82001591 -0.11974621 C232.22400038 -0.13080764 232.22400038 -0.13080764 233.65634817 -0.14209253 C240.03274516 -0.08871735 243.26663996 0.94987096 247.97585297 5.41813469 C250.24164506 9.15523073 250.2548393 12.39356525 250.21018314 16.63593006 C250.21712867 17.47718058 250.2240742 18.31843109 250.2312302 19.18517405 C250.24951962 22.00273407 250.23923057 24.81945395 250.22896671 27.63704395 C250.23602421 29.65758361 250.24476851 31.67811798 250.2550745 33.69864368 C250.27759732 39.18626522 250.27462192 44.67359873 250.26575303 50.16124892 C250.26064687 54.74141419 250.26793271 59.32152515 250.2752251 63.90168482 C250.29223336 74.7060975 250.28864894 85.51036897 250.27193546 96.31477833 C250.25501204 107.46377476 250.27084982 118.61237973 250.30315834 129.76133341 C250.32984247 139.33175428 250.33713344 148.9020532 250.32864326 158.47250754 C250.32371078 164.18928054 250.32594724 169.90581796 250.34643078 175.62256145 C250.36476928 180.99810536 250.35885123 186.37308555 250.33423138 191.74859905 C250.32921775 193.72146288 250.3327275 195.69436951 250.34537983 197.66719913 C250.36128803 200.36079504 250.34638123 203.05252964 250.32370853 205.74603748 C250.33554426 206.52668518 250.34737999 207.30733289 250.35957438 208.11163658 C250.29311794 211.99801718 249.78934365 214.63473968 247.40625763 217.66125298 C243.83476231 221.0779173 241.33911908 222.50232279 236.39383221 222.5117445 C235.53613629 222.51819339 234.67844037 222.52464228 233.79475367 222.5312866 C232.85721542 222.52818939 231.91967717 222.52509219 230.95372868 222.52190113 C229.95407404 222.52643224 228.95441941 222.53096336 227.92447221 222.53563178 C224.56506766 222.54832142 221.20582427 222.54665246 217.84639835 222.54500294 C215.44177891 222.55098531 213.0371614 222.55779018 210.63254642 222.56535816 C204.77295672 222.58121523 198.91340499 222.58746781 193.05379821 222.58858292 C188.29087629 222.58953326 183.52796765 222.59364283 178.76504993 222.59998417 C165.26137531 222.61759705 151.75773247 222.62682294 138.25404628 222.62532322 C137.16208233 222.62520335 137.16208233 222.62520335 136.04805851 222.62508106 C135.31919376 222.6249993 134.59032901 222.62491754 133.83937745 222.6248333 C122.02605326 222.62402033 110.21285654 222.64316058 98.39956923 222.6713578 C86.26985141 222.70008186 74.14019578 222.71389836 62.01044309 222.71217024 C55.20045391 222.71150619 48.39059839 222.71700527 41.58063984 222.73852634 C35.17681089 222.75863426 28.77319141 222.7580693 22.36934566 222.74349308 C20.01752467 222.74139734 17.66568622 222.74615116 15.31389523 222.758214 C12.1060213 222.77360357 8.89912962 222.76439923 5.6912775 222.74895191 C4.7582007 222.75923904 3.82512389 222.76952616 2.86377203 222.78012502 C-2.65758031 222.72127409 -6.00555527 222.06996081 -10.30448055 218.25447559 C-13.11254664 214.67611984 -12.58896158 210.30091146 -12.57190609 205.94858265 C-12.5764372 205.10339744 -12.58096832 204.25821223 -12.58563673 203.38741535 C-12.59831326 200.55081044 -12.59665828 197.71439674 -12.5950079 194.87776661 C-12.60099105 192.84590374 -12.60779611 190.81404314 -12.61536312 188.78218555 C-12.63305046 183.25952343 -12.63771961 177.73692325 -12.63899469 172.21423554 C-12.64089239 167.60670087 -12.64824832 162.99918068 -12.65533888 158.39165157 C-12.6716303 147.52357179 -12.67650709 136.65552516 -12.67508602 125.78743458 C-12.67388391 114.568635 -12.69499805 103.3500276 -12.72657335 92.13127667 C-12.75270358 82.50486136 -12.76345471 72.87850896 -12.7621752 63.25205845 C-12.76166468 57.50011057 -12.76739807 51.74833348 -12.7885313 45.99642086 C-12.80785924 40.58815265 -12.80807545 35.18021912 -12.79349804 29.77193928 C-12.79140217 27.78574798 -12.79615688 25.79953602 -12.80821896 23.81338024 C-12.82360734 21.10430782 -12.81440606 18.39639873 -12.79895687 15.68735218 C-12.809244 14.89921857 -12.81953112 14.11108496 -12.83012998 13.29906851 C-12.78432505 9.67080937 -12.43716249 7.47068607 -10.52357578 4.35242081 C-7.19578325 1.20630687 -4.57447663 0.00535802 0 0 Z M2.69551945 15.25447559 C2.69551945 78.61447559 2.69551945 141.97447559 2.69551945 207.25447559 C79.25551945 207.25447559 155.81551945 207.25447559 234.69551945 207.25447559 C234.69551945 143.89447559 234.69551945 80.53447559 234.69551945 15.25447559 C158.13551945 15.25447559 81.57551945 15.25447559 2.69551945 15.25447559 Z " fill="#010101" transform="translate(81.30448055267334,264.7455244064331)"/>
<path d="M0 0 C3.08261456 -0.1746397 6.16395833 -0.28094067 9.25 -0.375 C10.12269531 -0.42527344 10.99539063 -0.47554688 11.89453125 -0.52734375 C14.39457751 -0.58459672 16.5618465 -0.56452653 19 0 C21.41796875 2.87890625 21.41796875 2.87890625 23 6 C30.36400275 11.56057351 33.87188667 11.15599056 44 12 C44 134.1 44 256.2 44 382 C29.48 382 14.96 382 0 382 C0 365.17 0 348.34 0 331 C3.96 330.67 7.92 330.34 12 330 C19.99423144 327.02540225 24.25553582 323.70398204 28 316 C30.18853699 310.7118329 30.29625751 306.00051795 30.29052734 300.3737793 C30.29724457 299.42175629 30.30396179 298.46973328 30.31088257 297.48886108 C30.32983546 294.35059345 30.33378546 291.21254001 30.3359375 288.07421875 C30.34236746 285.88474948 30.34909597 283.69528107 30.35610962 281.5058136 C30.36807573 276.9186504 30.37179114 272.33156247 30.37060547 267.74438477 C30.37040236 261.88015682 30.39769985 256.01641391 30.43214989 250.15230083 C30.4544396 245.63027246 30.45844236 241.10836041 30.45738602 236.58628273 C30.45973902 234.42502992 30.46854552 232.26377377 30.48405075 230.1025753 C30.50375156 227.07284419 30.49785621 224.04415388 30.48583984 221.0144043 C30.50269836 219.68849525 30.50269836 219.68849525 30.51989746 218.33580017 C30.43868546 210.23585337 27.81633994 202.81633994 22 197 C17.3062099 193.34927437 13.0688267 192.57406649 7.23828125 191.88671875 C6.54174438 191.79950562 5.84520752 191.71229248 5.12756348 191.62243652 C3.41906792 191.40933228 1.70961881 191.20389705 0 191 C-0.00238835 190.31731898 -0.00477671 189.63463797 -0.00723743 188.93126965 C-0.06633524 172.33150318 -0.14185155 155.73190128 -0.23571491 139.13229656 C-0.28070902 131.10489399 -0.32011524 123.07753614 -0.34643555 115.05004883 C-0.36938647 108.05449774 -0.40275168 101.05908776 -0.44870156 94.06364852 C-0.47267326 90.35849356 -0.49137604 86.65347869 -0.49761391 82.94824791 C-0.50476701 78.81514883 -0.53516717 74.68253832 -0.56762695 70.54956055 C-0.56619186 69.31669815 -0.56475677 68.08383575 -0.5632782 66.81361389 C-0.57581635 65.69040741 -0.58835449 64.56720093 -0.60127258 63.40995789 C-0.60818603 61.94292435 -0.60818603 61.94292435 -0.61523914 60.44625378 C-0.81589037 57.97535712 -0.81589037 57.97535712 -2.27492046 56.22437763 C-4.21834104 54.68777735 -4.21834104 54.68777735 -8 54 C-8 47.07 -8 40.14 -8 33 C-6.35 32.34 -4.7 31.68 -3 31 C-0.64290358 27.46435537 -0.69990265 25.77974745 -0.5859375 21.58203125 C-0.52792969 19.70161133 -0.52792969 19.70161133 -0.46875 17.78320312 C-0.42234375 15.81770508 -0.42234375 15.81770508 -0.375 13.8125 C-0.33680662 12.4771884 -0.29775409 11.14190108 -0.2578125 9.80664062 C-0.16340847 6.53790112 -0.07782983 3.26916936 0 0 Z " fill="#E0D2CD" transform="translate(409,115)"/>
<path d="M0 0 C1.35447009 -0.00967334 1.35447009 -0.00967334 2.73630321 -0.0195421 C3.72442379 -0.01644489 4.71254436 -0.01334769 5.73060799 -0.01015663 C6.7833488 -0.01468774 7.83608961 -0.01921886 8.92073166 -0.02388728 C12.45978779 -0.03658051 15.99869099 -0.03490772 19.53776741 -0.03325844 C22.07046393 -0.03924059 24.60315863 -0.0460454 27.13585091 -0.05361366 C33.30827134 -0.06947265 39.48063546 -0.07572341 45.65307437 -0.07683842 C50.67009596 -0.07778865 55.68710494 -0.0818977 60.70412254 -0.08823967 C74.9271847 -0.10585312 89.15021667 -0.11507835 103.37328981 -0.11357872 C104.14009671 -0.11349881 104.90690362 -0.1134189 105.6969471 -0.11333656 C106.84856121 -0.11321392 106.84856121 -0.11321392 108.02344026 -0.1130888 C120.467248 -0.11227581 132.91093473 -0.13141647 145.35470746 -0.1596133 C158.13079191 -0.18833478 170.90681732 -0.20215401 183.68293488 -0.20042574 C190.85621508 -0.1997616 198.02936842 -0.20526454 205.20261955 -0.22678185 C211.94792175 -0.24688573 218.6929113 -0.24632753 225.43824196 -0.23174858 C227.91584221 -0.22965236 230.39345902 -0.23440945 232.87103081 -0.2464695 C236.24967148 -0.26185223 239.62737876 -0.25265906 243.00599861 -0.23720741 C243.98965774 -0.24749454 244.97331688 -0.25778167 245.98678386 -0.26838052 C252.79137764 -0.19946819 256.24913466 1.03424835 261.13981819 5.89008141 C265.23868967 11.12676671 265.64254359 14.12427213 265.63572884 20.65086937 C265.64018552 21.96909517 265.64018552 21.96909517 265.64473224 23.31395179 C265.65344536 26.27643092 265.6549297 29.23886976 265.65641975 32.2013607 C265.66104615 34.31835072 265.66607056 36.43533991 265.67146492 38.55232811 C265.68460974 44.31695833 265.69103814 50.0815769 265.69547558 55.84621978 C265.69840347 59.44607053 265.70250777 63.04591807 265.70697975 66.64576721 C265.7206613 77.90381471 265.73032425 89.1618549 265.73418164 100.41991013 C265.73866159 113.42453252 265.75620387 126.42904977 265.78518224 139.43364018 C265.80679018 149.47871959 265.81688548 159.52376939 265.81822276 169.5688718 C265.81927159 175.57127882 265.82519586 181.5735871 265.84304237 187.5759697 C265.85950723 193.22382907 265.86168618 198.8715153 265.85290337 204.51939011 C265.8521321 206.59181748 265.85648752 208.6642541 265.86636162 210.7366581 C265.87905782 213.567562 265.87321677 216.39785059 265.86277962 219.22875023 C265.87486422 220.45678628 265.87486422 220.45678628 265.88719296 221.70963115 C265.83579975 227.67666763 264.83885104 232.58347532 260.77653694 237.21820641 C260.18872444 237.68484703 259.60091194 238.15148766 258.99528694 238.63226891 C258.40747444 239.11437828 257.81966194 239.59648766 257.21403694 240.09320641 C254.2323766 242.11260363 251.63007773 242.38412578 248.13761902 242.39707661 C247.2419635 242.40276785 246.34630798 242.40845909 245.42351139 242.41432279 C244.43841528 242.41550267 243.45331917 242.41668255 242.43837166 242.41789818 C240.86984245 242.42552991 240.86984245 242.42552991 239.26962578 242.43331581 C235.7483306 242.4490739 232.22705598 242.45757424 228.70573616 242.46600914 C226.18790747 242.47554488 223.67008011 242.48543592 221.1522541 242.49565697 C213.58351293 242.52436114 206.01476889 242.5441282 198.44599313 242.56104931 C196.30781517 242.56584507 194.16963771 242.5708283 192.03146029 242.57585454 C178.75074541 242.6068275 165.47002615 242.63351004 152.18928528 242.65027332 C149.11322586 242.65422276 146.03716651 242.65822576 142.96110725 242.6622982 C141.81431121 242.66381074 141.81431121 242.66381074 140.64434756 242.66535384 C128.2638877 242.68235487 115.88362793 242.7234578 103.50326572 242.77432119 C90.78935838 242.8261247 78.07555386 242.85521919 65.36154187 242.86247021 C58.22438845 242.86712914 51.08756265 242.88184498 43.95051384 242.92221451 C37.23468128 242.96015557 30.51950547 242.96749803 23.80354691 242.95420837 C21.34008931 242.95426236 18.8766071 242.96457442 16.41324234 242.98596001 C13.04618832 243.01362564 9.68117518 243.00413773 6.31410408 242.98552513 C5.3423923 243.00232006 4.37068052 243.01911499 3.36952293 243.03641886 C-3.60185225 242.94031316 -8.31064535 240.9637084 -13.50471306 236.25726891 C-18.95001008 228.85804499 -18.1713359 219.47748586 -18.25471306 210.69476891 C-18.28292081 209.19408415 -18.31285483 207.69343079 -18.34455681 206.19281578 C-18.41784864 202.54778058 -18.46776973 198.90287496 -18.50471306 195.25726891 C-20.81471306 194.59726891 -23.12471306 193.93726891 -25.50471306 193.25726891 C-25.50471306 186.65726891 -25.50471306 180.05726891 -25.50471306 173.25726891 C-22.03971306 172.26726891 -22.03971306 172.26726891 -18.50471306 171.25726891 C-18.5032465 170.45550728 -18.50177994 169.65374565 -18.50026894 168.82768822 C-18.46319275 149.30534948 -18.40416721 129.78318955 -18.32081032 110.26099205 C-18.28102673 100.82013227 -18.24863078 91.37935577 -18.23371696 81.93842125 C-18.22069693 73.70823561 -18.19372326 65.47823324 -18.15009999 57.24815083 C-18.12749308 52.89166959 -18.11180191 48.53541434 -18.11282921 44.17886925 C-18.11357628 40.0747556 -18.0956069 35.97114138 -18.06354523 31.86715698 C-18.05505627 30.36441197 -18.05328949 28.86161087 -18.05891037 27.35885239 C-18.08455604 19.44579189 -18.0082432 13.02894931 -13.50471306 6.25726891 C-9.41464408 2.37170338 -5.69194363 0.01029447 0 0 Z M-4.50471306 14.25726891 C-7.03040406 18.0458054 -6.78631652 21.054533 -6.76540947 25.44290733 C-6.76923502 26.28723812 -6.77306056 27.1315689 -6.77700204 28.00148547 C-6.78735137 30.8412038 -6.78333622 33.68072067 -6.77937126 36.5204525 C-6.78371669 38.55216726 -6.78889927 40.58388038 -6.79485893 42.61559105 C-6.80827905 48.14245075 -6.8088242 53.66924219 -6.80629563 59.19611502 C-6.80522785 63.80608379 -6.81010439 68.41603864 -6.81490105 73.02600443 C-6.82600689 83.90030365 -6.82642775 94.77456832 -6.82038689 105.64887047 C-6.81434654 116.87500229 -6.82665724 128.10100879 -6.84795696 139.32711923 C-6.86555909 148.95775954 -6.87157646 158.58835991 -6.86831921 168.21901572 C-6.86650383 173.9742979 -6.86916786 179.72949072 -6.88303375 185.48475838 C-6.8955847 190.89707577 -6.89369387 196.30919754 -6.88062286 201.72151184 C-6.87825148 203.70931056 -6.88101179 205.69712293 -6.88924599 207.68490601 C-6.89966776 210.39605375 -6.89164959 213.10653957 -6.87893486 215.81766319 C-6.88630915 216.60647892 -6.89368343 217.39529465 -6.90128118 218.20801389 C-6.85650763 222.73826326 -6.425883 225.73049021 -3.50471306 229.25726891 C0.97044275 233.12125481 5.74341754 232.68104886 11.35733223 232.64494896 C12.35784129 232.6503345 13.35835034 232.65572003 14.38917786 232.66126877 C17.74555441 232.67558934 21.10153886 232.66843437 24.45793343 232.66132164 C26.86270147 232.66702304 29.26746681 232.6739864 31.67222786 232.68211937 C37.52836094 232.69822393 43.38439496 232.70014627 49.24053841 232.69490647 C54.00058124 232.69086455 58.76059238 232.69230857 63.5206337 232.69765472 C64.53696427 232.69877736 64.53696427 232.69877736 65.57382678 232.69992267 C66.95028973 232.70145415 68.32675267 232.7029925 69.70321561 232.70453764 C82.61054932 232.71826465 95.51782242 232.71282358 108.42515475 232.70135242 C120.23195435 232.69141976 132.03859724 232.70436087 143.84537267 232.72828662 C155.97060931 232.75267246 168.09577296 232.76228677 180.22103363 232.75563389 C187.02764605 232.75214052 193.83413794 232.75438142 200.64073181 232.77188492 C207.04048296 232.78813814 213.44000836 232.78343323 219.8397541 232.76457977 C222.18995861 232.7608852 224.54018518 232.76402748 226.89036942 232.77446556 C230.09601376 232.78761721 233.30065712 232.77617879 236.50625801 232.75847435 C237.90485004 232.77288186 237.90485004 232.77288186 239.33169645 232.78758043 C245.94436557 232.7123177 249.45011859 231.11176406 254.3452158 226.52317333 C256.07754002 223.11009655 255.91856626 219.74447637 255.89642525 216.00279808 C255.90322192 215.16310756 255.91001859 214.32341703 255.91702121 213.45828134 C255.93603599 210.64009395 255.93355363 207.82233958 255.93107796 205.00409508 C255.94005287 202.98532615 255.9502605 200.96656238 255.96161079 198.9478054 C255.98814355 193.46011652 255.99514568 187.97256791 255.99705815 182.48482108 C255.99990523 177.90480511 256.01093999 173.32482189 256.02157444 168.74481851 C256.04601341 157.93897458 256.05332672 147.13320565 256.05119514 136.32733727 C256.04939297 125.17891243 256.08104337 114.03092319 256.12842613 102.88260859 C256.16765012 93.31305013 256.18374693 83.74363404 256.18182892 74.17399579 C256.18106381 68.45766766 256.18962488 62.74172647 256.22136307 57.02547836 C256.25040289 51.64825767 256.25064733 46.27179385 256.22881317 40.89454651 C256.22567502 38.92208947 256.2327684 36.94958534 256.25089455 34.97720909 C256.27406167 32.28148013 256.26012566 29.58836356 256.23700142 26.89269066 C256.26014745 25.72506519 256.26014745 25.72506519 256.28376108 24.53385133 C256.18321181 19.22047109 254.65895539 16.47834184 251.07467979 12.58258611 C248.34464667 10.2917312 245.72974085 10.13129879 242.31664753 10.12304783 C241.46094266 10.11858998 240.60523779 10.11413214 239.72360247 10.10953921 C238.78315138 10.10972357 237.84270029 10.10990794 236.87375069 10.11009789 C235.87495048 10.1064212 234.87615027 10.10274451 233.84708339 10.09895641 C230.4846142 10.08790215 227.1221759 10.08407279 223.75969124 10.08026695 C221.35522043 10.07400371 218.95075059 10.06735703 216.54628181 10.06035423 C209.32015514 10.04111604 202.09403101 10.03052518 194.86788651 10.02162644 C191.46515497 10.01724294 188.06242498 10.01187634 184.65969467 10.00663757 C173.3490217 9.9896271 162.0383497 9.9751323 150.7276659 9.96788883 C147.79286574 9.96597894 144.85806559 9.9640586 141.92326546 9.96210289 C140.82912008 9.96137728 140.82912008 9.96137728 139.71287075 9.96063701 C127.89302282 9.95233429 116.073276 9.92699252 104.25347223 9.89452221 C92.11927308 9.86145982 79.98512535 9.84344088 67.85088092 9.84024459 C61.03751434 9.83807888 54.22429529 9.8293213 47.4109726 9.80378342 C41.00306552 9.77982054 34.59535205 9.77624558 28.18740654 9.7865448 C25.83396904 9.78704169 23.48051872 9.78067631 21.12712097 9.76698875 C17.91701744 9.74936127 14.70787744 9.75633151 11.49777412 9.76952171 C10.5640152 9.75855247 9.63025627 9.74758322 8.66820163 9.73628157 C3.12223229 9.79139196 -0.14203914 10.49289221 -4.50471306 14.25726891 Z " fill="#E3EEF7" transform="translate(75.50471305847168,254.74273109436035)"/>
<path d="M0 0 C11.73614214 -0.11642108 23.4721444 -0.20498105 35.20874882 -0.25906086 C40.65996422 -0.28503112 46.11078132 -0.32019684 51.56176758 -0.37719727 C56.83324982 -0.43196867 62.10435165 -0.46151478 67.37609673 -0.47438622 C69.37613339 -0.48354575 71.37615186 -0.50142961 73.37602425 -0.52865028 C93.61348096 -0.79287224 110.51950467 3.42729592 125.78393555 17.61303711 C130.45744464 22.18489796 133.86947595 27.26656832 137 33 C137.59554687 34.01320313 137.59554687 34.01320313 138.203125 35.046875 C144.84388226 47.03988437 144.37952246 59.98233473 144.1875 73.25 C144.17241988 75.07420765 144.15873739 76.89842742 144.14648438 78.72265625 C144.11375617 83.14874187 144.06215964 87.57423389 144 92 C140.37 92 136.74 92 133 92 C132.443125 89.8034375 132.443125 89.8034375 131.875 87.5625 C129.03515991 78.31011776 124.82547215 72.83671336 116.3671875 68.09375 C111.49343427 65.84185082 106.8352999 65.83527969 101.53466797 65.80712891 C100.68207901 65.79895142 99.82949005 65.79077393 98.95106506 65.78234863 C96.13144624 65.75755277 93.31187766 65.74099119 90.4921875 65.7265625 C89.52643925 65.72123882 88.56069099 65.71591515 87.56567764 65.71043015 C82.45134526 65.68372052 77.33703708 65.66434083 72.22265625 65.64990234 C68.0014064 65.63657918 63.78064177 65.60875314 59.55957031 65.56787109 C54.45204924 65.51840994 49.34496726 65.49376458 44.23721695 65.48667526 C42.29725474 65.47998535 40.35730146 65.46482258 38.41747665 65.44078445 C22.41502165 65.11662238 22.41502165 65.11662238 8.88644409 72.94619751 C3.71282685 78.23996435 1.72806785 83.89921211 0 91 C-3.68580137 91.64183782 -7.25385472 92.14637615 -11 92 C-13.4375 89.625 -13.4375 89.625 -15 87 C-16.32 86.67 -17.64 86.34 -19 86 C-19 79.07 -19 72.14 -19 65 C-17.35 64.34 -15.7 63.68 -14 63 C-10.84690768 58.27036152 -11.09095516 53.52160568 -12 48 C-13.53842369 45.15612539 -15.29967446 42.78230366 -17.30859375 40.25390625 C-20.45883543 36.05600914 -21 32.23130653 -21 27 C-19.97845825 26.97812622 -19.97845825 26.97812622 -18.9362793 26.95581055 C-15.85277785 26.88137304 -12.77036433 26.78469917 -9.6875 26.6875 C-8.61564453 26.66494141 -7.54378906 26.64238281 -6.43945312 26.61914062 C-5.41142578 26.58369141 -4.38339844 26.54824219 -3.32421875 26.51171875 C-2.37635498 26.48553467 -1.42849121 26.45935059 -0.4519043 26.43237305 C2.40225097 25.92906637 3.32816706 25.33878939 5 23 C5.69188886 17.86025421 4.71954301 15.19761471 1.94946289 10.89697266 C0.81923705 8.63884595 0.58891058 6.78177023 0.37109375 4.2734375 C0.29689209 3.47083496 0.22269043 2.66823242 0.14624023 1.84130859 C0.07385132 0.92986084 0.07385132 0.92986084 0 0 Z " fill="#BA5C4B" transform="translate(135,15)"/>
<path d="M0 0 C0.75651352 -0.0065712 1.51302704 -0.0131424 2.29246521 -0.01991272 C4.79767968 -0.03963096 7.30283413 -0.05130742 9.80810547 -0.0612793 C10.66569332 -0.06535482 11.52328117 -0.06943035 12.40685654 -0.07362938 C16.94945789 -0.09448774 21.49202909 -0.10878826 26.03466797 -0.11816406 C30.71185593 -0.12920448 35.38856499 -0.16357744 40.06558418 -0.20333576 C43.67400963 -0.22957057 47.28232239 -0.23786216 50.89083481 -0.24144554 C52.61390274 -0.24629685 54.33696613 -0.25786908 56.05994034 -0.27648354 C75.63175303 -0.47472144 75.63175303 -0.47472144 83.07958984 6.5690918 C85.39921971 12.25957822 85.11981708 17.81726644 85.08154297 23.90356445 C85.0842428 25.25629962 85.08812929 26.60903289 85.09313965 27.96176147 C85.09902387 30.79460152 85.09051564 33.6269358 85.07177734 36.4597168 C85.0491186 40.05719707 85.06203239 43.65347475 85.0860672 47.25090981 C85.10066789 50.04630233 85.09585268 52.84141997 85.08555603 55.63682175 C85.08165477 57.59737693 85.09363283 59.55794358 85.1060791 61.51846313 C84.98558718 73.18683546 82.64143636 83.46346292 74.55029297 92.17700195 C73.98697266 92.79317383 73.42365234 93.4093457 72.84326172 94.04418945 C62.84542225 103.85259618 50.88298243 104.86752416 37.61083984 104.81176758 C36.19339478 104.79303589 36.19339478 104.79303589 34.74731445 104.77392578 C31.85708953 104.73943389 28.96990364 104.75336614 26.07958984 104.77270508 C8.13083901 104.76022986 8.13083901 104.76022986 0.55029297 100.17700195 C-0.41263672 99.59821289 -1.37556641 99.01942383 -2.36767578 98.4230957 C-11.97142714 90.76984806 -17.01679364 82.14518149 -19.44970703 70.17700195 C-19.86155083 65.66722892 -19.89446792 61.18791868 -19.88330078 56.66137695 C-19.88854263 55.40617249 -19.89378448 54.15096802 -19.89918518 52.85772705 C-19.90719409 49.55270653 -19.9002051 46.24810924 -19.88885498 42.94311523 C-19.88665486 40.25147263 -19.91038388 37.56029388 -19.93366909 34.8687706 C-19.95649738 31.63296797 -19.94956378 28.39724117 -19.94580078 25.16137695 C-19.95703476 23.96333435 -19.96826874 22.76529175 -19.97984314 21.53094482 C-19.92416915 14.85329372 -19.50081364 10.57476125 -15.44970703 5.17700195 C-10.47359672 0.56499727 -6.56293308 0.02472333 0 0 Z " fill="#FCCBBC" transform="translate(168.44970703125,93.822998046875)"/>
<path d="M0 0 C1.04647705 -0.00619858 2.0929541 -0.01239716 3.17114258 -0.01878357 C5.38003612 -0.02587629 7.58898318 -0.02271735 9.79785156 -0.01000977 C13.17613079 0.00385957 16.55164195 -0.03022967 19.9296875 -0.06835938 C22.07812568 -0.06931056 24.22656732 -0.06745178 26.375 -0.0625 C27.88767456 -0.08238731 27.88767456 -0.08238731 29.4309082 -0.10267639 C34.15973645 -0.03992553 36.45099877 0.01580516 40.328125 2.91430664 C42.1875 5.56640625 42.1875 5.56640625 42.75 8.62890625 C42.06713986 12.19495365 41.07818358 13.4190413 38.1875 15.56640625 C37.1975 15.56640625 36.2075 15.56640625 35.1875 15.56640625 C35.1875 19.52640625 35.1875 23.48640625 35.1875 27.56640625 C36.5075 27.89640625 37.8275 28.22640625 39.1875 28.56640625 C40.9375 29.69140625 40.9375 29.69140625 42.1875 31.56640625 C42.83794248 37.63720271 42.83794248 37.63720271 40.875 40.44140625 C39.1875 41.56640625 39.1875 41.56640625 36.1875 42.56640625 C35.8575 46.52640625 35.5275 50.48640625 35.1875 54.56640625 C36.8375 54.89640625 38.4875 55.22640625 40.1875 55.56640625 C42.1875 57.56640625 42.1875 57.56640625 42.5625 60.94140625 C42.1875 64.56640625 42.1875 64.56640625 40.375 67.00390625 C38.1875 68.56640625 38.1875 68.56640625 35.1875 68.56640625 C35.1875 72.52640625 35.1875 76.48640625 35.1875 80.56640625 C36.5075 80.89640625 37.8275 81.22640625 39.1875 81.56640625 C40.9375 82.75390625 40.9375 82.75390625 42.1875 84.56640625 C42.6875 87.44140625 42.6875 87.44140625 42.1875 90.56640625 C39.8125 93.44140625 39.8125 93.44140625 37.1875 95.56640625 C36.5275 95.56640625 35.8675 95.56640625 35.1875 95.56640625 C35.1875 99.19640625 35.1875 102.82640625 35.1875 106.56640625 C36.8375 107.22640625 38.4875 107.88640625 40.1875 108.56640625 C42.1875 110.56640625 42.1875 110.56640625 42.5625 113.94140625 C42.1875 117.56640625 42.1875 117.56640625 40.375 120.00390625 C38.1875 121.56640625 38.1875 121.56640625 35.1875 121.56640625 C35.1875 125.52640625 35.1875 129.48640625 35.1875 133.56640625 C36.8375 133.89640625 38.4875 134.22640625 40.1875 134.56640625 C42.51329101 138.05509276 42.60615457 139.46359144 42.1875 143.56640625 C40.9375 145.94140625 40.9375 145.94140625 39.1875 147.56640625 C37.8675 147.56640625 36.5475 147.56640625 35.1875 147.56640625 C35.1875 151.52640625 35.1875 155.48640625 35.1875 159.56640625 C36.8375 160.22640625 38.4875 160.88640625 40.1875 161.56640625 C42.1875 163.56640625 42.1875 163.56640625 42.5625 166.94140625 C42.1875 170.56640625 42.1875 170.56640625 40.86108398 172.75756836 C36.55383131 175.67167986 32.11868336 175.15665837 27.03515625 175.1328125 C25.39673012 175.14211037 25.39673012 175.14211037 23.72520447 175.15159607 C21.41617728 175.15869715 19.10709892 175.15551528 16.7980957 175.14282227 C13.26612996 175.12896951 9.73681954 175.16301085 6.20507812 175.20117188 C3.96093685 175.20212319 1.71679226 175.20026361 -0.52734375 175.1953125 C-1.58267807 175.20857071 -2.63801239 175.22182892 -3.72532654 175.23548889 C-11.0469533 175.14258801 -11.0469533 175.14258801 -14.97875977 172.18334961 C-16.8125 169.56640625 -16.8125 169.56640625 -17.4375 167.06640625 C-16.54087135 163.47989167 -14.60500192 161.89349118 -11.8125 159.56640625 C-11.1525 159.56640625 -10.4925 159.56640625 -9.8125 159.56640625 C-9.8125 155.60640625 -9.8125 151.64640625 -9.8125 147.56640625 C-11.1325 147.23640625 -12.4525 146.90640625 -13.8125 146.56640625 C-15.625 144.87890625 -15.625 144.87890625 -16.8125 142.56640625 C-16.68018868 139.32477882 -16.36719295 137.32280572 -14.4375 134.69140625 C-12.8125 133.56640625 -12.8125 133.56640625 -9.8125 133.56640625 C-9.8125 129.60640625 -9.8125 125.64640625 -9.8125 121.56640625 C-11.1325 121.23640625 -12.4525 120.90640625 -13.8125 120.56640625 C-15.95558339 118.42332286 -16.72638005 117.05852026 -17.25 114.06640625 C-16.6705809 110.75543994 -15.44138816 109.59440569 -12.8125 107.56640625 C-11.8225 107.56640625 -10.8325 107.56640625 -9.8125 107.56640625 C-9.8125 103.60640625 -9.8125 99.64640625 -9.8125 95.56640625 C-11.4625 94.90640625 -13.1125 94.24640625 -14.8125 93.56640625 C-16.8125 90.56640625 -16.8125 90.56640625 -16.6875 87.06640625 C-15.8125 83.56640625 -15.8125 83.56640625 -13.875 81.62890625 C-11.8125 80.56640625 -11.8125 80.56640625 -9.8125 80.56640625 C-9.8125 76.60640625 -9.8125 72.64640625 -9.8125 68.56640625 C-11.1325 68.23640625 -12.4525 67.90640625 -13.8125 67.56640625 C-15.95558339 65.42332286 -16.72638005 64.05852026 -17.25 61.06640625 C-16.6705809 57.75543994 -15.44138816 56.59440569 -12.8125 54.56640625 C-11.8225 54.56640625 -10.8325 54.56640625 -9.8125 54.56640625 C-9.8125 50.60640625 -9.8125 46.64640625 -9.8125 42.56640625 C-11.4625 41.90640625 -13.1125 41.24640625 -14.8125 40.56640625 C-16.8125 37.56640625 -16.8125 37.56640625 -16.6875 34.06640625 C-15.8125 30.56640625 -15.8125 30.56640625 -13.875 28.62890625 C-11.8125 27.56640625 -11.8125 27.56640625 -9.8125 27.56640625 C-9.8125 23.60640625 -9.8125 19.64640625 -9.8125 15.56640625 C-11.1325 15.23640625 -12.4525 14.90640625 -13.8125 14.56640625 C-15.625 12.87890625 -15.625 12.87890625 -16.8125 10.56640625 C-16.8125 6.90129945 -16.35098436 5.18063239 -13.92578125 2.41430664 C-9.35050113 -0.30136896 -5.23092806 -0.02572733 0 0 Z " fill="#030303" transform="translate(186.8125,285.43359375)"/>
<path d="M0 0 C6.6 0 13.2 0 20 0 C20 63.36 20 126.72 20 192 C13.4 192 6.8 192 0 192 C-0.21703875 184.95289251 -0.41390504 177.90562026 -0.59204102 170.85742188 C-0.65549489 168.45948194 -0.72447314 166.06168159 -0.79907227 163.6640625 C-0.90530554 160.21896731 -0.99170378 156.7738597 -1.07421875 153.328125 C-1.11157639 152.25508118 -1.14893402 151.18203735 -1.18742371 150.07647705 C-1.20767105 149.07574158 -1.2279184 148.0750061 -1.2487793 147.04394531 C-1.28541939 145.72490204 -1.28541939 145.72490204 -1.32279968 144.37921143 C-0.92931618 141.47902132 0.15887475 140.22828803 2 138 C3.19912753 134.40261741 3.14335509 131.11872178 3.1328125 127.375 C3.13424759 126.2600415 3.13424759 126.2600415 3.13571167 125.12255859 C3.13639159 123.55240799 3.13455043 121.98225456 3.13037109 120.41210938 C3.12502015 118.00905035 3.13032242 115.60617822 3.13671875 113.203125 C3.13605794 111.67708292 3.1347767 110.15104096 3.1328125 108.625 C3.13584885 107.54677979 3.13584885 107.54677979 3.13894653 106.44677734 C3.12442286 103.35606493 2.98526308 100.95578923 2 98 C0.56589632 97.75045995 -0.87260072 97.52607358 -2.3125 97.3125 C-3.11300781 97.18488281 -3.91351563 97.05726563 -4.73828125 96.92578125 C-7.01652246 96.79563727 -7.01652246 96.79563727 -8.609375 98.1171875 C-10.59463117 100.80509052 -10.43383704 102.88145807 -10.51171875 106.19921875 C-10.54716797 107.40771484 -10.58261719 108.61621094 -10.61914062 109.86132812 C-10.64169922 111.12396484 -10.66425781 112.38660156 -10.6875 113.6875 C-10.72166016 114.96173828 -10.75582031 116.23597656 -10.79101562 117.54882812 C-10.87360784 120.69913103 -10.94272335 123.84915157 -11 127 C-11.66 127 -12.32 127 -13 127 C-13 126.34 -13 125.68 -13 125 C-13.57999756 124.72704102 -14.15999512 124.45408203 -14.75756836 124.17285156 C-16.97502707 123.01306151 -18.87329231 121.72740747 -20.87890625 120.234375 C-21.62615967 119.68023926 -22.37341309 119.12610352 -23.14331055 118.55517578 C-23.94164307 117.95946777 -24.73997559 117.36375977 -25.5625 116.75 C-26.39370361 116.13753418 -27.22490723 115.52506836 -28.08129883 114.89404297 C-32.4959924 111.63622061 -36.8695229 108.33600411 -41.1953125 104.9609375 C-42.03247803 104.31801758 -42.86964355 103.67509766 -43.73217773 103.01269531 C-45.3350517 101.78037737 -46.92640205 100.53288163 -48.50415039 99.26855469 C-53.60154538 95.38024681 -56.58672968 94.26348142 -63 95 C-65.35529281 95.41731018 -65.35529281 95.41731018 -67 96 C-67.226875 94.906875 -67.45375 93.81375 -67.6875 92.6875 C-68.58397093 88.84863791 -68.58397093 88.84863791 -71.5625 87.65625 C-72.366875 87.1096875 -73.17125 86.563125 -74 86 C-74.48828125 83.08203125 -74.48828125 83.08203125 -74.3125 79.8125 C-74.24482422 78.18248047 -74.24482422 78.18248047 -74.17578125 76.51953125 C-74.08876953 75.27236328 -74.08876953 75.27236328 -74 74 C-73.195625 73.71125 -72.39125 73.4225 -71.5625 73.125 C-68.8673532 72.26737432 -68.8673532 72.26737432 -68 70 C-67.75 66.5 -67.75 66.5 -68 63 C-70.1385485 60.8614515 -71.13275314 60.57344937 -74 60 C-74.34425883 55.94539603 -74.53041952 52.04309575 -74 48 C-71.25 45.5625 -71.25 45.5625 -68 44 C-65.67722584 41.3908613 -65.67722584 41.3908613 -64 39 C-63.319375 40.7015625 -63.319375 40.7015625 -62.625 42.4375 C-61.42904194 46.04721692 -61.42904194 46.04721692 -59 47 C-56.02123208 47.1210927 -53.06189999 47.1857716 -50.08203125 47.2109375 C-48.25194439 47.23901962 -46.42186639 47.26768416 -44.59179688 47.296875 C-41.70630264 47.33803684 -38.82097143 47.37492237 -35.93530273 47.40136719 C-33.15053019 47.42910254 -30.36651045 47.47498835 -27.58203125 47.5234375 C-26.72760941 47.52669037 -25.87318756 47.52994324 -24.99287415 47.53329468 C-18.97516199 47.65578676 -14.07682477 48.55882694 -9.22265625 52.41015625 C-4.18410278 59.58627786 -5.59841003 68.64692855 -6 77 C-12.9278679 75.39018872 -19.5384622 73.13134876 -26.17578125 70.609375 C-26.9949704 70.29915405 -27.81415955 69.98893311 -28.65817261 69.66931152 C-32.08119555 68.36930049 -35.50197692 67.06402544 -38.91625977 65.74121094 C-41.43560171 64.76782341 -43.96118055 63.81240425 -46.48828125 62.859375 C-47.25400955 62.55739197 -48.01973785 62.25540894 -48.80867004 61.9442749 C-53.20477903 60.30257876 -56.36199706 59.45065112 -61 61 C-63.31282587 64.46923881 -63.42478586 65.92205575 -63 70 C-60.08211471 73.5869508 -56.11504389 74.6727458 -51.88671875 76.1796875 C-50.6777166 76.62164963 -50.6777166 76.62164963 -49.44429016 77.07254028 C-46.86147615 78.01456103 -44.27462059 78.9448806 -41.6875 79.875 C-39.98865656 80.4927318 -38.29008578 81.11121403 -36.59179688 81.73046875 C-32.49108359 83.22363532 -28.38525912 84.70215069 -24.27798462 86.17715454 C-22.12342686 86.95541619 -19.97355824 87.74527627 -17.82495117 88.53979492 C-16.59107666 88.99201416 -15.35720215 89.4442334 -14.0859375 89.91015625 C-13.02294434 90.30340088 -11.95995117 90.69664551 -10.86474609 91.10180664 C-6.5589789 92.45180813 -3.47860233 92.63980033 1 92 C4.60417025 89.85283474 6.45441349 87.85484966 8 84 C8.42937685 79.78218346 8.32421196 75.54988642 8.3125 71.3125 C8.32861328 70.16587891 8.34472656 69.01925781 8.36132812 67.83789062 C8.41239152 57.03234848 8.41239152 57.03234848 3.78953552 47.53492737 C-0.35829571 42.46894619 -0.67616239 38.55436783 -0.48828125 32.12890625 C-0.48120651 31.206577 -0.47413177 30.28424774 -0.46684265 29.33396912 C-0.43901755 26.40929525 -0.37630266 23.48658794 -0.3125 20.5625 C-0.28740171 18.57099133 -0.26459123 16.57945244 -0.24414062 14.58789062 C-0.19349523 9.72390694 -0.0956252 4.864135 0 0 Z " fill="#796C78" transform="translate(296,280)"/>
<path d="M0 0 C3.08261456 -0.1746397 6.16395833 -0.28094067 9.25 -0.375 C10.12269531 -0.42527344 10.99539063 -0.47554688 11.89453125 -0.52734375 C14.39348736 -0.58457175 16.5623192 -0.56123349 19 0 C21.421875 2.8359375 21.421875 2.8359375 23 6 C23.52010808 6.40326413 24.04021616 6.80652826 24.57608509 7.22201252 C26.83368016 10.04098417 26.40189677 13.15480479 26.36076355 16.61186218 C26.36332682 17.39438396 26.3658901 18.17690573 26.36853105 18.98314029 C26.37348497 21.61356081 26.3569498 24.24341138 26.34057617 26.8737793 C26.33973025 28.75597113 26.34020437 30.63816396 26.34190369 32.52035522 C26.34276641 37.63786921 26.32509581 42.75517336 26.30418181 47.87263846 C26.28546117 53.21780068 26.28366822 58.56296741 26.28010559 63.90815735 C26.27077155 74.03352902 26.24613938 84.15880382 26.21605712 94.28413278 C26.18255539 105.80996701 26.16603774 117.3358058 26.15097082 128.86167657 C26.11959101 152.57450481 26.06680411 176.28724698 26 200 C25.30092529 199.51136475 24.60185059 199.02272949 23.8815918 198.51928711 C18.07521223 194.61560206 13.8000072 192.13945014 6.8125 191.5625 C5.51957031 191.44003906 4.22664063 191.31757813 2.89453125 191.19140625 C1.93933594 191.12824219 0.98414063 191.06507813 0 191 C-0.00238835 190.31731898 -0.00477671 189.63463797 -0.00723743 188.93126965 C-0.06633524 172.33150318 -0.14185155 155.73190128 -0.23571491 139.13229656 C-0.28070902 131.10489399 -0.32011524 123.07753614 -0.34643555 115.05004883 C-0.36938647 108.05449774 -0.40275168 101.05908776 -0.44870156 94.06364852 C-0.47267326 90.35849356 -0.49137604 86.65347869 -0.49761391 82.94824791 C-0.50476701 78.81514883 -0.53516717 74.68253832 -0.56762695 70.54956055 C-0.56619186 69.31669815 -0.56475677 68.08383575 -0.5632782 66.81361389 C-0.57581635 65.69040741 -0.58835449 64.56720093 -0.60127258 63.40995789 C-0.60818603 61.94292435 -0.60818603 61.94292435 -0.61523914 60.44625378 C-0.81589037 57.97535712 -0.81589037 57.97535712 -2.27492046 56.22437763 C-4.21834104 54.68777735 -4.21834104 54.68777735 -8 54 C-8 47.07 -8 40.14 -8 33 C-6.35 32.34 -4.7 31.68 -3 31 C-0.64290358 27.46435537 -0.69990265 25.77974745 -0.5859375 21.58203125 C-0.52792969 19.70161133 -0.52792969 19.70161133 -0.46875 17.78320312 C-0.42234375 15.81770508 -0.42234375 15.81770508 -0.375 13.8125 C-0.33680662 12.4771884 -0.29775409 11.14190108 -0.2578125 9.80664062 C-0.16340847 6.53790112 -0.07782983 3.26916936 0 0 Z " fill="#ECDFDA" transform="translate(409,115)"/>
<path d="M0 0 C5.58669908 -0.09914961 11.17288186 -0.17160105 16.76025391 -0.21972656 C18.65943325 -0.23979629 20.55855115 -0.26705851 22.45751953 -0.30175781 C25.19318839 -0.35048109 27.92803771 -0.37301507 30.6640625 -0.390625 C31.93003769 -0.42159271 31.93003769 -0.42159271 33.22158813 -0.45318604 C39.47101145 -0.45554505 43.11276775 1.13334185 47.64453125 5.6328125 C51.74340273 10.8694978 52.14725664 13.86700323 52.14044189 20.39360046 C52.14489858 21.71182626 52.14489858 21.71182626 52.1494453 23.05668288 C52.15815841 26.01916201 52.15964275 28.98160085 52.16113281 31.9440918 C52.16575921 34.06108182 52.17078362 36.178071 52.17617798 38.2950592 C52.1893228 44.05968943 52.1957512 49.824308 52.20018864 55.58895087 C52.20311653 59.18880162 52.20722083 62.78864917 52.21169281 66.38849831 C52.22537436 77.6465458 52.23503731 88.90458599 52.2388947 100.16264123 C52.24337465 113.16726362 52.26091693 126.17178086 52.2898953 139.17637128 C52.31150324 149.22145068 52.32159854 159.26650049 52.32293582 169.31160289 C52.32398465 175.31400992 52.32990892 181.31631819 52.34775543 187.31870079 C52.36422029 192.96656016 52.36639924 198.6142464 52.35761642 204.2621212 C52.35684515 206.33454858 52.36120058 208.40698519 52.37107468 210.47938919 C52.38377088 213.31029309 52.37792983 216.14058168 52.36749268 218.97148132 C52.37957728 220.19951738 52.37957728 220.19951738 52.39190602 221.45236224 C52.34051281 227.41939872 51.3435641 232.32620642 47.28125 236.9609375 C46.6934375 237.42757812 46.105625 237.89421875 45.5 238.375 C44.9121875 238.85710937 44.324375 239.33921875 43.71875 239.8359375 C39.54014147 242.6659951 35.00422139 242.12740929 30.17578125 242.09765625 C29.31438034 242.0962413 28.45297943 242.09482635 27.56547546 242.09336853 C24.81444831 242.0877714 22.06350256 242.07521946 19.3125 242.0625 C17.4472668 242.05748463 15.58203233 242.05292179 13.71679688 242.04882812 C9.14449989 242.03780292 4.57226375 242.02054027 0 242 C1.49619617 238.1487771 3.13359544 235.00381732 6 232 C10.50728879 230.6853741 14.83915605 230.91652775 19.5 231.125 C28.45603106 231.83624528 28.45603106 231.83624528 36.71875 229.1796875 C39.80541355 226.23044391 40.94555119 224.74735352 41.26006222 220.43043804 C41.27501812 218.90670971 41.27882066 217.38284915 41.27415466 215.85905457 C41.27939134 215.0195129 41.28462802 214.17997123 41.29002339 213.31498891 C41.30506932 210.49143905 41.30572954 207.66806968 41.30639648 204.84448242 C41.31401492 202.82424105 41.32244186 200.80400259 41.33161926 198.7837677 C41.35360313 193.28784444 41.36236846 187.79197682 41.36744571 182.29601455 C41.37108488 178.86383828 41.37732265 175.43167669 41.3844471 171.999506 C41.40895569 160.02985618 41.42199641 148.06024979 41.42553711 136.09057617 C41.42917285 124.92687762 41.45906749 113.76345392 41.50094169 102.59983939 C41.53561407 93.02098622 41.55108503 83.44222425 41.55178314 73.86330873 C41.55257704 68.13977254 41.56136732 62.41651612 41.58978081 56.69304466 C41.61590876 51.30935806 41.61819596 45.92618423 41.60212517 40.5424633 C41.60030645 38.56636184 41.6070394 36.59023126 41.62294388 34.61419296 C41.64333564 31.91615099 41.63289375 29.21991467 41.61473083 26.52189636 C41.63453079 25.34887845 41.63453079 25.34887845 41.65473074 24.15216321 C41.59412536 20.21057064 41.06988057 17.59064819 38.64907932 14.52988148 C35.38125187 11.40909303 33.21393243 10.87714157 28.8670702 10.8613348 C28.02159872 10.85586036 27.17612724 10.85038591 26.30503541 10.84474558 C24.91156539 10.84327842 24.91156539 10.84327842 23.48994446 10.84178162 C22.50324506 10.83684364 21.51654567 10.83190566 20.4999463 10.82681805 C17.17875826 10.81140473 13.85758961 10.80307204 10.53637695 10.79467773 C8.16157866 10.78510223 5.78678208 10.77509234 3.4119873 10.76467896 C-2.3768621 10.74040422 -8.16571426 10.72067469 -13.95458706 10.70292621 C-20.68957217 10.68203347 -27.42453187 10.65557133 -34.15949557 10.62875474 C-46.17052674 10.5810786 -58.1815696 10.53781447 -70.19262695 10.49731445 C-81.861256 10.45795964 -93.52987466 10.41653345 -105.19848633 10.37231445 C-105.91756409 10.36959018 -106.63664186 10.36686591 -107.37750985 10.36405908 C-110.98485925 10.35037961 -114.5922085 10.33665933 -118.19955766 10.32291877 C-148.13301683 10.20895364 -178.06649827 10.10221769 -208 10 C-208 9.67 -208 9.34 -208 9 C-137.71 9 -67.42 9 5 9 C3.02 5.535 3.02 5.535 1 2 C0.67 1.34 0.34 0.68 0 0 Z " fill="#D5E8F9" transform="translate(289,255)"/>
<path d="M0 0 C13.90578513 -0.56148343 26.13890425 -0.94075185 39 5 C39.96679688 5.4228125 40.93359375 5.845625 41.9296875 6.28125 C53.8813769 12.10473605 62.69444362 21.45162145 69 33 C69.59554687 34.01320313 69.59554687 34.01320313 70.203125 35.046875 C76.84388226 47.03988437 76.37952246 59.98233473 76.1875 73.25 C76.17241988 75.07420765 76.15873739 76.89842742 76.14648438 78.72265625 C76.11375617 83.14874187 76.06215964 87.57423389 76 92 C72.37 92 68.74 92 65 92 C64.443125 89.8034375 64.443125 89.8034375 63.875 87.5625 C61.03515991 78.31011776 56.82547215 72.83671336 48.3671875 68.09375 C43.558206 65.87177835 38.97446642 65.83325711 33.74316406 65.79467773 C32.49870766 65.77982834 32.49870766 65.77982834 31.22911072 65.76467896 C28.49131101 65.73313257 25.75349397 65.70833366 23.015625 65.68359375 C21.11561639 65.6630183 19.21561229 65.64202167 17.31561279 65.62062073 C12.31796937 65.56546112 7.32028506 65.51602489 2.3225708 65.46777344 C-2.77847935 65.41751379 -7.87947021 65.36185103 -12.98046875 65.30664062 C-22.9869285 65.1991338 -32.99343976 65.09767223 -43 65 C-43 64.67 -43 64.34 -43 64 C-16.6 64 9.8 64 37 64 C35.4553933 42.37550619 30.47114021 25.34698387 14.19140625 10.42578125 C9.65770298 6.6056595 5.38587593 3.52339722 0 1 C0 0.67 0 0.34 0 0 Z " fill="#A04D3C" transform="translate(203,15)"/>
<path d="M0 0 C0.2475 0.5775 0.495 1.155 0.75 1.75 C2.29868972 4.5376415 3.43223248 6.05121416 6 8 C9.03466774 8.58731881 12.03033996 8.53343756 15.11328125 8.50390625 C16.00105759 8.51332748 16.88883392 8.52274872 17.80351257 8.53245544 C20.64007623 8.56111358 23.4758033 8.56418436 26.3125 8.5625 C29.13836333 8.56611579 31.96361556 8.57576083 34.78935242 8.60325623 C36.54563248 8.61994752 38.30211283 8.62299712 40.0584259 8.61024475 C46.08190847 8.66159651 50.91799278 9.55471515 55.77734375 13.41015625 C60.81589722 20.58627786 59.40158997 29.64692855 59 38 C52.0721321 36.39018872 45.4615378 34.13134876 38.82421875 31.609375 C38.0050296 31.29915405 37.18584045 30.98893311 36.34182739 30.66931152 C32.91880445 29.36930049 29.49802308 28.06402544 26.08374023 26.74121094 C23.56439829 25.76782341 21.03881945 24.81240425 18.51171875 23.859375 C17.74599045 23.55739197 16.98026215 23.25540894 16.19132996 22.9442749 C11.79522097 21.30257876 8.63800294 20.45065112 4 22 C1.68717413 25.46923881 1.57521414 26.92205575 2 31 C4.91788529 34.5869508 8.88495611 35.6727458 13.11328125 37.1796875 C14.3222834 37.62164963 14.3222834 37.62164963 15.55570984 38.07254028 C18.13852385 39.01456103 20.72537941 39.9448806 23.3125 40.875 C25.01134344 41.4927318 26.70991422 42.11121403 28.40820312 42.73046875 C32.50882516 44.22347563 36.61413304 45.70305861 40.72119141 47.17825317 C42.87722049 47.95572525 45.02989826 48.74176034 47.18164062 49.53100586 C48.41720703 49.98096924 49.65277344 50.43093262 50.92578125 50.89453125 C52.52353394 51.48004761 52.52353394 51.48004761 54.15356445 52.07739258 C57.80959532 53.26241193 61.17260686 53.77035641 65 54 C65 54.99 65 55.98 65 57 C63.3603125 57.1546875 63.3603125 57.1546875 61.6875 57.3125 C57.52398944 58.02507414 57.52398944 58.02507414 55 61 C54.49335383 63.90087655 54.49335383 63.90087655 54.48828125 67.19921875 C54.45283203 68.40771484 54.41738281 69.61621094 54.38085938 70.86132812 C54.35830078 72.12396484 54.33574219 73.38660156 54.3125 74.6875 C54.27833984 75.96173828 54.24417969 77.23597656 54.20898438 78.54882812 C54.12639216 81.69913103 54.05727665 84.84915157 54 88 C53.34 88 52.68 88 52 88 C52 87.34 52 86.68 52 86 C51.42000244 85.72704102 50.84000488 85.45408203 50.24243164 85.17285156 C48.02497293 84.01306151 46.12670769 82.72740747 44.12109375 81.234375 C43.37384033 80.68023926 42.62658691 80.12610352 41.85668945 79.55517578 C41.05835693 78.95946777 40.26002441 78.36375977 39.4375 77.75 C38.60629639 77.13753418 37.77509277 76.52506836 36.91870117 75.89404297 C32.5040076 72.63622061 28.1304771 69.33600411 23.8046875 65.9609375 C22.96752197 65.31801758 22.13035645 64.67509766 21.26782227 64.01269531 C19.6649483 62.78037737 18.07359795 61.53288163 16.49584961 60.26855469 C11.39845462 56.38024681 8.41327032 55.26348142 2 56 C-0.35529281 56.41731018 -0.35529281 56.41731018 -2 57 C-2.226875 55.906875 -2.45375 54.81375 -2.6875 53.6875 C-3.58397093 49.84863791 -3.58397093 49.84863791 -6.5625 48.65625 C-7.366875 48.1096875 -8.17125 47.563125 -9 47 C-9.48828125 44.08203125 -9.48828125 44.08203125 -9.3125 40.8125 C-9.26738281 39.72582031 -9.22226563 38.63914062 -9.17578125 37.51953125 C-9.11777344 36.68808594 -9.05976563 35.85664063 -9 35 C-8.195625 34.71125 -7.39125 34.4225 -6.5625 34.125 C-3.8673532 33.26737432 -3.8673532 33.26737432 -3 31 C-2.75 27.5 -2.75 27.5 -3 24 C-5.1385485 21.8614515 -6.13275314 21.57344937 -9 21 C-9.34425769 16.94540946 -9.53575688 13.04252922 -9 9 C-6.1875 6.5625 -6.1875 6.5625 -3 5 C-1.13689678 2.39975951 -1.13689678 2.39975951 0 0 Z " fill="#8D7F8D" transform="translate(231,319)"/>
<path d="M0 0 C5.94 0 11.88 0 18 0 C24.10573101 6.10573101 24.15089049 7.87320251 24.16113281 15.96020508 C24.16609772 16.88880844 24.17106262 17.8174118 24.17617798 18.77415466 C24.190821 21.85595431 24.19760541 24.93770248 24.203125 28.01953125 C24.208875 30.15703839 24.21463275 32.29454551 24.22039795 34.43205261 C24.23091424 38.91865276 24.23675269 43.40523496 24.24023438 47.8918457 C24.2457183 53.6421443 24.26974162 59.392206 24.29820633 65.14243031 C24.31682688 69.55963332 24.32203802 73.97677923 24.32357025 78.39401817 C24.32659897 80.51391583 24.33463485 82.63381243 24.34775543 84.75367165 C24.3648024 87.71983491 24.36293879 90.685419 24.35644531 93.65161133 C24.3656601 94.52816376 24.37487488 95.40471619 24.3843689 96.30783081 C24.35221961 100.99380744 24.15952967 104.26807275 21 108 C17 110 17 110 0 110 C0 73.7 0 37.4 0 0 Z " fill="#C5B8B3" transform="translate(401,321)"/>
<path d="M0 0 C1.45416824 -0.00574036 1.45416824 -0.00574036 2.93771362 -0.01159668 C4.99038734 -0.01431772 7.04309561 -0.00694314 9.09570312 0.00976562 C12.21044159 0.03103324 15.32283659 0.01004259 18.4375 -0.015625 C20.43750503 -0.01297904 22.43750862 -0.00784853 24.4375 0 C25.81773849 -0.01214539 25.81773849 -0.01214539 27.2258606 -0.02453613 C36.10873442 0.10169519 44.02176987 2.68586486 50.5859375 8.83203125 C58.67791125 17.81164498 59.47915281 26.92118378 59.4921875 38.59375 C59.51667969 39.75197266 59.54117188 40.91019531 59.56640625 42.10351562 C59.58862581 48.55089157 59.51146526 52.65879568 55.1171875 57.53125 C54.5603125 58.15 54.0034375 58.76875 53.4296875 59.40625 C48.00448669 62.04553688 42.07502829 60.71543264 36.58496094 58.92651367 C34.54341992 58.19908543 32.50746017 57.45585354 30.4765625 56.69921875 C29.39135315 56.30680496 28.3061438 55.91439117 27.18804932 55.51008606 C24.90643808 54.68200051 22.62730873 53.84704785 20.35058594 53.00561523 C16.8693242 51.71953936 13.38090795 50.45472113 9.890625 49.19335938 C7.66882324 48.38404021 5.44745349 47.57353385 3.2265625 46.76171875 C2.18691345 46.38347458 1.1472644 46.00523041 0.07611084 45.61552429 C-0.89549988 45.25537735 -1.8671106 44.89523041 -2.86816406 44.52416992 C-4.14315765 44.05451057 -4.14315765 44.05451057 -5.44390869 43.57536316 C-12.33604341 40.62478818 -12.33604341 40.62478818 -13.8828125 37.53125 C-14.42566178 33.4598804 -14.20171123 31.9720806 -11.7578125 28.59375 C-8.8828125 26.53125 -8.8828125 26.53125 -6.35058594 26.6796875 C-1.62089717 27.84113177 2.89824376 29.44200718 7.4765625 31.09375 C8.46215149 31.4451001 9.44774048 31.7964502 10.4631958 32.15844727 C12.53831322 32.89918757 14.61257804 33.64232017 16.68603516 34.38769531 C19.86835882 35.53167106 23.05305401 36.66882437 26.23828125 37.8046875 C28.25534869 38.52564911 30.27228058 39.24699008 32.2890625 39.96875 C33.24423767 40.31043213 34.19941284 40.65211426 35.18353271 41.00415039 C36.06494934 41.3211792 36.94636597 41.63820801 37.85449219 41.96484375 C38.6313739 42.24384521 39.40825562 42.52284668 40.2086792 42.81030273 C42.1171875 43.53125 42.1171875 43.53125 44.1171875 44.53125 C44.05673698 41.67496294 43.9695436 38.82359509 43.8671875 35.96875 C43.85300781 35.16888672 43.83882813 34.36902344 43.82421875 33.54492188 C43.58914799 27.78568837 42.67536089 24.14175898 39.1171875 19.53125 C33.53289781 16.47598976 28.9257354 16.12617456 22.640625 16.1953125 C20.81770471 16.18280877 18.99478802 16.16977205 17.171875 16.15625 C14.32343937 16.15231162 11.47535574 16.15633605 8.62695312 16.17089844 C5.8601469 16.17946735 3.09480236 16.15780322 0.328125 16.1328125 C-0.52093414 16.14615631 -1.36999329 16.15950012 -2.24478149 16.17324829 C-6.60541189 16.11881403 -8.36026903 15.93446525 -11.92333984 13.18505859 C-13.8828125 10.53125 -13.8828125 10.53125 -14.4453125 7.46875 C-12.90682799 -0.56555802 -6.80369628 -0.05908908 0 0 Z " fill="#020202" transform="translate(245.8828125,312.46875)"/>
<path d="M0 0 C1.46771095 -0.01354271 1.46771095 -0.01354271 2.96507263 -0.02735901 C5.02673295 -0.04182222 7.08843876 -0.05073844 9.15014648 -0.05444336 C12.30205045 -0.06638147 15.45202182 -0.11564087 18.60351562 -0.16601562 C20.61066756 -0.175476 22.61783147 -0.18271288 24.625 -0.1875 C26.03453697 -0.21679848 26.03453697 -0.21679848 27.47254944 -0.24668884 C32.07350134 -0.21495524 34.09288739 -0.12908245 37.84741211 2.74584961 C39.74609375 5.37109375 39.74609375 5.37109375 40.24609375 7.93359375 C39.6534099 10.8229275 38.7869741 12.25462523 36.74609375 14.37109375 C34.03052508 15.27628331 32.43655042 15.49947587 29.64526367 15.51293945 C28.82398483 15.51997391 28.00270599 15.52700836 27.15653992 15.53425598 C26.27214737 15.53842026 25.38775482 15.54258453 24.4765625 15.546875 C22.59959818 15.57007498 20.72264502 15.59419239 18.84570312 15.61914062 C15.88981677 15.65423334 12.93434069 15.68359036 9.97827148 15.69702148 C7.12303108 15.71253002 4.26898573 15.75275815 1.4140625 15.796875 C0.53574265 15.79496658 -0.34257721 15.79305817 -1.24751282 15.79109192 C-6.70540405 15.89943658 -10.0024787 16.62432483 -14.25390625 20.37109375 C-18.02562215 24.75956822 -17.61046356 29.19139847 -17.44140625 34.68359375 C-17.42787109 35.51955078 -17.41433594 36.35550781 -17.40039062 37.21679688 C-17.36521842 39.26850873 -17.31141673 41.3198865 -17.25390625 43.37109375 C-16.39066238 43.04829689 -16.39066238 43.04829689 -15.50997925 42.71897888 C-9.51383704 40.47997114 -3.51061965 38.26080897 2.49707031 36.05297852 C4.73755028 35.22665967 6.9761835 34.39531537 9.21289062 33.55883789 C12.43015623 32.35664917 15.65365257 31.17275057 18.87890625 29.9921875 C19.87600616 29.61517197 20.87310608 29.23815643 21.90042114 28.84971619 C30.67520745 25.67362332 30.67520745 25.67362332 35.74609375 27.37109375 C38.18359375 28.99609375 38.18359375 28.99609375 39.74609375 31.37109375 C39.68639677 34.77382162 39.63889534 37.25793108 37.45903015 39.97583008 C35.49488632 41.57571349 33.79146256 42.29789497 31.40161133 43.1328125 C30.52672562 43.44323486 29.6518399 43.75365723 28.7504425 44.07348633 C27.80670273 44.39857178 26.86296295 44.72365723 25.890625 45.05859375 C24.91502121 45.40237061 23.93941742 45.74614746 22.93424988 46.1003418 C19.81180588 47.19869755 16.68537328 48.28514925 13.55859375 49.37109375 C10.45065039 50.45970557 7.34355064 51.55070046 4.23649597 52.6418457 C2.30387828 53.31952599 0.37057321 53.99525025 -1.56352234 54.66870117 C-5.64506315 56.09126503 -9.71213132 57.53312906 -13.75048828 59.07446289 C-18.12070722 60.69190071 -21.66660779 61.16774291 -26.25390625 60.37109375 C-29.85391622 58.22640696 -31.72998528 56.23261106 -33.25390625 52.37109375 C-33.71481386 47.65395613 -33.62424126 42.92089066 -33.62890625 38.18359375 C-33.65339844 36.89388672 -33.67789063 35.60417969 -33.703125 34.27539062 C-33.7369311 23.24896718 -31.57375357 16.16628714 -24.046875 8.09375 C-16.81760822 1.14798388 -9.5872281 0.05483123 0 0 Z " fill="#020202" transform="translate(128.25390625,312.62890625)"/>
<path d="M0 0 C14.52 0 29.04 0 44 0 C44 11.55 44 23.1 44 35 C38.06 35.495 38.06 35.495 32 36 C25.52830826 38.51676901 21.92110261 41.05668412 18.8125 47.4375 C17.76724402 50.52443753 17.76724402 50.52443753 17 56 C11.39 56 5.78 56 0 56 C0 37.52 0 19.04 0 0 Z " fill="#25A5FD" transform="translate(409,43)"/>
<path d="M0 0 C0.33 0 0.66 0 1 0 C1.33 6.93 1.66 13.86 2 21 C2.33 20.67 2.66 20.34 3 20 C8.73211781 19.43618513 8.73211781 19.43618513 11 20 C14.19619995 22.80996913 15.24729125 25.10972746 15.53125 29.25 C15.54180555 30.83333241 15.53083897 32.41693275 15.5 34 C15.51546875 34.7940625 15.5309375 35.588125 15.546875 36.40625 C15.52049413 40.36338038 15.25832139 42.55634869 13.23046875 46.0390625 C11 48 11 48 8.89453125 48.5234375 C3.11111111 48.11111111 3.11111111 48.11111111 2 47 C1.67 51.29 1.34 55.58 1 60 C-7.58 60 -16.16 60 -25 60 C-25 43.17 -25 26.34 -25 9 C-19.06 8.505 -19.06 8.505 -13 8 C-9.8272503 7.05328311 -9.8272503 7.05328311 -7.4375 5.625 C-6.65246094 5.20476562 -5.86742187 4.78453125 -5.05859375 4.3515625 C-3.09617712 3.06314475 -1.62021375 1.68423436 0 0 Z " fill="#E8DCD7" transform="translate(434,437)"/>
<path d="M0 0 C4.3927697 0.82931064 7.51409463 3.68965806 10.93505859 6.42431641 C11.7387085 7.04137451 12.5423584 7.65843262 13.37036133 8.29418945 C15.09498316 9.62050301 16.81331115 10.95503306 18.52587891 12.296875 C22.31718699 15.26040735 26.14832312 18.17048689 29.97924805 21.08251953 C31.84555818 22.50281454 33.70875863 23.92720638 35.56860352 25.35595703 C36.41269775 26.00371094 37.25679199 26.65146484 38.12646484 27.31884766 C39.24903687 28.18280151 39.24903687 28.18280151 40.39428711 29.06420898 C42.20532173 30.47347158 42.20532173 30.47347158 44.24755859 31.42431641 C44.24755859 32.08431641 44.24755859 32.74431641 44.24755859 33.42431641 C44.90755859 33.42431641 45.56755859 33.42431641 46.24755859 33.42431641 C46.22661133 32.62735352 46.20566406 31.83039063 46.18408203 31.00927734 C46.10092537 27.39775206 46.04889825 23.78642817 45.99755859 20.17431641 C45.96404297 18.92005859 45.93052734 17.66580078 45.89599609 16.37353516 C45.88310547 15.16826172 45.87021484 13.96298828 45.85693359 12.72119141 C45.83598633 11.61098633 45.81503906 10.50078125 45.79345703 9.35693359 C46.35194521 5.75018089 47.37598285 4.60754518 50.24755859 2.42431641 C53.18505859 1.86181641 53.18505859 1.86181641 56.24755859 2.42431641 C59.75195449 5.13480805 61.10614496 6.59833735 61.86279297 11.01782227 C61.88213221 12.3914841 61.87351892 13.76573985 61.84130859 15.13916016 C61.84134888 15.8725209 61.84138916 16.60588165 61.84143066 17.36146545 C61.83608732 18.90716148 61.81855484 20.4528579 61.78955078 21.99829102 C61.74774295 24.35144017 61.74848172 26.70171817 61.75537109 29.05517578 C61.74487514 30.56235694 61.73193484 32.06952346 61.71630859 33.57666016 C61.71600647 34.62224342 61.71600647 34.62224342 61.71569824 35.68894958 C61.58621179 41.09332903 60.19756318 45.06806087 56.74755859 49.23681641 C53.77336425 51.59138693 50.24283098 51.95717207 46.53125 51.89794922 C41.70758823 50.89753187 38.15278956 47.36046524 34.43505859 44.29931641 C32.57689889 42.82512702 30.71749706 41.3525021 28.85693359 39.88134766 C27.92300781 39.13449707 26.98908203 38.38764648 26.02685547 37.61816406 C21.8239361 34.30057504 17.51111647 31.14107858 13.18505859 27.98681641 C11.63398123 26.84789665 10.0831902 25.70858682 8.53271484 24.56884766 C6.44821626 23.03897873 4.36354027 21.5093543 2.27832031 19.98046875 C0.55671555 18.71577416 -1.16095937 17.44595032 -2.87744141 16.17431641 C-3.80814453 15.48853516 -4.73884766 14.80275391 -5.69775391 14.09619141 C-7.75244141 12.42431641 -7.75244141 12.42431641 -8.75244141 10.42431641 C-9.03000725 7.2323092 -9.00208739 5.01722561 -7.75244141 2.04931641 C-5.21677159 -0.01091532 -3.20958663 -0.07726114 0 0 Z " fill="#020202" transform="translate(238.75244140625,373.57568359375)"/>
<path d="M0 0 C2.5625 1.5625 2.5625 1.5625 4 4 C4.25 7.3125 4.25 7.3125 3 11 C-1.87250063 16.17850308 -7.94159429 20.29029546 -13.6875 24.4375 C-21.8899544 30.40642222 -29.96705191 36.52283453 -37.96948242 42.75756836 C-49.8196163 51.89240549 -49.8196163 51.89240549 -58 51 C-62.22639771 49.17496463 -64.02869188 47.11451653 -66 43 C-66.31059072 40.19457129 -66.46799293 37.61639917 -66.46875 34.8125 C-66.47636353 34.03237549 -66.48397705 33.25225098 -66.49182129 32.44848633 C-66.50259226 30.80455719 -66.50548762 29.16055979 -66.50097656 27.51660156 C-66.50000283 25.00730136 -66.54168085 22.5010477 -66.5859375 19.9921875 C-66.59114412 18.39063135 -66.5938327 16.78906462 -66.59375 15.1875 C-66.61014526 14.44153564 -66.62654053 13.69557129 -66.64343262 12.92700195 C-66.59122147 8.97568048 -66.12310906 7.16026032 -63.68945312 3.9921875 C-61 2 -61 2 -57.375 1.9375 C-53.60649318 3.12388178 -52.91276493 3.67007103 -51 7 C-50.56762695 9.74902344 -50.56762695 9.74902344 -50.48828125 12.859375 C-50.45283203 13.97441406 -50.41738281 15.08945312 -50.38085938 16.23828125 C-50.35830078 17.39714844 -50.33574219 18.55601562 -50.3125 19.75 C-50.26125977 21.51150391 -50.26125977 21.51150391 -50.20898438 23.30859375 C-50.12654827 26.20563389 -50.05738189 29.10237298 -50 32 C-49.55422607 31.64921387 -49.10845215 31.29842773 -48.64916992 30.93701172 C-38.97555171 23.33745467 -29.22068893 15.87357751 -19.28393555 8.62060547 C-18.534104 8.07291504 -17.78427246 7.52522461 -17.01171875 6.9609375 C-16.31087158 6.45079102 -15.61002441 5.94064453 -14.88793945 5.41503906 C-13.28358027 4.21254769 -11.73956275 2.93021712 -10.2109375 1.6328125 C-6.58387722 -1.04582919 -4.41625717 -0.56079456 0 0 Z " fill="#010101" transform="translate(166,374)"/>
<path d="M0 0 C3.00339193 2.00226129 3.81463343 3.25853373 4.6875 6.75 C3.14433597 14.04495721 -3.75330637 18.74333535 -9.0625 23.5625 C-11.04426378 25.37220084 -13.02258971 27.18553274 -15 29 C-15.61359375 29.54785156 -16.2271875 30.09570312 -16.859375 30.66015625 C-21.3439134 35.18086028 -23.26169491 41.06424583 -25.37817383 46.95947266 C-27.09749994 51.5625799 -28.57879648 54.427059 -33 57 C-35.5 57.53125 -35.5 57.53125 -38 57.5 C-38.825 57.5103125 -39.65 57.520625 -40.5 57.53125 C-44.08000376 56.7704992 -45.47099053 55.68983679 -48 53 C-49.7434427 49.66876583 -51.03187689 46.21832615 -52.3125 42.6875 C-52.67150391 41.76259766 -53.03050781 40.83769531 -53.40039062 39.88476562 C-55.3240982 34.72922933 -56.61280569 30.50804174 -56 25 C-54.375 22.5625 -54.375 22.5625 -52 21 C-49.0625 20.4375 -49.0625 20.4375 -46 21 C-40.92774091 24.65674492 -39.55303151 29.20454096 -38 35 C-37.70609375 34.26136719 -37.4121875 33.52273438 -37.109375 32.76171875 C-33.43519832 24.4525893 -28.51451943 19.20610277 -21.66601562 13.45458984 C-19.90024983 11.91290863 -18.23904492 10.29836534 -16.578125 8.64453125 C-16.0116626 8.08894531 -15.4452002 7.53335937 -14.86157227 6.9609375 C-13.77212143 5.88816923 -12.69375593 4.80398614 -11.62866211 3.70703125 C-7.79861205 0.01387831 -5.2454019 -0.69645886 0 0 Z " fill="#020202" transform="translate(167,408)"/>
<path d="M0 0 C3.0384113 1.91899661 5.44365569 4.49136352 8 7 C9.21917616 8.12747276 10.44216561 9.2508295 11.66796875 10.37109375 C13.00824158 11.60109511 14.34808107 12.83156882 15.6875 14.0625 C16.65042969 14.94639404 16.65042969 14.94639404 17.6328125 15.84814453 C23.548262 21.3562151 28.09971363 26.36766744 31 34 C31.32613281 33.31292969 31.65226562 32.62585938 31.98828125 31.91796875 C32.42527344 31.01691406 32.86226563 30.11585938 33.3125 29.1875 C33.74175781 28.29417969 34.17101562 27.40085937 34.61328125 26.48046875 C35.9071101 24.16615518 36.91687735 22.6202065 39 21 C42.93094707 20.49969765 45.1005787 20.4003858 48.4375 22.625 C50.52886107 25.80386883 50.35211405 27.18613813 50 31 C48.99906065 34.60352988 47.70794149 38.07019331 46.375 41.5625 C46.04371094 42.49513672 45.71242188 43.42777344 45.37109375 44.38867188 C43.18466697 50.17651483 41.29771105 53.67689034 36 57 C33.65625 57.6640625 33.65625 57.6640625 31.5 57.625 C30.7884375 57.63789063 30.076875 57.65078125 29.34375 57.6640625 C25.78953305 56.65703436 23.34288885 54.77995166 21 52 C19.59957467 49.1604279 18.68147643 46.18904329 17.6875 43.1875 C13.66097003 32.34062835 6.63235319 26.0020768 -2.04223633 18.67260742 C-9.74569536 12.09118857 -9.74569536 12.09118857 -10.47338867 8.96875 C-10.59513119 6.02291459 -10.32926853 3.61979959 -8.9375 1 C-5.63881286 -0.7025482 -3.67243079 -0.60203783 0 0 Z " fill="#020102" transform="translate(239,408)"/>
<path d="M0 0 C10.14480522 -0.09292324 20.28950819 -0.16387795 30.43465328 -0.20724869 C35.1461236 -0.22807077 39.85730147 -0.25628944 44.56860352 -0.30175781 C49.1203401 -0.34540837 53.67179643 -0.36917752 58.22372627 -0.37950897 C59.95517955 -0.38686601 61.68661851 -0.40123231 63.41795158 -0.42292023 C83.07353823 -0.65921548 83.07353823 -0.65921548 90.52929688 6.39208984 C92.84892674 12.08257627 92.56952411 17.64026449 92.53125 23.7265625 C92.53394983 25.07929767 92.53783632 26.43203094 92.54284668 27.78475952 C92.5487309 30.61759957 92.54022267 33.44993384 92.52148438 36.28271484 C92.49882563 39.88019511 92.51173942 43.47647279 92.53577423 47.07390785 C92.55037492 49.86930038 92.54555972 52.66441802 92.53526306 55.45981979 C92.53136181 57.42037498 92.54333986 59.38094162 92.55578613 61.34146118 C92.43529421 73.00983351 90.09114339 83.28646097 82 92 C81.43667969 92.61617188 80.87335938 93.23234375 80.29296875 93.8671875 C74.85299989 99.20408327 68.31203851 102.01145695 61 104 C60.01 103.505 60.01 103.505 59 103 C59.87011719 102.30777344 59.87011719 102.30777344 60.7578125 101.6015625 C70.68596793 93.31171654 76.9569087 82.58875619 78.37451172 69.55725098 C78.52449983 65.80844401 78.55477978 62.07983665 78.53125 58.328125 C78.53395371 56.95196256 78.53784337 55.575802 78.54284668 54.199646 C78.54869275 51.3388012 78.54033443 48.47846119 78.52148438 45.61767578 C78.49860947 41.9706607 78.51190119 38.32481801 78.53577423 34.677845 C78.55029234 31.84488225 78.54560051 29.01219352 78.53526306 26.17922211 C78.53134217 24.18744633 78.5433723 22.1956594 78.55578613 20.20391846 C78.54317749 18.98194763 78.53056885 17.75997681 78.51757812 16.50097656 C78.51439575 15.43574768 78.51121338 14.3705188 78.50793457 13.27301025 C78.01827058 9.02067291 78.01827058 9.02067291 74 2 C37.37 1.505 37.37 1.505 0 1 C0 0.67 0 0.34 0 0 Z " fill="#F5AA98" transform="translate(161,94)"/>
<path d="M0 0 C1.35476711 0.00560715 2.70954038 0.00987195 4.0643158 0.01286316 C7.60058901 0.02422409 11.13648248 0.05361354 14.67260742 0.0869751 C18.29275376 0.11786685 21.91296249 0.13140897 25.53320312 0.14648438 C32.61473707 0.17849352 39.69601539 0.22958133 46.77734375 0.29296875 C47.17131348 1.10048584 47.17131348 1.10048584 47.57324219 1.92431641 C47.92418945 2.6363623 48.27513672 3.3484082 48.63671875 4.08203125 C48.98186523 4.78537598 49.32701172 5.4887207 49.68261719 6.21337891 C50.69370773 8.13409015 51.79241243 9.88570097 53.02734375 11.66796875 C54.77734375 14.29296875 54.77734375 14.29296875 54.77734375 16.29296875 C24.08734375 16.29296875 -6.60265625 16.29296875 -38.22265625 16.29296875 C-31.39392697 8.32611792 -31.39392697 8.32611792 -27.91015625 6.04296875 C-27.23339844 5.5840625 -26.55664062 5.12515625 -25.859375 4.65234375 C-17.30480141 0.24198581 -9.53905198 -0.11468838 0 0 Z " fill="#04DC97" transform="translate(119.22265625,223.70703125)"/>
<path d="M0 0 C7.51986494 -0.06987387 15.03969572 -0.12299943 22.55981255 -0.15543652 C26.05268798 -0.17101405 29.54533939 -0.19210496 33.03808594 -0.22631836 C37.06447353 -0.26550694 41.09063015 -0.27977447 45.1171875 -0.29296875 C46.35612762 -0.30845261 47.59506775 -0.32393646 48.87155151 -0.33988953 C60.70901894 -0.34216175 71.96040254 2.1660537 80.73828125 10.6875 C84 14.5096831 84 14.5096831 84 16 C53.31 16 22.62 16 -9 16 C-6.0263242 10.64738355 -3.04937672 5.30817428 0 0 Z " fill="#05E29B" transform="translate(234,224)"/>
<path d="M0 0 C2.64 0 5.28 0 8 0 C11.28617461 5.33183649 11.42925764 9.62739318 11.38818359 15.68969727 C11.39344055 16.64814545 11.39869751 17.60659363 11.40411377 18.59408569 C11.41728185 21.75169326 11.40858751 24.90879385 11.3984375 28.06640625 C11.40045898 30.26545814 11.40337104 32.46450937 11.40713501 34.66355896 C11.4115539 39.26755163 11.40514053 43.87136947 11.39111328 48.4753418 C11.37401175 54.37577746 11.38387168 60.27580401 11.40183067 66.17622471 C11.41267155 70.71525658 11.40922091 75.25419145 11.4014473 79.79322624 C11.39944666 81.96893296 11.40189976 84.1446485 11.40888596 86.32034492 C11.41650637 89.3603664 11.40488797 92.39972513 11.38818359 95.43969727 C11.39729263 96.78717796 11.39729263 96.78717796 11.40658569 98.16188049 C11.36979173 101.77715041 11.11675558 104.64691378 9.97573853 108.09751892 C8 110 8 110 0 110 C0 73.7 0 37.4 0 0 Z " fill="#E0D2CD" transform="translate(401,321)"/>
<path d="M0 0 C9.9 0 19.8 0 30 0 C30 10.56 30 21.12 30 32 C20.1 32 10.2 32 0 32 C0 21.44 0 10.88 0 0 Z " fill="#25A4FC" transform="translate(356,360)"/>
<path d="M0 0 C12.54 0 25.08 0 38 0 C38 10.12586421 38 10.12586421 35.62890625 13.5625 C34.89124023 14.66271484 34.89124023 14.66271484 34.13867188 15.78515625 C33.61853516 16.51605469 33.09839844 17.24695313 32.5625 18 C32.04623047 18.76183594 31.52996094 19.52367187 30.99804688 20.30859375 C26.51775688 26.87968574 26.51775688 26.87968574 23.0078125 27.6953125 C15.01737614 28.57956602 15.01737614 28.57956602 11 27 C8.29907534 24.71340915 6.45411254 22.09898929 4.5625 19.125 C4.09666504 18.39941895 3.63083008 17.67383789 3.15087891 16.92626953 C-0.47047981 10.57464267 0 8.45673173 0 0 Z " fill="#FDAE9C" transform="translate(181,213)"/>
<path d="M0 0 C3.40540358 1.15783722 5.71336443 2.69329854 8.51171875 4.90625 C12.52518905 7.78273235 17.40849207 7.76349956 22.125 7.0625 C25.04889486 5.70912552 27.54977403 3.98518003 30.125 2.0625 C33.125 0.0625 33.125 0.0625 36.0625 0.1875 C39.63909141 1.20938326 41.07640877 1.94864134 43.125 5.0625 C43.40484206 8.77040729 42.98195051 10.97884301 40.6484375 13.9296875 C34.01138019 20.29361488 26.19191687 23.19919843 17.0625 23.5625 C7.71192947 23.19960593 -0.01205854 19.33411752 -6.875 13.0625 C-8.43930248 9.93389505 -8.23127284 7.50647075 -7.875 4.0625 C-5.3229813 1.06012506 -3.96282306 0.08614833 0 0 Z " fill="#060504" transform="translate(183.875,158.9375)"/>
<path d="M0 0 C3.1317635 2.28357755 4.67913747 3.71654988 5.625 7.5 C4.70988409 11.16046366 2.90988784 12.67208973 0 15 C-2.8125 15.8125 -2.8125 15.8125 -5 16 C-5 17.32 -5 18.64 -5 20 C-4.44570312 20.18175781 -3.89140625 20.36351562 -3.3203125 20.55078125 C-2.59585938 20.80214844 -1.87140625 21.05351562 -1.125 21.3125 C-0.40570313 21.55613281 0.31359375 21.79976562 1.0546875 22.05078125 C3 23 3 23 5 26 C4.87059529 29.6233318 4.75012072 32.06985031 2.4375 34.9375 C-1.11894425 36.48774493 -4.24129515 36.72178028 -8 36 C-13.57428272 33.63698885 -17.13496426 30.38626718 -20 25 C-21.78215185 20.54462038 -21.92262432 15.34105142 -20.1640625 10.87890625 C-15.7347843 3.01619428 -9.10478199 -1.49258721 0 0 Z " fill="#060505" transform="translate(204,117)"/>
<path d="M0 0 C5.94 0 11.88 0 18 0 C18 11.55 18 23.1 18 35 C12.06 35.495 12.06 35.495 6 36 C4.02 36.66 2.04 37.32 0 38 C0 25.46 0 12.92 0 0 Z " fill="#0492FB" transform="translate(435,43)"/>
<path d="M0 0 C7.51986494 -0.06987387 15.03969572 -0.12299943 22.55981255 -0.15543652 C26.05268798 -0.17101405 29.54533939 -0.19210496 33.03808594 -0.22631836 C37.06447353 -0.26550694 41.09063015 -0.27977447 45.1171875 -0.29296875 C46.35612762 -0.30845261 47.59506775 -0.32393646 48.87155151 -0.33988953 C60.70901894 -0.34216175 71.96040254 2.1660537 80.73828125 10.6875 C84 14.5096831 84 14.5096831 84 16 C53.31 16 22.62 16 -9 16 C-9 15.67 -9 15.34 -9 15 C10.8 15 30.6 15 51 15 C45.49130287 6.57128536 45.49130287 6.57128536 37.0664978 1.63879395 C34.69505378 1.44098567 32.36006337 1.3941591 29.98046875 1.390625 C29.12189774 1.37408875 28.26332672 1.35755249 27.3787384 1.34051514 C24.64825237 1.29209967 21.918323 1.27067894 19.1875 1.25 C17.3313523 1.22183486 15.47523046 1.19190666 13.61914062 1.16015625 C9.07947293 1.08634262 4.54011307 1.03672872 0 1 C0 0.67 0 0.34 0 0 Z " fill="#0BC889" transform="translate(234,224)"/>
<path d="M0 0 C3.44102354 0.7022497 4.86431032 1.81413949 7.02612305 4.55224609 C9.22993281 8.95986561 8.64693476 13.93860679 8.5 18.75 C8.49419922 19.83410156 8.48839844 20.91820312 8.48242188 22.03515625 C8.34190862 31.1291739 8.34190862 31.1291739 6.0625 34.625 C2.57125983 36.95249345 1.17027749 37.12799316 -2.9375 36.625 C-5.82355416 34.45197099 -6.82668145 33.25896577 -7.45507812 29.6640625 C-7.45958984 28.53742188 -7.46410156 27.41078125 -7.46875 26.25 C-7.47390625 25.01765625 -7.4790625 23.7853125 -7.484375 22.515625 C-7.46890625 21.23171875 -7.4534375 19.9478125 -7.4375 18.625 C-7.45296875 17.34109375 -7.4684375 16.0571875 -7.484375 14.734375 C-7.47921875 13.50203125 -7.4740625 12.2696875 -7.46875 11 C-7.46423828 9.87335938 -7.45972656 8.74671875 -7.45507812 7.5859375 C-6.64623823 2.95876287 -4.5475033 0.96755389 0 0 Z " fill="#080707" transform="translate(424.9375,255.375)"/>
<path d="M0 0 C9.01786991 1.12723374 9.01786991 1.12723374 11.875 3.875 C12.42929687 4.38804688 12.98359375 4.90109375 13.5546875 5.4296875 C17.359729 9.56381367 17.60171312 12.72360875 17.515625 18.1328125 C16.63212624 23.04560104 13.77784419 25.91620652 10 29 C6.19769145 31.17274774 4.60440986 31 0 31 C0 20.77 0 10.54 0 0 Z " fill="#EF907B" transform="translate(268,121)"/>
<path d="M0 0 C9.9 0 19.8 0 30 0 C30 10.56 30 21.12 30 32 C20.1 32 10.2 32 0 32 C0 31.67 0 31.34 0 31 C5.94 31 11.88 31 18 31 C18 21.1 18 11.2 18 1 C12.06 1 6.12 1 0 1 C0 0.67 0 0.34 0 0 Z " fill="#0586E5" transform="translate(356,360)"/>
<path d="M0 0 C0 9.57 0 19.14 0 29 C-8.5 29 -8.5 29 -13 25 C-15.97754892 21.02694526 -17.34837885 17.36106351 -17.0625 12.375 C-16.14730237 6.96786299 -13.54419946 3.86574627 -9.125 0.625 C-7 0 -7 0 0 0 Z " fill="#FAAD9B" transform="translate(134,122)"/>
<path d="M0 0 C11.55 0 23.1 0 35 0 C35 10.12586421 35 10.12586421 32.62890625 13.5625 C32.13712891 14.29597656 31.64535156 15.02945313 31.13867188 15.78515625 C30.61853516 16.51605469 30.09839844 17.24695313 29.5625 18 C29.04623047 18.76183594 28.52996094 19.52367187 27.99804688 20.30859375 C24.36941964 25.63058036 24.36941964 25.63058036 23 27 C20.46950598 27.07313567 17.96695163 27.09247527 15.4375 27.0625 C14.72658203 27.05798828 14.01566406 27.05347656 13.28320312 27.04882812 C11.52209987 27.03700864 9.76103964 27.01907263 8 27 C8.99 26.67 9.98 26.34 11 26 C11.71215936 24.35225874 12.37345606 22.68216079 13 21 C13.99264053 19.60451067 15.01450457 18.22941178 16.0625 16.875 C19.6746211 11.66335082 19.84159193 7.25711862 20 1 C13.4 1 6.8 1 0 1 C0 0.67 0 0.34 0 0 Z " fill="#F0917D" transform="translate(184,213)"/>
<path d="M0 0 C3.33836737 0.97395747 4.29791928 2.63090189 6.03515625 5.59375 C6.60143273 8.61097038 6.59480655 11.5317014 6.53515625 14.59375 C6.550625 15.3878125 6.56609375 16.181875 6.58203125 17 C6.55563009 20.96017464 6.29817322 23.14517601 4.2578125 26.625 C1.88688122 28.72508676 1.07430763 29.23717897 -2.02734375 29.09375 C-5.96484375 28.59375 -5.96484375 28.59375 -7.68603516 27.375 C-9.38188355 25.01285608 -9.35224276 23.48688439 -9.36328125 20.59375 C-9.36714844 19.624375 -9.37101562 18.655 -9.375 17.65625 C-9.36339844 16.645625 -9.35179687 15.635 -9.33984375 14.59375 C-9.35144531 13.583125 -9.36304688 12.5725 -9.375 11.53125 C-9.37113281 10.561875 -9.36726563 9.5925 -9.36328125 8.59375 C-9.35989746 7.706875 -9.35651367 6.82 -9.35302734 5.90625 C-8.96484375 3.59375 -8.96484375 3.59375 -7.68603516 1.8125 C-5.27483518 0.10516521 -2.88696063 0.13350107 0 0 Z " fill="#070707" transform="translate(442.96484375,456.40625)"/>
<path d="M0 0 C3.33836737 0.97395747 4.29791928 2.63090189 6.03515625 5.59375 C6.60143273 8.61097038 6.59480655 11.5317014 6.53515625 14.59375 C6.550625 15.3878125 6.56609375 16.181875 6.58203125 17 C6.55563009 20.96017464 6.29817322 23.14517601 4.2578125 26.625 C1.88688122 28.72508676 1.07430763 29.23717897 -2.02734375 29.09375 C-5.96484375 28.59375 -5.96484375 28.59375 -7.68603516 27.375 C-9.38188355 25.01285608 -9.35224276 23.48688439 -9.36328125 20.59375 C-9.36714844 19.624375 -9.37101562 18.655 -9.375 17.65625 C-9.36339844 16.645625 -9.35179687 15.635 -9.33984375 14.59375 C-9.35144531 13.583125 -9.36304688 12.5725 -9.375 11.53125 C-9.37113281 10.561875 -9.36726563 9.5925 -9.36328125 8.59375 C-9.35989746 7.706875 -9.35651367 6.82 -9.35302734 5.90625 C-8.96484375 3.59375 -8.96484375 3.59375 -7.68603516 1.8125 C-5.27483518 0.10516521 -2.88696063 0.13350107 0 0 Z " fill="#080707" transform="translate(423.96484375,456.40625)"/>
<path d="M0 0 C3.74948047 1.180392 4.45394941 1.76517436 6.375 5.0625 C6.73828125 7.5 6.73828125 7.5 6.6875 10.0625 C6.68363281 10.908125 6.67976562 11.75375 6.67578125 12.625 C6.35617503 15.21505559 5.76408923 16.86351776 4.375 19.0625 C1.24639505 20.62680248 -1.18102925 20.41877284 -4.625 20.0625 C-7.46498954 17.87789266 -8.4261725 16.20669597 -9.0390625 12.6796875 C-9.29518753 8.16379879 -9.05913557 5.73343679 -6.5625 1.875 C-3.625 0.0625 -3.625 0.0625 0 0 Z " fill="#050404" transform="translate(173.625,108.9375)"/>
<path d="M0 0 C4.51521156 1.23142133 4.51521156 1.23142133 6.4375 3.9375 C6.87109375 6.96875 6.87109375 6.96875 6.875 10.4375 C6.89433594 11.5821875 6.91367188 12.726875 6.93359375 13.90625 C6.4375 16.9375 6.4375 16.9375 4.6328125 18.8203125 C1.42982887 20.45030061 -1.02889111 20.32298461 -4.5625 19.9375 C-6.25 18.81640625 -6.25 18.81640625 -7.5625 16.9375 C-7.99609375 13.94140625 -7.99609375 13.94140625 -8 10.5 C-8.01933594 9.36691406 -8.03867188 8.23382813 -8.05859375 7.06640625 C-7.5625 3.9375 -7.5625 3.9375 -5.7578125 1.5234375 C-3.5625 -0.0625 -3.5625 -0.0625 0 0 Z " fill="#040303" transform="translate(230.5625,109.0625)"/>
<path d="M0 0 C2.22992638 1.68694195 2.91874747 2.56152913 3.43359375 5.33984375 C3.44403416 12.28271405 3.44403416 12.28271405 1.375 15.625 C-1.72904866 17.42208081 -3.46656253 17.58890625 -7 17 C-9.375 15.625 -9.375 15.625 -11 13 C-11.61324151 9.54980012 -11.65714444 6.4457226 -11 3 C-7.65272957 -1.2333126 -5.04643619 -1.64557702 0 0 Z " fill="#060505" transform="translate(429,235)"/>
<path d="M0 0 C1.0209375 -0.01160156 1.0209375 -0.01160156 2.0625 -0.0234375 C4.62458372 0.50344262 5.48241135 1.25408864 7 3.375 C7.8392962 7.90417501 7.81875537 12.05239518 5.375 16 C2.27095134 17.79708081 0.53343747 17.96390625 -3 17.375 C-5.375 16 -5.375 16 -7 13.375 C-7.59263717 9.30644594 -8.20833681 5.06371536 -5.72265625 1.58984375 C-3.65120196 0.12902224 -2.5163377 -0.02859475 0 0 Z " fill="#040404" transform="translate(425,212.625)"/>
<path d="M0 0 C3.63 0 7.26 0 11 0 C11 5.61 11 11.22 11 17 C7.37 17 3.74 17 0 17 C0 11.39 0 5.78 0 0 Z " fill="#CCBEB9" transform="translate(442,94)"/>
<path d="M0 0 C4.95 0 9.9 0 15 0 C15 3.96 15 7.92 15 12 C10.05 12 5.1 12 0 12 C0 8.04 0 4.08 0 0 Z " fill="#DAD6D5" transform="translate(192,407)"/>
<path d="M0 0 C4.95 0 9.9 0 15 0 C15 3.96 15 7.92 15 12 C10.05 12 5.1 12 0 12 C0 8.04 0 4.08 0 0 Z " fill="#DAD6D5" transform="translate(192,354)"/>
<path d="M0 0 C4.95 0 9.9 0 15 0 C15 3.96 15 7.92 15 12 C10.05 12 5.1 12 0 12 C0 8.04 0 4.08 0 0 Z " fill="#DAD6D5" transform="translate(192,301)"/>
<path d="M0 0 C4.62 0 9.24 0 14 0 C14 3.63 14 7.26 14 11 C9.38 11 4.76 11 0 11 C0 7.37 0 3.74 0 0 Z " fill="#FEFEFE" transform="translate(193,434)"/>
<path d="M0 0 C4.62 0 9.24 0 14 0 C14 3.63 14 7.26 14 11 C9.38 11 4.76 11 0 11 C0 7.37 0 3.74 0 0 Z " fill="#FEFEFE" transform="translate(193,381)"/>
<path d="M0 0 C4.62 0 9.24 0 14 0 C14 3.63 14 7.26 14 11 C9.38 11 4.76 11 0 11 C0 7.37 0 3.74 0 0 Z " fill="#FEFEFE" transform="translate(193,328)"/>
<path d="M0 0 C2.64 0 5.28 0 8 0 C8 3.3 8 6.6 8 10 C5.36 10 2.72 10 0 10 C0 6.7 0 3.4 0 0 Z " fill="#FEFEFE" transform="translate(193,408)"/>
<path d="M0 0 C2.64 0 5.28 0 8 0 C8 3.3 8 6.6 8 10 C5.36 10 2.72 10 0 10 C0 6.7 0 3.4 0 0 Z " fill="#FEFEFE" transform="translate(193,355)"/>
<path d="M0 0 C2.64 0 5.28 0 8 0 C8 3.3 8 6.6 8 10 C5.36 10 2.72 10 0 10 C0 6.7 0 3.4 0 0 Z " fill="#FEFEFE" transform="translate(193,302)"/>
<path d="M0 0 C1.98 0 3.96 0 6 0 C6 3.63 6 7.26 6 11 C4.02 11 2.04 11 0 11 C0 7.37 0 3.74 0 0 Z " fill="#F9F3F1" transform="translate(201,434)"/>
<path d="M0 0 C1.98 0 3.96 0 6 0 C6 3.63 6 7.26 6 11 C4.02 11 2.04 11 0 11 C0 7.37 0 3.74 0 0 Z " fill="#F9F3F1" transform="translate(201,381)"/>
<path d="M0 0 C1.98 0 3.96 0 6 0 C6 3.63 6 7.26 6 11 C4.02 11 2.04 11 0 11 C0 7.37 0 3.74 0 0 Z " fill="#F9F3F1" transform="translate(201,328)"/>
</svg>
