<?xml version="1.0" encoding="UTF-8"?>
<svg version="1.1" xmlns="http://www.w3.org/2000/svg" width="512" height="512">
<path d="M0 0 C0.68497559 0.19335938 1.36995117 0.38671875 2.07568359 0.5859375 C24.27988927 6.92301096 42.17834855 18.21404925 58 35 C60.91699767 33.69519244 62.79939947 32.35928334 64.9375 30 C85.50071545 9.00112321 114.95503061 -2.9342485 144.16479492 -3.24169922 C166.99224726 -3.29110614 166.99224726 -3.29110614 178 0 C178.68497559 0.19335938 179.36995117 0.38671875 180.07568359 0.5859375 C207.25101066 8.34176747 233.24908215 25.36521841 248 50 C248.65226562 51.05445313 249.30453125 52.10890625 249.9765625 53.1953125 C264.52616208 77.24432209 271.52047674 107.34672388 264.97460938 135.1027832 C257.79022314 162.67972753 241.68478624 187.03271529 224 209 C223.23115479 209.96389648 223.23115479 209.96389648 222.44677734 210.94726562 C215.22202902 219.98300047 207.71941618 228.64789238 199.71020508 236.99926758 C198.80757935 237.94129028 198.80757935 237.94129028 197.88671875 238.90234375 C197.35264404 239.45398193 196.81856934 240.00562012 196.26831055 240.57397461 C194.89457338 241.99397788 194.89457338 241.99397788 194 244 C191.50638429 242.79618552 189.31856917 241.54571278 187 240 C185.02 241.98 183.04 243.96 181 246 C182.51277873 249.55089918 184.58120101 251.82808345 187.30264282 254.54315186 C188.20570663 255.448965 189.10877045 256.35477814 190.03919983 257.28804016 C191.04247963 258.28424222 192.04585503 259.28034802 193.04931641 260.27636719 C194.1042148 261.33070133 195.15867277 262.38547628 196.21272278 263.44065857 C199.07375435 266.3022641 201.9409117 269.15766007 204.80920076 272.01198864 C207.80633542 274.9966232 210.79780958 277.98692016 213.78988647 280.97662354 C219.45591744 286.63643763 225.1270275 292.29113403 230.79997575 297.94401383 C237.25849646 304.38018203 243.71134098 310.82202826 250.16371274 317.26435995 C263.43616492 330.51590543 276.71573581 343.76029626 290 357 C291.12203297 356.04359074 292.24331233 355.08629732 293.36427307 354.12863159 C293.98876626 353.59563383 294.61325945 353.06263607 295.25667667 352.51348686 C297.23901519 350.79249612 299.1169148 348.99709481 300.96484375 347.1328125 C301.61904297 346.47539062 302.27324219 345.81796875 302.94726562 345.140625 C303.60404297 344.47546875 304.26082031 343.8103125 304.9375 343.125 C305.96327148 342.09246094 305.96327148 342.09246094 307.00976562 341.0390625 C308.67551464 339.36166489 310.3388622 337.68196209 312 336 C312.47630859 336.40847168 312.95261719 336.81694336 313.44335938 337.23779297 C314.07048828 337.77549316 314.69761719 338.31319336 315.34375 338.8671875 C315.96443359 339.39940918 316.58511719 339.93163086 317.22460938 340.47998047 C318.64720639 341.69795201 320.07306912 342.91210875 321.5 344.125 C323 346 323 346 322.92797852 347.76464844 C321.56351616 351.05141965 319.16375293 353.20402458 316.65234375 355.640625 C316.12105362 356.16767029 315.58976349 356.69471558 315.04237366 357.23773193 C313.34767175 358.91567187 311.64282783 360.58286728 309.9375 362.25 C308.78512255 363.38732745 307.63342148 364.52534066 306.48242188 365.6640625 C303.66272816 368.45071992 300.83389412 371.22778792 298 374 C302.37029366 379.22948744 306.96911804 384.10289955 311.8046875 388.90234375 C312.5286673 389.6249086 313.25264709 390.34747345 313.99856567 391.0919342 C316.28835265 393.37616922 318.58160993 395.65688312 320.875 397.9375 C322.43773161 399.49521039 324.0002339 401.05315087 325.5625 402.61132812 C329.3723531 406.41021602 333.18505379 410.20622713 337 414 C338.11228972 413.0542569 339.22348623 412.107228 340.33422852 411.15966797 C340.95314468 410.63243134 341.57206085 410.1051947 342.20973206 409.5619812 C344.5563298 407.51461082 346.75278049 405.34333058 348.9375 403.125 C349.70964844 402.34382813 350.48179687 401.56265625 351.27734375 400.7578125 C351.84582031 400.17773438 352.41429687 399.59765625 353 399 C355.35043586 400.98070437 357.67822804 402.98581322 360 405 C360.825 405.70125 361.65 406.4025 362.5 407.125 C364 409 364 409 363.79414845 410.89213848 C362.84724183 413.40545703 361.68509165 414.69753506 359.79362488 416.6007843 C359.10807022 417.29768875 358.42251556 417.9945932 357.71618652 418.71261597 C356.95930542 419.46656647 356.20242432 420.22051697 355.42260742 420.99731445 C354.23233696 422.20028923 354.23233696 422.20028923 353.01802063 423.42756653 C350.38831891 426.08070101 347.74752485 428.72245308 345.10546875 431.36328125 C343.27772262 433.1981238 341.45027795 435.03326669 339.62312317 436.86869812 C335.79063655 440.71464311 331.95234224 444.55466642 328.11010742 448.39086914 C323.66547827 452.82884897 319.23583567 457.28140097 314.81310004 461.74119025 C310.55955988 466.02907119 306.29230877 470.30302019 302.01949501 474.57170677 C300.2017893 476.39111131 298.38808915 478.21452651 296.57842064 480.04192543 C294.05249628 482.58986631 291.51134902 485.12157068 288.96557617 487.6496582 C287.83936356 488.79576569 287.83936356 488.79576569 286.69039917 489.96502686 C285.99638504 490.64783218 285.30237091 491.33063751 284.58732605 492.03413391 C283.98761584 492.63455663 283.38790564 493.23497934 282.77002239 493.85359669 C281 495 281 495 278.92325306 494.81451702 C276.0746814 493.60811826 274.37709512 491.65843755 272.25 489.4375 C271.45078125 488.61121094 270.6515625 487.78492188 269.828125 486.93359375 C269.22484375 486.29550781 268.6215625 485.65742188 268 485 C272.69766975 479.33870569 277.74723372 474.14771096 283 469 C278.62970634 463.77051256 274.03088196 458.89710045 269.1953125 454.09765625 C268.4713327 453.3750914 267.74735291 452.65252655 267.00143433 451.9080658 C264.71164735 449.62383078 262.41839007 447.34311688 260.125 445.0625 C258.56226839 443.50478961 256.9997661 441.94684913 255.4375 440.38867188 C251.6276469 436.58978398 247.81494621 432.79377287 244 429 C239.90629133 432.4299357 235.9877076 435.90422944 232.30078125 439.77734375 C231.48416016 440.61974609 230.66753906 441.46214844 229.82617188 442.33007812 C228.13106721 444.08840348 226.44370839 445.85422494 224.76367188 447.62695312 C223.54454102 448.87702148 223.54454102 448.87702148 222.30078125 450.15234375 C221.57028564 450.91538818 220.83979004 451.67843262 220.0871582 452.46459961 C218 454 218 454 215.87866211 453.86962891 C213.09920226 452.58302254 211.35838237 450.63889924 209.25 448.4375 C208.45078125 447.61121094 207.6515625 446.78492188 206.828125 445.93359375 C206.22484375 445.29550781 205.6215625 444.65742188 205 444 C209.38442526 438.74825074 214.00842093 433.86777527 218.875 429.0625 C219.56335938 428.37865234 220.25171875 427.69480469 220.9609375 426.99023438 C222.63833641 425.32448407 224.31848946 423.66159639 226 422 C220.87655629 415.80159881 215.28185028 410.14668732 209.58837891 404.47485352 C208.54295719 403.42971433 207.49775654 402.38435399 206.45275879 401.33879089 C203.63312398 398.51887071 200.81042992 395.70203131 197.98715258 392.88575864 C195.03051814 389.93540106 192.0767399 386.98218671 189.12265015 384.02928162 C183.53621592 378.44594797 177.94723883 372.86516704 172.35733068 367.28531164 C165.9901535 360.92933522 159.62583606 354.57049857 153.26175046 348.21142685 C140.17766701 335.13777896 127.09001857 322.0677052 114 309 C110.09330571 310.43828546 107.80286291 311.88570788 105 315 C105.495 315.598125 105.99 316.19625 106.5 316.8125 C108 319 108 319 108 322 C106.67749023 323.34350586 106.67749023 323.34350586 104.80859375 324.71484375 C104.11878418 325.22998535 103.42897461 325.74512695 102.71826172 326.27587891 C101.58928467 327.09838135 101.58928467 327.09838135 100.4375 327.9375 C98.86471842 329.10911212 97.29312556 330.28232149 95.72265625 331.45703125 C94.92746582 332.0495166 94.13227539 332.64200195 93.31298828 333.25244141 C89.93874201 335.80182444 86.65774842 338.45960689 83.375 341.125 C80.92366914 343.09222661 78.46432289 345.04907771 76 347 C75.33097656 347.53028809 74.66195312 348.06057617 73.97265625 348.60693359 C71.95331889 350.19348764 69.9174897 351.75591102 67.875 353.3125 C67.25931152 353.79928223 66.64362305 354.28606445 66.00927734 354.78759766 C63.54805546 356.63402413 61.68680046 357.95362441 58.5703125 358.1640625 C54.60267078 356.36716701 51.39291075 353.76784882 48 351.0625 C47.2474292 350.4742041 46.4948584 349.8859082 45.71948242 349.27978516 C44.19107156 348.08487818 42.66524632 346.88665618 41.14208984 345.68505859 C38.22019403 343.38657159 35.26684012 341.13163618 32.3125 338.875 C30.20686325 337.25185038 28.10236539 335.62736999 26 334 C25.43716309 333.56478027 24.87432617 333.12956055 24.29443359 332.68115234 C16.73824752 326.82705669 9.34673631 320.82043402 2.078125 314.61328125 C-0.7270732 312.22117731 -3.57463157 309.88544149 -6.4375 307.5625 C-16.44296967 299.40128962 -26.17365344 290.9662054 -35.61035156 282.15405273 C-38.20140009 279.7371896 -40.8128874 277.34388939 -43.4312439 274.956604 C-50.80877771 268.20933526 -57.92953226 261.22470417 -64.98632812 254.14404297 C-66.89078505 252.23417006 -68.80060819 250.32977851 -70.7109375 248.42578125 C-76.68740324 242.4529053 -82.55238901 236.46583895 -88 230 C-89.05613665 228.79601727 -90.11474757 227.59420061 -91.17578125 226.39453125 C-97.65169159 219.01675726 -103.89136093 211.53491851 -109.75537109 203.66113281 C-111.04735189 201.93680223 -112.36054273 200.23007662 -113.67578125 198.5234375 C-121.04024384 188.86060367 -127.1980864 178.66571244 -133 168 C-133.58273682 166.92951416 -133.58273682 166.92951416 -134.17724609 165.83740234 C-148.40474452 139.36865144 -152.7709452 110.18546731 -144 81 C-133.60401278 48.56402067 -112.03793787 23.93049963 -82.0625 8.25 C-57.33047358 -3.66107627 -26.62966885 -7.9617583 0 0 Z " fill="#EF71AD" transform="translate(148,10)"/>
<path d="M0 0 C2.7732518 1.5918968 5.14611343 3.42329619 7.5859375 5.484375 C6.17749032 8.69961805 4.48248964 10.80621368 1.9609375 13.234375 C1.32929688 13.84796875 0.69765625 14.4615625 0.046875 15.09375 C-0.43523437 15.55265625 -0.91734375 16.0115625 -1.4140625 16.484375 C-2.1153125 16.195625 -2.8165625 15.906875 -3.5390625 15.609375 C-4.4878125 15.238125 -5.4365625 14.866875 -6.4140625 14.484375 C-7.6825 13.9275 -7.6825 13.9275 -8.9765625 13.359375 C-14.10120058 12.05492167 -19.1542053 12.33117528 -24.4140625 12.484375 C-18.95895403 18.94439249 -13.09834824 24.93113683 -7.10546875 30.890625 C-6.1287624 31.86546145 -5.15228016 32.84052249 -4.17601013 33.8157959 C-1.63178789 36.35623801 0.91542486 38.89366009 3.46331787 41.43041992 C6.07309632 44.02988627 8.67997232 46.63225994 11.28710938 49.234375 C16.38391622 54.32052418 21.48389258 59.4034797 26.5859375 64.484375 C29.95022238 62.9176343 31.62217155 61.37347408 33.97265625 58.49609375 C40.31731194 52.06662819 47.78855434 52.39701585 56.36572266 52.21069336 C67.61264578 52.57868095 74.1325772 57.7607314 81.7227478 65.67074585 C85.01656712 69.22595645 88.25841972 72.82450899 91.32911682 76.57525635 C93.74215727 79.50767638 96.20911962 82.0912427 99.1144104 84.54260254 C104.33014809 89.06250819 109.17276612 93.93866542 114.04101562 98.82592773 C115.06659806 99.85179284 116.09240192 100.87743661 117.1184082 101.90287781 C119.88041962 104.66460437 122.63935452 107.42938538 125.39771461 110.19475818 C128.28933822 113.09266742 131.18382705 115.98771205 134.07800293 118.8830719 C139.54797351 124.35614051 145.01539173 129.83175138 150.48187971 135.30829817 C156.70970361 141.54733085 162.94039476 147.78349678 169.17131901 154.0194329 C181.97936708 166.83791073 194.78384052 179.65995382 207.5859375 192.484375 C208.70797047 191.52796574 209.82924983 190.57067232 210.95021057 189.61300659 C211.57470376 189.08000883 212.19919695 188.54701107 212.84261417 187.99786186 C214.82495269 186.27687112 216.7028523 184.48146981 218.55078125 182.6171875 C219.20498047 181.95976562 219.85917969 181.30234375 220.53320312 180.625 C221.18998047 179.95984375 221.84675781 179.2946875 222.5234375 178.609375 C223.54920898 177.57683594 223.54920898 177.57683594 224.59570312 176.5234375 C226.26145214 174.84603989 227.9247997 173.16633709 229.5859375 171.484375 C230.30040039 172.09708252 230.30040039 172.09708252 231.02929688 172.72216797 C231.65642578 173.25986816 232.28355469 173.79756836 232.9296875 174.3515625 C233.55037109 174.88378418 234.17105469 175.41600586 234.81054688 175.96435547 C236.23314389 177.18232701 237.65900662 178.39648375 239.0859375 179.609375 C240.5859375 181.484375 240.5859375 181.484375 240.51391602 183.24902344 C239.14945366 186.53579465 236.74969043 188.68839958 234.23828125 191.125 C233.70699112 191.65204529 233.17570099 192.17909058 232.62831116 192.72210693 C230.93360925 194.40004687 229.22876533 196.06724228 227.5234375 197.734375 C226.37106005 198.87170245 225.21935898 200.00971566 224.06835938 201.1484375 C221.24866566 203.93509492 218.41983162 206.71216292 215.5859375 209.484375 C219.95623116 214.71386244 224.55505554 219.58727455 229.390625 224.38671875 C230.1146048 225.1092836 230.83858459 225.83184845 231.58450317 226.5763092 C233.87429015 228.86054422 236.16754743 231.14125812 238.4609375 233.421875 C240.02366911 234.97958539 241.5861714 236.53752587 243.1484375 238.09570312 C246.9582906 241.89459102 250.77099129 245.69060213 254.5859375 249.484375 C255.69822722 248.5386319 256.80942373 247.591603 257.92016602 246.64404297 C258.53908218 246.11680634 259.15799835 245.5895697 259.79566956 245.0463562 C262.1422673 242.99898582 264.33871799 240.82770558 266.5234375 238.609375 C267.29558594 237.82820312 268.06773437 237.04703125 268.86328125 236.2421875 C269.43175781 235.66210938 270.00023437 235.08203125 270.5859375 234.484375 C272.93637336 236.46507937 275.26416554 238.47018822 277.5859375 240.484375 C278.4109375 241.185625 279.2359375 241.886875 280.0859375 242.609375 C281.5859375 244.484375 281.5859375 244.484375 281.38008595 246.37651348 C280.43317933 248.88983203 279.27102915 250.18191006 277.37956238 252.0851593 C276.69400772 252.78206375 276.00845306 253.4789682 275.30212402 254.19699097 C274.54524292 254.95094147 273.78836182 255.70489197 273.00854492 256.48168945 C271.81827446 257.68466423 271.81827446 257.68466423 270.60395813 258.91194153 C267.97425641 261.56507601 265.33346235 264.20682808 262.69140625 266.84765625 C260.86366012 268.6824988 259.03621545 270.51764169 257.20906067 272.35307312 C253.37657405 276.19901811 249.53827974 280.03904142 245.69604492 283.87524414 C241.25141577 288.31322397 236.82177317 292.76577597 232.39903754 297.22556525 C228.14549738 301.51344619 223.87824627 305.78739519 219.60543251 310.05608177 C217.7877268 311.87548631 215.97402665 313.69890151 214.16435814 315.52630043 C211.63843378 318.07424131 209.09728652 320.60594568 206.55151367 323.1340332 C205.42530106 324.28014069 205.42530106 324.28014069 204.27633667 325.44940186 C203.58232254 326.13220718 202.88830841 326.81501251 202.17326355 327.51850891 C201.57355334 328.11893163 200.97384314 328.71935434 200.35595989 329.33797169 C198.5859375 330.484375 198.5859375 330.484375 196.50919056 330.29889202 C193.6606189 329.09249326 191.96303262 327.14281255 189.8359375 324.921875 C188.63710938 323.68244141 188.63710938 323.68244141 187.4140625 322.41796875 C186.81078125 321.77988281 186.2075 321.14179688 185.5859375 320.484375 C190.28360725 314.82308069 195.33317122 309.63208596 200.5859375 304.484375 C196.21564384 299.25488756 191.61681946 294.38147545 186.78125 289.58203125 C186.0572702 288.8594664 185.33329041 288.13690155 184.58737183 287.3924408 C182.29758485 285.10820578 180.00432757 282.82749188 177.7109375 280.546875 C176.14820589 278.98916461 174.5857036 277.43122413 173.0234375 275.87304688 C169.2135844 272.07415898 165.40088371 268.27814787 161.5859375 264.484375 C157.49222883 267.9143107 153.5736451 271.38860444 149.88671875 275.26171875 C148.66178711 276.52532227 148.66178711 276.52532227 147.41210938 277.81445312 C145.71700471 279.57277848 144.02964589 281.33859994 142.34960938 283.11132812 C141.53685547 283.94470703 140.72410156 284.77808594 139.88671875 285.63671875 C139.15622314 286.39976318 138.42572754 287.16280762 137.6730957 287.94897461 C135.5859375 289.484375 135.5859375 289.484375 133.46459961 289.35400391 C130.68513976 288.06739754 128.94431987 286.12327424 126.8359375 283.921875 C125.63710938 282.68244141 125.63710938 282.68244141 124.4140625 281.41796875 C123.81078125 280.77988281 123.2075 280.14179688 122.5859375 279.484375 C126.97036276 274.23262574 131.59435843 269.35215027 136.4609375 264.546875 C137.14929688 263.86302734 137.83765625 263.17917969 138.546875 262.47460938 C140.22427391 260.80885907 141.90442696 259.14597139 143.5859375 257.484375 C138.47096682 251.29461663 132.88308181 245.65301246 127.19360352 239.99438477 C126.1496788 238.95238252 125.10598396 237.91014993 124.0625 236.8677063 C121.82628391 234.63463583 119.58852758 232.40312482 117.34955025 230.17282295 C113.80325108 226.64012252 110.2608374 223.10354281 106.71897888 219.56639099 C98.56012452 211.41954661 90.39625879 203.27773014 82.23233032 195.13597107 C74.74849959 187.6723624 67.26575278 180.20767543 59.78706115 172.73891681 C56.27215311 169.22896616 52.75482738 165.72146253 49.23557866 162.2158643 C47.03975669 160.02754672 44.846049 157.83711879 42.65288544 155.64613724 C41.6424138 154.63752405 40.63108503 153.62976866 39.61879539 152.62298012 C34.55367998 147.58450571 29.60090081 142.52210278 24.98624992 137.06459904 C23.17439746 135.01996045 21.17111853 133.42329935 18.96484375 131.8203125 C11.18643618 125.60898338 5.47553518 120.2112572 4.06640625 109.9921875 C3.87531461 107.3183797 3.82901583 104.66433287 3.8359375 101.984375 C3.82119385 100.70868652 3.8064502 99.43299805 3.79125977 98.11865234 C4.15472637 90.80622143 5.47671936 86.82995759 10.6953125 81.578125 C12.29612894 80.17917768 13.91706028 78.80138514 15.5859375 77.484375 C14.03840773 73.79755635 11.79970348 71.4504577 8.984375 68.63989258 C8.51912415 68.17274338 8.05387329 67.70559418 7.57452393 67.22428894 C6.04149889 65.687571 4.50141345 64.1581521 2.9609375 62.62890625 C1.89205066 61.56121195 0.82353369 60.49314725 -0.24462891 59.42472839 C-2.48096906 57.18995043 -4.72062346 54.95856708 -6.96289062 52.72973633 C-9.8398242 49.86982301 -12.71010016 47.00334009 -15.57815552 44.13452625 C-17.78255976 41.93039359 -19.98955792 39.72887416 -22.19744873 37.52823448 C-23.25701858 36.47185046 -24.31598063 35.41485646 -25.37432861 34.35724831 C-26.85122002 32.8825196 -28.33135389 31.41112765 -29.8125 29.94067383 C-30.65474121 29.10224442 -31.49698242 28.263815 -32.36474609 27.39997864 C-34.26814104 25.43897201 -34.26814104 25.43897201 -36.4140625 24.484375 C-36.82884134 31.39735566 -37.05836247 36.8284801 -33.19140625 42.765625 C-32.4140625 44.484375 -32.4140625 44.484375 -32.546875 46.4375 C-33.68580698 49.12578991 -35.26749844 50.6993034 -37.3515625 52.734375 C-38.06183594 53.44078125 -38.77210938 54.1471875 -39.50390625 54.875 C-41.4140625 56.484375 -41.4140625 56.484375 -43.4140625 56.484375 C-50.70420253 47.71183881 -53.08333807 39.63098134 -52.82421875 28.30859375 C-51.81612347 18.90930539 -47.57182004 10.67486801 -40.4140625 4.484375 C-27.76826584 -4.50819151 -14.39095257 -6.53034822 0 0 Z " fill="#1E1D1F" transform="translate(230.4140625,174.515625)"/>
<path d="M0 0 C0.68497559 0.19335938 1.36995117 0.38671875 2.07568359 0.5859375 C24.27988927 6.92301096 42.17834855 18.21404925 58 35 C60.91699767 33.69519244 62.79939947 32.35928334 64.9375 30 C85.50071545 9.00112321 114.95503061 -2.9342485 144.16479492 -3.24169922 C166.99224726 -3.29110614 166.99224726 -3.29110614 178 0 C178.68497559 0.19335938 179.36995117 0.38671875 180.07568359 0.5859375 C207.25101066 8.34176747 233.24908215 25.36521841 248 50 C248.65226562 51.05445313 249.30453125 52.10890625 249.9765625 53.1953125 C264.52616208 77.24432209 271.52047674 107.34672388 264.97460938 135.1027832 C257.79022314 162.67972753 241.68478624 187.03271529 224 209 C223.23115479 209.96389648 223.23115479 209.96389648 222.44677734 210.94726562 C215.22202902 219.98300047 207.71941618 228.64789238 199.71020508 236.99926758 C198.80757935 237.94129028 198.80757935 237.94129028 197.88671875 238.90234375 C197.35264404 239.45398193 196.81856934 240.00562012 196.26831055 240.57397461 C194.89457338 241.99397788 194.89457338 241.99397788 194 244 C190.67002318 242.56759312 188.6007104 240.81763476 186.1875 238.125 C185.56230469 237.44695312 184.93710937 236.76890625 184.29296875 236.0703125 C183 234 183 234 183.10546875 231.9453125 C184.14692048 229.68049608 185.29576761 228.43978418 187.125 226.75 C191.00608384 223.02604506 194.50733108 219.08731118 198 215 C198.81339844 214.06414062 199.62679688 213.12828125 200.46484375 212.1640625 C219.76981086 189.82263637 237.4391643 165.17574902 247 137 C247.39167358 135.93712769 247.39167358 135.93712769 247.79125977 134.8527832 C250.18866951 127.83063329 250.41903056 121.31367626 250.3125 113.9375 C250.31572266 112.81794922 250.31894531 111.69839844 250.32226562 110.54492188 C250.28059908 104.08660712 249.705456 98.22584434 248 92 C247.66548828 90.58267578 247.66548828 90.58267578 247.32421875 89.13671875 C242.53277566 70.70583032 233.47684481 55.30431052 220 42 C219.18660156 41.18789063 218.37320312 40.37578125 217.53515625 39.5390625 C208.39448072 30.85764295 197.62309752 24.74481808 186 20 C184.72962891 19.46246094 184.72962891 19.46246094 183.43359375 18.9140625 C170.24836123 13.68712979 157.02777094 12.42391084 143 13 C141.88882812 13.0309375 140.77765625 13.061875 139.6328125 13.09375 C114.54378723 14.3205972 90.33425533 27.01366142 72.9296875 44.79296875 C69.6821832 48.50721962 66.69277754 52.43298596 63.73071289 56.37744141 C62.53118323 57.95282228 61.27030476 59.48111156 60 61 C59.34 61 58.68 61 58 61 C56.58984375 59.3828125 56.58984375 59.3828125 54.9375 57.125 C50.91186416 51.80212184 46.53332821 46.8927272 42 42 C41.45988281 41.38253906 40.91976562 40.76507813 40.36328125 40.12890625 C29.08166247 27.82426914 11.75332737 20.27563167 -4 16 C-4.93457031 15.69964844 -5.86914062 15.39929688 -6.83203125 15.08984375 C-30.47331659 8.28545774 -57.66865353 13.48416441 -79 25 C-102.53125377 38.76409461 -120.89495924 59.68123164 -128.21484375 86.25390625 C-129.23133086 90.15175348 -130.1424755 94.06418241 -131 98 C-131.29003906 99.17949219 -131.29003906 99.17949219 -131.5859375 100.3828125 C-136.27317317 130.00967949 -122.15273826 158.18337196 -105.4375 181.66015625 C-104.62622031 182.77432708 -103.81365435 183.88756214 -103 185 C-102.54753906 185.62374512 -102.09507813 186.24749023 -101.62890625 186.89013672 C-94.96703146 196.04570109 -87.96384269 204.81364833 -80.48364258 213.31298828 C-79.42518599 214.51653198 -78.37077156 215.72363556 -77.3190918 216.93310547 C-67.18858469 228.57610977 -56.45870626 239.63857735 -45.5625 250.5625 C-44.63945068 251.4901416 -43.71640137 252.4177832 -42.76538086 253.37353516 C-37.66938756 258.45800427 -32.46254428 263.31466862 -27 268 C-25.16130852 269.6607536 -23.3273443 271.32676908 -21.5 273 C-17.04687251 277.05715856 -12.56054465 281.0641875 -8 285 C-7.49597656 285.43570312 -6.99195313 285.87140625 -6.47265625 286.3203125 C1.25874614 292.99824435 9.06521256 299.56412221 17 306 C18.22575053 307.00721634 19.45097692 308.01507076 20.67578125 309.0234375 C28.14245149 315.15430616 35.68911214 321.13770784 43.46679688 326.87084961 C47.84326844 330.09800553 52.0448283 333.46361466 56.10546875 337.0859375 C58.02388059 338.25666614 58.02388059 338.25666614 60.3671875 337.44140625 C63.48345461 335.73531936 66.14588366 333.76270203 68.9375 331.5625 C69.49526123 331.12583008 70.05302246 330.68916016 70.62768555 330.23925781 C72.42296589 328.83180198 74.21163471 327.41622821 76 326 C77.83503268 324.55526503 79.6712763 323.11207907 81.50756836 321.66894531 C82.70165763 320.73021315 83.89518902 319.79077087 85.08813477 318.85058594 C89.34378591 315.50017405 93.64594505 312.22200066 98 309 C105.98541477 315.5633546 105.98541477 315.5633546 108 319 C108 322 108 322 106.67749023 323.34350586 C106.06075439 323.79604736 105.44401855 324.24858887 104.80859375 324.71484375 C104.11878418 325.22998535 103.42897461 325.74512695 102.71826172 326.27587891 C101.58928467 327.09838135 101.58928467 327.09838135 100.4375 327.9375 C98.86471842 329.10911212 97.29312556 330.28232149 95.72265625 331.45703125 C94.92746582 332.0495166 94.13227539 332.64200195 93.31298828 333.25244141 C89.93874201 335.80182444 86.65774842 338.45960689 83.375 341.125 C80.92366914 343.09222661 78.46432289 345.04907771 76 347 C75.33097656 347.53028809 74.66195312 348.06057617 73.97265625 348.60693359 C71.95331889 350.19348764 69.9174897 351.75591102 67.875 353.3125 C67.25931152 353.79928223 66.64362305 354.28606445 66.00927734 354.78759766 C63.54805546 356.63402413 61.68680046 357.95362441 58.5703125 358.1640625 C54.60267078 356.36716701 51.39291075 353.76784882 48 351.0625 C47.2474292 350.4742041 46.4948584 349.8859082 45.71948242 349.27978516 C44.19107156 348.08487818 42.66524632 346.88665618 41.14208984 345.68505859 C38.22019403 343.38657159 35.26684012 341.13163618 32.3125 338.875 C30.20686325 337.25185038 28.10236539 335.62736999 26 334 C25.43716309 333.56478027 24.87432617 333.12956055 24.29443359 332.68115234 C16.73824752 326.82705669 9.34673631 320.82043402 2.078125 314.61328125 C-0.7270732 312.22117731 -3.57463157 309.88544149 -6.4375 307.5625 C-16.44296967 299.40128962 -26.17365344 290.9662054 -35.61035156 282.15405273 C-38.20140009 279.7371896 -40.8128874 277.34388939 -43.4312439 274.956604 C-50.80877771 268.20933526 -57.92953226 261.22470417 -64.98632812 254.14404297 C-66.89078505 252.23417006 -68.80060819 250.32977851 -70.7109375 248.42578125 C-76.68740324 242.4529053 -82.55238901 236.46583895 -88 230 C-89.05613665 228.79601727 -90.11474757 227.59420061 -91.17578125 226.39453125 C-97.65169159 219.01675726 -103.89136093 211.53491851 -109.75537109 203.66113281 C-111.04735189 201.93680223 -112.36054273 200.23007662 -113.67578125 198.5234375 C-121.04024384 188.86060367 -127.1980864 178.66571244 -133 168 C-133.58273682 166.92951416 -133.58273682 166.92951416 -134.17724609 165.83740234 C-148.40474452 139.36865144 -152.7709452 110.18546731 -144 81 C-133.60401278 48.56402067 -112.03793787 23.93049963 -82.0625 8.25 C-57.33047358 -3.66107627 -26.62966885 -7.9617583 0 0 Z " fill="#1E1D1F" transform="translate(148,10)"/>
<path d="M0 0 C-3.03365688 2.44417853 -6.10417883 4.09642172 -9.625 5.75 C-15.53448641 8.66534663 -20.76254199 12.01462179 -26 16 C-26.9075 16.67933594 -27.815 17.35867187 -28.75 18.05859375 C-35.53063033 23.34183488 -40.85167214 29.13556286 -46 36 C-46.90685547 37.16789062 -46.90685547 37.16789062 -47.83203125 38.359375 C-64.11192325 60.26189335 -70.4555866 87.00268709 -68 114 C-65.13306051 133.18451397 -55.91907186 152.97582738 -44.203125 168.359375 C-43 170 -43 170 -43 172 C-40.36 170.02 -37.72 168.04 -35 166 C-31.60158512 167.69920744 -30.48974721 168.26584897 -28.2578125 170.94921875 C-27.75733398 171.54138184 -27.25685547 172.13354492 -26.74121094 172.74365234 C-26.20786133 173.38512207 -25.67451172 174.0265918 -25.125 174.6875 C-23.94742124 176.07080831 -22.76767188 177.45227131 -21.5859375 178.83203125 C-20.68439941 179.88511475 -20.68439941 179.88511475 -19.76464844 180.95947266 C-10.70948609 191.43028712 -0.89453641 201.20309894 8.875 211 C9.68523621 211.81425446 9.68523621 211.81425446 10.51184082 212.6449585 C15.9494806 218.10305296 21.4001438 223.49633496 27.26074219 228.50585938 C29.97805293 230.84021391 32.57391398 233.30101964 35.1875 235.75 C41.07569567 241.22364325 47.14613274 246.44314198 53.31787109 251.59277344 C56.32763492 254.11066585 59.31874227 256.65061931 62.3125 259.1875 C63.4126837 260.11858024 64.51293669 261.04957862 65.61328125 261.98046875 C66.40089844 262.64691406 67.18851563 263.31335938 68 264 C66.74833586 267.51802689 65.37397315 270.04189933 62.875 272.8125 C62.33617187 273.41707031 61.79734375 274.02164062 61.2421875 274.64453125 C60.83226562 275.09183594 60.42234375 275.53914063 60 276 C44.16431221 268.9012434 29.58719628 251.78059685 17 240 C21.0285499 244.98268014 25.35055417 249.23578309 30.15234375 253.47265625 C33.35229252 256.31266566 36.49009917 259.21369735 39.625 262.125 C43.71535551 265.91415983 47.83520248 269.65507557 52.0546875 273.30078125 C54.3366529 275.29406428 56.57228574 277.33493027 58.8125 279.375 C63.12774576 283.26924618 67.57091755 286.96654724 72.08984375 290.62109375 C74.67008882 292.73031422 77.21136707 294.87500249 79.74316406 297.04150391 C87.9155658 304.03279552 96.39609504 310.54707128 105 317 C100.38 320.3 95.76 323.6 91 327 C88.17044017 325.58522008 86.05880394 324.41834792 83.6015625 322.56640625 C82.96436279 322.08792236 82.32716309 321.60943848 81.6706543 321.11645508 C80.65805542 320.34724731 80.65805542 320.34724731 79.625 319.5625 C78.56696167 318.76332153 78.56696167 318.76332153 77.48754883 317.94799805 C63.96293664 307.69960004 50.7555216 297.08021982 37.83349609 286.08154297 C34.45149874 283.20799624 31.02527544 280.40132216 27.5625 277.625 C21.87364633 273.00072714 16.55772025 268.01350596 11.21484375 263 C8.25651146 260.22693701 5.23040081 257.54590711 2.16210938 254.89526367 C-6.44696908 247.34871037 -14.69857824 239.46528752 -22.7746582 231.35571289 C-24.32584727 229.79910611 -25.88239392 228.24799829 -27.43945312 226.69726562 C-32.3058665 221.83408533 -37.07388056 216.9279038 -41.54858398 211.6965332 C-43.59600752 209.30333789 -45.73806047 207.00071905 -47.875 204.6875 C-75.60196284 174.17118804 -103.7277033 136.66426626 -102.17919922 93.65283203 C-100.41032958 67.46681363 -86.50444696 43.43082941 -67.6875 25.75 C-49.67113517 10.61754968 -24.2285509 -2.55336017 0 0 Z " fill="#FC3F61" transform="translate(117,22)"/>
<path d="M0 0 C9.97810438 4.46246578 17.84857842 14.59863144 25.16143799 22.48736572 C27.78322177 25.29501766 30.45828493 28.05091699 33.12896729 30.81195068 C38.3392424 36.21390333 43.48850998 41.66932841 48.60162354 47.16351318 C48.15689697 47.62241943 47.71217041 48.08132568 47.25396729 48.55413818 C46.68806885 49.16773193 46.12217041 49.78132568 45.53912354 50.41351318 C44.97064697 51.01679443 44.40217041 51.62007568 43.81646729 52.24163818 C42.37410952 54.08589859 42.37410952 54.08589859 42.81622314 56.277771 C43.83554395 58.72515486 45.2438159 60.09794961 47.16412354 61.91351318 C47.8047876 62.52710693 48.44545166 63.14070068 49.10552979 63.77288818 C49.84609619 64.46124756 49.84609619 64.46124756 50.60162354 65.16351318 C53.92922277 63.61156564 56.08742839 61.8572937 58.60162354 59.16351318 C61.86028714 60.58997099 64.00410893 62.3305548 66.49224854 64.85882568 C67.20123291 65.57425537 67.91021729 66.28968506 68.64068604 67.02679443 C69.37029541 67.77316162 70.09990479 68.51952881 70.85162354 69.28851318 C71.59670166 70.04261475 72.34177979 70.79671631 73.10943604 71.57366943 C74.94475774 73.4325209 76.77524263 75.29588323 78.60162354 77.16351318 C77.16903582 80.4354777 75.41337037 82.59555275 72.8862915 85.105896 C72.12565399 85.86638245 71.36501648 86.6268689 70.58132935 87.41040039 C69.7604483 88.22095886 68.93956726 89.03151733 68.09381104 89.86663818 C67.25319122 90.7044281 66.41257141 91.54221802 65.54647827 92.40539551 C62.86118353 95.07949749 60.16901698 97.74656043 57.47662354 100.41351318 C55.65455198 102.2255538 53.83293176 104.03804837 52.01177979 105.85101318 C47.54695102 110.29379354 43.0764607 114.73081484 38.60162354 119.16351318 C35.71714625 117.8502325 33.59379859 116.42663316 31.3112793 114.23480225 C30.68313324 113.6354184 30.05498718 113.03603455 29.4078064 112.41848755 C28.73023285 111.76200226 28.0526593 111.10551697 27.35455322 110.42913818 C26.6322049 109.73599518 25.90985657 109.04285217 25.1656189 108.32870483 C18.51034626 101.92549441 11.91115774 95.46380559 5.3278923 88.98666382 C0.90981115 84.64003849 -3.52392972 80.31275475 -8.00189209 76.027771 C-12.33922413 71.87677974 -16.63011745 67.68260319 -20.89266205 63.45489502 C-22.5183028 61.85732474 -24.15936219 60.27527867 -25.81613922 58.71002197 C-40.08978056 45.18718116 -40.08978056 45.18718116 -40.70663071 35.85508728 C-40.64835644 27.60718812 -38.75093063 22.61463917 -33.17645264 16.35321045 C-32.70441406 15.92322754 -32.23237549 15.49324463 -31.74603271 15.05023193 C-29.57972796 13.03739836 -27.52449128 10.98216168 -25.51165771 8.81585693 C-18.49356783 1.66944793 -10.13106788 -2.70140037 0 0 Z " fill="#FDB555" transform="translate(290.39837646484375,242.83648681640625)"/>
<path d="M0 0 C5.28 0 10.56 0 16 0 C15.11557854 33.90282247 1.53218332 64.65893087 -18 92 C-18.5367334 92.75313477 -19.0734668 93.50626953 -19.62646484 94.28222656 C-27.00255988 104.57668057 -34.68941213 114.44620224 -43 124 C-44.67603223 125.99241723 -46.33872746 127.99522012 -48 130 C-51.16168368 128.56869725 -53.62274483 126.82485862 -56.25 124.5625 C-57.30960937 123.66724609 -57.30960937 123.66724609 -58.390625 122.75390625 C-60 121 -60 121 -60 118 C-58.18010503 115.75082747 -56.32716477 113.62922998 -54.375 111.5 C-37.69144788 92.73993448 -23.65584147 71.72749404 -13 49 C-12.51917969 48.01644531 -12.03835938 47.03289062 -11.54296875 46.01953125 C-4.49429771 31.26204174 -1.88967689 16.06225354 0 0 Z " fill="#1D1D1F" transform="translate(429,125)"/>
<path d="M0 0 C15.40549892 9.81132334 25.65699237 27.52982241 30 45 C32.44379504 58.57296975 32.45058522 73.23005747 27 86 C26.6292334 86.91749023 26.6292334 86.91749023 26.25097656 87.85351562 C18.88490989 105.90707539 7.15805506 121.8821188 -5 137 C-5.75023437 137.9384375 -6.50046875 138.876875 -7.2734375 139.84375 C-7.84320313 140.5553125 -8.41296875 141.266875 -9 142 C-13.98012761 140.49087042 -17.24259942 137.44338151 -21 134 C-19.51002916 129.31973866 -16.7464924 126.05693768 -13.625 122.375 C-0.43626805 106.30048038 15.4626582 84.41412121 15.3125 62.875 C15.30686035 62.03187256 15.3012207 61.18874512 15.29541016 60.32006836 C14.92483848 41.15490839 5.94884777 26.52136415 -7.49609375 13.43359375 C-7.99238281 12.96050781 -8.48867188 12.48742187 -9 12 C-6.53974941 7.48954059 -3.39717963 3.81495577 0 0 Z " fill="#FEFCFD" transform="translate(347,61)"/>
<path d="M0 0 C1.0209375 0.2784375 2.041875 0.556875 3.09375 0.84375 C3.09375 3.84375 3.09375 3.84375 1.48901367 5.72558594 C0.75400635 6.41942383 0.01899902 7.11326172 -0.73828125 7.828125 C-1.53685547 8.59898437 -2.33542969 9.36984375 -3.15820312 10.1640625 C-4.85126781 11.77060137 -6.54654632 13.37481072 -8.24414062 14.9765625 C-12.86294978 19.44326629 -15.7109093 22.82881314 -17.90625 28.84375 C-20.03199437 31.42468589 -22.45503842 33.57753552 -24.90625 35.84375 C-21.26076705 40.3028442 -17.38330219 44.43996337 -13.2890625 48.48828125 C-12.78413269 48.98770233 -12.27920288 49.48712341 -11.75897217 50.00167847 C-9.64426755 52.08863334 -7.52588793 54.17177485 -5.40332031 56.25073242 C-3.84008669 57.78394023 -2.28298882 59.32316805 -0.7265625 60.86328125 C0.19882324 61.77182861 1.12420898 62.68037598 2.07763672 63.61645508 C4.09375 65.84375 4.09375 65.84375 4.09375 67.84375 C4.96 68.215 4.96 68.215 5.84375 68.59375 C8.42314979 70.02674988 10.15496592 71.62799676 12.09375 73.84375 C12.09375 74.50375 12.09375 75.16375 12.09375 75.84375 C12.63 76.05 13.16625 76.25625 13.71875 76.46875 C17.01353009 78.37625426 19.68738628 80.89194384 22.09375 83.84375 C22.09375 84.50375 22.09375 85.16375 22.09375 85.84375 C22.65690918 86.0809375 23.22006836 86.318125 23.80029297 86.5625 C26.61396843 88.13437235 28.52466282 90.04986005 30.7890625 92.34375 C32.10970703 93.6740625 32.10970703 93.6740625 33.45703125 95.03125 C34.36839844 95.959375 35.27976562 96.8875 36.21875 97.84375 C37.13785156 98.771875 38.05695313 99.7 39.00390625 100.65625 C41.37134809 103.04802677 43.73292307 105.44544963 46.09375 107.84375 C46.75375 108.50375 47.41375 109.16375 48.09375 109.84375 C45.12375 112.81375 42.15375 115.78375 39.09375 118.84375 C35.88133265 117.23754132 34.26448964 116.2783399 31.80340576 113.91503906 C31.1752597 113.31565521 30.54711365 112.71627136 29.89993286 112.09872437 C29.22235931 111.44223907 28.54478577 110.78575378 27.84667969 110.109375 C27.12433136 109.41623199 26.40198303 108.72308899 25.65774536 108.00894165 C19.00247272 101.60573123 12.40328421 95.1440424 5.82001877 88.66690063 C1.40193761 84.32027531 -3.03180326 79.99299157 -7.50976562 75.70800781 C-11.84709767 71.55701655 -16.13799098 67.36284001 -20.40053558 63.13513184 C-22.02617633 61.53756156 -23.66723573 59.95551548 -25.32401276 58.39025879 C-39.59765409 44.86741798 -39.59765409 44.86741798 -40.21450424 35.5353241 C-40.15613762 27.27435307 -38.23911729 22.32699588 -32.70080566 16.03015137 C-32.23299683 15.59932251 -31.76518799 15.16849365 -31.28320312 14.72460938 C-30.75218994 14.22985107 -30.22117676 13.73509277 -29.67407227 13.2253418 C-29.13194092 12.7281665 -28.58980957 12.23099121 -28.03125 11.71875 C-27.49201904 11.19547119 -26.95278809 10.67219238 -26.3972168 10.13305664 C-18.38289642 2.39768182 -11.48121345 -2.08383622 0 0 Z " fill="#FB7956" transform="translate(289.90625,243.15625)"/>
<path d="M0 0 C4.49870015 1.60360364 6.92104808 5.1347258 9.875 8.6875 C11.05257876 10.07080831 12.23232812 11.45227131 13.4140625 12.83203125 C14.31560059 13.88511475 14.31560059 13.88511475 15.23535156 14.95947266 C24.29051391 25.43028712 34.10546359 35.20309894 43.875 45 C44.68523621 45.81425446 44.68523621 45.81425446 45.51184082 46.6449585 C50.9494806 52.10305296 56.4001438 57.49633496 62.26074219 62.50585938 C64.97805293 64.84021391 67.57391398 67.30101964 70.1875 69.75 C76.07569567 75.22364325 82.14613274 80.44314198 88.31787109 85.59277344 C91.32763492 88.11066585 94.31874227 90.65061931 97.3125 93.1875 C98.4126837 94.11858024 99.51293669 95.04957862 100.61328125 95.98046875 C101.40089844 96.64691406 102.18851562 97.31335938 103 98 C101.74833586 101.51802689 100.37397315 104.04189933 97.875 106.8125 C97.33617187 107.41707031 96.79734375 108.02164063 96.2421875 108.64453125 C95.62730469 109.31548828 95.62730469 109.31548828 95 110 C89.2691906 107.43101648 84.75272913 103.02422902 80 99 C79.42781738 98.51563477 78.85563477 98.03126953 78.26611328 97.53222656 C70.48030827 90.91439829 62.87804146 84.1262662 55.45019531 77.10864258 C52.19143029 74.03076584 48.89133611 71.0179893 45.53125 68.05078125 C38.91408879 62.11296268 32.66096249 55.81069082 26.38549805 49.51586914 C24.30955574 47.43454811 22.22829578 45.35865187 20.14648438 43.28320312 C18.80176248 41.93782062 17.45735071 40.59212806 16.11328125 39.24609375 C15.19739983 38.33324867 15.19739983 38.33324867 14.26301575 37.40196228 C9.97987812 33.09585719 5.95322962 28.6095444 2 24 C1.41922699 23.32553329 0.83845398 22.65106659 0.24008179 21.9561615 C-1.32238569 20.14022064 -2.88055079 18.32067335 -4.4375 16.5 C-4.97826172 15.86835938 -5.51902344 15.23671875 -6.07617188 14.5859375 C-7.38450172 13.05762299 -8.69230863 11.52886085 -10 10 C-8.5741914 6.54804233 -6.90253666 4.8985744 -3.875 2.75 C-3.15054688 2.22921875 -2.42609375 1.7084375 -1.6796875 1.171875 C-1.12539062 0.78515625 -0.57109375 0.3984375 0 0 Z " fill="#201E20" transform="translate(82,188)"/>
<path d="M0 0 C5.39190397 4.4978935 10.39391684 9.26126542 15.33984375 14.2421875 C16.10680069 15.01055939 16.87375763 15.77893127 17.66395569 16.57058716 C20.0908474 19.00303509 22.51422127 21.43895322 24.9375 23.875 C26.59156486 25.53408552 28.24585945 27.19294202 29.90039062 28.8515625 C33.93625433 32.89839709 37.96924277 36.94807953 42 41 C38.16439367 45.58664344 34.19361444 49.94654556 29.9453125 54.15234375 C29.39890106 54.69734024 28.85248962 55.24233673 28.28952026 55.80384827 C26.57037942 57.51746118 24.84776796 59.22753444 23.125 60.9375 C21.94768362 62.10979204 20.77059826 63.28231614 19.59375 64.45507812 C16.73182511 67.30606982 13.86678543 70.15389615 11 73 C5.60809603 68.5021065 0.60608316 63.73873458 -4.33984375 58.7578125 C-5.10680069 57.98944061 -5.87375763 57.22106873 -6.66395569 56.42941284 C-9.0908474 53.99696491 -11.51422127 51.56104678 -13.9375 49.125 C-15.59156486 47.46591448 -17.24585945 45.80705798 -18.90039062 44.1484375 C-22.93625433 40.10160291 -26.96924277 36.05192047 -31 32 C-30.11032656 30.91160226 -29.21288426 29.82955392 -28.3125 28.75 C-27.81363281 28.14671875 -27.31476563 27.5434375 -26.80078125 26.921875 C-25 25 -25 25 -20 21 C-10.43 30.57 -0.86 40.14 9 50 C12.31726504 48.34136748 13.82103117 47.4143765 16.25 44.875 C17.1575 43.92625 18.065 42.9775 19 42 C17.34763349 37.70932454 14.1094793 34.8570447 10.8984375 31.703125 C10.30197418 31.10949158 9.70551086 30.51585815 9.0909729 29.90423584 C7.1903019 28.01473373 5.28278526 26.13231608 3.375 24.25 C2.08287532 22.96790935 0.79120324 21.68536239 -0.5 20.40234375 C-3.66144479 17.26291568 -6.8290461 14.12982199 -10 11 C-9.05052441 9.88322508 -8.09975103 8.76755346 -7.1484375 7.65234375 C-6.61911621 7.03093506 -6.08979492 6.40952637 -5.54443359 5.76928711 C-3.78334607 3.7518035 -1.93011408 1.85587892 0 0 Z " fill="#AED3EF" transform="translate(433,395)"/>
<path d="M0 0 C3.67056937 1.47797262 5.41085783 3.47615477 7.75 6.625 C8.67039062 7.85089844 8.67039062 7.85089844 9.609375 9.1015625 C10.29773438 10.04128906 10.29773438 10.04128906 11 11 C9.4923068 14.85489738 7.33174453 16.4965046 4 18.875 C2.90998449 19.66463616 1.82154349 20.45644865 0.734375 21.25 C0.13818359 21.68441406 -0.45800781 22.11882812 -1.07226562 22.56640625 C-3.91535752 24.6807218 -6.68808164 26.88138538 -9.46923828 29.07617188 C-18.39392591 36.11503919 -27.54786533 42.68999184 -37 49 C-40.68646141 47.54144353 -42.16143971 45.69770955 -44.25 42.375 C-44.77078125 41.55773437 -45.2915625 40.74046875 -45.828125 39.8984375 C-46.21484375 39.27195312 -46.6015625 38.64546875 -47 38 C-45.62720144 34.76194828 -44.2384559 33.1479253 -41.359375 31.15234375 C-40.62549561 30.63518799 -39.89161621 30.11803223 -39.13549805 29.58520508 C-38.34828369 29.0414624 -37.56106934 28.49771973 -36.75 27.9375 C-35.10381106 26.77578294 -33.45929712 25.61168899 -31.81640625 24.4453125 C-30.99930176 23.86555664 -30.18219727 23.28580078 -29.34033203 22.68847656 C-26.05239812 20.3163348 -22.85979577 17.83631038 -19.6875 15.3125 C-19.13400879 14.87244629 -18.58051758 14.43239258 -18.01025391 13.97900391 C-16.90651083 13.10087175 -15.8029932 12.22245614 -14.69970703 11.34375 C-11.69766227 8.97040119 -8.66124698 6.64182974 -5.625 4.3125 C-4.7755481 3.66051636 -4.7755481 3.66051636 -3.90893555 2.99536133 C-2.60643664 1.99628198 -1.30329617 0.9980391 0 0 Z " fill="#1D1D1F" transform="translate(259,346)"/>
<path d="M0 0 C3.41059403 1.60535287 5.61792484 3.40518901 8.25 6.125 C8.95640625 6.84945313 9.6628125 7.57390625 10.390625 8.3203125 C10.92171875 8.87460937 11.4528125 9.42890625 12 10 C10.56741228 13.27196452 8.81174684 15.43203956 6.28466797 17.94238281 C5.52403046 18.70286926 4.76339294 19.46335571 3.97970581 20.24688721 C3.15882477 21.05744568 2.33794373 21.86800415 1.4921875 22.703125 C0.65156769 23.54091492 -0.18905212 24.37870483 -1.05514526 25.24188232 C-3.74044001 27.91598431 -6.43260655 30.58304724 -9.125 33.25 C-10.94707155 35.06204062 -12.76869177 36.87453518 -14.58984375 38.6875 C-19.05467252 43.13028036 -23.52516283 47.56730165 -28 52 C-31.41059403 50.39464713 -33.61792484 48.59481099 -36.25 45.875 C-36.95640625 45.15054688 -37.6628125 44.42609375 -38.390625 43.6796875 C-38.92171875 43.12539063 -39.4528125 42.57109375 -40 42 C-38.56741228 38.72803548 -36.81174684 36.56796044 -34.28466797 34.05761719 C-33.52403046 33.29713074 -32.76339294 32.53664429 -31.97970581 31.75311279 C-31.15882477 30.94255432 -30.33794373 30.13199585 -29.4921875 29.296875 C-28.65156769 28.45908508 -27.81094788 27.62129517 -26.94485474 26.75811768 C-24.25955999 24.08401569 -21.56739345 21.41695276 -18.875 18.75 C-17.05292845 16.93795938 -15.23130823 15.12546482 -13.41015625 13.3125 C-8.94532748 8.86971964 -4.47483717 4.43269835 0 0 Z " fill="#75737D" transform="translate(379,332)"/>
<path d="M0 0 C1.1055189 0.93590504 2.20935453 1.87379858 3.3125 2.8125 C3.92738281 3.33457031 4.54226563 3.85664063 5.17578125 4.39453125 C7.68631477 6.60401578 9.67195313 8.43149159 11.35791016 11.35327148 C12.95560055 13.92843675 14.58747217 15.83158036 16.73046875 17.9609375 C17.45169922 18.68023437 18.17292969 19.39953125 18.91601562 20.140625 C19.66560547 20.87796875 20.41519531 21.6153125 21.1875 22.375 C22.28288086 23.46941406 22.28288086 23.46941406 23.40039062 24.5859375 C27.52742005 28.68006766 31.74443245 32.61050417 36.16918945 36.38134766 C38.19132588 38.16915463 40.09142861 40.09142861 42 42 C38.7 45.3 35.4 48.6 32 52 C26.60809603 47.5021065 21.60608316 42.73873458 16.66015625 37.7578125 C15.89319931 36.98944061 15.12624237 36.22106873 14.33604431 35.42941284 C11.9091526 32.99696491 9.48577873 30.56104678 7.0625 28.125 C5.40843514 26.46591448 3.75414055 24.80705798 2.09960938 23.1484375 C-1.93625433 19.10160291 -5.96924277 15.05192047 -10 11 C-9.05052441 9.88322508 -8.09975103 8.76755346 -7.1484375 7.65234375 C-6.35445557 6.72023071 -6.35445557 6.72023071 -5.54443359 5.76928711 C-3.78334607 3.7518035 -1.93011408 1.85587892 0 0 Z " fill="#56A1FA" transform="translate(412,416)"/>
<path d="M0 0 C3.90851199 1.58431453 6.52367356 4.26635095 9.421875 7.2265625 C9.92672424 7.73424164 10.43157349 8.24192078 10.95172119 8.76498413 C12.55592096 10.38033842 14.15300856 12.00252209 15.75 13.625 C16.83938107 14.72441698 17.9292199 15.82338059 19.01953125 16.921875 C21.68501885 19.6093602 24.34415143 22.30299021 27 25 C23.5191826 29.1413833 19.98304674 33.13790851 16.125 36.9375 C15.34382813 37.70964844 14.56265625 38.48179687 13.7578125 39.27734375 C13.17773438 39.84582031 12.59765625 40.41429687 12 41 C6.00499003 36.03805145 0.53572963 30.6523376 -4.9375 25.125 C-5.81212891 24.24585938 -6.68675781 23.36671875 -7.58789062 22.4609375 C-9.72757048 20.3095654 -11.86486597 18.15588208 -14 16 C-12.71825282 13.18121988 -11.38992385 11.14758504 -9.1796875 8.984375 C-8.64472656 8.45585937 -8.10976563 7.92734375 -7.55859375 7.3828125 C-7.00300781 6.84398437 -6.44742187 6.30515625 -5.875 5.75 C-5.31167969 5.19570313 -4.74835938 4.64140625 -4.16796875 4.0703125 C-2.78313972 2.70895515 -1.39216796 1.35385141 0 0 Z " fill="#56A1FB" transform="translate(375,380)"/>
<path d="M0 0 C3.90851199 1.58431453 6.52367356 4.26635095 9.421875 7.2265625 C9.92672424 7.73424164 10.43157349 8.24192078 10.95172119 8.76498413 C12.55592096 10.38033842 14.15300856 12.00252209 15.75 13.625 C16.83938107 14.72441698 17.9292199 15.82338059 19.01953125 16.921875 C21.68501885 19.6093602 24.34415143 22.30299021 27 25 C23.5191826 29.1413833 19.98304674 33.13790851 16.125 36.9375 C15.34382813 37.70964844 14.56265625 38.48179687 13.7578125 39.27734375 C13.17773438 39.84582031 12.59765625 40.41429687 12 41 C6.00499003 36.03805145 0.53572963 30.6523376 -4.9375 25.125 C-5.81212891 24.24585938 -6.68675781 23.36671875 -7.58789062 22.4609375 C-9.72757048 20.3095654 -11.86486597 18.15588208 -14 16 C-12.71825282 13.18121988 -11.38992385 11.14758504 -9.1796875 8.984375 C-8.64472656 8.45585937 -8.10976563 7.92734375 -7.55859375 7.3828125 C-7.00300781 6.84398437 -6.44742187 6.30515625 -5.875 5.75 C-5.31167969 5.19570313 -4.74835938 4.64140625 -4.16796875 4.0703125 C-2.78313972 2.70895515 -1.39216796 1.35385141 0 0 Z " fill="#B0D4F0" transform="translate(401,354)"/>
<path d="M0 0 C-1.48886719 0.69222656 -1.48886719 0.69222656 -3.0078125 1.3984375 C-20.24011162 9.59605786 -35.78070495 20.28555693 -47 36 C-58.82758621 26.34482759 -58.82758621 26.34482759 -62 20 C-46.03209652 8.99711651 -20.07818982 -6.27742927 0 0 Z " fill="#FB3F62" transform="translate(295,23)"/>
<path d="M0 0 C2.80969467 1.28022875 4.8539238 2.60714129 7.02441406 4.79736328 C7.86483246 5.63800827 7.86483246 5.63800827 8.722229 6.49563599 C9.31404968 7.09777924 9.90587036 7.69992249 10.515625 8.3203125 C11.13145447 8.93897186 11.74728394 9.55763123 12.3817749 10.19503784 C14.34260336 12.16703814 16.29635301 14.14588737 18.25 16.125 C19.58026799 17.46530164 20.910992 18.80515083 22.2421875 20.14453125 C25.5001015 23.42446589 28.75168533 26.71055942 32 30 C30.49053489 33.18086518 28.92058175 35.29869906 26.375 37.75 C25.74335938 38.36359375 25.11171875 38.9771875 24.4609375 39.609375 C23.73777344 40.29773438 23.73777344 40.29773438 23 41 C20.19030533 39.71977125 18.1460762 38.39285871 15.97558594 36.20263672 C15.41530701 35.64220673 14.85502808 35.08177673 14.277771 34.50436401 C13.68595032 33.90222076 13.09412964 33.30007751 12.484375 32.6796875 C11.86854553 32.06102814 11.25271606 31.44236877 10.6182251 30.80496216 C8.65739664 28.83296186 6.70364699 26.85411263 4.75 24.875 C3.41973201 23.53469836 2.089008 22.19484917 0.7578125 20.85546875 C-2.5001015 17.57553411 -5.75168533 14.28944058 -9 11 C-8.58862793 10.52296631 -8.17725586 10.04593262 -7.75341797 9.55444336 C-6.94348389 8.61290405 -6.94348389 8.61290405 -6.1171875 7.65234375 C-5.58206543 7.03093506 -5.04694336 6.40952637 -4.49560547 5.76928711 C-2.91642045 3.90112618 -1.42932148 1.98516872 0 0 Z " fill="#FFFEFC" transform="translate(273,269)"/>
<path d="M0 0 C1.32 0.66 2.64 1.32 4 2 C4 6 4 6 2.70922852 7.77178955 C2.10522217 8.36691345 1.50121582 8.96203735 0.87890625 9.57519531 C0.19820068 10.25559875 -0.48250488 10.9360022 -1.18383789 11.63702393 C-1.92754639 12.36008728 -2.67125488 13.08315063 -3.4375 13.828125 C-4.19216553 14.57713074 -4.94683105 15.32613647 -5.72436523 16.09783936 C-8.14036704 18.49142452 -10.56989529 20.87074233 -13 23.25 C-14.63892986 24.86887189 -16.27696256 26.48865261 -17.9140625 28.109375 C-21.93235177 32.08352665 -25.96183919 36.0460471 -30 40 C-28.44805246 43.32759923 -26.69378051 45.48580485 -24 48 C-25.32 49.32 -26.64 50.64 -28 52 C-31.45201639 50.52278578 -33.64961936 48.56205999 -36.25 45.875 C-36.95640625 45.15054688 -37.6628125 44.42609375 -38.390625 43.6796875 C-38.92171875 43.12539063 -39.4528125 42.57109375 -40 42 C-38.56741228 38.72803548 -36.81174684 36.56796044 -34.28466797 34.05761719 C-33.52403046 33.29713074 -32.76339294 32.53664429 -31.97970581 31.75311279 C-31.15882477 30.94255432 -30.33794373 30.13199585 -29.4921875 29.296875 C-28.65156769 28.45908508 -27.81094788 27.62129517 -26.94485474 26.75811768 C-24.25955999 24.08401569 -21.56739345 21.41695276 -18.875 18.75 C-17.05292845 16.93795938 -15.23130823 15.12546482 -13.41015625 13.3125 C-8.94532748 8.86971964 -4.47483717 4.43269835 0 0 Z " fill="#56555B" transform="translate(379,332)"/>
<path d="M0 0 C3.90851199 1.58431453 6.52367356 4.26635095 9.421875 7.2265625 C9.92672424 7.73424164 10.43157349 8.24192078 10.95172119 8.76498413 C12.55592096 10.38033842 14.15300856 12.00252209 15.75 13.625 C16.83938107 14.72441698 17.9292199 15.82338059 19.01953125 16.921875 C21.68501885 19.6093602 24.34415143 22.30299021 27 25 C25.35 26.98 23.7 28.96 22 31 C16.3987263 28.66988322 12.46934796 23.87943183 8.24389648 19.66943359 C6.68718647 18.12468888 5.11278991 16.59957766 3.53710938 15.07421875 C2.54833619 14.09490267 1.56066625 13.11447117 0.57421875 12.1328125 C-0.32723877 11.24480957 -1.22869629 10.35680664 -2.1574707 9.44189453 C-4 7 -4 7 -3.88354492 4.78857422 C-2.87815989 2.75335711 -1.70600808 1.48348528 0 0 Z " fill="#ACD2F0" transform="translate(375,380)"/>
<path d="M0 0 C1.02802734 0.00966797 2.05605469 0.01933594 3.11523438 0.02929688 C4.72301758 0.06700195 4.72301758 0.06700195 6.36328125 0.10546875 C7.44673828 0.11900391 8.53019531 0.13253906 9.64648438 0.14648438 C12.3234153 0.18186232 14.99934963 0.23122686 17.67578125 0.29296875 C16.92941406 1.22109375 16.92941406 1.22109375 16.16796875 2.16796875 C14.45685464 4.13437411 14.45685464 4.13437411 14.80078125 6.29296875 C15.79149383 8.76536238 15.79149383 8.76536238 18.67578125 12.29296875 C16.03578125 14.93296875 13.39578125 17.57296875 10.67578125 20.29296875 C7.22318432 18.56667029 5.60339524 17.46071402 3.00390625 14.81640625 C2.00810547 13.8109375 2.00810547 13.8109375 0.9921875 12.78515625 C0.31027344 12.08648437 -0.37164062 11.3878125 -1.07421875 10.66796875 C-2.12029297 9.60835937 -2.12029297 9.60835937 -3.1875 8.52734375 C-4.90434363 6.78698172 -6.61633707 5.04211894 -8.32421875 3.29296875 C-5.79060787 0.07680384 -4.00404798 -0.06636544 0 0 Z " fill="#F83F61" transform="translate(317.32421875,236.70703125)"/>
<path d="M0 0 C8.44646925 6.15034169 8.44646925 6.15034169 12 10 C10.55575365 13.23861303 8.74227753 15.61969163 6.375 18.25 C5.74335937 18.95640625 5.11171875 19.6628125 4.4609375 20.390625 C3.97882813 20.92171875 3.49671875 21.4528125 3 22 C-0.90829085 21.4352699 -2.89920223 19.57868029 -5.75 16.9375 C-6.54921875 16.20402344 -7.3484375 15.47054688 -8.171875 14.71484375 C-8.77515625 14.14894531 -9.3784375 13.58304687 -10 13 C-9.48223379 8.89552608 -7.35372556 7.04300477 -4.4375 4.25 C-3.61121094 3.45078125 -2.78492187 2.6515625 -1.93359375 1.828125 C-1.29550781 1.22484375 -0.65742187 0.6215625 0 0 Z " fill="#1C1C1E" transform="translate(78,279)"/>
<path d="M0 0 C2.94734539 1.2057322 4.35391388 3.0220533 6.3984375 5.44140625 C7.10484375 6.26769531 7.81125 7.09398437 8.5390625 7.9453125 C9.07015625 8.58339844 9.60125 9.22148437 10.1484375 9.87890625 C8.67122328 13.33092264 6.71049749 15.52852561 4.0234375 18.12890625 C3.29898438 18.8353125 2.57453125 19.54171875 1.828125 20.26953125 C1.27382813 20.800625 0.71953125 21.33171875 0.1484375 21.87890625 C-3.51942643 20.37541248 -5.54066643 18.24161833 -8.1015625 15.25390625 C-8.80796875 14.43664062 -9.514375 13.619375 -10.2421875 12.77734375 C-10.77328125 12.15085937 -11.304375 11.524375 -11.8515625 10.87890625 C-9.87085813 8.52847039 -7.86574928 6.20067821 -5.8515625 3.87890625 C-5.1503125 3.05390625 -4.4490625 2.22890625 -3.7265625 1.37890625 C-1.8515625 -0.12109375 -1.8515625 -0.12109375 0 0 Z " fill="#1C1C1E" transform="translate(61.8515625,262.12109375)"/>
<path d="M0 0 C2.76274478 1.35449744 4.27869778 3.20492258 6.2578125 5.546875 C6.96421875 6.37316406 7.670625 7.19945312 8.3984375 8.05078125 C8.92953125 8.68886719 9.460625 9.32695312 10.0078125 9.984375 C8.50431873 13.65223893 6.37052458 15.67347893 3.3828125 18.234375 C2.56554688 18.94078125 1.74828125 19.6471875 0.90625 20.375 C-0.03347656 21.17164063 -0.03347656 21.17164063 -0.9921875 21.984375 C-4.65885417 18.31770833 -8.32552083 14.65104167 -11.9921875 10.984375 C-10.55978062 7.65439818 -8.80982226 5.5850854 -6.1171875 3.171875 C-5.10011719 2.23408203 -5.10011719 2.23408203 -4.0625 1.27734375 C-1.9921875 -0.015625 -1.9921875 -0.015625 0 0 Z " fill="#1D1D1F" transform="translate(44.9921875,244.015625)"/>
<path d="M0 0 C2.85413995 1.46945819 4.29176801 3.53578882 6.22265625 6.078125 C6.9290625 6.99722656 7.63546875 7.91632813 8.36328125 8.86328125 C8.894375 9.57355469 9.42546875 10.28382813 9.97265625 11.015625 C7.47809603 14.3136134 5.08344319 16.91956103 1.72265625 19.328125 C0.66304687 20.09576172 0.66304687 20.09576172 -0.41796875 20.87890625 C-0.9490625 21.25402344 -1.48015625 21.62914062 -2.02734375 22.015625 C-3.7212759 20.37009091 -5.38466998 18.71143108 -7.02734375 17.015625 C-7.51589844 16.51160156 -8.00445313 16.00757813 -8.5078125 15.48828125 C-9.90234375 13.953125 -9.90234375 13.953125 -12.02734375 11.015625 C-11.88221612 8.12468252 -11.14135634 7.1314877 -9.1015625 5.05859375 C-8.31394531 4.44628906 -7.52632812 3.83398438 -6.71484375 3.203125 C-5.93496094 2.57792969 -5.15507812 1.95273438 -4.3515625 1.30859375 C-2.02734375 0.015625 -2.02734375 0.015625 0 0 Z " fill="#1C1C1E" transform="translate(29.02734375,224.984375)"/>
<path d="M0 0 C11.11607143 -0.26785714 11.11607143 -0.26785714 16 2 C15.85704109 3.39613065 15.71048442 4.79189308 15.5625 6.1875 C15.48128906 6.96480469 15.40007812 7.74210937 15.31640625 8.54296875 C14.99402379 11.04640786 14.49501895 13.52490524 14 16 C7.07 15.505 7.07 15.505 0 15 C0 10.05 0 5.1 0 0 Z " fill="#FEF9FB" transform="translate(296,43)"/>
<path d="M0 0 C5.23272633 1.63958758 10.15196636 3.38952035 15 6 C13.35821735 10.77609498 10.73453298 14.79382904 8 19 C6.56068883 18.54738642 5.12361001 18.08767021 3.6875 17.625 C2.88699219 17.36976562 2.08648437 17.11453125 1.26171875 16.8515625 C-1 16 -1 16 -4 14 C-3.46148032 8.72250715 -2.22656164 4.74354436 0 0 Z " fill="#FEFAFC" transform="translate(323,48)"/>
<path d="M0 0 C4.31864357 3.57118603 7.43980387 6.54975483 11 11 C7.7 14.3 4.4 17.6 1 21 C-3.31864357 17.42881397 -6.43980387 14.45024517 -10 10 C-6.7 6.7 -3.4 3.4 0 0 Z " fill="#FFFDFB" transform="translate(330,325)"/>
<path d="M0 0 C3.21524305 1.40844718 5.32183868 3.10344786 7.75 5.625 C8.67039062 6.57246094 8.67039062 6.57246094 9.609375 7.5390625 C10.06828125 8.02117187 10.5271875 8.50328125 11 9 C9.59155282 12.21524305 7.89655214 14.32183868 5.375 16.75 C4.74335938 17.36359375 4.11171875 17.9771875 3.4609375 18.609375 C2.97882813 19.06828125 2.49671875 19.5271875 2 20 C-1.21524305 18.59155282 -3.32183868 16.89655214 -5.75 14.375 C-6.36359375 13.74335938 -6.9771875 13.11171875 -7.609375 12.4609375 C-8.06828125 11.97882813 -8.5271875 11.49671875 -9 11 C-7.59155282 7.78475695 -5.89655214 5.67816132 -3.375 3.25 C-2.74335938 2.63640625 -2.11171875 2.0228125 -1.4609375 1.390625 C-0.73777344 0.70226562 -0.73777344 0.70226562 0 0 Z " fill="#FFFDFB" transform="translate(312,308)"/>
<path d="M0 0 C3.93089159 3.2633817 6.91174115 5.88232154 10 10 C6.7 13.3 3.4 16.6 0 20 C-3.93089159 16.7366183 -6.91174115 14.11767846 -10 10 C-6.7 6.7 -3.4 3.4 0 0 Z " fill="#55A0F9" transform="translate(433,395)"/>
<path d="M0 0 C3.93405612 3.33539541 7.80743127 6.71925128 11.625 10.1875 C17.62184839 15.61057586 23.80553634 20.80558298 30 26 C29.34 26.66 28.68 27.32 28 28 C27.5781543 27.60321045 27.15630859 27.2064209 26.72167969 26.79760742 C24.73184105 24.92680281 22.74093369 23.05713919 20.75 21.1875 C20.02941406 20.50985596 19.30882812 19.83221191 18.56640625 19.1340332 C15.15832595 15.93518792 11.74165163 12.7500272 8.265625 9.625 C7.71036133 9.12460205 7.15509766 8.6242041 6.58300781 8.10864258 C5.08011814 6.75942592 3.57146577 5.41663644 2.0625 4.07421875 C0 2 0 2 0 0 Z " fill="#E1669C" transform="translate(133,261)"/>
</svg>
