<?xml version="1.0" encoding="UTF-8"?>
<svg version="1.1" xmlns="http://www.w3.org/2000/svg" width="512" height="512">
<path d="M0 0 C7.45705525 5.04892664 11.91727139 11.3460878 14.6015625 19.921875 C16.43102179 29.46376073 15.2407145 38.75679281 10 47 C4.62131865 53.43806854 -1.60168397 57.52290148 -8.875 61.5625 C-9.9180127 62.15619385 -10.96102539 62.7498877 -12.03564453 63.36157227 C-14.23975653 64.61602105 -16.4466839 65.86553468 -18.65625 67.11035156 C-23.00429118 69.56755357 -27.32667271 72.06786697 -31.64892578 74.57006836 C-34.90676086 76.45588495 -38.16773687 78.33615603 -41.4296875 80.21484375 C-47.95486238 83.97355378 -54.47766725 87.73636081 -61 91.5 C-67.52233275 95.26363919 -74.04513762 99.02644622 -80.5703125 102.78515625 C-81.65425293 103.40986816 -82.73819336 104.03458008 -83.85498047 104.67822266 C-86.02281641 105.92739078 -88.1911058 107.17577234 -90.35986328 108.42333984 C-95.77513807 111.54301795 -101.1736616 114.68725603 -106.546875 117.87890625 C-107.61019043 118.50788818 -108.67350586 119.13687012 -109.76904297 119.78491211 C-111.76155684 120.96535363 -113.75050684 122.15184375 -115.73486328 123.34594727 C-118.46042389 124.95777826 -121.22281001 126.47916172 -124 128 C-124.74287766 128.45098557 -125.48575531 128.90197113 -126.25114441 129.36662292 C-137.26996948 135.0829517 -149.86493951 133.68882255 -161.93359375 133.63671875 C-164.46038185 133.6447666 -166.98716317 133.65528915 -169.51393127 133.66816711 C-175.4610662 133.69371379 -181.40797005 133.69883487 -187.35513502 133.69239408 C-198.65154326 133.68074599 -209.94779797 133.71185455 -221.24412727 133.75275612 C-224.94956246 133.7616076 -228.6547795 133.75630665 -232.36021423 133.74919128 C-234.62612976 133.75257485 -236.89204478 133.75632384 -239.15795898 133.76049805 C-240.18711426 133.75480301 -241.21626953 133.74910797 -242.27661133 133.74324036 C-243.69972878 133.74914688 -243.69972878 133.74914688 -245.15159607 133.75517273 C-246.38231669 133.75372773 -246.38231669 133.75372773 -247.63790035 133.75225353 C-250.36383534 134.03816051 -252.50890085 134.88347325 -255 136 C-253.88193568 138.51564471 -252.70466017 140.35798767 -250.9375 142.5 C-248.08284024 146.18343195 -248.08284024 146.18343195 -248 149 C-249.98328347 154.68411504 -252.61170212 158.18417182 -256.87670898 162.36254883 C-257.4656897 162.95532623 -258.05467041 163.54810364 -258.66149902 164.15884399 C-260.59675122 166.10146204 -262.54594748 168.02937471 -264.49609375 169.95703125 C-265.85058844 171.30913967 -267.20434238 172.66199052 -268.55738831 174.01554871 C-271.38831707 176.84335653 -274.22581563 179.66433993 -277.06860352 182.48022461 C-280.7116651 186.0892427 -284.34135705 189.71135187 -287.96667385 193.33818531 C-290.75846887 196.12943657 -293.5554451 198.91544579 -296.35420418 201.69971275 C-297.69462442 203.03377208 -299.03383981 204.36904315 -300.37182426 205.70554543 C-302.24087752 207.57026199 -304.11636864 209.42824535 -305.99389648 211.28442383 C-306.5451973 211.83663101 -307.09649811 212.3888382 -307.664505 212.95777893 C-312.93020423 218.13616493 -312.93020423 218.13616493 -316 219 C-321.67401809 218.68751659 -324.25398797 217.49416243 -328.23886108 213.48939514 C-328.71782857 213.01625977 -329.19679605 212.54312441 -329.6902777 212.05565161 C-331.28384686 210.47426017 -332.85510451 208.87244899 -334.42724609 207.26977539 C-335.56821792 206.12874816 -336.7105054 204.98903523 -337.85400391 203.85054016 C-340.94987436 200.76065699 -344.02683841 197.65255071 -347.10060072 194.54069448 C-350.31942981 191.28804816 -353.55488809 188.05202718 -356.78848267 184.81407166 C-362.21346686 179.37713416 -367.6273995 173.92939919 -373.03369141 168.47387695 C-380.66477787 160.77334797 -388.31587366 153.09294188 -395.97092319 145.41624463 C-401.90905584 139.45982623 -407.8415983 133.49784114 -413.7734375 127.53515625 C-414.41096939 126.89445293 -415.04850127 126.2537496 -415.70535231 125.59363103 C-419.36433546 121.91585566 -423.0205177 118.23533753 -426.67237854 114.55048943 C-427.78055088 113.43297995 -428.88956187 112.31630142 -429.9994545 111.20050049 C-431.509679 109.68184989 -433.01677965 108.16016875 -434.52304077 106.6375885 C-435.36845114 105.78530702 -436.2138615 104.93302553 -437.08489037 104.05491734 C-439.27779024 101.70193039 -439.89994948 100.52526521 -440.5 97.375 C-439.1371772 88.17594609 -426.27664874 79.05465224 -419.83984375 72.56640625 C-419.21386354 71.93510237 -418.58788334 71.30379848 -417.94293404 70.65336418 C-414.63889035 67.32277565 -411.33130671 63.99574481 -408.02124023 60.67114258 C-405.28990598 57.92639818 -402.56605444 55.17453742 -399.84838867 52.41625977 C-396.55107225 49.06969841 -393.24171665 45.73551148 -389.9232502 42.40992546 C-388.66511739 41.14508177 -387.41124169 39.87598845 -386.16178703 38.60257149 C-384.41749281 36.82670416 -382.65813034 35.0672134 -380.89428711 33.31079102 C-380.38451324 32.78461182 -379.87473938 32.25843262 -379.34951782 31.71630859 C-376.04883389 28.47210213 -373.64615037 27.16089966 -369 27 C-364.29759799 28.72741298 -361.36424804 31.33890654 -358 35 C-354.53216973 33.51901355 -352.37092797 31.56793443 -349.76953125 28.859375 C-348.96580078 28.03566406 -348.16207031 27.21195312 -347.33398438 26.36328125 C-345.67021738 24.63894334 -344.00870768 22.91242418 -342.34960938 21.18359375 C-331.42286588 10.0047615 -322.24038199 4.75268335 -306.47986889 4.56876659 C-303.9890767 4.55715544 -301.49862148 4.56070968 -299.0078125 4.56640625 C-297.25340576 4.56183711 -295.4990008 4.55652938 -293.74459839 4.55052185 C-290.07819318 4.54161875 -286.41200611 4.54398132 -282.74560547 4.55395508 C-278.07320151 4.56543394 -273.40155456 4.54523571 -268.72924995 4.51603794 C-265.10870672 4.49759106 -261.48834201 4.49798533 -257.86776352 4.50367546 C-256.14637059 4.50382768 -254.42496478 4.49786669 -252.7036171 4.48538399 C-240.72878855 4.41077341 -229.96882088 4.86556872 -220.4375 13.125 C-219.63183594 13.80820312 -218.82617188 14.49140625 -217.99609375 15.1953125 C-216.63180722 16.42877703 -215.30052152 17.69947848 -214 19 C-210.41258236 20.30966075 -206.78532643 20.13138372 -203.00341797 20.1418457 C-202.30688614 20.14532013 -201.61035431 20.14879456 -200.89271545 20.15237427 C-199.38296171 20.15971279 -197.87319731 20.1650683 -196.36343002 20.16866493 C-193.96592345 20.17586007 -191.56861805 20.19155128 -189.1711731 20.21000671 C-182.3553552 20.26231815 -175.53964695 20.31038713 -168.72363281 20.32592773 C-164.54962088 20.33606661 -160.37611566 20.36554133 -156.20230484 20.40724754 C-154.61968969 20.41948124 -153.03700273 20.42469289 -151.45434189 20.42244911 C-140.1531565 20.41037461 -130.1819724 21.20198329 -121.53515625 29.296875 C-117.09619985 34.22151874 -115.00609335 38.45760781 -114 45 C-106.09464183 41.15618159 -98.43493223 37.04461201 -90.875 32.5625 C-88.77248256 31.32623235 -86.66960511 30.09057679 -84.56640625 28.85546875 C-83.48891113 28.2217334 -82.41141602 27.58799805 -81.30126953 26.93505859 C-72.60890562 21.83997825 -63.86747962 16.82907556 -55.13330078 11.80615234 C-52.05221056 10.03009613 -48.97677505 8.24458418 -45.90234375 6.45703125 C-44.01830801 5.36705121 -42.1341974 4.27720056 -40.25 3.1875 C-38.97346558 2.44089111 -38.97346558 2.44089111 -37.67114258 1.67919922 C-25.69460622 -5.2225336 -12.56171927 -6.85184687 0 0 Z " fill="#231F21" transform="translate(457,275)"/>
<path d="M0 0 C4.47040864 2.23520432 8.84006214 5.36762264 11 10 C11.87789442 15.55745336 12.00568312 20.14670241 9.28515625 25.16015625 C6.93900057 28.07580613 5.09245567 29.56886627 1.875 31.4375 C1.05841919 31.91884399 1.05841919 31.91884399 0.2253418 32.40991211 C-1.84148742 33.62136972 -3.92085624 34.80980028 -6 36 C-7.9080088 37.10598329 -9.81552117 38.21282326 -11.72265625 39.3203125 C-16.73917158 42.22756714 -21.76352393 45.12092391 -26.79168701 48.00798035 C-32.86638269 51.49621846 -38.93331747 54.99785082 -45 58.5 C-51.52225882 62.26376716 -58.04513773 66.02644628 -64.5703125 69.78515625 C-75.31308813 75.97510971 -86.04442949 82.18338375 -96.75 88.4375 C-100.49935075 90.62611477 -104.24925196 92.81378069 -108 95 C-108.76425293 95.44553223 -109.52850586 95.89106445 -110.31591797 96.35009766 C-112.27085497 97.48735983 -114.22845066 98.61984075 -116.1875 99.75 C-117.21230469 100.34296875 -118.23710937 100.9359375 -119.29296875 101.546875 C-123.58314117 103.8498247 -127.0328715 105.25046696 -131.93778992 105.24482727 C-133.39048531 105.2507338 -133.39048531 105.2507338 -134.87252808 105.25675964 C-135.92352692 105.25106461 -136.97452576 105.24536957 -138.05737305 105.23950195 C-139.73149513 105.24252319 -139.73149513 105.24252319 -141.43943787 105.24560547 C-143.86153096 105.24914897 -146.28363331 105.24838635 -148.70572472 105.24382973 C-152.54414387 105.23823398 -156.38226112 105.24740066 -160.22065735 105.2610321 C-171.13369064 105.29814436 -182.04662254 105.31699165 -192.9597168 105.30541992 C-199.63759682 105.29851364 -206.31499 105.31789259 -212.99280739 105.35130882 C-215.53279244 105.35924579 -218.07282388 105.35800913 -220.61279869 105.34728432 C-224.17421577 105.33289718 -227.73430951 105.3492935 -231.2956543 105.37231445 C-232.33653198 105.36054672 -233.37740967 105.34877899 -234.4498291 105.33665466 C-241.76981794 105.42901217 -246.72548643 107.33083254 -253 111 C-254.98 111.99 -254.98 111.99 -257 113 C-281.75 88.25 -306.5 63.5 -332 38 C-329.33985451 32.67970903 -325.4973292 29.12529971 -321.31640625 24.94580078 C-319.88980558 23.51485072 -318.47996094 22.06872082 -317.0703125 20.62109375 C-316.15765625 19.70457031 -315.245 18.78804688 -314.3046875 17.84375 C-313.47952637 17.01037109 -312.65436523 16.17699219 -311.80419922 15.31835938 C-303.3414283 8.32180072 -295.23882028 8.39111522 -284.6015625 8.43359375 C-283.000271 8.42835002 -281.3989826 8.42207081 -279.79769897 8.41481018 C-276.45059621 8.40443597 -273.10391935 8.40892298 -269.75683594 8.42358398 C-265.49101408 8.44075007 -261.22654205 8.4172891 -256.96087074 8.38209438 C-253.65600854 8.36001281 -250.35146383 8.36158792 -247.04655075 8.3698597 C-245.47504574 8.37067369 -243.9035161 8.36391707 -242.33208084 8.34908867 C-230.87505758 8.25754924 -222.57401788 9.70288213 -213.8125 17.625 C-213.24144531 18.19476563 -212.67039062 18.76453125 -212.08203125 19.3515625 C-206.87975745 23.47043594 -201.9316928 24.37445814 -195.41577148 24.38476562 C-194.69286926 24.3901384 -193.96996704 24.39551117 -193.22515869 24.40104675 C-191.66799516 24.41077095 -190.11077778 24.41378524 -188.55358696 24.41069031 C-186.08535557 24.40618476 -183.61783075 24.42028767 -181.14967346 24.43908691 C-175.0235237 24.48195459 -168.89739157 24.49310968 -162.77111816 24.50531006 C-157.58404022 24.516857 -152.39728668 24.54046448 -147.21034431 24.58000183 C-144.78514417 24.59353214 -142.36038822 24.58940949 -139.93516541 24.58459473 C-138.4417159 24.59393828 -136.94827127 24.60410784 -135.45483398 24.61523438 C-134.15690414 24.61728882 -132.8589743 24.61934326 -131.52171326 24.62145996 C-127.05525557 25.10154819 -123.65852225 26.45178327 -120.35546875 29.53515625 C-116.77864166 34.21254552 -115.57574685 36.72653249 -115.66015625 42.55078125 C-116.43668816 48.14716639 -119.35122437 51.75188327 -123.75683594 55.08691406 C-129.31387204 58.17435428 -135.48683641 57.50430267 -141.66796875 57.43359375 C-143.67291885 57.4407403 -145.67786932 57.44791466 -147.68281269 57.45674992 C-151.89512248 57.46927468 -156.10738971 57.44845641 -160.31964111 57.42626953 C-163.80072776 57.40830057 -167.28117643 57.39930416 -170.76228333 57.41651917 C-173.36765944 57.42772976 -175.9732341 57.41746405 -178.57841492 57.38365173 C-179.75676407 57.39038406 -180.93511322 57.39711639 -182.14916992 57.40405273 C-183.1850676 57.39864975 -184.22096527 57.39324677 -185.28825378 57.38768005 C-188.21208552 57.79660169 -188.21208552 57.79660169 -190.36958313 60.3419342 C-192.2827697 62.92444985 -192.2827697 62.92444985 -191.9375 66.125 C-190.95656032 69.13321501 -190.48891125 70.14477925 -188 72 C-185.28131817 72.47005989 -185.28131817 72.47005989 -182.15844727 72.41992188 C-180.95611954 72.43583374 -179.75379181 72.45174561 -178.51502991 72.46813965 C-177.2119841 72.46834106 -175.90893829 72.46854248 -174.56640625 72.46875 C-173.20938301 72.47585708 -171.85236276 72.48355688 -170.49534607 72.49182129 C-167.64468059 72.50528103 -164.79429191 72.50683187 -161.94360352 72.50097656 C-158.32237056 72.49512561 -154.70249947 72.5254689 -151.08152866 72.56609344 C-148.27328062 72.59220411 -145.46534843 72.59482618 -142.65699577 72.59120178 C-140.68308492 72.59368193 -138.70924061 72.61824622 -136.73548889 72.64343262 C-127.08284497 72.57044805 -118.41835788 70.58212369 -110.5625 64.6875 C-108.34764183 62.36459996 -107.49758518 61.04867126 -106.1328125 58.3046875 C-102.43106677 52.31037947 -96.35184052 49.66680392 -90.3125 46.4375 C-89.05430543 45.74508855 -87.79732443 45.05046775 -86.54150391 44.35375977 C-83.96008727 42.92335082 -81.3741447 41.50169825 -78.78466797 40.0859375 C-73.09432069 36.96354089 -67.48737715 33.69729873 -61.875 30.4375 C-59.742457 29.20526265 -57.60964376 27.97349285 -55.4765625 26.7421875 C-54.41856445 26.13084961 -53.36056641 25.51951172 -52.27050781 24.88964844 C-49.45605396 23.26350087 -46.64136925 21.63775457 -43.82633972 20.01260376 C-42.09773474 19.01462344 -40.36930134 18.01634594 -38.64086914 17.01806641 C-36.40974853 15.73134482 -34.17720006 14.44709538 -31.94311523 13.16552734 C-27.4535175 10.5883 -22.97447903 8.00881213 -18.57421875 5.28125 C-6.88867341 -1.90719471 -6.88867341 -1.90719471 0 0 Z " fill="#FEBBAA" transform="translate(444,287)"/>
<path d="M0 0 C8.1805227 6.95270464 14.0520894 14.9774619 16.125 25.6875 C17.13018948 40.13048571 14.24260361 51.40640732 4.71240234 62.49447632 C1.81516595 65.57311409 -1.13583786 68.58535264 -4.125 71.57421875 C-5.22667279 72.68623854 -6.32798399 73.79861665 -7.42895508 74.91133118 C-9.72847164 77.23016519 -12.03570779 79.54097749 -14.34814453 81.84692383 C-17.28049325 84.77328795 -20.18695091 87.72395246 -23.08731079 90.68197918 C-25.35221977 92.98422931 -27.63334577 95.26989123 -29.91906738 97.55146217 C-30.99612268 98.63135126 -32.06772349 99.71671441 -33.13317871 100.80805016 C-43.13425353 111.02628171 -54.07403624 118.70706426 -68.875 119 C-81.56926213 119.01390221 -90.68813001 114.79397995 -99.62109375 105.9609375 C-107.73668833 97.09652247 -110.33448102 87.04541579 -110.12109375 75.18359375 C-109.06618326 60.19716688 -99.80713178 49.98190465 -89.625 39.80078125 C-88.52332721 38.68876146 -87.42201601 37.57638335 -86.32104492 36.46366882 C-84.02152836 34.14483481 -81.71429221 31.83402251 -79.40185547 29.52807617 C-76.46950675 26.60171205 -73.56304909 23.65104754 -70.66268921 20.69302082 C-68.39778023 18.39077069 -66.11665423 16.10510877 -63.83093262 13.82353783 C-62.75387732 12.74364874 -61.68227651 11.65828559 -60.61682129 10.56694984 C-44.4795863 -5.92067842 -20.73828906 -15.37195383 0 0 Z " fill="#241F1F" transform="translate(478.875,24.3125)"/>
<path d="M0 0 C8.97616964 6.46524781 15.02006357 14.6910424 17.58203125 25.4921875 C18.29799282 31.66819427 18.14638536 37.91014867 18.11328125 44.1171875 C18.11598202 45.91357635 18.11986927 47.70996376 18.12487793 49.50634766 C18.13074552 53.25502563 18.12229911 57.00332006 18.10351562 60.75195312 C18.08072764 65.52969911 18.09386553 70.30654595 18.11780548 75.08425903 C18.13233801 78.78888586 18.12762352 82.49330349 18.11729431 86.19793701 C18.11464757 87.95839548 18.11782356 89.71887366 18.12721252 91.47930908 C18.18596679 105.58811045 16.76320101 116.82716017 6.58203125 127.4921875 C-2.64510052 136.30069703 -12.26841199 139.11793051 -24.78271484 138.96289062 C-36.60994382 138.49468278 -45.25903982 133.943818 -53.390625 125.42578125 C-62.74954501 114.31827322 -63.02292374 102.68691405 -62.94921875 88.8671875 C-62.95191952 87.07079865 -62.95580677 85.27441124 -62.96081543 83.47802734 C-62.96668302 79.72934937 -62.95823661 75.98105494 -62.93945312 72.23242188 C-62.91666514 67.45467589 -62.92980303 62.67782905 -62.95374298 57.90011597 C-62.96827551 54.19548914 -62.96356102 50.49107151 -62.95323181 46.78643799 C-62.95058507 45.02597952 -62.95376106 43.26550134 -62.96315002 41.50506592 C-63.02190429 27.39626455 -61.59913851 16.15721483 -51.41796875 5.4921875 C-37.63784493 -7.66275112 -16.31305228 -10.17259803 0 0 Z " fill="#231F1F" transform="translate(366.41796875,149.5078125)"/>
<path d="M0 0 C3.73933516 3.44780308 7.35049226 7.01995551 10.94921875 10.61328125 C11.97559565 11.63321057 13.00211319 12.65299839 14.02876282 13.6726532 C16.16602472 15.79802695 18.29920285 17.92740393 20.42993164 20.05932617 C23.13950443 22.76910242 25.8626016 25.46483152 28.58940411 28.15725422 C30.70948358 30.25493602 32.8202482 32.36180901 34.92862892 34.4712429 C35.9279843 35.46826419 36.9305235 36.46210623 37.93649864 37.45244789 C48.90481075 48.26603896 55.48234805 58.38811608 56.12890625 74.140625 C55.63977055 85.46485746 51.29283116 94.69372336 43.46875 102.8046875 C34.56621205 110.72118485 24.83813186 114.08278414 13 114 C-2.58075363 112.24587542 -11.98493059 104.64146164 -22.703125 93.828125 C-23.79489062 92.73906204 -24.88724871 91.65059275 -25.98016357 90.56268311 C-28.25569423 88.2930111 -30.52393287 86.01636397 -32.78710938 83.734375 C-35.66701349 80.83168393 -38.56451093 77.94732921 -41.46776199 75.06801224 C-43.72290643 72.82742458 -45.96831167 70.57726958 -48.21102142 68.32424164 C-49.27486705 67.25775593 -50.3416134 66.19415458 -51.41147614 65.13370514 C-62.1585754 54.46051953 -69.5187862 44.30740739 -70.12890625 28.703125 C-69.66549182 16.96329265 -65.61285328 7.6380329 -57.46875 -0.8046875 C-39.86089103 -16.46230892 -17.3433432 -14.52515253 0 0 Z " fill="#251F1F" transform="translate(231,93)"/>
<path d="M0 0 C3.39093564 1.46855222 5.60012471 3.35294554 8.20147705 5.96096802 C9.03156281 6.78830444 9.86164856 7.61564087 10.71688843 8.4680481 C12.06987534 9.83182083 12.06987534 9.83182083 13.45019531 11.22314453 C14.41586059 12.18937413 15.38196683 13.1551632 16.34848022 14.12054443 C18.96835941 16.73984991 21.58202725 19.36527512 24.19462681 21.99183893 C26.92701415 24.7367305 29.66506796 27.47595771 32.40252686 30.21578979 C37.58422685 35.40370546 42.76080758 40.59669821 47.93557048 45.7915324 C53.82761146 51.70592965 59.72533385 57.61464752 65.62354136 63.52289414 C77.75536232 75.67561907 89.8800259 87.83546034 102 100 C100.30208605 103.61261143 98.30257579 105.93968397 95.45849609 108.76855469 C94.99978622 109.22755661 94.54107635 109.68655853 94.06846619 110.1594696 C92.5581509 111.66839675 91.04088612 113.17012454 89.5234375 114.671875 C88.4721083 115.71947224 87.42122115 116.76751328 86.37075806 117.815979 C83.60998984 120.5691252 80.84326751 123.31621127 78.07525635 126.06207275 C75.24967072 128.86716916 72.42976555 131.67796321 69.609375 134.48828125 C64.07845626 139.99777532 58.54123411 145.50087877 53 151 C47.17542233 146.16360691 41.82483957 140.96060848 36.48461914 135.59814453 C35.55700775 134.67067917 34.62939636 133.74321381 33.67367554 132.78764343 C31.14920012 130.26345305 28.6278038 127.73620768 26.10697865 125.20837259 C23.46492341 122.56003472 20.82000581 119.91455855 18.17539978 117.26876831 C13.17642847 112.2666981 8.18001016 107.26208593 3.18452018 102.25653923 C-2.50641176 96.55440126 -8.20020856 90.85512761 -13.89423931 85.1560843 C-25.59933415 73.44055771 -37.30085365 61.72146684 -49 50 C-47.14982428 45.99242245 -44.51045621 43.23805704 -41.3984375 40.16796875 C-40.56549667 39.33571526 -40.56549667 39.33571526 -39.71572876 38.48664856 C-38.53957558 37.31351211 -37.36099724 36.14280271 -36.18017578 34.97436523 C-34.39696546 33.20924266 -32.62171976 31.43641977 -30.84765625 29.66210938 C-25.61793739 24.44917779 -20.37318542 19.32675759 -14.75244141 14.53198242 C-11.69069008 11.85540266 -8.8526133 8.95833472 -6 6.0625 C-5.41605469 5.47404297 -4.83210938 4.88558594 -4.23046875 4.27929688 C-2.81795195 2.85520207 -1.4086219 1.4279475 0 0 Z " fill="#006CEE" transform="translate(86,323)"/>
<path d="M0 0 C5.83560444 3.14338021 10.18960447 8.13865293 14.7421875 12.86328125 C15.66 13.79914063 16.5778125 14.735 17.5234375 15.69921875 C19.77241764 17.99505264 22.01147679 20.29971557 24.2421875 22.61328125 C20.27846225 27.36413992 16.14423968 31.84941237 11.75 36.203125 C11.15919647 36.79251358 10.56839294 37.38190216 9.95968628 37.989151 C8.09788346 39.84541852 6.23261005 41.6981521 4.3671875 43.55078125 C3.09351739 44.81942797 1.82007779 46.08830615 0.546875 47.35742188 C-2.55203293 50.44538679 -5.65405551 53.53019054 -8.7578125 56.61328125 C-13.83123239 52.30015322 -18.74613419 47.8949927 -23.5078125 43.23828125 C-24.16652344 42.61695313 -24.82523438 41.995625 -25.50390625 41.35546875 C-31.3603231 35.60596418 -34.16652841 29.99404354 -34.2578125 21.67578125 C-34.06909554 14.88197066 -31.93147132 10.00816026 -27.30078125 5.0546875 C-25.8203125 3.73828125 -25.8203125 3.73828125 -22.7578125 1.61328125 C-21.9121875 1.01515625 -21.0665625 0.41703125 -20.1953125 -0.19921875 C-13.71686119 -2.4372292 -6.38205344 -2.72940121 0 0 Z " fill="#FDCC00" transform="translate(210.7578125,98.38671875)"/>
<path d="M0 0 C7.00933519 4.09979983 12.9282481 8.86893892 15.3125 16.9375 C15.78475085 22.11835882 15.68921831 27.24092807 15.5625 32.4375 C15.48 37.2225 15.3975 42.0075 15.3125 46.9375 C-0.5275 46.9375 -16.3675 46.9375 -32.6875 46.9375 C-32.81125 39.76 -32.81125 39.76 -32.9375 32.4375 C-32.97391602 30.94412109 -33.01033203 29.45074219 -33.04785156 27.91210938 C-33.12245879 18.96405587 -32.47948886 13.21111893 -26.50390625 6.4765625 C-25.38822266 5.52910156 -25.38822266 5.52910156 -24.25 4.5625 C-23.50878906 3.91539062 -22.76757812 3.26828125 -22.00390625 2.6015625 C-15.32599716 -2.19572127 -7.71917035 -2.22416773 0 0 Z " fill="#FDCC00" transform="translate(352.6875,161.0625)"/>
<path d="M0 0 C15.84 0 31.68 0 48 0 C48.0825 4.599375 48.165 9.19875 48.25 13.9375 C48.28641602 15.36956787 48.32283203 16.80163574 48.36035156 18.27709961 C48.43594854 27.01769492 47.444965 33.1606444 42.359375 40.3046875 C36.61253366 45.9120424 31.53685344 48.08227996 23.5 48.4375 C15.52400347 48.15146426 11.02960754 45.37891791 5.625 39.625 C0.85063543 34.2419515 -0.25821078 29.17781794 -0.1953125 22.0703125 C-0.19031738 20.90773926 -0.18532227 19.74516602 -0.18017578 18.54736328 C-0.16196777 17.0879834 -0.14375977 15.62860352 -0.125 14.125 C-0.08375 9.46375 -0.0425 4.8025 0 0 Z " fill="#EC1C23" transform="translate(320,224)"/>
<path d="M0 0 C4.92188755 4.17967607 9.66368897 8.45339729 14.25 13 C14.86101562 13.59039062 15.47203125 14.18078125 16.1015625 14.7890625 C21.59800022 20.2374964 24.42791651 24.78477404 24.5 32.75 C24.32283958 39.46792326 23.2443362 44.68238339 19 50 C13.13535983 55.02243265 8.03830842 57.15784214 0.3125 57.375 C-0.86699219 57.42398438 -2.04648438 57.47296875 -3.26171875 57.5234375 C-12.42441893 56.24046799 -18.33192443 49.05146722 -24.5 42.6875 C-25.32242188 41.85154297 -26.14484375 41.01558594 -26.9921875 40.15429688 C-29.00185336 38.10957871 -31.00412487 36.05816637 -33 34 C-29.03627475 29.24914133 -24.90205218 24.76386888 -20.5078125 20.41015625 C-19.91700897 19.82076767 -19.32620544 19.23137909 -18.71749878 18.62413025 C-16.85569596 16.76786273 -14.99042255 14.91512915 -13.125 13.0625 C-11.85132989 11.79385328 -10.57789029 10.5249751 -9.3046875 9.25585938 C-6.20577957 6.16789446 -3.10375699 3.08309071 0 0 Z " fill="#EC1B23" transform="translate(246,133)"/>
<path d="M0 0 C4.75085867 3.96372525 9.23613112 8.09794782 13.58984375 12.4921875 C14.47392662 13.37839279 14.47392662 13.37839279 15.37586975 14.28250122 C17.23213727 16.14430404 19.08487085 18.00957745 20.9375 19.875 C22.20614672 21.14867011 23.4750249 22.42210971 24.74414062 23.6953125 C27.83210554 26.79422043 30.91690929 29.89624301 34 33 C33.0656466 34.0967806 32.13031116 35.19272463 31.19458008 36.28833008 C30.67382401 36.89872635 30.15306793 37.50912262 29.61653137 38.13801575 C14.16968418 55.93030035 14.16968418 55.93030035 3.28515625 57.35546875 C-4.14907788 57.73278927 -9.16662584 56.04664546 -14.94140625 51.45703125 C-20.09477331 46.75552518 -22.50401952 42.24063309 -23.3125 35.328125 C-23.64732976 27.75260174 -21.90391945 22.33105539 -16.89038086 16.58007812 C-14.39165806 13.99900736 -11.83942372 11.48997761 -9.25 9 C-8.36183594 8.12988281 -7.47367187 7.25976562 -6.55859375 6.36328125 C-4.38124799 4.23276013 -2.1951022 2.11219596 0 0 Z " fill="#EB1B23" transform="translate(409,69)"/>
<path d="M0 0 C5.87564741 2.99047287 9.87824799 7.09224657 13.1875 12.75 C15.11956821 19.4554132 15.14678067 26.062417 12.33203125 32.52734375 C7.34646774 41.3285732 -1.5998861 48.38415456 -8.75 55.4375 C-13.50085867 51.47377475 -17.98613112 47.33955218 -22.33984375 42.9453125 C-23.22392662 42.05910721 -23.22392662 42.05910721 -24.12586975 41.15499878 C-25.98213727 39.29319596 -27.83487085 37.42792255 -29.6875 35.5625 C-30.95614672 34.28882989 -32.2250249 33.01539029 -33.49414062 31.7421875 C-36.58210554 28.64327957 -39.66690929 25.54125699 -42.75 22.4375 C-38.57951466 17.53152364 -34.32892635 12.77845484 -29.8125 8.1875 C-29.23048828 7.57648437 -28.64847656 6.96546875 -28.04882812 6.3359375 C-20.22671879 -1.59878249 -10.6725266 -4.22530063 0 0 Z " fill="#FDCB00" transform="translate(463.75,35.5625)"/>
<path d="M0 0 C0.495 0.99 0.495 0.99 1 2 C0.25 3.8046875 0.25 3.8046875 -1 5.875 C-1.5878125 6.89207031 -1.5878125 6.89207031 -2.1875 7.9296875 C-5.57403178 11.79792423 -8.87094253 13.74759722 -13.94772339 14.34945679 C-17.57448091 14.46258573 -21.18052807 14.44931188 -24.80859375 14.390625 C-26.14379525 14.38315338 -27.4790078 14.3774648 -28.81422424 14.37347412 C-32.30792157 14.35828979 -35.80094089 14.31907259 -39.29437256 14.2746582 C-42.86737906 14.23354823 -46.44049642 14.21542978 -50.01367188 14.1953125 C-57.00939097 14.15256942 -64.00466282 14.08440743 -71 14 C-70.67691831 11.01149441 -70.39470741 9.41183424 -68.28497314 7.21055603 C-65.47877153 5.72385835 -63.6107906 5.62799085 -60.44042969 5.63110352 C-59.32537048 5.62422012 -58.21031128 5.61733673 -57.0614624 5.61024475 C-55.86039856 5.61640305 -54.65933472 5.62256134 -53.421875 5.62890625 C-50.8736966 5.61151942 -48.32551955 5.59393509 -45.77734375 5.57617188 C-41.76380449 5.5661098 -37.75036283 5.56249625 -33.73681641 5.56420898 C-29.86073379 5.56063106 -25.98533553 5.53325153 -22.109375 5.50390625 C-20.31992462 5.51618004 -20.31992462 5.51618004 -18.49432373 5.52870178 C-11.66186873 5.46789712 -5.15175537 5.15175537 0 0 Z " fill="#FD9D83" transform="translate(327,330)"/>
<path d="M0 0 C2.31 1.98 4.62 3.96 7 6 C-11.52509363 28.75940075 -11.52509363 28.75940075 -23.71484375 30.35546875 C-29.84749803 30.66672829 -35.04107009 29.78937097 -40 26 C-41.04347045 24.70040499 -42.05431748 23.37239293 -43 22 C-41.78376953 22.06960937 -41.78376953 22.06960937 -40.54296875 22.140625 C-28.80359146 22.52328223 -19.77985715 19.91188648 -11 12 C-4.78018456 6.56775694 -4.78018456 6.56775694 0 0 Z " fill="#D21920" transform="translate(436,96)"/>
<path d="M0 0 C6.67120893 1.87627751 11.4303791 6.69642327 15.23046875 12.2734375 C18.2184972 18.57638981 17.41947449 25.69224155 17.25 32.5 C17.22990166 33.90882874 17.21165678 35.31768521 17.1953125 36.7265625 C17.14839203 40.15175664 17.08274777 43.57551524 17 47 C14.36 47 11.72 47 9 47 C8.98598145 45.66207397 8.98598145 45.66207397 8.97167969 44.29711914 C8.92733282 40.94740903 8.86557497 37.59891591 8.79248047 34.24975586 C8.76447537 32.80781528 8.74316032 31.36572702 8.72900391 29.92358398 C8.64235321 21.59067556 8.36668766 14.36030351 4 7 C3.62166016 6.31292969 3.24332031 5.62585938 2.85351562 4.91796875 C1.93100483 3.2623476 0.97001699 1.6282428 0 0 Z " fill="#C9A200" transform="translate(351,161)"/>
<path d="M0 0 C2.64 0 5.28 0 8 0 C8.09990539 3.96509139 8.17194834 7.92968163 8.21972656 11.89575195 C8.24940781 13.89756051 8.30027058 15.89901919 8.3515625 17.90039062 C8.44140141 26.81690201 7.5712108 33.14251417 2.25390625 40.375 C-3.45769086 45.86235427 -3.45769086 45.86235427 -8 46 C-7.00101675 43.99307401 -5.99532635 41.99097016 -4.96484375 40 C-4.62582031 39.34 -4.28679687 38.68 -3.9375 38 C-3.59589844 37.34 -3.25429688 36.68 -2.90234375 36 C-0.97346239 31.7247305 -0.82205151 27.71487956 -0.68359375 23.046875 C-0.66281265 22.38665344 -0.64203156 21.72643188 -0.62062073 21.04620361 C-0.55549853 18.94756985 -0.49641498 16.84881628 -0.4375 14.75 C-0.39427921 13.32290453 -0.3506638 11.89582095 -0.30664062 10.46875 C-0.19985589 6.97929278 -0.09848434 3.48970247 0 0 Z " fill="#D31920" transform="translate(360,224)"/>
<path d="M0 0 C0.639375 0.66 1.27875 1.32 1.9375 2 C2.9550911 3.00329909 3.97646231 4.00276819 5 5 C5.98226562 5.97646484 5.98226562 5.97646484 6.984375 6.97265625 C12.23946748 11.95754008 17.11464789 14.80016729 24 17 C24.99 17.33 25.98 17.66 27 18 C37.1890181 19.08349477 45.77380176 15.81348646 54 10 C52.15222219 16.62120382 49.56395067 20.34648944 43.625 23.8125 C37.34937902 26.73679084 30.78262353 27.28976063 24 26 C16.93772419 22.87601829 11.78669082 17.14209061 6.5 11.6875 C5.26636719 10.43356445 5.26636719 10.43356445 4.0078125 9.15429688 C1.99814664 7.10957871 -0.00412487 5.05816637 -2 3 C-1.34 2.01 -0.68 1.02 0 0 Z " fill="#D31920" transform="translate(215,164)"/>
<path d="M0 0 C0.66 0 1.32 0 2 0 C2.47383077 8.56405249 1.7665259 14.98206351 -3.875 21.6875 C-9.39332657 27.63489732 -15.22506226 33.30321931 -21 39 C-23.31 37.02 -25.62 35.04 -28 33 C-25.0152505 29.99748413 -22.00330533 27.02643573 -18.96875 24.07421875 C-17.4789973 22.61215172 -15.98941808 21.14990791 -14.5 19.6875 C-13.38044922 18.6056543 -13.38044922 18.6056543 -12.23828125 17.50195312 C-6.97049758 12.30409579 -2.3707732 7.11231959 0 0 Z " fill="#CAA300" transform="translate(476,52)"/>
<path d="M0 0 C0.66 0 1.32 0 2 0 C3.42993164 1.45117188 3.42993164 1.45117188 5.09765625 3.46875 C8.99190626 8.04855763 13.16334082 12.27667712 17.4375 16.5 C18.16904297 17.22703125 18.90058594 17.9540625 19.65429688 18.703125 C21.43389824 20.47109499 23.21580918 22.23666378 25 24 C24.67 24.99 24.34 25.98 24 27 C18.86499404 22.68419732 13.96577597 18.20695841 9.1875 13.5 C8.52041016 12.86191406 7.85332031 12.22382813 7.16601562 11.56640625 C3.49270853 7.94128583 1.1327352 5.20576175 0 0 Z " fill="#CAA200" transform="translate(178,128)"/>
</svg>
