<?xml version="1.0" encoding="UTF-8"?>
<svg version="1.1" xmlns="http://www.w3.org/2000/svg" width="512" height="512">
<path d="M0 0 C6.85877069 3.8001297 10.69866537 8.54521485 13.1640625 15.94140625 C13.49695803 21.95310784 13.2505873 27.97575486 12.83203125 33.9765625 C11.46608589 54.03178979 14.92988306 70.05631159 28.23046875 85.7421875 C29.18759766 86.83080078 29.18759766 86.83080078 30.1640625 87.94140625 C31.3308601 89.31629514 32.49754092 90.69128316 33.6640625 92.06640625 C34.4890625 93.01515625 35.3140625 93.96390625 36.1640625 94.94140625 C40.13101347 93.57776685 43.42382646 91.60244579 46.93408203 89.36254883 C115.01745607 45.97374652 206.70039546 43.52805069 283.49609375 60.10449219 C314.76048862 67.23803489 344.8115966 79.53650943 371.1640625 97.94140625 C384.78946777 85.20461437 396.45599401 69.0117094 398.1640625 49.94140625 C398.19742031 43.73438322 397.75592682 37.54659817 397.328125 31.35742188 C396.60544403 20.71508424 396.45874788 13.53691553 403.4765625 5.19140625 C409.82687082 -0.12513095 413.91128958 -1.75322898 422.2265625 -1.44140625 C428.17423563 -0.66631055 431.7783829 1.55572665 435.9765625 5.75390625 C445.19317552 19.18382807 445.85290872 40.58992927 443.703125 56.3125 C438.85428835 81.4408829 425.36280623 101.16405561 408.234375 119.66015625 C405.78955175 122.3540747 403.47861729 125.13490776 401.1640625 127.94140625 C401.46586426 128.41336426 401.76766602 128.88532227 402.07861328 129.37158203 C408.36588073 139.26390104 414.12124899 148.89519579 418.1640625 159.94140625 C418.61394531 161.16859375 419.06382812 162.39578125 419.52734375 163.66015625 C432.01859625 199.55377713 428.57784924 241.27868623 412.46875 275.44140625 C386.61007615 327.56669096 334.05434125 357.07736697 281.01416016 374.96582031 C277.36604028 376.21456856 273.76422657 377.56112357 270.1640625 378.94140625 C270.793125 379.27011719 271.4221875 379.59882813 272.0703125 379.9375 C281.19216218 385.00672068 288.60909463 391.9126548 292.1640625 401.94140625 C297.37591156 420.39255004 291.9799784 439.80588466 282.8515625 456.12890625 C274.62264492 469.62504046 264.06497241 481.24370062 250.1640625 488.94140625 C249.40222656 489.36421875 248.64039063 489.78703125 247.85546875 490.22265625 C242.09705723 493.09672973 236.54948004 493.70269905 230.1640625 493.94140625 C229.9784375 494.78703125 229.7928125 495.63265625 229.6015625 496.50390625 C227.07215285 502.55249456 222.05015145 507.07790352 216.1640625 509.94140625 C209.74518825 512.01295203 200.6318179 512.27767453 194.2890625 509.87890625 C188.57410954 506.33563541 183.02418117 502.19791583 180.1640625 495.94140625 C180.1640625 495.28140625 180.1640625 494.62140625 180.1640625 493.94140625 C179.25140625 493.97234375 179.25140625 493.97234375 178.3203125 494.00390625 C163.16978836 493.64742333 151.24133144 484.42598995 141.1640625 473.94140625 C140.42671875 473.20019531 139.689375 472.45898438 138.9296875 471.6953125 C124.69719152 456.66292818 115.59458899 435.25281695 115.953125 414.421875 C116.93201576 402.9108448 121.16899345 393.35540946 129.6640625 385.50390625 C132.99779306 382.71169537 136.14616543 380.58977428 140.1640625 378.94140625 C135.56489226 377.17680378 130.94811433 375.51896647 126.27734375 373.953125 C103.34110389 366.17309543 80.24362794 356.67696206 60.1640625 342.94140625 C59.44138184 342.44737305 58.71870117 341.95333984 57.97412109 341.44433594 C46.10728168 333.22222383 35.34474699 324.17052694 25.1640625 313.94140625 C24.30425781 313.08160156 23.44445312 312.22179687 22.55859375 311.3359375 C15.83607586 304.23267523 10.4867231 296.11224978 5.1640625 287.94140625 C4.51308594 286.95398438 3.86210938 285.9665625 3.19140625 284.94921875 C-5.29156926 271.30689367 -10.71805513 255.64568746 -13.8359375 239.94140625 C-14.06023438 238.86246094 -14.28453125 237.78351563 -14.515625 236.671875 C-17.92073086 216.63772476 -17.10885818 194.7783379 -12.8359375 174.94140625 C-12.6191333 173.92868652 -12.6191333 173.92868652 -12.39794922 172.89550781 C-9.2263662 158.67079993 -3.60360671 145.85052162 3.4296875 133.18359375 C4.88222796 130.46825911 6.097761 127.82477256 7.1640625 124.94140625 C6.64199219 124.45414062 6.11992188 123.966875 5.58203125 123.46484375 C-14.05791304 104.54720915 -32.382204 77.9929533 -34.00390625 50.046875 C-34.23045753 16.20011303 -34.23045753 16.20011303 -24.8359375 4.94140625 C-17.75199472 -1.33294307 -9.03165483 -3.37132019 0 0 Z " fill="#CC4B4C" transform="translate(50.8359375,1.05859375)"/>
<path d="M0 0 C6.85877069 3.8001297 10.69866537 8.54521485 13.1640625 15.94140625 C13.49695803 21.95310784 13.2505873 27.97575486 12.83203125 33.9765625 C11.46608589 54.03178979 14.92988306 70.05631159 28.23046875 85.7421875 C29.18759766 86.83080078 29.18759766 86.83080078 30.1640625 87.94140625 C31.3308601 89.31629514 32.49754092 90.69128316 33.6640625 92.06640625 C34.4890625 93.01515625 35.3140625 93.96390625 36.1640625 94.94140625 C40.13101347 93.57776685 43.42382646 91.60244579 46.93408203 89.36254883 C115.01745607 45.97374652 206.70039546 43.52805069 283.49609375 60.10449219 C314.76048862 67.23803489 344.8115966 79.53650943 371.1640625 97.94140625 C384.78946777 85.20461437 396.45599401 69.0117094 398.1640625 49.94140625 C398.19742031 43.73438322 397.75592682 37.54659817 397.328125 31.35742188 C396.60544403 20.71508424 396.45874788 13.53691553 403.4765625 5.19140625 C409.82687082 -0.12513095 413.91128958 -1.75322898 422.2265625 -1.44140625 C428.17423563 -0.66631055 431.7783829 1.55572665 435.9765625 5.75390625 C445.19317552 19.18382807 445.85290872 40.58992927 443.703125 56.3125 C438.85428835 81.4408829 425.36280623 101.16405561 408.234375 119.66015625 C405.78955175 122.3540747 403.47861729 125.13490776 401.1640625 127.94140625 C401.46586426 128.41336426 401.76766602 128.88532227 402.07861328 129.37158203 C408.36588073 139.26390104 414.12124899 148.89519579 418.1640625 159.94140625 C418.61394531 161.16859375 419.06382812 162.39578125 419.52734375 163.66015625 C432.01859625 199.55377713 428.57784924 241.27868623 412.46875 275.44140625 C386.61007615 327.56669096 334.05434125 357.07736697 281.01416016 374.96582031 C277.36604028 376.21456856 273.76422657 377.56112357 270.1640625 378.94140625 C270.793125 379.27011719 271.4221875 379.59882813 272.0703125 379.9375 C281.19216218 385.00672068 288.60909463 391.9126548 292.1640625 401.94140625 C297.37591156 420.39255004 291.9799784 439.80588466 282.8515625 456.12890625 C274.62264492 469.62504046 264.06497241 481.24370062 250.1640625 488.94140625 C249.40222656 489.36421875 248.64039063 489.78703125 247.85546875 490.22265625 C242.09705723 493.09672973 236.54948004 493.70269905 230.1640625 493.94140625 C229.9784375 494.78703125 229.7928125 495.63265625 229.6015625 496.50390625 C227.07215285 502.55249456 222.05015145 507.07790352 216.1640625 509.94140625 C209.74518825 512.01295203 200.6318179 512.27767453 194.2890625 509.87890625 C188.57410954 506.33563541 183.02418117 502.19791583 180.1640625 495.94140625 C180.1640625 495.28140625 180.1640625 494.62140625 180.1640625 493.94140625 C179.25140625 493.97234375 179.25140625 493.97234375 178.3203125 494.00390625 C163.16978836 493.64742333 151.24133144 484.42598995 141.1640625 473.94140625 C140.42671875 473.20019531 139.689375 472.45898438 138.9296875 471.6953125 C124.69719152 456.66292818 115.59458899 435.25281695 115.953125 414.421875 C116.93201576 402.9108448 121.16899345 393.35540946 129.6640625 385.50390625 C132.99779306 382.71169537 136.14616543 380.58977428 140.1640625 378.94140625 C135.56489226 377.17680378 130.94811433 375.51896647 126.27734375 373.953125 C103.34110389 366.17309543 80.24362794 356.67696206 60.1640625 342.94140625 C59.44138184 342.44737305 58.71870117 341.95333984 57.97412109 341.44433594 C46.10728168 333.22222383 35.34474699 324.17052694 25.1640625 313.94140625 C24.30425781 313.08160156 23.44445312 312.22179687 22.55859375 311.3359375 C15.83607586 304.23267523 10.4867231 296.11224978 5.1640625 287.94140625 C4.51308594 286.95398438 3.86210938 285.9665625 3.19140625 284.94921875 C-5.29156926 271.30689367 -10.71805513 255.64568746 -13.8359375 239.94140625 C-14.06023438 238.86246094 -14.28453125 237.78351563 -14.515625 236.671875 C-17.92073086 216.63772476 -17.10885818 194.7783379 -12.8359375 174.94140625 C-12.6191333 173.92868652 -12.6191333 173.92868652 -12.39794922 172.89550781 C-9.2263662 158.67079993 -3.60360671 145.85052162 3.4296875 133.18359375 C4.88222796 130.46825911 6.097761 127.82477256 7.1640625 124.94140625 C6.64199219 124.45414062 6.11992188 123.966875 5.58203125 123.46484375 C-14.05791304 104.54720915 -32.382204 77.9929533 -34.00390625 50.046875 C-34.23045753 16.20011303 -34.23045753 16.20011303 -24.8359375 4.94140625 C-17.75199472 -1.33294307 -9.03165483 -3.37132019 0 0 Z M45.72265625 137.04296875 C27.05920802 158.18537881 19.77742212 183.51695009 19.8515625 211.37890625 C19.83544922 212.58611328 19.81933594 213.79332031 19.80273438 215.03710938 C19.79652962 226.63378912 21.94770107 237.61721968 25.9140625 248.50390625 C26.29921021 249.56967896 26.29921021 249.56967896 26.69213867 250.65698242 C32.66217352 266.65308483 42.5414575 279.60589054 54.1640625 291.94140625 C54.98777344 292.84439453 54.98777344 292.84439453 55.828125 293.765625 C65.08430699 303.54617197 76.76271372 310.93282983 88.1640625 317.94140625 C88.89020752 318.40039307 89.61635254 318.85937988 90.36450195 319.33227539 C96.99009381 323.44132989 103.84724966 326.7377911 110.9765625 329.87890625 C112.16000244 330.40105713 113.34344238 330.92320801 114.56274414 331.46118164 C124.9093683 335.95398732 135.33024353 339.80614843 146.1640625 342.94140625 C147.3698999 343.29041992 147.3698999 343.29041992 148.60009766 343.64648438 C204.6422856 359.47493577 263.64688649 350.26907048 314.70825195 322.51171875 C346.41383325 304.71640035 373.65210757 280.58322396 385.6640625 245.44140625 C385.91961914 244.69987305 386.17517578 243.95833984 386.43847656 243.19433594 C387.91434392 238.60482436 388.20941907 234.79455931 388.1640625 229.94140625 C388.65132813 228.62849609 388.65132813 228.62849609 389.1484375 227.2890625 C390.73936581 222.04511802 390.45953748 216.82665516 390.4140625 211.37890625 C390.40584473 210.20521484 390.39762695 209.03152344 390.38916016 207.82226562 C390.01013358 178.52717934 378.96927071 155.17054799 358.703125 134.421875 C327.55518228 104.8778961 281.42050601 93.96918726 240.1640625 88.94140625 C239.34905273 88.83699219 238.53404297 88.73257813 237.69433594 88.625 C174.44079924 80.63933576 92.1729212 88.90728055 45.72265625 137.04296875 Z " fill="#D65E71" transform="translate(50.8359375,1.05859375)"/>
<path d="M0 0 C2.07349642 -0.0096509 4.14597534 -0.0407406 6.21923828 -0.07226562 C20.89638868 -0.19300821 34.13150387 3.13950307 47.97314453 7.92773438 C49.2811236 8.37145874 50.58939742 8.81431513 51.89794922 9.25634766 C57.9157534 11.29614954 63.9139406 13.38781612 69.89501953 15.53320312 C104.85229939 28.06169439 130.51596295 26.07258398 165.04516602 12.5 C202.49840626 -2.2150344 233.40184752 -1.91017956 271.47314453 10.24023438 C271.772239 15.92302923 270.81968242 20.38061448 268.97314453 25.74023438 C268.70614746 26.52342041 268.43915039 27.30660645 268.1640625 28.11352539 C262.27839051 44.71676742 252.51964338 58.48511795 240.47314453 71.24023438 C239.81056641 71.96726562 239.14798828 72.69429688 238.46533203 73.44335938 C218.0663951 95.00573378 189.68168629 107.72917308 162.47314453 118.24023438 C161.80492676 118.49933594 161.13670898 118.7584375 160.44824219 119.02539062 C105.2547354 139.99442984 47.66171859 134.10253184 -5.52685547 110.24023438 C-10.96348966 107.75725742 -16.26843933 105.07875804 -21.52685547 102.24023438 C-22.68830078 101.62921875 -23.84974609 101.01820313 -25.04638672 100.38867188 C-52.414365 85.46068372 -78.32815074 61.91060336 -89.52685547 32.24023438 C-89.90392927 30.58291599 -90.25341143 28.91776746 -90.52685547 27.24023438 C-85.96435386 24.93135066 -81.3924856 22.64262527 -76.81005859 20.37353516 C-75.35104196 19.64933122 -73.89381877 18.92149536 -72.43896484 18.18896484 C-49.40964219 6.62423977 -25.84219635 0.07233645 0 0 Z " fill="#F2D45A" transform="translate(167.52685546875,220.759765625)"/>
<path d="M0 0 C5.90766229 3.49311982 9.62921614 8.84560734 11.5625 15.375 C17.63480892 43.08242281 14.39390415 69.71239135 -0.94921875 93.70703125 C-7.54648302 103.62536733 -15.30014018 112.69624326 -23.4375 121.375 C-23.953125 121.94347656 -24.46875 122.51195313 -25 123.09765625 C-26.3125 124.5 -26.3125 124.5 -28.4375 126.375 C-29.4275 126.375 -30.4175 126.375 -31.4375 126.375 C-33.453125 124.21484375 -33.453125 124.21484375 -35.6875 121.3125 C-42.45921104 112.78798273 -49.9261078 106.16256593 -58.4375 99.375 C-56.89010334 95.70521776 -54.63455332 93.34160576 -51.875 90.5 C-43.86376921 81.81633594 -36.8465685 71.80099881 -33.4375 60.375 C-33.20289063 59.60929687 -32.96828125 58.84359375 -32.7265625 58.0546875 C-30.57118602 49.12527064 -31.74096152 39.91192131 -32.28955078 30.83935547 C-32.93050919 20.16306151 -33.17573292 13.00965536 -26.125 4.625 C-18.30285376 -1.92377359 -9.82071636 -4.4267623 0 0 Z " fill="#802D40" transform="translate(480.4375,1.625)"/>
<path d="M0 0 C8.92531325 6.32100631 14.94352504 14.38320995 17.375 25.125 C17.62050117 26.74480152 17.83114597 28.37042457 18 30 C18.07089844 30.680625 18.14179688 31.36125 18.21484375 32.0625 C19.29670413 54.91139126 7.46254745 76.18734324 -7.34375 92.59765625 C-12.9820998 98.51257068 -18.8546456 103.04322054 -26 107 C-26.76183594 107.4228125 -27.52367187 107.845625 -28.30859375 108.28125 C-34.06700527 111.15532348 -39.61458246 111.7612928 -46 112 C-45.84144531 110.99195313 -45.68289063 109.98390625 -45.51953125 108.9453125 C-44.86274059 103.68408574 -44.84534905 98.43226641 -44.76025391 93.13623047 C-44.52641755 78.63879767 -43.65920586 64.29362239 -42.125 49.875 C-42.04381927 49.09396912 -41.96263855 48.31293823 -41.8789978 47.50823975 C-38.08368975 11.45019715 -38.08368975 11.45019715 -26.51171875 1.6953125 C-22.59376728 -0.94915241 -18.58267675 -2.04230762 -14 -3 C-13.33871094 -3.21527344 -12.67742187 -3.43054688 -11.99609375 -3.65234375 C-7.66549419 -4.4065969 -3.71971479 -2.01973052 0 0 Z " fill="#802D40" transform="translate(327,383)"/>
<path d="M0 0 C9.39064299 6.81281942 12.48209437 14.32927826 14.28515625 25.54296875 C14.61762927 27.86044733 14.93875453 30.17957514 15.25 32.5 C15.50487183 34.36374268 15.50487183 34.36374268 15.76489258 36.26513672 C18.23610824 54.7369696 19.45278098 73.01891193 19.84643555 91.63916016 C19.86259918 92.35094421 19.87876282 93.06272827 19.89541626 93.79608154 C19.93861345 95.74141718 19.97645006 97.68686976 20.01391602 99.63232422 C20.20008927 103.57940663 20.65097344 107.39923476 21.1875 111.3125 C8.41173496 111.74557678 -3.13215538 105.37515443 -12.3125 96.875 C-14.19055295 95.05754945 -16.00029249 93.19795542 -17.8125 91.3125 C-18.54984375 90.57128906 -19.2871875 89.83007812 -20.046875 89.06640625 C-34.27937098 74.03402193 -43.38197351 52.6239107 -43.0234375 31.79296875 C-42.0523031 20.37314759 -37.83709835 10.82355114 -29.5 2.9375 C-19.40782483 -5.32126335 -11.85518544 -5.88763142 0 0 Z " fill="#802D40" transform="translate(209.8125,383.6875)"/>
<path d="M0 0 C6.85877069 3.8001297 10.69866537 8.54521485 13.1640625 15.94140625 C13.49695803 21.95310784 13.2505873 27.97575486 12.83203125 33.9765625 C11.46730546 54.01388371 14.93566663 69.97856615 28.16015625 85.6875 C29.51510673 87.21148914 30.88271877 88.72429995 32.26171875 90.2265625 C32.91011719 90.93683594 33.55851562 91.64710937 34.2265625 92.37890625 C34.81566406 92.99636719 35.40476562 93.61382812 36.01171875 94.25 C36.39199219 94.80816406 36.77226563 95.36632812 37.1640625 95.94140625 C35.91313386 99.69419217 34.41548832 100.50087415 31.2890625 102.87890625 C23.03225218 109.46713039 15.86474402 117.01342475 10.1640625 125.94140625 C-6.40625571 118.51207677 -21.14602245 91.90024707 -27.8359375 75.94140625 C-34.89560908 56.6603073 -36.98325044 32.74028462 -29.8359375 12.94140625 C-27.01115354 6.86923287 -23.51758393 3.41352351 -17.8359375 -0.05859375 C-12.03255871 -1.99305335 -5.76264323 -2.15106931 0 0 Z " fill="#802D40" transform="translate(50.8359375,1.05859375)"/>
</svg>
