<?xml version="1.0" encoding="UTF-8"?>
<svg version="1.1" xmlns="http://www.w3.org/2000/svg" width="512" height="512">
<path d="M0 0 C8.29450683 7.58544837 15.71612905 15.64329125 22.64501953 24.50439453 C23.42232422 25.45314453 24.19962891 26.40189453 25.00048828 27.37939453 C47.44616345 55.35619792 61.74839238 89.48377517 68.64501953 124.50439453 C68.81018066 125.33970703 68.9753418 126.17501953 69.14550781 127.03564453 C73.70429516 151.47489336 73.33938171 178.51678012 69.98486328 203.10986328 C69.67724702 206.18249007 69.79706451 207.65114046 70.64501953 210.50439453 C71.49618016 221.98808632 70.11756729 232.17557691 64.64501953 242.50439453 C65.33853516 242.72095703 66.03205078 242.93751953 66.74658203 243.16064453 C70.40915654 244.85865751 73.10859663 247.27019608 76.02001953 250.00439453 C76.59510254 250.54338379 77.17018555 251.08237305 77.76269531 251.63769531 C92.97644905 266.23170915 100.77756028 285.82408074 101.21142578 306.68017578 C101.23903489 309.70075399 101.24051227 312.71934764 101.22143555 315.73999023 C101.20746093 318.8298505 101.24189531 321.91673627 101.27978516 325.00634766 C101.28073572 327.00179109 101.27888094 328.99723827 101.27392578 330.99267578 C101.28718399 331.90020096 101.3004422 332.80772614 101.31410217 333.74275208 C101.20674913 341.21006423 99.1171663 348.02521526 93.73146057 353.42182922 C86.63480826 359.29589474 79.57026816 360.56898813 70.64501953 360.50439453 C70.65612259 361.20881683 70.66722565 361.91323914 70.67866516 362.63900757 C70.77935428 369.3168984 70.85522917 375.9945737 70.90408039 382.67305565 C70.93004115 386.10561195 70.96518487 389.53753475 71.0222168 392.96972656 C71.08754527 396.92651466 71.11131192 400.88305712 71.13330078 404.84033203 C71.15910721 406.05739838 71.18491364 407.27446472 71.21150208 408.52841187 C71.21438494 417.3867978 69.5930509 424.4524676 63.27001953 430.94189453 C56.42474391 435.01646336 51.23061635 436.02434254 43.33251953 435.94189453 C41.93356445 435.94032349 41.93356445 435.94032349 40.50634766 435.9387207 C34.47943853 435.82732636 29.870012 434.95808287 24.44970703 432.19970703 C22.45917165 431.19495363 22.45917165 431.19495363 19.77001953 432.69189453 C19.06876953 433.29001953 18.36751953 433.88814453 17.64501953 434.50439453 C14.77018137 435.4443403 12.13784297 435.63280806 9.12548828 435.63720703 C8.26761719 435.63849609 7.40974609 435.63978516 6.52587891 435.64111328 C5.19266602 435.6353125 5.19266602 435.6353125 3.83251953 435.62939453 C2.9553125 435.63326172 2.07810547 435.63712891 1.17431641 435.64111328 C-2.74360724 435.63525251 -6.41639635 435.49552537 -10.30419922 434.93408203 C-13.38974381 434.26851088 -13.38974381 434.26851088 -16.35498047 435.50439453 C-19.74583931 435.78467872 -23.14130915 435.78192704 -26.54248047 435.81689453 C-27.46351563 435.84589844 -28.38455078 435.87490234 -29.33349609 435.90478516 C-35.85864233 435.96498878 -39.67620005 434.66138991 -45.35498047 431.50439453 C-48.08395213 431.99593536 -48.08395213 431.99593536 -50.35498047 433.50439453 C-55.25817632 436.1041397 -60.19128488 435.87180169 -65.60498047 435.87939453 C-66.50861328 435.90388672 -67.41224609 435.92837891 -68.34326172 435.95361328 C-75.45294447 435.98430256 -81.88404088 434.72638273 -87.24072266 429.75390625 C-92.28232933 424.27286438 -93.64640796 419.18684396 -93.76904297 411.79736328 C-93.79809219 410.70927116 -93.79809219 410.70927116 -93.82772827 409.59919739 C-93.88720155 407.29688031 -93.93377892 404.99451234 -93.97998047 402.69189453 C-94.01819004 401.12481621 -94.0572435 399.55775822 -94.09716797 397.99072266 C-94.19445541 394.16205629 -94.27427641 390.33358963 -94.35498047 386.50439453 C-98.97498047 387.49439453 -103.59498047 388.48439453 -108.35498047 389.50439453 C-108.30857422 391.57720703 -108.26216797 393.65001953 -108.21435547 395.78564453 C-108.18651702 397.81785147 -108.15883002 399.85006336 -108.13525391 401.88232422 C-108.11527417 403.28283926 -108.08808027 404.68327235 -108.05322266 406.08349609 C-107.83032215 415.27486407 -107.87945038 422.21141603 -114.06591797 429.52783203 C-114.61505859 429.97384766 -115.16419922 430.41986328 -115.72998047 430.87939453 C-116.27396484 431.34087891 -116.81794922 431.80236328 -117.37841797 432.27783203 C-123.22884999 435.90833728 -129.12762905 435.8402472 -135.79248047 435.81689453 C-136.70835937 435.83300781 -137.62423828 435.84912109 -138.56787109 435.86572266 C-144.3458242 435.8698705 -148.17358087 435.01173848 -153.35498047 432.50439453 C-156.44151286 432.68958647 -158.63388174 433.13829825 -161.38623047 434.53564453 C-165.81540002 435.98095249 -170.10096412 435.8329675 -174.72998047 435.81689453 C-175.65037109 435.83300781 -176.57076172 435.84912109 -177.51904297 435.86572266 C-184.83762851 435.87095022 -190.37233138 434.61349709 -196.10498047 429.75439453 C-196.93255859 429.08150391 -196.93255859 429.08150391 -197.77685547 428.39501953 C-201.86921558 423.49229108 -202.72818511 418.48995514 -202.64794922 412.25830078 C-202.64370438 411.60232407 -202.63945953 410.94634735 -202.63508606 410.27049255 C-202.61846826 408.20218542 -202.58085285 406.13490052 -202.54248047 404.06689453 C-202.52741158 402.65349728 -202.51372706 401.24008455 -202.50146484 399.82666016 C-202.47118813 396.3852069 -202.41244576 392.94592691 -202.35498047 389.50439453 C-209.28498047 388.01939453 -209.28498047 388.01939453 -216.35498047 386.50439453 C-216.38076172 388.79376953 -216.40654297 391.08314453 -216.43310547 393.44189453 C-216.47162396 395.68273713 -216.51675207 397.92335718 -216.5625 400.1640625 C-216.59055834 401.7098511 -216.61184753 403.25577914 -216.62597656 404.80175781 C-216.7935825 422.10986452 -216.7935825 422.10986452 -223.06591797 429.52783203 C-223.61505859 429.97384766 -224.16419922 430.41986328 -224.72998047 430.87939453 C-225.27396484 431.34087891 -225.81794922 431.80236328 -226.37841797 432.27783203 C-232.22884999 435.90833728 -238.12762905 435.8402472 -244.79248047 435.81689453 C-245.70835937 435.83300781 -246.62423828 435.84912109 -247.56787109 435.86572266 C-253.3458242 435.8698705 -257.17358087 435.01173848 -262.35498047 432.50439453 C-265.4443569 432.68975712 -267.6324308 433.13407043 -270.38232422 434.54345703 C-274.83341908 435.98231293 -279.14659541 435.75289786 -283.79248047 435.69189453 C-284.72125 435.69125 -285.65001953 435.69060547 -286.60693359 435.68994141 C-290.41824572 435.66552731 -293.99994153 435.56417772 -297.76513672 434.93017578 C-300.49077165 434.48206989 -301.73108896 434.83729327 -304.35498047 435.50439453 C-307.74735206 435.77257351 -311.14060482 435.7814337 -314.54248047 435.81689453 C-315.450625 435.84589844 -316.35876953 435.87490234 -317.29443359 435.90478516 C-323.17716461 435.95952782 -327.30174961 435.06564078 -332.49169922 432.25244141 C-334.51888266 431.18466129 -334.51888266 431.18466129 -337.16748047 432.69189453 C-337.88935547 433.29001953 -338.61123047 433.88814453 -339.35498047 434.50439453 C-343.96703702 436.00024614 -348.74260689 435.7668611 -353.54248047 435.81689453 C-354.450625 435.84589844 -355.35876953 435.87490234 -356.29443359 435.90478516 C-363.44688685 435.97134342 -369.81390034 434.73735529 -375.24047852 429.78295898 C-380.00441503 424.70727202 -381.61237761 419.4483389 -381.58203125 412.49902344 C-381.58188019 411.33827301 -381.58172913 410.17752258 -381.58157349 408.9815979 C-381.57125092 407.74388641 -381.56092834 406.50617493 -381.55029297 405.23095703 C-381.54746307 403.95207611 -381.54463318 402.67319519 -381.54171753 401.3555603 C-381.53244067 397.97219354 -381.51450229 394.58910127 -381.49230957 391.20581055 C-381.47177087 387.74676879 -381.46269873 384.28769857 -381.45263672 380.82861328 C-381.43061247 374.05379839 -381.39716165 367.27911229 -381.35498047 360.50439453 C-381.97154007 360.51250656 -382.58809967 360.52061859 -383.2233429 360.52897644 C-384.03288925 360.5352858 -384.84243561 360.54159515 -385.67651367 360.5480957 C-386.47869827 360.55620773 -387.28088287 360.56431976 -388.1073761 360.57267761 C-393.88891659 360.3970322 -398.90674941 357.43344842 -403.66748047 354.37939453 C-410.10792958 347.48961176 -412.11893756 340.23691335 -411.98388672 330.99267578 C-411.98629868 330.02138229 -411.98871063 329.05008881 -411.99119568 328.04936218 C-411.99022249 326.0064178 -411.97695633 323.9634453 -411.9519043 321.9206543 C-411.91775342 318.84150502 -411.93123689 315.76526024 -411.95068359 312.68603516 C-411.94142665 298.2482596 -410.51219686 285.23629942 -403.66748047 272.25439453 C-403.32644287 271.59310547 -402.98540527 270.93181641 -402.6340332 270.25048828 C-396.66048605 259.08143256 -387.78626959 249.67727258 -377.35498047 242.50439453 C-376.69498047 242.50439453 -376.03498047 242.50439453 -375.35498047 242.50439453 C-375.87898438 241.29203125 -375.87898438 241.29203125 -376.41357422 240.05517578 C-376.86861328 238.98654297 -377.32365234 237.91791016 -377.79248047 236.81689453 C-378.24494141 235.76115234 -378.69740234 234.70541016 -379.16357422 233.61767578 C-381.18284139 228.34109896 -381.49142836 223.77320282 -381.47998047 218.12939453 C-381.48384766 216.23060547 -381.48384766 216.23060547 -381.48779297 214.29345703 C-381.35498047 210.50439453 -381.35498047 210.50439453 -380.78930664 207.25146484 C-380.32526818 203.24805717 -380.67750978 199.70819773 -381.27294922 195.76220703 C-382.53364718 186.28928068 -382.7112391 176.92497734 -382.66748047 167.37939453 C-382.66532532 166.52755585 -382.66317017 165.67571716 -382.66094971 164.79806519 C-382.52341433 130.79780901 -375.13205938 98.74310867 -360.66748047 67.94189453 C-360.2038208 66.94730225 -359.74016113 65.95270996 -359.26245117 64.92797852 C-358.81474365 64.00315674 -358.36703613 63.07833496 -357.90576172 62.12548828 C-357.31275269 60.89463501 -357.31275269 60.89463501 -356.70776367 59.63891602 C-355.18244241 57.23215121 -353.80132344 55.9531624 -351.35498047 54.50439453 C-350.37271484 54.56240234 -349.39044922 54.62041016 -348.37841797 54.68017578 C-345.12649076 54.84130651 -345.12649076 54.84130651 -343.01904297 51.98486328 C-342.34615234 50.89818359 -341.67326172 49.81150391 -340.97998047 48.69189453 C-340.29162109 47.61294922 -339.60326172 46.53400391 -338.89404297 45.42236328 C-337.12171693 42.61197072 -337.12171693 42.61197072 -337.35498047 39.50439453 C-337.68498047 38.84439453 -338.01498047 38.18439453 -338.35498047 37.50439453 C-338.81300553 33.671161 -338.58206287 31.8867169 -336.58935547 28.53173828 C-335.76951172 27.51208984 -334.94966797 26.49244141 -334.10498047 25.44189453 C-333.66114014 24.88679199 -333.2172998 24.33168945 -332.76000977 23.75976562 C-327.59699907 17.39882194 -322.01455317 11.42195345 -316.35498047 5.50439453 C-315.71818359 4.82634766 -315.08138672 4.14830078 -314.42529297 3.44970703 C-309.48029441 -1.68457377 -303.92837803 -6.06752652 -298.35498047 -10.49560547 C-297.41138672 -11.26775391 -296.46779297 -12.03990234 -295.49560547 -12.83544922 C-264.75309528 -37.40556423 -228.07844398 -52.37530337 -189.35498047 -58.49560547 C-188.14382568 -58.69041504 -188.14382568 -58.69041504 -186.90820312 -58.88916016 C-118.81332766 -69.2846575 -50.58528517 -45.38340951 0 0 Z " fill="#020101" transform="translate(411.35498046875,68.49560546875)"/>
<path d="M0 0 C0.10957031 0.73605469 0.21914062 1.47210937 0.33203125 2.23046875 C1.3191135 9.68490347 1.3191135 9.68490347 5 16 C11.14968906 19.47804535 17.23556346 21.34535189 24.0625 23.0625 C33.77881205 25.53586235 41.22537062 27.66751966 48.5 34.8125 C49.62996454 35.90264628 50.76146004 36.99120807 51.89453125 38.078125 C52.69624756 38.84866211 52.69624756 38.84866211 53.51416016 39.63476562 C55.29751838 41.27336885 57.21701842 42.65796386 59.1875 44.0625 C62.70962361 47.06282752 63.16671077 50.40745529 63.75 54.8671875 C64.02271193 58.28460893 64.19753407 61.70138651 64.375 65.125 C64.83604014 72.37445883 66.20311664 77.96338378 71.1875 83.375 C77.64847628 87.10800852 84.51603529 89.1903198 92 88 C95.4648622 86.91338641 98.09548979 85.42087497 100.07641602 82.30908203 C102.42698662 77.42727049 104.3816727 72.50351841 106.125 67.375 C106.37636719 66.65054688 106.62773437 65.92609375 106.88671875 65.1796875 C107.13292969 64.468125 107.37914062 63.7565625 107.6328125 63.0234375 C107.9889563 61.99827026 107.9889563 61.99827026 108.35229492 60.95239258 C108.93831211 59.18594725 109.44111314 57.39242868 109.93359375 55.59765625 C111 53 111 53 112.71484375 51.78515625 C113.44832031 51.54667969 114.18179687 51.30820313 114.9375 51.0625 C115.81535156 50.753125 116.69320313 50.44375 117.59765625 50.125 C118.72042969 49.75375 119.84320313 49.3825 121 49 C123.43830978 48.17163695 125.87114989 47.33078727 128.29907227 46.47241211 C129.99323887 45.87397036 131.692949 45.29095834 133.39819336 44.72485352 C139.24601046 42.66918889 141.91585301 40.40045035 145.1875 35.0625 C146.2297438 32.4168042 146.61690031 29.80939772 147 27 C166.63883048 34.36020112 185.86223987 53.03851314 199 69 C199.75539063 69.86753906 200.51078125 70.73507813 201.2890625 71.62890625 C210.07493357 81.84282138 217.34171308 92.86129036 224 104.5625 C224.37390869 105.21702148 224.74781738 105.87154297 225.13305664 106.54589844 C227.21190117 110.28290907 228.70259088 113.93595166 230 118 C228.8354126 117.87882812 227.6708252 117.75765625 226.47094727 117.6328125 C222.1159475 117.18092065 217.76034404 116.73509229 213.40454102 116.29101562 C211.52579238 116.09863796 209.64720732 115.90465535 207.76879883 115.70898438 C205.05592465 115.42667838 202.34249847 115.15030803 199.62890625 114.875 C198.80040665 114.78750488 197.97190704 114.70000977 197.11830139 114.60986328 C187.2956484 113.35587853 187.2956484 113.35587853 177.875 115.375 C172.60678962 120.18510513 168.96359582 126.10512647 165.6953125 132.41015625 C161.04565051 140.90129971 157.11282884 146.43146135 147.65185547 149.54492188 C143.69188117 150.63089644 139.72439177 151.59120499 135.70507812 152.43115234 C132.04490614 153.20084555 128.47511359 154.17354396 124.875 155.1875 C123.84117187 155.44917969 122.80734375 155.71085938 121.7421875 155.98046875 C117.30792235 157.62910579 114.79411919 159.66188353 112.3737793 163.74023438 C110.20994233 169.07036506 110.62633067 174.7484868 110.68100548 180.41106224 C110.69956436 182.51973757 110.69665737 184.62743077 110.6879425 186.73616028 C110.66627141 192.72701449 110.67683309 198.71748567 110.71508789 204.70825195 C110.73707791 208.386572 110.729464 212.06392528 110.7046299 215.7422123 C110.70107471 217.13064566 110.70848901 218.51915867 110.72788048 219.90746117 C110.86400218 229.84934585 109.00509778 236.45425401 104 245 C98.6676178 258.33095551 103.21854028 271.37323259 108 284 C107.25234375 284.54269531 106.5046875 285.08539063 105.734375 285.64453125 C104.74953125 286.35996094 103.7646875 287.07539063 102.75 287.8125 C101.77546875 288.52019531 100.8009375 289.22789062 99.796875 289.95703125 C97.51810991 291.62154821 95.25234178 293.30001823 93 295 C92.40832031 294.46890625 91.81664062 293.9378125 91.20703125 293.390625 C90.41683594 292.68421875 89.62664062 291.9778125 88.8125 291.25 C88.03519531 290.55390625 87.25789063 289.8578125 86.45703125 289.140625 C84.02403551 287.02094032 81.53345537 284.9979648 79 283 C79.34933594 282.20335937 79.69867188 281.40671875 80.05859375 280.5859375 C80.74115234 278.99652344 80.74115234 278.99652344 81.4375 277.375 C82.11619141 275.80878906 82.11619141 275.80878906 82.80859375 274.2109375 C86.68762051 263.75664242 85.68971126 252.36170794 82 242 C80.29334372 238.42636518 78.29947725 235.22035796 76 232 C75.49726563 231.28972656 74.99453125 230.57945312 74.4765625 229.84765625 C67.53821448 221.03087743 56.98579032 215.7174968 46 214 C32.44136857 212.70261074 19.98641036 215.91387587 9 224 C1.7182076 230.39766246 -4.02134771 239.42514237 -6 249 C-12.41688675 249.10349817 -18.62694402 248.74507544 -25 248 C-25.268125 247.24976563 -25.53625 246.49953125 -25.8125 245.7265625 C-30.32769825 233.93357759 -36.81791759 225.17395446 -48 219 C-51.60538764 217.4295257 -55.23133808 216.11976217 -59 215 C-59.61746094 214.79761719 -60.23492187 214.59523437 -60.87109375 214.38671875 C-63.16959247 213.89195286 -63.16959247 213.89195286 -66.23046875 214.10546875 C-80.74888095 214.40644274 -92.54188901 207.98564397 -105 201 C-106.94090826 199.05909174 -106.39919435 195.52706098 -106.5625 192.9375 C-106.64628906 191.64714844 -106.73007813 190.35679687 -106.81640625 189.02734375 C-106.87699219 188.02832031 -106.93757813 187.02929688 -107 186 C-92.4130836 179.32243383 -92.4130836 179.32243383 -87 180 C-84.12325046 181.4222217 -81.48409176 183.16530384 -78.8125 184.9375 C-77.3817854 185.86370616 -75.95080807 186.78950664 -74.51953125 187.71484375 C-73.89151611 188.12855225 -73.26350098 188.54226074 -72.61645508 188.96850586 C-68.50247778 191.5937217 -64.78076833 191.76820458 -60 191 C-54.0545858 188.31912272 -49.83552378 184.03807276 -45.74609375 179.0703125 C-43.93246125 176.9199205 -42.00978397 174.96735091 -40 173 C-36.77722055 169.8331069 -33.81085437 166.53729386 -30.93359375 163.0546875 C-25.45425726 157.23220064 -20.01115654 153.72216885 -12.625 150.6875 C-11.01230501 150.00559669 -9.40028663 149.32209021 -7.7890625 148.63671875 C-7.08475098 148.34498779 -6.38043945 148.05325684 -5.65478516 147.75268555 C-3.99969396 147.11665532 -3.99969396 147.11665532 -3 146 C-2.92794489 144.31391034 -2.91613932 142.62499341 -2.9375 140.9375 C-2.94652344 140.01839844 -2.95554688 139.09929687 -2.96484375 138.15234375 C-2.97644531 137.44207031 -2.98804688 136.73179687 -3 136 C-10.01516241 134.50429909 -14.5438497 135.67381174 -21.0625 138.5 C-22.43752686 139.09155884 -22.43752686 139.09155884 -23.84033203 139.69506836 C-33.5270248 144.20182458 -40.13907567 150.98426662 -47 159 C-48.08474609 160.21816406 -48.08474609 160.21816406 -49.19140625 161.4609375 C-50.28849219 162.70282897 -51.37376993 163.95535807 -52.44140625 165.22265625 C-54.94387708 168.07635106 -57.67408455 170.69573445 -60.3984375 173.3359375 C-62.08628724 174.92422733 -62.08628724 174.92422733 -63 177 C-65.8843955 176.39451074 -68.06683524 175.52127007 -70.56640625 173.96875 C-71.5419043 173.37126953 -71.5419043 173.37126953 -72.53710938 172.76171875 C-73.20548828 172.34535156 -73.87386719 171.92898437 -74.5625 171.5 C-82.31911701 166.69580576 -88.36901464 164.47135762 -97.51416016 166.57958984 C-99.98709747 167.36501807 -102.39470404 168.24648836 -104.8125 169.1875 C-105.63169922 169.47947266 -106.45089844 169.77144531 -107.29492188 170.07226562 C-113.02354976 172.22919839 -116.85979823 174.73473748 -120.29296875 179.97265625 C-123.15655261 188.1837061 -120.85350479 199.06768258 -118 207 C-114.88212571 212.14449258 -110.46550611 214.21339621 -105.25 216.8125 C-104.45722656 217.21919922 -103.66445312 217.62589844 -102.84765625 218.04492188 C-100.90347179 219.04043801 -98.9545175 220.02497244 -97 221 C-99.80804268 223.96404505 -102.18315774 226.44499019 -106 228 C-106.44988281 227.55269531 -106.89976563 227.10539063 -107.36328125 226.64453125 C-116.36015885 218.18854809 -126.70005164 214.74749909 -138.7734375 213.453125 C-139.56927246 213.36708008 -140.36510742 213.28103516 -141.18505859 213.19238281 C-141.78398926 213.12889648 -142.38291992 213.06541016 -143 213 C-143.03440186 212.30962646 -143.06880371 211.61925293 -143.10424805 210.90795898 C-143.27506209 207.74935576 -143.4809684 204.59396086 -143.6875 201.4375 C-143.74099609 200.35146484 -143.79449219 199.26542969 -143.84960938 198.14648438 C-144.3068559 191.60587105 -144.87564657 186.45974122 -150 182 C-153.14248086 179.89438009 -156.41096937 178.20872922 -159.8125 176.5625 C-160.69615234 176.11712891 -161.57980469 175.67175781 -162.49023438 175.21289062 C-164.65275248 174.12578693 -166.82199112 173.05562683 -169 172 C-167.12982035 151.11589728 -160.49327458 128.18923933 -149.28125 110.25 C-147.23516838 106.65688105 -147.66577437 104.07755273 -148 100 C-148.66 99.34 -149.32 98.68 -150 98 C-149.7062279 93.78687819 -147.99280366 91.12514105 -145.5625 87.75 C-144.94503906 86.87859375 -144.32757813 86.0071875 -143.69140625 85.109375 C-142 83 -142 83 -140 82 C-138.76121094 82.11085938 -137.52242187 82.22171875 -136.24609375 82.3359375 C-133.73940632 82.36194869 -132.43534252 82.30602899 -130.36767578 80.85253906 C-128.81010504 79.18173789 -127.43097679 77.45385291 -126.0625 75.625 C-125.02168102 74.32744458 -123.98000921 73.03057281 -122.9375 71.734375 C-122.43605469 71.09435547 -121.93460938 70.45433594 -121.41796875 69.79492188 C-106.08774935 50.38931358 -81.76816491 27.92272164 -58 20 C-59.60148455 25.57352816 -62.20168049 30.42314012 -64.9375 35.5 C-66.24589025 37.94918466 -67.5529687 40.39875185 -68.84716797 42.85546875 C-69.78893914 44.60737853 -70.79404436 46.32511489 -71.81640625 48.03125 C-74.99834962 56.01236208 -72.27056462 63.83492503 -69.8125 71.6875 C-69.52052734 72.69361328 -69.22855469 73.69972656 -68.92773438 74.73632812 C-66.27096671 83.40367552 -63.07219858 88.27267908 -55.02270508 92.72949219 C-54.2933374 93.10750977 -53.56396973 93.48552734 -52.8125 93.875 C-52.05799561 94.26848633 -51.30349121 94.66197266 -50.52612305 95.06738281 C-44.9769368 97.81727453 -40.21061812 99.53155049 -34 98 C-29.17703535 96.30303096 -26.9162318 94.12871399 -24 90 C-22.56283712 86.64461291 -22.56283712 86.64461291 -21.421875 82.94921875 C-21.09742401 81.96100883 -21.09742401 81.96100883 -20.76641846 80.95283508 C-20.08426603 78.86749184 -19.41695183 76.77774822 -18.75 74.6875 C-18.2874341 73.26465637 -17.82390187 71.8421265 -17.359375 70.41992188 C-16.22838661 66.95017236 -15.110646 63.47632197 -14 60 C-8.32225013 60.23625818 -2.66573315 60.5702074 3 61 C3.92458008 61.06493652 4.84916016 61.12987305 5.80175781 61.19677734 C8.64540963 61.4165273 11.47627499 61.70018815 14.3125 62 C15.66347778 62.09535034 15.66347778 62.09535034 17.04174805 62.19262695 C23.10089838 62.91687173 23.10089838 62.91687173 25.25244141 65.50878906 C26.38773938 67.95560326 27.17785898 70.4294954 28 73 C28.76893278 75.0416571 29.56436653 77.07213777 30.35847473 79.10412598 C31.5524433 82.17833037 32.70406774 85.26773948 33.85595703 88.35791016 C34.75417712 90.76117625 35.66410014 93.15981257 36.57421875 95.55859375 C37.14916188 97.09608348 37.72340572 98.63383493 38.296875 100.171875 C38.56868591 100.88341736 38.84049683 101.59495972 39.12054443 102.32806396 C40.47507333 106.00407516 41.33008842 109.07137544 41 113 C40.31897217 113.28721924 39.63794434 113.57443848 38.9362793 113.87036133 C35.85011461 115.17690704 32.76881317 116.49455582 29.6875 117.8125 C28.61564453 118.26431641 27.54378906 118.71613281 26.43945312 119.18164062 C25.41142578 119.62314453 24.38339844 120.06464844 23.32421875 120.51953125 C22.37635498 120.92276611 21.42849121 121.32600098 20.4519043 121.74145508 C18.08278013 122.95750955 16.57638818 123.86140112 15 126 C15.19137484 131.04565002 15.19137484 131.04565002 18 135 C24.92543764 136.00801518 30.41411878 133.05593111 36.625 130.25 C37.64851562 129.8065625 38.67203125 129.363125 39.7265625 128.90625 C49.15300148 124.94503987 49.15300148 124.94503987 55 117 C56.004347 108.71228554 54.43643459 101.70359053 51.4921875 94.01171875 C51.12908478 93.02428177 50.76598206 92.03684479 50.39187622 91.01948547 C49.62615344 88.95144868 48.85087116 86.88692806 48.06640625 84.82592773 C46.87470038 81.68671073 45.72064242 78.53544059 44.5703125 75.38085938 C43.81730026 73.36115903 43.06216372 71.34224915 42.3046875 69.32421875 C41.7933577 67.92558846 41.7933577 67.92558846 41.271698 66.498703 C38.86998363 60.26869821 35.9960077 54.33318616 30.03196716 50.85090637 C26.91295326 49.54478841 23.67264599 49.29172317 20.33984375 48.9296875 C19.22217369 48.80075607 19.22217369 48.80075607 18.08192444 48.66921997 C16.50465948 48.4891629 14.92695882 48.31288771 13.34887695 48.14013672 C10.96892015 47.87845472 8.59097937 47.60230868 6.21289062 47.32421875 C-7.88655355 45.06607785 -7.88655355 45.06607785 -21.4375 47.5625 C-28.01272448 53.81698182 -30.04292277 62.52968849 -32.75 70.9375 C-33.16466137 72.20661019 -33.58002036 73.47549266 -33.99609375 74.74414062 C-35.00426296 77.82726276 -36.00532725 80.91250266 -37 84 C-43.25524102 82.77750079 -48.3047653 81.56519175 -53 77 C-56.28535566 70.70569392 -60.08919876 61.35875122 -58.3203125 54.2800293 C-56.60186353 50.01091651 -54.63992318 45.89597696 -52.60546875 41.76953125 C-52.17623611 40.89729416 -51.74700348 40.02505707 -51.30476379 39.12638855 C-50.39844254 37.29055289 -49.48975949 35.45588153 -48.57885742 33.62231445 C-47.18999348 30.81753552 -45.82061633 28.00375359 -44.45117188 25.18945312 C-43.5662964 23.40305477 -42.68026752 21.6172272 -41.79296875 19.83203125 C-41.3875737 18.99138626 -40.98217865 18.15074127 -40.5644989 17.28462219 C-37.70557422 11.6098233 -35.39998597 9.22919467 -29.32446289 7.03271484 C-27.9128186 6.62593506 -27.9128186 6.62593506 -26.47265625 6.2109375 C-25.43302734 5.90929688 -24.39339844 5.60765625 -23.32226562 5.296875 C-22.24654297 4.99265625 -21.17082031 4.6884375 -20.0625 4.375 C-18.99064453 4.06304688 -17.91878906 3.75109375 -16.81445312 3.4296875 C-4.87707099 0 -4.87707099 0 0 0 Z " fill="#7CABDB" transform="translate(217,27)"/>
<path d="M0 0 C0.495 0.99 0.495 0.99 1 2 C-0.15576172 4.67382812 -0.15576172 4.67382812 -1.9296875 8.03125 C-2.39436935 8.91882996 -2.39436935 8.91882996 -2.86843872 9.82434082 C-3.86317848 11.72025587 -4.86887885 13.61010433 -5.875 15.5 C-6.5463079 16.77435268 -7.21689018 18.04908788 -7.88671875 19.32421875 C-9.11513349 21.66065996 -10.34856802 23.9941743 -11.58544922 26.32617188 C-15.59965394 33.91394718 -14.13383299 40.71414941 -11.75585938 48.67382812 C-11.28889648 50.1655957 -11.28889648 50.1655957 -10.8125 51.6875 C-10.52052734 52.69361328 -10.22855469 53.69972656 -9.92773438 54.73632812 C-7.27096671 63.40367552 -4.07219858 68.27267908 3.97729492 72.72949219 C4.7066626 73.10750977 5.43603027 73.48552734 6.1875 73.875 C6.94200439 74.26848633 7.69650879 74.66197266 8.47387695 75.06738281 C14.0230632 77.81727453 18.78938188 79.53155049 25 78 C29.82296465 76.30303096 32.0837682 74.12871399 35 70 C36.43716288 66.64461291 36.43716288 66.64461291 37.578125 62.94921875 C37.79442566 62.29041214 38.01072632 61.63160553 38.23358154 60.95283508 C38.91573397 58.86749184 39.58304817 56.77774822 40.25 54.6875 C40.7125659 53.26465637 41.17609813 51.8421265 41.640625 50.41992188 C42.77161339 46.95017236 43.889354 43.47632197 45 40 C50.67774987 40.23625818 56.33426685 40.5702074 62 41 C62.92458008 41.06493652 63.84916016 41.12987305 64.80175781 41.19677734 C67.64540963 41.4165273 70.47627499 41.70018815 73.3125 42 C74.66347778 42.09535034 74.66347778 42.09535034 76.04174805 42.19262695 C82.10089838 42.91687173 82.10089838 42.91687173 84.25244141 45.50878906 C85.38773938 47.95560326 86.17785898 50.4294954 87 53 C87.76893278 55.0416571 88.56436653 57.07213777 89.35847473 59.10412598 C90.5524433 62.17833037 91.70406774 65.26773948 92.85595703 68.35791016 C93.75417712 70.76117625 94.66410014 73.15981257 95.57421875 75.55859375 C96.14916188 77.09608348 96.72340572 78.63383493 97.296875 80.171875 C97.56868591 80.88341736 97.84049683 81.59495972 98.12054443 82.32806396 C99.47507333 86.00407516 100.33008842 89.07137544 100 93 C99.31897217 93.28721924 98.63794434 93.57443848 97.9362793 93.87036133 C94.85011461 95.17690704 91.76881317 96.49455582 88.6875 97.8125 C87.61564453 98.26431641 86.54378906 98.71613281 85.43945312 99.18164062 C84.41142578 99.62314453 83.38339844 100.06464844 82.32421875 100.51953125 C81.37635498 100.92276611 80.42849121 101.32600098 79.4519043 101.74145508 C77.08902936 102.95430187 75.60567059 103.89690071 74 106 C73.74951364 109.12549017 73.74951364 109.12549017 74 112 C71.7101766 113.0044134 69.4183401 114.00367612 67.125 115 C66.47402344 115.28617187 65.82304687 115.57234375 65.15234375 115.8671875 C60.2265625 118 60.2265625 118 58 118 C58 119.98 58 121.96 58 124 C57.67 124 57.34 124 57 124 C56.67 121.36 56.34 118.72 56 116 C48.98483759 114.50429909 44.4561503 115.67381174 37.9375 118.5 C37.02081543 118.89437256 36.10413086 119.28874512 35.15966797 119.69506836 C25.4729752 124.20182458 18.86092433 130.98426662 12 139 C10.91525391 140.21816406 10.91525391 140.21816406 9.80859375 141.4609375 C8.71150781 142.70282897 7.62623007 143.95535807 6.55859375 145.22265625 C4.05612292 148.07635106 1.32591545 150.69573445 -1.3984375 153.3359375 C-3.08628724 154.92422733 -3.08628724 154.92422733 -4 157 C-6.8843955 156.39451074 -9.06683524 155.52127007 -11.56640625 153.96875 C-12.5419043 153.37126953 -12.5419043 153.37126953 -13.53710938 152.76171875 C-14.20548828 152.34535156 -14.87386719 151.92898437 -15.5625 151.5 C-23.31911701 146.69580576 -29.36901464 144.47135762 -38.51416016 146.57958984 C-40.98709747 147.36501807 -43.39470404 148.24648836 -45.8125 149.1875 C-46.63169922 149.47947266 -47.45089844 149.77144531 -48.29492188 150.07226562 C-54.02354976 152.22919839 -57.85979823 154.73473748 -61.29296875 159.97265625 C-64.15655261 168.1837061 -61.85350479 179.06768258 -59 187 C-55.88212571 192.14449258 -51.46550611 194.21339621 -46.25 196.8125 C-45.45722656 197.21919922 -44.66445312 197.62589844 -43.84765625 198.04492188 C-41.90347179 199.04043801 -39.9545175 200.02497244 -38 201 C-40.80804268 203.96404505 -43.18315774 206.44499019 -47 208 C-47.44988281 207.55269531 -47.89976563 207.10539063 -48.36328125 206.64453125 C-57.36015885 198.18854809 -67.70005164 194.74749909 -79.7734375 193.453125 C-80.56927246 193.36708008 -81.36510742 193.28103516 -82.18505859 193.19238281 C-82.78398926 193.12889648 -83.38291992 193.06541016 -84 193 C-84.03440186 192.30962646 -84.06880371 191.61925293 -84.10424805 190.90795898 C-84.27506209 187.74935576 -84.4809684 184.59396086 -84.6875 181.4375 C-84.74099609 180.35146484 -84.79449219 179.26542969 -84.84960938 178.14648438 C-85.3068559 171.60587105 -85.87564657 166.45974122 -91 162 C-94.14248086 159.89438009 -97.41096937 158.20872922 -100.8125 156.5625 C-101.69615234 156.11712891 -102.57980469 155.67175781 -103.49023438 155.21289062 C-105.65275248 154.12578693 -107.82199112 153.05562683 -110 152 C-108.12982035 131.11589728 -101.49327458 108.18923933 -90.28125 90.25 C-88.23516838 86.65688105 -88.66577437 84.07755273 -89 80 C-89.66 79.34 -90.32 78.68 -91 78 C-90.7062279 73.78687819 -88.99280366 71.12514105 -86.5625 67.75 C-85.94503906 66.87859375 -85.32757813 66.0071875 -84.69140625 65.109375 C-83 63 -83 63 -81 62 C-79.76121094 62.11085937 -78.52242187 62.22171875 -77.24609375 62.3359375 C-74.73940632 62.36194869 -73.43534252 62.30602899 -71.36767578 60.85253906 C-69.81010504 59.18173789 -68.43097679 57.45385291 -67.0625 55.625 C-66.02168102 54.32744458 -64.98000921 53.03057281 -63.9375 51.734375 C-63.43605469 51.09435547 -62.93460938 50.45433594 -62.41796875 49.79492188 C-46.00993323 29.02497057 -23.60137744 11.80068872 0 0 Z " fill="#26DF9C" transform="translate(158,47)"/>
<path d="M0 0 C8.39928719 4.91665591 13.90805637 11.98275895 16.8828125 21.32421875 C18.68173008 31.27692578 16.24514078 38.92789411 11.4296875 47.5625 C7.54043361 52.45184775 2.81696902 56.4454695 -2.7578125 59.3125 C-3.4178125 59.3125 -4.0778125 59.3125 -4.7578125 59.3125 C-4.83912713 60.74905854 -4.89714809 62.1869483 -4.9453125 63.625 C-4.98011719 64.42550781 -5.01492188 65.22601563 -5.05078125 66.05078125 C-4.93280339 68.36858067 -4.93280339 68.36858067 -3.46875 70.1015625 C-1.02928669 71.82812329 1.04077229 71.49734024 3.90234375 71.0390625 C8.44162729 69.62953539 12.31908503 66.94130022 16.2421875 64.3125 C32.03628177 74.88125841 41.38580639 86.93296535 46.2421875 105.3125 C46.50826813 106.26933434 46.50826813 106.26933434 46.77972412 107.24549866 C47.57488294 110.79949757 47.4264423 114.43209528 47.4453125 118.05859375 C47.45101257 118.90672134 47.45671265 119.75484894 47.46258545 120.62867737 C47.47201657 122.41983804 47.47856192 124.21101592 47.48242188 126.00219727 C47.49214058 128.73679875 47.5231866 131.47065246 47.5546875 134.20507812 C47.56121688 135.94791222 47.56646761 137.69075167 47.5703125 139.43359375 C47.5826593 140.2483165 47.5950061 141.06303925 47.60772705 141.90245056 C47.58956532 146.54725258 47.21192462 149.51432882 44.2421875 153.3125 C41.57629701 155.38597038 39.36134826 155.39184222 36.09765625 155.35546875 C34.82535156 155.34128906 33.55304688 155.32710937 32.2421875 155.3125 C32.22760498 154.15202148 32.21302246 152.99154297 32.19799805 151.79589844 C32.13998809 147.48682982 32.06275543 143.1782823 31.97973633 138.86962891 C31.94649966 137.00545718 31.91846377 135.14118513 31.89575195 133.27685547 C31.86218262 130.59559409 31.80986641 127.91525104 31.75390625 125.234375 C31.74751633 124.40194275 31.7411264 123.5695105 31.73454285 122.71185303 C31.64673105 119.24932955 31.54148877 116.88917937 29.92895508 113.78222656 C28.16895762 111.97255518 28.16895762 111.97255518 24.7421875 111.875 C21.36860888 112.00830122 21.36860888 112.00830122 19.54709625 113.55560398 C17.87803267 115.80278882 17.86609502 117.07585021 17.86364746 119.8603363 C17.85544479 120.79265076 17.84724213 121.72496521 17.83879089 122.68553162 C17.84493912 123.70639359 17.85108734 124.72725555 17.85742188 125.77905273 C17.8520491 126.85571198 17.84667633 127.93237122 17.84114075 129.04165649 C17.83134695 131.38247823 17.82842341 133.72333635 17.83149719 136.06417656 C17.83596203 139.76643678 17.82201241 143.46821566 17.80310059 147.17042542 C17.76625705 155.03027091 17.75244474 162.89008209 17.7421875 170.75 C17.7303047 179.85263965 17.70866014 188.95506757 17.66218567 198.05760384 C17.64857447 201.7093473 17.65279406 205.36079892 17.65759277 209.01255798 C17.64825465 211.24722673 17.63808646 213.48189221 17.62695312 215.71655273 C17.63310135 216.73539047 17.63924957 217.75422821 17.64558411 218.80393982 C17.63738144 219.7390741 17.62917877 220.67420837 17.62072754 221.63768005 C17.62001503 222.4486486 17.61930252 223.25961714 17.61856842 224.09516048 C17.14825592 226.86587077 16.12739478 228.25819414 14.2421875 230.3125 C12.31274414 230.83007812 12.31274414 230.83007812 10.15234375 230.84375 C9.36794922 230.84890625 8.58355469 230.8540625 7.77539062 230.859375 C6.96005859 230.84390625 6.14472656 230.8284375 5.3046875 230.8125 C4.49322266 230.82796875 3.68175781 230.8434375 2.84570312 230.859375 C2.06001953 230.85421875 1.27433594 230.8490625 0.46484375 230.84375 C-0.60624634 230.83698242 -0.60624634 230.83698242 -1.69897461 230.83007812 C-4.75707311 230.06129254 -5.83111351 228.80288387 -7.7578125 226.3125 C-8.14036153 223.56356352 -8.282306 221.2157869 -8.24023438 218.47045898 C-8.24414688 217.68465454 -8.24805939 216.8988501 -8.25209045 216.0892334 C-8.25806049 214.38629902 -8.25490432 212.68331358 -8.2436676 210.98040581 C-8.22641984 208.28630987 -8.23390435 205.59328822 -8.2479248 202.89918518 C-8.27327748 197.18271707 -8.26774987 191.46650152 -8.2578125 185.75 C-8.24629922 179.12251123 -8.24736163 172.495543 -8.28187561 165.86812019 C-8.28898745 163.21162627 -8.27227151 160.55595026 -8.25476074 157.89952087 C-8.26046652 156.27472488 -8.26728277 154.64993227 -8.27539062 153.02514648 C-8.26407608 152.28480667 -8.25276154 151.54446686 -8.24110413 150.7816925 C-8.28030694 147.50414286 -8.31008607 145.77859733 -10.63171387 143.36170959 C-13.34103375 142.02468582 -14.77811525 141.71656055 -17.7578125 142.3125 C-20.71968985 145.15543098 -21.69101664 146.82797102 -22.25660706 150.93069458 C-22.27666477 152.34574409 -22.27511131 153.76120553 -22.25610352 155.17626953 C-22.26162231 155.95246643 -22.26714111 156.72866333 -22.27282715 157.52838135 C-22.28212701 159.20727132 -22.28226895 160.88623183 -22.27423286 162.56512833 C-22.26159415 165.2215015 -22.2728985 167.87683705 -22.29026794 170.53317261 C-22.31695374 175.21081673 -22.32256392 179.88820595 -22.32116699 184.56591797 C-22.31893696 192.06009141 -22.33297312 199.55395058 -22.37675285 207.04800034 C-22.38661103 209.66669918 -22.37786558 212.28490607 -22.36805725 214.90359497 C-22.37419943 216.50490647 -22.38111048 218.10621527 -22.38891602 219.70751953 C-22.38119675 220.43693756 -22.37347748 221.16635559 -22.36552429 221.9178772 C-22.41512205 226.83566901 -22.41512205 226.83566901 -24.1592865 229.26255798 C-27.33776275 231.35024111 -31.07630398 230.78183694 -34.7578125 230.75 C-35.57765625 230.76998047 -36.3975 230.78996094 -37.2421875 230.81054688 C-38.42554688 230.80958008 -38.42554688 230.80958008 -39.6328125 230.80859375 C-40.71175781 230.81137329 -40.71175781 230.81137329 -41.8125 230.81420898 C-44.6078155 230.09327859 -45.2621639 228.73209407 -46.7578125 226.3125 C-47.13698673 224.04221344 -47.13698673 224.04221344 -47.14308167 221.50842285 C-47.15272949 220.54422424 -47.16237732 219.58002563 -47.1723175 218.58660889 C-47.16774033 217.53515686 -47.16316315 216.48370483 -47.15844727 215.40039062 C-47.16542633 214.28766785 -47.1724054 213.17494507 -47.17959595 212.02850342 C-47.19962422 208.34184253 -47.19907275 204.65546056 -47.19921875 200.96875 C-47.21099081 198.40245814 -47.22435461 195.83617313 -47.23924255 193.26989746 C-47.27920024 185.8091831 -47.29880174 178.3485224 -47.31541443 170.88772583 C-47.33928419 160.77453025 -47.37917621 150.66146694 -47.43269157 140.54838562 C-47.44893692 136.78405583 -47.45279181 133.01985359 -47.45570374 129.25549316 C-47.46549008 126.92358182 -47.47575498 124.59167242 -47.48657227 122.25976562 C-47.48401932 121.22450745 -47.48146637 120.18924927 -47.47883606 119.12261963 C-47.59063322 102.96611675 -52.23808126 89.48799336 -59.7578125 75.3125 C-50.53229997 66.6815205 -50.53229997 66.6815205 -44.7578125 64.3125 C-44.2009375 64.745625 -43.6440625 65.17875 -43.0703125 65.625 C-37.70718372 69.57291499 -37.70718372 69.57291499 -31.3203125 70.875 C-30.1446875 70.689375 -28.9690625 70.50375 -27.7578125 70.3125 C-25.43031905 66.82125983 -25.25481934 65.42027749 -25.7578125 61.3125 C-27.75074087 58.70636291 -29.78593885 57.29499916 -32.5703125 55.5625 C-40.28846837 50.11438998 -44.59857338 43.51497149 -46.7578125 34.3125 C-48.02955974 24.65878231 -45.15912385 16.33173012 -39.62890625 8.45703125 C-29.67383246 -2.95285499 -13.80302914 -6.51683999 0 0 Z " fill="#E45266" transform="translate(379.7578125,257.6875)"/>
<path d="M0 0 C0.9178125 0.55429687 1.835625 1.10859375 2.78125 1.6796875 C4.02052238 2.41198482 5.26012354 3.14372593 6.5 3.875 C7.10070312 4.23980469 7.70140625 4.60460937 8.3203125 4.98046875 C19.10546131 11.29092816 32.82512837 12.01048672 44.84375 9.0546875 C51.03290926 6.75544376 56.56500399 3.72989922 62 0 C77.79409427 10.56875841 87.14361889 22.62046535 92 41 C92.17738708 41.63788956 92.35477417 42.27577911 92.53753662 42.93299866 C93.33269544 46.48699757 93.1842548 50.11959528 93.203125 53.74609375 C93.20882507 54.59422134 93.21452515 55.44234894 93.22039795 56.31617737 C93.22982907 58.10733804 93.23637442 59.89851592 93.24023438 61.68969727 C93.24995308 64.42429875 93.2809991 67.15815246 93.3125 69.89257812 C93.31902938 71.63541222 93.32428011 73.37825167 93.328125 75.12109375 C93.3404718 75.9358165 93.3528186 76.75053925 93.36553955 77.58995056 C93.34744328 82.21801069 93.01689652 85.2536225 90 89 C86.79619983 91.13586678 85.98060033 91.23132175 82.3125 91.125 C81.50425781 91.10695313 80.69601562 91.08890625 79.86328125 91.0703125 C79.24839844 91.04710937 78.63351562 91.02390625 78 91 C77.98541748 89.83952148 77.97083496 88.67904297 77.95581055 87.48339844 C77.89780059 83.17432982 77.82056793 78.8657823 77.73754883 74.55712891 C77.70431216 72.69295718 77.67627627 70.82868513 77.65356445 68.96435547 C77.61999512 66.28309409 77.56767891 63.60275104 77.51171875 60.921875 C77.50532883 60.08944275 77.4989389 59.2570105 77.49235535 58.39935303 C77.40454355 54.93682955 77.29930127 52.57667937 75.68676758 49.46972656 C73.92677012 47.66005518 73.92677012 47.66005518 70.5 47.5625 C67.12629423 47.69585607 67.12629423 47.69585607 65.30406761 49.24352455 C63.63541357 51.49106895 63.62843273 52.75686472 63.63491821 55.54110718 C63.62960587 56.47197647 63.62429352 57.40284576 63.61882019 58.36192322 C63.6281105 59.38121414 63.63740082 60.40050507 63.64697266 61.45068359 C63.64481247 62.52573654 63.64265228 63.60078949 63.64042664 64.7084198 C63.63733538 67.04598397 63.6409581 69.38356431 63.65044022 71.7211113 C63.66414033 75.41944803 63.65776342 79.11724585 63.64559937 82.81558228 C63.61458161 93.33151839 63.61952608 103.84733899 63.63964844 114.36328125 C63.65055385 120.79241649 63.6373998 127.22114752 63.60975266 133.65022659 C63.60430393 136.10224785 63.60839664 138.55430933 63.62215042 141.00629807 C63.64115604 144.43482396 63.62982367 147.86202492 63.61181641 151.29052734 C63.63182457 152.81339104 63.63182457 152.81339104 63.65223694 154.36701965 C63.59758569 159.04026705 63.52974046 161.28264968 60.68856812 165.1300354 C57.12185146 167.6107737 54.75143807 167.63532716 50.4375 167.5625 C49.13683594 167.56378906 47.83617187 167.56507813 46.49609375 167.56640625 C42.38572234 166.90048016 41.44486238 166.30410696 39 163 C38.62245692 160.2894218 38.48540982 157.98735978 38.53344727 155.28149414 C38.53114105 154.50865585 38.52883484 153.73581757 38.52645874 152.93955994 C38.52383186 151.26444172 38.53026204 149.58929022 38.54471016 147.91423225 C38.56660075 145.26158769 38.56287904 142.61008324 38.55223083 139.9573822 C38.53056236 133.36986995 38.54792965 126.78261095 38.57373047 120.19512939 C38.59513273 114.62756938 38.59707815 109.06074036 38.57081413 103.49319267 C38.56646354 100.88203996 38.59110077 98.2721572 38.61634827 95.66114807 C38.6110767 94.05672643 38.6043537 92.45230867 38.59594727 90.84790039 C38.61085709 90.12410187 38.62576691 89.40030334 38.64112854 88.65457153 C38.58611271 84.75284739 38.10285168 83.1277022 35.62290955 80.04856873 C33.19243202 77.86084438 33.19243202 77.86084438 30.4375 77.375 C26.86971767 78.28981598 25.95844913 79.92182098 24 83 C23.62482919 85.75352897 23.47465246 88.10191891 23.51757812 90.84790039 C23.51366562 91.622491 23.50975311 92.3970816 23.50572205 93.19514465 C23.49976031 94.87077587 23.50289314 96.54645902 23.5141449 98.22206306 C23.53142496 100.87451198 23.52389058 103.52587284 23.5098877 106.17832947 C23.48456138 111.80646071 23.49005646 117.43433493 23.5 123.0625 C23.51152236 129.58873955 23.5104143 136.11445035 23.47593689 142.64062309 C23.46883653 145.25331529 23.485526 147.86517219 23.50305176 150.47779846 C23.4973449 152.07903495 23.49052811 153.680268 23.48242188 155.28149414 C23.49373642 156.00731689 23.50505096 156.73313965 23.51670837 157.48095703 C23.47579139 160.85912879 23.22227231 162.69977475 21.18835449 165.44700623 C17.98799281 167.71818386 15.445209 167.56634808 11.5625 167.5625 C10.26441406 167.58441406 8.96632812 167.60632813 7.62890625 167.62890625 C2.97045626 166.82157531 1.80315282 165.79590142 -1 162 C-1.72943505 158.43097958 -1.65953736 154.92266999 -1.61181641 151.29052734 C-1.61748123 150.21196976 -1.62314606 149.13341217 -1.62898254 148.02217102 C-1.64247954 144.45973916 -1.62154477 140.89832484 -1.6015625 137.3359375 C-1.60706078 134.86161602 -1.61518366 132.38729909 -1.62582397 129.91299438 C-1.6487263 123.40061048 -1.64448059 116.88856205 -1.63201904 110.37615967 C-1.61223676 99.94476695 -1.62356953 89.51349361 -1.65787888 79.08214188 C-1.66400438 75.43306 -1.65069692 71.78439463 -1.63589478 68.13534546 C-1.63884144 65.90712373 -1.64249532 63.67890278 -1.64697266 61.45068359 C-1.63768234 60.43139267 -1.62839203 59.41210175 -1.61882019 58.36192322 C-1.62413254 57.43105392 -1.62944489 56.50018463 -1.63491821 55.54110718 C-1.63303308 54.73181448 -1.63114796 53.92252178 -1.6292057 53.08870506 C-2.09781144 50.44902268 -2.85393829 49.57357713 -5 48 C-8.5 47.41666667 -8.5 47.41666667 -12 48 C-14.01787348 49.75822816 -14.87689484 51.21523183 -15.29330444 53.86975098 C-15.44458547 56.22425076 -15.49360834 58.56258379 -15.51171875 60.921875 C-15.52966995 61.78186096 -15.54762115 62.64184692 -15.56611633 63.52789307 C-15.62020038 66.26854584 -15.65410863 69.00902465 -15.6875 71.75 C-15.72067479 73.61070128 -15.7551646 75.47137961 -15.79101562 77.33203125 C-15.87592569 81.88789528 -15.94274584 86.44370788 -16 91 C-17.43715572 91.04914801 -18.87479845 91.084189 -20.3125 91.11328125 C-21.11300781 91.13430908 -21.91351563 91.15533691 -22.73828125 91.17700195 C-26.13203661 90.91140689 -27.75289496 89.45777114 -30 87 C-31.27187151 83.18438547 -31.18199377 79.57515911 -31.203125 75.59765625 C-31.20882507 74.76471542 -31.21452515 73.9317746 -31.22039795 73.07359314 C-31.22984798 71.30582954 -31.23638194 69.53804833 -31.24023438 67.77026367 C-31.2498515 65.10367574 -31.28083661 62.4378885 -31.3125 59.77148438 C-31.43234167 40.74932203 -27.22449774 25.3065021 -14 11 C-9.63537983 6.71566549 -5.31769444 3.04533464 0 0 Z " fill="#FAAE9E" transform="translate(225,322)"/>
<path d="M0 0 C0.9178125 0.55429687 1.835625 1.10859375 2.78125 1.6796875 C4.02052238 2.41198482 5.26012354 3.14372593 6.5 3.875 C7.10070312 4.23980469 7.70140625 4.60460937 8.3203125 4.98046875 C19.10546131 11.29092816 32.82512837 12.01048672 44.84375 9.0546875 C51.03290926 6.75544376 56.56500399 3.72989922 62 0 C63.77616574 1.24241135 65.54574043 2.49424871 67.3125 3.75 C68.29863281 4.44609375 69.28476563 5.1421875 70.30078125 5.859375 C72.7109693 7.77078318 74.31860982 9.45209133 76 12 C75.45730469 13.05058594 74.91460937 14.10117187 74.35546875 15.18359375 C66.88516689 29.77807638 63.85868146 41.15193044 63.84228516 57.60668945 C63.83720444 58.73299271 63.83212372 59.85929596 63.82688904 61.01972961 C63.81623816 63.45049084 63.80759756 65.88126154 63.80076981 68.31203651 C63.7889264 72.15747241 63.76946392 76.00279875 63.74765015 79.84819031 C63.68618554 90.77611657 63.63161736 101.70402762 63.59863281 112.63208008 C63.57833668 119.32744356 63.54247854 126.02257276 63.49787521 132.71782494 C63.48369337 135.26833868 63.47498788 137.81888888 63.47182083 140.36944008 C63.46693211 143.92660957 63.4438305 147.48322554 63.41650391 151.0402832 C63.42101311 152.62453094 63.42101311 152.62453094 63.4256134 154.24078369 C63.40897392 155.69358482 63.40897392 155.69358482 63.39199829 157.17573547 C63.38868814 158.01578282 63.385378 158.85583017 63.38196754 159.7213335 C62.91072338 162.53258884 61.92380524 163.92502031 60 166 C57.94702148 166.50170898 57.94702148 166.50170898 55.62109375 166.49609375 C54.36329102 166.49706055 54.36329102 166.49706055 53.08007812 166.49804688 C52.20802734 166.47806641 51.33597656 166.45808594 50.4375 166.4375 C49.56158203 166.44458984 48.68566406 166.45167969 47.78320312 166.45898438 C42.9550672 166.41066585 42.9550672 166.41066585 41 166 C38.5591877 162.33878155 38.72746777 159.62552298 38.76049805 155.39501953 C38.75848389 154.62232727 38.75646973 153.84963501 38.75439453 153.05352783 C38.75084914 151.3756763 38.75161598 149.69781141 38.75617027 148.01996231 C38.76175959 145.36340162 38.75261118 142.70727818 38.7389679 140.05075073 C38.70182328 132.49784423 38.68330214 124.94508509 38.69458008 117.39208984 C38.70043331 112.77185718 38.68215948 108.15223866 38.64869118 103.5321312 C38.64073846 101.77231436 38.64201246 100.01243058 38.65271568 98.25262833 C38.66705354 95.78899725 38.65076291 93.32729432 38.62768555 90.86376953 C38.63945328 90.13839996 38.65122101 89.4130304 38.66334534 88.66567993 C38.59178561 84.76552931 38.09768486 83.12174727 35.62483215 80.0397644 C33.19258473 77.83038648 33.19258473 77.83038648 30.375 77.5 C27.44961685 78.11587014 26.72107603 78.55701343 25 81 C24.71624375 83.64431981 24.61372984 86.05329785 24.64697266 88.69677734 C24.64481247 89.47922318 24.64265228 90.26166901 24.64042664 91.06782532 C24.63733856 92.76696189 24.6409488 94.46612075 24.65044022 96.16523361 C24.66416222 98.85548881 24.65775094 101.54500495 24.64559937 104.23526001 C24.6146136 111.88377693 24.6195101 119.53212334 24.63964844 127.18066406 C24.65056737 131.85921549 24.6373717 136.53721238 24.60975266 141.2156868 C24.60431191 142.99784627 24.60837653 144.7800612 24.62215042 146.56217575 C24.64120501 149.05687605 24.62979701 151.54976436 24.61181641 154.04443359 C24.63182457 155.14651405 24.63182457 155.14651405 24.65223694 156.27085876 C24.59013683 160.14975988 24.10560971 161.86508096 21.68637085 164.95571899 C18.15075467 167.64626077 15.90628912 167.66906289 11.5 167.625 C9.56640625 167.64433594 9.56640625 167.64433594 7.59375 167.6640625 C2.97798826 166.81115 1.78768533 165.76872348 -1 162 C-1.729685 158.43105564 -1.6595369 154.9226353 -1.61181641 151.29052734 C-1.61748123 150.21196976 -1.62314606 149.13341217 -1.62898254 148.02217102 C-1.64247954 144.45973916 -1.62154477 140.89832484 -1.6015625 137.3359375 C-1.60706078 134.86161602 -1.61518366 132.38729909 -1.62582397 129.91299438 C-1.6487263 123.40061048 -1.64448059 116.88856205 -1.63201904 110.37615967 C-1.61223676 99.94476695 -1.62356953 89.51349361 -1.65787888 79.08214188 C-1.66400438 75.43306 -1.65069692 71.78439463 -1.63589478 68.13534546 C-1.63884144 65.90712373 -1.64249532 63.67890278 -1.64697266 61.45068359 C-1.63768234 60.43139267 -1.62839203 59.41210175 -1.61882019 58.36192322 C-1.62413254 57.43105392 -1.62944489 56.50018463 -1.63491821 55.54110718 C-1.63303308 54.73181448 -1.63114796 53.92252178 -1.6292057 53.08870506 C-2.09781144 50.44902268 -2.85393829 49.57357713 -5 48 C-8.5 47.41666667 -8.5 47.41666667 -12 48 C-14.01787348 49.75822816 -14.87689484 51.21523183 -15.29330444 53.86975098 C-15.44458547 56.22425076 -15.49360834 58.56258379 -15.51171875 60.921875 C-15.52966995 61.78186096 -15.54762115 62.64184692 -15.56611633 63.52789307 C-15.62020038 66.26854584 -15.65410863 69.00902465 -15.6875 71.75 C-15.72067479 73.61070128 -15.7551646 75.47137961 -15.79101562 77.33203125 C-15.87592569 81.88789528 -15.94274584 86.44370788 -16 91 C-17.43715572 91.04914801 -18.87479845 91.084189 -20.3125 91.11328125 C-21.11300781 91.13430908 -21.91351563 91.15533691 -22.73828125 91.17700195 C-26.13203661 90.91140689 -27.75289496 89.45777114 -30 87 C-31.23408227 83.29775319 -31.16231721 79.85634687 -31.16796875 76 C-31.17129715 75.20907959 -31.17462555 74.41815918 -31.17805481 73.60327148 C-31.18311902 71.92546163 -31.18546329 70.24764171 -31.18530273 68.56982422 C-31.18746814 66.03725848 -31.20556998 63.50514369 -31.22460938 60.97265625 C-31.29800224 40.47326862 -27.03671689 24.50128864 -12.5625 9.1875 C-8.77227082 5.55519704 -4.45097703 2.75536673 0 0 Z " fill="#E45569" transform="translate(116,322)"/>
<path d="M0 0 C7.09962449 0.51726499 14.19265855 1.09422509 21.28515625 1.70117188 C25.03205777 2.00257878 28.77994334 2.24480557 32.53125 2.484375 C34.95849076 2.67509022 37.38557995 2.86774614 39.8125 3.0625 C40.96790283 3.12219971 42.12330566 3.18189941 43.3137207 3.2434082 C51.09712881 3.93819962 51.09712881 3.93819962 53.55200195 6.82519531 C54.65501921 9.19697748 55.36138536 11.46531822 56 14 C56.23195068 14.71969971 56.46390137 15.43939941 56.70288086 16.1809082 C57.38747242 18.3157757 57.98548628 20.45873115 58.5625 22.625 C58.77302002 23.40351318 58.98354004 24.18202637 59.20043945 24.98413086 C61.13371362 32.2693734 62.74496095 39.56389362 64 47 C64.309375 48.74023438 64.309375 48.74023438 64.625 50.515625 C66.94618658 66.18363442 66.17582476 82.2041744 66 98 C63.0924379 96.58309775 60.56127034 95.01803804 57.9375 93.125 C46.71027198 85.70083625 35.19197196 84.35349986 22.07421875 86.47265625 C13.46879568 88.76469078 4.81770096 93.17924715 -1 100 C-4.17133907 98.54075059 -6.78027726 96.72427186 -9.5625 94.625 C-14.73875594 90.93864562 -19.96299653 88.86835715 -26 87 C-26.99 86.67 -27.98 86.34 -29 86 C-38.18246818 85.39641104 -46.34458823 85.31151921 -54.8984375 89.125 C-57 90 -57 90 -60 90 C-60 74.16 -60 58.32 -60 42 C-51.54765658 39.18255219 -43.17255693 36.57819233 -34.58203125 34.2890625 C-26.93343527 32.17518605 -19.78901014 30.17704792 -15.1875 23.3125 C-14.54167969 22.36375 -13.89585937 21.415 -13.23046875 20.4375 C-12.48504352 19.29292496 -11.74176458 18.14695078 -11 17 C-10.01695985 15.49997853 -9.03388473 13.99997997 -8.05078125 12.5 C-5.34235262 8.34897766 -2.6651179 4.17894407 0 0 Z " fill="#26DF9C" transform="translate(402,155)"/>
<path d="M0 0 C10.23535655 2.80315041 17.9777373 13.43722503 23.0546875 22.21484375 C29.84130322 34.98780776 31.60704027 46.31767755 31.50048828 60.64208984 C31.48427635 63.24238493 31.50047285 65.84115567 31.51953125 68.44140625 C31.51755088 70.10677424 31.51371149 71.77214128 31.5078125 73.4375 C31.51388519 74.20838959 31.51995789 74.97927917 31.5262146 75.77352905 C31.45292726 81.3915229 30.20920547 84.59618903 26.421875 88.6640625 C23.91510735 89.95132156 22.72807225 89.9789741 19.96484375 89.92578125 C18.69253906 89.90128906 17.42023438 89.87679687 16.109375 89.8515625 C16.1000293 88.69108398 16.09068359 87.53060547 16.08105469 86.33496094 C16.04115624 82.02581519 15.97539816 77.71738351 15.90185547 73.40869141 C15.87364494 71.54452697 15.85243079 69.6802429 15.83837891 67.81591797 C15.81695016 65.13446809 15.77030202 62.45445664 15.71875 59.7734375 C15.71752136 58.94100525 15.71629272 58.108573 15.71502686 57.25091553 C15.61936408 53.46436982 15.54436021 51.46007281 13.29785156 48.31738281 C10.15122166 46.20980072 7.80432422 46.44101259 4.109375 46.8515625 C1.65580544 49.30513206 1.85919871 49.94839403 1.8578186 53.31710815 C1.84974434 54.72613907 1.84974434 54.72613907 1.84150696 56.16363525 C1.84563095 57.19744324 1.84975494 58.23125122 1.85400391 59.29638672 C1.85038345 60.3826535 1.846763 61.46892029 1.84303284 62.58810425 C1.83612554 64.95296258 1.83363588 67.31783689 1.83498001 69.68270493 C1.83594171 73.42262388 1.82304536 77.1622526 1.80599976 80.90213013 C1.75961713 91.53744189 1.73503298 102.17270264 1.72851562 112.80810547 C1.72436472 119.30736731 1.69930747 125.80638346 1.66318893 132.30554581 C1.65336676 134.78628862 1.65107207 137.26707282 1.65636063 139.74782944 C1.6634045 143.21486558 1.64620261 146.68099849 1.62353516 150.14794922 C1.63170761 151.17770874 1.63988007 152.20746826 1.64830017 153.26843262 C1.56724763 160.21732752 1.56724763 160.21732752 -0.79408264 163.4881897 C-3.12079833 165.00124326 -4.35858998 165.36540725 -7.11328125 165.3828125 C-7.89896484 165.38796875 -8.68464844 165.393125 -9.49414062 165.3984375 C-10.30560547 165.38296875 -11.11707031 165.3675 -11.953125 165.3515625 C-13.17612305 165.37476563 -13.17612305 165.37476563 -14.42382812 165.3984375 C-15.60041992 165.39070313 -15.60041992 165.39070313 -16.80078125 165.3828125 C-17.51371338 165.37830078 -18.22664551 165.37378906 -18.96118164 165.36914062 C-21.73450851 164.62518859 -22.40096514 163.2587125 -23.890625 160.8515625 C-24.26979923 158.58127594 -24.26979923 158.58127594 -24.27589417 156.04748535 C-24.28554199 155.08328674 -24.29518982 154.11908813 -24.30513 153.12567139 C-24.30055283 152.07421936 -24.29597565 151.02276733 -24.29125977 149.93945312 C-24.29823883 148.82673035 -24.3052179 147.71400757 -24.31240845 146.56756592 C-24.33243672 142.88090503 -24.33188525 139.19452306 -24.33203125 135.5078125 C-24.34380331 132.94152064 -24.35716711 130.37523563 -24.37205505 127.80895996 C-24.41201274 120.3482456 -24.43161424 112.8875849 -24.44822693 105.42678833 C-24.47209669 95.31359275 -24.51198871 85.20052944 -24.56550407 75.08744812 C-24.58174942 71.32311833 -24.58560431 67.55891609 -24.58851624 63.79455566 C-24.59830258 61.46264432 -24.60856748 59.13073492 -24.61938477 56.79882812 C-24.61683182 55.76356995 -24.61427887 54.72831177 -24.61164856 53.66168213 C-24.72344572 37.50517925 -29.37089376 24.02705586 -36.890625 9.8515625 C-35.47523438 9.81289063 -35.47523438 9.81289063 -34.03125 9.7734375 C-24.01979688 9.33116447 -14.19387914 8.44952808 -6.015625 2.0390625 C-2.890625 -0.1484375 -2.890625 -0.1484375 0 0 Z " fill="#DE3A51" transform="translate(465.890625,323.1484375)"/>
<path d="M0 0 C2.52482651 1.39230787 4.89274341 2.94911024 7.3046875 4.52734375 C13.11544295 7.70220578 18.95999822 8.34053515 25.4375 8.625 C26.53481445 8.68300781 26.53481445 8.68300781 27.65429688 8.7421875 C29.43583532 8.83533984 31.21788122 8.91870286 33 9 C32.74307373 9.51272461 32.48614746 10.02544922 32.22143555 10.55371094 C31.03116525 12.94657483 29.85938823 15.34808335 28.6875 17.75 C28.28337891 18.55566406 27.87925781 19.36132812 27.46289062 20.19140625 C22.39376629 30.65935407 20.54887988 40.73779399 20.61523438 52.31445312 C20.6098616 53.48020874 20.60448883 54.64596436 20.59895325 55.8470459 C20.58923716 58.35468396 20.58621223 60.8623554 20.58930969 63.37001038 C20.59381394 67.33757014 20.58014123 71.30484448 20.56091309 75.27233887 C20.52008251 84.39758131 20.5084997 93.52281391 20.49738312 102.64813232 C20.4868656 111.04140805 20.47011829 119.43454528 20.42928743 127.82773542 C20.40800914 132.40482438 20.40978283 136.98159313 20.41540527 141.55871582 C20.40606983 143.94604852 20.39590233 146.33337815 20.38476562 148.72070312 C20.39091385 149.80955811 20.39706207 150.89841309 20.40339661 152.02026367 C20.39519394 153.0181189 20.38699127 154.01597412 20.37854004 155.04406738 C20.37782753 155.90971565 20.37711502 156.77536392 20.37638092 157.66724396 C19.9165361 160.51729752 18.95262727 161.90254788 17 164 C14.96289062 164.51757812 14.96289062 164.51757812 12.65625 164.53125 C11.82222656 164.53640625 10.98820312 164.5415625 10.12890625 164.546875 C9.26136719 164.53140625 8.39382812 164.5159375 7.5 164.5 C6.19869141 164.52320313 6.19869141 164.52320313 4.87109375 164.546875 C3.62005859 164.53914063 3.62005859 164.53914063 2.34375 164.53125 C1.58255859 164.52673828 0.82136719 164.52222656 0.03710938 164.51757812 C-2.82735165 163.78979081 -3.46822661 162.47901316 -5 160 C-5.37638092 157.78266048 -5.37638092 157.78266048 -5.37854004 155.32518005 C-5.38674271 154.39004578 -5.39494537 153.4549115 -5.40339661 152.49143982 C-5.39724838 151.47260208 -5.39110016 150.45376434 -5.38476562 149.40405273 C-5.3901384 148.32564117 -5.39551117 147.24722961 -5.40104675 146.13613892 C-5.41083068 143.79478689 -5.41376706 141.45339857 -5.41069031 139.11202812 C-5.40622147 135.40996283 -5.42018568 131.70837785 -5.43908691 128.00636292 C-5.47903558 119.48167546 -5.49149201 110.95699873 -5.50261688 102.43223572 C-5.51395551 93.99507573 -5.5369032 85.55814076 -5.58000183 77.1210804 C-5.59362311 73.4676269 -5.58939214 69.81446464 -5.58459473 66.16099548 C-5.59393107 63.92951073 -5.6040988 61.69802924 -5.61523438 59.46655273 C-5.60908615 58.44569077 -5.60293793 57.4248288 -5.59660339 56.37303162 C-5.60480606 55.44071716 -5.61300873 54.50840271 -5.62145996 53.5478363 C-5.62217247 52.73724479 -5.62288498 51.92665327 -5.62361908 51.09149837 C-6.09596361 48.46674309 -6.88428214 47.58443391 -9 46 C-12.45659975 45.48518727 -14.2384381 45.48020378 -17.15332031 47.46972656 C-19.86026456 51.17871258 -19.60275159 54.43435497 -19.609375 58.921875 C-19.62591125 59.78186096 -19.64244751 60.64184692 -19.65948486 61.52789307 C-19.70798368 64.26866788 -19.72933956 67.0088878 -19.75 69.75 C-19.77815817 71.61070503 -19.80808539 73.47138419 -19.83984375 75.33203125 C-19.91374297 79.88797515 -19.96330595 84.44361067 -20 89 C-21.43693995 89.06269667 -22.87467201 89.10741029 -24.3125 89.14453125 C-25.51326172 89.18477417 -25.51326172 89.18477417 -26.73828125 89.22583008 C-29 89 -29 89 -32 86.6875 C-35.31288868 82.23580584 -35.18718834 78.22500526 -35.23828125 72.88671875 C-35.25038887 71.6777166 -35.25038887 71.6777166 -35.26274109 70.44429016 C-35.27657771 68.73200625 -35.28730176 67.0196948 -35.29516602 65.30737305 C-35.30659226 63.58040106 -35.32689231 61.8534617 -35.35668945 60.12670898 C-35.70456095 39.94821876 -31.21625959 23.11412862 -17 8 C-6.08880944 -1.69528076 -6.08880944 -1.69528076 0 0 Z " fill="#DE3A51" transform="translate(50,324)"/>
<path d="M0 0 C0.7978743 -0.01270935 1.5957486 -0.0254187 2.4178009 -0.03851318 C39.23813951 -0.50841926 72.55856753 5.19402235 105.94921875 21.2734375 C106.10270326 30.48250798 106.10270326 30.48250798 104.94921875 33.2734375 C102.63598633 34.49023438 102.63598633 34.49023438 99.59375 35.4921875 C98.49611328 35.86730469 97.39847656 36.24242187 96.26757812 36.62890625 C95.11064453 37.00660156 93.95371094 37.38429687 92.76171875 37.7734375 C79.07354888 41.89837151 79.07354888 41.89837151 69.94921875 52.2734375 C68.06411917 57.42870246 66.51396758 62.68763138 64.94921875 67.94726562 C64.61921875 68.99978516 64.28921875 70.05230469 63.94921875 71.13671875 C63.66046875 72.09876221 63.37171875 73.06080566 63.07421875 74.05200195 C61.94921875 76.2734375 61.94921875 76.2734375 59.99609375 77.15307617 C57.25802461 77.31408143 55.40077063 76.43111477 52.94921875 75.2734375 C52.86881348 74.68965332 52.7884082 74.10586914 52.70556641 73.50439453 C52.3315487 70.80196991 51.9529041 68.10021185 51.57421875 65.3984375 C51.44789063 64.480625 51.3215625 63.5628125 51.19140625 62.6171875 C50.22431677 50.45007517 50.22431677 50.45007517 44.82421875 40.0859375 C44.19773437 39.44011719 43.57125 38.79429688 42.92578125 38.12890625 C40.39321003 35.75149255 37.8343532 33.43077562 35.171875 31.19921875 C33.52573995 29.77295411 31.93706969 28.27977518 30.3828125 26.75390625 C20.62528367 17.27397426 10.67852255 15.03567836 -2.23413086 12.0222168 C-3.07081299 11.824104 -3.90749512 11.62599121 -4.76953125 11.421875 C-5.8977832 11.16156494 -5.8977832 11.16156494 -7.04882812 10.89599609 C-9.05078125 10.2734375 -9.05078125 10.2734375 -12.05078125 8.2734375 C-12.23828125 4.6484375 -12.23828125 4.6484375 -12.05078125 1.2734375 C-8.10532522 0.00054368 -4.10284329 0.05849139 0 0 Z " fill="#26DE9B" transform="translate(244.05078125,23.7265625)"/>
<path d="M0 0 C7.37712798 5.08056336 11.87726771 12.47238017 14.07421875 21.1171875 C15.3488235 30.17082332 13.41977735 38.45049476 8.0859375 45.890625 C2.73728693 52.19076263 -2.65035015 56.50930516 -10.92578125 58.1171875 C-21.87280059 58.81822815 -30.08555344 58.07651578 -38.92578125 51.1171875 C-46.21269991 44.38834795 -49.98973607 36.51339685 -50.42578125 26.5546875 C-50.04376817 17.61558136 -46.1384476 9.50814229 -39.92578125 3.1171875 C-27.54709731 -6.88354459 -13.83872353 -7.71745164 0 0 Z " fill="#FDCCBE" transform="translate(273.92578125,259.8828125)"/>
<path d="M0 0 C5.7659037 4.66481737 10.20694926 12.1203014 11.6875 19.375 C12.6369507 28.57280362 11.14148861 36.5570591 5.69921875 44.1484375 C0.35056818 50.44857513 -5.0370689 54.76711766 -13.3125 56.375 C-24.25951934 57.07604065 -32.47227219 56.33432828 -41.3125 49.375 C-48.59941866 42.64616045 -52.37645482 34.77120935 -52.8125 24.8125 C-52.43048692 15.87339386 -48.52516635 7.76595479 -42.3125 1.375 C-29.24030274 -9.18602112 -13.98530272 -9.34122686 0 0 Z " fill="#EC7280" transform="translate(167.3125,261.625)"/>
<path d="M0 0 C8.71071694 0.76289298 8.71071694 0.76289298 12.87451172 1.16381836 C17.69285535 1.62743242 22.49185594 2.04512847 27.328125 2.26171875 C38.62805954 2.87483256 38.62805954 2.87483256 41.82421875 5.49609375 C43.05152634 7.98466605 43.48551045 10.26764336 44 13 C44.38722972 14.36077723 44.78958353 15.71729921 45.203125 17.0703125 C48.07890829 26.58659754 50.34531563 36.1959951 52 46 C52.20625 47.16015625 52.4125 48.3203125 52.625 49.515625 C54.94618658 65.18363442 54.17582476 81.2041744 54 97 C51.0924379 95.58309775 48.56127034 94.01803804 45.9375 92.125 C36.79326754 86.02387263 27.87768468 84.34587233 17 84 C16.98541748 83.45400146 16.97083496 82.90800293 16.95581055 82.34545898 C16.18196061 56.03182676 12.75683075 30.62307735 3.91796875 5.73828125 C3 3 3 3 3 1 C2.01 0.67 1.02 0.34 0 0 Z " fill="#25CE90" transform="translate(414,156)"/>
<path d="M0 0 C6.13035293 4.58505667 10.88424988 10.58999957 13 18 C14.29817222 29.30443775 13.0902217 39.02751114 6 48.25 C-0.22487891 54.71126671 -7.46167724 58.18465168 -16.40332031 58.65991211 C-26.48142578 58.78505781 -33.52759145 56.34590049 -41.125 49.5625 C-43.29084741 47.19790424 -43.94639451 46.2799398 -44.5625 43.0625 C-44 40 -44 40 -43 36.3125 C-41.01650216 28.88855095 -41.54912751 21.4247148 -43.5625 14.0703125 C-44.09776231 11.5373748 -44.33088541 9.58252029 -44 7 C-32.69049431 -6.72220024 -15.04000685 -8.74320059 0 0 Z " fill="#E6566A" transform="translate(453,260)"/>
<path d="M0 0 C4.85839942 2.86133713 9.28453393 5.83478114 11.38671875 11.20703125 C11.25249314 14.56267146 10.55736767 17.45717744 9.75 20.703125 C8.31654547 28.4208442 8.7961703 35.93538591 11.26171875 43.33203125 C11.82421875 45.83203125 11.82421875 45.83203125 11.26171875 48.33203125 C7.08301814 54.13652856 1.09249702 58.32454635 -5.73828125 60.33203125 C-17.0945382 61.64635947 -26.85218178 60.42596924 -36.05078125 53.20703125 C-42.23838829 47.42024086 -45.78697534 39.29581216 -46.08203125 30.88671875 C-46.2346238 20.54857324 -44.17496494 13.85131624 -37.11328125 6.01953125 C-26.7968099 -3.46931274 -12.87865983 -6.02423262 0 0 Z " fill="#E6566A" transform="translate(91.73828125,257.66796875)"/>
<path d="M0 0 C19.63883048 7.36020112 38.86223987 26.03851314 52 42 C52.75539063 42.86753906 53.51078125 43.73507813 54.2890625 44.62890625 C63.07493357 54.84282138 70.34171308 65.86129036 77 77.5625 C77.37390869 78.21702148 77.74781738 78.87154297 78.13305664 79.54589844 C80.26145822 83.37199472 81.59230963 86.77692888 83 91 C69.8 89.68 56.6 88.36 43 87 C43.66 86.67 44.32 86.34 45 86 C32.48038025 61.2934074 14.60668931 31.73779288 -9 16 C-8.236875 15.46375 -7.47375 14.9275 -6.6875 14.375 C-2.10474428 10.32512285 -0.71054849 5.96860732 0 0 Z " fill="#6199D2" transform="translate(364,54)"/>
<path d="M0 0 C7.08400425 3.74948342 11.21488815 11.61724262 14.1328125 18.78125 C17.15106822 29.9841451 15.86083725 40.97018961 10.140625 50.9921875 C6.16988811 56.57150758 1.37035507 61.29092269 -5 64 C-8.85928756 63.75879453 -10.402495 61.67390221 -13 59 C-13.928125 58.4225 -14.85625 57.845 -15.8125 57.25 C-23.53065587 51.80188998 -27.84076088 45.20247149 -30 36 C-31.27251933 26.34042148 -28.39232467 18.03894487 -22.8828125 10.1484375 C-17.08908173 3.53733393 -9.05967245 -1.68824154 0 0 Z " fill="#EC7281" transform="translate(363,256)"/>
<path d="M0 0 C0.9178125 0.55429687 1.835625 1.10859375 2.78125 1.6796875 C4.02052238 2.41198482 5.26012354 3.14372593 6.5 3.875 C7.10070312 4.23980469 7.70140625 4.60460937 8.3203125 4.98046875 C19.10546131 11.29092816 32.82512837 12.01048672 44.84375 9.0546875 C51.03290926 6.75544376 56.56500399 3.72989922 62 0 C64.31 1.65 66.62 3.3 69 5 C62.90611914 16.95005715 57.20250884 24.97349058 44.3671875 30.0390625 C33.36927658 33.46989768 22.32599923 33.32040814 12 28 C4.34679635 23.26580672 -2.434726 16.37666319 -6 8 C-5.9375 5.4375 -5.9375 5.4375 -5 3 C-3.36723327 1.94555675 -1.70161853 0.93929343 0 0 Z " fill="#F59D8C" transform="translate(225,322)"/>
<path d="M0 0 C0.9178125 0.55429687 1.835625 1.10859375 2.78125 1.6796875 C4.02052238 2.41198482 5.26012354 3.14372593 6.5 3.875 C7.10070312 4.23980469 7.70140625 4.60460937 8.3203125 4.98046875 C19.10546131 11.29092816 32.82512837 12.01048672 44.84375 9.0546875 C51.03290926 6.75544376 56.56500399 3.72989922 62 0 C63.98 1.32 65.96 2.64 68 4 C66.70291521 12.37886958 61.70419545 19.18918332 55.21875 24.46484375 C45.09887457 31.46679981 35.10189914 33.32142167 23 32 C11.38989032 29.02749201 3.07369902 22.18396365 -3.6875 12.52734375 C-5.17078145 9.67114405 -5.63064308 7.18108649 -6 4 C-4.02 2.68 -2.04 1.36 0 0 Z " fill="#E03B52" transform="translate(116,322)"/>
<path d="M0 0 C11.03762624 -0.57255698 19.38597023 0.10507286 28.25 7.0625 C34.16728577 12.60770492 38.44785046 20.33367847 39.23828125 28.4453125 C39.49798371 37.82193833 36.88027028 45.60766021 31 53 C21.75675676 62 21.75675676 62 17 62 C16.34 64.97 15.68 67.94 15 71 C12.37493198 71.02690844 9.75013827 71.04679404 7.125 71.0625 C6.37863281 71.07087891 5.63226563 71.07925781 4.86328125 71.08789062 C-0.7734375 71.11328125 -0.7734375 71.11328125 -3 70 C-3 68.35 -3 66.7 -3 65 C-2.03900391 64.5978125 -2.03900391 64.5978125 -1.05859375 64.1875 C8.32168778 59.93771522 14.10126584 53.85870826 18.1171875 44.32421875 C20.56494635 35.1072153 20.55464302 23.86104114 16.34375 15.18359375 C13.21030504 10.09174569 10.01216037 5.34144025 5 2 C3.34450469 1.61500109 1.6777567 1.27206865 0 1 C0 0.67 0 0.34 0 0 Z " fill="#E45669" transform="translate(358,255)"/>
<path d="M0 0 C11.07565041 -1.06043461 18.80711775 0.66894259 28 7 C34.88173094 13.35417065 39.08711685 22.07437558 39.5 31.4375 C39.03322576 41.48021846 35.30179461 48.71323212 28.37890625 55.8984375 C22.6089612 60.99569602 16.37714029 63.16285711 8.75 63.0625 C7.85796875 63.05347656 6.9659375 63.04445313 6.046875 63.03515625 C5.37140625 63.02355469 4.6959375 63.01195312 4 63 C4.70125 62.34 5.4025 61.68 6.125 61 C9.48868152 57.60773195 12.34610393 53.96993768 15 50 C15.41894531 49.37867188 15.83789062 48.75734375 16.26953125 48.1171875 C20.82251537 39.91216312 20.15426035 28.93947212 18.41015625 19.96484375 C16.10186355 13.25271151 11.39104404 7.53615356 6 3 C2.8440386 1.69984798 2.8440386 1.69984798 0 1 C0 0.67 0 0.34 0 0 Z " fill="#F9AD9D" transform="translate(249,255)"/>
<path d="M0 0 C11.01089151 -0.69178376 20.46680148 1.08659093 29.21484375 8.1640625 C35.34631002 14.46994684 38.98042968 22.45763175 39.375 31.1875 C39.11266665 41.37707946 35.39480371 48.61669879 28.37890625 55.8984375 C22.6089612 60.99569602 16.37714029 63.16285711 8.75 63.0625 C7.85796875 63.05347656 6.9659375 63.04445313 6.046875 63.03515625 C5.37140625 63.02355469 4.6959375 63.01195312 4 63 C4.680625 62.360625 5.36125 61.72125 6.0625 61.0625 C8.3918099 58.71328147 10.53514511 56.25212023 12.625 53.6875 C13.19476563 52.99011719 13.76453125 52.29273438 14.3515625 51.57421875 C18.3330778 45.35663917 19.53621728 39.43791349 19.4375 32.125 C19.42992676 31.33561035 19.42235352 30.5462207 19.41455078 29.73291016 C19.13744215 19.90061056 15.68756174 12.23928558 9 5 C6.00517894 2.50431578 3.88137806 1.53908029 0 1 C0 0.67 0 0.34 0 0 Z " fill="#E45669" transform="translate(140,255)"/>
<path d="M0 0 C9.97327397 -0.79573994 18.20547746 0.66611996 26.35546875 6.76171875 C33.05985187 12.96295867 37.10134513 19.65729539 37.53881836 28.90234375 C37.65506637 39.19928118 35.38344601 47.59047984 28.171875 55.171875 C21.1800352 61.05709267 14.09046392 63.75112922 4.984375 63.2109375 C4.32953125 63.14132812 3.6746875 63.07171875 3 63 C3.70125 62.34 4.4025 61.68 5.125 61 C13.63629725 52.39225745 18.35493272 43.71226925 18.5 31.5 C18.32860938 20.16602456 14.96022062 13.43279902 7.31640625 5.03125 C4.94359943 2.9505425 2.98183367 1.96764973 0 1 C0 0.67 0 0.34 0 0 Z " fill="#E03B52" transform="translate(429,255)"/>
<path d="M0 0 C0.0694906 7.64076218 0.1228064 15.28149162 0.15543652 22.92249775 C0.17109693 26.47049936 0.19234151 30.01828487 0.22631836 33.56616211 C0.26513007 37.64438967 0.27970602 41.72239001 0.29296875 45.80078125 C0.30845261 47.07585037 0.32393646 48.35091949 0.33988953 49.66462708 C0.34011612 50.84562485 0.34034271 52.02662262 0.34057617 53.2434082 C0.34723801 54.28487503 0.35389984 55.32634186 0.36076355 56.39936829 C0 59 0 59 -3 62 C-7.29 62 -11.58 62 -16 62 C-15.505 32.3 -15.505 32.3 -15 2 C-9.555 1.505 -9.555 1.505 -4 1 C-1 0 -1 0 0 0 Z " fill="#E23B52" transform="translate(427,426)"/>
<path d="M0 0 C0.99 0.33 1.98 0.66 3 1 C6.96 1.33 10.92 1.66 15 2 C15.33 21.8 15.66 41.6 16 62 C11.71 62 7.42 62 3 62 C0 59 0 59 -0.36076355 56.39936829 C-0.35410172 55.35790146 -0.34743988 54.31643463 -0.34057617 53.2434082 C-0.34034958 52.06241043 -0.34012299 50.88141266 -0.33988953 49.66462708 C-0.32440567 48.38955795 -0.30892181 47.11448883 -0.29296875 45.80078125 C-0.28872391 44.49545944 -0.28447906 43.19013763 -0.28010559 41.84526062 C-0.26866089 38.37794721 -0.23919754 34.91101187 -0.20599365 31.44384766 C-0.17528433 27.90467442 -0.16159845 24.36543999 -0.14648438 20.82617188 C-0.11432705 13.88395945 -0.06313554 6.94199789 0 0 Z " fill="#E23B52" transform="translate(85,426)"/>
<path d="M0 0 C11.29987903 -0.58616087 19.56563488 0.19343156 28.5625 7.375 C30.89274699 9.59697288 31.93694019 10.83884714 33.125 13.875 C32.99077439 17.23064021 32.29564892 20.12514619 31.48828125 23.37109375 C30.05482672 31.08881295 30.53445155 38.60335466 33 46 C33.5625 48.5 33.5625 48.5 33 51 C28.82269918 56.80255291 22.78710069 60.88082088 16 63 C11.95723296 63.37229732 8.04445554 63.31271563 4 63 C5.051875 61.9790625 5.051875 61.9790625 6.125 60.9375 C7.08833265 59.9632514 8.04625047 58.98363203 9 58 C9.50402344 57.48050781 10.00804688 56.96101563 10.52734375 56.42578125 C18.03467149 48.23075936 20.39569171 39.36651952 20.2734375 28.44921875 C19.53516991 19.1365004 15.36966205 11.70490742 9 5 C6.00181799 2.49960776 3.88750237 1.53993088 0 1 C0 0.67 0 0.34 0 0 Z " fill="#DF3B52" transform="translate(70,255)"/>
<path d="M0 0 C3.12395807 1.18016194 4.68228179 2.52262444 6.8125 5.0625 C6.1525 5.0625 5.4925 5.0625 4.8125 5.0625 C4.77125 5.7225 4.73 6.3825 4.6875 7.0625 C2.37991236 14.97422904 -4.68228294 21.35326582 -11.1875 26.0625 C-16.38906348 28.78488692 -21.39301777 30.19877834 -27.1875 31.0625 C-27.65800781 30.04929687 -28.12851562 29.03609375 -28.61328125 27.9921875 C-29.2421429 26.64060425 -29.87105166 25.28904291 -30.5 23.9375 C-30.80873047 23.27234375 -31.11746094 22.6071875 -31.43554688 21.921875 C-33.29157651 17.93629557 -35.20150162 13.98561064 -37.1875 10.0625 C-35.77210938 10.02382813 -35.77210938 10.02382813 -34.328125 9.984375 C-24.31667188 9.54210197 -14.49075414 8.66046558 -6.3125 2.25 C-3.1875 0.0625 -3.1875 0.0625 0 0 Z " fill="#C53045" transform="translate(466.1875,322.9375)"/>
<path d="M0 0 C3.73499324 1.15700543 6.65059103 3.20427666 9.90234375 5.33203125 C15.7130992 8.50689328 21.55765447 9.14522265 28.03515625 9.4296875 C29.1324707 9.48769531 29.1324707 9.48769531 30.25195312 9.546875 C32.03349157 9.64002734 33.81553747 9.72339036 35.59765625 9.8046875 C34.14634276 12.93299506 32.68542468 16.05672176 31.22265625 19.1796875 C30.60390625 20.51386719 30.60390625 20.51386719 29.97265625 21.875 C29.57304688 22.72578125 29.1734375 23.5765625 28.76171875 24.453125 C28.3951416 25.23864746 28.02856445 26.02416992 27.65087891 26.83349609 C26.59765625 28.8046875 26.59765625 28.8046875 24.59765625 30.8046875 C15.57599172 30.64914156 7.10250028 24.54732669 0.59765625 18.8046875 C-1.3515625 16.1484375 -1.3515625 16.1484375 -3.08984375 13.3046875 C-3.67121094 12.36625 -4.25257812 11.4278125 -4.8515625 10.4609375 C-6.12891057 8.27303653 -7.30895221 6.08842156 -8.40234375 3.8046875 C-3.11475186 -0.25323186 -3.11475186 -0.25323186 0 0 Z " fill="#C53045" transform="translate(47.40234375,323.1953125)"/>
<path d="M0 0 C24.94987177 -0.93637533 52.06619543 8.6778944 74 20 C74.14285714 28.57142857 74.14285714 28.57142857 73 32 C69.92578125 33.265625 69.92578125 33.265625 66 34 C63.35270837 32.69652698 61.47641657 31.52207456 59.1875 29.75 C57.86468353 28.80297234 56.53768203 27.86176912 55.20703125 26.92578125 C54.51818848 26.43803223 53.8293457 25.9502832 53.11962891 25.44775391 C37.16590599 14.55100467 18.4820772 6.47191934 0 1 C0 0.67 0 0.34 0 0 Z " fill="#25CE90" transform="translate(276,25)"/>
<path d="M0 0 C5.78591511 -0.10477512 11.29309366 0.00749455 17 1 C17.18175781 1.85722656 17.36351562 2.71445312 17.55078125 3.59765625 C18.89321491 9.70400831 20.25232005 15.37379821 23 21 C22.25234375 21.54269531 21.5046875 22.08539063 20.734375 22.64453125 C19.74953125 23.35996094 18.7646875 24.07539063 17.75 24.8125 C16.77546875 25.52019531 15.8009375 26.22789062 14.796875 26.95703125 C12.51810991 28.62154821 10.25234178 30.30001823 8 32 C7.40832031 31.46890625 6.81664062 30.9378125 6.20703125 30.390625 C5.41683594 29.68421875 4.62664062 28.9778125 3.8125 28.25 C2.64654297 27.20585937 2.64654297 27.20585937 1.45703125 26.140625 C-0.97596449 24.02094032 -3.46654463 21.9979648 -6 20 C-5.65066406 19.2265625 -5.30132812 18.453125 -4.94140625 17.65625 C-2.32971357 11.67821123 -0.37657389 6.52728072 0 0 Z " fill="#26DB99" transform="translate(193,290)"/>
<path d="M0 0 C1.68076231 0.63028587 3.34302621 1.30959426 5 2 C6.02867188 2.34998047 6.02867188 2.34998047 7.078125 2.70703125 C9.34497154 3.59990786 11.10720623 4.46099946 13 6 C13.89135613 9.39829526 14.02367021 11.56308598 14 15 C14.12761719 16.22460938 14.25523438 17.44921875 14.38671875 18.7109375 C14.6885442 22.70130507 14.79175904 26.0726952 14 30 C11.64437129 32.4292421 9.5724373 33.58336048 6.48046875 34.921875 C4.00418318 35.9981818 2.83256626 37.08488571 1 39 C0.34 39 -0.32 39 -1 39 C-1.0248244 34.4101602 -1.04291873 29.82035999 -1.05493164 25.23046875 C-1.05994272 23.67089151 -1.06675337 22.11131892 -1.07543945 20.55175781 C-1.08764686 18.30272264 -1.09326068 16.0537499 -1.09765625 13.8046875 C-1.10281754 13.1138205 -1.10797882 12.42295349 -1.11329651 11.71115112 C-1.11375529 7.70084945 -0.7735266 3.93454705 0 0 Z " fill="#77A5D4" transform="translate(45,214)"/>
<path d="M0 0 C0.99 0.33 1.98 0.66 3 1 C5.05893621 1.22325814 7.12233653 1.40705759 9.1875 1.5625 C11.105625 1.706875 13.02375 1.85125 15 2 C15 6.62 15 11.24 15 16 C12.6865641 15.5253725 10.37426981 15.04517721 8.0625 14.5625 C6.77472656 14.29566406 5.48695313 14.02882813 4.16015625 13.75390625 C1 13 1 13 0 12 C-0.07244053 9.98035801 -0.08377188 7.95832876 -0.0625 5.9375 C-0.05347656 4.83277344 -0.04445312 3.72804688 -0.03515625 2.58984375 C-0.02355469 1.73519531 -0.01195312 0.88054687 0 0 Z " fill="#25D998" transform="translate(194,426)"/>
<path d="M0 0 C0 3.96 0 7.92 0 12 C-4.95 13.32 -9.9 14.64 -15 16 C-15 11.38 -15 6.76 -15 2 C-11.94010417 1.77213542 -8.88020833 1.54427083 -5.8203125 1.31640625 C-3.74256403 1.08330704 -1.94647858 0 0 0 Z " fill="#619AD3" transform="translate(318,426)"/>
<path d="M0 0 C-6.93 3.465 -6.93 3.465 -14 7 C-14 4.69 -14 2.38 -14 0 C-12.04235617 -0.19456705 -10.08384679 -0.38044247 -8.125 -0.5625 C-6.48917969 -0.71912109 -6.48917969 -0.71912109 -4.8203125 -0.87890625 C-2 -1 -2 -1 0 0 Z " fill="#75A2D1" transform="translate(317,428)"/>
</svg>
