<svg id="Layer_1" enable-background="new 0 0 512 512" viewBox="0 0 512 512" xmlns="http://www.w3.org/2000/svg"><path d="m480.624 11.08h-449.248c-17.293 0-31.376 14.083-31.376 31.376v427.089c0 17.293 14.083 31.376 31.376 31.376h449.248c17.293 0 31.376-14.083 31.376-31.376v-427.089c0-17.293-14.083-31.376-31.376-31.376zm-84.129 392.226c-5.005 9.389-16.671 12.944-26.072 7.939-15.993-8.526-35.265-20.02-55.629-33.884-18.651 19.56-44.251 33.309-81.92 36.553-4.476.38-8.94.575-13.346.575-35.173 0-67.561-12.092-86.66-32.871-16.338-17.788-22.678-40.512-18.34-65.72 6.719-38.866 31.088-63.178 58.828-81.034-4.867-9.158-8.951-18.443-12.081-27.82-12.219-36.588-4.66-69.275 20.745-89.663 28.868-23.172 78.284-26.463 110.143-7.34 21.642 12.99 31.514 33.953 27.061 57.493-7.686 40.626-46.229 59.38-83.508 77.513-2.37 1.151-4.729 2.301-7.076 3.452 20.262 25.842 47.461 51.568 77.042 74.602 7.881-15.429 14.658-34.125 22.206-55.94 2.554-7.375 5.201-15.003 7.973-22.632 3.647-10.01 14.704-15.164 24.703-11.517 10.01 3.636 15.165 14.704 11.517 24.703-2.669 7.34-5.258 14.819-7.766 22.056-7.881 22.781-15.866 45.838-27.107 66.295 17.143 11.656 34.528 22.194 51.349 31.169 9.399 5.004 12.955 16.671 7.938 26.071zm-113.411-48.887c-13.047 11.931-29.834 19.042-53.524 21.09-28.097 2.428-54.928-5.419-68.309-19.985-8.18-8.894-11.034-19.721-8.733-33.079 4.361-25.232 20.492-41.731 41.581-55.216 24.186 32.4 56.562 62.234 88.985 87.19zm-85.233-159.583c-7.122-21.308-4.338-37.255 8.296-47.392 9.757-7.835 23.587-11.344 36.818-11.344 11.138 0 21.861 2.485 29.351 6.995 9.791 5.867 9.964 12.322 9.032 17.281-4.085 21.584-31.157 34.758-62.499 50.003-3.82 1.863-7.732 3.762-11.701 5.73-3.844-7.179-6.973-14.301-9.297-21.273z"/></svg>