<svg id="Layer_1" viewBox="0 0 512 512" xmlns="http://www.w3.org/2000/svg" xmlns:xlink="http://www.w3.org/1999/xlink" data-name="Layer 1"><linearGradient id="linear-gradient" gradientUnits="userSpaceOnUse" x1="74.506" x2="437.494" y1="256" y2="256"><stop offset=".016" stop-color="#e65233"/><stop offset="1" stop-color="#f9a82d"/></linearGradient><path d="m77.851 285.108c-4.545-4.544-4.374-15.769 0-20.143a10.537 10.537 0 0 1 7.462-3.11h341.433a10.537 10.537 0 0 1 7.462 3.11c4.381 4.381 4.381 15.762 0 20.143a10.537 10.537 0 0 1 -7.462 3.11h-341.433a10.537 10.537 0 0 1 -7.462-3.11zm310.6 14.629h-264.851l86.378 90.726a5.745 5.745 0 0 1 1.884 4.26v100.563l88.328-18.747.015-81.816a5.724 5.724 0 0 1 1.583-3.959zm-22.623-249.117a27.573 27.573 0 0 1 -6.642-9.442l-45.628 39.649a27.613 27.613 0 0 1 7.1 9.041zm-95.08 40.364a27.581 27.581 0 0 1 6.7-9.362l-46.64-36.722a27.641 27.641 0 0 1 -8.006 8.338l47.946 37.745zm-89.548-52.264-44.791 31.154a27.6 27.6 0 0 1 7.145 9.048l43.364-30.162a27.473 27.473 0 0 1 -5.718-10.04zm213.038-18a13.763 13.763 0 1 0 0 19.465 13.819 13.819 0 0 0 -.002-19.463zm-88.538 71.491a13.763 13.763 0 1 0 0 19.464 13.82 13.82 0 0 0 0-19.464zm-88.546-71.489a13.764 13.764 0 1 0 0 19.465 13.821 13.821 0 0 0 0-19.465zm-98.274 56.561a13.763 13.763 0 1 0 13.763 13.763 13.762 13.762 0 0 0 -13.763-13.763zm250.02 143.488h34.97v-120.55h-34.97zm-88.541 0h34.971v-67.171h-34.973zm-88.541 0h34.971v-103.6h-34.973zm-88.542 0h34.972v-75.646h-34.974z" fill="url(#linear-gradient)" fill-rule="evenodd"/></svg>