<svg id="Layer_1" viewBox="0 0 64 64" xmlns="http://www.w3.org/2000/svg" data-name="Layer 1"><path d="m9.42 12a2.8 2.8 0 0 0 5.37-1.09v-.85-2.67a2.7 2.7 0 0 0 -.82-2 2.77 2.77 0 0 0 -2-.84 2.81 2.81 0 0 0 -2.78 2.84v2.68.85a2.66 2.66 0 0 0 .23 1.08z"/><path d="m45.32 13.23a2.79 2.79 0 0 0 4.13-1.23 2.83 2.83 0 0 0 .22-1.09v-.85-2.67a2.8 2.8 0 1 0 -5.6 0v2.67.85a2.82 2.82 0 0 0 1.25 2.32z"/><path d="m50.08 47a9.93 9.93 0 0 0 -9.92 9.92v2.52h19.84v-2.54a9.93 9.93 0 0 0 -9.92-9.9z"/><path d="m45.72 23.02h3.96v3.47h-3.96z"/><path d="m8.62 14.32c-.07-.07-.13-.15-.2-.23s-.26-.3-.38-.46-.13-.23-.19-.34a4.09 4.09 0 0 1 -.25-.46c-.06-.14-.1-.28-.15-.43s-.1-.29-.14-.45 0-.33-.06-.49a2.44 2.44 0 0 1 0-.39h-1.25a2 2 0 0 0 -2 2v3.69h50.86v-3.69a2 2 0 0 0 -2-2h-1.2a2.44 2.44 0 0 1 -.05.39c0 .16 0 .33-.06.49s-.1.3-.14.45a4.31 4.31 0 0 1 -.15.43 4.09 4.09 0 0 1 -.25.46c-.06.11-.12.23-.19.34a6.08 6.08 0 0 1 -.39.47c-.07.07-.12.15-.19.22a4.18 4.18 0 0 1 -.57.47l-.14.11a4.78 4.78 0 0 1 -2.67.81 4.5 4.5 0 0 1 -1-.1 4.39 4.39 0 0 1 -.87-.27l-.24-.13a4.51 4.51 0 0 1 -.57-.31c-.1-.07-.19-.16-.29-.24a4.23 4.23 0 0 1 -.41-.33c-.1-.1-.19-.23-.29-.34s-.2-.23-.29-.35a4.63 4.63 0 0 1 -.24-.43 2.64 2.64 0 0 1 -.2-.37 4.2 4.2 0 0 1 -.17-.5c0-.12-.09-.25-.12-.38a5.17 5.17 0 0 1 -.07-.55c0-.11 0-.22-.05-.34h-25.26c0 .12 0 .23-.05.34a5.17 5.17 0 0 1 -.07.55c0 .13-.08.26-.12.38a4.2 4.2 0 0 1 -.17.5 2.64 2.64 0 0 1 -.2.37c-.08.15-.15.29-.24.43s-.2.24-.3.36-.18.23-.28.33a4.46 4.46 0 0 1 -.42.34 2 2 0 0 1 -.28.23 4.83 4.83 0 0 1 -.59.32 1.55 1.55 0 0 1 -.22.12 4.8 4.8 0 0 1 -3.72 0 4.64 4.64 0 0 1 -.79-.43l-.15-.12a4.89 4.89 0 0 1 -.57-.47z"/><path d="m50.08 31.81a6.59 6.59 0 1 0 6.59 6.58 6.59 6.59 0 0 0 -6.59-6.58z"/><path d="m9.19 34.82h3.96v3.47h-3.96z"/><path d="m9.19 23.02h3.96v3.47h-3.96z"/><path d="m9.19 46.61h3.96v3.47h-3.96z"/><path d="m4 52.44a2 2 0 0 0 2 2h32.42a12 12 0 0 1 7.34-8.63 8.58 8.58 0 1 1 9.1-14.54v-12.51h-50.86zm39.72-30.44a1 1 0 0 1 1-1h6a1 1 0 0 1 1 1v5.47a1 1 0 0 1 -1 1h-6a1 1 0 0 1 -1-1zm-12.18 0a1 1 0 0 1 1-1h6a1 1 0 0 1 1 1v5.47a1 1 0 0 1 -1 1h-6a1 1 0 0 1 -1-1zm0 11.8a1 1 0 0 1 1-1h6a1 1 0 0 1 1 1v5.47a1 1 0 0 1 -1 1h-6a1 1 0 0 1 -1-1zm-12.17-11.8a1 1 0 0 1 1-1h6a1 1 0 0 1 1 1v5.47a1 1 0 0 1 -1 1h-6a1 1 0 0 1 -1-1zm0 11.8a1 1 0 0 1 1-1h6a1 1 0 0 1 1 1v5.47a1 1 0 0 1 -1 1h-6a1 1 0 0 1 -1-1zm0 11.79a1 1 0 0 1 1-1h6a1 1 0 0 1 1 1v5.47a1 1 0 0 1 -1 1h-6a1 1 0 0 1 -1-1zm-12.18-23.59a1 1 0 0 1 1-1h6a1 1 0 0 1 1 1v5.47a1 1 0 0 1 -1 1h-6a1 1 0 0 1 -1-1zm0 11.8a1 1 0 0 1 1-1h6a1 1 0 0 1 1 1v5.47a1 1 0 0 1 -1 1h-6a1 1 0 0 1 -1-1zm0 11.79a1 1 0 0 1 1-1h6a1 1 0 0 1 1 1v5.47a1 1 0 0 1 -1 1h-6a1 1 0 0 1 -1-1z"/><path d="m21.37 46.61h3.96v3.47h-3.96z"/><path d="m21.37 23.02h3.96v3.47h-3.96z"/><path d="m33.54 34.82h3.96v3.47h-3.96z"/><path d="m21.37 34.82h3.96v3.47h-3.96z"/><path d="m33.54 23.02h3.96v3.47h-3.96z"/></svg>