<svg id="Layer_1" height="512" viewBox="0 0 36 36" width="512" xmlns="http://www.w3.org/2000/svg" data-name="Layer 1"><g fill-rule="evenodd"><path d="m23.94 6.57v3.36h-7.31a6.86 6.86 0 0 0 -6.86 6.86v5.3c-.64.48-1.38 1-2 1.47a1.15 1.15 0 0 1 -1.19.09 1.23 1.23 0 0 1 -.62-1v-1.7a3.91 3.91 0 0 1 -3.96-3.95v-10.43a4.57 4.57 0 0 1 4.57-4.57h12.8a4.58 4.58 0 0 1 4.57 4.57z"/><path d="m29.43 12.22h-12.8a4.58 4.58 0 0 0 -4.57 4.57v9.79a4.58 4.58 0 0 0 4.57 4.57h8l3.68 2.63a1.15 1.15 0 0 0 1.19.09 1.19 1.19 0 0 0 .62-1v-1.7a3.91 3.91 0 0 0 3.88-3.92v-10.46a4.57 4.57 0 0 0 -4.57-4.57zm-5.71 12.9h-5.72v-2.29h5.71zm4.57-4.57h-10.29v-2.29h10.29z"/></g></svg>