<?xml version="1.0" encoding="UTF-8"?>
<svg xmlns="http://www.w3.org/2000/svg" xmlns:xlink="http://www.w3.org/1999/xlink" version="1.1" id="Icons" x="0px" y="0px" viewBox="0 0 32 32" style="enable-background:new 0 0 32 32;" xml:space="preserve" width="512" height="512">
<style type="text/css">
	.st0{fill:none;stroke:#000000;stroke-width:2;stroke-linecap:round;stroke-linejoin:round;stroke-miterlimit:10;}
</style>
<path d="M27,4H5C3.3,4,2,5.3,2,7v18c0,1.7,1.3,3,3,3h22c1.7,0,3-1.3,3-3V7C30,5.3,28.7,4,27,4z M10,7c0.6,0,1,0.4,1,1s-0.4,1-1,1  S9,8.6,9,8S9.4,7,10,7z M6,8c0-0.6,0.4-1,1-1s1,0.4,1,1S7.6,9,7,9S6,8.6,6,8z M11.7,18.7l-3,3C8.5,21.9,8.3,22,8,22  s-0.5-0.1-0.7-0.3c-0.4-0.4-0.4-1,0-1.4L9.6,18l-2.3-2.3c-0.4-0.4-0.4-1,0-1.4c0.4-0.4,1-0.4,1.4,0l3,3  C12.1,17.7,12.1,18.3,11.7,18.7z M12,8c0-0.6,0.4-1,1-1s1,0.4,1,1s-0.4,1-1,1S12,8.6,12,8z M18,22h-4c-0.6,0-1-0.4-1-1s0.4-1,1-1h4  c0.6,0,1,0.4,1,1S18.6,22,18,22z"/>
</svg>
