<svg id="Capa_1" enable-background="new 0 0 513.313 513.313" height="512" viewBox="0 0 513.313 513.313" width="512" xmlns="http://www.w3.org/2000/svg"><g><g><path d="m1.949 119.387 246.277 343.484c4.139 5.772 12.724 5.772 16.862 0l246.277-343.484c3.009-4.197 2.486-9.984-1.252-13.546-141.812-135.147-365.1-135.147-506.912 0-3.739 3.562-4.261 9.349-1.252 13.546z" fill="#fcc16d"/><circle cx="227.528" cy="49.357" fill="#fcb44d" r="29.12"/><circle cx="110.238" cy="71.005" fill="#fcb44d" r="21.647"/><g><circle cx="153.15" cy="127.308" fill="#a34f41" r="31.456"/><path d="m184.609 127.31c0 17.37-14.086 31.457-31.456 31.457-4.841 0-9.414-1.087-13.504-3.048 10.613-5.043 17.953-15.868 17.953-28.408s-7.34-23.366-17.953-28.408c4.09-1.961 8.663-3.048 13.504-3.048 17.37-.001 31.456 14.085 31.456 31.455z" fill="#873f30"/></g><g><path d="m511.388 119.356c-.01.01-.01.021-.021.031l-246.276 343.485c-.021.031-.052.072-.083.104-4.139 5.633-12.563 5.633-16.703 0-.031-.031-.062-.073-.083-.104l-95.071-132.605v-125.707c10.603-8.299 18.352-2.448 29.536-13.632 12.211-12.221 4.098-20.334 16.309-32.544 12.211-12.211 20.323-4.098 32.534-16.309s4.098-20.323 16.308-32.534c12.221-12.221 20.334-4.098 32.544-16.308 12.211-12.211 4.098-20.334 16.309-32.544 12.211-12.211 20.323-4.087 32.534-16.298 11.225-11.225 5.249-18.996 13.746-29.681 60.887 14.649 118.755 45.014 167.141 91.128.031.031.073.073.104.104 3.631 3.569 4.129 9.254 1.172 13.414z" fill="#fc78a8"/><g><circle cx="342.968" cy="123.522" fill="#a34f41" r="21.647"/><path d="m364.618 123.523c0 11.953-9.694 21.647-21.647 21.647-3.332 0-6.478-.748-9.293-2.098 7.303-3.47 12.354-10.92 12.354-19.55s-5.051-16.079-12.354-19.55c2.815-1.35 5.961-2.098 9.293-2.098 11.953.002 21.647 9.696 21.647 21.649z" fill="#873f30"/></g><path d="m511.388 119.356c-.01.01-.01.021-.021.031l-246.276 343.485c-.021.031-.052.072-.083.104-2.064 2.811-5.208 4.222-8.351 4.222v-188.7c0-182.972 226.182-169.341 256.547-166.685.373 2.574-.208 5.281-1.816 7.543z" fill="#ffd496"/><path d="m511.389 119.354c-.01.01-.01.021-.021.031l-246.274 343.483c-.021.031-.052.072-.082.103-2.071 2.812-5.213 4.224-8.355 4.224v-43.999l224.188-312.67c15.391 0 26.96.814 32.358 1.288.37 2.574-.207 5.284-1.814 7.54z" fill="#fcc16d"/><path d="m256.656 278.498v188.699c-3.123 0-6.245-1.39-8.32-4.171-.042-.052-.073-.104-.114-.156l-246.277-343.483c-.01-.01-.01-.021-.021-.031-1.608-2.262-2.189-4.969-1.816-7.542 30.367-2.656 256.548-16.288 256.548 166.684z" fill="#ffd496"/><path d="m256.656 278.496v188.698c-3.121 0-6.243-1.391-8.324-4.172-.041-.052-.072-.103-.113-.155l-31.297-43.649v-149.993c0-92.345-57.618-134.614-118.605-153.487 72.896 12.115 158.339 50.304 158.339 162.758z" fill="#fcc16d"/></g><g><path d="m93.736 292.86 154.489 215.467c4.139 5.772 12.724 5.772 16.862 0l154.49-215.467c3.056-4.262 2.439-10.125-1.408-13.69-91.027-84.345-231.997-84.345-323.025 0-3.847 3.565-4.464 9.428-1.408 13.69z" fill="#a34f41"/><path d="m419.58 292.857-154.497 215.473c-4.131 5.769-12.723 5.769-16.854 0l-12.084-16.844c2.957-.185 5.862-1.628 7.788-4.316l154.487-215.463c1.628-2.277 2.215-5.007 1.823-7.592 6.16 4.677 12.146 9.694 17.925 15.051 3.843 3.564 4.461 9.436 1.412 13.691z" fill="#873f30"/></g></g><g fill="#fee7c9"><path d="m313.185 339.156c-2.17 0-4.326-.906-5.858-2.674-12.762-14.731-31.231-23.18-50.671-23.18s-37.909 8.449-50.671 23.18c-2.8 3.234-7.692 3.584-10.927.783-3.233-2.802-3.584-7.694-.782-10.927 15.706-18.13 38.443-28.528 62.38-28.528s46.674 10.398 62.38 28.528c2.801 3.234 2.451 8.125-.782 10.927-1.465 1.269-3.271 1.891-5.069 1.891z"/><path d="m272.426 357.845h-31.538c-4.278 0-7.746-3.468-7.746-7.746 0-4.279 3.468-7.746 7.746-7.746h31.538c4.278 0 7.746 3.468 7.746 7.746s-3.468 7.746-7.746 7.746z"/><path d="m298.708 384.011h-84.102c-4.278 0-7.746-3.468-7.746-7.746 0-4.279 3.468-7.746 7.746-7.746h84.102c4.278 0 7.746 3.468 7.746 7.746 0 4.279-3.468 7.746-7.746 7.746z"/></g><g><circle cx="227.528" cy="29.776" fill="#a34f41" r="29.12"/><path d="m256.651 29.778c0 16.08-13.04 29.121-29.121 29.121-4.482 0-8.715-1.006-12.501-2.822 9.824-4.668 16.62-14.69 16.62-26.299s-6.795-21.631-16.62-26.299c3.787-1.816 8.019-2.822 12.501-2.822 16.081 0 29.121 13.041 29.121 29.121z" fill="#873f30"/></g><g><circle cx="110.238" cy="51.424" fill="#a34f41" r="21.647"/><path d="m131.887 51.426c0 11.953-9.694 21.647-21.647 21.647-3.332 0-6.478-.748-9.293-2.098 7.303-3.47 12.354-10.92 12.354-19.55s-5.051-16.079-12.354-19.55c2.815-1.35 5.961-2.098 9.293-2.098 11.954.001 21.647 9.695 21.647 21.649z" fill="#873f30"/></g><g fill="#ffd496"><path d="m377.993 80.874c-4.278 0-7.746-3.468-7.746-7.746v-.114c0-4.279 3.468-7.746 7.746-7.746s7.746 3.468 7.746 7.746v.114c.001 4.278-3.468 7.746-7.746 7.746z"/><path d="m260.687 161.904c-4.278 0-7.746-3.468-7.746-7.746v-.114c0-4.279 3.468-7.746 7.746-7.746s7.746 3.468 7.746 7.746v.114c0 4.278-3.468 7.746-7.746 7.746z"/><path d="m407.32 80.931c-4.278 0-7.746-3.468-7.746-7.746v-.114c0-4.279 3.468-7.746 7.746-7.746s7.746 3.468 7.746 7.746v.114c0 4.279-3.468 7.746-7.746 7.746z"/></g><path d="m209.553 102.88c-4.278 0-7.746-3.468-7.746-7.746v-.114c0-4.279 3.468-7.746 7.746-7.746s7.746 3.468 7.746 7.746v.114c0 4.278-3.468 7.746-7.746 7.746z" fill="#873f30"/></g></svg>