<svg id="Bahan_copy_2" height="512" viewBox="0 0 64 64" width="512" xmlns="http://www.w3.org/2000/svg" data-name="Bahan copy 2"><g fill="rgb(0,0,0)"><path d="m24.08463 15.59075c12.9984 0 20.09534-2.85387 20.09534-4.31847 0-1.45389-7.09694-4.30769-20.09534-4.30769s-20.08463 2.8538-20.08463 4.30769c0 1.4646 7.08617 4.31847 20.08463 4.31847z"/><path d="m24.08463 27.42611c1.99228 0 3.90924-.06461 5.6969-.20461a18.79814 18.79814 0 0 1 13.52614-5.72924c.29079 0 .58151.01078.8723.02156v-7.24773c-7.8758 4.66491-32.30359 4.66776-40.17997.00014v8.73377a.36563.36563 0 0 1 .01078.10767c0 1.46457 7.08622 4.31844 20.07385 4.31844z"/><path d="m24.08463 41.42611c-7.90463 0-16.25079-1.09849-20.08463-3.47851v8.73389a.36586.36586 0 0 1 .01078.10767c-.26169 2.15116 12.9175 5.02668 23.757 4.232a18.63807 18.63807 0 0 1 -3.28473-9.60581c-.12919.01076-.26919.01076-.39842.01076z"/><path d="m45.2569 23.76455a16.74692 16.74692 0 0 0 -18.65224 16.58468c.93419 22.13886 32.45911 22.14915 33.39534-.00016a16.725 16.725 0 0 0 -14.7431-16.58452zm-12.61079 19.35233a1.0814 1.0814 0 0 1 -1.22763-.90465c-1.22081-7.033 4.73729-14.01324 11.88934-13.8275a11.89743 11.89743 0 0 1 6.07371 1.64752l-.44158-2.1a1.06382 1.06382 0 0 1 .82925-1.27076 1.07983 1.07983 0 0 1 1.28154.82925s1.02 4.92724 1.03389 4.96459a1.07978 1.07978 0 0 1 -1.02313 1.2923l-5.0615.1508a1.07758 1.07758 0 0 1 -.06455-2.15385l2.003-.0539c-6.96686-3.86068-15.71597 2.33565-14.38755 10.19868a1.07464 1.07464 0 0 1 -.90479 1.22752zm19.15849 5.78307a12.06483 12.06483 0 0 1 -14.2154 2.07839l.5277 1.68006a1.07823 1.07823 0 0 1 -2.05691.64606l-1.48614-4.74913a1.07874 1.07874 0 0 1 .59231-1.41076c.089-.048 5.29842-.71082 5.29842-.71082a1.08 1.08 0 0 1 .26923 2.14314l-2.47691.31228a9.87665 9.87665 0 0 0 14.7-10.54305 1.07406 1.07406 0 1 1 2.09994-.45235 11.98563 11.98563 0 0 1 -3.25224 11.00618z"/><path d="m24.08463 39.27226c.14 0 .26923 0 .39846-.01078a18.62092 18.62092 0 0 1 3.41382-9.76769c-7.90572.43821-19.57519-.58102-23.89691-3.39241v8.74475a.36556.36556 0 0 1 .01078.10766c0 1.4646 7.08622 4.31847 20.07385 4.31847z"/></g></svg>