<?xml version="1.0"?>
<svg xmlns="http://www.w3.org/2000/svg" viewBox="0 0 64 64" width="512" height="512"><g id="Database"><ellipse cx="32" cy="11" rx="23" ry="7"/><path d="M32,20c-8.85,0-18.8312-1.3909-23-5.0381V25c0,4.5957,11.57,7,23,7s23-2.4043,23-7V14.9618C50.8312,18.6091,40.8493,20,32,20Zm18,4a1,1,0,1,1,1-1A1,1,0,0,1,50,24Z"/><path d="M32,34c-8.85,0-18.8312-1.3909-23-5.0381V39c0,4.5957,11.57,7,23,7s23-2.4043,23-7V28.9618C50.8312,32.6091,40.8493,34,32,34Zm18,4a1,1,0,1,1,1-1A1,1,0,0,1,50,38Z"/><path d="M32,48c-8.85,0-18.8312-1.3909-23-5.0381V53c0,4.5957,11.57,7,23,7s23-2.4043,23-7V42.9618C50.8312,46.6091,40.8493,48,32,48Zm18,4a1,1,0,1,1,1-1A1,1,0,0,1,50,52Z"/></g></svg>
