<?xml version="1.0" encoding="UTF-8"?>
<!-- Generator: Adobe Illustrator 24.3.0, SVG Export Plug-In . SVG Version: 6.00 Build 0)  -->
<svg xmlns="http://www.w3.org/2000/svg" xmlns:xlink="http://www.w3.org/1999/xlink" version="1.1" id="Capa_1" x="0px" y="0px" viewBox="0 0 512 512" style="enable-background:new 0 0 512 512;" xml:space="preserve" width="512" height="512">
<g>
	<g id="Page-1_19_">
		<g id="game_filled_19_" transform="translate(-296.000000, -416.000000)">
			<path id="decision_x2C_-boolean_x2C_-yes_x2C_-no_x2C_-opposites_x2C_-items" d="M627.294,626.824h150.588     c16.634,0,30.118,13.484,30.118,30.118v240.941C808,914.516,794.516,928,777.882,928H536.941     c-16.633,0-30.118-13.484-30.118-30.118V747.294h60.235c33.267,0,60.235-26.968,60.235-60.235V626.824z M615.354,774.293     c-5.881-5.881-15.416-5.881-21.296,0s-5.881,15.416,0,21.296l37.647,37.647c5.881,5.881,15.416,5.881,21.296,0l75.294-75.294     c5.881-5.881,5.881-15.416,0-21.296c-5.881-5.881-15.416-5.881-21.296,0l-64.646,64.646L615.354,774.293z M326.118,416h240.941     c16.633,0,30.118,13.484,30.118,30.118v240.941c0,16.633-13.484,30.118-30.118,30.118H326.118     c-16.634,0-30.118-13.484-30.118-30.118V446.118C296,429.484,309.484,416,326.118,416z M425.292,566.588l-26.999,26.999     c-5.881,5.881-5.881,15.416,0,21.296s15.416,5.881,21.296,0l26.999-26.999l26.999,26.999c5.881,5.881,15.416,5.881,21.296,0     c5.881-5.881,5.881-15.416,0-21.296l-26.999-26.999l26.999-26.999c5.881-5.881,5.881-15.416,0-21.296     c-5.881-5.881-15.416-5.881-21.296,0l-26.999,26.999l-26.999-26.999c-5.881-5.881-15.416-5.881-21.296,0s-5.881,15.416,0,21.296     L425.292,566.588z"/>
		</g>
	</g>
</g>















</svg>
