<svg id="Capa_1" enable-background="new 0 0 512 512" height="512" viewBox="0 0 512 512" width="512" xmlns="http://www.w3.org/2000/svg"><path d="m203 191.019v-29c0-27.57 22.43-50 50-50h142.5v-55c0-11.046-8.954-20-20-20h-239c-11.046 0-20 8.954-20 20v134z"/><path d="m253 371.019c-27.57 0-50-22.43-50-50v-100h-183c-11.046 0-20 8.954-20 20v159c0 11.046 8.954 20 20 20h53v44.943c0 5.924 4.861 10.018 10.041 10.018 2.035 0 4.118-.631 5.977-2.032l70.243-52.93h99.739c11.046 0 20-8.954 20-20v-29h-26z"/><path d="m492 142.019h-239c-11.046 0-20 8.954-20 20v159c0 11.046 8.954 20 20 20h99.739l70.243 52.93c1.859 1.401 3.942 2.032 5.977 2.032 5.18 0 10.041-4.094 10.041-10.018v-44.943h53c11.046 0 20-8.954 20-20v-159c0-11.047-8.954-20.001-20-20.001z"/></svg>