<svg id="Capa_1" enable-background="new 0 0 512 512" height="512" viewBox="0 0 512 512" width="512" xmlns="http://www.w3.org/2000/svg"><g><path d="m61 450h60v62h30v-62h30v-30h-30v-60h-30v60h-30v-60h-30z"/><path d="m421 512v-62h30v-30h-30v-60h-30v60h-30v-60h-30v90h60v62z"/><path d="m301 360h-90v152h90zm-30 122h-30v-92h30z"/><path d="m61 285c0 24.814 20.186 45 45 45h300c24.814 0 45-20.186 45-45 0-22.816-2.242-13.37-156.826-265.115-16.553-26.514-59.795-26.514-76.348 0-154.568 251.719-156.826 242.183-156.826 265.115zm180-195h30v120h-30zm0 150h30v30h-30z"/></g></svg>