<svg id="Capa_1" enable-background="new 0 0 512 512" height="512" viewBox="0 0 512 512" width="512" xmlns="http://www.w3.org/2000/svg"><g><path d="m341 186c0-8.284-6.716-15-15-15h-140c-8.284 0-15 6.716-15 15v140c0 8.284 6.716 15 15 15h140c8.284 0 15-6.716 15-15z"/><path d="m375.022 168.798c5.858 5.858 15.355 5.858 21.213 0l55.157-55.157 22.696 22.696c8.894 8.894 24.126 3.551 25.515-8.95l12.303-110.728c1.061-9.554-7.011-17.626-16.565-16.565l-110.728 12.303c-12.501 1.389-17.844 16.621-8.95 25.515l22.696 22.696-55.157 55.157c-5.858 5.858-5.858 15.355 0 21.213z"/><path d="m12.397 127.387c1.389 12.501 16.621 17.844 25.515 8.95l22.696-22.696 55.157 55.157c5.858 5.858 15.355 5.858 21.213 0l31.82-31.82c5.858-5.858 5.858-15.355 0-21.213l-55.157-55.157 22.696-22.696c8.894-8.894 3.551-24.126-8.95-25.515l-110.728-12.303c-9.554-1.061-17.626 7.011-16.565 16.565z"/><path d="m499.603 384.613c-1.389-12.501-16.621-17.844-25.515-8.95l-22.696 22.696-55.157-55.157c-5.858-5.858-15.355-5.858-21.213 0l-31.82 31.82c-5.858 5.858-5.858 15.355 0 21.213l55.157 55.157-22.696 22.696c-8.894 8.894-3.551 24.126 8.95 25.515l110.728 12.303c9.554 1.062 17.626-7.011 16.565-16.564z"/><path d="m136.978 343.202c-5.858-5.858-15.355-5.858-21.213 0l-55.157 55.157-22.696-22.696c-8.894-8.894-24.126-3.551-25.515 8.95l-12.303 110.728c-1.061 9.554 7.011 17.626 16.565 16.564l110.728-12.303c12.501-1.389 17.844-16.621 8.95-25.515l-22.696-22.696 55.157-55.157c5.858-5.858 5.858-15.355 0-21.213z"/></g></svg>