<svg id="icon" height="512" viewBox="0 0 500 500" width="512" xmlns="http://www.w3.org/2000/svg"><path d="m159.44 198.555s-7.911-65.451-10.015-66.61-53-33.223-53-33.223l-10.5 20.472 42.685 27.232 7.128 55.025z" fill="#3f3535"/><path d="m413.2 69.928 5.575 334.378a5.845 5.845 0 0 1 -7.532 5.694l-16.794-5.067a14.553 14.553 0 0 0 -10.378.756l-25.734 12.066-14.665-101.055z" fill="#d3895f"/><path d="m203.059 69.928h210.141c-4.872 27.6-9.306 53.68-11.212 71.058l-43.671 276.769h-195.225c9.464-95.151 25.526-227.414 21.557-247l7.964-91.255a10.486 10.486 0 0 1 10.446-9.572z" fill="#ffbc87"/><path d="m413.2 69.928h-203.648a16.174 16.174 0 0 0 -1.626 4.425l-11.919 56.228c-1.107 5.223 1.848 10.405 5.934 10.405h200.047z" fill="#d3895f"/><path d="m171.576 320.551h202.079l12.586-79.766h-207.704z" fill="#fff9ca"/><path d="m191.3 77.572-17.124 50.173h211.362a6.166 6.166 0 0 0 5.71-3.841l21.952-53.976h-211.81a10.486 10.486 0 0 0 -10.09 7.644z" fill="#ffbc87"/><path d="m263.533 242.441a25.116 25.116 0 0 1 1.577-4.639 14.7 14.7 0 0 1 3.68-4.846c5.28-4.79 5.17-16.149 5.17-16.149-.163-9.99-6.269-14.591-10.3-16.763a5.74 5.74 0 0 1 -3-6.113 7.926 7.926 0 0 0 .125-2.489c-1.369-18.682-19.994-20.685-19.994-20.685h-56.15l-21.557 247h74.459a8.2 8.2 0 0 0 .512-1.919z" fill="#d3895f"/><path d="m178.537 240.785-6.961 79.766h80.484l11.473-78.11c.124-.561.282-1.112.452-1.656z" fill="#ffdda4"/><path d="m255.194 220.186h-83.36v.055h-83.352l28.3 200.167a11.237 11.237 0 0 0 11.126 9.665h43.937v-.055h43.93a11.238 11.238 0 0 0 11.127-9.665z" fill="#ed4343"/><path d="m105.502 340.64h132.664l6.374-45.09h-145.412z" fill="#fff9ca"/><rect fill="#cad0de" height="25.342" rx="12.671" width="181.315" x="81.18" y="207.515"/><rect fill="#cad0de" height="23.501" rx="11.75" width="155.731" x="94.571" y="184.015"/><circle cx="171.838" cy="318.095" fill="#fff9ca" r="36.609"/><path d="m418.591 71.053c.192-3.718-2-6.7-5.391-6.624h-216.478a9.859 9.859 0 0 0 -9.392 6.948l-19.341 54.53c-.6 1.684-1.189 7.662 5.184 7.338h9.227l-3.951 45.27h-15.981c-6.329-49.143-7.387-49.735-10.368-51.375-1.908-1.087-32.586-20.373-52.741-33.071a5.533 5.533 0 0 0 -7.825 2.142l-10.5 20.472a5.5 5.5 0 0 0 1.935 7.147l40.519 25.851 3.735 28.834h-20.9c-12.032-.262-20.746 12.883-15.936 23.841-16.658 3.286-20.066 25.691-5.211 33.792l26.157 185.031a16.815 16.815 0 0 0 16.573 14.394l87.866-.056a16.817 16.817 0 0 0 16.109-12.262h126.419a5.739 5.739 0 0 0 2.352-.52l25.734-12.066a9.036 9.036 0 0 1 6.455-.47l16.794 5.067a11.346 11.346 0 0 0 14.62-11.051s-5.602-332.844-5.664-333.162zm-221.027 4.376h207.462l-19.041 46.816h-205.026zm-4.12 57.816h196.241a5.5 5.5 0 0 0 5.095-3.427l5.559-13.668-18.8 119.135h-121.62c12.989-8.618 9.539-28.806-5.543-32.669 5.043-10.974-3.677-24.374-15.825-24.1h-49.058zm160.173 279.01h-120.017l10.015-70.845 2.171-15.359h121.433zm-120.228-77.115h-23.06a42.3 42.3 0 0 0 0-34.09h27.879c-1.193 8.444-3.62 25.61-4.819 34.09zm-136.789-96.783h150.471l-7.308 51.693h-36.548c-16.153-18.64-46.608-18.633-62.754 0h-36.561zm272.357 76.694h-121.619l2.648-18.731 7.073-50.034h122.746zm-263.494-14h27.886a42.3 42.3 0 0 0 0 34.09h-23.07zm35.265 17.049a31.145 31.145 0 0 1 31.11-31.11c41.271 1.709 41.258 60.517 0 62.22a31.146 31.146 0 0 1 -31.11-31.11zm-6.664-172.376a5.5 5.5 0 0 0 -2.5-3.93l-38.464-24.544 5.475-10.672c12.474 7.854 39.025 24.561 46.364 29.079.695 2.947 2.492 12.485 6.433 42.858h-13.06zm-27.742 43.8h132.23a6.251 6.251 0 0 1 0 12.5h-132.23c-8.232-.284-8.306-12.206 0-12.509zm-12.471 23.5h155.973c9.444.314 9.532 13.992 0 14.341h-155.973c-9.444-.324-9.531-14 0-14.349zm121.92 211.5-87.866.056a5.764 5.764 0 0 1 -5.682-4.934l-10.39-73.5h28.628c16.153 18.64 46.608 18.633 62.754 0h28.619l-10.382 73.443a5.763 5.763 0 0 1 -5.681 4.928zm197.348-19.838c-.138.106-17.1-5.011-17.1-5.011a20.025 20.025 0 0 0 -14.3 1.041l-16.351 7.667c1.605-10.169 43.362-274.812 43.362-274.812-.144.082 4.804 271.088 4.389 271.108z"/></svg>