<svg id="Layer_2" enable-background="new 0 0 32 32" height="512" viewBox="0 0 32 32" width="512" xmlns="http://www.w3.org/2000/svg"><g><path d="m25.39954 10.14075-3.67035 3.67029c.45007.87006.70007 1.86017.70007 2.90027 0 3.54028-2.89026 6.43054-6.43054 6.43054-1.04004 0-2.03015-.25006-2.90021-.70007l-2.67023 2.67017c1.77014.59009 3.65033.91016 5.57043.91016 5.7605 0 11.16095-2.83026 14.45123-7.56067.37007-.53004.55006-1.14009.55006-1.75014s-.17999-1.22015-.55005-1.75012c-1.37012-1.9602-3.09027-3.59033-5.05041-4.82043z"/><path d="m15.99872 21.14166c2.44025 0 4.43042-1.99017 4.43042-4.43036 0-.4801-.08008-.94006-.22003-1.38013l-5.59045 5.59045c.43999.14003.90008.22004 1.38006.22004z"/><path d="m26.26965 5.02032c-.39008-.39008-1.02014-.39008-1.41016 0l-3.29028 3.29022c-1.77014-.58997-3.65033-.91003-5.5705-.91003-5.76044 0-11.16089 2.8302-14.45117 7.56067-.73004 1.05005-.73004 2.4502 0 3.50024 1.37012 1.96014 3.09027 3.59027 5.05042 4.82043l-2.29016 2.29017c-.39008.39008-.39008 1.02008 0 1.4101.20001.20001.46002.29004.71002.29004.26007 0 .51007-.09003.71002-.29004l20.54181-20.54169c.38996-.39008.38996-1.03003 0-1.42011zm-8.8908 7.4806c-.44-.14001-.90009-.21997-1.38013-.21997-2.44019 0-4.43036 1.99017-4.43036 4.43036 0 .48004.08008.94006.22003 1.38013l-1.52008 1.52008c-.45007-.87006-.70007-1.86017-.70007-2.90021 0-3.54034 2.89026-6.43054 6.43048-6.43054 1.0401 0 2.03021.25006 2.90027.70001z"/></g></svg>