<svg height="512" viewBox="0 0 64 64" width="512" xmlns="http://www.w3.org/2000/svg"><g id="ad"><g><path d="m34.311 14.407c-.694.366-1.473.593-2.311.593s-1.616-.227-2.311-.593c-2.103.74-3.746 2.468-4.385 4.593h13.392c-.639-2.125-2.282-3.852-4.385-4.593z"/><circle cx="32" cy="10" r="3"/><path d="m27.994 12.961c-.616-.831-.994-1.849-.994-2.961 0-2.757 2.243-5 5-5s5 2.243 5 5c0 1.112-.377 2.13-.994 2.962 1.167.587 2.185 1.421 2.995 2.43l-.002-12.392h-14v12.39c.81-1.009 1.827-1.842 2.994-2.429z"/><circle cx="10" cy="48" r="3"/><path d="m27 25h10.001v2h-10.001z"/><path d="m12.311 52.407c-.694.366-1.473.593-2.311.593s-1.616-.227-2.311-.593c-2.103.74-3.746 2.468-4.385 4.593h13.392c-.639-2.125-2.282-3.852-4.385-4.593z"/><path d="m3 41v12.39c.81-1.009 1.827-1.842 2.994-2.429-.616-.831-.994-1.849-.994-2.961 0-2.757 2.243-5 5-5s5 2.243 5 5c0 1.112-.377 2.13-.994 2.962 1.167.587 2.185 1.421 2.995 2.43l-.002-12.392z"/><circle cx="54" cy="48" r="3"/><path d="m56.311 52.407c-.694.366-1.473.593-2.311.593s-1.616-.227-2.311-.593c-2.103.74-3.746 2.468-4.385 4.593h13.392c-.639-2.125-2.282-3.852-4.385-4.593z"/><path d="m49.994 50.961c-.616-.831-.994-1.849-.994-2.961 0-2.757 2.243-5 5-5s5 2.243 5 5c0 1.112-.377 2.13-.994 2.962 1.167.587 2.185 1.421 2.995 2.43l-.002-12.392h-14v12.39c.81-1.009 1.827-1.842 2.994-2.429z"/><path d="m25 41v12.39c.81-1.009 1.827-1.842 2.994-2.429-.616-.831-.994-1.849-.994-2.961 0-2.757 2.243-5 5-5s5 2.243 5 5c0 1.112-.377 2.13-.994 2.962 1.167.587 2.185 1.421 2.995 2.43l-.002-12.392h-14z"/><path d="m34.311 52.407c-.694.366-1.473.593-2.311.593s-1.616-.227-2.311-.593c-2.103.74-3.746 2.468-4.385 4.593h13.392c-.639-2.125-2.282-3.852-4.385-4.593z"/><circle cx="32" cy="48" r="3"/><path d="m4 61h12v2h-12z"/><path d="m26 61h12v2h-12z"/><path d="m48 61h12v2h-12z"/><path d="m11 36c0-.552.448-1 1-1h19v4h2v-4h19c.552 0 1 .448 1 1v3h2v-3c0-1.654-1.346-3-3-3h-19v-4h-2v4h-19c-1.654 0-3 1.346-3 3v3h2z"/></g></g></svg>