<svg id="Layer_1" enable-background="new 0 0 100 100" viewBox="0 0 100 100" xmlns="http://www.w3.org/2000/svg"><g><path d="m10.1691761 50.1370468c0-24.0644951 19.5879803-43.6783524 43.6783447-43.6783524s43.6524792 19.6138573 43.6524792 43.6783524c0 22.3112183-16.8376999 40.7966919-38.4903908 43.3718643-2.7703629.329483-5.1879539-1.8982239-5.1879539-4.6881104v-.2855377c.0000038-2.413063 1.8294945-4.3862915 4.2240486-4.6845398 17.5328865-2.1837692 30.9612007-17.7789382 29.664257-36.1648292-1.180687-16.7378826-14.7513962-30.2861843-31.4910851-31.4409332-19.8158607-1.3669491-36.3462753 14.3649483-36.3462753 33.892086h6.2183361c1.2860832 0 1.9301567 1.5549316 1.0207577 2.4643326l-11.082077 11.0820732c-.564105.564106-1.4788227.563694-2.0424252-.0009079l-11.0623934-11.0820732c-.9081533-.909771-.2638001-2.4634247 1.0216656-2.4634247z"/><path d="m58.6862984 45.2723961h4.9937782c2.6010666 0 4.7096481 2.1085815 4.7096481 4.7096481v.3100014c0 2.6010666-2.1085815 4.7096481-4.7096481 4.7096481h-9.9875526c-2.6010666 0-4.7096481-2.1085815-4.7096481-4.7096481v-19.7168522c0-2.6010666 2.1085815-4.7096481 4.7096481-4.7096481h.2841301c2.6010666 0 4.7096443 2.1085815 4.7096443 4.7096481z"/></g></svg>