<svg id="Layer_1" height="512" viewBox="0 0 512 512" width="512" xmlns="http://www.w3.org/2000/svg" data-name="Layer 1"><circle cx="290.498" cy="216.037" r="45.723"/><path d="m478.434 59.129-311.865-58.463a38.508 38.508 0 0 0 -44.943 30.753l-16.172 86.27h-64.8a38.507 38.507 0 0 0 -38.507 38.511v317.3a38.507 38.507 0 0 0 38.507 38.5h317.3a38.507 38.507 0 0 0 38.507-38.507v-28.551l9.321 1.748a38.507 38.507 0 0 0 44.943-30.753l58.464-311.865a38.508 38.508 0 0 0 -30.755-44.943zm-451.4 275.457v-163.286a28.728 28.728 0 0 1 28.728-28.728h288.855a26.955 26.955 0 0 1 26.955 26.955v244.338l-120.554-113-43.962 26.82-67.282-67.285zm455.235-221.993-45.019 240.151-40.791-55.665v-140.879a38.507 38.507 0 0 0 -38.507-38.507h-227.178l12.526-66.84a28.729 28.729 0 0 1 33.532-22.943l283.911 53.223a26.954 26.954 0 0 1 21.526 31.46z"/></svg>