<svg id="Слой_1" enable-background="new 0 0 512 512" height="512" viewBox="0 0 512 512" width="512" xmlns="http://www.w3.org/2000/svg"><g><g><path d="m256 0c-107.518 0-195.048 87.524-195.048 195.048 0 155.798 171.887 304.762 179.202 311.095 4.632 3.905 10.239 5.857 15.846 5.857s11.214-1.952 15.845-5.857c7.315-6.333 179.202-155.298 179.202-311.095.001-107.524-87.523-195.048-195.047-195.048zm0 292.571c-53.881 0-97.524-43.643-97.524-97.524s43.643-97.523 97.524-97.523 97.524 43.643 97.524 97.524-43.643 97.523-97.524 97.523z"/></g><g><circle cx="256" cy="195.048" r="48.762"/></g></g></svg>