<svg enable-background="new 0 0 48 48" height="512" viewBox="0 0 48 48" width="512" xmlns="http://www.w3.org/2000/svg"><g id="Line"><path d="m39 25h6c1.31-.01 1.31-1.99 0-2h-6c-1.31.01-1.31 1.99 0 2z"/><path d="m38 17c.26 0 .51-.1.71-.29l3-3c.39-.39.39-1.02 0-1.41s-1.02-.39-1.41 0l-3 3c-.64.59-.16 1.73.7 1.7z"/><path d="m40.29 35.71c.93.92 2.34-.49 1.41-1.41 0 0-3-3-3-3-.39-.39-1.02-.39-1.41 0s-.39 1.02 0 1.41z"/><path d="m25.28 37.36c.35.33 2.51 2.93 2.94 3.11 1.94 1.39 4.85-.15 4.78-2.55v-27.84c.07-2.42-2.89-3.96-4.83-2.52-1.55 1.35-3.26 3.8-4.93 5-3.13 2.65-7.16 4.15-11.24 4.41v14.06c1.47.12 2.94.32 4.35.75 3.42.98 6.54 2.95 8.93 5.58z"/><path d="m2.09 26.9c.41 2.32 2.54 4.12 4.91 4.1h3v-14h-3c-2.76 0-5 2.24-5 5 .03.7-.08 4.29.09 4.9z"/><path d="m7 33c-.7 0-1.37-.11-2-.29v5.29c.1 3.95 5.9 3.96 6 0v-5c-.66 0-3.29 0-4 0z"/></g></svg>