<svg height="512" viewBox="0 0 64 64" width="512" xmlns="http://www.w3.org/2000/svg"><g id="_11_Move" data-name="11 Move"><path d="m60.958 33.3984-8.4888 8.8174a2.0287 2.0287 0 0 1 -3.4692-1.3984v-3.8008l-12-.0151v11.9819l3.8174.0166a2.029 2.029 0 0 1 1.3989 3.4692l-8.8179 8.4888a2.0091 2.0091 0 0 1 -2.7968 0l-8.8174-8.4888a2.0287 2.0287 0 0 1 1.3984-3.4692h3.8008l.0151-12h-11.9819l-.0166 3.8174a2.029 2.029 0 0 1 -3.4692 1.3989l-8.4888-8.8179a2.0091 2.0091 0 0 1 0-2.7968l8.4888-8.8174a2.0287 2.0287 0 0 1 3.4692 1.3984v3.8008l12 .0151v-11.9819l-3.8174-.0166a2.029 2.029 0 0 1 -1.3989-3.4692l8.8179-8.4888a2.0081 2.0081 0 0 1 2.7968 0l8.8174 8.4888a2.0286 2.0286 0 0 1 -1.3984 3.4692h-3.8008l-.0151 12h11.9819l.0166-3.8174a2.0291 2.0291 0 0 1 3.4692-1.3989l8.4888 8.8179a2.0091 2.0091 0 0 1 0 2.7968z"/></g></svg>