<svg id="bold" enable-background="new 0 0 24 24" height="512" viewBox="0 0 24 24" width="512" xmlns="http://www.w3.org/2000/svg"><path d="m16.5 13.25h.63c.204 0 .37-.166.37-.37 0-.214-.166-.38-.37-.38h-.63z"/><path d="m12.25 12.5h-.5c-.138 0-.25.112-.25.25v2.5c0 .138.112.25.25.25h.5c.138 0 .25-.112.25-.25v-2.5c0-.138-.112-.25-.25-.25z"/><path d="m21.25 5h-4.25v-2c0-1.103-.897-2-2-2h-6c-1.103 0-2 .897-2 2v2h-4.25c-1.517 0-2.75 1.233-2.75 2.75v11.5c0 1.517 1.233 2.75 2.75 2.75h18.5c1.517 0 2.75-1.233 2.75-2.75v-11.5c0-1.517-1.233-2.75-2.75-2.75zm-12.25 10.25c0 .965-.785 1.75-1.75 1.75h-1.5c-.414 0-.75-.336-.75-.75s.336-.75.75-.75h1.5c.138 0 .25-.112.25-.25v-3.5c0-.414.336-.75.75-.75s.75.336.75.75zm0-12.25h6v2h-6zm5 12.25c0 .965-.785 1.75-1.75 1.75h-.5c-.965 0-1.75-.785-1.75-1.75v-2.5c0-.965.785-1.75 1.75-1.75h.5c.965 0 1.75.785 1.75 1.75zm5-.13c0 1.041-.839 1.88-1.87 1.88h-1.38c-.414 0-.75-.336-.75-.75v-4.5c0-.414.336-.75.75-.75h1.38c1.031 0 1.87.839 1.87 1.87 0 .426-.146.814-.383 1.129.237.313.383.699.383 1.121z"/><path d="m17.13 14.75h-.63v.75h.63c.204 0 .37-.166.37-.37 0-.214-.166-.38-.37-.38z"/></svg>