<svg enable-background="new 0 0 64 64" height="64" viewBox="0 0 64 64" width="64" xmlns="http://www.w3.org/2000/svg"><g id="Layer_1"><path d="m46.03 10.11c-7.65-4.92-17.63-5.43-25.75-1.32-7.97 4.03-13.43 12.09-14.19 20.99-.76 8.99 3.3 17.9 10.58 23.22 4.58 3.35 10.21 5.12 15.87 4.99 2.97-.061 4.87-3.37 3.4-5.971-2.8-4.939-1.59-11.38 2.81-14.97 3.73-3.04 9.09-3.479 13.27-1.109 2.59 1.46 5.91-.41 5.97-3.4.19-8.97-4.4-17.58-11.96-22.43zm-29.92 29.85c-1.9 0-3.5-1.6-3.5-3.5 0-1.91 1.6-3.5 3.5-3.5 1.91 0 3.5 1.59 3.5 3.5 0 1.9-1.59 3.5-3.5 3.5zm1.97-11.85c-2.18 0-4-1.82-4-4 0-2.181 1.82-4 4-4s4 1.819 4 4c0 2.18-1.82 4-4 4zm12.39-7.03c-2.45 0-4.5-2.05-4.5-4.5 0-2.46 2.05-4.5 4.5-4.5s4.5 2.04 4.5 4.5c0 2.45-2.05 4.5-4.5 4.5zm13.88 7.4c-2.73 0-5-2.271-5-5 0-2.721 2.27-5 5-5 2.72 0 5 2.279 5 5 0 2.73-2.28 5-5 5z"/></g><g id="Layer_2" style="display:none;fill:none;stroke:rgb(0,0,0);stroke-width:.25;stroke-linecap:round;stroke-linejoin:round;stroke-miterlimit:10"><path d="m32.54 57.99c2.97-.061 4.87-3.37 3.4-5.971" display="inline"/><path d="m52.02 35.94c-4.18-2.37-9.54-1.931-13.27 1.109-4.4 3.59-5.61 10.03-2.81 14.97" display="inline"/><path d="m57.99 32.54c.19-8.97-4.4-17.58-11.96-22.43-7.65-4.92-17.63-5.43-25.75-1.32-7.97 4.03-13.43 12.09-14.19 20.99-.76 8.99 3.3 17.9 10.58 23.22 4.58 3.35 10.21 5.12 15.87 4.99" display="inline"/><path d="m52.02 35.94c2.59 1.46 5.91-.41 5.97-3.4" display="inline"/><path d="m49.35 23.48c0-2.721-2.28-5-5-5-2.73 0-5 2.279-5 5 0 2.729 2.27 5 5 5 2.72 0 5-2.27 5-5z" display="inline"/><path d="m34.97 16.58c0-2.46-2.05-4.5-4.5-4.5s-4.5 2.04-4.5 4.5c0 2.45 2.05 4.5 4.5 4.5s4.5-2.05 4.5-4.5z" display="inline"/><path d="m22.08 24.11c0-2.181-1.82-4-4-4s-4 1.819-4 4c0 2.18 1.82 4 4 4s4-1.82 4-4z" display="inline"/><path d="m19.61 36.46c0-1.91-1.59-3.5-3.5-3.5-1.9 0-3.5 1.59-3.5 3.5 0 1.9 1.6 3.5 3.5 3.5 1.91 0 3.5-1.6 3.5-3.5z" display="inline"/></g></svg>