<svg fill="none" height="512" viewBox="0 0 97 97" width="512" xmlns="http://www.w3.org/2000/svg"><path clip-rule="evenodd" d="m48.7209 14.6749c11.2817 2.1216 22.5261 8.6767 28.9462 18.2898 4.5409 6.8114 6.6213 14.2283 5.934 20.2596-.3458 3.0352-1.413 5.8492-3.3777 7.9781-2.0003 2.1674-4.7547 3.4295-8.0562 3.6043l-.0262.0014c-.8533.0366-1.966.0255-3.1164.014l-.0105-.0001c-.4457-.0044-.897-.0089-1.341-.0107-1.6751-.0068-3.3934.0201-4.9271.1821-1.5969.1687-2.691.4573-3.2917.7929-.1413.0789-.2189.1407-.2574.1764l.0026.0328.0009.0083c.045.4651.4306 1.2223 1.641 2.3387.8405.7751 1.771 1.4614 2.7665 2.1956.4156.3066.8435.6221 1.28.9554.6798.519 1.402 1.1016 1.9933 1.7193.5471.5716 1.2722 1.4639 1.5049 2.6393.2841 1.4354-.2589 2.7093-1.1901 3.6243-.8082.7941-1.9219 1.3501-3.1092 1.7899-1.7378.6436-4.1121.8626-6.6419.8099-2.5982-.0541-5.6099-.4018-8.7562-1.0583-6.2562-1.3054-13.3078-3.8879-18.8005-8.0835-18.1921-13.8433-22.45779-36.1401-11.6811-49.273 3.4847-4.2493 8.0366-6.9736 13.0678-8.4281 5.4974-1.5894 11.5678-1.6638 17.446-.5584zm3.3143 27.0582c.2125-2.1355 1.2218-4.307 3.3259-5.5219 2.1041-1.2148 4.4893-1.0032 6.445-.1196 1.9605.8858 3.7037 2.5145 4.9046 4.5945s1.7399 4.404 1.5268 6.5446c-.2126 2.1355-1.2219 4.307-3.326 5.5218-2.1041 1.2149-4.4893 1.0033-6.445.1197-1.9604-.8858-3.7036-2.5145-4.9045-4.5945-1.201-2.08-1.7399-4.404-1.5268-6.5446zm-19.8022-6.6396c2.2132 0 4.0074-1.7941 4.0074-4.0074 0-2.2132-1.7942-4.0074-4.0074-4.0074s-4.0074 1.7942-4.0074 4.0074c0 2.2133 1.7942 4.0074 4.0074 4.0074zm17.4682-6.1652c0 2.2132-1.7942 4.0074-4.0074 4.0074s-4.0074-1.7942-4.0074-4.0074 1.7942-4.0074 4.0074-4.0074 4.0074 1.7942 4.0074 4.0074zm-14.2314 30.0041c2.2132 0 4.0074-1.7942 4.0074-4.0074s-1.7942-4.0074-4.0074-4.0074-4.0074 1.7942-4.0074 4.0074 1.7942 4.0074 4.0074 4.0074zm-2.5689-15.3104c0 2.2132-1.7942 4.0074-4.0074 4.0074s-4.0074-1.7942-4.0074-4.0074 1.7942-4.0074 4.0074-4.0074 4.0074 1.7942 4.0074 4.0074z" fill="rgb(0,0,0)" fill-rule="evenodd"/></svg>