<svg id="Capa_1" enable-background="new 0 0 512 512" viewBox="0 0 512 512" xmlns="http://www.w3.org/2000/svg"><g><g><g><path d="m433.906 158.537-37.034-64.144h-281.745l-37.034 64.144c-2.194 3.8-3.349 8.112-3.349 12.5v230.855c0 4.388 1.155 8.7 3.349 12.5l44.807 77.608c4.466 7.735 12.719 12.5 21.651 12.5h222.898c8.932 0 17.185-4.765 21.65-12.5l44.807-77.608c2.194-3.801 3.349-8.112 3.349-12.5v-230.855c.001-4.389-1.154-8.7-3.349-12.5z" fill="#ffbd86"/><path d="m433.906 158.537-37.034-64.144h-281.745l-37.034 64.144c-2.194 3.8-3.349 8.112-3.349 12.5v230.855c0 4.388 1.155 8.7 3.349 12.5l44.807 77.608c4.466 7.735 12.719 12.5 21.651 12.5h222.898c8.932 0 17.185-4.765 21.65-12.5l44.807-77.608c2.194-3.801 3.349-8.112 3.349-12.5v-230.855c.001-4.389-1.154-8.7-3.349-12.5z" fill="#ffbd86"/><path d="m433.906 158.537-37.034-64.144h-41.744l37.034 64.144c2.194 3.801 3.349 8.112 3.349 12.5v230.855c0 4.389-1.155 8.7-3.35 12.5l-27.774 48.108c-2.679 4.641-7.631 7.5-12.99 7.5h-241.198l12.702 22c4.466 7.735 12.719 12.5 21.651 12.5h222.898c8.932 0 17.185-4.765 21.65-12.5l44.807-77.608c2.194-3.801 3.349-8.112 3.349-12.5v-230.855c0-4.389-1.155-8.7-3.35-12.5z" fill="#f6a96c"/><path d="m148.671 401.892 29.971 102.608h154.716l29.971-102.608z" fill="#f6a96c"/><path d="m168.565 470 10.077 34.5h154.716l10.077-34.5z" fill="#ea9b58"/><path d="m220.274 401.892 9.976 102.608h51.5l9.976-102.608z" fill="#ffbd86"/><path d="m226.896 470 3.354 34.5h51.5l3.354-34.5z" fill="#f6a96c"/><path d="m74.744 171.037h362.512v230.855h-362.512z" fill="#ffe177"/><path d="m395.512 171.037h41.744v230.855h-41.744z" fill="#ffd15b"/><path d="m411.819 95.393h-311.638c-2.761 0-5-2.239-5-5v-67.893c0-8.284 6.716-15 15-15h291.638c8.284 0 15 6.716 15 15v67.893c0 2.761-2.238 5-5 5z" fill="#62dbfb"/><path d="m411.819 95.393h-311.638c-2.761 0-5-2.239-5-5v-67.893c0-8.284 6.716-15 15-15h291.638c8.284 0 15 6.716 15 15v67.893c0 2.761-2.238 5-5 5z" fill="#62dbfb"/><path d="m332.406 225.707c-43.616-38.376-109.197-38.376-152.813 0-3.17 2.789-7.955 2.647-10.94-.338-12.022-12.021-24.043-24.043-36.064-36.064-3.273-3.273-3.128-8.477.29-11.599 69.642-63.608 176.598-63.608 246.241 0 3.418 3.122 3.563 8.326.29 11.599-12.021 12.021-24.043 24.043-36.064 36.064-2.985 2.985-7.77 3.127-10.94.338z" fill="#fff"/><path d="m379.12 177.706c-7.309-6.676-15.034-12.642-23.08-17.917-5.402 6.558-10.803 13.115-16.205 19.673-7.402 8.986-20.258 11.412-30.304 5.529-50.618-29.642-116.341-19.904-156.032 25.223l15.154 15.154c2.985 2.985 7.77 3.127 10.94.338 43.616-38.376 109.197-38.376 152.812 0 3.17 2.789 7.955 2.647 10.94-.338 12.021-12.021 24.043-24.043 36.064-36.064 3.274-3.272 3.129-8.477-.289-11.598z" fill="#f2fbff"/><path d="m437.256 272.054h-62.106c-3.063 0-5.545 2.483-5.545 5.545v79.855c0 3.063 2.483 5.546 5.545 5.546h62.106z" fill="#62dbfb"/><path d="m395.512 272.054h41.744v90.946h-41.744z" fill="#01d0fb"/><path d="m141.129 7.5h45.948v55.729h-45.948z" fill="#99e6fc"/><path d="m187.078 7.5h45.948v55.729h-45.948z" fill="#62dbfb"/><path d="m233.026 7.5h45.948v55.729h-45.948z" fill="#99e6fc"/><path d="m278.974 7.5h45.948v55.729h-45.948z" fill="#62dbfb"/><path d="m324.923 7.5h45.948v55.729h-45.948z" fill="#99e6fc"/><path d="m411.819 95.393h-311.638c-2.761 0-5-2.239-5-5v-27.164h321.638v27.164c0 2.761-2.238 5-5 5z" fill="#01d0fb"/><path d="m370.871 63.229v32.164h40.948c2.761 0 5-2.239 5-5v-27.164z" fill="#01c0fa"/><g><path d="m311.924 305.254c-5.922-6.986-13.661-11.312-21.836-12.981-11.271-2.301-20.06-11.09-22.362-22.362-1.669-8.174-5.995-15.914-12.981-21.836-14.518-12.307-36.32-12.066-50.588.531-16.92 14.94-17.522 40.794-1.806 56.511 5.69 5.69 12.707 9.239 20.055 10.649 10.97 2.106 19.72 10.856 21.826 21.826 1.41 7.348 4.96 14.365 10.649 20.055 15.716 15.716 41.571 15.114 56.511-1.806 12.598-14.267 12.84-36.069.532-50.587z" fill="#ffbd86"/><g><path d="m311.924 305.254c-5.25-6.193-11.929-10.291-19.073-12.305.744 3.905 1.149 7.93 1.149 12.051 0 24.64-13.933 46.014-34.342 56.71 15.792 11.386 38.226 9.432 51.735-5.868 12.597-14.268 12.838-36.07.531-50.588z" fill="#f6a96c"/></g><path d="m307.003 300.384c-6.74 2.906-11.461 9.605-11.461 17.412 0 10.47 8.488 18.958 18.958 18.958 2.142 0 4.193-.372 6.113-1.026 1.504-10.658-1.379-21.851-8.689-30.474-1.527-1.801-3.176-3.422-4.921-4.87z" fill="#ea9b58"/><g fill="#f6a96c"><path d="m196.958 265.796c-1.457 0-2.87.18-4.232.491-3.86 12.551-1.207 26.669 7.966 37.054 8.681-1.735 15.224-9.395 15.224-18.586.001-10.471-8.487-18.959-18.958-18.959z"/><path d="m265.75 327.546c0-10.77-8.73-19.5-19.5-19.5-7.326 0-13.701 4.045-17.034 10.019 7.654 3.749 13.37 10.951 15.017 19.527.619 3.228 1.677 6.382 3.122 9.398 10.252-.576 18.395-9.047 18.395-19.444z"/><path d="m269.129 274.611c-.589-1.51-1.07-3.075-1.402-4.7-1.669-8.174-5.995-15.914-12.981-21.836-2.504-2.122-5.227-3.862-8.088-5.239-5.448 3.458-9.075 9.529-9.075 16.46 0 10.77 8.73 19.5 19.5 19.5 4.551 0 8.728-1.572 12.046-4.185z"/></g></g></g></g><g><path d="m440.401 154.787-29.961-51.895h1.379c6.893 0 12.5-5.607 12.5-12.5v-67.892c0-12.406-10.094-22.5-22.5-22.5h-291.638c-12.406 0-22.5 10.094-22.5 22.5v67.893c0 6.893 5.607 12.5 12.5 12.5h1.379l-29.961 51.894c-2.849 4.934-4.354 10.553-4.354 16.251v76.962c0 4.143 3.357 7.5 7.5 7.5s7.5-3.357 7.5-7.5v-69.463h41.351c-.53 1.515-.83 3.116-.868 4.767-.096 4.253 1.523 8.268 4.56 11.305l36.064 36.064c5.762 5.761 15.073 6.053 21.197.665 40.733-35.842 102.169-35.844 142.904 0 2.932 2.579 6.592 3.856 10.244 3.856 3.979 0 7.949-1.518 10.953-4.521l36.064-36.064c3.036-3.037 4.655-7.052 4.56-11.305-.038-1.651-.338-3.252-.868-4.767h41.351v86.017h-54.607c-7.193 0-13.046 5.853-13.046 13.046v79.854c0 7.193 5.853 13.046 13.046 13.046h54.605v23.893h-347.511v-111.393c0-4.143-3.357-7.5-7.5-7.5s-7.5 3.357-7.5 7.5v118.893c0 5.696 1.506 11.315 4.354 16.25l44.807 77.607c5.787 10.023 16.572 16.25 28.146 16.25h222.898c11.573 0 22.357-6.227 28.146-16.25l44.807-77.607c2.849-4.935 4.354-10.554 4.354-16.25v-230.856c0-5.698-1.506-11.317-4.355-16.25zm-31.082-132.287v33.229h-30.948v-40.729h23.448c4.136 0 7.5 3.364 7.5 7.5zm-45.948-7.5v40.729h-30.948v-40.729zm-76.896 40.729v-40.729h30.948v40.729zm-15-40.729v40.729h-30.948v-40.729zm-76.898 40.729v-40.729h30.949v40.729zm-15-40.729v40.729h-30.948v-40.729zm-69.396 0h23.448v40.729h-30.948v-33.229c0-4.136 3.364-7.5 7.5-7.5zm263.925 169.001-36.064 36.065c-.186.186-.479.188-.682.01-46.384-40.811-116.339-40.809-162.721 0-.205.18-.501.174-.683-.011l-36.063-36.064c-.121-.12-.174-.23-.171-.357.004-.14.073-.271.215-.399 32.297-29.5 74.226-45.745 118.063-45.745s85.766 16.245 118.062 45.744c.142.129.211.26.215.399.003.128-.049.238-.171.358zm-.066-20.464c-33.488-26.552-74.915-41.037-118.04-41.037-43.126 0-84.553 14.485-118.04 41.037h-54.02c.201-.424.413-.843.649-1.25l34.291-59.395h36.12c4.143 0 7.5-3.357 7.5-7.5s-3.357-7.5-7.5-7.5h-52.319v-17.163h306.639v17.163h-219.32c-4.143 0-7.5 3.357-7.5 7.5s3.357 7.5 7.5 7.5h203.12l34.291 59.396c.235.407.447.826.648 1.249zm3.064 191.963v-75.946h52.651v75.946zm-247.708 132.75-44.807-77.607c-.235-.407-.448-.826-.648-1.25h59.108l25.589 87.607h-24.087c-6.232 0-12.039-3.353-15.155-8.75zm29.279-78.857h54.792l8.518 87.607h-37.721zm78.382 87.607-8.519-87.607h54.924l-8.519 87.607zm145.547-8.751c-3.116 5.398-8.924 8.751-15.155 8.751h-24.087l10.131-34.685c1.161-3.976-1.12-8.141-5.097-9.302s-8.141 1.12-9.302 5.097l-11.359 38.89h-37.721l8.518-87.607h54.792l-4.408 15.092c-1.161 3.976 1.12 8.141 5.097 9.302 3.977 1.162 8.141-1.12 9.302-5.097l5.636-19.297h59.109c-.201.424-.413.843-.648 1.25z"/><path d="m110 312.5h32c4.143 0 7.5-3.357 7.5-7.5s-3.357-7.5-7.5-7.5h-32c-4.143 0-7.5 3.357-7.5 7.5s3.357 7.5 7.5 7.5z"/><path d="m110 341.5h62c4.143 0 7.5-3.357 7.5-7.5s-3.357-7.5-7.5-7.5h-62c-4.143 0-7.5 3.357-7.5 7.5s3.357 7.5 7.5 7.5z"/><path d="m110 370.5h62c4.143 0 7.5-3.357 7.5-7.5s-3.357-7.5-7.5-7.5h-62c-4.143 0-7.5 3.357-7.5 7.5s3.357 7.5 7.5 7.5z"/><path d="m236.868 339.007c1.745 9.094 6.141 17.374 12.71 23.944 8.657 8.656 20.518 13.549 32.735 13.549.473 0 .945-.008 1.419-.022 12.893-.4 24.713-5.966 33.282-15.672 15.076-17.074 15.348-43.042.63-60.401-6.813-8.037-15.824-13.391-26.055-15.479-8.331-1.701-14.813-8.184-16.515-16.514-2.09-10.232-7.442-19.242-15.479-26.056-17.359-14.718-43.329-14.446-60.401.63-9.706 8.569-15.271 20.39-15.672 33.282-.395 12.714 4.535 25.162 13.526 34.154 6.57 6.569 14.851 10.965 23.944 12.71 7.967 1.53 14.346 7.909 15.876 15.875zm15.158-.975c-.157-.613-.308-1.228-.428-1.853-1.446-7.531-5.384-14.236-10.884-19.246 1.686-.882 3.571-1.387 5.535-1.387 6.617 0 12 5.383 12 12 .001 4.501-2.505 8.442-6.223 10.486zm54.084-28.029c.03.035.063.066.093.101 4.658 5.495 7.091 12.268 7.311 19.101-5.858-.503-10.472-5.423-10.472-11.409 0-2.952 1.136-5.714 3.068-7.793zm-58.535-57.988c.795.553 1.571 1.146 2.322 1.782 5.302 4.495 8.859 10.391 10.346 17.07-1.019.279-2.077.429-3.16.429-6.617 0-12-5.383-12-12 0-2.685.902-5.22 2.492-7.281zm-44.312 42.295c-3.28-5.201-4.944-11.249-4.748-17.576.034-1.105.126-2.198.272-3.277 5.45.88 9.631 5.604 9.631 11.299-.001 3.932-2.026 7.481-5.155 9.554zm1.175-34.931c1.351-1.855 2.912-3.585 4.685-5.15 5.854-5.168 13.253-7.76 20.653-7.76 1.151 0 2.301.07 3.446.195-2.029 3.824-3.139 8.136-3.139 12.631 0 14.888 12.112 27 27 27 3.117 0 6.144-.529 9.004-1.544 5.203 7.525 13.163 12.963 22.502 14.87 1.833.374 3.604.915 5.31 1.594-3.708 4.607-5.856 10.412-5.856 16.579 0 13.193 9.706 24.159 22.351 26.139-1.199 2.47-2.738 4.81-4.622 6.943-5.801 6.569-13.793 10.337-22.504 10.607-8.721.238-16.916-2.976-23.081-9.142-.357-.357-.689-.734-1.028-1.106 8.42-4.59 14.092-13.513 14.092-23.692 0-14.888-12.112-27-27-27-7.53 0-14.611 3.161-19.652 8.517-.913-.256-1.837-.482-2.777-.662-3.416-.656-6.653-1.885-9.627-3.597 5.685-4.903 9.222-12.146 9.222-20.05 0-11.988-8.022-22.136-18.979-25.372z"/></g></g><g/><g/><g/><g/><g/><g/><g/><g/><g/><g/><g/><g/><g/><g/><g/></svg>