<svg viewBox="0 0 512 512" xmlns="http://www.w3.org/2000/svg"><g id="_8_Planning" data-name="8 Planning"><path d="m151.56 379.15a20.34 20.34 0 0 0 -35.22 1l-.76 1.41a188.8 188.8 0 0 1 -43.4-84 31 31 0 0 0 -60.43 13.58 251.58 251.58 0 0 0 73.08 127.54l-2.44 4.52a20.34 20.34 0 0 0 18.51 30l71.54-2.11a20.34 20.34 0 0 0 16.71-31z"/><path d="m440.06 322.85-60.9 37.59a20.34 20.34 0 0 0 1 35.21l1.41.76a188.87 188.87 0 0 1 -84 43.41 31 31 0 0 0 6.75 61.18 31.42 31.42 0 0 0 6.83-.76 251.51 251.51 0 0 0 127.53-73.08l4.53 2.44a20.34 20.34 0 0 0 30-18.51l-2.12-71.53a20.34 20.34 0 0 0 -31.03-16.71z"/><path d="m500.24 200.86a251.49 251.49 0 0 0 -73.07-127.54l2.44-4.52a20.34 20.34 0 0 0 -18.51-30l-71.54 2.11a20.34 20.34 0 0 0 -16.71 31l37.59 60.9a20.34 20.34 0 0 0 35.22-1l.76-1.41a188.75 188.75 0 0 1 43.4 84 31 31 0 1 0 60.42-13.58z"/><path d="m71.94 189.15 60.9-37.59a20.34 20.34 0 0 0 -1-35.22l-1.41-.75a188.87 188.87 0 0 1 84-43.41 31 31 0 1 0 -13.59-60.42 251.56 251.56 0 0 0 -127.52 73.07l-4.52-2.43a20.34 20.34 0 0 0 -30 18.5l2.11 71.54a20.34 20.34 0 0 0 31.03 16.71z"/><path d="m381.33 256a125.33 125.33 0 1 0 -125.33 125.33 125.47 125.47 0 0 0 125.33-125.33zm-54.94 45.15a6 6 0 0 1 -8.29 1.85l-65.34-41.91a6 6 0 0 1 -2.76-5.09v-73.46a6 6 0 1 1 12 0v70.18l62.58 40.14a6 6 0 0 1 1.81 8.29z"/></g></svg>