<svg clip-rule="evenodd" fill-rule="evenodd" height="512" image-rendering="optimizeQuality" shape-rendering="geometricPrecision" text-rendering="geometricPrecision" viewBox="0 0 43.3492 43.3492" width="512" xmlns="http://www.w3.org/2000/svg"><g id="Layer_x0020_1"><g id="_311114792"><path id="_311115128" d="m21.6743 6.1523h.0001c1.0281 0 1.8694.8416 1.8694 1.8696v5.6623h-3.7388v-5.6623c0-1.028.8411-1.8696 1.8693-1.8696z"/><path id="_311115104" d="m8.1571 32.3249h6.7187l.4698-2.7193v2.7193h1.9536l-.0097-3.5041c.0263-2.8551-2.1465-1.8557-3.6077-2.7293 0 2.6204-4.3307 2.6205-4.3307 0-1.4611.8736-3.6338-.1257-3.607 2.7293l-.0098 3.5041h1.9531v-2.7193z"/><path id="_311115656" d="m14.5094 20.6779c0 2.2189-.755 3.6562-1.7214 4.2994-.3998.2661-.835.3992-1.2712.3992-.4363 0-.8714-.1331-1.2713-.3992-.9663-.6432-1.7213-2.0805-1.7213-4.2993 0-1.5179.7791-2.4938 1.7764-2.9244.3863-.1668.8025-.2502 1.2162-.2502s.8299.0834 1.2162.2502c.9973.4306 1.7764 1.4065 1.7764 2.9243zm-2.104 3.6971c.7856-.5229 1.3994-1.7511 1.3994-3.6971 0-1.1838-.5897-1.937-1.3443-2.2629-.295-.1274-.6181-.1911-.9437-.1911s-.6487.0637-.9437.1911c-.7547.3259-1.3443 1.0792-1.3443 2.263 0 1.9459.6138 3.1741 1.3993 3.697.2815.1873.5856.281.8887.281.303 0 .6072-.0937.8886-.281z" fill-rule="nonzero"/><path id="_311115512" d="m13.5632 26.6776c.112.079.256.0338.3217-.1009s.0281-.308-.0839-.387c-.194-.137-.3742-.3186-.5319-.565-.1606-.2509-.2987-.571-.4059-.9823-.0387-.1494-.1708-.2328-.295-.1863s-.1935.2054-.1548.3548c.1245.4781.2893.8567.4833 1.1597.1967.3074.4226.5347.6665.707zm-2.9437-1.8667c.0387-.1494-.0306-.3083-.1548-.3548-.1242-.0466-.2563.0368-.295.1862-.1072.4114-.2454.7317-.406.9826-.1577.2464-.338.428-.5321.5651-.112.079-.1496.2522-.0839.3869.0656.1347.2097.1799.3217.1009.244-.1723.4699-.3996.6667-.707.194-.303.3588-.6818.4834-1.1599z" fill-rule="nonzero"/><path id="_311114816" d="m14.8758 32.3249h-6.7187-.4697-1.9531-2.3497v-16.2641h16.2638v16.2641h-2.3492-1.9536zm-14.8759-19.0983v21.9324c0 1.1208.9174 2.038 2.0386 2.038h39.2718c1.1207 0 2.0389-.9172 2.0389-2.038v-21.9324c0-1.1218-.9181-2.039-2.0389-2.039h-16.9925v3.2706h-5.2868v-3.2706l-16.9925.0001c-1.1212 0-2.0386.9171-2.0386 2.0389zm22.1293 19.0983c0-.2138.1732-.387.387-.387h17.448c.2138 0 .387.1732.387.387 0 .2137-.1732.387-.387.387h-17.448c-.2138 0-.387-.1733-.387-.387zm0-8.1326c0-.2137.1732-.387.387-.387h17.448c.2138 0 .387.1733.387.387s-.1732.387-.387.387h-17.448c-.2138 0-.387-.1733-.387-.387zm.387-7.7445c-.2138 0-.387-.1733-.387-.387 0-.2138.1732-.387.387-.387h17.448c.2138 0 .387.1732.387.387 0 .2137-.1732.387-.387.387z"/></g></g></svg>