<svg id="Capa_1" enable-background="new 0 0 512 512" height="512" viewBox="0 0 512 512" width="512" xmlns="http://www.w3.org/2000/svg"><g><path d="m408.106 152.106c-52.194 0-95.515 38.689-102.807 88.894h-27.917c-6.761-27.818-31.867-48.541-61.736-48.541s-54.974 20.723-61.735 48.541h-28.635c-6.761-27.818-31.867-48.541-61.736-48.541-35.036 0-63.54 28.505-63.54 63.541s28.504 63.541 63.541 63.541c29.869 0 54.975-20.722 61.736-48.541h28.635c6.761 27.818 31.867 48.541 61.736 48.541s54.975-20.722 61.736-48.541h27.916c7.292 50.204 50.613 88.894 102.807 88.894 57.287 0 103.893-46.607 103.893-103.894s-46.606-103.894-103.894-103.894zm44.915 88.576-53.901 57.818-40.612-37.381 20.317-22.073 18.678 17.192 33.574-36.014z"/></g></svg>