<svg fill="none" height="512" viewBox="0 0 48 48" width="512" xmlns="http://www.w3.org/2000/svg" xmlns:xlink="http://www.w3.org/1999/xlink"><clipPath id="clip0_271_2292"><path d="m0 0h48v48h-48z"/></clipPath><g clip-path="url(#clip0_271_2292)" fill="#000"><path d="m43.4825.905361c-3.4749-1.648928-7.2423-.9827679-8.415 1.488219-.7339 1.54633-2.356 7.81262-2.6161 12.69022-1.3072 1.3846-2.5139 2.9269-3.3134 4.1283-6.033-1.8442-11.1742-1.4888-12.4923 1.1807l-.0201.0412-.0006.0011-.1655.3487.023.0108c-1.1191 3.4521 3.9547 9.0217 11.6628 12.6795 4.2624 2.0229 8.4691 3.0522 11.7102 3.0522 2.6665 0 4.6792-.6964 5.5334-2.1093l.0139.0067.1286-.2708v-.0011l.0201-.0415c1.2629-2.7726-1.8825-7.1135-7.3546-10.6677.3964-1.2996.7963-3.0544 1.0436-4.8153 3.6814-3.2689 7.6612-8.68256 8.411-10.26239 1.1727-2.47098-.6943-5.81035-4.169-7.459549z"/><path d="m39.8537 38.1335c-1.7794 0-3.7549-.275-5.8715-.818-2.1551-.5526-4.3513-1.3567-6.5279-2.3895-4.0524-1.9233-7.5597-4.4264-9.8762-7.0484-1.1962-1.3541-2.0298-2.6891-2.4774-3.9675-.0182-.0523-.0356-.1042-.0528-.1562l-1.3443 2.8331c-.0022.0049-.0046.0094-.0067.014-.5663 1.1933-.3043 2.6828.6171 4.2776-8.00062.3174-14.314 4.0238-14.314 8.5492 0 4.5255 6.9075 8.5715 15.4286 8.5715 7.1574 0 13.1764-2.7078 14.9194-6.3799 5.9523 1.7652 10.9882 1.3691 12.2549-1.3004.0022-.0046.0043-.0094.0065-.0142l1.3444-2.8326c-1.1347.4388-2.5131.6613-4.1001.6613zm-20.0363-1.6508c1.2364.8867 2.6186 1.7379 4.117 2.52.0431.1393.0656.2813.0656.4254 0 1.8935-3.8376 3.4286-8.5714 3.4286-4.7339 0-8.57146-1.5351-8.57146-3.4286s3.83756-3.4286 8.57146-3.4286c1.6042 0 3.105.1766 4.3888.4832zm-4.6031 9.8025c-7.45582 0-13.50001-3.0699-13.50001-6.8571s6.04419-6.8571 13.50001-6.8571c.098 0 .1955.0005.293.0016.4913.5943 1.0613 1.1938 1.7014 1.7893-.5783-.0504-1.1729-.0769-1.7799-.0769-5.68068 0-10.28568 2.3025-10.28568 5.1428 0 2.8404 4.605 5.1429 10.28568 5.1429 5.6807 0 9.8149-2.0746 10.2504-4.7143.9051.4149 1.8062.7848 2.6946 1.1092-1.3743 3.0466-6.7446 5.3196-13.1595 5.3196z"/></g></svg>