<svg id="Layer_1" enable-background="new 0 0 30 30" height="512" viewBox="0 0 30 30" width="512" xmlns="http://www.w3.org/2000/svg"><g><path d="m26.7874222 5.0526953-1.84021-1.8400877c-.2445068-.2446289-.6275635-.2825928-.9154053-.0908203l-3.9421387 2.625366c-.0979004.0651855-.1784668.1531982-.2348633.2564697l-.9355469 1.7155762c-.1540527.2825928-.1036377.6329346.1240234.8605957l.1203613.1204834-5.1607656 5.1607666-.3770752-.3770752c-.7142334-.7142334-1.8735352-.7142334-2.5878906 0l-6.9038086 6.9039316c-1.5122073 1.512207-1.5122073 3.9655762.0001221 5.4777832 1.5123291 1.5123291 3.9656982 1.5124512 5.4777832.0002441l6.9039297-6.9039307c.7142334-.7142334.7141113-1.8736572.0084229-2.5794678l-.3851318-.3850107 5.1608887-5.1608887.1199951.1201172c.2276611.2275391.5780029.2780762.8607178.1239014l1.715332-.9354248c.1033936-.0563965.1914063-.1369629.2565918-.2348633l2.6254883-3.9421387c.1917725-.2878417.1538086-.6708983-.0908203-.9155272z"/></g></svg>