<svg height="426pt" viewBox="0 -21 426.66667 426" width="426pt" xmlns="http://www.w3.org/2000/svg"><path d="m394.667969.332031c-17.675781 0-32 14.328125-32 32v53.335938h53.332031c5.890625 0 10.667969-4.777344 10.667969-10.667969v-42.667969c0-17.671875-14.328125-32-32-32zm0 0"/><path d="m256 320.332031h-245.332031c-2.832031 0-5.542969 1.121094-7.546875 3.125-2 2-3.121094 4.714844-3.121094 7.542969v10.667969c0 23.5625 19.101562 42.664062 42.667969 42.664062h224.265625c-7.050782-9.179687-10.894532-20.421875-10.933594-32zm0 0"/><path d="m42.667969 43v256h224c5.890625 0 10.664062 4.777344 10.664062 10.667969v42.664062c0 17.675781 14.328125 32 32 32 17.675781 0 32-14.324219 32-32v-320c.039063-11.574219 3.882813-22.816406 10.933594-32h-266.933594c-23.5625 0-42.664062 19.105469-42.664062 42.667969zm195.125 82.214844c-4.066407-4.183594-4.019531-10.855469.105469-14.980469 4.121093-4.125 10.796874-4.171875 14.976562-.105469l32 32c4.164062 4.167969 4.164062 10.917969 0 15.085938l-32 32c-2.679688 2.757812-6.640625 3.855468-10.359375 2.878906-3.71875-.980469-6.625-3.882812-7.605469-7.605469-.976562-3.71875.125-7.675781 2.882813-10.359375l24.457031-24.457031zm-77.375 96.183594 42.664062-149.320313c1.617188-5.664063 7.519531-8.941406 13.179688-7.324219 5.660156 1.617188 8.9375 7.519532 7.320312 13.179688l-42.664062 149.34375c-1.308594 4.578125-5.492188 7.730468-10.25 7.726562-.996094.003906-1.984375-.136718-2.9375-.414062-2.722657-.777344-5.023438-2.601563-6.394531-5.078125-1.375-2.472657-1.703126-5.394531-.917969-8.113281zm-61.292969-79.269532 32-32c4.179688-4.066406 10.855469-4.019531 14.976562.105469 4.125 4.125 4.171876 10.796875.105469 14.980469l-24.457031 24.457031 24.457031 24.457031c2.757813 2.683594 3.859375 6.640625 2.882813 10.359375-.980469 3.722657-3.886719 6.625-7.605469 7.605469-3.71875.976562-7.679687-.121094-10.359375-2.878906l-32-32c-4.164062-4.167969-4.164062-10.917969 0-15.085938zm0 0"/></svg>