<svg id="Layer_1" enable-background="new 0 0 512 512" viewBox="0 0 512 512" xmlns="http://www.w3.org/2000/svg"><g id="Layer_2_00000041981154942726957200000011515304433310343350_"><g id="Layer_1_copy_17"><g id="_115"><path d="m242.1 422.2c-3.1-6.2-5.8-12.6-7.9-19.2h-7.9c-15.3 0-27.6-12.4-27.6-27.6v-27.7c0-15.3 12.4-27.6 27.6-27.6h7.9c2.1-6.6 4.8-13 7.9-19.2l-5.6-5.6c-10.8-10.8-10.8-28.3 0-39.1l19.6-19.6c10.8-10.8 28.3-10.8 39.1 0l5.6 5.6 2.2-1.1c-22.8-21.8-50-37.4-79.7-44.8-25.3 9.9-53.4 9.9-78.8 0-69.4 17.3-125 79.6-144 160-1.4 5.9-.1 12.1 3.6 16.9 53 69 140.8 101.6 226 83.9-3.8-10.2-1.4-21.6 6.3-29.3z"/><circle cx="184" cy="95.6" r="95.6"/><path d="m496.8 332.4h-17.3c-2.9-11.9-7.6-23.3-14-33.7l12.2-12.2c5.9-6 5.9-15.6 0-21.5l-19.6-19.6c-6-5.9-15.6-5.9-21.5 0l-12.2 12.2c-10.5-6.4-21.8-11.1-33.7-14v-17.2c0-8.4-6.8-15.2-15.2-15.2h-27.8c-8.4 0-15.2 6.8-15.2 15.2v17.3c-11.9 2.9-23.3 7.6-33.7 14l-12.2-12.2c-6-5.9-15.6-5.9-21.5 0l-19.6 19.6c-5.9 6-5.9 15.6 0 21.5l12.2 12.2c-6.4 10.5-11.1 21.8-14 33.7h-17.3c-8.4 0-15.2 6.8-15.2 15.2v27.8c0 8.4 6.8 15.2 15.2 15.2h17.3c2.9 11.9 7.6 23.3 14 33.7l-12.2 12.2c-5.9 6-5.9 15.6 0 21.5l19.6 19.6c6 5.9 15.6 5.9 21.5 0l12.2-12.2c10.5 6.4 21.8 11.1 33.7 14v17.3c0 8.4 6.8 15.2 15.2 15.2h27.8c8.4 0 15.2-6.8 15.2-15.2v-17.3c11.9-2.9 23.3-7.6 33.7-14l12.2 12.2c6 5.9 15.6 5.9 21.5 0l19.6-19.6c5.9-6 5.9-15.6 0-21.5l-12.2-12.2c6.4-10.5 11.1-21.8 14-33.7h17.3c8.4 0 15.2-6.8 15.2-15.2v-27.8c0-8.5-6.8-15.3-15.2-15.3zm-135.3 76.7c-26.3 0-47.6-21.3-47.6-47.6s21.3-47.6 47.6-47.6 47.6 21.3 47.6 47.6-21.3 47.6-47.6 47.6z"/></g></g></g></svg>