<svg id="Layer_1" enable-background="new 0 0 512 512" height="512" viewBox="0 0 512 512" width="512" xmlns="http://www.w3.org/2000/svg"><path clip-rule="evenodd" d="m386.143 82.349c-3.124-3.124-3.124-8.189 0-11.312 3.124-3.124 8.189-3.124 11.312 0l23.846 23.846 65.331-59.289c3.262-2.968 8.313-2.731 11.281.531 2.969 3.262 2.731 8.313-.531 11.281l-70.658 64.123c-3.095 3.176-8.231 3.17-11.356.045zm-88.028 169.108v-152.587h38.292v-16h-46.292c-4.418 0-8 3.582-8 8v160.506l-30.857-.155c.462 1.776.839 3.605 1.126 5.491.421 2.768.624 5.565.624 8.365v2.092l29.108.146v161.212c0 4.418 3.582 8 8 8h46.292v-16h-38.292v-153.132l38.292.19v-15.935zm54.291-130.49c0 10.925 8.938 19.863 19.863 19.863h60.193c10.925 0 19.863-8.938 19.863-19.863v-11.064l-14.591 13.242c-9.388 9.111-24.398 9.026-33.68-.256l-29.225-29.225c-9.368-9.368-9.368-24.572 0-33.94s24.572-9.368 33.94 0l13.068 13.067 26.443-23.997c-3.636-4.781-9.382-7.883-15.816-7.883h-60.193c-10.925 0-19.863 8.938-19.863 19.863-.002 20.064-.002 40.128-.002 60.193zm19.863 257.6c-10.925 0-19.863 8.938-19.863 19.863v60.193c0 10.925 8.938 19.863 19.863 19.863h60.193c10.925 0 19.863-8.938 19.863-19.863v-11.064l-14.591 13.241c-9.388 9.111-24.398 9.026-33.68-.256l-29.225-29.225c-9.368-9.368-9.368-24.572 0-33.94s24.572-9.368 33.94 0l13.068 13.067 26.443-23.997c-3.636-4.781-9.382-7.883-15.816-7.883h-60.195zm0-168.828c-10.925 0-19.863 8.938-19.863 19.863v60.193c0 10.925 8.938 19.863 19.863 19.863h60.193c10.925 0 19.863-8.938 19.863-19.863v-11.064l-14.591 13.241c-9.388 9.111-24.398 9.026-33.68-.256l-29.225-29.225c-9.368-9.368-9.368-24.572 0-33.94s24.572-9.368 33.94 0l13.068 13.067 26.443-23.997c-3.636-4.781-9.382-7.883-15.816-7.883h-60.195zm-247.762-9.689c27.96 0 50.626-29.79 50.626-66.537s-22.666-52.681-50.626-52.681c-27.959 0-50.625 15.934-50.625 52.681-.001 36.746 22.665 66.537 50.625 66.537zm53.378 88.519c0-4.418 3.582-8 8-8s8 3.582 8 8v78.703h27.006c8.876 0 16.116-7.239 16.116-16.116v-86.08c0-2.059-.151-4.045-.442-5.96-3.247-21.361-23.944-33.81-47.227-39.586-42.6-10.567-85.787-11.281-129.661 0-25.311 6.508-47.669 20.496-47.669 45.545v86.08c0 8.876 7.239 16.116 16.116 16.116h27.005v-78.703c0-4.418 3.582-8 8-8s8 3.582 8 8v78.703h106.758v-78.702zm208.258 131.436c-3.124-3.124-3.124-8.189 0-11.312 3.124-3.124 8.189-3.124 11.312 0l23.846 23.846 65.331-59.289c3.262-2.968 8.313-2.731 11.281.531 2.969 3.262 2.731 8.313-.531 11.281l-70.658 64.123c-3.095 3.176-8.231 3.17-11.356.045zm0-168.828c-3.124-3.124-3.124-8.189 0-11.313s8.189-3.124 11.312 0l23.846 23.846 65.331-59.289c3.262-2.968 8.313-2.731 11.281.531 2.969 3.262 2.731 8.313-.531 11.281l-70.658 64.123c-3.095 3.176-8.231 3.17-11.356.045z" fill-rule="evenodd"/></svg>