<svg id="Layer_1" height="512" viewBox="0 0 508.7 528.6" width="512" xmlns="http://www.w3.org/2000/svg"><g><g><g><g><path d="m123.9 315.4h.6c14-.4 25.1-12.7 25.1-27.6v-27.7c0-15.2 11.4-27.4 25.5-27.4h.8c14.2 0 25.6 12.2 25.6 27.4v54c0 15.1 11.4 27.3 25.5 27.3h1.3c14.1 0 25.6-12.3 25.5-27.4l-.3-81.3c0-15.1 11.5-27.4 25.6-27.4s25.5 12.3 25.5 27.4v29.5c0 7.2 2.6 14.1 7.5 19.4 4.7 5.1 11.3 8.1 18.2 8.1 13.6 0 24.8-11.3 25.6-25.8v231.9c0 15.2-12.3 27.5-27.5 27.5h-199.6c-15.2 0-27.5-12.3-27.5-27.5v-202.7c.9 12.6 10.7 22.4 22.6 22.3z" fill="#fc95d1"/></g><g><path d="m128.8 163.7v-55.1h199.5v55.1c2.3 0 4.5.3 6.7.8h-212.8c2.2-.5 4.4-.8 6.6-.8z" fill="#c4e1e8"/></g><g><g><path d="m222.3 7h43.6v399.2h-43.6z" fill="#fc95d1" transform="matrix(.978 -.208 .208 .978 -37.62 55.273)"/></g><g><path d="m224.6 8.9 11.5 54.3-33.6 51.8-11.6-54.3z" fill="#c5f0ff"/></g><g><path d="m248.3 120.6 11.6 54.4-33.6 51.7-11.7-54.3z" fill="#c5f0ff"/></g><g><path d="m271.4 229.8 11.6 54.4-33.7 51.7-11.5-54.3z" fill="#c5f0ff"/></g><g><path d="m295.3 341.5 11.5 54.4-1 1.5-41.4 8.8-2.9-12.9z" fill="#c5f0ff"/></g></g><g><path d="m122.2 164.5h212.7c12.1 3.1 20.6 13.8 20.9 26.3v73.2c-.8 14.5-12.1 25.8-25.6 25.8-6.9 0-13.5-3-18.2-8.1-4.9-5.3-7.5-12.2-7.5-19.4v-29.5c0-15.1-11.3-27.4-25.5-27.4s-25.6 12.3-25.6 27.4l.3 81.3c0 15.1-11.4 27.4-25.6 27.4h-1.2c-14.1 0-25.5-12.2-25.5-27.3v-54c0-15.2-11.5-27.4-25.6-27.4h-.8c-14.1 0-25.6 12.2-25.6 27.4v27.7c0 14.9-11.1 27.2-25 27.6h-.6c-11.8 0-21.6-9.8-22.5-22.4v-101.8c0-12.7 8.6-23.7 20.9-26.8z" fill="#c43f94"/></g><g><path d="m7.1 246.3c0-22 17.8-39.8 39.8-39.8h54.4v25h-54.4c-8.2 0-14.8 6.6-14.8 14.8v151.7c0 8.2 6.6 14.8 14.8 14.8h54.4v25h-54.4c-22 0-39.8-17.8-39.8-39.8z" fill="#c4e1e8"/></g></g><g><g><path d="m456.4 344s17.8 29.5 8.8 54.8-27.7 41.8-41.6 36.8-17.8-29.5-8.8-54.8c9.1-25.3 41.6-36.8 41.6-36.8z" fill="#65994c"/></g><g><path d="m365.4 346.9s33.9 5.7 47.1 29.2 13.4 48.2.5 55.5-34-5.8-47.1-29.2c-13.1-23.5-.5-55.5-.5-55.5z" fill="#65994c"/></g></g><g><g><ellipse cx="449.7" cy="472.8" fill="#460599" rx="46.3" ry="55.4" transform="matrix(.445 -.896 .896 .445 -173.737 665.421)"/></g></g><g><g><ellipse cx="373.7" cy="476.4" fill="#5b0caf" rx="55.4" ry="46.3" transform="matrix(.971 -.24 .24 .971 -103.491 103.721)"/></g></g></g><g id="Layer_37"><g><path d="m157.2 371.5h14.9v12h-14.9z" transform="matrix(.909 -.418 .418 .909 -142.696 103.352)"/><path d="m256.5 457.7h14.9v12h-14.9z" transform="matrix(.259 -.966 .966 .259 -252.235 598.661)"/><path d="m188.8 430.5h12v14.9h-12z" transform="matrix(.997 -.073 .073 .997 -31.553 15.444)"/><path d="m124 406.9h14.9v12h-14.9z" transform="matrix(.994 -.108 .108 .994 -43.826 16.612)"/><path d="m187.3 482.7h14.9v12h-14.9z" transform="matrix(.831 -.556 .556 .831 -238.953 190.935)"/><path d="m303.8 428.2h14.9v12h-14.9z" transform="matrix(.831 -.556 .556 .831 -188.942 246.538)"/><path d="m124.3 460.8h12v14.9h-12z" transform="matrix(.998 -.07 .07 .998 -32.378 10.241)"/><path d="m294.4 484.8h12v14.9h-12z" transform="matrix(.997 -.073 .073 .997 -35.247 23.324)"/><path d="m504 457.9c-6-13.8-17.3-25.3-31.8-32.5-4.1-2-8.4-3.6-12.8-4.9 4.4-6.3 7.9-13.1 10.4-20.3 9.9-27.7-8.5-58.7-9.3-60-1.5-2.4-4.5-3.5-7.2-2.5-1.2.4-26.6 9.6-39.9 29.8-15.8-21.4-46.7-27-48.1-27.2-1.6-.3-3.2.1-4.5 1v-78.1-73.1c-.2-15.2-10.7-28.4-25.5-32l-2-.4v-49.7c0-3.3-2.7-6-6-6h-77.8l-20.6-97.2c-.3-1.6-1.2-2.9-2.6-3.8-1.3-.9-2.9-1.2-4.5-.9l-42.7 9.1c-3.2.7-5.3 3.9-4.7 7.1l18.2 85.6h-64.9c-3.3 0-6 2.7-6 6v49.7l-2.1.4c-15 3.7-25.5 17.2-25.4 32.6v9.2h-48.4c-25.3 0-45.8 20.5-45.8 45.8v151.7c.1 25.3 20.5 45.7 45.8 45.8h48.4v52c0 18.5 15 33.5 33.5 33.5h199.6c5.9 0 11.7-1.6 16.8-4.5 7.6 3 15.7 4.5 23.9 4.5 16.8-.1 32.9-6.1 45.8-16.8 3.7 2.8 7.7 5.3 11.9 7.4 9.5 4.8 20 7.3 30.7 7.3 20.4 0 38.9-9.7 47.5-27 6.3-12.7 6.4-27.5.1-41.6zm-409.8-26.8h-48.4c-18.6-.1-33.7-15.2-33.8-33.8v-151.7c0-18.7 15.1-33.8 33.8-33.8h48.4v13h-48.4c-11.5 0-20.8 9.3-20.8 20.8v151.7c0 11.5 9.3 20.8 20.8 20.8h48.4zm0-25h-48.4c-4.9 0-8.8-3.9-8.8-8.8v-151.7c-.1-4.8 3.8-8.7 8.6-8.8h.2 48.4v55.6zm325-23.3c.2-.4.4-.9.5-1.4 6.3-16.4 24.3-26.4 32.9-30.4 4.2 8.7 11.9 28.3 5.9 45.1-2.8 8-7 15.5-12.4 22.1-9.6-.8-19.2.8-28 4.5-4-7.9-5-22.4 1.1-39.9zm-50.9-29.5c9.3 2.5 29.1 9.5 37.9 25.1l1.1 2c-6.1 18.5-5.9 36.5.3 48.3l-1.1.9-1.1-.5c-1.2-.6-2.4-1.1-3.6-1.6-.6-.6-1.4-1-2.2-1.2-10.1-2.7-21.7-13.5-29.6-27.6s-4.4-36.2-1.7-45.4zm4.8 69.6c-4.1.2-8.3.8-12.3 1.8v-18c3.5 5.9 7.6 11.3 12.3 16.2zm-51.8-309v30.4l-48.8-11.1c-3.2-.7-6.4 1.3-7.2 4.5v.1c-.7 3.2 1.3 6.4 4.5 7.2l51.5 11.6v1.2h-59.9l-9.4-43.9zm-72.2 43.9h-19.4l14.6-22.5zm-8.3-39.1-24.4 37.6-8.9-42.4h32.3zm-8.6-40.8 5 24h-20.6zm-3.6-16.6-24.4 37.6-8-37.8 24.4-37.5zm-41.2-41.6 24.9-5.3-19.6 30.1zm-53.7 105.6 50.1 11.2c3.3.2 6.2-2.3 6.4-5.6.2-3.1-1.9-5.8-5-6.3l-47.6-10.7h57.5l9.4 43.9h-70.8zm-27.5 65.3c0-9.7 6.4-18.2 15.7-20.8h211.2c9.1 2.6 15.5 10.8 15.7 20.3v72.9c-.7 11.2-9.3 20-19.6 20-5.3-.1-10.3-2.3-13.8-6.2-3.8-4.2-6-9.6-5.9-15.3v-29.5c0-18.4-14.1-33.4-31.5-33.4s-31.6 15-31.6 33.4l.2 81.4c0 5.9-2.2 11.6-6.3 15.8-3.5 3.6-10.6 5.3-14.4 5.6-10.8 1-19.6-9.6-19.6-21.3v-54c0-18.4-14.2-33.4-31.6-33.4h-.8c-17.4 0-31.5 15-31.5 33.4v27.7c0 11.6-8.7 21.3-19.3 21.6h-.4c-8.5 0-15.8-7.3-16.5-16.6zm157.1 186.6-8.7-40.8 24.4-37.5 8.7 40.8zm27.9-20.9 7.6 35.5-31 6.6-1-4.6zm-32.9-124.3c0-4.5 1.4-8.9 3.9-12.6l1.8 8.5-5.6 8.7zm.3 76.3-.2-49.8 9.1-14 8 37.8zm68.7 208.3h-199.6c-11.9 0-21.5-9.6-21.5-21.5v-179.9c4.8 3.6 10.5 5.6 16.5 5.6h.9c17.2-.6 30.8-15.3 30.8-33.6v-27.7c0-11.8 8.7-21.4 19.5-21.4h.8c10.8 0 19.6 9.6 19.6 21.4v54c0 18.4 14.2 34.4 31.6 33.3 4.6-.3 12.8-1.7 17.7-4.9l13.7 64.9c.2 1 2.2 4.7 5.9 4.7l43.9-9.1c3.2-.6 5.4-3.8 4.7-7.1l-39.1-183.8c1.7-.5 3.4-.8 5.2-.8 10.8 0 19.5 9.6 19.5 21.4v29.5c0 8.7 3.2 17.1 9.2 23.5 5.8 6.3 13.9 10 22.5 10 7.2 0 14.2-2.6 19.6-7.3v141c-26.2 11.3-41.8 37-35.7 61.7 2.7 10.4 8.8 19.5 17.3 26zm55-1.8c-12.9 3.2-26.2 2-37.1-3.4s-17.9-13.7-20.5-23.9c-5.3-21.6 11.9-44.5 38.3-51 4.7-1.2 9.5-1.8 14.3-1.8 7.9 0 15.7 1.7 22.9 5.1 10.6 5.2 17.8 13.7 20.4 24 5.3 21.6-11.8 44.5-38.3 51zm110.9-20.6c-9.9 19.9-37.8 26.3-62.2 14.2-3.1-1.5-6-3.3-8.8-5.3 9.5-12.3 13.7-27.4 10-42.2-.2-.9-.5-1.8-.7-2.7 3 5.6 9.7 10.8 17.2 14.5 5.1 2.6 10.7 4.4 16.4 5.1h2.4c7.5 0 10.5-3.6 11.6-5.9 1.5-2.9.3-6.5-2.6-7.9 0 0-.1 0-.1-.1-2.6-1.3-5.8-.5-7.5 1.8-1.9.4-7.7-.3-14.9-3.8s-11.2-7.8-12-9.5c.9-3.2-.9-6.5-4.1-7.4-2.7-.8-5.7.5-7 3-1 1.9-1.3 4.2-.8 6.3-2.8-6.9-7.3-12.9-13-17.7 8.6-5.5 19.4-7.6 30.5-6.3h.1c6.6.8 13.1 2.8 19.1 5.8 12 5.9 21.3 15.3 26.3 26.5s4.8 22.1.1 31.6z"/><path d="m388.3 451.6c-2.9.6-4.8 3.3-4.6 6.2-1.2 1.5-6 4.7-13.8 6.7s-13.6 1.3-15.3.5c-1.2-2.6-4.1-4-6.9-3.4-3.2.8-5.2 4-4.4 7.2v.1c.6 2.7 3.1 7.4 12.4 8.6 1.5.2 2.9.2 4.4.2 4.3 0 8.5-.6 12.7-1.6 13-3.2 25.1-10.7 22.7-20.1-.7-3.2-3.9-5.2-7.1-4.4z"/></g></g></g></svg>