<svg id="Icons" height="512" viewBox="0 0 60 60" width="512" xmlns="http://www.w3.org/2000/svg"><path d="m23 58h34a1 1 0 0 0 1-1v-22a1 1 0 0 0 -1-1h-34a1 1 0 0 0 -1 1v22a1 1 0 0 0 1 1zm23-18a1 1 0 0 1 2 0v11h5a1 1 0 0 1 0 2h-6a1 1 0 0 1 -1-1zm-10 3a4 4 0 0 1 8 0v6a3.947 3.947 0 0 1 -.567 2.019l.274.274a1 1 0 1 1 -1.414 1.414l-.274-.274a3.947 3.947 0 0 1 -2.019.567 4 4 0 0 1 -4-4zm-6 4a4 4 0 1 1 4-4 1 1 0 0 1 -2 0 2 2 0 1 0 -2 2 4 4 0 1 1 -4 4 1 1 0 0 1 2 0 2 2 0 1 0 2-2z"/><path d="m20 49.962v-9.989c-7.183-.193-14.557-1.45-18-3.857v8.884c0 1.918 6.828 4.656 18 4.962z"/><path d="m2 33c0 1.92 6.828 4.66 18 4.965v-2.965a3 3 0 0 1 3-3h19v-8.9c-3.674 2.57-11.872 3.9-20 3.9s-16.326-1.33-20-3.9z"/><ellipse cx="22" cy="7" rx="20" ry="5"/><path d="m2 20c0 2.039 7.791 5 20 5s20-2.961 20-5v-9.9c-3.674 2.57-11.872 3.9-20 3.9s-16.326-1.33-20-3.9z"/><path d="m40 51a1.96 1.96 0 0 0 .511-.075l-.218-.218a1 1 0 0 1 1.414-1.414l.218.218a1.96 1.96 0 0 0 .075-.511v-6a2 2 0 0 0 -4 0v6a2 2 0 0 0 2 2z"/></svg>