<svg id="Solid" height="512" viewBox="0 0 512 512" width="512" xmlns="http://www.w3.org/2000/svg"><g><g><path d="m153.015 153.022a15.993 15.993 0 1 0 11.314 4.679 15.952 15.952 0 0 0 -11.314-4.679z"/><path d="m280 200v16h-15.695a104.167 104.167 0 0 0 95.695 95.7v-15.7h16v15.7a104.167 104.167 0 0 0 95.7-95.7h-15.7v-16h15.7a104.167 104.167 0 0 0 -95.7-95.695v15.695h-16v-15.695a104.167 104.167 0 0 0 -95.695 95.695zm36.65-30.51 50.485 36.061 59.208-59.208 11.314 11.314-64 64a8 8 0 0 1 -10.307.853l-56-40z"/></g><path d="m465.556 311.851-15.948-15.951a119.941 119.941 0 0 1 -169.508-169.508l-15.162-15.163a21.9 21.9 0 0 0 -17.821-6.326l-125.601 12.997a22.1 22.1 0 0 0 -19.62 19.62l-1.376 13.3a56 56 0 1 1 67.48-54.82 56.829 56.829 0 0 1 -.434 7.01l15.877 1.98a72.825 72.825 0 0 0 .557-8.99 72 72 0 1 0 -85.133 70.8l-9.967 96.315a21.913 21.913 0 0 0 6.327 17.821l200.624 200.621a22.026 22.026 0 0 0 31.112 0l138.594-138.594a22.025 22.025 0 0 0 -.001-31.112zm-342.977-26.194-8.631-8.631a27.883 27.883 0 0 1 -8.052-22.68l1.569-15.169 15.915 1.646-1.569 15.17a11.95 11.95 0 0 0 3.451 9.72l8.63 8.63zm53.064-94.014a32 32 0 1 1 0-45.255 31.9 31.9 0 0 1 0 45.255zm155.563 263.044a28.031 28.031 0 0 1 -39.6 0l-9.03-9.03 11.314-11.314 9.029 9.03a12.014 12.014 0 0 0 16.971 0l10.451-10.451 11.314 11.313z"/></g></svg>