<svg clip-rule="evenodd" fill-rule="evenodd" height="512" image-rendering="optimizeQuality" shape-rendering="geometricPrecision" text-rendering="geometricPrecision" viewBox="0 0 512 512" width="512" xmlns="http://www.w3.org/2000/svg"><g id="Layer_x0020_1"><path d="m259.96 511.993h-181.699c-25.0997 0-45.6001-20.4001-45.6001-45.6001l.00118111-353.199c0-25.0997 20.4001-45.6001 45.6001-45.6001h181.599c25.0997 0 45.6001 20.4001 45.6001 45.6001v353.298c0 25.1009-20.4001 45.5009-45.5009 45.5009zm-90.7987-311.299c-28.2001 0-51.1998-22.9997-51.1998-51.1998s22.9997-51.1998 51.1998-51.1998 51.1998 22.9997 51.1998 51.1998-22.9997 51.1998-51.1998 51.1998zm0-90.4999c-21.6001 0-39.1997 17.5997-39.1997 39.1997 0 21.6001 17.5997 39.1997 39.1997 39.1997 21.6001 0 39.1997-17.5997 39.1997-39.1997 0-21.5989-17.5997-39.1997-39.1997-39.1997zm83.1003 165.4h-166.3c-3.30001 0-6.00002-2.70001-6.00002-6.00002v-26.5997c0-3.30001 2.70001-6.00002 6.00002-6.00002h166.3c3.29883 0 5.99884 2.70001 5.99884 6.00002v26.5985c0 3.30119-2.70001 6.0012-5.99884 6.0012zm-160.3-12h154.3v-14.5997h-154.3zm160.3 71.1994h-166.3c-3.30001 0-6.00002-2.70001-6.00002-6.00002v-26.5997c0-3.30001 2.70001-6.00002 6.00002-6.00002h166.3c3.29883 0 5.99884 2.70001 5.99884 6.00002v26.5997c0 3.30001-2.70001 6.00002-5.99884 6.00002zm-160.3-12h154.3v-14.5997h-154.3zm160.3 71.2006h-166.3c-3.30001 0-6.00002-2.70001-6.00002-6.00002v-26.5997c0-3.30001 2.70001-6.00002 6.00002-6.00002l166.3-.00118111c3.29883 0 5.99884 2.70001 5.99884 6.00002v26.6009c0 3.30001-2.70001 6.00002-5.99884 6.00002zm-160.3-12h154.3v-14.5997l-154.3-.00118111v14.6008zm160.3 71.1994h-166.3c-3.30001 0-6.00002-2.70001-6.00002-6.00002v-26.5997c0-3.30001 2.70001-6.00002 6.00002-6.00002h166.3c3.29883 0 5.99884 2.70001 5.99884 6.00002v26.5997c0 3.30001-2.70001 6.00002-5.99884 6.00002zm-160.3-12h154.3v-14.5997h-154.3z"/><path d="m213.877 57.5943 45.1832-23.9009c11.2996-6.00002 24.3001-7.20002 36.4997-3.4004s22.3005 12.1004 28.2001 23.4001l150 283.799c6.00002 11.2996 7.20002 24.3001 3.4004 36.4997s-12.1004 22.3005-23.4001 28.2001l-139.067 73.5085c.50197-2.99528.766538-6.07088.766538-9.2079v-53.3706l110.802-58.5285c1.39961-.699215 2.40001-1.99961 2.89962-3.49962.499608-1.5.300001-3.2008-.400395-4.60041l-11.5996-22.0005c-1.5-2.9008-5.20041-4.00041-8.10002-2.5004l-93.6015 49.5096v-21.0272l85.0007-44.8832c2.9008-1.5 4.00041-5.20041 2.5004-8.10002l-11.5996-22.0005c-.699215-1.39961-1.99961-2.40001-3.49962-2.89962-1.5-.499608-3.2008-.300001-4.60041.400395l-67.8014 35.8218v-21.0827l59.0021-31.1351c1.39961-.699215 2.40001-1.99961 2.89962-3.49844.499608-1.5.300001-3.2008-.400395-4.60041l-11.5996-22.0005c-1.5-2.9008-5.20041-4.00041-8.10002-2.5004l-41.8017 22.0725v-21.0591l33.1017-17.5158c1.39961-.699215 2.40001-1.99961 2.89962-3.49962.499608-1.5.300001-3.2008-.400395-4.60041l-11.5996-22.0005c-.699215-1.39961-1.99961-2.40001-3.49962-2.89962-1.5-.499608-3.2008-.300001-4.60041.400395l-15.9012 8.38585v-70.0856c0-30.671-24.9355-55.5994-55.5994-55.5994h-45.984zm101.583 153.851 22.2012-11.7508-6.00002-11.4-16.2012 8.54176v14.6091zm0 62.7297 48.1017-25.3796-6.00002-11.4-42.1017 22.2296v14.55zm0 62.6919 74.001-39.0745-6.00002-11.4-68.001 35.9718v14.5028zm0 62.6966 99.9015-52.7706-6.00002-11.4-93.9015 49.6714v14.4993z"/><path d="m182.462 155.494c-.900003 0-1.69961-.199607-2.5004-.600002-1.0004-.499608-24.7997-11.8004-44.8997-35.8997-18.7005-22.5001-37.3005-60.7006-19.9005-114.8 1.0004-3.19962 4.39962-4.90041 7.50002-3.90001s4.90041 4.39962 3.90001 7.50002c-12.6 39.3001-6.60002 74.1002 17.7001 103.5 18.3001 22.0997 40.5001 32.5997 40.6997 32.7001 3.00001 1.39961 4.30041 4.99962 2.89962 7.99963-.999216 2.2004-3.19844 3.49962-5.39884 3.49962z"/></g></svg>