<svg fill="none" height="64" viewBox="0 0 64 64" width="64" xmlns="http://www.w3.org/2000/svg"><g fill="rgb(0,0,0)"><path clip-rule="evenodd" d="m48 2c.9337 0 1.7432.64607 1.9502 1.55654l1.1066 4.8664c.5118 2.25086 2.2694 4.00846 4.5203 4.52026l4.8664 1.1066c.9104.207 1.5565 1.0165 1.5565 1.9502s-.6461 1.7432-1.5565 1.9502l-4.8664 1.1066c-2.2509.5118-4.0085 2.2694-4.5203 4.5203l-1.1066 4.8664c-.207.9104-1.0165 1.5565-1.9502 1.5565s-1.7432-.6461-1.9502-1.5565l-1.1066-4.8664c-.5118-2.2509-2.2694-4.0085-4.5203-4.5203l-4.8664-1.1066c-.9104-.207-1.5565-1.0165-1.5565-1.9502s.6461-1.7432 1.5565-1.9502l4.8664-1.1066c2.2509-.5118 4.0085-2.2694 4.5203-4.52026l1.1066-4.8664c.207-.91047 1.0165-1.55654 1.9502-1.55654z" fill-rule="evenodd"/><path d="m2 24c0-1.1046.89543-2 2-2h22c1.1046 0 2 .8954 2 2s-.8954 2-2 2h-22c-1.10457 0-2-.8954-2-2z"/><path d="m4 34c-1.10457 0-2 .8954-2 2s.89543 2 2 2h56c1.1046 0 2-.8954 2-2s-.8954-2-2-2z"/><path d="m2 48c0-1.1046.89543-2 2-2h56c1.1046 0 2 .8954 2 2s-.8954 2-2 2h-56c-1.10457 0-2-.8954-2-2z"/><path d="m4 58c-1.10457 0-2 .8954-2 2s.89543 2 2 2h56c1.1046 0 2-.8954 2-2s-.8954-2-2-2z"/></g></svg>