<svg id="Layer_1" enable-background="new 0 0 512 512" height="512" viewBox="0 0 512 512" width="512" xmlns="http://www.w3.org/2000/svg"><g id="_x37_4.TextSize"><path id="Text_3_" d="m349.071 55.206h-328.729c-7.921 0-14.342 6.421-14.342 14.342v86.055c0 7.921 6.421 14.342 14.342 14.342h28.685c7.921 0 14.342-6.421 14.342-14.342v-28.685h85.481v272.506h-35.856c-7.921 0-14.342 6.421-14.342 14.342v28.685c0 7.921 6.421 14.342 14.342 14.342h143.424c7.921 0 14.342-6.421 14.342-14.342v-28.685c0-7.921-6.421-14.342-14.342-14.342h-35.856v-272.506h85.481v28.685c0 7.921 6.421 14.342 14.342 14.342h28.685c7.921 0 14.342-6.421 14.342-14.342v-86.055c.001-7.921-6.42-14.342-14.341-14.342z"/><path id="Text_2_" d="m496.716 196.838h-212.792c-5.127 0-9.284 4.157-9.284 9.284v55.705c0 5.127 4.157 9.284 9.284 9.284h18.568c5.127 0 9.284-4.157 9.284-9.284v-18.568h55.333v176.398h-23.21c-5.128 0-9.284 4.157-9.284 9.284v18.568c0 5.127 4.157 9.284 9.284 9.284h92.841c5.128 0 9.284-4.157 9.284-9.284v-18.568c0-5.127-4.157-9.284-9.284-9.284h-23.21v-176.398h55.333v18.568c0 5.127 4.157 9.284 9.284 9.284h18.568c5.127 0 9.284-4.157 9.284-9.284v-55.705c.001-5.127-4.156-9.284-9.283-9.284z"/></g></svg>