<svg id="Capa_1" enable-background="new 0 0 512.002 512.002" height="512" viewBox="0 0 512.002 512.002" width="512" xmlns="http://www.w3.org/2000/svg"><g><g><circle cx="70.764" cy="380.881" r="70.764"/><path d="m344.622 175.306c-.337.475-43.911 61.765-55.288 94.416-1.191 3.413-1.981 7.205-2.568 12.301-.828 7.18-2.235 14.906-3.596 22.378-1.569 8.617-3.197 17.533-3.905 25.521-.183 2.044.629 4.083 2.173 5.457.803.716 2.502 1.832 4.833 1.349 10.848-2.281 17.953-19.065 19.964-33.692.687-5.003 2.298-10.148 4.787-15.289 8.862-18.303 26.308-49.747 43.541-54.701 1.665-.479 3.305-.624 4.924-.616-.949-2.439-1.973-4.533-3.101-6.123-1.332-1.873-.891-4.471.982-5.807 1.877-1.332 4.471-.891 5.807.982 5.441 7.663 8.325 21.666 11.376 36.494 3.234 15.71 7.26 35.261 14.228 39.108.937.52 2.506 1.086 5.207.071 9.274-3.488 8.816-14.124 7.297-31.186-1.415-15.972-3.026-34.075 9.041-46.018 18.478-16.039 18.84-25.733 19.256-36.96.096-2.527.216-5.178.525-7.946.004-.083.021-.158.029-.237.72-6.286 2.518-13.275 7.817-21.429 1.253-1.931 3.838-2.473 5.757-1.224 1.927 1.257 2.477 3.834 1.22 5.761-1.278 1.965-2.256 3.813-3.097 5.611 27.752-21.537 52.894-29.326 61.84-31.565v-65.607c-22.682 8.783-109.689 45.48-159.049 108.951z"/><path d="m33.301 276.816c.949 0 1.902-.32 2.685-.978 1.324-1.124 134.061-112.465 252.707-157.471 2.152-.812 3.23-3.214 2.418-5.366-.82-2.152-3.222-3.234-5.37-2.414-119.991 45.51-253.79 157.754-255.126 158.882-1.757 1.482-1.981 4.108-.495 5.865.825.974 1.999 1.482 3.181 1.482z"/><path d="m511.867 26.011c-.583-2.227-2.864-3.551-5.078-2.98-95.345 24.871-162.979 70.901-163.649 71.359-1.894 1.303-2.373 3.896-1.074 5.79.808 1.174 2.11 1.807 3.434 1.807.812 0 1.636-.237 2.352-.733.662-.454 67.172-45.685 161.034-70.165 2.227-.583 3.559-2.856 2.981-5.078z"/><path d="m465.849 58.654c-.945-2.098-3.405-3.035-5.503-2.094-119.779 53.693-228.693 137.029-229.78 137.865-1.823 1.403-2.165 4.017-.762 5.836.82 1.07 2.056 1.628 3.301 1.628.887 0 1.782-.279 2.535-.862 1.078-.828 109.247-83.585 228.106-136.87 2.103-.941 3.04-3.405 2.103-5.503z"/><path d="m238.796 252.777c-45.422 37.168-79.064 70.71-79.397 71.043-1.628 1.628-1.628 4.258 0 5.886.812.816 1.877 1.224 2.943 1.224s2.131-.408 2.943-1.22c.333-.329 33.675-33.58 78.781-70.485 1.777-1.461 2.04-4.079.587-5.857-1.457-1.782-4.075-2.044-5.857-.591z"/><path d="m342.078 299.41c-66.04 94.932-99.915 166.4-100.252 167.112-.978 2.081-.087 4.562 1.994 5.54.574.266 1.174.395 1.773.395 1.561 0 3.06-.882 3.767-2.389.333-.703 33.909-71.543 99.553-165.896 1.311-1.886.849-4.483-1.041-5.798-1.885-1.316-4.478-.849-5.794 1.036z"/><path d="m244.291 336.233c-1.669-1.586-4.3-1.515-5.886.158-74.419 78.552-112.619 145.841-112.998 146.511-1.128 2.002-.416 4.541 1.586 5.665.645.366 1.345.537 2.036.537 1.457 0 2.868-.766 3.634-2.123.37-.662 38.121-67.114 111.783-144.871 1.589-1.661 1.518-4.296-.155-5.877z"/></g></g></svg>