<svg id="glipy" height="512" viewBox="0 0 64 64" width="512" xmlns="http://www.w3.org/2000/svg"><path d="m32.58 27.94v-4.19a3.262 3.262 0 0 0 -4.28-2.91022c-2.86408.99494-6.11884 1.75855-9.09.74018l-2.47-.73996a3.2588 3.2588 0 0 0 -4.28 2.94l-.01017 3.7c.1076 3.8935 1.30267 6.14881 4.11017 9.41968 6.61755 7.20332 16.141-1.00533 16.02-8.95968z"/><path d="m17.32 18.92 2.46.74c2.57556.9151 5.466.11109 7.93994-.74017a5.52035 5.52035 0 0 1 4.86.86017v-2.11a1.01306 1.01306 0 0 0 -1.28-.96 3.22232 3.22232 0 0 1 -1.91994-.01l-5.1-1.63c-4.25665-1.38343-9.66016.24121-11.37995 4.41a5.51757 5.51757 0 0 1 4.41995-.56z"/><path d="m30.45 39.81c-.67962 9.87073-15.1784 9.891-15.87-.00019a10.64649 10.64649 0 0 0 -10.58 10.63019v7.88a.99655.99655 0 0 0 1 1h6.02c.00153-1.33539-.006-5.89057-.01-7.30005a1.0001 1.0001 0 0 1 2 0c.002 1.38635.01343 5.99451.01 7.30005h19.02c.00586-1.33258-.016-5.89459-.02-7.3a1.00019 1.00019 0 0 1 2-.00006c.00592 1.38861.024 5.99127.02 7.30005h5.99a.99655.99655 0 0 0 1-1v-7.87999a10.64625 10.64625 0 0 0 -10.58-10.63z"/><path d="m16.57 39.57977c.46673 7.52942 11.32354 7.591 11.89.07019a9.64767 9.64767 0 0 1 -11.89-.07019z"/><path d="m47.53 4.68a12.47468 12.47468 0 0 0 -12.46 12.46c.6817 16.549 24.25329 16.53382 24.93-.00012a12.47681 12.47681 0 0 0 -12.47-12.45988zm4.89 15.77a1.00283 1.00283 0 0 1 -1.39.27l-4.06-2.75a.997.997 0 0 1 -.43994-.83v-6.68a1 1 0 0 1 2 0v6.15l3.62 2.45a.99907.99907 0 0 1 .26994 1.39z"/></svg>