<svg fill="none" height="24" viewBox="0 0 24 24" width="24" xmlns="http://www.w3.org/2000/svg"><g fill="rgb(0,0,0)"><path d="m3 6.38597c0-.48445.34538-.87718.77143-.87718l2.66424-.00047c.52935-.01526.99635-.39799 1.17647-.9642.00474-.01489.01018-.03325.02971-.09988l.1148-.39168c.07025-.24015.13145-.44938.2171-.63639.33834-.73881.96433-1.25185 1.68772-1.3832.1831-.03325.37703-.03311.59963-.03295h3.478c.2226-.00016.4165-.0003.5996.03295.7234.13135 1.3494.64439 1.6877 1.3832.0857.18701.1469.39624.2171.63639l.1148.39168c.0195.06663.025.08499.0297.09988.1802.56621.7398.94941 1.2691.96467h2.5715c.426 0 .7714.39273.7714.87718 0 .48446-.3454.87719-.7714.87719h-16.45717c-.42605 0-.77143-.39273-.77143-.87719z"/><path clip-rule="evenodd" d="m11.5956 22.0001h.8088c2.7827 0 4.1741 0 5.0787-.8859.9047-.8859.9972-2.3391 1.1823-5.2456l.2667-4.1879c.1005-1.577.1507-2.36546-.3032-2.86512-.4538-.49966-1.2202-.49966-2.7529-.49966h-7.75196c-1.53277 0-2.29916 0-2.75299.49966s-.40361 1.28812-.30317 2.86512l.26671 4.1879c.18511 2.9065.27766 4.3597 1.1823 5.2456s2.296.8859 5.07871.8859zm-1.3493-9.8115c-.0412-.4338-.40877-.7504-.82093-.707s-.71286.4303-.67165.8641l.5 5.2632c.04122.4338.40875.7504.82088.707.4122-.0434.7129-.4303.6717-.8641zm4.3283-.707c.4122.0434.7129.4303.6717.8641l-.5 5.2632c-.0412.4338-.4088.7504-.8209.707-.4122-.0434-.7129-.4303-.6717-.8641l.5-5.2632c.0412-.4338.4088-.7504.8209-.707z" fill-rule="evenodd"/></g></svg>