<svg id="Layer_1" enable-background="new 0 0 38 38" height="512" viewBox="0 0 38 38" width="512" xmlns="http://www.w3.org/2000/svg"><g id="_x33_7"><g><g><g><path d="m35 20.9v.5c0 1.1-.2 2.2-.6 2.6-.1.1-.2.2-.3.2-5.5 3-11.1 5.9-16.9 8.8-.2.1-.4.2-.6.3-.3.2-.7.2-1 .2s-.5-.1-.8-.3c-3.6-2.3-7.2-4.6-10.8-7-.1 0-.1-.1-.2-.1s-.1-.1-.1-.1c-.5-.3-.7-1.5-.7-2.7 0-.2 0-.3 0-.5 0-1.1.2-2.1.6-2.5 2.3 0 3.6 1.1 3.8 2.4 4.2-2.5 8.5-4.6 13.2-6.4.5-.2 1.1-.2 1.6 0 2.7 1.2 5.2 2.4 7.5 3.7.8-1.4 2.9-1.9 4.6-1.9.5.5.7 1.7.7 2.8z" fill="#ffb961"/><path d="m15.8 32.2c0 .5-.1 1-.3 1.4-.3 0-.5-.1-.8-.3-3.6-2.3-7.2-4.6-10.8-7 .4.2.9.4 1.3.5 1 .2 1.9.8 2.7 1.4s1.6 1.3 2.5 1.7 2 .7 3 .3c.5-.2.9-.5 1.2-1 .1-.2.4-1.1.8-.8.2.1.2.7.2.9.1.3.1.6.1 1 .1.6.1 1.2.1 1.9z" fill="#f3a250"/><path d="m35 20.9v.5c0 1.1-.2 2.2-.6 2.6-.1.1-.2.2-.3.2-5.5 3-11.1 5.9-16.9 8.8 2.2-2.1 4.7-3.8 7.5-5.2 1.4-.7 2.9-1.3 4.3-2s2.7-1.7 3.7-2.9c.9-1.3 1.5-2.9 1.1-4.4l.1-.4h.6c.3.5.5 1.7.5 2.8z" fill="#f3a250"/><path d="m34.1 19.4c-5.7 3.1-11.5 6.1-17.5 9.1-.6.3-1.3.3-1.8-.1-3.7-2.3-7.4-4.7-11.1-7.1-.4-.3-.4-.9 0-1.2.1 0 .2-.1.3-.1 5.2-3.4 10.7-6.3 16.6-8.6.5-.2 1.1-.2 1.6 0 5.5 2.4 8.6 4.2 11.9 6.5.6.4.5 1.2 0 1.5z" fill="#ffd475"/><path d="m34.2 17.9c-3.4-2.4-7.4-4.5-11.9-6.5-.1-.1-.3-.1-.4-.1.4 1.2.6 2.4.6 3.6.1 2.8-1.3 5.9-3.3 7.8-2 2-5 3.3-7.8 3.3-.1 0-.2 0-.3 0 1.3.8 2.5 1.6 3.8 2.4.5.3 1.2.4 1.8.1 6-3 11.8-6 17.5-9.1.5-.3.5-1.1 0-1.5z" fill="#ffb961" opacity=".4"/><g><path d="m25.1 16c-.2.1-.4.2-.6.3h-.1c-.6-.3-1.1-.7-1.7-1 .8-.3 1.5-.6 2.3-.9h.1v.7z" fill="#dd8536"/><path d="m26.8 15.1c-.5.3-1.1.5-1.7.8 0-.3 0-.7 0-1 0-.2 0-.4 0-.7.6.4 1.1.7 1.7.9z" fill="#cc7227"/><path d="m28.5 17.9c-.7.4-.7.4-.9.3-.6-.4-1.2-.8-1.8-1.1.9-.4 1.7-.8 2.4-1.1h.1c.2.4.2.9.2 1.9z" fill="#dd8536"/><path d="m30.3 17c-.6.3-1.2.6-1.8.9 0-1.2 0-1.6 0-1.9.6.3 1.2.7 1.8 1z" fill="#cc7227"/><path d="m12.1 18.9c-.6.4-1.2.7-1.9 1.1 0-1.7 0-1.5 0-2.1.3.2.8.4 1.9 1z" fill="#cc7227"/><path d="m10.2 20c-.1 0-.1.1-.2.1h-.1c-.6-.3-1.2-.7-1.9-1 .7-.4 1.3-.8 2-1.1h.1c.1.5.1.4.1 2z" fill="#dd8536"/><path d="m23.2 13.5c-.6.2-1.2.5-1.7.7 0-.3 0-.5 0-.8 0-.2 0-.4 0-.6.2 0 .3 0 .5.1.4.2.8.4 1.2.6z" fill="#cc7227"/><path d="m21.5 14.2c-.1 0-.2.1-.3.1h-.1c-.5-.3-1.1-.6-1.6-.9l1.5-.6c.2-.1.3-.1.5-.1h.1v.6c-.1.4-.1.6-.1.9z" fill="#dd8536"/><path d="m20.4 25.8c-.2.1-.5.2-.7.4h-.1c-.5-.3-.9-.7-1.4-1 .7-.4 1.4-.8 2.2-1.2h.1v.8c-.1.3-.1.6-.1 1z" fill="#dd8536"/><path d="m22 25c-.5.3-1.1.5-1.6.8 0-.4 0-.7 0-1.1 0-.3 0-.5 0-.8h.1c.5.4 1 .7 1.5 1.1z" fill="#cc7227"/><path d="m16.9 27.6c-.2.1-.4.2-.6.3s-.3.1-.5.1-.4-.1-.6-.2c-.3-.2-.5-.3-.8-.5.6-.4 1.4-.8 2.4-1.4h.1v.6z" fill="#dd8536"/><path d="m18.3 26.9c-.5.2-.9.5-1.4.7 0-.4 0-.7 0-1.1 0-.2 0-.4 0-.6h.1c.4.3.8.7 1.3 1z" fill="#cc7227"/><path d="m27.7 22c-.2.1-.4.2-.6.3 0 0-.1 0-.2 0-.5-.4-1.1-.8-1.7-1.2.8-.4 1.5-.8 2.2-1.2h.1v.8c.2.5.2.9.2 1.3z" fill="#dd8536"/><path d="m29.4 21.1c-.5.3-1.1.6-1.6.9 0-.4 0-.8 0-1.2 0-.3 0-.5 0-.8.5.3 1 .7 1.6 1.1z" fill="#cc7227"/><path d="m15.6 25.1c-.8.4-1.4.8-1.9 1.1 0-.4 0-.9 0-1.3 0-.3 0-.6 0-.9v-.1c.6.4 1.3.8 1.9 1.2z" fill="#cc7227"/><path d="m13.7 26.2c-.2.1-.4.2-.5.3 0 0-.1 0-.2 0-.6-.4-1.2-.8-1.9-1.2.6-.4 1.4-.9 2.4-1.4h.1v.1.9c.1.4.1.8.1 1.3z" fill="#dd8536"/><path d="m33.3 19c-.5.3-1 .5-1.5.8 0-1 0-1.4 0-1.8.5.3 1 .6 1.5 1z" fill="#cc7227"/><path d="m31.8 19.8c-1.1.6-1.1.6-1.2.6-.5-.4-1.1-.8-1.6-1.1.9-.5 1.8-.9 2.7-1.3h.1z" fill="#dd8536"/><path d="m24.1 23.9c-.2.1-.5.2-.7.4h-.1c-.5-.4-1-.7-1.6-1.1.7-.4 1.5-.8 2.2-1.2h.2v.1.8z" fill="#dd8536"/><path d="m25.7 23c-.5.3-1.1.6-1.6.8 0-.3 0-.7 0-1s0-.5 0-.8v-.1c.5.4 1.1.8 1.6 1.1z" fill="#cc7227"/><path d="m10.2 24.3c-.1 0-.2.1-.2.1s-.1 0-.2 0c-.7-.4-1.4-.9-2-1.3.7-.5 1.4-.9 2.2-1.4h.1v.2.9c.1.6.1 1 .1 1.5z" fill="#dd8536"/><path d="m12.3 23c-.9.5-1.6 1-2.1 1.3 0-.5 0-.9 0-1.4 0-.3 0-.6 0-.9 0-.1 0-.1 0-.2.7.4 1.4.8 2.1 1.2z" fill="#cc7227"/><path d="m15.7 16.9c-.6.3-1.2.6-1.8.9 0-1.2 0-1.6 0-1.9.6.4 1.2.7 1.8 1z" fill="#cc7227"/><path d="m13.9 17.9c-.1.1-.2.1-.3.2h-.1c-.6-.3-1.2-.7-1.8-1 .7-.4 1.4-.7 2.1-1.1h.1z" fill="#dd8536"/><path d="m19.5 15.1c-.6.3-1.1.5-1.7.8 0-.9 0-1.3 0-1.7.6.3 1.2.6 1.7.9z" fill="#cc7227"/><path d="m17.8 15.9c-.5.3-.6.3-.7.3-.6-.3-1.2-.6-1.8-.9.8-.4 1.5-.7 2.3-1h.1v.7c.1.2.1.5.1.9z" fill="#dd8536"/><path d="m8.6 21c-.6.4-1.2.8-1.9 1.2 0-1.3 0-1.8 0-2.2.6.3 1.3.6 1.9 1z" fill="#cc7227"/><path d="m6.7 22.1c-.1 0-.1.1-.1.1s-.1 0-.2 0c-.6-.4-1.1-.7-1.7-1.1.6-.4 1.3-.8 1.9-1.1h.1v.1.8z" fill="#dd8536"/><path d="m22.6 21c-.6.4-1.3.7-1.9 1 0-.4 0-.8 0-1.2 0-.3 0-.6 0-.8v-.1h.1c.6.3 1.2.7 1.8 1.1z" fill="#cc7227"/><path d="m20.8 22c-.1.1-.2.1-.3.2h-.1c-.6-.4-1.2-.8-1.8-1.2.7-.4 1.4-.8 2.1-1.2h.1v.1.8z" fill="#dd8536"/><path d="m26.3 19c-.6.3-1.2.6-1.8.9 0-1.3 0-1.7 0-2.1.6.5 1.2.9 1.8 1.2z" fill="#cc7227"/><path d="m24.5 20c-.1.1-.3.1-.4.2h-.1c-.6-.4-1.2-.8-1.8-1.2.7-.4 1.5-.8 2.2-1.2h.1z" fill="#dd8536"/><path d="m19.1 23c-.6.4-1.3.7-1.8 1.1 0-.4 0-.8 0-1.3 0-.3 0-.6 0-.9v-.1z" fill="#cc7227"/><path d="m17.2 24.1c-.1.1-.2.1-.3.2h-.1c-.6-.4-1.2-.8-1.8-1.2.7-.4 1.4-.8 2.1-1.2h.1v.1.9z" fill="#dd8536"/><path d="m17.3 20.1c-.1.1-.2.1-.2 0-.7-.4-1.4-.8-2.1-1.3.7-.4 1.4-.8 2.2-1.1h.1v.2.8z" fill="#dd8536"/><path d="m19.4 19c-.7.4-1.4.8-2.1 1.1 0-.4 0-.9 0-1.3 0-.3 0-.6 0-.8 0-.1 0-.1 0-.2.7.4 1.4.8 2.1 1.2z" fill="#cc7227"/><path d="m21.2 18c-.1.1-.2.1-.3.2h-.1c-.6-.4-1.3-.8-2-1.2.8-.4 1.5-.7 2.3-1.1h.1v.8z" fill="#dd8536"/><path d="m23 17c-.6.3-1.2.6-1.8 1 0-.4 0-.8 0-1.2 0-.3 0-.5 0-.8.6.3 1.2.7 1.8 1z" fill="#cc7227"/><path d="m13.6 22.2c-.8-.5-1.5-.9-2.3-1.3.7-.4 1.4-.8 2.1-1.2h.1v.2.9c.1.5.1.9.1 1.4z" fill="#dd8536"/><path d="m15.8 21c-.7.4-1.4.8-2.1 1.2h-.1c0-.5 0-.9 0-1.4 0-.3 0-.6 0-.9 0-.1 0-.2 0-.2.7.4 1.5.8 2.2 1.3z" fill="#cc7227"/></g><g><path d="m25.1 14.3c-.1 0-.1 0 0 0-.8.3-1.6.6-2.4.9-.2-.1-.3-.2-.5-.3-.1-.1-.1-.2 0-.3.9-.4 1.9-.8 2.8-1.1 0 .3 0 .5.1.8z" fill="#ffb961"/><path d="m27.3 14.9c-.2.1-.3.2-.5.2-.5-.3-1.1-.5-1.7-.8 0-.2 0-.5-.1-.7h.1c.8.4 1.5.7 2.2 1.1.1 0 .1.1 0 .2z" fill="#f3a250"/><path d="m28.4 16h-.1c-.8.3-1.6.7-2.4 1.1-.2-.1-.3-.2-.5-.3-.1-.1-.1-.2 0-.3 1-.5 2-1 2.9-1.4h.1z" fill="#ffb961"/><path d="m30.8 16.8c-.2.1-.3.1-.5.2-.6-.4-1.2-.7-1.8-1 0-.1 0-.6-.1-.8.8.4 1.6.9 2.3 1.3.2.1.2.3.1.3z" fill="#f3a250"/><path d="m12.5 18.6c-.1.1-.3.1-.4.2 0 0 0 0-.1 0-1.1-.6-1.5-.8-1.9-1 0-.3 0-.5-.1-.8.1 0 2.3 1.2 2.4 1.2.2.2.2.4.1.4z" fill="#f3a250"/><path d="m10.2 17.9h-.1c-.7.4-1.3.8-2 1.1-.1 0-.4-.2-.5-.2-.1-.1-.1-.2 0-.3s2.4-1.4 2.5-1.4c0 .3.1.6.1.8z" fill="#ffb961"/><path d="m23.8 13.2c-.2.1-.4.2-.6.2-.4-.2-.9-.4-1.3-.6-.1-.1-.3-.1-.5-.1v-.1c0-.2 0-.4-.1-.7.2 0 .4 0 .5.1.6.3 1.3.6 1.9.8.2.2.2.4.1.4z" fill="#f3a250"/><path d="m21.5 12.8c-.1 0-.1 0 0 0-.3 0-.4 0-.6.1-.5.2-1 .4-1.5.6-.2-.1-.4-.2-.5-.3s-.1-.2 0-.3c.7-.3 1.3-.5 2-.8.1-.1.3-.1.5-.1 0 .3.1.5.1.8 0-.1 0-.1 0 0z" fill="#ffb961"/><path d="m20.4 23.9c-.8.4-1.6.9-2.2 1.3-.1-.1-.3-.2-.4-.3s-.1-.2 0-.2c.8-.5 1.7-1 2.6-1.5-.1.2 0 .4 0 .7z" fill="#ffb961"/><path d="m22.4 24.8c-.1.1-.3.1-.4.2-.5-.4-1-.7-1.5-1.1 0 0 0 0-.1 0 0-.3 0-.5-.1-.8h.1c.7.4 1.3.9 2 1.4.1.1.1.2 0 .3z" fill="#f3a250"/><path d="m16.8 25.9c-1 .6-1.8 1.1-2.4 1.4-.1-.1-.3-.2-.4-.3s-.1-.2 0-.2c.6-.4 1.6-.9 2.8-1.6v.4z" fill="#ffb961"/><path d="m18.7 26.7c-.1.1-.3.1-.4.2-.4-.3-.9-.6-1.3-.9h-.1c0-.1 0-.2 0-.3 0-.2 0-.3 0-.4h.1c.6.4 1.2.8 1.8 1.2 0 0 0 .1-.1.2z" fill="#f3a250"/><path d="m27.7 20h-.1c-.7.4-1.5.8-2.2 1.2-.1-.1-.3-.2-.4-.3s-.1-.2 0-.2c.9-.5 1.8-1 2.7-1.4h.1c-.2.2-.1.4-.1.7z" fill="#ffb961"/><path d="m29.8 20.9c-.1.1-.3.1-.4.2-.5-.4-1.1-.8-1.7-1.1 0-.3 0-.5-.1-.8h.1c.7.5 1.4 1 2.1 1.4.1.1.1.2 0 .3z" fill="#f3a250"/><path d="m16 24.8c-.1.1-.3.2-.4.2-.6-.4-1.2-.8-1.9-1.2 0-.3 0-.5-.1-.8h.1c.8.5 1.5 1 2.3 1.5.1.1.1.3 0 .3z" fill="#f3a250"/><path d="m13.7 23.9h-.1c-1 .6-1.8 1-2.4 1.4-.1-.1-.3-.2-.4-.3s-.1-.2 0-.2c.6-.4 1.6-1 2.8-1.7h.1c-.1.3-.1.5 0 .8z" fill="#ffb961"/><path d="m33.7 18.8c-.1.1-.3.1-.4.2-.5-.3-1-.7-1.5-1 0-.3-.1-.5-.1-.8.1 0 1.7 1.1 2 1.3.1.1.1.2 0 .3z" fill="#f3a250"/><path d="m31.8 18h-.1c-.8.4-1.7.8-2.7 1.3-.1-.1-.3-.2-.4-.3s-.1-.2 0-.3c1-.5 3.1-1.5 3.2-1.5z" fill="#ffb961"/><path d="m24.1 21.9c-.1 0-.1-.1-.2 0-.7.4-1.5.8-2.2 1.2-.1-.1-.3-.2-.4-.3s-.1-.2 0-.2c.8-.5 1.7-1 2.6-1.4h.1c0 .2 0 .5.1.7z" fill="#ffb961"/><path d="m26.1 22.8c-.1.1-.3.2-.4.2-.5-.4-1.1-.8-1.6-1.1 0-.3 0-.5-.1-.8.7.5 1.4.9 2.1 1.4.1.1.1.3 0 .3z" fill="#f3a250"/><path d="m10.1 21.8c-.1-.1-.1 0-.2 0-.7.4-1.4.9-2.2 1.4-.1-.1-.3-.2-.4-.3s-.1-.2 0-.2c.8-.6 1.7-1.1 2.6-1.6h.1c.1.2.1.4.1.7z" fill="#ffb961"/><path d="m12.7 22.8c-.1.1-.3.2-.4.3-.7-.4-1.4-.8-2.2-1.2 0-.3 0-.5-.1-.8.9.5 1.8 1 2.6 1.5.2 0 .2.1.1.2z" fill="#f3a250"/><path d="m16.2 16.7c-.2.1-.3.2-.5.2-.6-.3-1.2-.6-1.8-.9 0-.3 0-.5-.1-.8.1 0 2.3 1.2 2.4 1.2.1.1.1.2 0 .3z" fill="#f3a250"/><path d="m13.9 16h-.1c-.7.4-1.4.7-2.1 1.1-.2-.1-.3-.2-.5-.2-.1-.1-.1-.2 0-.3s2.6-1.4 2.7-1.4c-.1.3 0 .5 0 .8z" fill="#ffb961"/><path d="m20 14.8c-.2.1-.3.2-.5.2-.6-.3-1.1-.6-1.7-.9 0-.4 0-.5-.1-.8.1 0 2.2 1.1 2.3 1.2s.1.3 0 .3z" fill="#f3a250"/><path d="m17.8 14.2h-.1c-.8.3-1.5.7-2.3 1-.2-.1-.3-.2-.5-.3-.1-.1-.1-.2 0-.3.3-.1 2.7-1.3 2.8-1.3 0 .2 0 .4.1.7z" fill="#ffb961"/><path d="m9.1 20.7c-.1.1-.3.2-.4.3-.6-.3-1.3-.7-1.9-1 0-.2 0-.5-.1-.8.1 0 2.3 1.2 2.4 1.2 0 .1.1.2 0 .3z" fill="#f3a250"/><path d="m6.7 20h-.1c-.6.4-1.2.8-1.8 1.2-.2-.2-.3-.2-.5-.3-.1-.1-.1-.2 0-.2.1-.1 2.2-1.4 2.3-1.4.1.2.1.4.1.7z" fill="#ffb961"/><path d="m23.1 20.8c-.1.1-.3.2-.4.2-.6-.4-1.2-.8-1.8-1.2h-.1c0-.2 0-.5 0-.8h.1c.8.5 1.5.9 2.3 1.4 0 .2 0 .3-.1.4z" fill="#f3a250"/><path d="m20.7 19.8c-.8.4-1.5.8-2.2 1.2-.1-.1-.3-.2-.4-.3s-.1-.2 0-.2c.8-.5 1.7-1 2.6-1.4z" fill="#ffb961"/><path d="m26.7 18.8c-.1.1-.3.1-.4.2-.6-.4-1.2-.8-1.8-1.1 0-.3 0-.5-.1-.8h.1c.8.5 1.5.9 2.2 1.4.1.1.1.3 0 .3z" fill="#f3a250"/><path d="m24.5 17.9h-.1c-.7.4-1.5.8-2.2 1.2-.1-.1-.3-.2-.4-.3s-.1-.2 0-.2c.9-.5 1.8-.9 2.6-1.4h.1c-.1.2-.1.4 0 .7z" fill="#ffb961"/><path d="m19.5 22.8c-.1.1-.3.2-.4.2-.6-.4-1.2-.8-1.9-1.2 0-.3 0-.5-.1-.8h.1c.8.5 1.5 1 2.3 1.4.1.2.1.3 0 .4z" fill="#f3a250"/><path d="m17.2 21.8h-.1c-.7.4-1.4.8-2.1 1.2-.1-.1-.3-.2-.4-.3s-.1-.2 0-.2c.8-.5 1.6-.9 2.5-1.5h.1z" fill="#ffb961"/><path d="m17.2 17.8h-.1c-.7.4-1.5.7-2.2 1.1-.2-.1-.3-.2-.5-.3-.1-.1-.1-.2 0-.3s2.6-1.4 2.7-1.4c.1.4.1.6.1.9z" fill="#ffb961"/><path d="m19.8 18.7c-.1.1-.3.2-.4.2-.7-.4-1.4-.8-2.1-1.2 0-.2 0-.5 0-.8.1 0 2.5 1.4 2.6 1.5 0 .1 0 .3-.1.3z" fill="#f3a250"/><path d="m21.1 15.9h-.1c-.8.3-1.5.7-2.3 1.1-.2-.1-.3-.2-.5-.3-.1-.1-.1-.2 0-.3.9-.4 1.9-.9 2.8-1.3.1.4.1.6.1.8z" fill="#ffb961"/><path d="m23.5 16.8c-.2.1-.3.2-.5.2-.6-.4-1.2-.7-1.8-1.1 0-.3 0-.5-.1-.8h.1c.8.4 1.5.9 2.3 1.3.1.2.1.3 0 .4z" fill="#f3a250"/><path d="m13.6 19.7h-.1c-.7.4-1.4.8-2.1 1.2-.1-.1-.3-.2-.4-.3s-.1-.2 0-.3c.8-.5 1.7-1 2.5-1.4h.1c-.1.3 0 .6 0 .8z" fill="#ffb961"/><path d="m16.2 20.7c-.1.1-.3.2-.4.3-.7-.4-1.5-.9-2.2-1.3 0-.2 0-.5 0-.8h.1l2.7 1.5c-.1.1-.1.3-.2.3z" fill="#f3a250"/></g><g><path d="m35 20.9v.5c-.8.5-1.5.9-2.3 1.4-5.6 3.3-11.1 6-16.3 8.2-.2.1-.4.1-.6.1-.3 0-.5-.1-.7-.2-4.5-2.1-9.7-5.9-12-7.6 0-.2 0-.3 0-.5 2.1 1.6 7.6 5.7 12.2 7.8.3.2.7.2 1 0 5.4-2.2 11.1-5.1 16.9-8.5.6-.4 1.2-.8 1.8-1.2z" fill="#dd8536"/></g></g><path d="m35 20.9v.5c-.8.5-1.5.9-2.3 1.4.2-.2.3-.5.5-.7.6-.4 1.2-.8 1.8-1.2z" fill="#cc7227"/></g><g fill="#fff"><g><path d="m33.8 22.7c-.3.8-.6 1.3-.3 1.5.3.1.8-.4 1.1-1.2s.1-1.4-.2-1.5c-.4-.3-.4.4-.6 1.2z" opacity=".8"/><path d="m34.1 20.6c0 .2.2.4.3.4.2 0 .3-.2.3-.4 0-.6-.6-.5-.6 0z" opacity=".8"/></g><path d="m16.9 19.4s-.2.4-.4.9c0 0 0 .1.1.1.3-.1.5-.1.5-.1s-.2.1-.4.2c0 0-.1.1 0 .1.5.3.9.5.9.5s-.5-.2-.9-.4c0 0-.1 0-.1.1.1.2.1.5.1.5s-.1-.2-.2-.4c0 0-.1-.1-.1 0-.3.4-.5.8-.5.8s.2-.4.4-.9c0 0 0-.1-.1-.1-.3.1-.5.1-.5.1s.2-.1.4-.2c.1 0 .1-.1 0-.1-.5-.3-.9-.5-.9-.5s.5.2.9.4c0 0 .1 0 .1-.1-.1-.2-.1-.5-.1-.5s.1.2.2.4c0 0 .1.1.1 0 .3-.4.5-.8.5-.8z"/></g></g><g><g><g><path d="m34.1 17.9c-5.3 2.9-11 5.8-16.7 8.7l-.6.3c-.3.2-.7.2-1 .2-.1 0-.2 0-.3 0-.3 0-.7-.1-.9-.3-3.4-2.2-7-4.4-10.6-6.8 5.2-3.4 10.7-6.3 16.6-8.6.5-.2 1.1-.2 1.6 0 4.5 2 8.5 4.1 11.9 6.5z" fill="#51383c" opacity=".4"/><path d="m34.4 17.2c-.4.5-14.8 7.9-17.2 9.1-.2.1-.4.2-.6.3-.3.2-.7.2-1 .2s-.5-.1-.8-.3c-3.6-2.3-7.2-4.6-10.8-7-.1 0-.1-.1-.2-.1s-.1-.1-.1-.1c-.5-.5-.7-1.6-.7-2.8 0-.2 0-.3 0-.5 0-1.1.2-2.1.6-2.5 2.3 0 3.6 1.1 3.8 2.4 4.2-2.5 8.5-4.6 13.2-6.4.5-.2 1.1-.2 1.6 0 2.7 1.2 5.2 2.4 7.5 3.7.6-1 1.9-1.8 4.1-1.9h.6c.8 1 .8 5 0 5.9z" fill="#ffb961"/><path d="m15.8 25.4c0 .5-.1 1-.3 1.4-.3 0-.5-.1-.8-.3-3.6-2.3-7.2-4.6-10.8-7 1.3.7 1.6.1 4 1.9.8.6 1.6 1.3 2.5 1.7s2 .7 3 .3c.5-.2.9-.5 1.2-1 .1-.2.4-1.1.8-.8.2.1.2.7.2.9.1.3.1.6.1 1 .1.6.1 1.2.1 1.9z" fill="#f3a250"/><path d="m34.4 17.2c-.4.5-14.8 7.9-17.2 9.1 2.2-2.1 4.7-3.8 7.5-5.2 2.7-1.3 6-2.3 7.9-4.9.9-1.3 1.5-2.9 1.1-4.4l.1-.4h.6c.8.9.8 4.9 0 5.8z" fill="#f3a250"/><path d="m34.1 12.6c-5.7 3.1-11.5 6.1-17.5 9.1-.6.3-1.3.3-1.8-.1-3.7-2.3-7.4-4.7-11-7.1-.4-.3-.4-.9 0-1.2 5.2-3.4 10.8-6.4 16.8-8.7.5-.2 1.1-.2 1.6 0 4.5 1.9 8.5 4.1 11.9 6.5.6.4.5 1.2 0 1.5z" fill="#ffd475"/><path d="m34.2 11.1c-3.4-2.4-7.4-4.5-11.9-6.5-.1-.1-.3-.1-.4-.1.4 1.2.6 2.4.6 3.6.1 2.8-1.3 5.9-3.3 7.8-2 2-5 3.3-7.8 3.3-.1 0-.2 0-.3 0 1.3.8 2.5 1.6 3.8 2.4.5.3 1.2.4 1.8.1 6-3 11.8-6 17.5-9.1.4-.3.5-1.1 0-1.5z" fill="#ffb961" opacity=".4"/><g><path d="m25.1 9.1c-.2.1-.4.2-.6.3h-.1c-.6-.3-1.1-.7-1.7-1 .8-.3 1.5-.6 2.3-.9h.1v.7z" fill="#dd8536"/><path d="m26.8 8.3c-.5.3-1.1.5-1.7.8 0-.3 0-.7 0-1 0-.2 0-.4 0-.7.6.4 1.1.6 1.7.9z" fill="#cc7227"/><path d="m28.5 11.1c-.2.1-.5.2-.7.4h-.1c-.6-.4-1.2-.8-1.8-1.1.9-.4 1.7-.8 2.4-1.1h.1v.8c.1.3.1.6.1 1z" fill="#dd8536"/><path d="m30.3 10.2c-.6.3-1.2.6-1.8.9 0-.4 0-.7 0-1.1 0-.3 0-.5 0-.8.6.3 1.2.7 1.8 1z" fill="#cc7227"/><path d="m12.1 12.1c-.6.4-1.2.7-1.9 1.1 0-.4 0-.8 0-1.1s0-.5 0-.8v-.1c.6.2 1.2.5 1.9.9z" fill="#cc7227"/><path d="m10.2 13.2c-.1 0-.1.1-.2.1h-.1c-.6-.3-1.2-.7-1.9-1 .7-.4 1.3-.8 2-1.1h.1v.1.8c.1.3.1.7.1 1.1z" fill="#dd8536"/><path d="m23.2 6.6c-.6.2-1.2.5-1.7.7 0-.3 0-.5 0-.8 0-.2 0-.4 0-.6.2 0 .3 0 .5.1.4.3.8.4 1.2.6z" fill="#cc7227"/><path d="m21.5 7.4c-.1 0-.2.1-.3.1h-.1c-.5-.3-1.1-.6-1.6-.9l1.5-.6s.2-.1.4-.1h.1v.6z" fill="#dd8536"/><path d="m20.4 18.9c-.2.1-.5.2-.7.4h-.1c-.5-.3-.9-.7-1.4-1 .7-.4 1.4-.8 2.2-1.2h.1v.8c-.1.3-.1.7-.1 1z" fill="#dd8536"/><path d="m22 18.1c-.5.3-1.1.5-1.6.8 0-.4 0-.7 0-1.1 0-.3 0-.5 0-.8h.1c.5.4 1 .8 1.5 1.1z" fill="#cc7227"/><path d="m16.9 20.7c-.2.1-.4.2-.6.3s-.3.1-.5.1-.4-.1-.6-.2c-.3-.2-.5-.3-.8-.5.6-.4 1.4-.8 2.4-1.4h.1v.6z" fill="#dd8536"/><path d="m18.3 20c-.5.2-.9.5-1.4.7 0-.4 0-.7 0-1.1 0-.2 0-.4 0-.6h.1c.4.4.8.7 1.3 1z" fill="#cc7227"/><path d="m27.7 15.2c-.2.1-.4.2-.6.3 0 0-.1 0-.2 0-.5-.4-1.1-.8-1.7-1.2.8-.4 1.5-.8 2.2-1.2h.1v.8c.2.5.2.9.2 1.3z" fill="#dd8536"/><path d="m29.4 14.3c-.5.3-1.1.6-1.6.9 0-.4 0-.8 0-1.2 0-.3 0-.5 0-.8.5.3 1 .7 1.6 1.1z" fill="#cc7227"/><path d="m15.6 18.2c-.8.4-1.4.8-1.9 1.1 0-.4 0-.9 0-1.3 0-.8 0-.8 0-1 .1.1 1.6 1 1.9 1.2z" fill="#cc7227"/><path d="m13.7 19.3c-.2.1-.4.2-.5.3 0 0-.1 0-.2 0-.6-.4-1.2-.8-1.9-1.2 2.4-1.5 2.4-1.5 2.5-1.4v1c.1.5.1.9.1 1.3z" fill="#dd8536"/><path d="m33.3 12.2c-.5.3-1 .5-1.5.8 0-1 0-1.4 0-1.8.5.3 1 .6 1.5 1z" fill="#cc7227"/><path d="m31.8 13c-1.1.6-1.1.6-1.2.6-.5-.4-1.1-.8-1.6-1.1.9-.5 1.8-.9 2.7-1.3h.1v.7z" fill="#dd8536"/><path d="m24.1 17c-.2.1-.5.2-.7.4h-.1c-.5-.4-1-.7-1.6-1.1.7-.4 1.5-.8 2.2-1.2h.2v.1.8z" fill="#dd8536"/><path d="m25.7 16.2c-.5.3-1.1.6-1.6.8 0-.3 0-.7 0-1s0-.5 0-.8v-.1c.5.4 1.1.7 1.6 1.1z" fill="#cc7227"/><path d="m10.2 17.5c-.2.1-.3.2-.4.1-.7-.4-1.4-.9-2-1.3.7-.5 1.4-.9 2.2-1.4h.1v.2c.1.5.1.9.1 2.4z" fill="#dd8536"/><path d="m12.3 16.2c-.9.5-1.6 1-2.1 1.3 0-2.1 0-1.7-.1-2.5.8.4 1.5.8 2.2 1.2z" fill="#cc7227"/><path d="m15.7 10.1c-.6.3-1.2.6-1.8.9 0-.4 0-.7 0-1.1 0-.3 0-.5 0-.8.6.4 1.2.7 1.8 1z" fill="#cc7227"/><path d="m13.9 11c-.1.1-.2.1-.3.2h-.1c-.6-.3-1.2-.7-1.8-1 .7-.4 1.4-.7 2.1-1.1h.1v.8z" fill="#dd8536"/><path d="m19.5 8.2c-.6.3-1.1.5-1.7.8 0-.3 0-.7 0-1 0-.2 0-.5 0-.7.6.3 1.2.6 1.7.9z" fill="#cc7227"/><path d="m17.8 9.1c-.2.1-.4.2-.5.3h-.1c-.6-.4-1.2-.7-1.8-1 .8-.4 1.5-.7 2.3-1h.1v.7z" fill="#dd8536"/><path d="m8.6 14.1c-.6.4-1.2.8-1.9 1.2 0-.4 0-.8 0-1.2 0-.3 0-.5 0-.8 0-.1 0-.1 0-.1.6.3 1.3.6 1.9.9z" fill="#cc7227"/><path d="m6.7 15.3c-.1 0-.1.1-.1.1s-.1 0-.2 0c-.6-.4-1.1-.7-1.7-1.1.6-.4 1.2-.8 1.8-1.2h.1v.1.8c.1.5.1.9.1 1.3z" fill="#dd8536"/><path d="m22.6 14.2c-.6.4-1.3.7-1.9 1 0-.4 0-.8 0-1.2 0-.3 0-.6 0-.8v-.1h.1c.6.3 1.2.7 1.8 1.1z" fill="#cc7227"/><path d="m20.8 15.2c-.1.1-.2.1-.3.2h-.1c-.6-.4-1.2-.8-1.8-1.2.7-.4 1.4-.8 2.1-1.2h.1v.1.8z" fill="#dd8536"/><path d="m26.3 12.2c-.6.3-1.2.6-1.8.9 0-.4 0-.8 0-1.3 0-.3 0-.5 0-.8.6.5 1.2.8 1.8 1.2z" fill="#cc7227"/><path d="m24.5 13.2c-.1.1-.3.1-.4.2h-.1c-.6-.4-1.2-.8-1.8-1.2.7-.4 1.5-.8 2.2-1.2h.1v.8z" fill="#dd8536"/><path d="m19.1 16.2c-.6.4-1.3.7-1.8 1.1 0-1.4 0-1.7 0-2.2.6.4.8.4 1.8 1.1z" fill="#cc7227"/><path d="m17.2 17.2c-.3.2-.3.2-.4.2-.6-.4-1.2-.8-1.8-1.2 2.2-1.3 2.1-1.3 2.2-1.2v1z" fill="#dd8536"/><path d="m17.3 13.3c-.2.1.1.2-2.3-1.2.7-.4 1.4-.8 2.2-1.1h.1z" fill="#dd8536"/><path d="m19.4 12.2c-.7.4-1.4.8-2.1 1.1 0-2.1 0-1.6-.1-2.3.8.3 1.5.7 2.2 1.2z" fill="#cc7227"/><path d="m21.2 11.2c-.1.1-.2.1-.3.2h-.1c-.6-.4-1.3-.8-2-1.2.8-.4 1.5-.7 2.3-1.1h.1v.8z" fill="#dd8536"/><path d="m23 10.2c-.6.3-1.2.6-1.8 1 0-.4 0-.8 0-1.2 0-.3 0-.5 0-.8.6.3 1.2.6 1.8 1z" fill="#cc7227"/><path d="m13.6 15.4c-.1 0-.2-.1-2.3-1.3l2.1-1.2h.1c.1.6.1.8.1 2.5z" fill="#dd8536"/><path d="m15.8 14.2c-1.8 1-2.1 1.2-2.2 1.2 0-1.5 0-1.9-.1-2.5.8.4 1.6.8 2.3 1.3z" fill="#cc7227"/></g><g><path d="m25.1 7.5c-.1 0-.1 0 0 0-.8.3-1.6.6-2.4.9-.2-.1-.3-.2-.5-.3-.1-.1-.1-.2 0-.3.9-.3 1.8-.7 2.8-1.1 0 .3 0 .5.1.8z" fill="#ffb961"/><path d="m27.3 8.1c-.2.1-.3.2-.5.2-.5-.3-1.1-.5-1.7-.8-.1-.3-.1-.5-.1-.8h.1c.8.4 1.5.7 2.2 1.1.1.1.1.2 0 .3z" fill="#f3a250"/><path d="m28.4 9.2h-.1c-.8.3-1.6.7-2.4 1.1-.2-.1-.3-.2-.5-.3-.1-.1-.1-.2 0-.3 1-.5 2-1 2.9-1.4h.1z" fill="#ffb961"/><path d="m30.8 10c-.2.1-.3.1-.5.2-.6-.4-1.2-.7-1.8-1 0-.3 0-.5-.1-.8.8.4 1.6.9 2.3 1.3.2.1.2.3.1.3z" fill="#f3a250"/><path d="m12.5 11.8c-.1.1-.3.1-.4.2 0 0 0 0-.1 0-.6-.3-1.2-.7-1.9-1 0-.3 0-.5-.1-.8h.1c.8.4 1.6.8 2.3 1.2.2.2.2.4.1.4z" fill="#f3a250"/><path d="m10.2 11.1h-.1c-.7.4-1.3.8-2 1.1h-.1c-.1-.1-.2-.1-.4-.2-.1-.1-.1-.2 0-.3.8-.5 1.6-1 2.5-1.4h.1c-.1.3 0 .5 0 .8z" fill="#ffb961"/><path d="m23.8 6.4c-.2.1-.4.2-.6.2-.4-.2-.9-.4-1.3-.6-.1 0-.3 0-.4 0v-.1c0-.2 0-.4-.1-.7.2 0 .4 0 .5.1.6.3 1.3.6 1.9.8.1.1.1.3 0 .3z" fill="#f3a250"/><path d="m21.5 6c-.1-.1-.1-.1 0 0-.3 0-.4 0-.6.1-.5.2-1 .4-1.5.6-.2-.1-.4-.2-.5-.3s-.1-.2 0-.3c.7-.3 1.3-.5 2-.8.2-.1.3-.1.5-.1 0 .2.1.4.1.8 0-.1 0-.1 0 0z" fill="#ffb961"/><path d="m20.4 17.1c-.8.4-1.6.9-2.2 1.3-.1-.1-.3-.2-.4-.3s-.1-.2 0-.2c.8-.5 1.7-1 2.6-1.5-.1.2 0 .4 0 .7z" fill="#ffb961"/><path d="m22.4 17.9c-.1.1-.3.1-.4.2-.5-.4-1-.7-1.5-1.1 0 0 0 0-.1 0 0-.3 0-.5-.1-.8h.1c.7.4 1.3.9 2 1.4.1.1.1.3 0 .3z" fill="#f3a250"/><path d="m16.8 19.1c-1 .6-1.8 1.1-2.4 1.4-.1-.1-.3-.2-.4-.3s-.1-.2 0-.2c.6-.4 1.6-.9 2.8-1.6v.4z" fill="#ffb961"/><path d="m18.7 19.8c-.1.1-.3.1-.4.2-.4-.3-.9-.6-1.3-.9h-.1c0-.1 0-.2 0-.3 0-.2 0-.3 0-.4h.1c.6.4 1.2.8 1.8 1.2 0 0 0 .2-.1.2z" fill="#f3a250"/><path d="m27.7 13.1h-.1c-.7.4-1.5.8-2.2 1.2-.1-.1-.3-.2-.4-.3s-.1-.2 0-.2c.9-.5 1.8-1 2.7-1.4h.1c-.2.2-.1.5-.1.7z" fill="#ffb961"/><path d="m29.8 14.1c-.1.1-.3.1-.4.2-.5-.4-1.1-.8-1.7-1.1 0-.3 0-.5-.1-.8h.1c.7.5 1.4 1 2.1 1.4.1.1.1.2 0 .3z" fill="#f3a250"/><path d="m16 18c-.1.1-.3.2-.4.2-.2-.1-1.8-1.2-1.9-1.2 0-.3 0-.5-.1-.8.1 0 2.3 1.4 2.4 1.5s.1.2 0 .3z" fill="#f3a250"/><path d="m13.7 17c-.1 0-.1 0-2.5 1.4-.1-.1-.3-.2-.4-.3s-.1-.2 0-.2 2.8-1.7 2.9-1.7c-.1.4-.1.6 0 .8z" fill="#ffb961"/><path d="m33.7 11.9c-.1.1-.3.1-.4.2-.5-.3-1-.7-1.5-1 0-.3-.1-.5-.1-.8.1 0 1.7 1.1 2 1.3.1.1.1.3 0 .3z" fill="#f3a250"/><path d="m31.8 11.2h-.1c-.8.4-1.7.8-2.7 1.3-.1-.1-.3-.2-.4-.3s-.1-.2 0-.3c1-.5 3.1-1.5 3.2-1.5z" fill="#ffb961"/><path d="m24.1 15.1c-.1 0-.1-.1-.2 0-.7.4-1.5.8-2.2 1.2-.1-.1-.3-.2-.4-.3s-.1-.2 0-.2c.8-.5 1.7-1 2.6-1.4h.1c0 .2 0 .4.1.7z" fill="#ffb961"/><path d="m26.1 16c-.1.1-.3.1-.4.2-.5-.4-1.1-.8-1.6-1.1 0-.3 0-.5-.1-.8.7.5 1.4.9 2.1 1.4.1.1.1.3 0 .3z" fill="#f3a250"/><path d="m10.1 15c0-.1 0-.1 0 0-.1-.1-.1 0-.2 0-.7.4-1.4.9-2.2 1.4-.1-.1-.3-.2-.4-.3s-.1-.2 0-.2c.8-.6 1.7-1.1 2.6-1.6h.1c.1.2.1.4.1.7z" fill="#ffb961"/><path d="m12.7 15.9c-.1.1-.3.2-.4.3-.7-.4-1.4-.8-2.2-1.2 0-.3 0-.5-.1-.8.9.5 1.8 1 2.6 1.5.2 0 .2.2.1.2z" fill="#f3a250"/><path d="m16.2 9.9c-.2.1-.3.2-.5.2-.6-.3-1.2-.6-1.8-.9 0-.3 0-.5-.1-.8h.1c.8.4 1.5.8 2.3 1.2.1.1.1.2 0 .3z" fill="#f3a250"/><path d="m13.9 9.2h-.1c-.7.4-1.4.7-2.1 1.1-.2-.1-.3-.2-.5-.2-.2-.1-.2-.3-.1-.3.9-.5 1.7-.9 2.6-1.3h.1c0 .2.1.4.1.7z" fill="#ffb961"/><path d="m20 8c-.2.1-.3.2-.5.2-.6-.3-1.1-.6-1.7-.9v-.1c0-.2 0-.4-.1-.7h.1c.8.5 1.5.9 2.2 1.3.1 0 .1.2 0 .2z" fill="#f3a250"/><path d="m17.8 7.3h-.1c-.8.3-1.5.7-2.3 1-.2-.1-.3-.2-.5-.3-.1-.1-.1-.2 0-.3.9-.4 1.9-.9 2.8-1.3h.1c0 .2 0 .4.1.7-.1.2-.1.2-.1.2z" fill="#ffb961"/><path d="m9.1 13.9c-.1.1-.3.2-.4.3-.6-.3-1.3-.7-1.9-1 0-.2 0-.5-.1-.8h.1c.8.4 1.6.8 2.3 1.2 0 .1.1.2 0 .3z" fill="#f3a250"/><path d="m6.7 13.1h-.1c-.6.4-1.2.8-1.8 1.2-.1-.1-.3-.2-.4-.3s-.1-.2 0-.2c.7-.5 1.5-1 2.2-1.4h.1z" fill="#ffb961"/><path d="m23.1 13.9c-.1.1-.3.2-.4.2-.6-.4-1.2-.8-1.8-1.2h-.1c0-.2 0-.5 0-.8h.1c.8.5 1.5.9 2.3 1.4 0 .2 0 .4-.1.4z" fill="#f3a250"/><path d="m20.7 13c-.8.4-1.5.8-2.2 1.2-.1-.1-.3-.2-.4-.3s-.1-.2 0-.2c.8-.5 1.7-1 2.6-1.4z" fill="#ffb961"/><path d="m26.7 12c-.1.1-.3.1-.4.2-.6-.4-1.2-.8-1.8-1.1 0-.3 0-.5-.1-.8h.1c.8.5 1.5.9 2.2 1.4.1.1.1.2 0 .3z" fill="#f3a250"/><path d="m24.5 11.1h-.1c-.7.4-1.5.8-2.2 1.2-.2-.2-.4-.3-.5-.3-.1-.1-.1-.2 0-.2.9-.5 1.8-.9 2.6-1.4h.1c0 .2 0 .4.1.7z" fill="#ffb961"/><path d="m19.5 15.9c-.1.1-.3.2-.4.2-1-.6-1.2-.8-1.9-1.2 0-.3 0-.5-.1-.8.1 0 2.3 1.4 2.4 1.5.1.2.1.3 0 .3z" fill="#f3a250"/><path d="m17.2 15c-.1 0 0-.1-2.2 1.2-.1-.1-.3-.2-.4-.3s-.1-.2 0-.2c.2-.1 2.5-1.5 2.6-1.5z" fill="#ffb961"/><path d="m17.2 11h-.1c-.7.4-1.5.7-2.2 1.1-.2-.1-.3-.2-.5-.3-.1-.1-.1-.2 0-.3.9-.5 1.8-.9 2.6-1.4h.1c.1.4.1.6.1.9z" fill="#ffb961"/><path d="m19.8 11.9c-.1.1-.3.2-.4.2-1.2-.7-2-1.1-2.1-1.2 0-.2 0-.5 0-.8h.1c.9.5 1.7 1 2.5 1.5 0 .1 0 .3-.1.3z" fill="#f3a250"/><path d="m21.1 9.1h-.1c-.8.3-1.5.7-2.3 1.1-.2-.1-.3-.2-.5-.3-.1-.1-.1-.2 0-.3.9-.4 1.9-.9 2.8-1.3.1.3.1.6.1.8z" fill="#ffb961"/><path d="m23.5 10c-.2.1-.3.2-.5.2-.6-.4-1.2-.7-1.8-1.1 0-.3 0-.5-.1-.8h.1c.8.4 1.5.9 2.3 1.3.1.2.1.3 0 .4z" fill="#f3a250"/><path d="m13.6 12.9h-.1c-.7.4-1.4.8-2.1 1.2-.1-.1-.3-.2-.4-.3s-.1-.2 0-.3c.8-.5 1.7-1 2.5-1.4h.1c-.1.3 0 .5 0 .8z" fill="#ffb961"/><path d="m16.2 13.9c-.1.1-.3.2-.4.3-.7-.4-1.5-.9-2.2-1.3 0-.2 0-.5 0-.8h.1l2.7 1.5c-.1.1-.1.3-.2.3z" fill="#f3a250"/></g><g><path d="m35 14.1v.5c-5.9 3.6-12.1 6.9-18.6 9.5-.2.1-.4.1-.6.1-.3 0-.5-.1-.7-.2-4.5-2.1-9.7-5.9-12-7.6 0-.2 0-.3 0-.5 2.1 1.6 7.6 5.7 12.2 7.8.3.2.7.2 1 0 6.5-2.6 12.8-5.9 18.7-9.6z" fill="#dd8536"/></g></g><path d="m35 14.1v.5c-.8.5-1.5.9-2.3 1.4.2-.2.3-.5.5-.7.6-.4 1.2-.8 1.8-1.2z" fill="#cc7227"/></g><g fill="#fff"><g><path d="m33.8 15.8c-.3.8-.6 1.3-.3 1.5.3.1.8-.4 1.1-1.2s.1-1.4-.2-1.5c-.4-.2-.4.5-.6 1.2z" opacity=".8"/><path d="m34.1 13.8c0 .5.7.5.6 0 0-.3-.6-.5-.6 0z" opacity=".8"/></g><path d="m16.5 13.5s.1.1 0 0c.7-.1.7 0 .1.2 0 0-.1.1 0 .1 1.2.6 1.1.7-.1.1 0 0-.1 0-.1.1.2.6.1.6-.1 0 0 0-.1-.1-.1 0-.6 1.1-.7 1.1-.1-.1 0 0 0-.1-.1-.1-.6.2-.6.1 0-.1.1 0 .1-.1 0-.1-1.2-.6-1.1-.7.1-.1 0 0 .1 0 .1-.1-.2-.6-.1-.6.1 0 0 0 .1.1.1 0 .7-1.1.7-1.1.1.1z"/></g></g></g></svg>