<svg id="Layer_1" enable-background="new 0 0 53 53" height="512" viewBox="0 0 53 53" width="512" xmlns="http://www.w3.org/2000/svg"><g id="_x33_6"><path d="m29.0532055 27.1867294c-.1077747-.0627193-1.8245621-1.0617867-1.7157288-.9984512.0233231 8.261879.0463867 16.4318352.0595531 21.0963554l1.7158566.9978065c-.0020733-.7332496-.0539798-19.0802478-.0596809-21.0957107z"/><path d="m33.9327202 4.5852675-3.5876064-2.0852675-23.7035194 13.6856937 3.5861926 2.0840454c1.8327246-1.0580005 21.0160484-12.1322221 23.7049332-13.6844716z"/><path d="m9.7028685 19.183363-3.5829768-2.0822449.0884943 31.3149014 3.5800824 2.0805092c-.1173067-42.9117046-.0768166-28.1001073-.0855999-31.3131657z"/><path d="m46.2935791 16.6286793-1.7215157-1.0012169c-.1004219.057971-16.8293552 9.7131157-16.7123051 9.6457138.100214.0582962 1.8297176 1.0644054 1.7208729 1.0010872 1.6049042-.9262428 14.3859749-8.3026142 16.7129479-9.6455841z"/><path d="m14.6904297 44.7358017c-.0812912.0468178-.1723576.070488-.2634239.070488-.2905636 0-.5260553-.2360039-.5268478-.5253067l-.063284-23.0228348c-.000514-.1888218.0998135-.3632374.2634239-.4579048l16.5113277-9.5362539c.1620674-.0931244.3632355-.0946684.5263329-.000515.1625824.0941534.2634239.26754.2639389.4553328l.0292606 10.2756538 3.0680256-1.7706509-.0385856-14.7258201c-1.7722969 1.0232172-21.4411507 12.37883-23.6994038 13.6826077.0086088 3.2151236-.0311212-11.622386.0838633 31.3194022l15.4776964-8.9371185-.0090675-3.5362854z"/><path d="m46.8204269 17.5416584c-1.4550552.8397732-15.0624847 8.6932049-16.7132053 9.6459064.0037746 1.3301029.0530338 18.6902466.0598755 21.1013718l16.7130108-9.6448135zm-.9707336 20.8075275c-.1564217.095253-14.0269833 8.1018066-14.1313801 8.1570091-.3520298.2014771-.7902718-.0515289-.7902718-.4563599l-.0529919-18.1217117c-.000515-.1893368.1003265-.3642673.264452-.4589348l14.1410275-8.1553364c.1625824-.0941525.3632355-.0936375.5258179.000515.1625824.0941544.2629089.26754.2634239.4553318.0030708 1.5237217.0365295 19.2353859.0365295 18.1350899.0000001.1606408-.0976943.3476334-.256607.444397z"/><path d="m43.4464645 21.5894203.030098 14.6625366 1.5694199.7879563-.0283623-16.3595486z"/><path d="m31.9817371 43.5197182v1.6179084l12.4921208-7.2062759-1.5060044-.7561226z"/></g></svg>