<svg id="&#x421;&#x43B;&#x43E;&#x439;_1" enable-background="new 0 0 4000 4000" viewBox="0 0 4000 4000" xmlns="http://www.w3.org/2000/svg"><g><path d="m924.202 1877.121c0-530.757 431.802-962.561 962.56-962.561s962.56 431.804 962.56 962.561c0 10.999-.193 22.056-.565 33.096 37.605 17.105 62.005 50.122 62.005 89.784v143.36h70.722c21.008-86.736 31.677-176.139 31.677-266.24 0-621.099-505.302-1126.401-1126.4-1126.401-621.1 0-1126.4 505.302-1126.4 1126.401 0 607.38 483.247 1103.934 1085.44 1125.576v-163.948c-511.827-21.541-921.599-444.598-921.599-961.628z"/><path d="m3136.042 2757.761h-61.44v122.88c0 22.621-18.34 40.96-40.96 40.96h-204.8c-22.622 0-40.96-18.339-40.96-40.96v-122.88h-327.68v122.88c0 22.621-18.34 40.96-40.96 40.96h-204.8c-22.623 0-40.96-18.339-40.96-40.96v-122.88h-61.44c-70.745 0-136.063-29.344-184.32-76.215v487.228c0 44.391 36.115 80.507 80.505 80.507h1231.628c44.392 0 80.507-36.116 80.507-80.507v-487.228c-48.258 46.871-113.578 76.215-184.32 76.215z"/><path d="m2787.882 1979.521h-327.68c-19.375 0-40.96 8.411-40.96 20.48v143.36h409.6v-143.36c0-12.069-21.588-20.48-40.96-20.48z"/><path d="m2869.802 2634.881h122.88v204.8h-122.88z"/><path d="m2008.227 2225.281c-44.39 0-80.505 36.115-80.505 80.506v185.734c0 99.911 84.407 184.32 184.32 184.32h61.44v-81.92c0-22.621 18.337-40.96 40.96-40.96h204.8c22.62 0 40.96 18.339 40.96 40.96v81.92h327.68v-81.92c0-22.621 18.338-40.96 40.96-40.96h204.8c22.62 0 40.96 18.339 40.96 40.96v81.92h61.44c99.91 0 184.32-84.409 184.32-184.32v-185.734c0-44.391-36.115-80.506-80.507-80.506z"/><path d="m2337.322 2000.001c0-58.377 52.825-102.4 122.88-102.4h306.855c.155-6.834.345-13.674.345-20.48 0-485.588-395.055-880.641-880.64-880.641-485.588 0-880.64 395.054-880.64 880.641 0 471.854 373.038 858.181 839.68 879.655v-265.255-185.734-19.066c0-83.069 60.29-143.36 143.36-143.36h19.065 329.095zm-409.6-122.88c0 1.349-.073 2.698-.205 4.041-.06.605-.173 1.193-.258 1.789-.105.726-.19 1.454-.333 2.175-.135.68-.323 1.34-.49 2.008-.157.629-.295 1.259-.485 1.881-.198.656-.445 1.29-.675 1.931-.22.619-.425 1.24-.675 1.849-.25.602-.545 1.181-.823 1.769-.292.624-.57 1.254-.897 1.865-.302.563-.645 1.096-.97 1.643-.36.6-.698 1.207-1.09 1.792-.41.611-.865 1.186-1.305 1.774-.36.481-.693.975-1.078 1.443-.858 1.046-1.763 2.052-2.718 3.008l-399.358 399.356c-7.997 7.999-18.48 11.998-28.963 11.998-10.482 0-20.965-3.999-28.965-11.998-15.995-15.995-15.995-41.93 0-57.925l387.365-387.364v-576.954c0-22.621 18.338-40.96 40.96-40.96 22.62 0 40.96 18.339 40.96 40.96v593.919z"/><path d="m2378.282 2634.881h-122.88v81.913.007.006 122.874h122.88z"/></g></svg>