<svg id="Capa_1" enable-background="new 0 0 463.936 463.936" height="512" viewBox="0 0 463.936 463.936" width="512" xmlns="http://www.w3.org/2000/svg"><g><path d="m403.73 463.936c15.402 0 30.898-5.93 42.589-17.63 23.475-23.465 23.475-61.694 0-85.178l-206.823-206.822c11.691-42.404 0-87.405-31.269-118.582-28.95-28.94-70.147-41.383-110.416-33.31-3.341.65-6.031 3.155-7.052 6.412-.928 3.238-.093 6.866 2.32 9.278l59.199 59.106-13.269 61.796-61.796 13.268-59.106-59.198c-2.412-2.422-6.031-3.35-9.279-2.32-3.248 1.011-5.752 3.702-6.402 7.042-8.073 40.186 4.36 81.476 33.31 110.426 31.269 31.167 76.178 42.96 118.582 31.26l206.822 206.822c11.784 11.701 27.187 17.63 42.59 17.63z"/></g></svg>